<?xml version="1.0" encoding="UTF-8"?><svg id="a" xmlns="http://www.w3.org/2000/svg" viewBox="0 0 400 500"><path d="m391.85,171.06h-127.75c-4.98,0-9.06-3.97-9.06-8.82V6.08c0-5.44-6.8-8.11-10.68-4.2L1.75,246.2c-2.33,2.35-2.33,6.07,0,8.41l242.61,243.55c3.88,3.9,10.67,1.22,10.67-4.21v-154.43c0-4.85,4.08-8.82,9.06-8.82h127.75c5.44,0,8.15-4.41,8.15-7.94v-143.77c0-4.38-3.65-7.94-8.15-7.94Zm-154.92-79.38c0,4.41-4.53,8.82-9.06,8.82s-9.06-4.41-9.06-8.82v-14.11l-20.84,20.29c-3.62,3.53-9.06,3.53-12.68,0s-3.62-8.82,0-12.35l36.24-35.28c2.72-2.65,6.34-3.53,9.97-1.76,3.62.88,5.44,4.41,5.44,7.94v35.28Zm144.96,206.4c0,7.06-7.25,14.11-14.5,14.11h-30.8c-4.53,0-9.06-4.41-9.06-8.82s4.53-8.82,9.06-8.82h27.18v-13.23c0-4.41,4.53-8.82,9.06-8.82s9.06,4.41,9.06,8.82v16.76Zm0-52.04c0,4.41-4.53,8.82-9.06,8.82s-9.06-4.41-9.06-8.82v-17.64c0-4.41,4.53-8.82,9.06-8.82s9.06,4.41,9.06,8.82v17.64Z"/></svg>