<?xml version="1.0" encoding="UTF-8"?><svg id="a" xmlns="http://www.w3.org/2000/svg" viewBox="0 0 500 500"><path d="m343.11,58.63L234.49,15.53l79.31,79.31c4.31-16.38,15.52-29.31,29.31-36.21Z"/><path d="m456.9,172.42h-206.9c-5.17,0-7.76,4.31-7.76,7.76v100l21.55-21.55c12.93-12.07,32.76-12.07,44.83,0l23.28,23.28c3.45,3.45,6.9,2.59,9.48,0l37.07-46.55c6.9-8.62,17.24-12.93,27.59-12.07,10.34.86,19.83,6.9,25,15.52l34.48,61.21v-120.69c0-4.31-4.31-6.9-8.62-6.9Zm-137.93,68.97c-14.66,0-25.86-11.21-25.86-25.86s11.21-25.86,25.86-25.86,25.86,11.21,25.86,25.86-11.21,25.86-25.86,25.86Z"/><path d="m224.14,353.46v-173.28c0-13.79,11.21-25,25-25h112.93v-85.34c-19.83,4.31-34.48,21.55-34.48,42.24,0,3.45-1.72,6.9-5.17,7.76-.86.86-6.03,1.72-9.48-1.72L194.82,0H43.1c-4.31,0-8.62,4.31-8.62,8.62v482.76c0,4.31,4.31,8.62,8.62,8.62h310.34c4.31,0,8.62-4.31,8.62-8.62v-112.07h-112.07c-13.79,0-25.86-12.07-25.86-25.86h0ZM112.07,17.25h17.24c4.31,0,8.62,4.31,8.62,8.62s-4.31,8.62-8.62,8.62h-17.24c-4.31,0-8.62-4.31-8.62-8.62s4.31-8.62,8.62-8.62Zm-60.34,8.62c0-4.31,4.31-8.62,8.62-8.62h17.24c4.31,0,8.62,4.31,8.62,8.62s-4.31,8.62-8.62,8.62h-8.62v8.62c0,4.31-4.31,8.62-8.62,8.62s-8.62-4.31-8.62-8.62v-17.24Zm8.62,43.1h172.41c4.31,0,8.62,4.31,8.62,8.62s-4.31,8.62-8.62,8.62H60.35c-4.31,0-8.62-4.31-8.62-8.62s4.31-8.62,8.62-8.62Zm0,68.97h155.17c4.31,0,8.62,4.31,8.62,8.62s-4.31,8.62-8.62,8.62H60.35c-4.31,0-8.62-4.31-8.62-8.62s4.31-8.62,8.62-8.62Zm0,68.97h137.93c4.31,0,8.62,4.31,8.62,8.62s-4.31,8.62-8.62,8.62H60.35c-4.31,0-8.62-4.31-8.62-8.62s4.31-8.62,8.62-8.62Zm0,68.97h137.93c4.31,0,8.62,4.31,8.62,8.62s-4.31,8.62-8.62,8.62H60.35c-4.31,0-8.62-4.31-8.62-8.62s4.31-8.62,8.62-8.62Zm0,68.97h137.93c4.31,0,8.62,4.31,8.62,8.62s-4.31,8.62-8.62,8.62H60.35c-4.31,0-8.62-4.31-8.62-8.62s4.31-8.62,8.62-8.62Zm284.48,129.31c0,4.31-4.31,8.62-8.62,8.62h-17.24c-4.31,0-8.62-4.31-8.62-8.62s4.31-8.62,8.62-8.62h8.62v-8.62c0-4.31,4.31-8.62,8.62-8.62s8.62,4.31,8.62,8.62v17.24Zm0-51.72c0,4.31-4.31,8.62-8.62,8.62H60.35c-4.31,0-8.62-4.31-8.62-8.62s4.31-8.62,8.62-8.62h275.86c5.17,0,8.62,4.31,8.62,8.62Z"/><path d="m391.38,246.56l-37.07,46.55c-9.48,11.21-26.72,11.21-35.34,1.72l-23.28-22.41c-5.17-5.17-14.66-5.17-20.69,0l-33.62,31.9v49.14c0,5.17,4.31,8.62,7.76,8.62h207.76c5.17,0,7.76-4.31,7.76-7.76v-18.1l-50-87.93c-4.31-11.21-17.24-10.34-23.28-1.72h0Z"/></svg>