<?xml version="1.0" encoding="UTF-8"?><svg id="a" xmlns="http://www.w3.org/2000/svg" viewBox="0 0 500 500"><path d="m426.78,73.22c-97.63-97.63-255.92-97.63-353.55,0-97.63,97.63-97.63,255.92,0,353.55s255.92,97.63,353.55,0c97.63-97.63,97.63-255.92,0-353.55ZM148.77,224.56l30.83,6.54-23.82,23.82-18.68-18.68,11.68-11.68Zm11.21,58.59l56.99,56.99-30.83,6.54-32.7-32.7,6.54-30.83Zm109.33,167.7s-3.68,1.23-3.68,6.14c.52,3.62.23,7.3-.82,10.85-5.92.48-11.89.74-17.91.74-57.56,0-111.67-22.41-152.37-63.11-40.7-40.7-63.11-94.81-63.11-152.37,0-2.79.07-5.58.17-8.35,3.73,2.11,7.7,4.61,11.65,4.97,2.04.41,4.09,0,5.73-2.45,7.36-13.09,21.78-18.91,35.35-12.33,10.98,5.32,16.19,19.99,14.44,26.55-1.41,5.3,1.23,7.77,2.86,8.59,3.27.82,24.54,12.27,14.72,39.26-1.64,4.91,2.05,6.95,2.05,6.95,5.32,5.32,8.18,12.27,8.18,19.63,0,2.45,2.86,8.59,9.82,4.09l11.04-11.04,24.54,24.54-11.45,11.45c-4.5,6.95,1.64,9.82,4.09,9.82,5.32.41,13.5,2.04,19.63,8.18,0,0,2.04,4.5,7.36,1.64,10.63-5.73,29.86-3.68,39.26,14.72,1.64,3.27,5.32,4.5,7.77,2.86,13.5-7.77,31.49-3.68,39.67,10.23,5.73,9,6.95,28.22-9,38.45Zm-24.12-106.51l23.82-23.82,6.54,30.83-11.68,11.68-18.68-18.68Zm114.11-138.13l-126.12,126.12-26.43-26.43,31.76-31.76c3.46-3.46,3.46-9.08,0-12.55-3.46-3.46-9.08-3.46-12.55,0l-31.76,31.76-26.43-26.43,126.12-126.12c27.56-27.56,76.14-27.56,92.02-26.62.94,15.88.94,64.46-26.62,92.02Z" fill="#14151e"/><path d="m312.6,140.82c-13.08,13.08-13.08,33.63,0,46.71s33.63,13.08,46.71,0c13.08-13.08,13.08-33.63,0-46.71-13.08-13.08-33.63-13.08-46.71,0Zm34.65,34.65c-6.24,6.24-16.35,6.24-22.59,0-6.24-6.24-6.24-16.35,0-22.59,6.24-6.24,16.35-6.24,22.59,0,6.24,6.24,6.24,16.35,0,22.59Z" fill="#14151e"/></svg>