<?xml version="1.0" encoding="UTF-8"?><svg id="a" xmlns="http://www.w3.org/2000/svg" viewBox="0 0 500 500"><path d="m250,0C111.93,0,0,111.93,0,250s111.93,250,250,250,250-111.93,250-250S388.07,0,250,0Zm17.52,86.66c0-8.86,6.5-15.36,15.36-15.36h39.59c8.86,0,15.95,6.5,15.95,15.36v126.45h-11.82v-11.82h-17.73c-3.55,0-5.91-2.36-5.91-5.91s2.36-5.91,5.91-5.91h17.73v-11.82h-17.73c-3.55,0-5.91-2.36-5.91-5.91s2.36-5.91,5.91-5.91h17.73v-11.82h-17.73c-3.55,0-5.91-2.36-5.91-5.91s2.36-5.91,5.91-5.91h17.73v-11.82h-17.73c-3.55,0-5.91-2.36-5.91-5.91s2.36-5.91,5.91-5.91h17.73v-11.82h-17.73c-3.55,0-5.91-2.36-5.91-5.91s2.36-5.91,5.91-5.91h17.73v-8.27c0-2.36-1.77-3.55-4.14-3.55h-39.59c-1.77,0-3.55,1.77-3.55,3.55v126.45h-11.82v-126.45Zm-34.23,10.7c.47-1.37,2.34-2.19,4.69-2.19s4.22.82,4.69,2.19l9.37,33.43h-28.12l9.37-33.43Zm-13.04,48.84c0-2.81,2.28-5.09,5.09-5.09h25.28c2.81,0,5.09,2.28,5.09,5.09v66.91h-11.82v-59.09h-11.82v59.09h-11.82v-66.91Zm-70.93-24.23l23.12-54.54v42.6c-4.53,2.26-7.66,6.93-7.66,12.35,0,7.62,6.18,13.81,13.81,13.81s13.81-6.18,13.81-13.81c0-5.41-3.12-10.08-7.66-12.35v-.45c.13-.73.13-1.47,0-2.17v-39.98l23.7,54.21c.21.49.22,1.04.03,1.54l-10.02,25.69c-.3.77-1.04,1.28-1.86,1.28l-17.55.1-17.55.1c-.82,0-1.57-.5-1.88-1.26l-10.31-25.58c-.2-.49-.19-1.05.01-1.54Zm23.66,53.71v37.44h-11.82v-43.67c0-2.81,2.28-5.09,5.09-5.09h25.28c2.81,0,5.09,2.28,5.09,5.09v43.67h-11.82v-37.44h-11.82Zm177.29,248.62c-.01,4.58-3.73,8.29-8.31,8.29h-184.31c-4.59,0-8.31-3.72-8.31-8.31v-191.07c0-4.14,3.55-8.27,8.27-8.27h184.95c4.73,0,8.27,4.14,8.27,8.27l-.57,191.09Z" fill="#14151e"/></svg>