<?xml version="1.0" encoding="UTF-8"?><svg id="a" xmlns="http://www.w3.org/2000/svg" viewBox="0 0 443.03 500"><path d="m431.41,500c4.65,0,10.47-3.49,10.47-10.47v-32.56l-141.86,43.02h131.4Z"/><path d="m401.58,406.32l2.02,6.05c3.49,10.48,9.01,18.44,16.86,24.33l7.92,5.94-160.84,48.25,134.04-84.57Z"/><path d="m.01,500h218.6l183.72-113.95c16.28-9.3,17.44,5.81,17.44,9.3,0,15.12,9.3,27.91,23.26,32.56v-253.49H0v325.58ZM398.36,197.67c13.49,0,23.8,10.32,23.8,23.8v19.04c0,3.97-3.97,7.93-7.93,7.93s-7.93-3.97-7.93-7.93v-19.04c0-3.97-3.97-7.93-7.93-7.93s-7.93-3.97-7.93-7.93,3.17-7.93,7.93-7.93Zm-318.56,0h48.46c4.04,0,8.08,4.04,8.08,8.08s-4.04,8.08-8.08,8.08h-48.46c-4.04,0-8.08-4.04-8.08-8.08s3.23-8.08,8.08-8.08Zm-48.46,0h16.15c4.04,0,8.08,4.04,8.08,8.08s-4.04,8.08-8.08,8.08h-16.15c-4.04,0-8.08-4.04-8.08-8.08s3.23-8.08,8.08-8.08Z"/><circle cx="104.66" cy="93.02" r="16.95"/><circle cx="220.94" cy="93.02" r="16.95"/><circle cx="337.22" cy="93.02" r="16.95"/><g><circle cx="337.22" cy="93.02" r="16.95"/><circle cx="220.94" cy="93.02" r="16.95"/><path d="m431.41,34.88H10.48C5.83,34.88.01,38.37.01,45.35v105.81h441.86V45.35c0-4.65-3.49-10.47-10.47-10.47ZM104.66,127.02c-19.3,0-35-15.7-35-35s15.7-35,35-35,35,15.7,35,35-15.7,35-35,35Zm116.28,1c-19.3,0-35-15.7-35-35s15.7-35,35-35,35,15.7,35,35-15.7,35-35,35Zm116.28,0c-19.3,0-35-15.7-35-35s15.7-35,35-35,35,15.7,35,35-15.7,35-35,35Z"/><circle cx="104.66" cy="93.02" r="16.95"/></g><path d="m116.29,11.63c0-5.81-5.81-11.63-11.63-11.63s-11.63,5.81-11.63,11.63v81.4h23.26V11.63Z"/><path d="m232.56,11.63c0-5.81-5.81-11.63-11.63-11.63s-11.63,5.81-11.63,11.63v81.4h23.26V11.63Z"/><path d="m348.84,11.63c0-5.81-5.81-11.63-11.63-11.63s-11.63,5.81-11.63,11.63v81.4h23.26V11.63Z"/></svg>