<?xml version="1.0" encoding="UTF-8"?><svg id="a" xmlns="http://www.w3.org/2000/svg" viewBox="0 0 500 500"><path d="m250,0C112.07,0,0,112.07,0,250s112.07,250,250,250,250-112.07,250-250S387.93,0,250,0Zm0,482.76c-128.45,0-232.76-104.32-232.76-232.76S121.56,17.24,250,17.24s232.76,104.32,232.76,232.76-104.32,232.76-232.76,232.76Z"/><path d="m431.03,250c0-4.31,4.31-8.62,8.62-8.62h25.86c-4.31-112.07-94.83-202.58-206.9-206.9v25.86c0,4.31-4.31,8.62-8.62,8.62s-8.62-4.31-8.62-8.62v-25.86c-112.07,4.31-202.58,94.83-206.9,206.9h25.86c4.31,0,8.62,4.31,8.62,8.62s-4.31,8.62-8.62,8.62h-25.86c4.31,112.07,94.83,202.58,206.9,206.9v-25.86c0-4.31,4.31-8.62,8.62-8.62s8.62,4.31,8.62,8.62v25.86c112.07-4.31,202.58-94.83,206.9-206.9h-25.86c-4.31,0-8.62-4.31-8.62-8.62ZM145.69,101.72c-29.31,20.69-51.72,49.14-64.66,81.9-.86,3.45-4.31,6.9-11.21,5.17-4.31-1.72-6.9-6.9-5.17-11.21,13.79-36.21,38.79-67.24,69.83-90.52,4.31-2.59,9.48-1.72,12.07,1.72s2.59,10.34-.86,12.93Zm55.17-25.86c-6.03,1.72-11.21,3.45-16.38,6.03-.86,0-7.76,2.59-11.21-4.31-1.72-4.31,0-9.48,4.31-11.21,6.03-2.59,11.21-4.31,18.1-6.03,4.31-1.72,9.48.86,10.34,6.03,1.72,3.45-.86,7.76-5.17,9.48Zm135.35,182.76h-86.21c-4.31,0-8.62-4.31-8.62-8.62V94.83c0-4.31,4.31-8.62,8.62-8.62s8.62,4.31,8.62,8.62v146.55h77.59c4.31,0,8.62,4.31,8.62,8.62s-4.31,8.62-8.62,8.62Z"/></svg>