<?xml version="1.0" encoding="UTF-8"?><svg id="a" xmlns="http://www.w3.org/2000/svg" viewBox="0 0 500 500"><path d="m353.44,143.96h-68.97c-81.04,0-146.56,65.52-146.56,146.56s65.52,146.56,146.56,146.56h155.18l60.35,56.9v-203.45c0-81.04-65.52-146.56-146.56-146.56Zm-86.21,155.18c-4.31,0-8.62-3.45-8.62-8.62,0-4.31,4.31-8.62,8.62-8.62s8.62,4.31,8.62,8.62c0,5.17-4.31,8.62-8.62,8.62Zm51.73,0c-4.31,0-8.62-4.31-8.62-8.62,0-5.17,4.31-8.62,8.62-8.62s8.62,3.45,8.62,8.62-4.31,8.62-8.62,8.62Zm51.73,0c-4.31,0-8.62-4.31-8.62-8.62s4.31-8.62,8.62-8.62,8.62,4.31,8.62,8.62-4.31,8.62-8.62,8.62Zm103.45-17.24c-6.03,0-9.48-2.59-9.48-6.9-4.31-30.17-21.55-57.76-47.42-75.86-4.31-2.59-4.31-8.62-1.72-12.07,2.59-4.31,8.62-4.31,12.07-1.72,29.31,20.69,49.14,52.59,54.31,87.93.86,3.45-2.59,7.76-7.76,8.62Z"/><path d="m140.51,212.93h-62.93c-4.31,0-8.62-4.31-8.62-8.62s4.31-8.62,8.62-8.62h73.28c9.48-12.93,20.69-25,32.76-34.48h-106.03c-4.31,0-8.62-4.31-8.62-8.62s4.31-8.62,8.62-8.62h134.49c21.55-11.21,46.55-17.24,72.42-17.24h75C347.42,56.89,287.07,6.03,215.52,6.03h-68.97C65.52,6.03,0,71.55,0,152.58v203.45l60.35-56.9h60.35c-.86-29.31,6.9-62.93,19.83-86.21h0Zm-62.93-120.69h206.9c4.31,0,8.62,4.31,8.62,8.62s-4.31,8.62-8.62,8.62H77.58c-4.31,0-8.62-4.31-8.62-8.62s4.31-8.62,8.62-8.62Zm-43.1,112.07c0,4.31-4.31,8.62-8.62,8.62s-8.62-4.31-8.62-8.62v-17.24c0-4.31,4.31-8.62,8.62-8.62s8.62,4.31,8.62,8.62v17.24Zm1.72-67.24c-.86,4.31-4.31,6.9-8.62,6.9-6.9,0-9.48-5.17-8.62-10.35,4.31-27.59,17.24-51.73,35.35-69.83,3.45-3.45,8.62-3.45,12.07,0s3.45,8.62,0,12.07c-15.52,15.52-25.86,37.07-30.17,61.21Z"/></svg>