<?xml version="1.0" encoding="UTF-8"?><svg xmlns="http://www.w3.org/2000/svg" viewBox="0 0 500 500"><g id="a"><path d="m204.41,258.15L8.43,453.22c-18.97,20.77,0,38.83,0,38.83,9.03,9.93,28,9.93,37.03,0l196.88-195.98-37.93-37.93ZM51.78,461.36l-18.06,18.06c-1.81,1.81-7.22,5.42-12.64,0-3.61-3.61-3.61-9.03,0-12.64l18.06-18.06c3.61-3.61,9.03-3.61,12.64,0,3.61,3.61,3.61,9.03,0,12.64Zm54.19-54.19l-36.12,36.12c-1.81,1.81-7.22,4.52-12.64,0-3.61-3.61-3.61-9.03,0-12.64l36.12-36.12c3.61-3.61,9.03-3.61,12.64,0,3.61,3.61,3.61,9.03,0,12.64Z"/></g><g id="b"><g><path d="m346.47.49c-84.89,0-153.53,68.64-153.53,153.53s68.64,153.53,153.53,153.53,153.53-68.64,153.53-153.53S431.36.49,346.47.49Zm111.08,91.21c4.52-2.71,9.93,0,11.74,3.61,3.61,7.22,6.32,13.55,8.13,19.87.9,4.52-1.81,9.93-6.32,10.84-.9,0-9.03,3.61-10.84-6.32-.9-5.42-3.61-10.84-6.32-16.26-2.71-3.61-.9-9.03,3.61-11.74Zm-177.38,31.93c.34-8.57,7.2-15.42,15.76-15.42h19.88v-8.56c0-10.62,8.56-19.19,19.19-19.19h23.3c10.62,0,19.19,8.91,19.19,19.19v8.56h19.87c8.56,0,15.42,6.85,15.42,15.42v14.39c-12.68,4.8-27.41,8.23-43.51,9.94-.68-8.57-7.88-15.42-16.79-15.42h-11.99c-8.91,0-16.11,6.85-16.79,15.42-16.11-1.72-30.84-5.14-43.52-9.94v-14.39Zm76.41,26.04v12c0,2.4-1.72,4.11-4.12,4.11h-11.99c-2.4,0-4.11-1.71-4.11-4.11v-12c0-2.4,1.71-4.11,4.11-4.11h11.99c2.4,0,4.12,1.71,4.12,4.11Zm56.19,42.49c0,8.56-6.85,15.42-15.42,15.42h-101.76c-8.56,0-15.42-6.85-15.42-15.42v-40.43c12.67,4.45,27.41,7.54,43.17,9.25v.69h.34c0,9.25,7.54,16.79,16.79,16.79h11.99c9.25,0,16.79-7.54,16.79-16.79v-.69c15.76-1.71,30.5-4.8,43.52-9.25v40.43Zm37.55,35.01c-4.52-2.71-5.42-8.13-2.71-12.64,10.84-18.06,16.26-38.83,16.26-60.51,0-4.52,4.52-9.03,9.03-9.03s9.03,4.52,9.03,9.03c0,25.29-6.32,49.67-19.87,69.54-.9,3.61-4.52,7.22-11.74,3.61Z"/><path d="m362.4,99.65c0-2.06-1.71-3.77-3.77-3.77h-23.3c-2.06,0-3.77,1.71-3.77,3.77v8.56h30.84v-8.56Z"/></g></g></svg>