<?xml version="1.0" encoding="UTF-8"?><svg id="b" xmlns="http://www.w3.org/2000/svg" viewBox="0 0 500 500"><polygon points="324.77 413.34 324.77 413.34 324.77 413.34 324.77 413.34"/><path d="m166.77,387.78v-.15c.38-4.69.58-7.27,3.19-7.27,1.65,0,4.31,1,9.19,3.45,35.21,17.65,106.87,40,139.82,49.36,4.75,1.35,10.79,4.24,12.5,10.27,2.04,7.18-2.54,16.95-13.59,29.04-8.01,8.91-17.81,16.02-28.76,20.89-10.03,4.4-20.87,6.66-31.82,6.64-8.57,0-17.09-1.33-25.26-3.93-8.24-2.62-16.05-6.43-23.18-11.33-15-10.28-26.55-24.86-33.12-41.82-3.57-9.14-4.5-14.47-2.93-16.77.72-.96,1.89-1.48,3.09-1.36,3.03.29,5.97,1.21,8.64,2.7,1.33.64,2.75,1.32,4.25,2.05,9.68,4.68,22.93,11.06,36.32,16.27l.75.29c20.15,7.85,31.24,12.16,39.13,12.16,6.2,0,10.38-2.6,15.44-9.57-5.91-2.39-11.89-5.03-18.22-7.82l-.11-.05c-8.76-3.86-17.82-7.85-27.34-11.49-17.95-6.85-37.58-14.81-38.41-15.14l-3.01-1.36c-12.73-5.73-19.74-8.88-23.32-11.9-3.49-2.94-3.85-5.76-3.38-11.36.05-.63.1-1.22.14-1.78Z"/><path d="m123.43,174.34c-.05,9.14,1.08,18.25,3.37,27.09,2.05,7.78,5,15.29,8.8,22.38,7.24,13.66,16.82,25.14,26.08,36.23,16.51,19.77,32.09,38.45,32.09,66.52.09,8.14-.58,9.71-.88,10.01-.03.03-.07.06-.11.06-1.74,1.1-3.67,1.87-5.69,2.28-2.11.51-4.14,1.28-6.06,2.31-.94.68-1.09,7.72-.69,13.85.29,4.4.78,7.2,1.32,7.49,13.92,7.53,26.06,13.76,40.12,19.74,12.45,5.29,26.71,10.55,49.2,18.11,2.51.85,5.11,1.75,7.64,2.62l.22.08c11.32,3.93,23.03,8,34.46,9.89,1.13.2,2.27.32,3.42.34,5.11,0,5.55-3.01,6.35-8.46l.03-.24c.07-.48.14-.97.22-1.48.87-5.6,1.11-8.16-2.16-10.33-3.31-2.19-10.19-3.84-23.9-7.11-2.9-.69-6.19-1.48-9.81-2.36-16.9-4.1-31.64-8.98-40.43-11.89l-.34-.11c-1.77-.59-3.3-1.09-4.61-1.51-.47-1.87-.08-3.86,1.06-5.42,1.74-1.95,5.68-2.71,14.06-2.71,6.29,0,53.78,2.34,55.67,2.34,4.28,0,10.01-.58,10.42-5.57.32-3.94,1.91-14.44,1.12-15.42-.69-.86-2.22-1.1-4.98-1.27-9.37-.58-13.24-.82-13.2-15.23,0-26.55,15.14-44.59,31.18-63.68,9.44-11.25,19.2-22.87,26.64-36.96,3.92-7.36,6.96-15.15,9.05-23.22,2.35-9.27,3.52-18.8,3.47-28.36.15-18.19-3.23-36.24-9.94-53.15-6.16-15.36-15.39-29.31-27.12-40.98-23.21-23.02-54.99-35.7-89.5-35.7s-66.29,12.68-89.5,35.7c-11.74,11.67-20.97,25.61-27.13,40.98-6.71,16.91-10.09,34.96-9.95,53.15Zm110.43,154.82c0-3.9,3.9-7.81,7.81-7.81h15.62c3.9,0,7.81,3.9,7.81,7.81,0,3.9-3.9,7.81-7.81,7.81h-15.62c-3.9,0-7.81-3.9-7.81-7.81Zm-9.33-245.83c8.03-2.15,16.6-3.24,25.48-3.24,4.19,0,7.58,3.4,7.58,7.58s-3.4,7.58-7.58,7.58c-7.56,0-14.81.92-21.56,2.72-.66.18-1.31.26-1.96.26-3.35,0-6.42-2.24-7.32-5.63-1.08-4.05,1.32-8.2,5.37-9.29Zm-63.86,89.79c0-26.56,8.98-50.46,25.28-67.28,1.86-1.92,3.83-3.77,5.85-5.49,3.19-2.71,7.98-2.33,10.69.86,2.71,3.19,2.33,7.98-.86,10.69-1.65,1.4-3.26,2.91-4.78,4.49-13.54,13.98-21,34.12-21,56.72,0,4.19-3.4,7.59-7.58,7.59s-7.58-3.4-7.58-7.58Z"/><g><path d="m250,28.64c3.69,0,6.15-2.46,6.15-6.16V6.16c0-3.7-2.46-6.16-6.15-6.16s-6.15,2.46-6.15,6.16v16.32c0,3.7,2.46,6.16,6.15,6.16Z"/><g><path d="m118.92,63.44l-12.31-12.32c-2.46-2.46-6.15-2.46-8.62,0s-2.46,6.16,0,8.62l12.31,12.32c1.23,1.23,4.92,2.46,8.62,0,2.46-1.85,2.46-6.16,0-8.62Z"/><path d="m402.01,51.13c-2.46-2.46-6.15-2.46-8.62,0l-12.31,12.32c-2.46,2.46-2.46,6.78,0,8.62,3.08,3.08,7.38,1.23,8.62,0l12.31-12.32c2.46-2.46,2.46-6.16,0-8.62Z"/></g><g><path d="m71.33,190.2h23.82c3.57,0,5.96-2.38,5.96-5.96s-2.38-5.96-5.96-5.96h-23.82c-3.57,0-5.96,2.38-5.96,5.96s2.38,5.96,5.96,5.96Z"/><path d="m404.85,190.2h23.82c3.57,0,5.96-2.38,5.96-5.96s-2.38-5.96-5.96-5.96h-23.82c-3.57,0-5.96,2.38-5.96,5.96s2.38,5.96,5.96,5.96Z"/></g><g><path d="m361.08,285.03l12.31,12.32c2.46,2.46,6.15,2.46,8.62,0s2.46-6.16,0-8.62l-12.31-12.32c-1.23-1.23-4.92-2.46-8.62,0-2.46,1.85-2.46,6.16,0,8.62Z"/><path d="m117.99,297.34c2.46,2.46,6.15,2.46,8.62,0l12.31-12.32c2.46-2.46,2.46-6.78,0-8.62-3.08-3.08-7.38-1.23-8.62,0l-12.31,12.32c-2.46,2.46-2.46,6.16,0,8.62Z"/></g></g></svg>