<?xml version="1.0" encoding="utf-8"?>
<!-- Generator: Adobe Illustrator 27.2.0, SVG Export Plug-In . SVG Version: 6.00 Build 0)  -->
<svg version="1.1" id="a" xmlns="http://www.w3.org/2000/svg" xmlns:xlink="http://www.w3.org/1999/xlink" x="0px" y="0px"
	 viewBox="0 0 100 100" style="enable-background:new 0 0 100 100;" xml:space="preserve">
<style type="text/css">
	.st0{fill:#F4F4F4;}
	.st1{fill:#1D1D1B;}
	.st2{fill:#FFFFFF;}
	.st3{enable-background:new    ;}
</style>
<path class="st0" d="M0,91c0,4.9,4,9,9,9H91c4.9,0,9-4,9-9V34H0V91z"/>
<g>
	<path class="st1" d="M0.5,33.5V18c0-4.7,3.8-8.5,8.5-8.5H91c4.7,0,8.5,3.8,8.5,8.5v15.5H0.5z"/>
	<path class="st1" d="M91,10c4.4,0,8,3.6,8,8v15H1V18c0-4.4,3.6-8,8-8L91,10 M91,9H9C4,9,0,13,0,18v16h100V18C100,13,96,9,91,9L91,9
		L91,9z"/>
</g>
<path class="st2" d="M13.3,0L13.3,0c1.7,0,3,1.3,3,3v12c0,1.7-1.3,3-3,3l0,0c-1.7,0-3-1.3-3-3V3C10.3,1.3,11.6,0,13.3,0z"/>
<path class="st2" d="M23.3,0L23.3,0c1.7,0,3,1.3,3,3v12c0,1.7-1.3,3-3,3l0,0c-1.7,0-3-1.3-3-3V3C20.3,1.3,21.6,0,23.3,0z"/>
<path class="st2" d="M77.3,0L77.3,0c1.7,0,3,1.3,3,3v12c0,1.7-1.3,3-3,3l0,0c-1.7,0-3-1.3-3-3V3C74.3,1.3,75.6,0,77.3,0z"/>
<path class="st2" d="M87.3,0L87.3,0c1.7,0,3,1.3,3,3v12c0,1.7-1.3,3-3,3l0,0c-1.7,0-3-1.3-3-3V3C84.3,1.3,85.6,0,87.3,0z"/>
<g class="st3">
	<path d="M35.4,66c0,4.2-1.2,7.6-3.6,10.3s-5.5,4.1-9.4,4.1c-3.8,0-6.9-1.4-9.3-4.1S9.6,70.2,9.6,66v-0.4c0-4.1,1.2-7.6,3.5-10.3
		c2.4-2.7,5.5-4.1,9.3-4.1c3.9,0,7,1.4,9.4,4.1s3.6,6.2,3.6,10.3V66z M29.7,65.5c0-2.9-0.6-5.3-1.8-7.2c-1.2-1.8-3-2.8-5.4-2.8
		c-2.4,0-4.2,0.9-5.4,2.7c-1.2,1.8-1.8,4.2-1.8,7.2V66c0,3,0.6,5.4,1.8,7.2s3,2.7,5.4,2.7c2.4,0,4.2-0.9,5.4-2.7s1.8-4.2,1.8-7.2
		V65.5z"/>
	<path d="M66.7,51.6V55l-3,0.6V80H58L46.5,60.9l-0.1,0V76l3,0.6V80H37.7v-3.4l3-0.6V55.6l-3-0.6v-3.4h3h5.7l11.5,19.1l0.1,0V55.6
		l-3-0.6v-3.4h8.7H66.7z"/>
	<path d="M90.2,60.6h-4.3l-0.7-3.9c-0.5-0.3-1.2-0.6-2.2-0.8s-2-0.4-3-0.4c-1.6,0-2.8,0.3-3.6,1c-0.9,0.7-1.3,1.5-1.3,2.5
		c0,1,0.4,1.8,1.3,2.4s2.4,1.3,4.6,2c3.1,0.9,5.5,2,7.1,3.5s2.4,3.3,2.4,5.6c0,2.4-1,4.4-2.9,5.8s-4.5,2.1-7.6,2.1
		c-2.3,0-4.3-0.4-6.1-1.1s-3.3-1.7-4.5-3v-5.9h4.4l0.6,4c0.6,0.5,1.4,0.9,2.3,1.2s2.1,0.5,3.3,0.5c1.6,0,2.8-0.3,3.6-1
		s1.2-1.5,1.2-2.6c0-1.1-0.4-2-1.2-2.6s-2.1-1.3-4.1-1.9c-3.4-1-5.9-2.1-7.7-3.5s-2.6-3.2-2.6-5.5c0-2.3,1-4.2,2.9-5.7
		s4.4-2.2,7.4-2.3c2.2,0,4.2,0.3,6,1s3.3,1.5,4.5,2.7V60.6z"/>
</g>
</svg>
