<?xml version="1.0" encoding="utf-8"?>
<!-- Generator: Adobe Illustrator 27.2.0, SVG Export Plug-In . SVG Version: 6.00 Build 0)  -->
<svg version="1.1" id="a" xmlns="http://www.w3.org/2000/svg" xmlns:xlink="http://www.w3.org/1999/xlink" x="0px" y="0px"
	 viewBox="0 0 100 100" style="enable-background:new 0 0 100 100;" xml:space="preserve">
<style type="text/css">
	.st0{fill:#F4F4F4;}
	.st1{fill:#1D1D1B;}
	.st2{fill:#FFFFFF;}
	.st3{enable-background:new    ;}
</style>
<path class="st0" d="M0,91c0,4.9,4,9,9,9H91c4.9,0,9-4,9-9V34H0V91z"/>
<g>
	<path class="st1" d="M0.5,33.5V18c0-4.7,3.8-8.5,8.5-8.5H91c4.7,0,8.5,3.8,8.5,8.5v15.5H0.5z"/>
	<path class="st1" d="M91,10c4.4,0,8,3.6,8,8v15H1V18c0-4.4,3.6-8,8-8L91,10 M91,9H9C4,9,0,13,0,18v16h100V18C100,13,96,9,91,9L91,9
		L91,9z"/>
</g>
<path class="st2" d="M13.3,0L13.3,0c1.7,0,3,1.3,3,3v12c0,1.7-1.3,3-3,3l0,0c-1.7,0-3-1.3-3-3V3C10.3,1.3,11.6,0,13.3,0z"/>
<path class="st2" d="M23.3,0L23.3,0c1.7,0,3,1.3,3,3v12c0,1.7-1.3,3-3,3l0,0c-1.7,0-3-1.3-3-3V3C20.3,1.3,21.6,0,23.3,0z"/>
<path class="st2" d="M77.3,0L77.3,0c1.7,0,3,1.3,3,3v12c0,1.7-1.3,3-3,3l0,0c-1.7,0-3-1.3-3-3V3C74.3,1.3,75.6,0,77.3,0z"/>
<path class="st2" d="M87.3,0L87.3,0c1.7,0,3,1.3,3,3v12c0,1.7-1.3,3-3,3l0,0c-1.7,0-3-1.3-3-3V3C84.3,1.3,85.6,0,87.3,0z"/>
<g class="st3">
	<path d="M12.2,76.6l3-0.6V55.6l-3-0.6v-3.4h22.6v7.8h-4.4L30.2,56h-9.3v7.8h10v4.4h-10V76l3,0.6V80H12.2V76.6z"/>
	<path d="M49.7,51.6c3.2,0,5.8,0.7,7.6,2.2s2.8,3.5,2.8,6.1c0,1.4-0.4,2.7-1.2,3.7s-1.9,1.9-3.4,2.6c1.7,0.5,2.9,1.3,3.6,2.5
		s1.1,2.6,1.1,4.3v1.4c0,0.6,0.1,1.1,0.4,1.5s0.7,0.5,1.2,0.6l0.7,0.1V80h-2.9c-1.9,0-3.2-0.5-3.9-1.5s-1.1-2.3-1.1-3.9V73
		c0-1.4-0.4-2.5-1.1-3.3s-1.8-1.2-3.1-1.2h-4.7V76l3,0.6V80H36.9v-3.4l3-0.6V55.6l-3-0.6v-3.4h3H49.7z M45.7,64.1h3.9
		c1.6,0,2.8-0.3,3.6-1s1.2-1.7,1.2-2.9s-0.4-2.3-1.2-3.1s-2-1.1-3.5-1.1h-4V64.1z"/>
	<path d="M82.8,67.5h-9.6v8.1h9.2l0.3-3.4h4.3V80H64.4v-3.4l3-0.6V55.6l-3-0.6v-3.4h3h19.4v7.8h-4.4L82.3,56h-9.1v7.1h9.6V67.5z"/>
</g>
</svg>
