<?xml version="1.0" encoding="UTF-8"?><svg id="a" xmlns="http://www.w3.org/2000/svg" viewBox="0 0 459.39 2644.39"><path d="m458.82,1320.96L21.83,7.67C17.81-4.38,0-1.5,0,11.21v2621.96c0,12.7,17.8,15.6,21.82,3.55l436.99-1308.67c.77-2.3.77-4.78,0-7.08ZM16.5,227.87c0-4.69,3.81-8.5,8.5-8.5s8.5,3.81,8.5,8.5v394c0,4.69-3.81,8.5-8.5,8.5s-8.5-3.81-8.5-8.5V227.87Zm0,423.56c0-4.69,3.81-8.5,8.5-8.5s8.5,3.81,8.5,8.5v118.69c0,4.69-3.81,8.5-8.5,8.5s-8.5-3.81-8.5-8.5v-118.69Zm0,834.74c0-4.69,3.81-8.5,8.5-8.5s8.5,3.81,8.5,8.5v118.69c0,4.69-3.81,8.5-8.5,8.5s-8.5-3.81-8.5-8.5v-118.69Zm48.82,968.22l-32.25,96.59c-1.17,3.51-4.45,5.81-8.06,5.81-.45,0-.91-.04-1.37-.11-4.11-.67-7.14-4.22-7.14-8.39v-218.07c0-4.69,3.81-8.5,8.5-8.5s8.5,3.81,8.5,8.5v165.78l15.69-46.99c1.49-4.45,6.3-6.85,10.75-5.37,4.45,1.49,6.86,6.3,5.37,10.75Zm376.4-1127.2l-26.21,78.48c-1.19,3.56-4.5,5.81-8.06,5.81-.89,0-1.8-.14-2.69-.44-4.45-1.49-6.86-6.3-5.37-10.75l25.31-75.79-9.43-28.33c-1.48-4.45.93-9.27,5.38-10.75,4.45-1.48,9.27.93,10.75,5.38l10.32,31.02c.58,1.75.58,3.63,0,5.38Z"/></svg>