<?xml version="1.0" encoding="UTF-8"?><svg id="a" xmlns="http://www.w3.org/2000/svg" viewBox="0 0 459.39 2644.39"><path d="m437.57,7.66L.58,1316.34c-.77,2.3-.77,4.78,0,7.08l436.99,1313.29c4.01,12.06,21.83,9.17,21.83-3.54V11.21c0-12.7-17.8-15.6-21.82-3.55ZM28,1353.6l-10.32-31.02c-.58-1.75-.58-3.63,0-5.38l28.98-86.79c1.49-4.45,6.3-6.85,10.75-5.37,4.45,1.49,6.86,6.3,5.37,10.75l-28.08,84.11,9.43,28.33c1.48,4.45-.93,9.27-5.38,10.75-.89.3-1.8.44-2.69.44-3.56,0-6.88-2.25-8.06-5.82Zm38.15,87.74c-.89.3-1.8.44-2.69.44-3.56,0-6.88-2.25-8.06-5.82l-17.49-52.55c-1.48-4.45.93-9.27,5.38-10.75,4.45-1.48,9.27.93,10.75,5.38l17.49,52.55c1.48,4.45-.93,9.27-5.38,10.75Zm37.48-327.84l-20.33,60.89c-1.19,3.56-4.5,5.81-8.06,5.81-.89,0-1.8-.14-2.69-.44-4.45-1.49-6.86-6.3-5.37-10.75l20.33-60.89c1.49-4.45,6.3-6.85,10.75-5.37,4.45,1.49,6.86,6.3,5.37,10.75Zm141.81,866.66c-.89.3-1.8.44-2.68.44-3.56,0-6.88-2.25-8.06-5.82l-65.1-195.63c-1.48-4.45.93-9.27,5.38-10.75,4.45-1.48,9.27.93,10.75,5.38l65.1,195.63c1.48,4.45-.93,9.27-5.38,10.75Zm197.45-169.98c0,4.69-3.81,8.5-8.5,8.5s-8.5-3.81-8.5-8.5v-103.56c0-4.69,3.81-8.5,8.5-8.5s8.5,3.81,8.5,8.5v103.56Zm-17-134v-380c0-4.69,3.81-8.5,8.5-8.5s8.5,3.81,8.5,8.5v380c0,4.69-3.81,8.5-8.5,8.5s-8.5-3.81-8.5-8.5Zm8.5-1454.15c-4.69,0-8.5-3.81-8.5-8.5v-65.11s-81.77,244.89-81.77,244.89c-1.19,3.56-4.5,5.81-8.06,5.81-.89,0-1.8-.14-2.69-.44-4.45-1.49-6.86-6.3-5.37-10.75l98.34-294.49c1.32-3.95,5.31-6.37,9.43-5.7,4.11.67,7.14,4.22,7.14,8.39v117.41c0,4.69-3.81,8.5-8.5,8.5Z"/></svg>