<?xml version="1.0" encoding="utf-8"?>
<!-- Generator: Adobe Illustrator 27.5.0, SVG Export Plug-In . SVG Version: 6.00 Build 0)  -->
<svg version="1.1" id="a" xmlns="http://www.w3.org/2000/svg" xmlns:xlink="http://www.w3.org/1999/xlink" x="0px" y="0px"
	 viewBox="0 0 1500 1000" style="enable-background:new 0 0 1500 1000;" xml:space="preserve">
<style type="text/css">
	.st0{fill:#E8EAE7;}
	.st1{fill-rule:evenodd;clip-rule:evenodd;fill:#F7F5F4;}
	.st2{fill-rule:evenodd;clip-rule:evenodd;fill:#FFFFFF;}
	.st3{fill-rule:evenodd;clip-rule:evenodd;fill:#E8EAE7;}
	.st4{fill-rule:evenodd;clip-rule:evenodd;fill:#B6BAB4;}
	.st5{fill:#B6BAB4;}
	.st6{fill-rule:evenodd;clip-rule:evenodd;fill:#D9DED7;}
	.st7{fill:#D9DED7;}
	.st8{fill:#FFFFFF;}
	.st9{fill:#F3F3F3;}
	.st10{fill-rule:evenodd;clip-rule:evenodd;fill:#B4B4B4;}
	.st11{fill-rule:evenodd;clip-rule:evenodd;fill:#E0A756;}
	.st12{fill-rule:evenodd;clip-rule:evenodd;fill:#FBC5B5;}
	.st13{fill-rule:evenodd;clip-rule:evenodd;fill:#FDE1D9;}
	.st14{fill-rule:evenodd;clip-rule:evenodd;fill:#F26767;}
	.st15{fill-rule:evenodd;clip-rule:evenodd;fill:#CD5959;}
	.st16{fill:#785454;}
	.st17{fill-rule:evenodd;clip-rule:evenodd;fill:#E96472;}
	.st18{fill-rule:evenodd;clip-rule:evenodd;fill:#785454;}
	.st19{fill:#FBC5B5;}
	.st20{fill-rule:evenodd;clip-rule:evenodd;fill:#EDB971;}
	.st21{fill-rule:evenodd;clip-rule:evenodd;fill:#CCCCCC;}
	.st22{fill-rule:evenodd;clip-rule:evenodd;fill:#7EA5A6;}
	.st23{fill-rule:evenodd;clip-rule:evenodd;fill:#A1BDBA;}
	.st24{fill:#E96472;}
	.st25{fill-rule:evenodd;clip-rule:evenodd;fill:#53BA65;}
	.st26{fill-rule:evenodd;clip-rule:evenodd;fill:#E79762;}
	.st27{fill-rule:evenodd;clip-rule:evenodd;fill:#CE9066;}
	.st28{fill-rule:evenodd;clip-rule:evenodd;fill:#34679A;}
	.st29{fill:#F26767;}
	.st30{fill-rule:evenodd;clip-rule:evenodd;fill:#F499C1;}
	.st31{fill-rule:evenodd;clip-rule:evenodd;fill:#EC7FB3;}
	.st32{fill-rule:evenodd;clip-rule:evenodd;fill:#E6E6E5;}
	.st33{fill:#CAD5C6;}
</style>
<rect class="st0" width="1500" height="1000"/>
<path class="st1" d="M1300,130H200c-38.5,0-70,31.5-70,70v331.2c0,38.5,31.5,70,70,70h1100c38.5,0,70-31.5,70-70V200
	C1370,161.5,1338.5,130,1300,130z"/>
<path class="st2" d="M1211.2,200.6H288.8c-29.5,0-53.6,24.1-53.6,53.6v253.4c0,29.4,24.1,53.6,53.6,53.6h922.3
	c29.4,0,53.6-24.1,53.6-53.5V254.2C1264.8,224.8,1240.6,200.7,1211.2,200.6L1211.2,200.6z"/>
<polygon class="st3" points="780,601.2 1370,601.2 1410.9,350 821,350 "/>
<path class="st4" d="M327.2,332.1c-1,9,4.4,16.6,12.5,18.7c-5-3.4-7.9-9.4-7.1-16.2c1.2-10.6,10.8-19.2,21.5-19.2
	c1.6,0,3.1,0.2,4.6,0.5c-2.8-1.9-6.2-3-10-3C338,312.9,328.4,321.5,327.2,332.1z"/>
<circle class="st5" cx="353.1" cy="330.1" r="19.2"/>
<circle class="st5" cx="433" cy="366.2" r="45.8"/>
<path class="st3" d="M371,385.7c-8.5-4.2-18.9-0.8-23.1,7.8l-36.1,72.4c-4.2,8.5-0.8,18.9,7.8,23.1s18.9,0.8,23.1-7.8l36.1-72.4
	C383,400.3,379.5,389.9,371,385.7z"/>
<circle class="st0" cx="319" cy="469.7" r="28.2"/>
<path class="st3" d="M309.5,453l-62.8,7.6c-9.4,1.1-16.2,9.7-15.1,19.1c1.1,9.5,9.7,16.2,19.1,15.1l62.8-7.6
	c9.5-1.1,16.2-9.7,15.1-19.1C327.5,458.7,318.9,451.9,309.5,453z"/>
<path class="st3" d="M451.1,390.8c-5.7-7.6-16.5-9.1-24-3.5c-7.6,5.7-9.1,16.5-3.5,24l51.8,69c5.7,7.6,16.5,9.1,24,3.5
	c7.6-5.7,9.1-16.5,3.5-24L451.1,390.8z"/>
<circle class="st0" cx="488.3" cy="465.4" r="28.2"/>
<path class="st3" d="M400.2,375.4c-24.9,0-45.1,25.7-45.1,57v97.8c0,31.4,20.3,57,45.1,57s45.1-25.7,45.1-57v-97.8
	C445.4,401.1,425.1,375.4,400.2,375.4L400.2,375.4z"/>
<path class="st6" d="M432.8,428.2h-65.1c-9.4,0-17,7.6-17,17v139c0,9.3,7.6,17,17,17h65.1c9.4,0,17-7.7,17-17v-139
	C449.7,435.9,442.1,428.2,432.8,428.2z"/>
<path class="st3" d="M411,357.6c-2.9-10.8-14.1-17.2-24.9-14.4s-17.2,14.1-14.4,24.9l9,33.6c2.9,10.8,14.1,17.2,24.9,14.4
	s17.2-14.1,14.4-24.9L411,357.6z"/>
<path class="st6" d="M427.3,370h-7.9c-3.5,0-6.3,2.9-6.3,6.3v72c0,3.5,2.9,6.3,6.3,6.3h7.9c3.5,0,6.3-2.9,6.3-6.3v-71.9
	C433.6,372.9,430.7,370,427.3,370z"/>
<path class="st6" d="M379.1,370h-7.9c-3.5,0-6.3,2.9-6.3,6.3v72c0,3.5,2.9,6.3,6.3,6.3h7.9c3.5,0,6.3-2.9,6.3-6.3v-71.9
	C385.4,372.9,382.6,370,379.1,370z"/>
<path class="st3" d="M389.5,281.6c-24.5-0.7-45,18.7-45.8,43.1l-0.6,20.2c-0.7,24.5,18.7,45,43.1,45.8c24.5,0.7,45-18.7,45.8-43.1
	l0.6-20.2C433.4,302.9,414,282.3,389.5,281.6z"/>
<circle class="st7" cx="366.1" cy="364" r="3.8"/>
<circle class="st7" cx="366.5" cy="367" r="2.4"/>
<path class="st3" d="M432.8,322.5c-7.6,1-13.9,8-13.9,15.6s6.2,13.1,13.9,12.1c7.6-1,13.9-8,13.9-15.6S440.4,321.6,432.8,322.5z"/>
<path class="st4" d="M432.8,330.1c-3.5,0.5-6.3,3.6-6.3,7.1s2.9,6,6.3,5.5c3.5-0.5,6.3-3.6,6.3-7.1
	C439.1,332.1,436.3,329.7,432.8,330.1z"/>
<circle class="st5" cx="406.6" cy="302.3" r="35"/>
<path class="st6" d="M359.1,324.8c0.6-21.4,16.5-38.9,36.8-42.5c-2.1-0.4-4.2-0.6-6.4-0.6c-24.5-0.7-45,18.7-45.8,43.1l-0.6,20.2
	c-0.7,24.5,18.7,45,43.1,45.8c3,0.1,6.1-0.1,9-0.6c-21.4-3.8-37.4-22.9-36.8-45.1L359.1,324.8z"/>
<path class="st6" d="M343.5,290.6v38.1h89.2v-76.2h-51.1C360.6,252.5,343.5,269.7,343.5,290.6z"/>
<path class="st6" d="M439.8,315h-15.2c-3.8,0-6.8,3-6.8,6.8l0,0c0,3.8,3,6.8,6.8,6.8h15.2c3.8,0,6.8-3,6.8-6.8l0,0
	C446.6,318.1,443.5,315,439.8,315z"/>
<path class="st6" d="M521.5,401.1l-40.2,51.1c-5.9,7.5-4.6,18.3,2.9,24.2c7.5,5.9,18.3,4.6,24.2-2.9l44.4-56.4
	c3.7-4.7,4.5-10.8,2.8-16L521.5,401.1L521.5,401.1L521.5,401.1z"/>
<path class="st3" d="M481.2,452.2c-3.7,4.8-4.5,10.8-2.8,16.1c7,3,15.4,1,20.3-5.2l44.4-56.4c1.4-1.8,2.3-3.7,3-5.7h-24.6
	L481.2,452.2L481.2,452.2z"/>
<path class="st3" d="M520.6,401.1c-1.9,3.5-3,7.5-3,11.8c0,13.5,10.9,24.4,24.3,24.4s24.3-10.9,24.3-24.4c0-4.2-1.1-8.2-3-11.8
	H520.6L520.6,401.1z"/>
<circle class="st8" cx="423.4" cy="431.2" r="5.2"/>
<circle class="st8" cx="375.2" cy="431.2" r="5.2"/>
<path class="st4" d="M373.8,510.5c-0.1,0.9-0.1,1.8-0.1,2.7c0,14.6,11.9,26.5,26.5,26.5s26.5-11.8,26.5-26.5c0-0.9,0-1.8-0.1-2.6
	L373.8,510.5L373.8,510.5z"/>
<path class="st4" d="M263.7,436.5c-2.5-1-5.2,0.2-6.2,2.7l-40.6,102c-0.9,2.5,0.2,5.2,2.7,6.2s5.2-0.2,6.2-2.7l40.6-102
	C267.4,440.3,266.1,437.5,263.7,436.5L263.7,436.5z"/>
<path class="st4" d="M224.1,530c-6.6,0-14.4,10-17.4,22.5c-3.1,12.4-0.2,22.5,6.3,22.5s14.4-10,17.4-22.5
	C233.6,540.1,230.7,530,224.1,530z"/>
<path class="st6" d="M255.8,483.8c-9.4,1.1-18-5.6-19.1-15.1c-0.1-1-0.1-2-0.1-3c-3.6,3.6-5.6,8.8-4.9,14.2
	c1.1,9.5,9.7,16.2,19.1,15.1l62.8-7.6c8.4-1,14.7-7.9,15.2-16.1c-2.6,2.6-6.1,4.5-10.1,4.9L255.8,483.8L255.8,483.8z"/>
<circle class="st0" cx="245.1" cy="478.1" r="20.7"/>
<path class="st4" d="M379.5,338c-0.9-0.4-1.9-0.5-2.9-0.5c-1.3,0-2.6,0.4-3.7,1l0,0c-1.1,0.6-2,1.5-2.7,2.7c-0.6,1-0.2,2.4,0.8,3
	s2.4,0.2,3-0.8c0.3-0.5,0.7-0.9,1.1-1.1c0.5-0.2,1-0.4,1.5-0.4c0.5,0,0.9,0.1,1.2,0.2s0.7,0.4,1,0.7c0.9,0.9,2.2,0.9,3,0
	c0.9-0.9,0.9-2.2,0-3C381.3,339,380.4,338.4,379.5,338L379.5,338z"/>
<path class="st4" d="M359.4,338.5L359.4,338.5c-1.1-0.6-2.4-1-3.8-1c-1,0-2,0.2-2.9,0.5c-0.9,0.4-1.8,0.9-2.5,1.6
	c-0.9,0.9-0.9,2.2,0,3c0.9,0.9,2.2,0.9,3,0c0.3-0.3,0.6-0.5,1-0.7c0.4-0.1,0.8-0.2,1.2-0.2c0.5,0,1.1,0.1,1.5,0.4
	c0.5,0.2,0.9,0.6,1.1,1.1c0.6,1,1.9,1.4,3,0.8c1-0.6,1.4-1.9,0.8-3C361.4,340,360.4,339.1,359.4,338.5L359.4,338.5z"/>
<ellipse class="st8" cx="395.1" cy="355.5" rx="13.8" ry="7.2"/>
<path class="st6" d="M592.9,397.8H491c-2.5,0-4.6,2.1-4.6,4.6l0,0c0,2.5,2.1,4.6,4.6,4.6H593c2.5,0,4.7-2.1,4.7-4.6l0,0
	C597.6,399.9,595.5,397.8,592.9,397.8z"/>
<path class="st3" d="M600.8,392.8H483c-2.5,0-4.6,2.1-4.6,4.6s2.1,4.6,4.6,4.6h117.8c2.5,0,4.7-2.1,4.7-4.6S603.4,392.8,600.8,392.8
	z"/>
<rect x="130" y="494.9" class="st7" width="397.2" height="106.4"/>
<rect x="551.4" y="494.9" class="st7" width="397.2" height="106.4"/>
<rect x="972.8" y="494.9" class="st7" width="397.2" height="106.4"/>
<rect y="616.7" class="st5" width="1500" height="383.3"/>
<rect y="596.4" class="st9" width="1500" height="28.9"/>
<polygon class="st10" points="1178.4,870 1201.4,870 1208.1,790 1184.9,790 "/>
<polygon class="st10" points="1255.3,870 1278.4,870 1284.9,790 1261.8,790 "/>
<path class="st11" d="M1271.5,710h-60c-30.2,0-57.1,24.8-59.5,55c-2.5,30.2,20.2,55,50.5,55h60c30.2,0,57.1-24.8,59.5-55
	C1324.5,734.7,1301.8,710,1271.5,710z"/>
<polygon class="st10" points="208.4,769.2 223.4,880 246.4,880 231.6,769.2 "/>
<polygon class="st10" points="285.4,769.2 300.3,880 323.4,880 308.5,769.2 "/>
<path class="st11" d="M277.6,689.2h-60c-30.2,0-51.6,24.8-47.6,55c4.1,30.2,32.1,55,62.4,55h60c30.2,0,51.6-24.8,47.6-55
	S307.9,689.2,277.6,689.2z"/>
<path class="st12" d="M630.6,652.7l-232.2,2.2c-20.6,0.2-37.2,17-37,37.7c0.1,20.7,17,37.2,37.6,37l232.2-2.2
	c20.7-0.2,37.2-17,37-37.7C668,669.1,651.2,652.5,630.6,652.7L630.6,652.7z"/>
<path class="st13" d="M630.6,652.7l-232.2,2.2c-20.6,0.2-37.2,17-37,37.7c0.1,18.5,13.7,33.8,31.4,36.6c-3.9-5.8-6.1-12.8-6.1-20.2
	c-0.1-20.7,16.5-37.5,37-37.7l232.2-2.2c2.2,0,4.2,0.2,6.3,0.5C655.3,659.2,643.7,652.5,630.6,652.7z"/>
<path class="st14" d="M486.2,654l-87.9,0.8c-20.6,0.2-37.2,17-37,37.7c0.1,20.7,17,37.2,37.6,37l87.9-0.8
	c20.6-0.2,37.2-17,37.1-37.7C523.7,670.5,506.9,653.9,486.2,654L486.2,654z"/>
<path class="st14" d="M389.9,681.3h-10.7c-51.9,0-94.4,42.5-94.4,94.3V870h199.4v-94.3C484.2,723.8,441.8,681.3,389.9,681.3
	L389.9,681.3z"/>
<path class="st15" d="M368.5,681.3c-46,0-83.6,37.7-83.6,83.7v83.7h40V765c0-44.7,35.5-81.5,79.6-83.5c-1.3,0-2.6-0.1-4-0.1
	L368.5,681.3L368.5,681.3z"/>
<path class="st15" d="M370.3,677.3c-16.6-12.3-40-8.8-52.3,7.8l-83.2,112.7c-12.3,16.6-8.8,40,7.8,52.3c16.6,12.3,40,8.8,52.3-7.8
	L378,729.6C390.3,713,386.9,689.6,370.3,677.3z"/>
<circle class="st16" cx="457" cy="617.8" r="37.8"/>
<path class="st12" d="M399.9,570L399.9,570c-35.8,0-65,29.2-65,65v20c0,35.8,29.2,65,65,65l0,0c35.8,0,65-29.2,65-65v-20
	C464.9,599.2,435.6,570,399.9,570z"/>
<path class="st17" d="M366.5,650.5v-20c0-27,16.8-50.3,40.4-60.1c-2.3-0.2-4.6-0.4-7-0.4l0,0c-35.8,0-65,29.2-65,65v20
	c0,35.8,29.2,65,65,65l0,0c8.7,0,17-1.8,24.6-4.9C392,711.5,366.5,683.8,366.5,650.5z"/>
<path class="st18" d="M395.9,634.3L395.9,634.3c-2.2,0-4,1.8-4,4v5.8c0,2.2,1.8,4,4,4l0,0c2.2,0,4-1.8,4-4v-5.8
	C399.9,636.1,398.1,634.3,395.9,634.3z"/>
<path class="st18" d="M432.4,634.3L432.4,634.3c-2.2,0-4,1.8-4,4v5.8c0,2.2,1.8,4,4,4l0,0c2.2,0,4-1.8,4-4v-5.8
	C436.4,636.1,434.6,634.3,432.4,634.3z"/>
<circle class="st16" cx="399.5" cy="591" r="41.5"/>
<circle class="st16" cx="447.5" cy="572.7" r="32.7"/>
<circle class="st16" cx="366.9" cy="552" r="32"/>
<circle class="st16" cx="412.9" cy="548" r="32"/>
<circle class="st16" cx="322.9" cy="582" r="32"/>
<circle class="st16" cx="462.9" cy="598" r="32"/>
<path class="st18" d="M400.6,689.3c0,8.1,6.6,14.7,14.7,14.7s14.7-6.6,14.7-14.7v-26.9h-29.5L400.6,689.3L400.6,689.3z"/>
<path class="st14" d="M406.1,679c-1.9,0-3.8,0.2-5.5,0.6v9.7c0,8.1,6.6,14.7,14.7,14.7c6.2,0,11.6-4,13.8-9.5
	C425.5,685.5,416.6,679,406.1,679z"/>
<rect x="400.6" y="662.5" class="st8" width="29.5" height="7.5"/>
<circle class="st19" cx="354" cy="654.5" r="20.4"/>
<circle class="st16" cx="346.4" cy="608.5" r="41.5"/>
<circle class="st16" cx="332.1" cy="647.3" r="32.7"/>
<circle class="st16" cx="306.9" cy="628" r="32"/>
<path class="st2" d="M402.8,810c-2.1,0-4.1,0.3-6,1l-80.4-60.8c-3.6-2.8-8.9-2-11.6,1.7c-2.8,3.7-2,8.9,1.6,11.7l79.1,59.8
	c-0.4,1.5-0.6,3-0.6,4.6c0,9.9,8,18,18,18s18-8,18-18C420.7,818,412.7,810,402.8,810L402.8,810z"/>
<path class="st20" d="M484.5,827.2h-112c-3.5,0-6.5,2.9-6.5,6.4l0,0c0,3.5,2.9,6.5,6.5,6.5h112c3.5,0,6.5-2.9,6.5-6.5l0,0
	C490.9,830.1,488,827.2,484.5,827.2z"/>
<path class="st21" d="M494.5,840H352c-4.9,0-8.8,4-8.8,8.8l0,0c0,4.8,4,8.8,8.8,8.8h142.5c4.9,0,8.8-4,8.8-8.8l0,0
	C503.2,844,499.3,840,494.5,840z"/>
<path class="st2" d="M507.2,833.1h-168c-3.7,0-6.7,3-6.7,6.7s3,6.7,6.7,6.7h168c3.7,0,6.7-3,6.7-6.7S510.9,833.1,507.2,833.1z"/>
<path class="st12" d="M324.9,782.5h-60c-20.7,0-37.5,16.8-37.5,37.5s16.8,37.5,37.5,37.5h60c20.7,0,37.5-16.8,37.5-37.5
	S345.6,782.5,324.9,782.5z"/>
<path class="st17" d="M298.4,782.5h-33.5c-20.7,0-37.5,16.8-37.5,37.5s16.8,37.5,37.5,37.5h33.5c-20.7,0-37.5-16.8-37.5-37.5
	S277.7,782.5,298.4,782.5z"/>
<circle class="st19" cx="342.3" cy="807.8" r="43.5"/>
<path class="st22" d="M574.3,683.5l-50,50c-14.6,14.7-14.6,38.4,0,53c14.7,14.7,38.4,14.7,53,0l50-50c14.7-14.7,14.7-38.4,0-53
	C612.7,668.8,589,668.8,574.3,683.5z"/>
<path class="st22" d="M670.9,670c-55,0-100,45-100,100v100h200V770C770.9,715,725.9,670,670.9,670z"/>
<path class="st23" d="M764.2,683.3c-9.2-18.5-31.7-25.9-50.1-16.7c-18.5,9.2-25.9,31.7-16.7,50.1l60,120
	c9.2,18.5,31.7,25.9,50.1,16.7c18.5-9.2,25.9-31.7,16.7-50.1L764.2,683.3z"/>
<ellipse class="st24" cx="670" cy="701.4" rx="43.2" ry="35.5"/>
<path class="st12" d="M670.9,560L670.9,560c-37.7,0-68.5,30.8-68.5,68.5v22.8c0,2.8,0.2,5.6,0.5,8.3c-6.2,5-9.3,13.2-7.7,22.6
	c2.8,15.2,17.3,27.7,32.6,27.7c2.2,0,4.3-0.2,6.3-0.8c10.7,6.8,23.2,10.8,36.8,10.8l0,0c37.7,0,68.5-30.8,68.5-68.5v-22.8
	C739.4,590.8,708.6,560,670.9,560L670.9,560z"/>
<path class="st17" d="M695.5,713.4c-13.5,0-26.2-4-36.8-10.8c-2,0.5-4.1,0.8-6.3,0.8c-15.2,0-29.8-12.3-32.6-27.7
	c-1.7-9.3,1.5-17.5,7.7-22.6c-0.3-2.8-0.5-5.5-0.5-8.3V622c0-27.1,16-50.7,38.9-61.8c-35.3,2.6-63.5,32.3-63.5,68.4v22.8
	c0,2.8,0.2,5.6,0.5,8.3c-6.2,5-9.3,13.2-7.7,22.6c2.8,15.2,17.3,27.7,32.6,27.7c2.2,0,4.3-0.2,6.3-0.8c10.7,6.8,23.2,10.8,36.8,10.8
	l0,0c10.6,0,20.7-2.5,29.7-6.8C698.9,713.3,697.2,713.4,695.5,713.4L695.5,713.4L695.5,713.4z"/>
<ellipse class="st16" cx="665.7" cy="585.2" rx="62.8" ry="45.2"/>
<path class="st18" d="M602.8,579.4c-3.2-15.5,4.8-29.2,19.7-37.3c-24.3,5.8-39.2,22.9-35,43.2c5.2,25,37.4,45.2,72.1,45.2
	c13.2,0,24.8-3,33.9-7.9c-5.7,1.3-11.8,2.1-18.5,2.1C640.2,624.7,608,604.4,602.8,579.4z"/>
<path class="st18" d="M708.2,601.6c-8.5,0-15.6,7-15.6,15.6v7.3c0,8.5,7,15.6,15.6,15.6s15.6-7,15.6-15.6v-7.3
	C723.8,608.6,716.8,601.6,708.2,601.6z"/>
<path class="st18" d="M671,637.5c-1.6-0.7-3.3-1-5-1c-3,0-5.7,1-8,2.7s-3.9,4.2-4.7,7c-0.6,2.2,0.8,4.5,3,5.1s4.5-0.8,5.1-3
	c0.3-1,0.9-1.9,1.7-2.5s1.8-1,2.9-1c0.7,0,1.2,0.1,1.8,0.3c0.5,0.2,1,0.5,1.5,1c1.7,1.7,4.2,1.7,5.9,0s1.7-4.2,0-5.9
	C674.1,639.1,672.6,638.2,671,637.5L671,637.5z"/>
<path class="st18" d="M632.5,639.2c-2.2-1.7-5-2.7-8-2.7c-1.7,0-3.4,0.3-5,1s-3,1.6-4.2,2.8c-1.7,1.7-1.7,4.2,0,5.9s4.2,1.7,5.9,0
	c0.5-0.5,1-0.8,1.5-1c0.5-0.2,1.2-0.3,1.8-0.3c1.1,0,2.1,0.3,2.9,1c0.8,0.6,1.4,1.5,1.7,2.5c0.6,2.2,2.8,3.5,5.1,3
	c2.2-0.6,3.5-2.8,3-5.1C636.4,643.4,634.7,641,632.5,639.2L632.5,639.2z"/>
<path class="st18" d="M665.6,674.9c1.1-0.3,1.8-1.5,1.5-2.5s-1.5-1.8-2.5-1.5c-2.2,0.6-4.1,1.9-5.5,3.7c-1.2,1.5-2,3.5-2.1,5.5
	c-0.5,1.7-1.5,3-2.8,4c-1.3,1-3,1.7-4.8,1.7s-3.5-0.6-4.8-1.7c-1.3-1-2.3-2.5-2.8-4.2c0-0.2-0.2-0.5-0.3-0.7c-0.2-1.7-1-3.3-2-4.7
	c-1.3-1.8-3.2-3-5.5-3.7c-1.1-0.3-2.2,0.3-2.5,1.5c-0.3,1.1,0.3,2.2,1.5,2.5c1.3,0.3,2.5,1.2,3.2,2.2c0.8,1,1.2,2.3,1.2,3.7
	s-0.5,2.7-1.2,3.7s-1.9,1.8-3.2,2.2c-1.1,0.3-1.8,1.5-1.5,2.5s1.5,1.8,2.5,1.5c2.2-0.6,4.1-1.9,5.5-3.7c0.3-0.4,0.6-0.8,0.8-1.2
	c0.5,0.6,1.1,1.2,1.8,1.7c2,1.5,4.6,2.5,7.3,2.5s5.2-0.9,7.3-2.5c0.6-0.5,1.1-1,1.6-1.5c0.2,0.3,0.5,0.8,0.7,1
	c1.3,1.8,3.2,3,5.5,3.7c1.1,0.3,2.2-0.3,2.5-1.5c0.3-1.1-0.3-2.2-1.5-2.5c-1.3-0.3-2.5-1.2-3.2-2.2c-0.8-1-1.2-2.3-1.2-3.7
	s0.5-2.7,1.2-3.7C663.1,676,664.2,675.2,665.6,674.9z"/>
<path class="st18" d="M695.5,610.8c0,21.6,17.5,39.2,39.2,39.2c1.6,0,3.2-0.1,4.7-0.3V572c-1.5-0.2-3.1-0.3-4.7-0.3
	C713,571.7,695.5,589.2,695.5,610.8L695.5,610.8z"/>
<circle class="st19" cx="736.7" cy="645.8" r="24.2"/>
<circle class="st24" cx="736.7" cy="645.8" r="9.2"/>
<path class="st2" d="M653,690c-9.9,0-18,8-18,18c0,2.1,0.3,4.1,1,6l-60.8,80.3c-2.8,3.7-2,8.9,1.7,11.7c3.7,2.8,8.9,2,11.7-1.7
	l59.8-79c1.5,0.4,3,0.6,4.6,0.6c9.9,0,18-8,18-18S662.9,690,653,690L653,690z"/>
<path class="st12" d="M600.9,722.5h-50c-20.7,0-37.5,16.8-37.5,37.5s16.8,37.5,37.5,37.5h50c20.7,0,37.5-16.8,37.5-37.5
	S621.6,722.5,600.9,722.5z"/>
<path class="st17" d="M545.3,749.5c0-10.6,4.4-20.2,11.5-27h-5.9c-20.7,0-37.5,16.8-37.5,37.5s16.8,37.5,37.5,37.5h50
	c10.1,0,19.3-4,26-10.5h-44.1C562.1,787,545.3,770.2,545.3,749.5z"/>
<circle class="st19" cx="621.7" cy="750.8" r="40.8"/>
<path class="st12" d="M795.4,782.8l-80-10c-20.5-2.5-39.2,12.1-41.8,32.7c-2.5,20.5,12.1,39.2,32.7,41.8l80,10
	c20.5,2.5,39.2-12.1,41.8-32.7C830.6,804,816,785.3,795.4,782.8z"/>
<path class="st17" d="M738.8,829.7c-20.5-2.5-35.2-21.2-32.7-41.8c0.7-5.7,2.7-10.9,5.5-15.5c-19-0.5-35.7,13.7-38,33
	c-2.5,20.5,12.1,39.2,32.7,41.8l80,10c14.8,1.8,28.8-5.3,36.2-17.2c-1.2,0-2.5-0.1-3.8-0.2L738.8,829.7z"/>
<path class="st21" d="M719,822.9c-1.8,0-3.6,0.5-5,1.5c-1.5-2.7-4.4-4.4-7.7-4.4c-0.7,0-1.3,0.1-2,0.2c-1.2-1.1-2.8-1.8-4.6-1.8
	c-2.8,0-5.2,1.7-6.3,4.1c-0.2-0.2-0.2-0.3-0.4-0.5c1.3-1.2,2.2-3.1,2.2-5.1c0-3.8-3.1-7-7-7s-6.9,3-7,6.8c-1-0.5-2-0.7-3-0.7
	c-3.8,0-7,3.1-7,7v0c-1.2-2-3.5-3.5-6-3.5c-0.3,0-0.6,0-0.9,0c-0.2-3.7-3.2-6.5-6.9-6.5c-3.1,0-5.7,2-6.6,4.8
	c-1.2-1.4-3.1-2.2-5.1-2.2c-2.4,0-4.5,1.2-5.8,3c-1.2-2.2-3.5-3.8-6.2-3.8c-3.8,0-7,3.1-7,7c0,1,0.2,2,0.6,2.8
	c-1.2-1-2.8-1.6-4.5-1.6c-2,0-3.9,0.9-5.2,2.3c-1-0.7-2.3-1-3.7-1c-1.2,0-2.5,0.3-3.5,1c-1-0.6-2.2-1-3.5-1c-1.7,0-3.2,0.6-4.5,1.7
	c-1.2-1.7-3.2-2.7-5.5-2.7c-3.8,0-7,3.1-7,7c0,1.2,0.3,2.3,0.8,3.3h137c0-0.5,0.1-0.9,0.1-1.3C728.3,827.1,724.1,822.9,719,822.9
	L719,822.9z"/>
<path class="st21" d="M730.5,840H588.1c-4.8,0-8.8,4-8.8,8.8l0,0c0,4.8,4,8.8,8.8,8.8h142.5c4.8,0,8.8-4,8.8-8.8l0,0
	C739.3,844,735.4,840,730.5,840z"/>
<path class="st2" d="M743.3,833.1h-168c-3.7,0-6.7,3-6.7,6.7s3,6.7,6.7,6.7h168c3.7,0,6.7-3,6.7-6.7S747,833.1,743.3,833.1z"/>
<path class="st25" d="M667.5,808.3c-5.5,0-7.3,4.5-4.1,10s10.3,10,15.9,10s7.3-4.5,4.1-10C680.1,812.8,673,808.3,667.5,808.3z"/>
<path class="st25" d="M716.8,816.9c-2.8,0-6.5,2.3-8.1,5.1c-1.7,2.8-0.7,5.1,2.1,5.1s6.5-2.3,8.1-5.1
	C720.5,819.2,719.5,816.9,716.8,816.9z"/>
<path class="st26" d="M913.8,640c-52.2,0-95,42.8-95,95v122.6h190V735C1008.8,682.8,966,640,913.8,640z"/>
<path class="st26" d="M844.3,648L749,674c-19.9,5.4-31.7,26-26.2,45.8c5.4,19.9,26,31.7,45.8,26.2l95.3-26
	c19.9-5.4,31.7-26,26.2-45.8S864.2,642.6,844.3,648z"/>
<ellipse class="st24" cx="917.5" cy="687" rx="41.2" ry="30.3"/>
<path class="st12" d="M941.2,539.3c-36.8-9.8-75,12.2-84.9,49l-5.5,20.6c-9.8,36.8,12.2,75,49,84.9c36.8,9.8,75-12.2,84.9-49
	l5.5-20.6C1000,587.5,978,549.2,941.2,539.3z"/>
<path class="st17" d="M856.2,588.3l-5.5,20.6c-9.8,36.8,12.2,75,49,84.9c4.5,1.2,9.1,2,13.7,2.2c-22.6-16.4-34-45.7-26.4-74.2
	l5.5-20.6c8.7-32.3,39.1-53.2,71.2-51.2c-6.7-4.8-14.2-8.5-22.7-10.8C904.3,529.5,866.1,551.5,856.2,588.3L856.2,588.3z"/>
<path class="st18" d="M939.8,609.2c-1.7,2.7-3,5.7-3.8,8.9c-4.7,17.6,5.8,35.7,23.3,40.5s35.7-5.8,40.5-23.3
	c0.8-3.2,1.2-6.5,1.1-9.7L939.8,609.2L939.8,609.2z"/>
<path class="st26" d="M970.9,540.7l-56.2-15c-21.3-5.8-43.5,7.1-49.3,28.5L855,592.9l134,35.9l10.4-38.8
	C1005.1,568.6,992.3,546.4,970.9,540.7L970.9,540.7z"/>
<path class="st18" d="M916,560.8l-23.2-6.2c-8.8-2.3-18,2.9-20.3,11.8l-4.3,16l55.3,14.8l4.3-16C930.1,572.2,924.8,563.1,916,560.8z
	"/>
<path class="st26" d="M1023.2,623.8l-63-16.9c-3.6-1-7.4,1.2-8.3,4.8c-1,3.7,1.2,7.4,4.8,8.3l63,16.9c3.7,1,7.4-1.2,8.4-4.8
	C1029,628.5,1026.8,624.8,1023.2,623.8L1023.2,623.8z"/>
<path class="st18" d="M899.5,578.5c-2.1,0.5-4.2,0.7-6.3,0.7c-7.5-0.5-14.5-4.9-18.2-12c-4.8-9.2-2.5-20.2,4.8-26.8
	c-1.9,0.4-3.8,1.1-5.5,2c-5.1,2.7-8.8,7-10.7,12c-1.8-10,1.7-20.5,9.2-27.3c-2.5,0.5-5,1.5-7.5,2.7c-14.8,7.7-20.5,25.8-12.8,40.5
	s25.8,20.5,40.5,12.8c0.3-0.2,0.7-0.3,1-0.5c0.2-0.2,0.5-0.2,0.8-0.4c1.8-1,3.4-2.1,4.8-3.4l-0.5,0.1L899.5,578.5z"/>
<circle class="st19" cx="945.8" cy="644.2" r="19.2"/>
<path class="st12" d="M988.8,713.2c-20.7,0-37.3,16.7-37.3,37.3l-0.1,96.3c0,20.7,16.7,37.3,37.3,37.3s37.3-16.7,37.3-37.3l0.1-96.3
	C1026.1,729.9,1009.4,713.2,988.8,713.2z"/>
<path class="st17" d="M1001.5,715.5c-4-1.5-8.2-2.2-12.7-2.2c-20.7,0-37.3,16.7-37.3,37.3l-0.1,96.3c0,20.7,16.7,37.3,37.3,37.3
	c4.5,0,8.7-0.8,12.7-2.2c-14.4-5.2-24.7-19-24.7-35.2l0.1-96.3C976.8,734.4,987,720.6,1001.5,715.5L1001.5,715.5z"/>
<path class="st26" d="M988.8,653.2c-20.7,0-37.3,16.7-37.3,37.3l0,60c0,20.7,16.7,37.3,37.3,37.3s37.3-16.7,37.3-37.3l0.1-60
	C1026.2,669.9,1009.5,653.2,988.8,653.2L988.8,653.2z"/>
<path class="st27" d="M998.8,654.6c-3.2-0.9-6.5-1.3-10-1.3c-20.7,0-37.3,16.7-37.3,37.3l0,60c0,20.7,16.7,37.3,37.3,37.3
	c3.5,0,6.8-0.5,10-1.3c-15.8-4.4-27.3-18.8-27.3-36l0-60C971.5,673.4,983,659,998.8,654.6z"/>
<circle class="st16" cx="896.3" cy="619.5" r="5.2"/>
<circle class="st16" cx="862.2" cy="608" r="5.2"/>
<path class="st28" d="M867,608.8l-69.5-19.2c-5.8-1.6-11.8,1.8-13.4,7.6l-9.8,35.5c-1.6,5.8,1.8,11.8,7.6,13.4l69.5,19.2
	c5.8,1.6,11.8-1.8,13.4-7.6l9.8-35.5C876.2,616.4,872.8,610.4,867,608.8z"/>
<path class="st2" d="M873.5,609.8L873.5,609.8c-2.3-0.7-4.8,0.8-5.5,3.1l-13.5,48.7c-0.7,2.3,0.8,4.8,3.1,5.5s4.8-0.8,5.5-3.1
	l13.5-48.7C877.2,613,875.8,610.5,873.5,609.8z"/>
<path class="st2" d="M791.5,587.5c-2.3-0.7-4.8,0.8-5.5,3.1l-13.5,48.7c-0.7,2.3,0.8,4.8,3.1,5.5l0,0c2.3,0.7,4.8-0.8,5.5-3.1
	l13.5-48.7C795.2,590.7,793.8,588.2,791.5,587.5z"/>
<circle class="st29" cx="822.9" cy="626.4" r="14.8"/>
<path class="st2" d="M828.7,612.8c0.3,2,0.2,4.1-0.3,6.2c-2.2,7.8-10.3,12.5-18.2,10.3c-0.6-0.2-1.2-0.4-1.8-0.7
	c0.2,1.7,0.8,3.2,1.5,4.7c1,0.5,2,1,3.2,1.3c7.8,2.2,16-2.5,18.2-10.3c1-3.8,0.5-7.7-1.2-10.8C829.6,613.2,829.1,613,828.7,612.8z"
	/>
<path class="st12" d="M779.8,588c-24.4,0-38.2,18.4-42.5,40.3l-15.1,74.3c-4,20.2,9,39.9,29.3,44s39.9-9,44-29.3l11.8-57.8
	c8.3-7.5,13.7-18.4,13.7-30.5C820.8,606.4,802.5,588,779.8,588L779.8,588z"/>
<path class="st17" d="M770,627.4c3.3-16.5,12.4-30.8,28-35.2c-5.5-2.8-11.7-4.3-18.3-4.3c-24.4,0-38.2,18.4-42.5,40.3l-15.1,74.3
	c-4,20.2,9,39.9,29.3,44c13.5,2.7,26.6-2.2,35.2-11.7c-1.2-0.1-2.5-0.3-3.7-0.5c-18.3-3.7-30.2-21.5-26.5-39.8L770,627.4L770,627.4z
	"/>
<path class="st18" d="M1155.8,538.3c-47,0-85.1,29.2-85.1,101.2s38.1,130.5,85.1,130.5s85.1-58.4,85.1-130.5
	S1202.8,538.3,1155.8,538.3z"/>
<path class="st30" d="M1164.7,705.1L1164.7,705.1c-33.3,0-60.6,27.2-60.6,60.5v92h121.1v-92C1225.2,732.3,1197.9,705.1,1164.7,705.1
	L1164.7,705.1z"/>
<path class="st31" d="M1182.6,741.3c-17.2,11.5-21.9,34.8-10.4,52l40,60c1,1.5,2.2,3,3.3,4.3h9.7v-92c0-9.8-2.4-19.2-6.6-27.4
	C1207.2,733.2,1193.7,733.9,1182.6,741.3L1182.6,741.3z"/>
<path class="st30" d="M1099.7,709.2l-72.7,50c-17,11.8-21.2,35-9.5,52s35,21.2,52,9.5l72.7-50c17-11.8,21.2-35,9.5-52
	S1116.6,697.5,1099.7,709.2z"/>
<path class="st17" d="M1147.7,670c-12.8,0-23.2,10.5-23.2,23.2v13.6c0,12.8,10.4,23.2,23.2,23.2s23.2-10.5,23.2-23.2v-13.6
	C1170.9,680.5,1160.4,670,1147.7,670z"/>
<path class="st12" d="M1158,672.5c-11,1.8-19.5,11.4-19.5,22.9V709c0,9,5.2,17,12.8,20.8c11-1.8,19.5-11.4,19.5-22.9v-13.6
	C1170.9,684.2,1165.6,676.2,1158,672.5z"/>
<path class="st12" d="M1133.9,570h-6.1c-31.3,0-57,25.7-57,57v16c0,31.3,25.7,57,57,57h6.1c31.3,0,57-25.7,57-57v-16
	C1190.8,595.7,1165.2,570,1133.9,570z"/>
<path class="st17" d="M1089.7,640.3v-16c0-17.7,8.1-33.5,20.8-44c3.2-3.8,6.9-7.2,11.1-10c-28.3,3.2-50.6,27.5-50.6,56.6v16
	c0,31.3,25.7,57,57,57h6.1c6.1,0,11.9-1,17.4-2.8h-4.7C1115.3,697.2,1089.7,671.6,1089.7,640.3L1089.7,640.3z"/>
<path class="st18" d="M1155.6,540c-23.4,0-36.2,28.5-28.6,63.8c7.7,35.2,32.8,63.8,56.2,63.8s36.2-28.5,28.6-63.8
	S1179,540,1155.6,540z"/>
<path class="st18" d="M1102.9,542.7c-20.1,0-34.5,7.5-44.2,37.7s-1.3,54.8,18.8,54.8s44.2-24.5,53.9-54.8
	C1141.1,550.2,1123,542.7,1102.9,542.7z"/>
<path class="st30" d="M1222.1,709.2c-11.5-17.2-34.8-21.9-52-10.4s-21.9,34.8-10.4,52l40,60c11.5,17.2,34.8,21.9,52,10.4
	s21.9-34.8,10.4-52L1222.1,709.2z"/>
<path class="st12" d="M1254.2,763.1c-17.8-10.5-40.8-4.6-51.2,13.2l-44.3,74.7c-3.6,6-5.2,12.5-5.2,19h80.9l33-55.6
	C1277.9,796.6,1272,773.7,1254.2,763.1L1254.2,763.1z"/>
<path class="st2" d="M1107.3,766.2c-2.1-0.3-4.1-0.3-6.1,0l-68.7-73.7c-3.2-3.3-8.4-3.5-11.8-0.4c-3.3,3.2-3.5,8.4-0.4,11.8
	l67.6,72.5c-0.7,1.4-1.1,2.8-1.4,4.5c-1.7,9.8,4.8,19,14.6,20.8s19.1-4.8,20.8-14.6S1117.1,767.9,1107.3,766.2z"/>
<path class="st12" d="M1059.4,702.9c-16,0-27.2,10.6-37.8,21.2l-37.3,37.3c-14.7,14.7-14.7,38.4,0,53c14.7,14.7,38.4,14.7,53.1,0
	l37.3-37.3c0.2-0.2,0.3-0.3,0.4-0.5c13.4-6,22.8-19.5,22.8-35.2C1098,720.2,1080.7,702.9,1059.4,702.9z"/>
<path class="st2" d="M1035.3,799.9c-0.3,2.3-0.5,4.6-0.5,7c0,26,21.1,47,47.1,47s47.1-21,47.1-47c0-2.4-0.2-4.7-0.5-7H1035.3
	L1035.3,799.9z"/>
<path class="st32" d="M1122.6,846.7h-81.2c-3,0-5.4,2.5-5.4,5.5s2.4,5.5,5.4,5.5h81.2c3,0,5.4-2.5,5.4-5.5
	S1125.6,846.7,1122.6,846.7z"/>
<path class="st17" d="M1059.4,702.9c-16,0-27.2,10.6-37.8,21.2l-37.3,37.3c-14.7,14.7-14.7,38.4,0,53c12,12,30.2,14.2,44.4,6.5
	c-6.7-0.8-13.1-3.8-18.2-8.8c-12.1-12.1-12.1-31.7,0-43.8l30.9-30.8c8.8-8.8,17.9-17.5,31.2-17.5c9.6,0,18.2,4.2,24.1,11
	C1092,714.8,1077.1,702.9,1059.4,702.9L1059.4,702.9z"/>
<path class="st17" d="M1202.9,776.3l-44.3,74.7c-3.6,6-5.2,12.5-5.2,19h32.8c-6.1-11.2-6.3-25.2,0.7-37l44.3-74.7
	c0.1-0.1,0.1-0.2,0.2-0.3C1220,759.3,1209.3,765.6,1202.9,776.3L1202.9,776.3z"/>
<path class="st18" d="M1091.2,637.7c-2.4,0-4.7,0.8-6.4,2.2c-1.8,1.4-3.2,3.3-3.8,5.7c-0.4,1.7,0.6,3.4,2.2,3.8
	c1.7,0.5,3.4-0.5,3.8-2.2c0.2-1,0.8-1.8,1.6-2.3s1.7-0.9,2.7-0.9c1.2,0,2.3,0.5,3.1,1.3c0.8,0.8,1.3,1.9,1.3,3.1
	c0,1.8,1.4,3.2,3.2,3.2s3.2-1.4,3.2-3.2c0-3-1.2-5.6-3.1-7.5C1096.8,638.8,1094.1,637.7,1091.2,637.7L1091.2,637.7z"/>
<path class="st18" d="M1121.3,637.7c-2.4,0-4.7,0.8-6.4,2.2c-1.8,1.4-3.2,3.3-3.8,5.7c-0.4,1.7,0.6,3.4,2.2,3.8
	c1.7,0.5,3.4-0.5,3.8-2.2c0.2-1,0.8-1.8,1.6-2.3s1.7-0.9,2.7-0.9c1.2,0,2.3,0.5,3.1,1.3c0.8,0.8,1.3,1.9,1.3,3.1
	c0,1.8,1.4,3.2,3.2,3.2s3.2-1.4,3.2-3.2c0-3-1.2-5.6-3.1-7.5C1126.9,638.8,1124.3,637.7,1121.3,637.7L1121.3,637.7z"/>
<path class="st18" d="M1139.8,669.5c-1.7-0.5-3.3,0.6-3.8,2.2c-0.2,1-0.8,1.8-1.6,2.3c-0.8,0.6-1.7,0.9-2.7,0.9
	c-0.4,0-0.8,0-1.2-0.2c-0.4-0.1-0.8-0.2-1.1-0.5c-1.5-0.8-3.4-0.3-4.2,1.2s-0.3,3.4,1.2,4.2c0.8,0.5,1.7,0.8,2.6,1
	c0.9,0.2,1.8,0.3,2.8,0.3c2.4,0,4.7-0.8,6.5-2.2c1.8-1.4,3.2-3.4,3.8-5.8C1142.4,671.5,1141.4,669.9,1139.8,669.5L1139.8,669.5z"/>
<path class="st11" d="M1285,857.6H215c-8.2,0-15,6.8-15,15s6.8,15,15,15h1070c8.2,0,15-6.8,15-15S1293.2,857.6,1285,857.6z"/>
<path class="st20" d="M1127.7,857.6H372.3c-8.2,0-15,6.8-15,15s6.8,15,15,15h755.3c8.2,0,15-6.8,15-15S1135.9,857.6,1127.7,857.6z"
	/>
<rect x="237.4" y="887.6" class="st33" width="1025.2" height="112.4"/>
<polygon class="st4" points="404.3,130 375.7,130 375.7,154.4 329.5,200.6 450.5,200.6 404.3,154.4 "/>
<polygon class="st4" points="764.3,130 735.7,130 735.7,154.4 689.5,200.6 810.5,200.6 764.3,154.4 "/>
<polygon class="st4" points="1124.3,130 1095.7,130 1095.7,154.4 1049.4,200.6 1170.6,200.6 1124.3,154.4 "/>
</svg>
