<?xml version="1.0" encoding="UTF-8"?><svg id="a" xmlns="http://www.w3.org/2000/svg" viewBox="0 0 3000 2000"><rect width="3000" height="2000" fill="#e8eae7"/><path d="m2600,260H400c-77,0-140,63-140,140v662.4c0,77,63,140,140,140h2200c77,0,140-63,140-140V400c0-77-63-140-140-140Z" fill="#f7f5f4" fill-rule="evenodd"/><path d="m2422.4,401.3H577.6c-58.9,0-107.1,48.2-107.1,107.1v506.9c0,58.9,48.2,107.1,107.1,107.1h1844.7c58.9,0,107.1-48.2,107.1-107.1v-506.9c.1-58.9-48.1-107.1-107-107.1Z" fill="#fff" fill-rule="evenodd"/><polygon points="1560 1202.4 2740 1202.4 2821.9 700 1641.9 700 1560 1202.4" fill="#e8eae7" fill-rule="evenodd"/><path d="m654.4,664.2c-2.1,18.1,8.7,33.2,24.9,37.4-10-6.8-15.7-18.8-14.2-32.5,2.4-21.3,21.6-38.5,42.9-38.5,3.2,0,6.3.4,9.2,1.1-5.5-3.8-12.4-6-19.9-6-21.3,0-40.5,17.3-42.9,38.5Z" fill="#b6bab4" fill-rule="evenodd"/><circle cx="706.3" cy="660.3" r="38.5" fill="#b6bab4"/><circle cx="865.9" cy="732.5" r="91.5" fill="#b6bab4"/><path d="m742,771.4c-17-8.5-37.7-1.5-46.2,15.5l-72.3,144.8c-8.5,17-1.5,37.7,15.5,46.2s37.7,1.5,46.2-15.5l72.3-144.8c8.5-17.1,1.5-37.8-15.5-46.2Z" fill="#e8eae7" fill-rule="evenodd"/><circle cx="638.1" cy="939.4" r="56.4" fill="#e8eae7"/><path d="m619,906.1l-125.6,15.3c-18.9,2.2-32.4,19.4-30.2,38.3,2.2,18.9,19.4,32.4,38.3,30.2l125.6-15.3c18.9-2.2,32.4-19.4,30.2-38.3-2.3-18.9-19.4-32.4-38.3-30.2Z" fill="#e8eae7" fill-rule="evenodd"/><path d="m902.2,781.6c-11.4-15.2-32.9-18.2-48.1-6.9-15.2,11.4-18.2,32.9-6.9,48.1l103.6,138.1c11.4,15.2,32.9,18.3,48.1,6.9,15.2-11.4,18.2-32.9,6.9-48.1l-103.6-138.1Z" fill="#e8eae7" fill-rule="evenodd"/><circle cx="976.6" cy="930.7" r="56.4" fill="#e8eae7"/><path d="m800.4,750.7c-49.7,0-90.3,51.4-90.3,114.1v195.6c0,62.8,40.6,114.1,90.3,114.1s90.3-51.4,90.3-114.1v-195.6c.1-62.7-40.6-114.1-90.3-114.1Z" fill="#e8eae7" fill-rule="evenodd"/><path d="m865.5,856.4h-130.3c-18.7,0-33.9,15.3-33.9,33.9v278.1c0,18.7,15.3,33.9,33.9,33.9h130.3c18.7,0,33.9-15.3,33.9-33.9v-278c0-18.7-15.3-34-33.9-34Z" fill="#d9ded7" fill-rule="evenodd"/><path d="m822,715.3c-5.8-21.6-28.2-34.5-49.8-28.7s-34.5,28.2-28.7,49.8l18,67.3c5.8,21.6,28.2,34.5,49.8,28.7s34.5-28.2,28.7-49.8l-18-67.3Z" fill="#e8eae7" fill-rule="evenodd"/><path d="m854.6,740.1h-15.7c-6.9,0-12.6,5.7-12.6,12.6v143.9c0,7,5.7,12.6,12.6,12.6h15.7c6.9,0,12.6-5.7,12.6-12.6v-143.8c0-7-5.7-12.7-12.6-12.7Z" fill="#d9ded7" fill-rule="evenodd"/><path d="m758.2,740.1h-15.7c-7,0-12.6,5.7-12.6,12.6v143.9c0,7,5.7,12.6,12.6,12.6h15.7c6.9,0,12.6-5.7,12.6-12.6v-143.8c0-7-5.6-12.7-12.6-12.7Z" fill="#d9ded7" fill-rule="evenodd"/><path d="m779.1,563.2c-48.9-1.4-90.1,37.4-91.5,86.3l-1.2,40.4c-1.4,48.9,37.4,90.1,86.3,91.5,48.9,1.4,90.1-37.4,91.5-86.3l1.2-40.4c1.4-48.9-37.4-90.1-86.3-91.5Z" fill="#e8eae7" fill-rule="evenodd"/><circle cx="732.2" cy="727.9" r="7.5" fill="#d9ded7"/><circle cx="733" cy="734" r="4.7" fill="#d9ded7"/><path d="m865.6,645.1c-15.3,1.9-27.8,15.9-27.8,31.2s12.4,26.2,27.8,24.3c15.3-1.9,27.8-15.9,27.8-31.2,0-15.3-12.5-26.2-27.8-24.3Z" fill="#e8eae7" fill-rule="evenodd"/><path d="m865.6,660.2c-7,.9-12.6,7.2-12.6,14.2s5.7,11.9,12.6,11.1c7-.9,12.6-7.2,12.6-14.2.1-7-5.6-11.9-12.6-11.1Z" fill="#b6bab4" fill-rule="evenodd"/><circle cx="813.3" cy="604.6" r="70.1" fill="#b6bab4"/><path d="m718.3,649.5c1.3-42.8,32.9-77.8,73.5-85-4.2-.7-8.4-1.2-12.8-1.3-48.9-1.4-90.1,37.4-91.5,86.3l-1.2,40.4c-1.4,48.9,37.4,90.1,86.3,91.5,6.1.2,12.2-.3,18-1.3-42.7-7.5-74.8-45.7-73.5-90.2l1.2-40.4Z" fill="#d9ded7" fill-rule="evenodd"/><path d="m686.9,581.2v76.2h178.4v-152.4h-102.2c-41.9,0-76.2,34.3-76.2,76.2Z" fill="#d9ded7" fill-rule="evenodd"/><path d="m879.5,630.1h-30.5c-7.5,0-13.6,6.1-13.6,13.6h0c0,7.5,6.1,13.6,13.6,13.6h30.5c7.5,0,13.6-6.1,13.6-13.6h0c.1-7.5-6.1-13.6-13.6-13.6Z" fill="#d9ded7" fill-rule="evenodd"/><path d="m1043,802.2l-80.5,102.3c-11.8,15-9.2,36.6,5.8,48.4,15,11.8,36.6,9.2,48.4-5.8l88.8-112.7c7.4-9.4,9.1-21.5,5.6-32.1h-68.1v-.1Z" fill="#d9ded7" fill-rule="evenodd"/><path d="m962.5,904.5c-7.4,9.5-9.1,21.6-5.6,32.3,14,6,30.8,2.1,40.6-10.4l88.8-112.7c2.8-3.5,4.7-7.4,5.9-11.4h-49.2l-80.5,102.2Z" fill="#e8eae7" fill-rule="evenodd"/><path d="m1041.2,802.2c-3.8,7-6,15-6,23.5,0,26.9,21.8,48.7,48.7,48.7s48.7-21.8,48.7-48.7c0-8.5-2.2-16.5-6-23.5h-85.4Z" fill="#e8eae7" fill-rule="evenodd"/><circle cx="846.7" cy="862.4" r="10.4" fill="#fff"/><circle cx="750.4" cy="862.4" r="10.4" fill="#fff"/><path d="m747.6,1020.9c-.2,1.7-.3,3.5-.3,5.3,0,29.2,23.7,52.9,52.9,52.9s52.9-23.7,52.9-52.9c0-1.8-.1-3.5-.3-5.3h-105.2Z" fill="#b6bab4" fill-rule="evenodd"/><path d="m527.4,873.1c-4.9-1.9-10.5.5-12.4,5.4l-81.3,204c-1.9,4.9.5,10.5,5.4,12.4s10.5-.5,12.4-5.4l81.3-204c1.9-4.9-.5-10.4-5.4-12.4Z" fill="#b6bab4" fill-rule="evenodd"/><path d="m448.3,1060c-13.1,0-28.7,20.1-34.9,45-6.1,24.8-.5,45,12.6,45s28.7-20.1,34.9-45c6.2-24.8.5-45-12.6-45Z" fill="#b6bab4" fill-rule="evenodd"/><path d="m511.5,967.5c-18.9,2.2-36-11.3-38.3-30.2-.2-2.1-.3-4.1-.2-6.1-7.2,7.2-11.1,17.5-9.9,28.4,2.2,18.9,19.4,32.4,38.3,30.2l125.6-15.3c16.8-2,29.4-15.8,30.4-32.2-5.3,5.3-12.3,8.9-20.3,9.8l-125.6,15.4Z" fill="#d9ded7" fill-rule="evenodd"/><circle cx="490.1" cy="956.2" r="41.4" fill="#e8eae7"/><path d="m759.1,676.1c-1.8-.7-3.7-1.1-5.7-1.1-2.6,0-5.2.7-7.4,2h0c-2.2,1.3-4.1,3.1-5.4,5.4-1.2,2.1-.5,4.7,1.6,5.9s4.7.5,5.9-1.6c.6-1,1.4-1.8,2.3-2.3.9-.5,2-.8,3.1-.8.9,0,1.7.2,2.4.5s1.4.8,2,1.4c1.7,1.7,4.4,1.7,6.1,0,1.7-1.7,1.7-4.4,0-6.1-1.4-1.5-3.1-2.6-4.9-3.3Z" fill="#b6bab4" fill-rule="evenodd"/><path d="m718.7,677h0c-2.3-1.3-4.8-2-7.5-2-2,0-3.9.4-5.7,1.1-1.8.8-3.5,1.8-4.9,3.2-1.7,1.7-1.7,4.4,0,6.1,1.7,1.7,4.4,1.7,6.1,0,.6-.6,1.3-1.1,2-1.4.7-.3,1.6-.5,2.4-.5,1.1,0,2.2.3,3.1.8.9.5,1.8,1.3,2.3,2.3,1.2,2.1,3.8,2.8,5.9,1.6,2.1-1.2,2.8-3.8,1.6-5.9-1.2-2.2-3.1-4.1-5.3-5.3Z" fill="#b6bab4" fill-rule="evenodd"/><ellipse cx="790.3" cy="711" rx="27.6" ry="14.4" fill="#fff"/><path d="m1185.8,795.6h-203.8c-5.1,0-9.3,4.2-9.3,9.3h0c0,5.1,4.2,9.3,9.3,9.3h203.9c5.1,0,9.3-4.2,9.3-9.3h0c-.1-5.1-4.2-9.3-9.4-9.3Z" fill="#d9ded7" fill-rule="evenodd"/><path d="m1201.7,785.6h-235.6c-5.1,0-9.3,4.2-9.3,9.3s4.2,9.3,9.3,9.3h235.6c5.1,0,9.3-4.2,9.3-9.3s-4.2-9.3-9.3-9.3Z" fill="#e8eae7" fill-rule="evenodd"/><rect x="260" y="989.7" width="794.3" height="212.7" fill="#d9ded7"/><rect x="1102.8" y="989.7" width="794.3" height="212.7" fill="#d9ded7"/><rect x="1945.7" y="989.7" width="794.3" height="212.7" fill="#d9ded7"/><rect y="1233.4" width="3000" height="766.6" fill="#b6bab4"/><rect y="1192.8" width="3000" height="57.8" fill="#f3f3f3"/><polygon points="2356.8 1740 2402.9 1740 2416.1 1579.9 2369.9 1579.9 2356.8 1740" fill="#b4b4b4" fill-rule="evenodd"/><polygon points="2510.6 1740 2556.8 1740 2569.9 1579.9 2523.7 1579.9 2510.6 1740" fill="#b4b4b4" fill-rule="evenodd"/><path d="m2543,1419.9h-120c-60.5,0-114.1,49.5-119,110-5,60.5,40.5,110,101,110h120c60.5,0,114.1-49.5,119-110,5-60.5-40.5-110-101-110Z" fill="#e0a756" fill-rule="evenodd"/><polygon points="416.9 1538.4 446.8 1760 492.9 1760 463.1 1538.4 416.9 1538.4" fill="#b4b4b4" fill-rule="evenodd"/><polygon points="570.8 1538.4 600.6 1760 646.8 1760 616.9 1538.4 570.8 1538.4" fill="#b4b4b4" fill-rule="evenodd"/><path d="m555.3,1378.4h-120c-60.5,0-103.3,49.5-95.2,110,8.2,60.5,64.3,110,124.8,110h120c60.5,0,103.3-49.5,95.2-110s-64.3-110-124.8-110Z" fill="#e0a756" fill-rule="evenodd"/><path d="m1261.2,1305.3l-464.5,4.5c-41.3.3-74.4,34-74.1,75.3.3,41.3,34,74.4,75.3,74.1l464.5-4.5c41.3-.3,74.4-34,74.1-75.3-.4-41.2-34.1-74.4-75.3-74.1Z" fill="#fbc5b5" fill-rule="evenodd"/><path d="m1261.2,1305.3l-464.5,4.5c-41.3.3-74.4,34-74.1,75.3.3,37,27.4,67.5,62.7,73.2-7.7-11.6-12.2-25.6-12.3-40.5-.3-41.3,32.9-75,74.1-75.3l464.5-4.5c4.3,0,8.5.3,12.6,1-13.5-20.5-36.8-33.9-63-33.7Z" fill="#fde1d9" fill-rule="evenodd"/><path d="m972.4,1308.1l-175.7,1.7c-41.3.3-74.4,34-74.1,75.3.3,41.3,34,74.4,75.3,74.1l175.7-1.7c41.3-.3,74.4-34,74.1-75.3-.3-41.2-34-74.4-75.3-74.1Z" fill="#f26767" fill-rule="evenodd"/><path d="m779.7,1362.7h-21.4c-103.8,0-188.7,84.9-188.7,188.7v188.6h398.7v-188.7c.1-103.7-84.8-188.6-188.6-188.6Z" fill="#f26767" fill-rule="evenodd"/><path d="m737,1362.7c-92,0-167.3,75.3-167.3,167.3v167.3h80v-167.3c0-89.3,71-162.9,159.3-167.1-2.6-.1-5.3-.2-8-.2h-64Z" fill="#cd5959" fill-rule="evenodd"/><path d="m740.6,1354.6c-33.2-24.6-80-17.6-104.6,15.5l-166.4,225.3c-24.6,33.2-17.6,80,15.5,104.6,33.2,24.6,80,17.6,104.6-15.5l166.4-225.3c24.6-33.2,17.7-80-15.5-104.6Z" fill="#cd5959" fill-rule="evenodd"/><circle cx="914.1" cy="1235.7" r="75.7" fill="#785454"/><path d="m799.7,1140h0c-71.5,0-130,58.5-130,130v40c0,71.5,58.5,130,130,130h0c71.5,0,130-58.5,130-130v-40c0-71.5-58.5-130-130-130Z" fill="#fbc5b5" fill-rule="evenodd"/><path d="m733.1,1301v-40c0-54.1,33.5-100.7,80.7-120.2-4.6-.5-9.3-.8-14.1-.8h0c-71.5,0-130,58.5-130,130v40c0,71.5,58.5,130,130,130h0c17.4,0,34.1-3.5,49.3-9.8-64.9-7.1-115.9-62.5-115.9-129.2Z" fill="#e96472" fill-rule="evenodd"/><path d="m791.7,1268.7h0c-4.4,0-8,3.6-8,8v11.7c0,4.4,3.6,8,8,8h0c4.4,0,8-3.6,8-8v-11.7c0-4.4-3.6-8-8-8Z" fill="#785454" fill-rule="evenodd"/><path d="m864.8,1268.7h0c-4.4,0-8,3.6-8,8v11.7c0,4.4,3.6,8,8,8h0c4.4,0,8-3.6,8-8v-11.7c0-4.4-3.6-8-8-8Z" fill="#785454" fill-rule="evenodd"/><circle cx="799.1" cy="1182" r="83" fill="#785454"/><circle cx="895.1" cy="1145.4" r="65.4" fill="#785454"/><circle cx="733.8" cy="1104.1" r="64.1" fill="#785454"/><circle cx="825.7" cy="1095.9" r="64.1" fill="#785454"/><circle cx="645.7" cy="1164.1" r="64.1" fill="#785454"/><circle cx="925.7" cy="1195.9" r="64.1" fill="#785454"/><path d="m801.3,1378.7c0,16.2,13.2,29.4,29.4,29.4s29.4-13.2,29.4-29.4v-53.8h-58.9v53.8h.1Z" fill="#785454" fill-rule="evenodd"/><path d="m812.3,1358.1c-3.8,0-7.5.4-11,1.2v19.4c0,16.2,13.2,29.4,29.4,29.4,12.5,0,23.2-7.9,27.5-18.9-7.2-18.2-25-31.1-45.9-31.1Z" fill="#f26767" fill-rule="evenodd"/><rect x="801.3" y="1324.9" width="58.9" height="15" fill="#fff"/><circle cx="708" cy="1309" r="40.8" fill="#fbc5b5"/><circle cx="692.7" cy="1217" r="83" fill="#785454"/><circle cx="664.3" cy="1294.6" r="65.4" fill="#785454"/><circle cx="613.8" cy="1255.9" r="64.1" fill="#785454"/><path d="m805.6,1620c-4.2,0-8.2.7-12,2.1l-160.7-121.5c-7.3-5.5-17.8-4.1-23.3,3.3-5.5,7.3-4.1,17.8,3.3,23.3l158.1,119.5c-.8,2.9-1.2,6-1.2,9.2,0,19.8,16.1,35.9,35.9,35.9s35.9-16.1,35.9-35.9c-.2-19.8-16.2-35.9-36-35.9Z" fill="#fff" fill-rule="evenodd"/><path d="m968.9,1654.3h-224c-7.1,0-12.9,5.8-12.9,12.8h0c0,7.1,5.8,12.9,12.9,12.9h224c7.1,0,12.9-5.8,12.9-12.9h0c0-7-5.8-12.8-12.9-12.8Z" fill="#edb971" fill-rule="evenodd"/><path d="m988.9,1680h-284.9c-9.7,0-17.6,7.9-17.6,17.6h0c0,9.7,7.9,17.6,17.6,17.6h284.9c9.7,0,17.6-7.9,17.6-17.6h0c0-9.7-7.9-17.6-17.6-17.6Z" fill="#ccc" fill-rule="evenodd"/><path d="m1014.4,1666.2h-335.9c-7.4,0-13.4,6-13.4,13.4s6,13.4,13.4,13.4h335.9c7.4,0,13.4-6,13.4-13.4s-6-13.4-13.4-13.4Z" fill="#fff" fill-rule="evenodd"/><path d="m649.7,1565h-120c-41.4,0-75,33.6-75,75s33.6,75,75,75h120c41.4,0,75-33.6,75-75s-33.6-75-75-75Z" fill="#fbc5b5" fill-rule="evenodd"/><path d="m596.8,1565h-67.1c-41.4,0-75,33.6-75,75s33.6,75,75,75h67.1c-41.4,0-75-33.6-75-75s33.6-75,75-75Z" fill="#e96472" fill-rule="evenodd"/><circle cx="684.6" cy="1615.6" r="86.9" fill="#fbc5b5"/><path d="m1148.7,1367l-100,100c-29.3,29.3-29.3,76.8,0,106.1,29.3,29.3,76.8,29.3,106.1,0l100-100c29.3-29.3,29.3-76.8,0-106.1-29.3-29.3-76.8-29.3-106.1,0Z" fill="#7ea5a6" fill-rule="evenodd"/><path d="m1341.8,1340c-110,0-200,90-200,200v200h400v-200c0-110-90-200-200-200Z" fill="#7ea5a6" fill-rule="evenodd"/><path d="m1528.5,1366.6c-18.4-36.9-63.3-51.8-100.2-33.4-36.9,18.4-51.8,63.3-33.4,100.2l120,240c18.4,36.9,63.3,51.8,100.2,33.4,36.9-18.4,51.8-63.3,33.4-100.2l-120-240Z" fill="#a1bdba" fill-rule="evenodd"/><ellipse cx="1340" cy="1402.8" rx="86.5" ry="71" fill="#e96472"/><path d="m1341.8,1120h0c-75.4,0-137.1,61.7-137.1,137.1v45.7c0,5.7.4,11.2,1,16.7-12.4,10-18.7,26.5-15.3,45.2,5.5,30.5,34.6,55.3,65.2,55.3,4.5,0,8.7-.5,12.7-1.5,21.3,13.6,46.5,21.5,73.6,21.5h0c75.4,0,137.1-61.7,137.1-137.1v-45.7c-.1-75.5-61.8-137.2-137.2-137.2Z" fill="#fbc5b5" fill-rule="evenodd"/><path d="m1391,1426.8c-27,0-52.3-7.9-73.6-21.5-4,1-8.2,1.5-12.7,1.5-30.5,0-59.7-24.7-65.2-55.3-3.3-18.7,3-35.1,15.3-45.2-.7-5.5-1-11.1-1-16.7v-45.7c0-54.2,31.9-101.3,77.8-123.5-70.7,5.2-127,64.7-127,136.8v45.7c0,5.7.4,11.2,1,16.7-12.4,10-18.7,26.5-15.3,45.2,5.5,30.5,34.6,55.3,65.2,55.3,4.5,0,8.7-.5,12.7-1.5,21.3,13.6,46.5,21.5,73.6,21.5h0c21.2,0,41.4-4.9,59.4-13.6-3.4.1-6.8.3-10.2.3h0Z" fill="#e96472" fill-rule="evenodd"/><ellipse cx="1331.4" cy="1170.5" rx="125.6" ry="90.5" fill="#785454"/><path d="m1205.6,1158.8c-6.4-31,9.6-58.3,39.3-74.6-48.6,11.5-78.5,45.8-70.1,86.3,10.3,50,74.8,90.5,144.2,90.5,26.4,0,49.6-5.9,67.8-15.8-11.4,2.7-23.7,4.2-36.9,4.2-69.5-.1-134-40.6-144.3-90.6Z" fill="#785454" fill-rule="evenodd"/><path d="m1416.4,1203.2c-17.1,0-31.2,14-31.2,31.2v14.6c0,17.1,14,31.2,31.2,31.2s31.2-14,31.2-31.2v-14.6c-.1-17.1-14.1-31.2-31.2-31.2Z" fill="#785454" fill-rule="evenodd"/><path d="m1342.1,1275c-3.2-1.3-6.6-2-10-2-5.9,0-11.4,2-15.9,5.4s-7.8,8.3-9.4,14c-1.2,4.4,1.5,9,5.9,10.2s9-1.5,10.2-5.9c.6-2.1,1.8-3.8,3.4-5s3.6-2,5.8-2c1.3,0,2.5.2,3.7.7,1.1.4,2.1,1.1,3,2.1,3.3,3.3,8.5,3.3,11.8,0s3.3-8.5,0-11.8c-2.4-2.4-5.3-4.3-8.5-5.7Z" fill="#785454" fill-rule="evenodd"/><path d="m1264.9,1278.4c-4.4-3.4-10-5.4-15.9-5.4-3.4,0-6.8.7-10,2s-6.1,3.2-8.5,5.6c-3.3,3.3-3.3,8.5,0,11.8s8.5,3.3,11.8,0c.9-.9,2-1.6,3-2.1,1.1-.5,2.4-.7,3.7-.7,2.2,0,4.2.7,5.8,2,1.6,1.2,2.8,3,3.4,5,1.2,4.4,5.7,7.1,10.2,5.9,4.4-1.2,7.1-5.7,5.9-10.2-1.5-5.6-4.9-10.4-9.4-13.9Z" fill="#785454" fill-rule="evenodd"/><path d="m1331.2,1349.8c2.2-.6,3.5-2.9,2.9-5.1s-2.9-3.5-5.1-2.9c-4.5,1.2-8.2,3.8-10.9,7.3-2.4,3.1-3.9,6.9-4.2,10.9-1,3.3-2.9,6.1-5.5,8.1-2.7,2.1-6,3.3-9.6,3.3s-6.9-1.2-9.6-3.3c-2.7-2.1-4.7-5-5.6-8.4-.1-.5-.3-.9-.6-1.3-.5-3.4-1.9-6.6-4-9.3-2.7-3.5-6.5-6.1-10.9-7.3-2.2-.6-4.5.7-5.1,2.9-.6,2.2.7,4.5,2.9,5.1,2.6.7,4.9,2.3,6.5,4.3,1.6,2.1,2.5,4.6,2.5,7.4s-.9,5.3-2.5,7.4-3.8,3.6-6.5,4.3c-2.2.6-3.5,2.9-2.9,5.1s2.9,3.5,5.1,2.9c4.5-1.2,8.2-3.8,10.9-7.3.6-.8,1.2-1.6,1.6-2.5,1.1,1.2,2.2,2.3,3.5,3.3,4.1,3.1,9.2,5,14.7,5s10.5-1.8,14.6-5c1.2-.9,2.2-1.9,3.2-3,.4.7.9,1.5,1.4,2.1,2.7,3.5,6.5,6.1,10.9,7.3,2.2.6,4.5-.7,5.1-2.9.6-2.2-.7-4.5-2.9-5.1-2.6-.7-4.9-2.3-6.4-4.3-1.6-2.1-2.5-4.6-2.5-7.4s.9-5.3,2.5-7.4c1.6-2,3.8-3.5,6.5-4.2Z" fill="#785454" fill-rule="evenodd"/><path d="m1390.9,1221.7c0,43.2,35.1,78.3,78.3,78.3,3.2,0,6.3-.2,9.3-.6v-155.4c-3.1-.4-6.2-.6-9.3-.6-43.2,0-78.3,35.1-78.3,78.3Z" fill="#785454" fill-rule="evenodd"/><circle cx="1473.3" cy="1291.5" r="48.5" fill="#fbc5b5"/><circle cx="1473.3" cy="1291.5" r="18.4" fill="#e96472"/><path d="m1305.9,1380c-19.8,0-35.9,16.1-35.9,35.9,0,4.2.7,8.2,2.1,12l-121.5,160.7c-5.5,7.3-4.1,17.8,3.3,23.3,7.3,5.5,17.8,4.1,23.3-3.3l119.5-158.1c2.9.8,6,1.2,9.2,1.2,19.8,0,35.9-16.1,35.9-35.9s-16.1-35.8-35.9-35.8Z" fill="#fff" fill-rule="evenodd"/><path d="m1201.8,1445h-100c-41.4,0-75,33.6-75,75s33.6,75,75,75h100c41.4,0,75-33.6,75-75s-33.6-75-75-75Z" fill="#fbc5b5" fill-rule="evenodd"/><path d="m1090.6,1499c0-21.2,8.8-40.3,22.9-54h-11.8c-41.4,0-75,33.6-75,75s33.6,75,75,75h100c20.2,0,38.6-8,52.1-21h-88.2c-41.4,0-75-33.6-75-75Z" fill="#e96472" fill-rule="evenodd"/><circle cx="1243.4" cy="1501.6" r="81.6" fill="#fbc5b5"/><path d="m1590.8,1565.6l-160-20c-41.1-5-78.5,24.2-83.5,65.3-5,41.1,24.2,78.5,65.3,83.5l160,20c41.1,5,78.5-24.2,83.5-65.3,5.1-41.1-24.2-78.5-65.3-83.5Z" fill="#fbc5b5" fill-rule="evenodd"/><path d="m1477.7,1659.4c-41.1-5-70.3-42.4-65.3-83.5,1.4-11.4,5.3-21.8,11-30.9-38.1-.9-71.3,27.3-76,65.9-5,41.1,24.2,78.5,65.3,83.5l160,20c29.7,3.6,57.5-10.7,72.5-34.4-2.5-.1-5-.2-7.5-.5l-160-20.1Z" fill="#e96472" fill-rule="evenodd"/><path d="m1437.9,1645.8c-3.7,0-7.2,1.1-10.1,3-3.1-5.3-8.8-8.8-15.3-8.8-1.4,0-2.7.2-4,.5-2.5-2.2-5.7-3.5-9.2-3.5-5.6,0-10.5,3.4-12.7,8.2-.3-.4-.5-.7-.8-1.1,2.7-2.5,4.5-6.2,4.5-10.2,0-7.7-6.2-13.9-13.9-13.9s-13.8,6.1-13.9,13.7c-1.9-.9-3.9-1.4-6.1-1.4-7.7,0-13.9,6.2-13.9,13.9v.1c-2.4-4.1-6.9-6.9-12-6.9-.6,0-1.2,0-1.8.1-.4-7.3-6.5-13-13.8-13-6.2,0-11.4,4-13.2,9.6-2.5-2.8-6.2-4.5-10.2-4.5-4.8,0-9,2.4-11.5,6-2.3-4.5-7-7.6-12.4-7.6-7.7,0-13.9,6.2-13.9,13.9,0,2,.4,4,1.2,5.7-2.4-2-5.5-3.2-8.9-3.2-4.1,0-7.8,1.8-10.4,4.7-2.1-1.4-4.7-2.1-7.4-2.1-2.5,0-4.9.7-6.9,1.9-2-1.2-4.4-1.9-6.9-1.9-3.4,0-6.5,1.2-9,3.3-2.5-3.3-6.5-5.4-11-5.4-7.7,0-13.9,6.2-13.9,13.9,0,2.4.6,4.6,1.7,6.6h274.1c.1-.9.2-1.8.2-2.7.1-10.5-8.3-18.9-18.6-18.9Z" fill="#ccc" fill-rule="evenodd"/><path d="m1461.1,1680h-284.9c-9.7,0-17.6,7.9-17.6,17.6h0c0,9.7,7.9,17.6,17.6,17.6h284.9c9.7,0,17.6-7.9,17.6-17.6h0c0-9.7-7.9-17.6-17.6-17.6Z" fill="#ccc" fill-rule="evenodd"/><path d="m1486.6,1666.2h-335.9c-7.4,0-13.4,6-13.4,13.4s6,13.4,13.4,13.4h335.9c7.4,0,13.4-6,13.4-13.4s-6-13.4-13.4-13.4Z" fill="#fff" fill-rule="evenodd"/><path d="m1334.9,1616.6c-11,0-14.7,9-8.2,20s20.7,20,31.8,20,14.7-9,8.2-20c-6.5-11.1-20.7-20-31.8-20Z" fill="#53ba65" fill-rule="evenodd"/><path d="m1433.5,1633.8c-5.6,0-12.9,4.6-16.2,10.2-3.3,5.6-1.4,10.2,4.2,10.2s12.9-4.6,16.2-10.2c3.3-5.7,1.4-10.2-4.2-10.2Z" fill="#53ba65" fill-rule="evenodd"/><path d="m1827.6,1280c-104.5,0-190,85.5-190,190v245.2h380v-245.2c0-104.5-85.5-190-190-190Z" fill="#e79762" fill-rule="evenodd"/><path d="m1688.6,1295.9l-190.6,52c-39.8,10.8-63.3,51.9-52.4,91.7,10.8,39.8,51.9,63.3,91.7,52.4l190.6-52c39.8-10.8,63.3-51.9,52.4-91.7s-51.9-63.2-91.7-52.4Z" fill="#e79762" fill-rule="evenodd"/><ellipse cx="1835.1" cy="1374.1" rx="82.5" ry="60.6" fill="#e96472"/><path d="m1882.3,1078.7c-73.7-19.7-150.1,24.4-169.8,98.1l-11,41.2c-19.7,73.7,24.4,150.1,98.1,169.8,73.7,19.7,150.1-24.4,169.8-98.1l11-41.2c19.7-73.6-24.5-150.1-98.1-169.8Z" fill="#fbc5b5" fill-rule="evenodd"/><path d="m1712.4,1176.7l-11,41.2c-19.7,73.7,24.4,150.1,98.1,169.8,9.1,2.4,18.2,3.9,27.3,4.5-45.2-32.8-68-91.3-52.8-148.3l11-41.2c17.3-64.6,78.2-106.4,142.5-102.5-13.3-9.7-28.5-17.1-45.3-21.6-73.6-19.6-150,24.5-169.8,98.1Z" fill="#e96472" fill-rule="evenodd"/><path d="m1879.6,1218.3c-3.3,5.4-6,11.3-7.7,17.8-9.4,35.2,11.5,71.4,46.7,80.9s71.4-11.5,80.9-46.7c1.7-6.4,2.4-12.9,2.2-19.3l-122.1-32.7Z" fill="#785454" fill-rule="evenodd"/><path d="m1941.8,1081.3l-112.4-30.1c-42.7-11.5-87.1,14.2-98.6,56.9l-20.8,77.7,267.9,71.8,20.8-77.7c11.5-42.8-14.1-87.2-56.9-98.6Z" fill="#e79762" fill-rule="evenodd"/><path d="m1832.1,1121.5l-46.4-12.4c-17.6-4.7-36,5.8-40.7,23.5l-8.6,32.1,110.6,29.6,8.6-32.1c4.7-17.7-5.9-36-23.5-40.7Z" fill="#785454" fill-rule="evenodd"/><path d="m2046.3,1247.6l-126-33.8c-7.2-1.9-14.8,2.4-16.7,9.6-1.9,7.3,2.4,14.8,9.6,16.7l126,33.8c7.3,1.9,14.8-2.4,16.7-9.7,2-7.1-2.3-14.6-9.6-16.6Z" fill="#e79762" fill-rule="evenodd"/><path d="m1799.1,1157.1c-4.2.9-8.4,1.3-12.6,1.4-15-1.1-29-9.8-36.4-24.1-9.5-18.4-5.1-40.3,9.5-53.6-3.8.8-7.5,2.2-11.1,4-10.2,5.3-17.5,14-21.3,23.9-3.5-20.1,3.4-40.9,18.5-54.7-5.1,1.1-10.1,2.9-15,5.4-29.5,15.3-41,51.6-25.7,81.1s51.6,41,81.1,25.7c.7-.3,1.3-.7,1.9-1,.5-.3,1.1-.5,1.6-.8,3.6-1.9,6.8-4.2,9.7-6.8l-1,.2.8-.7Z" fill="#785454" fill-rule="evenodd"/><circle cx="1891.5" cy="1288.4" r="38.3" fill="#fbc5b5"/><path d="m1977.5,1426.5c-41.3,0-74.7,33.4-74.7,74.7l-.2,192.7c0,41.3,33.4,74.7,74.7,74.7s74.7-33.4,74.7-74.7l.2-192.7c0-41.3-33.4-74.7-74.7-74.7Z" fill="#fbc5b5" fill-rule="evenodd"/><path d="m2002.9,1430.9c-7.9-2.9-16.4-4.4-25.3-4.4-41.3,0-74.7,33.4-74.7,74.7l-.2,192.7c0,41.3,33.4,74.7,74.7,74.7,8.9,0,17.4-1.6,25.3-4.4-28.8-10.4-49.4-37.9-49.4-70.3l.2-192.7c0-32.4,20.6-59.9,49.4-70.3Z" fill="#e96472" fill-rule="evenodd"/><path d="m1977.6,1306.5c-41.3,0-74.7,33.4-74.7,74.7l-.1,120c0,41.3,33.4,74.7,74.7,74.7s74.7-33.4,74.7-74.7l.1-120c0-41.3-33.4-74.7-74.7-74.7Z" fill="#e79762" fill-rule="evenodd"/><path d="m1997.7,1309.2c-6.4-1.8-13.1-2.7-20-2.7-41.3,0-74.7,33.4-74.7,74.7l-.1,120c0,41.3,33.4,74.7,74.7,74.7,6.9,0,13.7-1,20-2.7-31.5-8.8-54.7-37.7-54.7-72l.1-120c0-34.3,23.1-63.2,54.7-72Z" fill="#ce9066" fill-rule="evenodd"/><circle cx="1792.7" cy="1239" r="10.5" fill="#785454"/><circle cx="1724.3" cy="1215.9" r="10.5" fill="#785454"/><path d="m1734.1,1217.6l-139-38.4c-11.6-3.2-23.6,3.6-26.8,15.2l-19.7,71.1c-3.2,11.6,3.6,23.6,15.2,26.8l139,38.4c11.6,3.2,23.6-3.6,26.8-15.2l19.7-71.1c3.2-11.6-3.7-23.6-15.2-26.8Z" fill="#34679a" fill-rule="evenodd"/><path d="m1746.9,1219.6h0c-4.7-1.3-9.7,1.5-11,6.2l-26.9,97.3c-1.3,4.7,1.5,9.7,6.2,11s9.7-1.5,11-6.2l26.9-97.3c1.3-4.7-1.5-9.7-6.2-11Z" fill="#fff" fill-rule="evenodd"/><path d="m1582.9,1175c-4.7-1.3-9.7,1.5-11,6.2l-26.9,97.3c-1.3,4.7,1.5,9.7,6.2,11h0c4.7,1.3,9.7-1.5,11-6.2l26.9-97.3c1.3-4.7-1.5-9.7-6.2-11Z" fill="#fff" fill-rule="evenodd"/><circle cx="1645.82" cy="1252.85" r="29.6" fill="#f26767"/><path d="m1657.3,1225.6c.6,4,.4,8.2-.7,12.4-4.4,15.7-20.6,25-36.4,20.6-1.2-.3-2.5-.8-3.6-1.3.5,3.3,1.6,6.4,3.1,9.3,2,1.1,4.1,2,6.4,2.6,15.7,4.4,32-4.9,36.4-20.6,2.1-7.6,1-15.3-2.4-21.7-.9-.5-1.9-.9-2.8-1.3Z" fill="#fff" fill-rule="evenodd"/><path d="m1559.6,1176c-48.8,0-76.3,36.8-85,80.7l-30.2,148.6c-8.1,40.5,18.1,79.8,58.6,87.9s79.8-18.1,87.9-58.6l23.5-115.6c16.7-15,27.3-36.8,27.3-61.1-.1-45.2-36.8-81.9-82.1-81.9Z" fill="#fbc5b5" fill-rule="evenodd"/><path d="m1540.1,1254.8c6.6-32.9,24.8-61.5,56-70.3-11-5.5-23.4-8.6-36.6-8.6-48.8,0-76.3,36.8-85,80.7l-30.2,148.6c-8.1,40.5,18.1,79.8,58.6,87.9,26.9,5.4,53.2-4.4,70.3-23.4-2.5-.2-5-.6-7.4-1.1-36.6-7.3-60.3-42.9-53-79.5l27.3-134.3Z" fill="#e96472" fill-rule="evenodd"/><path d="m2311.6,1076.6c-94,0-170.2,58.3-170.2,202.4s76.2,260.9,170.2,260.9,170.2-116.8,170.2-260.9-76.2-202.4-170.2-202.4Z" fill="#785454" fill-rule="evenodd"/><path d="m2329.3,1410.2h0c-66.6,0-121.1,54.5-121.1,121.1v183.9h242.2v-183.9c0-66.6-54.5-121.1-121.1-121.1Z" fill="#f499c1" fill-rule="evenodd"/><path d="m2365.1,1482.6c-34.5,23-43.8,69.5-20.8,104l80,120c2,3.1,4.3,5.9,6.6,8.6h19.4v-183.9c0-19.7-4.8-38.4-13.2-54.8-22.6-10.1-49.8-8.7-72,6.1Z" fill="#ec7fb3" fill-rule="evenodd"/><path d="m2199.3,1418.5l-145.4,100c-34,23.5-42.5,70-19,104s70,42.5,104,19l145.4-100c34-23.5,42.5-70,19-104s-70.1-42.5-104-19Z" fill="#f499c1" fill-rule="evenodd"/><path d="m2295.4,1340c-25.5,0-46.4,20.9-46.4,46.4v27.2c0,25.5,20.9,46.4,46.4,46.4s46.4-20.9,46.4-46.4v-27.2c0-25.5-20.9-46.4-46.4-46.4Z" fill="#e96472" fill-rule="evenodd"/><path d="m2316,1344.9c-22,3.6-39,22.8-39,45.8v27.2c0,18.1,10.5,33.9,25.7,41.5,22-3.6,39-22.8,39-45.8v-27.2c.1-18.1-10.5-33.9-25.7-41.5Z" fill="#fbc5b5" fill-rule="evenodd"/><path d="m2267.8,1140h-12.1c-62.7,0-114,51.3-114,114v32.1c0,62.7,51.3,114,114,114h12.1c62.7,0,114-51.3,114-114v-32.1c-.1-62.7-51.3-114-114-114Z" fill="#fbc5b5" fill-rule="evenodd"/><path d="m2179.3,1280.6v-32.1c0-35.3,16.2-66.9,41.6-87.9,6.5-7.5,13.9-14.3,22.1-19.9-56.7,6.4-101.2,54.9-101.2,113.2v32.1c0,62.7,51.3,114,114,114h12.1c12.1,0,23.8-1.9,34.8-5.5h-9.4c-62.8,0-114-51.3-114-113.9Z" fill="#e96472" fill-rule="evenodd"/><path d="m2311.2,1080c-46.8,0-72.4,57.1-57.1,127.6,15.3,70.5,65.6,127.6,112.4,127.6s72.4-57.1,57.1-127.6-65.6-127.6-112.4-127.6Z" fill="#785454" fill-rule="evenodd"/><path d="m2205.8,1085.4c-40.2,0-69,14.9-88.4,75.4s-2.7,109.5,37.5,109.5,88.5-49,107.9-109.5c19.4-60.4-16.9-75.4-57-75.4Z" fill="#785454" fill-rule="evenodd"/><path d="m2444.2,1418.4c-23-34.5-69.5-43.8-104-20.8s-43.8,69.5-20.8,104l80,120c23,34.5,69.5,43.8,104,20.8s43.8-69.5,20.8-104l-80-120Z" fill="#f499c1" fill-rule="evenodd"/><path d="m2508.5,1526.2c-35.6-21-81.5-9.2-102.5,26.4l-88.6,149.3c-7.1,12-10.4,25.1-10.4,38.1h161.9l66-111.2c21-35.6,9.2-81.5-26.4-102.6Z" fill="#fbc5b5" fill-rule="evenodd"/><path d="m2214.7,1532.3c-4.1-.7-8.2-.7-12.2,0l-137.4-147.3c-6.3-6.7-16.8-7.1-23.5-.8-6.7,6.3-7.1,16.8-.8,23.5l135.2,144.9c-1.3,2.8-2.2,5.7-2.8,8.9-3.4,19.5,9.7,38.1,29.2,41.5s38.1-9.7,41.5-29.2-9.7-38.1-29.2-41.5Z" fill="#fff" fill-rule="evenodd"/><path d="m2118.9,1405.8c-32,0-54.3,21.2-75.5,42.4l-74.7,74.7c-29.3,29.3-29.3,76.8,0,106.1,29.3,29.3,76.8,29.3,106.1,0l74.7-74.7c.3-.3.6-.6.9-.9,26.9-12,45.7-39,45.7-70.4-.1-42.7-34.7-77.2-77.2-77.2Z" fill="#fbc5b5" fill-rule="evenodd"/><path d="m2070.7,1599.8c-.7,4.6-1,9.2-1,14,0,52,42.1,94.1,94.1,94.1s94.1-42.1,94.1-94.1c0-4.8-.4-9.4-1-14h-186.2Z" fill="#fff" fill-rule="evenodd"/><path d="m2245.1,1693.3h-162.5c-6,0-10.9,4.9-10.9,10.9s4.9,10.9,10.9,10.9h162.5c6,0,10.9-4.9,10.9-10.9s-4.9-10.9-10.9-10.9Z" fill="#e6e6e5" fill-rule="evenodd"/><path d="m2118.9,1405.8c-32,0-54.3,21.2-75.5,42.4l-74.7,74.7c-29.3,29.3-29.3,76.8,0,106.1,24.1,24.1,60.4,28.3,88.8,12.9-13.3-1.6-26.2-7.5-36.4-17.7-24.2-24.2-24.2-63.4,0-87.5l61.7-61.6c17.5-17.5,35.9-35,62.3-35,19.2,0,36.4,8.5,48.1,21.9-9.3-32.5-39-56.2-74.3-56.2Z" fill="#e96472" fill-rule="evenodd"/><path d="m2405.9,1552.6l-88.6,149.3c-7.1,12-10.4,25.1-10.4,38.1h65.6c-12.2-22.4-12.6-50.4,1.3-73.9l88.6-149.3c.1-.2.2-.4.3-.6-22.8,2.4-44.2,15.1-56.8,36.4Z" fill="#e96472" fill-rule="evenodd"/><path d="m2182.3,1275.3c-4.8,0-9.3,1.6-12.9,4.4-3.6,2.8-6.4,6.7-7.6,11.4-.9,3.3,1.1,6.8,4.4,7.6,3.3.9,6.8-1.1,7.6-4.4.5-1.9,1.6-3.6,3.1-4.7s3.4-1.8,5.4-1.8c2.4,0,4.6,1,6.2,2.6,1.6,1.6,2.6,3.8,2.6,6.2,0,3.5,2.8,6.3,6.3,6.3s6.3-2.8,6.3-6.3c0-5.9-2.4-11.2-6.2-15.1-4-3.8-9.3-6.2-15.2-6.2Z" fill="#785454" fill-rule="evenodd"/><path d="m2242.6,1275.3c-4.8,0-9.3,1.6-12.9,4.4-3.6,2.8-6.4,6.7-7.6,11.4-.9,3.3,1.1,6.8,4.4,7.6,3.3.9,6.8-1.1,7.6-4.4.5-1.9,1.6-3.6,3.1-4.7s3.4-1.8,5.4-1.8c2.4,0,4.6,1,6.2,2.6,1.6,1.6,2.6,3.8,2.6,6.2,0,3.5,2.8,6.3,6.3,6.3s6.3-2.8,6.3-6.3c0-5.9-2.4-11.2-6.2-15.1-4-3.8-9.3-6.2-15.2-6.2Z" fill="#785454" fill-rule="evenodd"/><path d="m2279.5,1338.9c-3.3-.9-6.7,1.2-7.6,4.5-.5,1.9-1.6,3.6-3.1,4.7-1.5,1.2-3.4,1.8-5.4,1.8-.8,0-1.6-.1-2.3-.3-.8-.2-1.5-.5-2.1-.9-3-1.7-6.8-.7-8.5,2.3s-.7,6.8,2.3,8.5c1.6.9,3.4,1.7,5.1,2.1,1.8.5,3.7.7,5.5.7,4.8,0,9.4-1.6,13-4.5,3.6-2.8,6.4-6.8,7.6-11.5.8-3.2-1.2-6.5-4.5-7.4Z" fill="#785454" fill-rule="evenodd"/><path d="m2570,1715.2H430c-16.5,0-30,13.5-30,30s13.5,30,30,30h2140c16.5,0,30-13.5,30-30s-13.5-30-30-30Z" fill="#e0a756" fill-rule="evenodd"/><path d="m2255.4,1715.2H744.6c-16.5,0-30,13.5-30,30s13.5,30,30,30h1510.7c16.5,0,30-13.5,30-30s-13.4-30-29.9-30Z" fill="#edb971" fill-rule="evenodd"/><rect x="474.7" y="1775.2" width="2050.5" height="224.8" fill="#cad5c6"/><polygon points="808.6 260 751.4 260 751.4 308.8 658.9 401.3 901.1 401.3 808.6 308.8 808.6 260" fill="#b6bab4" fill-rule="evenodd"/><polygon points="1528.6 260 1471.4 260 1471.4 308.8 1378.9 401.3 1621.1 401.3 1528.6 308.8 1528.6 260" fill="#b6bab4" fill-rule="evenodd"/><polygon points="2248.6 260 2191.4 260 2191.4 308.8 2098.9 401.3 2341.1 401.3 2248.6 308.8 2248.6 260" fill="#b6bab4" fill-rule="evenodd"/></svg>