<?xml version="1.0" encoding="UTF-8"?><svg id="a" xmlns="http://www.w3.org/2000/svg" viewBox="0 0 3000 2000"><rect width="3000" height="2000" fill="#c2d5d1"/><rect width="3000" height="360" fill="#a1bdba"/><rect x="1080" y="240" width="846.9" height="515.1" fill="#9ab3af"/><rect x="2000" y="240" width="846.9" height="515.1" fill="#9ab3af"/><circle cx="1200" cy="500" r="20" fill="#e6e6e5"/><circle cx="2140" cy="500" r="20" fill="#e6e6e5"/><path d="m2064.4,435.9c-8.5,0-16.2,2.5-22.4,6.7,3.3-.8,6.7-1.3,10.3-1.3,23.9,0,45.5,19.4,48.3,43.3,1.8,15.4-4.7,28.9-16,36.6,18.3-4.7,30.4-21.7,28.1-42.1-2.7-23.8-24.3-43.2-48.3-43.2Z" fill="#785454" fill-rule="evenodd"/><circle cx="2054.3" cy="474.7" r="43.3" fill="#785454"/><circle cx="1874.6" cy="556.1" r="103" fill="#785454"/><path d="m2066.1,617.2c-9.5-19.2-32.8-27-52-17.4-19.2,9.5-27,32.8-17.4,52l81.4,163c9.5,19.2,32.8,27,52,17.4,19.2-9.5,27-32.8,17.4-52l-81.4-163Z" fill="#fff" fill-rule="evenodd"/><circle cx="2131" cy="788.9" r="63.5" fill="#fff"/><path d="m2293.9,768.7l-141.4-17.2c-21.3-2.5-40.5,12.7-43.1,34-2.5,21.3,12.7,40.5,34,43.1l141.4,17.2c21.3,2.5,40.5-12.7,43.1-34,2.5-21.3-12.7-40.6-34-43.1Z" fill="#fabdac" fill-rule="evenodd"/><path d="m1887.9,603.6c-17.1-12.8-41.3-9.3-54.1,7.7l-116.6,155.4c-12.8,17.1-9.3,41.3,7.7,54.1,17.1,12.8,41.3,9.3,54.1-7.7l116.6-155.4c12.8-17.1,9.4-41.3-7.7-54.1Z" fill="#fff" fill-rule="evenodd"/><circle cx="1750" cy="779.1" r="63.5" fill="#fff"/><path d="m1948.3,576.5c-55.9,0-101.7,57.8-101.7,128.5v220.2c0,70.7,45.8,128.5,101.7,128.5s101.7-57.8,101.7-128.5v-220.2c-.1-70.6-45.8-128.5-101.7-128.5Z" fill="#fff" fill-rule="evenodd"/><path d="m2021.8,695.6h-146.7c-21,0-38.2,17.2-38.2,38.2v313.1c0,21,17.2,38.2,38.2,38.2h146.7c21,0,38.2-17.2,38.2-38.2v-313.1c-.1-21.1-17.2-38.2-38.2-38.2Z" fill="#9cc" fill-rule="evenodd"/><path d="m1980.1,504.3c-24.3-6.5-49.5,8-56,32.4l-20.3,75.8c-6.5,24.3,8,49.5,32.4,56,24.3,6.5,49.5-8,56-32.4l20.3-75.8c6.5-24.3-8.1-49.5-32.4-56Z" fill="#fabdac" fill-rule="evenodd"/><path d="m1905,564.7h-17.7c-7.8,0-14.2,6.4-14.2,14.2v162c0,7.8,6.4,14.2,14.2,14.2h17.7c7.8,0,14.2-6.4,14.2-14.2v-162c0-7.8-6.4-14.2-14.2-14.2Z" fill="#8bb6b6" fill-rule="evenodd"/><path d="m2013.5,564.7h-17.7c-7.8,0-14.2,6.4-14.2,14.2v162c0,7.8,6.4,14.2,14.2,14.2h17.7c7.8,0,14.2-6.4,14.2-14.2v-162c0-7.8-6.4-14.2-14.2-14.2Z" fill="#8bb6b6" fill-rule="evenodd"/><path d="m2075.4,462.7c-1.6-55-48-98.8-103-97.2-55,1.6-98.8,48-97.2,103l1.3,45.5c1.6,55,48,98.8,103,97.2s98.8-48,97.2-103l-1.3-45.5Z" fill="#fabdac" fill-rule="evenodd"/><circle cx="2025.1" cy="550.9" r="8.5" fill="#f18485"/><circle cx="2024.2" cy="557.8" r="5.3" fill="#f18485"/><path d="m1874.9,457.7c-17.3-2.2-31.2,10.1-31.2,27.3s14,33,31.2,35.1c17.3,2.2,31.2-10.1,31.2-27.3.1-17.2-13.9-32.9-31.2-35.1Z" fill="#fabdac" fill-rule="evenodd"/><path d="m1874.9,474.7c-7.9-1-14.2,4.6-14.2,12.5s6.4,15,14.2,16c7.9,1,14.2-4.6,14.2-12.5.1-7.8-6.3-15-14.2-16Z" fill="#eba994" fill-rule="evenodd"/><circle cx="1933.8" cy="412.1" r="78.9" fill="#785454"/><path d="m2075.4,462.7c-1.6-55-48-98.8-103-97.2-4.9.1-9.7.6-14.4,1.5,45.7,8.1,81.3,47.6,82.8,95.7l1.3,45.5c1.5,50.2-34.7,93.1-82.8,101.5,6.6,1.2,13.3,1.7,20.3,1.5,55-1.6,98.8-48,97.2-103l-1.4-45.5Z" fill="#eba994" fill-rule="evenodd"/><path d="m1990.3,300h-115.1v171.5h200.8v-85.8c0-47.1-38.6-85.7-85.7-85.7Z" fill="#9cc" fill-rule="evenodd"/><path d="m1893.6,440.8h-34.3c-8.5,0-15.4,6.9-15.4,15.4s6.9,15.4,15.4,15.4h34.3c8.5,0,15.4-6.9,15.4-15.4-.1-8.5-7-15.4-15.4-15.4Z" fill="#9cc" fill-rule="evenodd"/><path d="m1675.2,634.5h-76.5c-3.9,11.9-2,25.5,6.3,36.1l99.9,126.9c13.2,16.8,37.6,19.7,54.4,6.5s19.7-37.6,6.5-54.4l-90.6-115.1Z" fill="#eba994" fill-rule="evenodd"/><path d="m1675.2,634.5h-55.4c1.4,4.5,3.6,8.9,6.7,12.9l99.9,126.9c11.1,14.1,30,18.4,45.7,11.7,4-12,2.1-25.6-6.3-36.3l-90.6-115.2Z" fill="#fabdac" fill-rule="evenodd"/><path d="m1581.2,634.5c-4.3,7.8-6.8,16.8-6.8,26.4,0,30.3,24.5,54.8,54.8,54.8s54.8-24.5,54.8-54.8c0-9.6-2.5-18.6-6.8-26.4h-96Z" fill="#fabdac" fill-rule="evenodd"/><circle cx="1896.2" cy="702.2" r="11.7" fill="#fff"/><circle cx="2004.7" cy="702.2" r="11.7" fill="#fff"/><path d="m1889.1,880.7c-.2,1.9-.3,3.9-.3,5.9,0,32.9,26.7,59.6,59.6,59.6s59.6-26.7,59.6-59.6c0-2-.1-4-.3-5.9h-118.6Z" fill="#8bb6b6" fill-rule="evenodd"/><path d="m2269.6,720.4c-2.2-5.5-8.4-8.2-14-6-5.5,2.2-8.2,8.4-6,14l91.5,229.6c2.2,5.5,8.4,8.2,14,6,5.5-2.2,8.2-8.4,6-14l-91.5-229.6Z" fill="#676767" fill-rule="evenodd"/><path d="m2344.6,924.7c-14.8,0-21.1,22.7-14.2,50.6,6.9,28,24.5,50.6,39.2,50.6s21.1-22.7,14.2-50.6c-6.8-27.9-24.4-50.6-39.2-50.6Z" fill="#676767" fill-rule="evenodd"/><path d="m2316.6,786.6c-2.5,21.3-21.8,36.5-43.1,34l-141.4-17.2c-9-1.1-16.9-5.1-22.9-11.1,1.1,18.4,15.2,34,34.2,36.2l141.4,17.2c21.3,2.5,40.5-12.7,43.1-34,1.4-12.3-3-23.9-11.1-32,.1,2.3,0,4.6-.2,6.9Z" fill="#eba994" fill-rule="evenodd"/><circle cx="2297.6" cy="807.9" r="46.6" fill="#fabdac"/><path d="m2009.6,493.6h0c-2.5-1.5-5.4-2.3-8.4-2.3-2.2,0-4.4.4-6.4,1.3-2,.8-3.9,2.1-5.5,3.6-1.9,1.9-1.9,5,0,6.9s5,1.9,6.9,0c.7-.7,1.5-1.2,2.3-1.5s1.8-.5,2.7-.5c1.3,0,2.5.3,3.5.9,1.1.6,2,1.5,2.6,2.6,1.3,2.3,4.3,3.1,6.6,1.8,2.3-1.3,3.1-4.3,1.8-6.6-1.4-2.7-3.6-4.8-6.1-6.2Z" fill="#785454" fill-rule="evenodd"/><path d="m2055.1,492.6c-2-.8-4.2-1.3-6.4-1.3-3,0-5.9.8-8.4,2.3h0c-2.5,1.4-4.6,3.5-6.1,6.1-1.3,2.3-.5,5.3,1.8,6.6,2.3,1.3,5.3.6,6.6-1.8.6-1.1,1.5-2,2.6-2.6,1-.6,2.3-.9,3.5-.9,1,0,1.9.2,2.7.5s1.6.9,2.3,1.5c1.9,1.9,5,1.9,6.9,0s1.9-5,0-6.9c-1.6-1.4-3.5-2.7-5.5-3.5Z" fill="#785454" fill-rule="evenodd"/><ellipse cx="1959.7" cy="531.9" rx="31.1" ry="16.2" fill="#fbc5b5"/><path d="m2009.1,1074.1h-355.4c-4.1,0-7.5,3.4-7.5,7.5s3.4,7.5,7.5,7.5h355.4c4.1,0,7.5-3.4,7.5-7.5s-3.4-7.5-7.5-7.5Z" fill="#fff" fill-rule="evenodd"/><path d="m1743.9,627.1h-229.5c-5.8,0-10.5,4.7-10.5,10.5h0c0,5.8,4.7,10.5,10.5,10.5h229.5c5.8,0,10.5-4.7,10.5-10.5h0c0-5.8-4.7-10.5-10.5-10.5Z" fill="#e6e6e5" fill-rule="evenodd"/><path d="m1761.8,615.9h-265.2c-5.8,0-10.5,4.7-10.5,10.5h0c0,5.8,4.7,10.5,10.5,10.5h265.2c5.8,0,10.5-4.7,10.5-10.5h0c0-5.8-4.8-10.5-10.5-10.5Z" fill="#fff" fill-rule="evenodd"/><rect y="914" width="2189" height="861.6" fill="#7ea5a6"/><rect y="1146.8" width="2189" height="46.6" fill="#8db8b8"/><path d="m312.8,1010.9H108.9c-5.1,0-9.3,4.2-9.3,9.3h0c0,5.1,4.2,9.3,9.3,9.3h203.8c5.1,0,9.3-4.2,9.3-9.3h0c0-5.1-4.1-9.3-9.2-9.3Z" fill="#e6e6e5" fill-rule="evenodd"/><path d="m181.7,1010.9h-72.8c-5.1,0-9.3,4.2-9.3,9.3h0c0,5.1,4.2,9.3,9.3,9.3h72.8c5.1,0,9.3-4.2,9.3-9.3h0c0-5.1-4.2-9.3-9.3-9.3Z" fill="#ccc" fill-rule="evenodd"/><path d="m328.6,1000.9H93.1c-5.1,0-9.3,4.2-9.3,9.3s4.2,9.3,9.3,9.3h235.5c5.1,0,9.3-4.2,9.3-9.3s-4.2-9.3-9.3-9.3Z" fill="#fff" fill-rule="evenodd"/><path d="m312.8,1034.4H108.9c-5.1,0-9.3,4.2-9.3,9.3s4.2,9.3,9.3,9.3h203.8c5.1,0,9.3-4.2,9.3-9.3s-4.1-9.3-9.2-9.3Z" fill="#e6e6e5" fill-rule="evenodd"/><path d="m181.7,1034.4h-72.8c-5.1,0-9.3,4.2-9.3,9.3s4.2,9.3,9.3,9.3h72.8c5.1,0,9.3-4.2,9.3-9.3s-4.2-9.3-9.3-9.3Z" fill="#ccc" fill-rule="evenodd"/><path d="m328.6,1024.4H93.1c-5.1,0-9.3,4.2-9.3,9.3h0c0,5.1,4.2,9.3,9.3,9.3h235.5c5.1,0,9.3-4.2,9.3-9.3h0c0-5.1-4.2-9.3-9.3-9.3Z" fill="#fff" fill-rule="evenodd"/><path d="m312.8,1057.8H108.9c-5.1,0-9.3,4.2-9.3,9.3h0c0,5.1,4.2,9.3,9.3,9.3h203.8c5.1,0,9.3-4.2,9.3-9.3h0c0-5.1-4.1-9.3-9.2-9.3Z" fill="#e6e6e5" fill-rule="evenodd"/><path d="m181.7,1057.8h-72.8c-5.1,0-9.3,4.2-9.3,9.3h0c0,5.1,4.2,9.3,9.3,9.3h72.8c5.1,0,9.3-4.2,9.3-9.3h0c0-5.1-4.2-9.3-9.3-9.3Z" fill="#ccc" fill-rule="evenodd"/><path d="m328.6,1047.9H93.1c-5.1,0-9.3,4.2-9.3,9.3h0c0,5.1,4.2,9.3,9.3,9.3h235.5c5.1,0,9.3-4.2,9.3-9.3h0c0-5.1-4.2-9.3-9.3-9.3Z" fill="#fff" fill-rule="evenodd"/><path d="m312.8,1081.3H108.9c-5.1,0-9.3,4.2-9.3,9.3h0c0,5.1,4.2,9.3,9.3,9.3h203.8c5.1,0,9.3-4.2,9.3-9.3h0c0-5.1-4.1-9.3-9.2-9.3Z" fill="#e6e6e5" fill-rule="evenodd"/><path d="m181.7,1081.3h-72.8c-5.1,0-9.3,4.2-9.3,9.3h0c0,5.1,4.2,9.3,9.3,9.3h72.8c5.1,0,9.3-4.2,9.3-9.3h0c0-5.1-4.2-9.3-9.3-9.3Z" fill="#ccc" fill-rule="evenodd"/><path d="m328.6,1071.4H93.1c-5.1,0-9.3,4.2-9.3,9.3s4.2,9.3,9.3,9.3h235.5c5.1,0,9.3-4.2,9.3-9.3s-4.2-9.3-9.3-9.3Z" fill="#fff" fill-rule="evenodd"/><path d="m312.8,1104.8H108.9c-5.1,0-9.3,4.2-9.3,9.3s4.2,9.3,9.3,9.3h203.8c5.1,0,9.3-4.2,9.3-9.3s-4.1-9.3-9.2-9.3Z" fill="#e6e6e5" fill-rule="evenodd"/><path d="m181.7,1104.8h-72.8c-5.1,0-9.3,4.2-9.3,9.3s4.2,9.3,9.3,9.3h72.8c5.1,0,9.3-4.2,9.3-9.3s-4.2-9.3-9.3-9.3Z" fill="#ccc" fill-rule="evenodd"/><path d="m328.6,1094.8H93.1c-5.1,0-9.3,4.2-9.3,9.3h0c0,5.1,4.2,9.3,9.3,9.3h235.5c5.1,0,9.3-4.2,9.3-9.3h0c0-5.1-4.2-9.3-9.3-9.3Z" fill="#fff" fill-rule="evenodd"/><path d="m312.8,1128.3H108.9c-5.1,0-9.3,4.2-9.3,9.3h0c0,5.1,4.2,9.3,9.3,9.3h203.8c5.1,0,9.3-4.2,9.3-9.3h0c0-5.2-4.1-9.3-9.2-9.3Z" fill="#e6e6e5" fill-rule="evenodd"/><path d="m181.7,1128.3h-72.8c-5.1,0-9.3,4.2-9.3,9.3h0c0,5.1,4.2,9.3,9.3,9.3h72.8c5.1,0,9.3-4.2,9.3-9.3h0c0-5.2-4.2-9.3-9.3-9.3Z" fill="#ccc" fill-rule="evenodd"/><path d="m328.6,1118.3H93.1c-5.1,0-9.3,4.2-9.3,9.3s4.2,9.3,9.3,9.3h235.5c5.1,0,9.3-4.2,9.3-9.3s-4.2-9.3-9.3-9.3Z" fill="#fff" fill-rule="evenodd"/><path d="m602.3,1010.9h-203.8c-5.1,0-9.3,4.2-9.3,9.3h0c0,5.1,4.2,9.3,9.3,9.3h203.8c5.1,0,9.3-4.2,9.3-9.3h0c0-5.1-4.1-9.3-9.3-9.3Z" fill="#e6e6e5" fill-rule="evenodd"/><path d="m471.3,1010.9h-72.8c-5.1,0-9.3,4.2-9.3,9.3h0c0,5.1,4.2,9.3,9.3,9.3h72.8c5.1,0,9.3-4.2,9.3-9.3h0c0-5.1-4.2-9.3-9.3-9.3Z" fill="#ccc" fill-rule="evenodd"/><path d="m618.2,1000.9h-235.5c-5.1,0-9.3,4.2-9.3,9.3s4.2,9.3,9.3,9.3h235.5c5.1,0,9.3-4.2,9.3-9.3s-4.2-9.3-9.3-9.3Z" fill="#fff" fill-rule="evenodd"/><path d="m602.3,1034.4h-203.8c-5.1,0-9.3,4.2-9.3,9.3s4.2,9.3,9.3,9.3h203.8c5.1,0,9.3-4.2,9.3-9.3s-4.1-9.3-9.3-9.3Z" fill="#e6e6e5" fill-rule="evenodd"/><path d="m471.3,1034.4h-72.8c-5.1,0-9.3,4.2-9.3,9.3s4.2,9.3,9.3,9.3h72.8c5.1,0,9.3-4.2,9.3-9.3,0-5.2-4.2-9.3-9.3-9.3Z" fill="#ccc" fill-rule="evenodd"/><path d="m618.2,1024.4h-235.5c-5.1,0-9.3,4.2-9.3,9.3h0c0,5.1,4.2,9.3,9.3,9.3h235.5c5.1,0,9.3-4.2,9.3-9.3h0c0-5.1-4.2-9.3-9.3-9.3Z" fill="#fff" fill-rule="evenodd"/><path d="m602.3,1057.8h-203.8c-5.1,0-9.3,4.2-9.3,9.3h0c0,5.1,4.2,9.3,9.3,9.3h203.8c5.1,0,9.3-4.2,9.3-9.3h0c0-5.1-4.1-9.3-9.3-9.3Z" fill="#e6e6e5" fill-rule="evenodd"/><path d="m471.3,1057.8h-72.8c-5.1,0-9.3,4.2-9.3,9.3h0c0,5.1,4.2,9.3,9.3,9.3h72.8c5.1,0,9.3-4.2,9.3-9.3h0c0-5.1-4.2-9.3-9.3-9.3Z" fill="#ccc" fill-rule="evenodd"/><path d="m618.2,1047.9h-235.5c-5.1,0-9.3,4.2-9.3,9.3h0c0,5.1,4.2,9.3,9.3,9.3h235.5c5.1,0,9.3-4.2,9.3-9.3h0c0-5.1-4.2-9.3-9.3-9.3Z" fill="#fff" fill-rule="evenodd"/><path d="m602.3,1081.3h-203.8c-5.1,0-9.3,4.2-9.3,9.3h0c0,5.1,4.2,9.3,9.3,9.3h203.8c5.1,0,9.3-4.2,9.3-9.3h0c0-5.1-4.1-9.3-9.3-9.3Z" fill="#e6e6e5" fill-rule="evenodd"/><path d="m471.3,1081.3h-72.8c-5.1,0-9.3,4.2-9.3,9.3h0c0,5.1,4.2,9.3,9.3,9.3h72.8c5.1,0,9.3-4.2,9.3-9.3h0c0-5.1-4.2-9.3-9.3-9.3Z" fill="#ccc" fill-rule="evenodd"/><path d="m618.2,1071.4h-235.5c-5.1,0-9.3,4.2-9.3,9.3s4.2,9.3,9.3,9.3h235.5c5.1,0,9.3-4.2,9.3-9.3s-4.2-9.3-9.3-9.3Z" fill="#fff" fill-rule="evenodd"/><path d="m602.3,1104.8h-203.8c-5.1,0-9.3,4.2-9.3,9.3s4.2,9.3,9.3,9.3h203.8c5.1,0,9.3-4.2,9.3-9.3s-4.1-9.3-9.3-9.3Z" fill="#e6e6e5" fill-rule="evenodd"/><path d="m471.3,1104.8h-72.8c-5.1,0-9.3,4.2-9.3,9.3s4.2,9.3,9.3,9.3h72.8c5.1,0,9.3-4.2,9.3-9.3s-4.2-9.3-9.3-9.3Z" fill="#ccc" fill-rule="evenodd"/><path d="m618.2,1094.8h-235.5c-5.1,0-9.3,4.2-9.3,9.3h0c0,5.1,4.2,9.3,9.3,9.3h235.5c5.1,0,9.3-4.2,9.3-9.3h0c0-5.1-4.2-9.3-9.3-9.3Z" fill="#fff" fill-rule="evenodd"/><path d="m602.3,1128.3h-203.8c-5.1,0-9.3,4.2-9.3,9.3h0c0,5.1,4.2,9.3,9.3,9.3h203.8c5.1,0,9.3-4.2,9.3-9.3h0c0-5.2-4.1-9.3-9.3-9.3Z" fill="#e6e6e5" fill-rule="evenodd"/><path d="m471.3,1128.3h-72.8c-5.1,0-9.3,4.2-9.3,9.3h0c0,5.1,4.2,9.3,9.3,9.3h72.8c5.1,0,9.3-4.2,9.3-9.3h0c0-5.2-4.2-9.3-9.3-9.3Z" fill="#ccc" fill-rule="evenodd"/><path d="m618.2,1118.3h-235.5c-5.1,0-9.3,4.2-9.3,9.3s4.2,9.3,9.3,9.3h235.5c5.1,0,9.3-4.2,9.3-9.3s-4.2-9.3-9.3-9.3Z" fill="#fff" fill-rule="evenodd"/><path d="m2578.5,967.3h-290.5c-12.8,0-23.3,10.5-23.3,23.3v296c0,12.8,10.5,23.3,23.3,23.3h290.5c12.8,0,23.3-10.5,23.3-23.3v-296c0-12.8-10.5-23.3-23.3-23.3Z" fill="#e6e6e5" fill-rule="evenodd"/><rect x="2296.6" y="967.3" width="63.7" height="342.6" fill="#fff"/><path d="m2578.5,967.3h-73.6v342.6h73.6c12.8,0,23.3-10.5,23.3-23.3v-296c0-12.8-10.5-23.3-23.3-23.3Z" fill="#ccc" fill-rule="evenodd"/><path d="m2602.2,957.2h-337.9c-8.3,0-15,6.8-15,15h0c0,8.3,6.8,15,15,15h337.9c8.3,0,15-6.8,15-15h0c0-8.2-6.7-15-15-15Z" fill="#e6e6e5" fill-rule="evenodd"/><path d="m2493.5,957.2h-204.2c-8.3,0-15,6.8-15,15h0c0,8.3,6.8,15,15,15h204.2c8.3,0,15-6.8,15-15h0c0-8.2-6.7-15-15-15Z" fill="#f1f0f0" fill-rule="evenodd"/><path d="m2632.4,1007.1h-48.9c-5.8,0-10.5,4.7-10.5,10.5s4.7,10.5,10.5,10.5h48.9c5.8,0,10.5-4.7,10.5-10.5-.1-5.8-4.8-10.5-10.5-10.5Z" fill="#ccc" fill-rule="evenodd"/><path d="m2283.1,1007.1h-48.9c-5.8,0-10.5,4.7-10.5,10.5s4.7,10.5,10.5,10.5h48.9c5.8,0,10.5-4.7,10.5-10.5-.1-5.8-4.8-10.5-10.5-10.5Z" fill="#e6e6e5" fill-rule="evenodd"/><path d="m46.8,841.2c0,40,32.7,72.8,72.8,72.8h727.2c40,0,72.8-32.7,72.8-72.8v-113.5H46.8v113.5Z" fill="#e6e6e5" fill-rule="evenodd"/><path d="m861.9,355.1H104.5c-31.7,0-57.7,26-57.7,57.7v314.9h872.8v-314.9c0-31.8-26-57.7-57.7-57.7Z" fill="#d2e3df" fill-rule="evenodd"/><path d="m793.3,841.2c0,40-32.7,72.8-72.8,72.8h126.3c40,0,72.8-32.7,72.8-72.8v-113.5h-126.3v113.5Z" fill="#ccc" fill-rule="evenodd"/><path d="m140,841.2v-113.5H46.8v113.5c0,40,32.7,72.8,72.8,72.8h93.1c-40,0-72.7-32.8-72.7-72.8Z" fill="#fff" fill-rule="evenodd"/><path d="m855.8,498.6H110.6c-6.4,0-11.6,5.2-11.6,11.6s5.2,11.6,11.6,11.6h745.2c6.4,0,11.6-5.2,11.6-11.6,0-6.3-5.2-11.6-11.6-11.6Z" fill="#c2d5d1" fill-rule="evenodd"/><path d="m855.8,665.4H110.6c-6.4,0-11.6,5.2-11.6,11.6s5.2,11.6,11.6,11.6h745.2c6.4,0,11.6-5.2,11.6-11.6,0-6.3-5.2-11.6-11.6-11.6Z" fill="#c2d5d1" fill-rule="evenodd"/><path d="m763.2,1005.3h-56.5c-6.6,0-11.9,5.4-11.9,11.9v117.7c0,6.6,5.4,11.9,11.9,11.9h56.5c6.6,0,11.9-5.4,11.9-11.9v-117.7c0-6.5-5.3-11.9-11.9-11.9Z" fill="#e6e6e5" fill-rule="evenodd"/><path d="m1264.9,1120.8c0,14.3,11.7,26,26,26h299.7c14.3,0,26-11.7,26-26v-46.7h-351.7v46.7h0Z" fill="#e6e6e5" fill-rule="evenodd"/><path d="m1655.5,1120.8c0,14.3,11.7,26,26,26h299.7c14.3,0,26-11.7,26-26v-46.7h-351.7v46.7Z" fill="#e6e6e5" fill-rule="evenodd"/><path d="m1618.4,1074.1h-355.4c-4.1,0-7.5,3.4-7.5,7.5s3.4,7.5,7.5,7.5h355.4c4.1,0,7.5-3.4,7.5-7.5.1-4.1-3.3-7.5-7.5-7.5Z" fill="#fff" fill-rule="evenodd"/><path d="m1164.3,1051.6c-14.8,0-27.4,9.4-32.2,22.5-5.8-4.5-13.1-7.2-20.9-7.2-2.9,0-5.7.4-8.3,1-3.1-15.7-17-27.6-33.6-27.6-14.2,0-26.5,8.7-31.6,21.1-2.4-.6-5-.8-7.6-.8-3,0-5.9.4-8.7,1.1-5.1-12.5-17.4-21.4-31.7-21.4s-25.3,7.9-30.9,19.4c-6.1-5.5-14.1-8.8-22.9-8.8-18.9,0-34.2,15.3-34.2,34.2,0,2.7.3,5.3.9,7.8h295.3c.5-2.3.8-4.7.8-7.2-.1-18.7-15.5-34.1-34.4-34.1Z" fill="#53ba65" fill-rule="evenodd"/><path d="m317.5,593.7h-92.8c-7.6,0-13.9,6.2-13.9,13.9v13.5c0,7.6,6.2,13.9,13.9,13.9h92.8c7.6,0,13.9-6.2,13.9-13.9v-13.5c0-7.7-6.3-13.9-13.9-13.9Z" fill="#c8a874" fill-rule="evenodd"/><ellipse cx="418.74" cy="597.11" rx="5.6" ry="13.1" transform="translate(-242.48 289.43) rotate(-30.01)" fill="#339967"/><circle cx="430" cy="621.1" r="24" fill="#f68c46"/><ellipse cx="478.81" cy="604.03" rx="13.1" ry="5.6" transform="translate(-283.7 716.67) rotate(-60)" fill="#339967"/><circle cx="467.6" cy="628" r="24" fill="#f68c46"/><ellipse cx="507.62" cy="600.95" rx="13.1" ry="5.6" transform="translate(-138.37 1049.85) rotate(-84.61)" fill="#339967"/><circle cx="507.39" cy="627.43" r="24" transform="translate(-148.31 157.15) rotate(-15.39)" fill="#f68c46"/><ellipse cx="560.01" cy="606.6" rx="13.1" ry="5.6" transform="translate(-246.42 429.86) rotate(-34.92)" fill="#339967"/><circle cx="539.72" cy="623.52" r="24" fill="#f68c46"/><path d="m544.5,647.7h-131.8c-4.9,0-8.9,4-8.9,8.9h0c0,4.9,4,8.9,8.9,8.9h131.9c4.9,0,8.9-4,8.9-8.9h0c-.1-4.9-4.1-8.9-9-8.9Z" fill="#e6e6e5" fill-rule="evenodd"/><path d="m561.2,635h-165.1c-4.9,0-8.9,4-8.9,8.9s4,8.9,8.9,8.9h165.1c4.9,0,8.9-4,8.9-8.9-.1-5-4-8.9-8.9-8.9Z" fill="#fff" fill-rule="evenodd"/><path d="m337,647.7h-131.8c-4.9,0-8.9,4-8.9,8.9h0c0,4.9,4,8.9,8.9,8.9h131.8c4.9,0,8.9-4,8.9-8.9h0c0-4.9-4-8.9-8.9-8.9Z" fill="#e6e6e5" fill-rule="evenodd"/><path d="m353.6,635h-165.1c-4.9,0-8.9,4-8.9,8.9s4,8.9,8.9,8.9h165.1c4.9,0,8.9-4,8.9-8.9s-4-8.9-8.9-8.9Z" fill="#fff" fill-rule="evenodd"/><circle cx="633.8" cy="632.9" r="11.8" fill="#9696ca"/><circle cx="655.3" cy="630.2" r="11.8" fill="#9696ca"/><circle cx="678.6" cy="634.6" r="11.8" fill="#9696ca"/><circle cx="696.6" cy="633.1" r="11.8" fill="#9696ca"/><circle cx="714.4" cy="626.2" r="11.8" fill="#9696ca"/><circle cx="733.2" cy="634.9" r="11.8" fill="#9696ca"/><circle cx="756.8" cy="632.8" r="11.8" fill="#9696ca"/><path d="m761.2,647.7h-131.8c-4.9,0-8.9,4-8.9,8.9h0c0,4.9,4,8.9,8.9,8.9h131.9c4.9,0,8.9-4,8.9-8.9h0c-.1-4.9-4.1-8.9-9-8.9Z" fill="#e6e6e5" fill-rule="evenodd"/><path d="m777.8,635h-165.1c-4.9,0-8.9,4-8.9,8.9s4,8.9,8.9,8.9h165.1c4.9,0,8.9-4,8.9-8.9,0-5-4-8.9-8.9-8.9Z" fill="#fff" fill-rule="evenodd"/><path d="m544.5,482.9h-131.8c-4.9,0-8.9,4-8.9,8.9s4,8.9,8.9,8.9h131.9c4.9,0,8.9-4,8.9-8.9-.1-4.9-4.1-8.9-9-8.9Z" fill="#e6e6e5" fill-rule="evenodd"/><path d="m561.2,470.1h-165.1c-4.9,0-8.9,4-8.9,8.9s4,8.9,8.9,8.9h165.1c4.9,0,8.9-4,8.9-8.9-.1-4.9-4-8.9-8.9-8.9Z" fill="#fff" fill-rule="evenodd"/><path d="m337,482.9h-131.8c-4.9,0-8.9,4-8.9,8.9s4,8.9,8.9,8.9h131.8c4.9,0,8.9-4,8.9-8.9s-4-8.9-8.9-8.9Z" fill="#e6e6e5" fill-rule="evenodd"/><path d="m353.6,470.1h-165.1c-4.9,0-8.9,4-8.9,8.9s4,8.9,8.9,8.9h165.1c4.9,0,8.9-4,8.9-8.9s-4-8.9-8.9-8.9Z" fill="#fff" fill-rule="evenodd"/><path d="m761.2,482.9h-131.8c-4.9,0-8.9,4-8.9,8.9s4,8.9,8.9,8.9h131.9c4.9,0,8.9-4,8.9-8.9-.1-4.9-4.1-8.9-9-8.9Z" fill="#e6e6e5" fill-rule="evenodd"/><path d="m777.8,470.1h-165.1c-4.9,0-8.9,4-8.9,8.9s4,8.9,8.9,8.9h165.1c4.9,0,8.9-4,8.9-8.9,0-4.9-4-8.9-8.9-8.9Z" fill="#fff" fill-rule="evenodd"/><path d="m330.5,435h-16.2c-9.7,0-17.6,7.9-17.6,17.6,0-9.7-7.9-17.6-17.6-17.6h-16.1c-9.7,0-17.6,7.9-17.6,17.6,0-9.7-7.9-17.6-17.6-17.6h-16.2c-9.7,0-17.6,7.9-17.6,17.6v17.6h154.2v-17.6c-.1-9.7-8-17.6-17.7-17.6Z" fill="#e79762" fill-rule="evenodd"/><polygon points="410.1 470.1 475.5 470.1 429.3 413.2 410.1 470.1" fill="#c8a874" fill-rule="evenodd"/><polygon points="445.9 470.1 511.3 470.1 465.1 413.2 445.9 470.1" fill="#c8a874" fill-rule="evenodd"/><polygon points="481.7 470.1 547.1 470.1 500.9 413.2 481.7 470.1" fill="#c8a874" fill-rule="evenodd"/><path d="m874.2,1120.8c0,14.3,11.7,26,26,26h299.7c14.3,0,26-11.7,26-26v-46.7h-351.7v46.7Z" fill="#e6e6e5" fill-rule="evenodd"/><path d="m1227.8,1074.1h-355.4c-4.1,0-7.5,3.4-7.5,7.5s3.4,7.5,7.5,7.5h355.4c4.1,0,7.5-3.4,7.5-7.5s-3.4-7.5-7.5-7.5Z" fill="#fff" fill-rule="evenodd"/><circle cx="550.1" cy="1289.8" r="52" fill="#eba994"/><path d="m404.3,1054.1c-24.2,0-46.2,9.9-62.2,25.9s-25.9,38-25.9,62.2c0,6.1,5,11.1,11.1,11.1s11.1-5,11.1-11.1c0-18.1,7.4-34.6,19.4-46.5,12-12,28.4-19.4,46.6-19.4s34.6,7.4,46.5,19.4c12,12,19.4,28.4,19.4,46.5,0,6.1,5,11.1,11.1,11.1s11.1-5,11.1-11.1c0-24.2-9.9-46.2-25.9-62.2-16-15.9-38-25.9-62.3-25.9Z" fill="#5d5a5a" fill-rule="evenodd"/><rect x="337.7" y="1588" width="57.1" height="170" fill="#fbc5b5"/><path d="m396.7,1672.6c-7,0-12.7,5.7-12.7,12.7v19.5c0,7,5.7,12.7,12.7,12.7s12.7-5.7,12.7-12.7v-19.5c0-7-5.7-12.7-12.7-12.7Z" fill="#989898" fill-rule="evenodd"/><path d="m424.7,1703.4h-95.2v56c0,8,6.5,14.5,14.5,14.5h101.4c8,0,14.5-6.5,14.5-14.5v-20.8c.1-19.4-15.8-35.2-35.2-35.2Z" fill="#676767" fill-rule="evenodd"/><path d="m343.7,1695.1h-3c-6.2,0-11.2,5-11.2,11.2s5,11.2,11.2,11.2h3c6.2,0,11.2-5,11.2-11.2,0-6.2-5-11.2-11.2-11.2Z" fill="#f26767" fill-rule="evenodd"/><path d="m458.8,1748.6h-128.1c-3.4,0-6.2,2.8-6.2,6.2v14.5c0,3.4,2.8,6.2,6.2,6.2h128.1c3.4,0,6.2-2.8,6.2-6.2v-14.5c0-3.4-2.8-6.2-6.2-6.2Z" fill="#fff" fill-rule="evenodd"/><rect x="319.6" y="1402" width="156.1" height="185.9" fill="#ccc"/><path d="m485.8,870.8h0c-49.4,0-89.9,40.4-89.9,89.9v51.4c0,49.4,40.4,89.9,89.9,89.9h0c49.4,0,89.9-40.4,89.9-89.9v-51.4c0-49.5-40.4-89.9-89.9-89.9Z" fill="#fbc5b5" fill-rule="evenodd"/><path d="m445.5,969.8c-27.2,0-49.5,22.3-49.5,49.5v73.8c0,27.2,22.3,49.5,49.5,49.5s49.5-22.3,49.5-49.5v-73.8c0-27.2-22.3-49.5-49.5-49.5Z" fill="#fbc5b5" fill-rule="evenodd"/><path d="m424.2,1070.3h0c-57.5,0-104.6,47.1-104.6,104.6v227.1h209.2v-227.1c0-57.5-47.1-104.6-104.6-104.6Z" fill="#f26767" fill-rule="evenodd"/><path d="m372.7,1402h-53.1c0,33,22.6,60.6,53.1,68.4v117.6h156.1v-186h-156.1Z" fill="#e6e6e5" fill-rule="evenodd"/><rect x="471.7" y="1588" width="57.1" height="170" fill="#fbc5b5"/><path d="m530.7,1672.6c-7,0-12.7,5.7-12.7,12.7v19.5c0,7,5.7,12.7,12.7,12.7s12.7-5.7,12.7-12.7v-19.5c0-7-5.7-12.7-12.7-12.7Z" fill="#989898" fill-rule="evenodd"/><path d="m558.7,1703.4h-95.2v56c0,8,6.5,14.5,14.5,14.5h101.4c8,0,14.5-6.5,14.5-14.5v-20.8c.1-19.4-15.8-35.2-35.2-35.2Z" fill="#676767" fill-rule="evenodd"/><path d="m477.7,1695.1h-3c-6.2,0-11.2,5-11.2,11.2s5,11.2,11.2,11.2h3c6.2,0,11.2-5,11.2-11.2,0-6.2-5-11.2-11.2-11.2Z" fill="#f26767" fill-rule="evenodd"/><path d="m592.8,1748.6h-128.1c-3.4,0-6.2,2.8-6.2,6.2v14.5c0,3.4,2.8,6.2,6.2,6.2h128.1c3.4,0,6.2-2.8,6.2-6.2v-14.5c0-3.4-2.8-6.2-6.2-6.2Z" fill="#fff" fill-rule="evenodd"/><path d="m451.1,1061.4c-24.2,0-46.2,9.9-62.2,25.9s-25.9,38-25.9,62.2c0,6.1,5,11.1,11.1,11.1s11.1-5,11.1-11.1c0-18.1,7.4-34.6,19.4-46.5,12-12,28.4-19.4,46.6-19.4s34.6,7.4,46.5,19.4c12,12,19.4,28.4,19.4,46.5,0,6.1,5,11.1,11.1,11.1s11.1-5,11.1-11.1c0-24.2-9.9-46.2-25.9-62.2-16-16-38.1-25.9-62.3-25.9Z" fill="#5d5a5a" fill-rule="evenodd"/><path d="m502.2,1092.1c-24.4,0-44.3,19.8-44.3,44.3v176.2c0,24.4,19.8,44.3,44.3,44.3s44.3-19.8,44.3-44.3v-176.2c0-24.4-19.8-44.3-44.3-44.3Z" fill="#f26767" fill-rule="evenodd"/><path d="m534.4,1263.6l-38.1,5.2c-24.2,3.2-41.1,25.5-37.9,49.6,3.2,24.2,25.5,41.1,49.6,37.9l38.1-5.2c24.2-3.2,41.1-25.5,37.9-49.6-3.2-24.2-25.4-41.1-49.6-37.9Z" fill="#eba994" fill-rule="evenodd"/><path d="m537.1,1263.3c-.9.1-1.8.2-2.7.3l-38.1,5.2c-24.2,3.2-41.1,25.5-37.9,49.6,1.6,11.6,7.4,21.5,15.8,28.3.9-.1,1.8-.2,2.7-.3l38.1-5.2c24.2-3.2,41.1-25.5,37.9-49.6-1.6-11.5-7.4-21.4-15.8-28.3Z" fill="#fbc5b5" fill-rule="evenodd"/><path d="m367.9,1097h-54.6c-38.9,0-70.7,31.8-70.7,70.7v163.6c0,38.9,31.8,70.7,70.7,70.7h54.6c38.9,0,70.7-31.8,70.7-70.7v-163.6c.1-38.9-31.8-70.7-70.7-70.7Z" fill="#676767" fill-rule="evenodd"/><path d="m367.9,1097h-32.5c38.9,0,70.7,31.8,70.7,70.7v163.6c0,38.9-31.8,70.7-70.7,70.7h32.5c38.9,0,70.7-31.8,70.7-70.7v-163.6c.1-38.9-31.8-70.7-70.7-70.7Z" fill="#5d5a5a" fill-rule="evenodd"/><path d="m426.3,1253.1h-16.1c-12.6,0-22.8,10.3-22.8,22.8v54.9c0,12.6,10.3,22.8,22.8,22.8h16.1c12.6,0,22.8-10.3,22.8-22.8v-54.8c0-12.6-10.3-22.9-22.8-22.9Z" fill="#5d5a5a" fill-rule="evenodd"/><path d="m350.4,1269.2h-104.4c-14.8,0-26.8,12.1-26.8,26.8v48.6c0,14.8,12.1,26.8,26.8,26.8h104.3c14.8,0,26.8-12.1,26.8-26.8v-48.6c.1-14.7-12-26.8-26.7-26.8Z" fill="#676767" fill-rule="evenodd"/><path d="m347.4,1269.2h-36.9c16.4,0,29.7,12.1,29.7,26.8v48.6c0,14.8-13.4,26.8-29.7,26.8h36.9c16.4,0,29.7-12.1,29.7-26.8v-48.6c.1-14.7-13.3-26.8-29.7-26.8Z" fill="#5d5a5a" fill-rule="evenodd"/><path d="m598.5,912.2c2.2-5.6,3.4-11.7,3.4-18.1,0-27.5-22.3-49.8-49.8-49.8-7,0-13.7,1.5-19.8,4.1-6.8-19.4-25.3-33.2-47-33.2-25.9,0-47.1,19.7-49.6,44.9-9.1-9.7-22-15.8-36.4-15.8-27.5,0-49.8,22.3-49.8,49.8,0,16.4,7.9,30.9,20.1,40-27,4.2-47.7,27.5-47.7,55.7,0,31.1,25.3,56.4,56.4,56.4,2.5,0,5-.2,7.4-.5,8.7,17.3,26.7,29.1,47.4,29.1s38.1-11.5,47-28.4c8.1,5,17.7,7.9,27.9,7.9,26.1,0,47.7-18.8,52.2-43.5,5.1,1.7,10.6,2.5,16.3,2.5,29.3,0,53.1-23.8,53.1-53.1-.2-21.2-12.9-39.6-31.1-48Z" fill="#785454" fill-rule="evenodd"/><rect x="908.6" y="1356.7" width="207.7" height="232.6" fill="#ccc"/><circle cx="953.6" cy="1420.7" r="79.8" transform="translate(-725.28 1090.41) rotate(-45)" fill="#ccc"/><path d="m1012.4,877.5h0c-49.1,0-89.2,40.1-89.2,89.2v51c0,49.1,40.1,89.2,89.2,89.2h0c49.1,0,89.2-40.1,89.2-89.2v-51c0-49.1-40.1-89.2-89.2-89.2Z" fill="#fbc5b5" fill-rule="evenodd"/><path d="m1033.6,975.8c-27,0-49.1,22.1-49.1,49.2v73.3c0,27,22.1,49.1,49.1,49.1s49.1-22.1,49.1-49.1v-73.3c0-27.1-22.1-49.2-49.1-49.2Z" fill="#fbc5b5" fill-rule="evenodd"/><path d="m1012.4,1075.5h0c-57.1,0-103.8,39.9-103.8,88.7v192.5h207.7v-192.5c0-48.8-46.8-88.7-103.9-88.7Z" fill="#f499c1" fill-rule="evenodd"/><path d="m1072.2,1164.2v192.5h44.1v-192.5c0-20.5-8.2-39.4-22-54.5-13.9,15.1-22.1,34-22.1,54.5Z" fill="#e57eb2" fill-rule="evenodd"/><path d="m1032.4,872.2c-47.8,0-81.6,44.8-75.5,100.1s49.8,100.1,97.6,100.1,81.6-44.8,75.5-100.1c-6.1-55.3-49.8-100.1-97.6-100.1Z" fill="#785454" fill-rule="evenodd"/><circle cx="982.5" cy="940.1" r="72.4" fill="#785454"/><circle cx="1113.1" cy="914.8" r="49.2" fill="#785454"/><path d="m876.5,1103.7l-102.8-86.5c-19.4-16.3-48.4-13.8-64.7,5.6-16.3,19.4-13.8,48.4,5.6,64.7l102.8,86.5c19.4,16.3,48.4,13.8,64.7-5.6,16.3-19.4,13.8-48.4-5.6-64.7Z" fill="#fbc5b5" fill-rule="evenodd"/><path d="m977.4,1098.5l-128.4-5.6c-25.4-1.1-46.8,18.6-47.9,44-1.1,25.4,18.6,46.8,44,47.9l128.4,5.6c25.4,1.1,46.8-18.6,47.9-44,1-25.3-18.6-46.8-44-47.9Z" fill="#f499c1" fill-rule="evenodd"/><path d="m1115,1104.7c-11.7-22.6-39.6-31.4-62.2-19.6s-31.4,39.6-19.6,62.2l67.4,129.2c11.7,22.6,39.6,31.4,62.2,19.6,22.6-11.7,31.4-39.6,19.6-62.2l-67.4-129.2Z" fill="#f499c1" fill-rule="evenodd"/><path d="m999.7,1304.7h-91.1c-24.2,0-43.9,19.8-43.9,43.9v41.9c0,24.2,19.8,43.9,43.9,43.9h91.1c24.2,0,43.9-19.8,43.9-43.9v-41.9c0-24.2-19.8-43.9-43.9-43.9Z" fill="#c8a874" fill-rule="evenodd"/><path d="m1173.9,1222.6c-18-17.9-47.1-17.8-65.1.2-17.9,18-17.8,47.1.2,65.1l72,71.4c18,17.9,47.1,17.8,65.1-.2s17.8-47.1-.2-65.1l-72-71.4Z" fill="#fbc5b5" fill-rule="evenodd"/><circle cx="753.4" cy="1041.3" r="58.5" fill="#fbc5b5"/><rect x="926.6" y="1589.3" width="76.5" height="168.7" fill="#fbc5b5"/><path d="m995.2,1723.6h-68.6v15.2c0,8.4,6.8,15.2,15.2,15.2h53.4c8.4,0,15.2-6.8,15.2-15.2s-6.9-15.2-15.2-15.2Z" fill="#fbc5b5" fill-rule="evenodd"/><path d="m1016.8,1737.2h-90.2v20c0,11,9,20,20,20h70.2c11,0,20-9,20-20s-8.9-20-20-20Z" fill="#f499c1" fill-rule="evenodd"/><rect x="1026.1" y="1589.3" width="76.5" height="168.7" fill="#fbc5b5"/><path d="m1094.7,1723.6h-68.6v15.2c0,8.4,6.8,15.2,15.2,15.2h53.4c8.4,0,15.2-6.8,15.2-15.2s-6.9-15.2-15.2-15.2Z" fill="#fbc5b5" fill-rule="evenodd"/><path d="m1116.4,1737.2h-90.2v20c0,11,9,20,20,20h70.2c11,0,20-9,20-20s-9-20-20-20Z" fill="#f499c1" fill-rule="evenodd"/><circle cx="1221.4" cy="1313.6" r="58.5" fill="#fbc5b5"/><path d="m1089.6,1062.7c-6.2-7.2-17.1-8-24.3-1.8-7.2,6.2-8,17.1-1.8,24.3,10.4,12,17.4,27.7,20.8,45.5,3.5,18.5,3,39.4-1.7,61-7.8,35.9-26.1,68.9-49.9,93.8-23.2,24.3-51.6,40.7-80.1,44.2-9.5,1.1-16.3,9.7-15.1,19.2,1.1,9.5,9.7,16.3,19.2,15.1,36.7-4.5,72.3-24.8,101-54.7,28.1-29.3,49.6-68.1,58.8-110.3,5.7-26.1,6.2-51.6,1.8-74.6-4.6-23.8-14.3-45-28.7-61.7Z" fill="#c8a874" fill-rule="evenodd"/><path d="m1518,1655.6c-8.1,0-14.8,6.7-14.8,14.8v22.7c0,8.2,6.7,14.8,14.8,14.8s14.8-6.7,14.8-14.8v-22.7c0-8.2-6.7-14.8-14.8-14.8Z" fill="#989898" fill-rule="evenodd"/><path d="m1550.6,1691.4h-110.9v65.3c0,9.3,7.6,16.9,16.9,16.9h118.2c9.3,0,16.9-7.6,16.9-16.9v-24.2c0-22.6-18.5-41.1-41.1-41.1Z" fill="#4a8181" fill-rule="evenodd"/><path d="m1456.2,1681.7h-3.5c-7.2,0-13.1,5.9-13.1,13.1s5.9,13.1,13.1,13.1h3.5c7.2,0,13.1-5.9,13.1-13.1,0-7.2-5.9-13.1-13.1-13.1Z" fill="#fff" fill-rule="evenodd"/><path d="m1590.4,1744.2h-149.4c-4,0-7.3,3.3-7.3,7.3v16.9c0,4,3.3,7.3,7.3,7.3h149.4c4,0,7.3-3.3,7.3-7.3v-16.9c-.1-4.1-3.3-7.3-7.3-7.3Z" fill="#fff" fill-rule="evenodd"/><path d="m1625.2,1655.6c-8.2,0-14.8,6.7-14.8,14.8v22.7c0,8.2,6.7,14.8,14.8,14.8s14.8-6.7,14.8-14.8v-22.7c0-8.2-6.7-14.8-14.8-14.8Z" fill="#989898" fill-rule="evenodd"/><path d="m1657.8,1691.4h-110.9v65.3c0,9.3,7.6,16.9,16.9,16.9h118.2c9.3,0,16.9-7.6,16.9-16.9v-24.2c0-22.6-18.5-41.1-41.1-41.1Z" fill="#548c8d" fill-rule="evenodd"/><path d="m1563.4,1681.7h-3.5c-7.2,0-13.1,5.9-13.1,13.1s5.9,13.1,13.1,13.1h3.5c7.2,0,13.1-5.9,13.1-13.1s-5.9-13.1-13.1-13.1Z" fill="#fff" fill-rule="evenodd"/><path d="m1697.6,1744.2h-149.4c-4,0-7.3,3.3-7.3,7.3v16.9c0,4,3.3,7.3,7.3,7.3h149.4c4,0,7.3-3.3,7.3-7.3v-16.9c0-4.1-3.3-7.3-7.3-7.3Z" fill="#fff" fill-rule="evenodd"/><path d="m1570.1,850.7h0c-54,0-98.2,44.2-98.2,98.2v24.6c0,54,44.2,98.2,98.2,98.2h0c54,0,98.2-44.2,98.2-98.2v-24.6c.1-54-44.1-98.2-98.2-98.2Z" fill="#fbc5b5" fill-rule="evenodd"/><path d="m1576.2,993.6h-31.9c-19.2,0-34.9,15.7-34.9,34.9v30.6c0,19.2,15.7,34.9,34.9,34.9h31.9c19.2,0,34.9-15.7,34.9-34.9v-30.6c0-19.2-15.7-34.9-34.9-34.9Z" fill="#fbc5b5" fill-rule="evenodd"/><path d="m1471.9,989.6c0,24.8,20.3,45,45,45h52.8c24.8,0,45-20.2,45-45v-45h-142.8v45Z" fill="#785454" fill-rule="evenodd"/><circle cx="1616.6" cy="964.2" r="29.7" fill="#eba994"/><path d="m1706,926.7h-107.1c-7.2,0-13.1,5.9-13.1,13.1s5.9,13.1,13.1,13.1h107.1c7.2,0,13.1-5.9,13.1-13.1s-5.9-13.1-13.1-13.1Z" fill="#638f8f" fill-rule="evenodd"/><path d="m1607.7,831.5h-75c-33.4,0-60.7,27.3-60.7,60.7v60.7h196.4v-60.7c0-33.4-27.4-60.7-60.7-60.7Z" fill="#638f8f" fill-rule="evenodd"/><path d="m1521.2,880.6h-.7c-19.5,0-35.4,16-35.4,35.4v12.4h71.6v-12.4c0-19.5-16-35.4-35.5-35.4Z" fill="#785454" fill-rule="evenodd"/><path d="m1485.1,940.6c0,6.7,5.5,12.2,12.2,12.2h59.4v-24.5h-59.4c-6.7.1-12.2,5.6-12.2,12.3Z" fill="#4a8181" fill-rule="evenodd"/><path d="m1545.5,1066.3c-58.4,0-106.3,47.8-106.3,106.3v156.6c0,58.4,47.8,106.2,106.3,106.2s106.3-47.8,106.3-106.2v-156.6c-.1-58.5-47.9-106.3-106.3-106.3Z" fill="#e79762" fill-rule="evenodd"/><rect x="1439.2" y="1335.7" width="121.5" height="367.7" fill="#5d5a5a"/><rect x="1530.2" y="1335.7" width="121.5" height="367.7" fill="#676767"/><path d="m1530.2,1426.6c50.2,0,91-40.7,91-90.9h-181.9c-.1,50.2,40.6,90.9,90.9,90.9Z" fill="#676767" fill-rule="evenodd"/><path d="m1519,1045c-8.6-8.6-20.4-13.9-33.5-13.9s-24.9,5.3-33.5,13.9-13.9,20.4-13.9,33.5v26.5c0,6.1,5,11.1,11.1,11.1s11.1-5,11.1-11.1v-26.5c0-6.9,2.8-13.2,7.4-17.8,4.6-4.6,10.9-7.4,17.8-7.4s13.2,2.8,17.8,7.4h0c4.6,4.6,7.4,10.9,7.4,17.8v26.5c0,6.1,5,11.1,11.1,11.1s11.1-5,11.1-11.1v-26.5c0-13.1-5.3-24.9-13.9-33.5h0Z" fill="#4a8181" fill-rule="evenodd"/><path d="m1506.1,1082.4h-41.2c-46,0-83.6,37.6-83.6,83.6v116.1c0,46,37.6,83.6,83.6,83.6h41.2c46,0,83.6-37.6,83.6-83.6v-116.1c0-45.9-37.6-83.6-83.6-83.6Z" fill="#4a8181" fill-rule="evenodd"/><path d="m1491.8,1252.5h-102.6c-14.9,0-27.1,12.2-27.1,27.1v59.1c0,14.9,12.2,27.1,27.1,27.1h102.6c14.9,0,27.1-12.2,27.1-27.1v-59.1c0-14.9-12.2-27.1-27.1-27.1Z" fill="#4a8181" fill-rule="evenodd"/><path d="m1497.1,1334.8c0,17,13.9,31,31,31h30.7c17,0,31-13.9,31-31v-73.2h-92.6v73.2h-.1Z" fill="#548c8d" fill-rule="evenodd"/><circle cx="1423.5" cy="1295.8" r="10.6" fill="#629d9d"/><path d="m1596.3,1056.6c-24.4,0-46.5,10-62.5,26s-26,38.2-26,62.5v63.6c0,12.2,9.9,22.1,22.1,22.1s22.1-9.9,22.1-22.1v-63.6c0-12.2,5-23.2,13-31.3,8-8,19.1-13,31.3-13s23.2,5,31.3,13c8,8,13,19.1,13,31.3v63.6c0,12.2,9.9,22.1,22.1,22.1s22.1-9.9,22.1-22.1v-63.6c0-24.4-10-46.5-26-62.5s-38.1-26-62.5-26Z" fill="#4a8181" fill-rule="evenodd"/><path d="m1761.3,1122c-19.8-14.2-47.3-9.7-61.6,10l-83.8,116.7c-14.2,19.8-9.7,47.3,10,61.6,19.8,14.2,47.3,9.7,61.6-10l83.8-116.7c14.3-19.8,9.8-47.4-10-61.6Z" fill="#fbc5b5" fill-rule="evenodd"/><path d="m1639.6,1126.6c-9.2-22.6-35-33.5-57.6-24.4-22.6,9.2-33.5,35-24.4,57.6l53.1,131.3c9.2,22.6,34.9,33.5,57.6,24.4,22.6-9.2,33.5-34.9,24.4-57.6l-53.1-131.3Z" fill="#e79762" fill-rule="evenodd"/><rect y="1776" width="3000" height="224" fill="#a1c2bd"/><path d="m2701.9,990.6v296c0,12.8,10.5,23.3,23.3,23.3h274.8v-342.6h-274.8c-12.8,0-23.3,10.5-23.3,23.3Z" fill="#e6e6e5" fill-rule="evenodd"/><rect x="2733.7" y="967.3" width="63.7" height="342.6" fill="#fff"/><rect x="2942" y="967.3" width="58" height="342.6" fill="#ccc"/><path d="m2686.4,972.2h0c0,8.3,6.8,15,15,15h298.6v-30h-298.5c-8.3,0-15.1,6.8-15.1,15Z" fill="#e6e6e5" fill-rule="evenodd"/><path d="m2930.7,957.2h-204.2c-8.3,0-15,6.8-15,15h0c0,8.3,6.8,15,15,15h204.2c8.3,0,15-6.8,15-15h0c0-8.2-6.8-15-15-15Z" fill="#f1f0f0" fill-rule="evenodd"/><path d="m2720.2,1007.1h-48.9c-5.8,0-10.5,4.7-10.5,10.5s4.7,10.5,10.5,10.5h48.9c5.8,0,10.5-4.7,10.5-10.5s-4.7-10.5-10.5-10.5Z" fill="#e6e6e5" fill-rule="evenodd"/><rect x="2076.1" y="1286.6" width="923.9" height="489" fill="#7ea5a6"/><path d="m741.8,433.1c-9,0-17.1,3.4-23.2,9.1-6.1-5.6-14.3-9.1-23.2-9.1s-17.1,3.4-23.2,9.1c-6.1-5.6-14.3-9.1-23.2-9.1-18.9,0-34.3,15.3-34.3,34.3,0,.9,0,1.8.1,2.7h161.1c.1-.9.1-1.8.1-2.7,0-18.9-15.3-34.3-34.2-34.3Z" fill="#f26767" fill-rule="evenodd"/></svg>