<?xml version="1.0" encoding="utf-8"?>
<!-- Generator: Adobe Illustrator 27.5.0, SVG Export Plug-In . SVG Version: 6.00 Build 0)  -->
<svg version="1.1" id="a" xmlns="http://www.w3.org/2000/svg" xmlns:xlink="http://www.w3.org/1999/xlink" x="0px" y="0px"
	 viewBox="0 0 1500 1000" style="enable-background:new 0 0 1500 1000;" xml:space="preserve">
<style type="text/css">
	.st0{fill:#C2D5D1;}
	.st1{fill:#A1BDBA;}
	.st2{fill:#9AB3AF;}
	.st3{fill:#E6E6E5;}
	.st4{fill-rule:evenodd;clip-rule:evenodd;fill:#785454;}
	.st5{fill:#785454;}
	.st6{fill-rule:evenodd;clip-rule:evenodd;fill:#FFFFFF;}
	.st7{fill:#FFFFFF;}
	.st8{fill-rule:evenodd;clip-rule:evenodd;fill:#FABDAC;}
	.st9{fill-rule:evenodd;clip-rule:evenodd;fill:#99CCCC;}
	.st10{fill-rule:evenodd;clip-rule:evenodd;fill:#8BB6B6;}
	.st11{fill:#F18485;}
	.st12{fill-rule:evenodd;clip-rule:evenodd;fill:#EBA994;}
	.st13{fill-rule:evenodd;clip-rule:evenodd;fill:#676767;}
	.st14{fill:#FABDAC;}
	.st15{fill:#FBC5B5;}
	.st16{fill-rule:evenodd;clip-rule:evenodd;fill:#E6E6E5;}
	.st17{fill:#7EA5A6;}
	.st18{fill:#8DB8B8;}
	.st19{fill-rule:evenodd;clip-rule:evenodd;fill:#CCCCCC;}
	.st20{fill-rule:evenodd;clip-rule:evenodd;fill:#F1F0F0;}
	.st21{fill-rule:evenodd;clip-rule:evenodd;fill:#D2E3DF;}
	.st22{fill-rule:evenodd;clip-rule:evenodd;fill:#C2D5D1;}
	.st23{fill-rule:evenodd;clip-rule:evenodd;fill:#53BA65;}
	.st24{fill-rule:evenodd;clip-rule:evenodd;fill:#C8A874;}
	.st25{fill:#339967;}
	.st26{fill:#F68C46;}
	.st27{fill:#9696CA;}
	.st28{fill-rule:evenodd;clip-rule:evenodd;fill:#E79762;}
	.st29{fill:#EBA994;}
	.st30{fill-rule:evenodd;clip-rule:evenodd;fill:#5D5A5A;}
	.st31{fill-rule:evenodd;clip-rule:evenodd;fill:#989898;}
	.st32{fill-rule:evenodd;clip-rule:evenodd;fill:#F26767;}
	.st33{fill:#CCCCCC;}
	.st34{fill-rule:evenodd;clip-rule:evenodd;fill:#FBC5B5;}
	.st35{fill-rule:evenodd;clip-rule:evenodd;fill:#F499C1;}
	.st36{fill-rule:evenodd;clip-rule:evenodd;fill:#E57EB2;}
	.st37{fill-rule:evenodd;clip-rule:evenodd;fill:#4A8181;}
	.st38{fill-rule:evenodd;clip-rule:evenodd;fill:#548C8D;}
	.st39{fill-rule:evenodd;clip-rule:evenodd;fill:#638F8F;}
	.st40{fill:#5D5A5A;}
	.st41{fill:#676767;}
	.st42{fill:#629D9D;}
	.st43{fill:#A1C2BD;}
</style>
<rect class="st0" width="1500" height="1000"/>
<rect class="st1" width="1500" height="180"/>
<rect x="540" y="120" class="st2" width="423.5" height="257.5"/>
<rect x="1000" y="120" class="st2" width="423.4" height="257.5"/>
<circle class="st3" cx="600" cy="250" r="10"/>
<circle class="st3" cx="1070" cy="250" r="10"/>
<path class="st4" d="M1032.2,217.9c-4.2,0-8.1,1.2-11.2,3.4c1.7-0.4,3.4-0.6,5.1-0.6c11.9,0,22.8,9.7,24.2,21.6
	c0.9,7.7-2.3,14.4-8,18.3c9.2-2.4,15.2-10.9,14.1-21.1C1055,227.7,1044.2,217.9,1032.2,217.9z"/>
<circle class="st5" cx="1027.2" cy="237.4" r="21.7"/>
<circle class="st5" cx="937.3" cy="278" r="51.5"/>
<path class="st6" d="M1033.1,308.6c-4.8-9.6-16.4-13.5-26-8.7c-9.6,4.8-13.5,16.4-8.7,26l40.7,81.5c4.8,9.6,16.4,13.5,26,8.7
	c9.6-4.8,13.5-16.4,8.7-26L1033.1,308.6z"/>
<circle class="st7" cx="1065.5" cy="394.5" r="31.8"/>
<path class="st8" d="M1146.9,384.4l-70.7-8.6c-10.7-1.2-20.2,6.4-21.6,17c-1.2,10.6,6.3,20.2,17,21.5l70.7,8.6
	c10.7,1.2,20.2-6.4,21.6-17C1165.2,395.2,1157.6,385.6,1146.9,384.4z"/>
<path class="st6" d="M944,301.8c-8.5-6.4-20.7-4.6-27,3.9l-58.3,77.7c-6.4,8.5-4.7,20.6,3.8,27c8.5,6.4,20.7,4.6,27-3.9l58.3-77.7
	C954.2,320.3,952.5,308.2,944,301.8z"/>
<circle class="st7" cx="875" cy="389.5" r="31.8"/>
<path class="st6" d="M974.2,288.2c-28,0-50.8,28.9-50.8,64.2v110.1c0,35.4,22.9,64.2,50.8,64.2s50.8-28.9,50.8-64.2V352.5
	C1024.9,317.2,1002.1,288.2,974.2,288.2L974.2,288.2z"/>
<path class="st9" d="M1010.9,347.8h-73.3c-10.5,0-19.1,8.6-19.1,19.1v156.6c0,10.5,8.6,19.1,19.1,19.1h73.3
	c10.5,0,19.1-8.6,19.1-19.1V366.9C1029.9,356.4,1021.4,347.8,1010.9,347.8L1010.9,347.8z"/>
<path class="st8" d="M990,252.1c-12.2-3.2-24.8,4-28,16.2l-10.2,37.9c-3.2,12.1,4,24.8,16.2,28c12.2,3.2,24.8-4,28-16.2l10.2-37.9
	C1009.5,268,1002.2,255.4,990,252.1z"/>
<path class="st10" d="M952.5,282.4h-8.8c-3.9,0-7.1,3.2-7.1,7.1v81c0,3.9,3.2,7.1,7.1,7.1h8.8c3.9,0,7.1-3.2,7.1-7.1v-81
	C959.6,285.6,956.4,282.4,952.5,282.4z"/>
<path class="st10" d="M1006.8,282.4h-8.8c-3.9,0-7.1,3.2-7.1,7.1v81c0,3.9,3.2,7.1,7.1,7.1h8.8c3.9,0,7.1-3.2,7.1-7.1v-81
	C1013.8,285.6,1010.6,282.4,1006.8,282.4z"/>
<path class="st8" d="M1037.7,231.4c-0.8-27.5-24-49.4-51.5-48.6c-27.5,0.8-49.4,24-48.6,51.5l0.7,22.8c0.8,27.5,24,49.4,51.5,48.6
	s49.4-24,48.6-51.5L1037.7,231.4z"/>
<circle class="st11" cx="1012.5" cy="275.5" r="4.2"/>
<circle class="st11" cx="1012.1" cy="278.9" r="2.7"/>
<path class="st8" d="M937.5,228.9c-8.7-1.1-15.6,5.1-15.6,13.6s7,16.5,15.6,17.5c8.7,1.1,15.6-5.1,15.6-13.6
	C953.1,237.8,946.1,229.9,937.5,228.9L937.5,228.9z"/>
<path class="st12" d="M937.5,237.4c-4-0.5-7.1,2.3-7.1,6.2s3.2,7.5,7.1,8c4,0.5,7.1-2.3,7.1-6.2
	C944.6,241.5,941.4,237.9,937.5,237.4z"/>
<circle class="st5" cx="966.9" cy="206.1" r="39.5"/>
<path class="st12" d="M1037.7,231.4c-0.8-27.5-24-49.4-51.5-48.6c-2.5,0.1-4.8,0.3-7.2,0.8c22.8,4.1,40.7,23.8,41.4,47.9l0.7,22.8
	c0.8,25.1-17.3,46.5-41.4,50.8c3.3,0.6,6.7,0.9,10.2,0.8c27.5-0.8,49.4-24,48.6-51.5L1037.7,231.4L1037.7,231.4z"/>
<path class="st9" d="M995.2,150h-57.5v85.8H1038v-42.9C1038,169.3,1018.7,150,995.2,150z"/>
<path class="st9" d="M946.8,220.4h-17.2c-4.2,0-7.7,3.4-7.7,7.7s3.5,7.7,7.7,7.7h17.2c4.2,0,7.7-3.4,7.7-7.7
	C954.5,223.8,951,220.4,946.8,220.4z"/>
<path class="st12" d="M837.6,317.2h-38.2c-2,6-1,12.8,3.2,18l50,63.5c6.6,8.4,18.8,9.9,27.2,3.2s9.8-18.8,3.2-27.2L837.6,317.2
	L837.6,317.2z"/>
<path class="st8" d="M837.6,317.2h-27.7c0.7,2.2,1.8,4.5,3.3,6.5l50,63.5c5.5,7,15,9.2,22.8,5.9c2-6,1-12.8-3.2-18.1L837.6,317.2
	L837.6,317.2z"/>
<path class="st8" d="M790.6,317.2c-2.2,3.9-3.4,8.4-3.4,13.2c0,15.1,12.2,27.4,27.4,27.4s27.4-12.2,27.4-27.4
	c0-4.8-1.2-9.3-3.4-13.2H790.6z"/>
<circle class="st7" cx="948.1" cy="351.1" r="5.8"/>
<circle class="st7" cx="1002.3" cy="351.1" r="5.8"/>
<path class="st10" d="M944.5,440.4c-0.1,1-0.2,2-0.2,3c0,16.5,13.3,29.8,29.8,29.8s29.8-13.4,29.8-29.8c0-1,0-2-0.2-3H944.5
	L944.5,440.4z"/>
<path class="st13" d="M1134.8,360.2c-1.1-2.8-4.2-4.1-7-3c-2.8,1.1-4.1,4.2-3,7l45.8,114.8c1.1,2.8,4.2,4.1,7,3c2.8-1.1,4.1-4.2,3-7
	L1134.8,360.2z"/>
<path class="st13" d="M1172.3,462.4c-7.4,0-10.6,11.4-7.1,25.3c3.4,14,12.2,25.3,19.6,25.3s10.6-11.4,7.1-25.3
	C1188.5,473.7,1179.7,462.4,1172.3,462.4L1172.3,462.4z"/>
<path class="st12" d="M1158.3,393.3c-1.2,10.6-10.9,18.2-21.6,17l-70.7-8.6c-4.5-0.5-8.4-2.5-11.4-5.5c0.6,9.2,7.6,17,17.1,18.1
	l70.7,8.6c10.7,1.2,20.2-6.4,21.6-17c0.7-6.1-1.5-12-5.6-16C1158.5,391,1158.4,392.1,1158.3,393.3L1158.3,393.3z"/>
<circle class="st14" cx="1148.8" cy="404" r="23.3"/>
<path class="st4" d="M1004.8,246.8L1004.8,246.8c-1.2-0.8-2.7-1.1-4.2-1.1c-1.1,0-2.2,0.2-3.2,0.6c-1,0.4-2,1.1-2.8,1.8
	c-1,0.9-1,2.5,0,3.4s2.5,0.9,3.5,0c0.3-0.4,0.8-0.6,1.2-0.8s0.9-0.2,1.3-0.2c0.7,0,1.2,0.1,1.8,0.4c0.5,0.3,1,0.8,1.3,1.3
	c0.7,1.1,2.2,1.6,3.3,0.9c1.2-0.6,1.5-2.1,0.9-3.3C1007.1,248.5,1006,247.5,1004.8,246.8L1004.8,246.8z"/>
<path class="st4" d="M1027.6,246.3c-1-0.4-2.1-0.6-3.2-0.6c-1.5,0-3,0.4-4.2,1.1l0,0c-1.2,0.7-2.3,1.8-3,3.1
	c-0.7,1.1-0.2,2.6,0.9,3.3c1.2,0.6,2.7,0.3,3.3-0.9c0.3-0.6,0.8-1,1.3-1.3c0.5-0.3,1.2-0.4,1.8-0.4c0.5,0,0.9,0.1,1.3,0.2
	s0.8,0.4,1.2,0.8c0.9,0.9,2.5,0.9,3.4,0s0.9-2.5,0-3.4C1029.5,247.4,1028.6,246.7,1027.6,246.3L1027.6,246.3z"/>
<ellipse class="st15" cx="979.8" cy="266" rx="15.5" ry="8.1"/>
<path class="st6" d="M1004.5,537H826.8c-2,0-3.8,1.7-3.8,3.8s1.7,3.8,3.8,3.8h177.7c2,0,3.8-1.7,3.8-3.8S1006.6,537,1004.5,537z"/>
<path class="st16" d="M872,313.5H757.2c-2.9,0-5.2,2.4-5.2,5.2l0,0c0,2.9,2.3,5.2,5.2,5.2H872c2.9,0,5.2-2.4,5.2-5.2l0,0
	C877.2,315.9,874.9,313.5,872,313.5z"/>
<path class="st6" d="M880.9,308H748.3c-2.9,0-5.2,2.4-5.2,5.2l0,0c0,2.9,2.3,5.2,5.2,5.2h132.6c2.9,0,5.2-2.4,5.2-5.2l0,0
	C886.2,310.3,883.8,308,880.9,308z"/>
<rect y="457" class="st17" width="1094.5" height="430.8"/>
<rect y="573.4" class="st18" width="1094.5" height="23.3"/>
<path class="st16" d="M156.4,505.5H54.5c-2.5,0-4.7,2.1-4.7,4.6l0,0c0,2.6,2.1,4.6,4.7,4.6h101.9c2.6,0,4.6-2.1,4.6-4.6l0,0
	C161,507.6,158.9,505.5,156.4,505.5z"/>
<path class="st19" d="M90.8,505.5H54.4c-2.5,0-4.7,2.1-4.7,4.6l0,0c0,2.6,2.1,4.6,4.7,4.6h36.4c2.6,0,4.7-2.1,4.7-4.6l0,0
	C95.5,507.6,93.4,505.5,90.8,505.5z"/>
<path class="st6" d="M164.3,500.5H46.5c-2.5,0-4.7,2.1-4.7,4.6s2.1,4.6,4.7,4.6h117.8c2.6,0,4.6-2.1,4.6-4.6
	S166.8,500.5,164.3,500.5z"/>
<path class="st16" d="M156.4,517.2H54.5c-2.5,0-4.7,2.1-4.7,4.7s2.1,4.7,4.7,4.7h101.9c2.6,0,4.6-2.1,4.6-4.7
	S158.9,517.2,156.4,517.2z"/>
<path class="st19" d="M90.8,517.2H54.4c-2.5,0-4.7,2.1-4.7,4.7s2.1,4.7,4.7,4.7h36.4c2.6,0,4.7-2.1,4.7-4.7S93.4,517.2,90.8,517.2z"
	/>
<path class="st6" d="M164.3,512.2H46.5c-2.5,0-4.7,2.1-4.7,4.7l0,0c0,2.5,2.1,4.7,4.7,4.7h117.8c2.6,0,4.6-2.1,4.6-4.7l0,0
	C168.9,514.3,166.8,512.2,164.3,512.2z"/>
<path class="st16" d="M156.4,528.9H54.5c-2.5,0-4.7,2.1-4.7,4.7l0,0c0,2.5,2.1,4.7,4.7,4.7h101.9c2.6,0,4.6-2.1,4.6-4.7l0,0
	C161,531,158.9,528.9,156.4,528.9z"/>
<path class="st19" d="M90.8,528.9H54.4c-2.5,0-4.7,2.1-4.7,4.7l0,0c0,2.5,2.1,4.7,4.7,4.7h36.4c2.6,0,4.7-2.1,4.7-4.7l0,0
	C95.5,531,93.4,528.9,90.8,528.9z"/>
<path class="st6" d="M164.3,524H46.5c-2.5,0-4.7,2.1-4.7,4.7l0,0c0,2.5,2.1,4.7,4.7,4.7h117.8c2.6,0,4.6-2.1,4.6-4.7l0,0
	C168.9,526.1,166.8,524,164.3,524z"/>
<path class="st16" d="M156.4,540.7H54.5c-2.5,0-4.7,2.1-4.7,4.7l0,0c0,2.5,2.1,4.7,4.7,4.7h101.9c2.6,0,4.6-2.1,4.6-4.7l0,0
	C161,542.8,158.9,540.7,156.4,540.7z"/>
<path class="st19" d="M90.8,540.7H54.4c-2.5,0-4.7,2.1-4.7,4.7l0,0c0,2.5,2.1,4.7,4.7,4.7h36.4c2.6,0,4.7-2.1,4.7-4.7l0,0
	C95.5,542.8,93.4,540.7,90.8,540.7z"/>
<path class="st6" d="M164.3,535.7H46.5c-2.5,0-4.7,2.1-4.7,4.7s2.1,4.7,4.7,4.7h117.8c2.6,0,4.6-2.1,4.6-4.7
	S166.8,535.7,164.3,535.7z"/>
<path class="st16" d="M156.4,552.4H54.5c-2.5,0-4.7,2.1-4.7,4.7s2.1,4.7,4.7,4.7h101.9c2.6,0,4.6-2.1,4.6-4.7
	S158.9,552.4,156.4,552.4z"/>
<path class="st19" d="M90.8,552.4H54.4c-2.5,0-4.7,2.1-4.7,4.7s2.1,4.7,4.7,4.7h36.4c2.6,0,4.7-2.1,4.7-4.7S93.4,552.4,90.8,552.4z"
	/>
<path class="st6" d="M164.3,547.4H46.5c-2.5,0-4.7,2.1-4.7,4.7l0,0c0,2.5,2.1,4.7,4.7,4.7h117.8c2.6,0,4.6-2.1,4.6-4.7l0,0
	C168.9,549.5,166.8,547.4,164.3,547.4z"/>
<path class="st16" d="M156.4,564.2H54.5c-2.5,0-4.7,2.1-4.7,4.7l0,0c0,2.5,2.1,4.7,4.7,4.7h101.9c2.6,0,4.6-2.1,4.6-4.7l0,0
	C161,566.2,158.9,564.2,156.4,564.2z"/>
<path class="st19" d="M90.8,564.2H54.4c-2.5,0-4.7,2.1-4.7,4.7l0,0c0,2.5,2.1,4.7,4.7,4.7h36.4c2.6,0,4.7-2.1,4.7-4.7l0,0
	C95.5,566.2,93.4,564.2,90.8,564.2z"/>
<path class="st6" d="M164.3,559.2H46.5c-2.5,0-4.7,2.1-4.7,4.7s2.1,4.7,4.7,4.7h117.8c2.6,0,4.6-2.1,4.6-4.7
	S166.8,559.2,164.3,559.2z"/>
<path class="st16" d="M301.1,505.5H199.2c-2.6,0-4.6,2.1-4.6,4.6l0,0c0,2.6,2.1,4.6,4.6,4.6h101.9c2.5,0,4.6-2.1,4.6-4.6l0,0
	C305.8,507.6,303.8,505.5,301.1,505.5z"/>
<path class="st19" d="M235.6,505.5h-36.4c-2.6,0-4.6,2.1-4.6,4.6l0,0c0,2.6,2.1,4.6,4.6,4.6h36.4c2.6,0,4.6-2.1,4.6-4.6l0,0
	C240.3,507.6,238.2,505.5,235.6,505.5z"/>
<path class="st6" d="M309.1,500.5H191.4c-2.6,0-4.6,2.1-4.6,4.6s2.1,4.6,4.6,4.6h117.8c2.5,0,4.6-2.1,4.6-4.6
	S311.6,500.5,309.1,500.5z"/>
<path class="st16" d="M301.1,517.2H199.2c-2.6,0-4.6,2.1-4.6,4.7s2.1,4.7,4.6,4.7h101.9c2.5,0,4.6-2.1,4.6-4.7
	S303.8,517.2,301.1,517.2z"/>
<path class="st19" d="M235.6,517.2h-36.4c-2.6,0-4.6,2.1-4.6,4.7s2.1,4.7,4.6,4.7h36.4c2.6,0,4.6-2.1,4.6-4.7
	C240.3,519.3,238.2,517.2,235.6,517.2z"/>
<path class="st6" d="M309.1,512.2H191.4c-2.6,0-4.6,2.1-4.6,4.7l0,0c0,2.5,2.1,4.7,4.6,4.7h117.8c2.5,0,4.6-2.1,4.6-4.7l0,0
	C313.8,514.3,311.6,512.2,309.1,512.2z"/>
<path class="st16" d="M301.1,528.9H199.2c-2.6,0-4.6,2.1-4.6,4.7l0,0c0,2.5,2.1,4.7,4.6,4.7h101.9c2.5,0,4.6-2.1,4.6-4.7l0,0
	C305.8,531,303.8,528.9,301.1,528.9z"/>
<path class="st19" d="M235.6,528.9h-36.4c-2.6,0-4.6,2.1-4.6,4.7l0,0c0,2.5,2.1,4.7,4.6,4.7h36.4c2.6,0,4.6-2.1,4.6-4.7l0,0
	C240.3,531,238.2,528.9,235.6,528.9z"/>
<path class="st6" d="M309.1,524H191.4c-2.6,0-4.6,2.1-4.6,4.7l0,0c0,2.5,2.1,4.7,4.6,4.7h117.8c2.5,0,4.6-2.1,4.6-4.7l0,0
	C313.8,526.1,311.6,524,309.1,524z"/>
<path class="st16" d="M301.1,540.7H199.2c-2.6,0-4.6,2.1-4.6,4.7l0,0c0,2.5,2.1,4.7,4.6,4.7h101.9c2.5,0,4.6-2.1,4.6-4.7l0,0
	C305.8,542.8,303.8,540.7,301.1,540.7z"/>
<path class="st19" d="M235.6,540.7h-36.4c-2.6,0-4.6,2.1-4.6,4.7l0,0c0,2.5,2.1,4.7,4.6,4.7h36.4c2.6,0,4.6-2.1,4.6-4.7l0,0
	C240.3,542.8,238.2,540.7,235.6,540.7z"/>
<path class="st6" d="M309.1,535.7H191.4c-2.6,0-4.6,2.1-4.6,4.7s2.1,4.7,4.6,4.7h117.8c2.5,0,4.6-2.1,4.6-4.7
	S311.6,535.7,309.1,535.7z"/>
<path class="st16" d="M301.1,552.4H199.2c-2.6,0-4.6,2.1-4.6,4.7s2.1,4.7,4.6,4.7h101.9c2.5,0,4.6-2.1,4.6-4.7
	S303.8,552.4,301.1,552.4z"/>
<path class="st19" d="M235.6,552.4h-36.4c-2.6,0-4.6,2.1-4.6,4.7s2.1,4.7,4.6,4.7h36.4c2.6,0,4.6-2.1,4.6-4.7
	S238.2,552.4,235.6,552.4z"/>
<path class="st6" d="M309.1,547.4H191.4c-2.6,0-4.6,2.1-4.6,4.7l0,0c0,2.5,2.1,4.7,4.6,4.7h117.8c2.5,0,4.6-2.1,4.6-4.7l0,0
	C313.8,549.5,311.6,547.4,309.1,547.4z"/>
<path class="st16" d="M301.1,564.2H199.2c-2.6,0-4.6,2.1-4.6,4.7l0,0c0,2.5,2.1,4.7,4.6,4.7h101.9c2.5,0,4.6-2.1,4.6-4.7l0,0
	C305.8,566.2,303.8,564.2,301.1,564.2z"/>
<path class="st19" d="M235.6,564.2h-36.4c-2.6,0-4.6,2.1-4.6,4.7l0,0c0,2.5,2.1,4.7,4.6,4.7h36.4c2.6,0,4.6-2.1,4.6-4.7l0,0
	C240.3,566.2,238.2,564.2,235.6,564.2z"/>
<path class="st6" d="M309.1,559.2H191.4c-2.6,0-4.6,2.1-4.6,4.7s2.1,4.7,4.6,4.7h117.8c2.5,0,4.6-2.1,4.6-4.7
	S311.6,559.2,309.1,559.2z"/>
<path class="st16" d="M1289.2,483.6H1144c-6.4,0-11.7,5.2-11.7,11.6v148c0,6.4,5.2,11.7,11.7,11.7h145.2c6.4,0,11.7-5.2,11.7-11.7
	v-148C1300.9,488.9,1295.7,483.6,1289.2,483.6z"/>
<rect x="1148.3" y="483.6" class="st7" width="31.8" height="171.3"/>
<path class="st19" d="M1289.2,483.6h-36.8V655h36.8c6.4,0,11.7-5.2,11.7-11.7v-148C1300.9,488.9,1295.7,483.6,1289.2,483.6z"/>
<path class="st16" d="M1301.1,478.6h-168.9c-4.2,0-7.5,3.4-7.5,7.5l0,0c0,4.1,3.4,7.5,7.5,7.5h168.9c4.2,0,7.5-3.4,7.5-7.5l0,0
	C1308.6,482,1305.2,478.6,1301.1,478.6z"/>
<path class="st20" d="M1246.8,478.6h-102.1c-4.2,0-7.5,3.4-7.5,7.5l0,0c0,4.1,3.4,7.5,7.5,7.5h102.1c4.2,0,7.5-3.4,7.5-7.5l0,0
	C1254.2,482,1250.9,478.6,1246.8,478.6z"/>
<path class="st19" d="M1316.2,503.5h-24.4c-2.9,0-5.2,2.4-5.2,5.2s2.3,5.2,5.2,5.2h24.4c2.9,0,5.2-2.4,5.2-5.2
	C1321.4,505.9,1319,503.5,1316.2,503.5z"/>
<path class="st16" d="M1141.6,503.5h-24.4c-2.9,0-5.2,2.4-5.2,5.2s2.3,5.2,5.2,5.2h24.4c2.9,0,5.2-2.4,5.2-5.2
	C1146.8,505.9,1144.4,503.5,1141.6,503.5z"/>
<path class="st16" d="M23.4,420.6c0,20,16.4,36.4,36.4,36.4h363.6c20,0,36.4-16.4,36.4-36.4v-56.8H23.4V420.6z"/>
<path class="st21" d="M431,177.6H52.2c-15.8,0-28.9,13-28.9,28.9v157.4h436.4V206.4C459.8,190.5,446.8,177.6,431,177.6L431,177.6z"
	/>
<path class="st19" d="M396.6,420.6c0,20-16.4,36.4-36.4,36.4h63.1c20,0,36.4-16.4,36.4-36.4v-56.8h-63.1V420.6z"/>
<path class="st6" d="M70,420.6v-56.8H23.4v56.8c0,20,16.4,36.4,36.4,36.4h46.6C86.4,457,70,440.6,70,420.6L70,420.6z"/>
<path class="st22" d="M427.9,249.3H55.3c-3.2,0-5.8,2.6-5.8,5.8c0,3.2,2.6,5.8,5.8,5.8h372.6c3.2,0,5.8-2.6,5.8-5.8
	C433.7,251.9,431.1,249.3,427.9,249.3L427.9,249.3z"/>
<path class="st22" d="M427.9,332.7H55.3c-3.2,0-5.8,2.6-5.8,5.8s2.6,5.8,5.8,5.8h372.6c3.2,0,5.8-2.6,5.8-5.8
	C433.7,335.4,431.1,332.7,427.9,332.7z"/>
<path class="st16" d="M381.6,502.6h-28.2c-3.3,0-6,2.7-6,6v58.9c0,3.3,2.7,6,6,6h28.2c3.3,0,6-2.7,6-6v-58.9
	C387.6,505.4,384.9,502.6,381.6,502.6z"/>
<path class="st16" d="M632.5,560.4c0,7.2,5.8,13,13,13h149.9c7.2,0,13-5.8,13-13v-23.3H632.5L632.5,560.4L632.5,560.4L632.5,560.4z"
	/>
<path class="st16" d="M827.8,560.4c0,7.2,5.8,13,13,13h149.8c7.2,0,13-5.8,13-13v-23.3H827.8V560.4z"/>
<path class="st6" d="M809.2,537H631.5c-2,0-3.8,1.7-3.8,3.8s1.7,3.8,3.8,3.8h177.7c2,0,3.8-1.7,3.8-3.8
	C813,538.8,811.3,537,809.2,537z"/>
<path class="st23" d="M582.2,525.8c-7.4,0-13.7,4.7-16.1,11.2c-2.9-2.2-6.5-3.6-10.5-3.6c-1.5,0-2.8,0.2-4.2,0.5
	c-1.5-7.8-8.5-13.8-16.8-13.8c-7.1,0-13.2,4.3-15.8,10.5c-1.2-0.3-2.5-0.4-3.8-0.4c-1.5,0-3,0.2-4.4,0.5
	c-2.5-6.2-8.7-10.7-15.9-10.7s-12.6,4-15.5,9.7c-3-2.8-7-4.4-11.5-4.4c-9.5,0-17.1,7.7-17.1,17.1c0,1.3,0.1,2.7,0.5,3.9H599
	c0.2-1.2,0.4-2.3,0.4-3.6C599.3,533.5,591.6,525.8,582.2,525.8z"/>
<path class="st24" d="M158.8,296.9h-46.4c-3.8,0-6.9,3.1-6.9,7v6.8c0,3.8,3.1,7,6.9,7h46.4c3.8,0,6.9-3.1,6.9-7v-6.8
	C165.7,300,162.6,296.9,158.8,296.9z"/>
<ellipse transform="matrix(0.8659 -0.5002 0.5002 0.8659 -121.239 144.745)" class="st25" cx="209.4" cy="298.5" rx="2.8" ry="6.5"/>
<circle class="st26" cx="215" cy="310.5" r="12"/>
<ellipse transform="matrix(0.5 -0.866 0.866 0.5 -141.8472 358.3368)" class="st25" cx="239.4" cy="302" rx="6.6" ry="2.8"/>
<circle class="st26" cx="233.8" cy="314" r="12"/>
<ellipse transform="matrix(9.393425e-02 -0.9956 0.9956 9.393425e-02 -69.1716 524.9193)" class="st25" cx="253.8" cy="300.5" rx="6.5" ry="2.8"/>
<circle class="st26" cx="253.7" cy="313.7" r="12"/>
<ellipse transform="matrix(0.82 -0.5724 0.5724 0.82 -123.2269 214.8959)" class="st25" cx="280" cy="303.3" rx="6.5" ry="2.8"/>
<circle class="st26" cx="269.9" cy="311.8" r="12"/>
<path class="st16" d="M272.2,323.9h-65.9c-2.4,0-4.4,2-4.4,4.5l0,0c0,2.5,2,4.5,4.4,4.5h65.9c2.5,0,4.5-2,4.5-4.5l0,0
	C276.7,325.9,274.7,323.9,272.2,323.9z"/>
<path class="st6" d="M280.6,317.5h-82.6c-2.4,0-4.4,2-4.4,4.5s2,4.5,4.4,4.5h82.6c2.5,0,4.5-2,4.5-4.5
	C285,319.5,283.1,317.5,280.6,317.5z"/>
<path class="st16" d="M168.5,323.9h-65.9c-2.4,0-4.4,2-4.4,4.5l0,0c0,2.5,2,4.5,4.4,4.5h65.9c2.4,0,4.4-2,4.4-4.5l0,0
	C172.9,325.9,170.9,323.9,168.5,323.9z"/>
<path class="st6" d="M176.8,317.5H94.2c-2.4,0-4.4,2-4.4,4.5s2,4.5,4.4,4.5h82.6c2.4,0,4.4-2,4.4-4.5S179.2,317.5,176.8,317.5z"/>
<circle class="st27" cx="316.9" cy="316.5" r="5.9"/>
<circle class="st27" cx="327.6" cy="315.1" r="5.9"/>
<circle class="st27" cx="339.3" cy="317.3" r="5.9"/>
<circle class="st27" cx="348.3" cy="316.5" r="5.9"/>
<circle class="st27" cx="357.2" cy="313.1" r="5.9"/>
<circle class="st27" cx="366.6" cy="317.5" r="5.9"/>
<circle class="st27" cx="378.4" cy="316.4" r="5.9"/>
<path class="st16" d="M380.6,323.9h-65.9c-2.5,0-4.5,2-4.5,4.5l0,0c0,2.5,2,4.5,4.5,4.5h66c2.5,0,4.5-2,4.5-4.5l0,0
	C385.1,325.9,383.1,323.9,380.6,323.9L380.6,323.9z"/>
<path class="st6" d="M388.9,317.5h-82.6c-2.5,0-4.5,2-4.5,4.5s2,4.5,4.5,4.5h82.5c2.5,0,4.5-2,4.5-4.5
	C393.3,319.5,391.3,317.5,388.9,317.5L388.9,317.5z"/>
<path class="st16" d="M272.2,241.4h-65.9c-2.4,0-4.4,2-4.4,4.4s2,4.4,4.4,4.4h65.9c2.5,0,4.5-2,4.5-4.4
	C276.7,243.4,274.7,241.4,272.2,241.4z"/>
<path class="st6" d="M280.6,235.1h-82.6c-2.4,0-4.4,2-4.4,4.4s2,4.4,4.4,4.4h82.6c2.5,0,4.5-2,4.5-4.4
	C285,237.1,283.1,235.1,280.6,235.1z"/>
<path class="st16" d="M168.5,241.4h-65.9c-2.4,0-4.4,2-4.4,4.4s2,4.4,4.4,4.4h65.9c2.4,0,4.4-2,4.4-4.4S170.9,241.4,168.5,241.4z"/>
<path class="st6" d="M176.8,235.1H94.2c-2.4,0-4.4,2-4.4,4.4s2,4.4,4.4,4.4h82.6c2.4,0,4.4-2,4.4-4.4S179.2,235.1,176.8,235.1z"/>
<path class="st16" d="M380.6,241.4h-65.9c-2.5,0-4.5,2-4.5,4.4s2,4.4,4.5,4.4h66c2.5,0,4.5-2,4.5-4.4
	C385.1,243.4,383.1,241.4,380.6,241.4L380.6,241.4z"/>
<path class="st6" d="M388.9,235.1h-82.6c-2.5,0-4.5,2-4.5,4.4s2,4.4,4.5,4.4h82.5c2.5,0,4.5-2,4.5-4.4S391.3,235.1,388.9,235.1
	L388.9,235.1z"/>
<path class="st28" d="M165.2,217.5h-8.1c-4.9,0-8.8,3.9-8.8,8.8c0-4.9-3.9-8.8-8.8-8.8h-8.1c-4.8,0-8.8,3.9-8.8,8.8
	c0-4.9-3.9-8.8-8.8-8.8h-8.1c-4.8,0-8.8,3.9-8.8,8.8v8.8h77.1v-8.8C174,221.4,170.1,217.5,165.2,217.5L165.2,217.5z"/>
<polygon class="st24" points="205.1,235.1 237.8,235.1 214.6,206.6 "/>
<polygon class="st24" points="222.9,235.1 255.6,235.1 232.6,206.6 "/>
<polygon class="st24" points="240.9,235.1 273.5,235.1 250.4,206.6 "/>
<path class="st16" d="M437.1,560.4c0,7.2,5.9,13,13,13H600c7.2,0,13-5.8,13-13v-23.3H437.1V560.4z"/>
<path class="st6" d="M613.9,537H436.2c-2,0-3.8,1.7-3.8,3.8s1.7,3.8,3.8,3.8h177.7c2,0,3.8-1.7,3.8-3.8S616,537,613.9,537z"/>
<circle class="st29" cx="275" cy="644.9" r="26"/>
<path class="st30" d="M202.1,527c-12.1,0-23.1,5-31.1,13s-12.9,19-12.9,31.1c0,3,2.5,5.5,5.6,5.5s5.6-2.5,5.6-5.5
	c0-9,3.7-17.3,9.7-23.2c6-6,14.2-9.7,23.3-9.7s17.3,3.7,23.2,9.7c6,6,9.7,14.2,9.7,23.2c0,3,2.5,5.5,5.6,5.5s5.6-2.5,5.6-5.5
	c0-12.1-4.9-23.1-12.9-31.1C225.3,532,214.3,527,202.1,527L202.1,527z"/>
<rect x="168.9" y="794" class="st15" width="28.6" height="85"/>
<path class="st31" d="M198.4,836.3c-3.5,0-6.4,2.8-6.4,6.3v9.8c0,3.5,2.9,6.3,6.4,6.3s6.4-2.8,6.4-6.3v-9.8
	C204.7,839.1,201.9,836.3,198.4,836.3z"/>
<path class="st13" d="M212.4,851.7h-47.6v28c0,4,3.2,7.2,7.2,7.2h50.7c4,0,7.2-3.2,7.2-7.2v-10.4C230,859.6,222.1,851.7,212.4,851.7
	L212.4,851.7z"/>
<path class="st32" d="M171.9,847.5h-1.5c-3.1,0-5.6,2.5-5.6,5.6s2.5,5.6,5.6,5.6h1.5c3.1,0,5.6-2.5,5.6-5.6S175,847.5,171.9,847.5z"
	/>
<path class="st6" d="M229.4,874.3h-64.1c-1.7,0-3.1,1.4-3.1,3.1v7.2c0,1.7,1.4,3.1,3.1,3.1h64.1c1.7,0,3.1-1.4,3.1-3.1v-7.2
	C232.5,875.7,231.1,874.3,229.4,874.3z"/>
<rect x="159.8" y="701" class="st33" width="78.1" height="93"/>
<path class="st34" d="M242.9,435.4L242.9,435.4c-24.7,0-44.9,20.2-44.9,45v25.7c0,24.7,20.2,44.9,44.9,44.9l0,0
	c24.7,0,45-20.2,45-45v-25.7C287.9,455.6,267.6,435.4,242.9,435.4L242.9,435.4z"/>
<path class="st34" d="M222.8,484.9c-13.6,0-24.8,11.1-24.8,24.8v36.9c0,13.6,11.1,24.8,24.8,24.8s24.8-11.2,24.8-24.8v-36.9
	C247.5,496,236.4,484.9,222.8,484.9z"/>
<path class="st32" d="M212.1,535.2L212.1,535.2c-28.8,0-52.3,23.5-52.3,52.3V701h104.6V587.5C264.4,558.7,240.8,535.2,212.1,535.2
	L212.1,535.2z"/>
<path class="st16" d="M186.4,701h-26.6c0,16.5,11.3,30.3,26.6,34.2V794h78.1v-93H186.4L186.4,701z"/>
<rect x="235.9" y="794" class="st15" width="28.5" height="85"/>
<path class="st31" d="M265.4,836.3c-3.5,0-6.4,2.8-6.4,6.3v9.8c0,3.5,2.9,6.3,6.4,6.3s6.4-2.8,6.4-6.3v-9.8
	C271.7,839.1,268.9,836.3,265.4,836.3z"/>
<path class="st13" d="M279.4,851.7h-47.6v28c0,4,3.2,7.2,7.2,7.2h50.7c4,0,7.2-3.2,7.2-7.2v-10.4C297,859.6,289.1,851.7,279.4,851.7
	z"/>
<path class="st32" d="M238.9,847.5h-1.5c-3.1,0-5.6,2.5-5.6,5.6s2.5,5.6,5.6,5.6h1.5c3.1,0,5.6-2.5,5.6-5.6S242,847.5,238.9,847.5z"
	/>
<path class="st6" d="M296.4,874.3h-64.1c-1.7,0-3.1,1.4-3.1,3.1v7.2c0,1.7,1.4,3.1,3.1,3.1h64.1c1.7,0,3.1-1.4,3.1-3.1v-7.2
	C299.5,875.7,298.1,874.3,296.4,874.3z"/>
<path class="st30" d="M225.6,530.7c-12.1,0-23.1,5-31.1,13s-12.9,19-12.9,31.1c0,3,2.5,5.5,5.6,5.5s5.6-2.5,5.6-5.5
	c0-9,3.7-17.3,9.7-23.2c6-6,14.2-9.7,23.3-9.7s17.3,3.7,23.2,9.7c6,6,9.7,14.2,9.7,23.2c0,3,2.5,5.5,5.5,5.5s5.5-2.5,5.5-5.5
	c0-12.1-5-23.1-13-31.1S237.6,530.7,225.6,530.7L225.6,530.7z"/>
<path class="st32" d="M251.1,546c-12.2,0-22.1,9.9-22.1,22.2v88.1c0,12.2,9.9,22.2,22.1,22.2s22.1-9.9,22.1-22.2v-88.1
	C273.2,556,263.4,546,251.1,546z"/>
<path class="st12" d="M267.2,631.8l-19.1,2.6c-12.1,1.6-20.6,12.8-18.9,24.8c1.6,12.1,12.8,20.5,24.8,19l19.1-2.6
	c12.1-1.6,20.5-12.8,19-24.8C290.4,638.7,279.3,630.2,267.2,631.8L267.2,631.8z"/>
<path class="st34" d="M268.5,631.7c-0.5,0-0.9,0.1-1.4,0.2l-19.1,2.6c-12.1,1.6-20.6,12.8-18.9,24.8c0.8,5.8,3.7,10.8,7.9,14.2
	c0.4,0,0.9-0.1,1.4-0.2l19-2.6c12.1-1.6,20.5-12.8,19-24.8C275.6,640.1,272.7,635.1,268.5,631.7z"/>
<path class="st13" d="M183.9,548.5h-27.3c-19.4,0-35.3,15.9-35.3,35.3v81.8c0,19.5,15.9,35.3,35.3,35.3h27.3
	c19.4,0,35.3-15.9,35.3-35.3v-81.8C219.3,564.4,203.4,548.5,183.9,548.5L183.9,548.5z"/>
<path class="st30" d="M183.9,548.5h-16.2c19.4,0,35.3,15.9,35.3,35.3v81.8c0,19.5-15.9,35.3-35.4,35.3h16.2
	c19.4,0,35.4-15.9,35.4-35.3v-81.8C219.3,564.4,203.4,548.5,183.9,548.5L183.9,548.5z"/>
<path class="st30" d="M213.1,626.5h-8.1c-6.3,0-11.4,5.2-11.4,11.4v27.5c0,6.3,5.1,11.4,11.4,11.4h8.1c6.3,0,11.4-5.2,11.4-11.4V638
	C224.5,631.7,219.4,626.5,213.1,626.5z"/>
<path class="st13" d="M175.2,634.6H123c-7.4,0-13.4,6-13.4,13.4v24.3c0,7.4,6.1,13.4,13.4,13.4h52.1c7.4,0,13.4-6,13.4-13.4V648
	C188.6,640.7,182.5,634.6,175.2,634.6L175.2,634.6z"/>
<path class="st30" d="M173.7,634.6h-18.4c8.2,0,14.9,6,14.9,13.4v24.3c0,7.4-6.7,13.4-14.9,13.4h18.4c8.2,0,14.9-6,14.9-13.4V648
	C188.6,640.7,181.9,634.6,173.7,634.6z"/>
<path class="st4" d="M299.2,456.1c1.1-2.8,1.7-5.9,1.7-9c0-13.8-11.1-24.9-24.9-24.9c-3.5,0-6.9,0.8-9.9,2
	c-3.4-9.7-12.6-16.6-23.5-16.6c-12.9,0-23.6,9.9-24.8,22.5c-4.6-4.9-11-7.9-18.2-7.9c-13.8,0-24.9,11.1-24.9,24.9
	c0,8.2,3.9,15.5,10.1,20c-13.5,2.1-23.9,13.8-23.9,27.9c0,15.5,12.6,28.2,28.2,28.2c1.2,0,2.5-0.1,3.7-0.2
	c4.4,8.7,13.4,14.5,23.7,14.5s19.1-5.8,23.5-14.2c4.1,2.5,8.9,4,13.9,4c13.1,0,23.8-9.4,26.1-21.8c2.5,0.9,5.3,1.2,8.1,1.2
	c14.6,0,26.5-11.9,26.5-26.5C314.7,469.5,308.3,460.3,299.2,456.1L299.2,456.1z"/>
<rect x="454.3" y="678.3" class="st33" width="103.8" height="116.3"/>
<ellipse transform="matrix(0.3827 -0.9239 0.9239 0.3827 -361.94 879.0181)" class="st33" cx="476.8" cy="710.3" rx="39.9" ry="39.9"/>
<path class="st34" d="M506.2,438.8L506.2,438.8c-24.5,0-44.6,20-44.6,44.6v25.5c0,24.6,20,44.6,44.6,44.6l0,0
	c24.5,0,44.6-20,44.6-44.6v-25.5C550.8,458.8,530.8,438.8,506.2,438.8L506.2,438.8z"/>
<path class="st34" d="M516.8,487.9c-13.5,0-24.5,11-24.5,24.6v36.7c0,13.5,11,24.5,24.5,24.5s24.5-11,24.5-24.5v-36.7
	C541.3,499,530.3,487.9,516.8,487.9z"/>
<path class="st35" d="M506.2,537.8L506.2,537.8c-28.5,0-51.9,20-51.9,44.3v96.2h103.9v-96.2C558.2,557.7,534.8,537.8,506.2,537.8z"
	/>
<path class="st36" d="M536.1,582.1v96.2h22v-96.2c0-10.2-4.1-19.7-11-27.2C540.2,562.4,536.1,571.8,536.1,582.1z"/>
<path class="st4" d="M516.2,436.1c-23.9,0-40.8,22.4-37.8,50s24.9,50.1,48.8,50.1c23.9,0,40.8-22.4,37.8-50
	C562,458.5,540.1,436.1,516.2,436.1L516.2,436.1z"/>
<circle class="st5" cx="491.2" cy="470" r="36.2"/>
<circle class="st5" cx="556.5" cy="457.4" r="24.6"/>
<path class="st34" d="M438.2,551.8l-51.4-43.2c-9.7-8.1-24.2-6.9-32.4,2.8c-8.1,9.7-6.9,24.2,2.8,32.3l51.4,43.2
	c9.7,8.2,24.2,6.9,32.4-2.8S447.9,560,438.2,551.8z"/>
<path class="st35" d="M488.7,549.2l-64.2-2.8c-12.7-0.5-23.4,9.3-24,22c-0.5,12.7,9.3,23.4,22,24l64.2,2.8c12.7,0.5,23.4-9.3,24-22
	C511.2,560.5,501.4,549.8,488.7,549.2z"/>
<path class="st35" d="M557.5,552.3c-5.8-11.3-19.8-15.7-31.1-9.8s-15.7,19.8-9.8,31.1l33.7,64.6c5.8,11.3,19.8,15.7,31.1,9.8
	c11.3-5.8,15.7-19.8,9.8-31.1L557.5,552.3z"/>
<path class="st24" d="M499.9,652.3h-45.5c-12.1,0-22,9.9-22,22v21c0,12.1,9.9,22,22,22h45.5c12.1,0,21.9-9.9,21.9-22v-21
	C521.8,662.2,511.9,652.3,499.9,652.3L499.9,652.3z"/>
<path class="st34" d="M587,611.3c-9-9-23.5-8.9-32.5,0.1c-9,9-8.9,23.5,0.1,32.5l36,35.7c9,9,23.5,8.9,32.5-0.1S632,656,623,647
	L587,611.3z"/>
<circle class="st15" cx="376.7" cy="520.7" r="29.2"/>
<rect x="463.3" y="794.7" class="st15" width="38.2" height="84.3"/>
<path class="st34" d="M497.6,861.8h-34.3v7.6c0,4.2,3.4,7.6,7.6,7.6h26.7c4.2,0,7.6-3.4,7.6-7.6S501.8,861.8,497.6,861.8
	L497.6,861.8z"/>
<path class="st35" d="M508.4,868.6h-45.1v10c0,5.5,4.5,10,10,10h35.1c5.5,0,10-4.5,10-10S514,868.6,508.4,868.6L508.4,868.6z"/>
<rect x="513" y="794.7" class="st15" width="38.2" height="84.3"/>
<path class="st34" d="M547.3,861.8H513v7.6c0,4.2,3.4,7.6,7.6,7.6h26.7c4.2,0,7.6-3.4,7.6-7.6S551.5,861.8,547.3,861.8z"/>
<path class="st35" d="M558.2,868.6h-45.1v10c0,5.5,4.5,10,10,10h35.1c5.5,0,10-4.5,10-10S563.7,868.6,558.2,868.6z"/>
<circle class="st15" cx="610.7" cy="656.8" r="29.2"/>
<path class="st24" d="M544.8,531.3c-3.1-3.6-8.5-4-12.2-0.9c-3.6,3.1-4,8.5-0.9,12.2c5.2,6,8.7,13.8,10.4,22.8
	c1.8,9.2,1.5,19.7-0.8,30.5c-3.9,18-13,34.5-25,46.9c-11.6,12.2-25.8,20.3-40,22.1c-4.8,0.5-8.1,4.8-7.5,9.6
	c0.5,4.8,4.9,8.2,9.6,7.5c18.4-2.2,36.1-12.4,50.5-27.3c14-14.7,24.8-34,29.4-55.2c2.8-13,3.1-25.8,0.9-37.3
	C556.9,550.3,552,539.7,544.8,531.3L544.8,531.3z"/>
<path class="st31" d="M759,827.8c-4,0-7.4,3.3-7.4,7.4v11.3c0,4.1,3.3,7.4,7.4,7.4s7.4-3.3,7.4-7.4v-11.3
	C766.4,831.1,763.1,827.8,759,827.8z"/>
<path class="st37" d="M775.3,845.7h-55.5v32.7c0,4.7,3.8,8.5,8.5,8.5h59.1c4.7,0,8.5-3.8,8.5-8.5v-12.1
	C795.8,855,786.6,845.7,775.3,845.7L775.3,845.7z"/>
<path class="st6" d="M728.1,840.8h-1.8c-3.6,0-6.5,3-6.5,6.5s3,6.5,6.5,6.5h1.8c3.6,0,6.5-3,6.5-6.5S731.7,840.8,728.1,840.8z"/>
<path class="st6" d="M795.2,872.1h-74.7c-2,0-3.7,1.7-3.7,3.7v8.5c0,2,1.7,3.7,3.7,3.7h74.7c2,0,3.7-1.7,3.7-3.7v-8.5
	C798.8,873.7,797.2,872.1,795.2,872.1z"/>
<path class="st31" d="M812.6,827.8c-4.1,0-7.4,3.3-7.4,7.4v11.3c0,4.1,3.3,7.4,7.4,7.4s7.4-3.3,7.4-7.4v-11.3
	C820,831.1,816.7,827.8,812.6,827.8z"/>
<path class="st38" d="M828.9,845.7h-55.5v32.7c0,4.7,3.8,8.5,8.5,8.5H841c4.7,0,8.5-3.8,8.5-8.5v-12.1
	C849.5,855,840.2,845.7,828.9,845.7L828.9,845.7z"/>
<path class="st6" d="M781.7,840.8H780c-3.6,0-6.5,3-6.5,6.5s3,6.5,6.5,6.5h1.8c3.6,0,6.5-3,6.5-6.5S785.3,840.8,781.7,840.8z"/>
<path class="st6" d="M848.8,872.1h-74.7c-2,0-3.7,1.7-3.7,3.7v8.5c0,2,1.7,3.7,3.7,3.7h74.7c2,0,3.7-1.7,3.7-3.7v-8.5
	C852.5,873.7,850.8,872.1,848.8,872.1z"/>
<path class="st34" d="M785,425.4L785,425.4c-27,0-49.1,22.1-49.1,49.1v12.3c0,27,22.1,49.1,49.1,49.1l0,0c27,0,49.1-22.1,49.1-49.1
	v-12.3C834.2,447.4,812.1,425.3,785,425.4L785,425.4z"/>
<path class="st34" d="M788.1,496.8h-16c-9.6,0-17.5,7.9-17.5,17.5v15.3c0,9.6,7.8,17.5,17.5,17.5h16c9.6,0,17.5-7.8,17.5-17.5v-15.3
	C805.5,504.6,797.7,496.8,788.1,496.8z"/>
<path class="st4" d="M736,494.8c0,12.4,10.2,22.5,22.5,22.5h26.4c12.4,0,22.5-10.1,22.5-22.5v-22.5H736V494.8z"/>
<circle class="st29" cx="808.3" cy="482.1" r="14.8"/>
<path class="st39" d="M853,463.4h-53.5c-3.6,0-6.5,3-6.5,6.5s3,6.5,6.5,6.5H853c3.6,0,6.5-3,6.5-6.5S856.6,463.4,853,463.4z"/>
<path class="st39" d="M803.8,415.8h-37.5c-16.7,0-30.3,13.6-30.3,30.4v30.4h98.2v-30.4C834.2,429.4,820.5,415.8,803.8,415.8
	L803.8,415.8z"/>
<path class="st4" d="M760.6,440.3h-0.3c-9.8,0-17.7,8-17.7,17.7v6.2h35.8V458C778.3,448.2,770.3,440.3,760.6,440.3z"/>
<path class="st37" d="M742.5,470.3c0,3.4,2.8,6.1,6.1,6.1h29.7v-12.2h-29.7C745.3,464.2,742.5,466.9,742.5,470.3z"/>
<path class="st28" d="M772.8,533.2c-29.2,0-53.2,23.9-53.2,53.2v78.3c0,29.2,23.9,53.1,53.2,53.1s53.2-23.9,53.2-53.1v-78.3
	C825.9,557.1,802,533.2,772.8,533.2z"/>
<rect x="719.6" y="667.8" class="st40" width="60.8" height="183.8"/>
<rect x="765.1" y="667.8" class="st41" width="60.8" height="183.8"/>
<path class="st13" d="M765.1,713.3c25.1,0,45.5-20.3,45.5-45.5h-91C719.6,692.9,739.9,713.3,765.1,713.3z"/>
<path class="st37" d="M759.5,522.5c-4.3-4.3-10.2-7-16.8-7s-12.5,2.7-16.8,7s-7,10.2-7,16.8v13.2c0,3,2.5,5.5,5.5,5.5
	s5.5-2.5,5.5-5.5v-13.2c0-3.5,1.4-6.6,3.7-8.9c2.3-2.3,5.5-3.7,8.9-3.7s6.6,1.4,8.9,3.7l0,0c2.3,2.3,3.7,5.5,3.7,8.9v13.2
	c0,3,2.5,5.5,5.5,5.5s5.5-2.5,5.5-5.5v-13.2C766.5,532.7,763.8,526.8,759.5,522.5L759.5,522.5z"/>
<path class="st37" d="M753,541.2h-20.6c-23,0-41.8,18.8-41.8,41.8v58c0,23,18.8,41.8,41.8,41.8H753c23,0,41.8-18.8,41.8-41.8v-58
	C794.8,560,776,541.2,753,541.2z"/>
<path class="st37" d="M745.9,626.2h-51.3c-7.5,0-13.5,6.1-13.5,13.5v29.5c0,7.5,6.1,13.5,13.5,13.5h51.3c7.5,0,13.5-6.1,13.5-13.5
	v-29.5C759.5,632.3,753.4,626.2,745.9,626.2z"/>
<path class="st38" d="M748.5,667.4c0,8.5,7,15.5,15.5,15.5h15.3c8.5,0,15.5-7,15.5-15.5v-36.6h-46.3L748.5,667.4L748.5,667.4z"/>
<circle class="st42" cx="711.8" cy="647.9" r="5.3"/>
<path class="st37" d="M798.2,528.3c-12.2,0-23.2,5-31.2,13s-13,19.1-13,31.2v31.8c0,6.1,5,11,11,11s11-5,11-11v-31.8
	c0-6.1,2.5-11.6,6.5-15.7c4-4,9.5-6.5,15.7-6.5s11.6,2.5,15.7,6.5c4,4,6.5,9.5,6.5,15.7v31.8c0,6.1,5,11,11,11s11-5,11-11v-31.8
	c0-12.2-5-23.2-13-31.2S810.4,528.3,798.2,528.3z"/>
<path class="st34" d="M880.7,561c-9.9-7.1-23.7-4.8-30.8,5L808,624.3c-7.1,9.9-4.8,23.7,5,30.8c9.9,7.1,23.7,4.8,30.8-5l41.9-58.3
	C892.8,581.9,890.6,568.1,880.7,561z"/>
<path class="st28" d="M819.8,563.3c-4.6-11.3-17.5-16.8-28.8-12.2c-11.3,4.6-16.8,17.5-12.2,28.8l26.5,65.7
	c4.6,11.3,17.5,16.8,28.8,12.2c11.3-4.6,16.8-17.5,12.2-28.8L819.8,563.3z"/>
<rect y="888" class="st43" width="1500" height="112"/>
<path class="st16" d="M1350.9,495.3v148c0,6.4,5.2,11.7,11.7,11.7H1500V483.7h-137.4C1356.2,483.7,1350.9,488.9,1350.9,495.3
	L1350.9,495.3z"/>
<rect x="1366.8" y="483.6" class="st7" width="31.8" height="171.3"/>
<rect x="1471" y="483.6" class="st33" width="29" height="171.3"/>
<path class="st16" d="M1343.2,486.1L1343.2,486.1c0,4.1,3.4,7.5,7.5,7.5H1500v-15h-149.2C1346.6,478.6,1343.2,482,1343.2,486.1z"/>
<path class="st20" d="M1465.3,478.6h-102.1c-4.2,0-7.5,3.4-7.5,7.5l0,0c0,4.1,3.4,7.5,7.5,7.5h102.1c4.2,0,7.5-3.4,7.5-7.5l0,0
	C1472.8,482,1469.4,478.6,1465.3,478.6z"/>
<path class="st16" d="M1360.1,503.5h-24.4c-2.9,0-5.2,2.4-5.2,5.2s2.3,5.2,5.2,5.2h24.4c2.9,0,5.2-2.4,5.2-5.2
	S1363,503.5,1360.1,503.5z"/>
<rect x="1038.1" y="643.3" class="st17" width="461.9" height="244.5"/>
<path class="st32" d="M370.9,216.6c-4.5,0-8.5,1.7-11.6,4.6c-3-2.8-7.1-4.6-11.6-4.6s-8.5,1.7-11.6,4.6c-3-2.8-7.1-4.6-11.6-4.6
	c-9.5,0-17.1,7.6-17.1,17.1c0,0.4,0,0.9,0,1.4h80.5c0-0.4,0-0.9,0-1.4C388,224.2,380.3,216.6,370.9,216.6L370.9,216.6z"/>
</svg>
