<?xml version="1.0" encoding="UTF-8"?><svg id="d" xmlns="http://www.w3.org/2000/svg" viewBox="0 0 108 108"><path d="m54,108C24.18,108,0,83.82,0,54S24.18,0,54,0" fill="#e42313"/><path d="m49.52,40.24c-2.08,6.14-9.84,6.02-14.59,5.44-1.04.12-3.36.46-4.17.46-.12.35-.35,1.51-.46,2.78.46.23.93.35,1.39.58.23-.46.69-.81,1.04-.69s.46.69.35,1.16c1.04.35,1.97.58,2.78.69.12-.58.58-.93.93-.93s.69.58.58,1.16c1.04.12,1.97.12,2.9.12,0-.58.23-1.04.69-1.04.35,0,.69.35.81.93.81-.12,1.62-.35,2.43-.58.12,0,.23-.12.35-.12-.23-.58-.12-1.04.23-1.27s.81.12,1.16.58c.93-.46,1.62-1.16,2.32-1.85-.46-.35-.69-.93-.46-1.27.23-.35.81-.35,1.39,0,.46-.69.93-1.51,1.16-2.32-.69-.12-1.16-.58-1.04-.93.12-.46.69-.69,1.39-.58h0c0-1.04-.35-1.97-1.16-2.32Zm-9.15,16.68c-1.85,1.74-5.67,4.28-8.45,1.62-1.51-1.39-4.17-4.86-2.43-12.16v-.23c0-.69-.46-1.16-.93-1.16-.46.12-.69.69-.69,1.39-.69,0-1.39,0-2.2.12,0-.58-.35-1.16-.81-1.16-.35,0-.69.46-.69,1.04-1.16,0-2.32-.12-3.24-.23.81,0,1.74-.12,2.66-.12.12-.81.58-1.39,1.16-1.51.58,0,1.16.12,1.51,1.27.35,0,.69,0,.93-.12.12-.81.69-1.27,1.27-1.39.69,0,1.39.46,1.51,1.16.93-.12,1.74-.23,2.66-.35-.12-.69.23-1.27.58-1.27.46,0,.81.46.93,1.04,1.04-.12,1.97-.35,3.01-.58h0c-.12-.69.12-1.27.46-1.39.46-.12.93.35,1.04,1.04,1.04-.23,2.08-.58,3.01-.93-.23-.58-.23-1.27.23-1.39.35-.23.93.23,1.16.81,1.04-.46,1.85-1.04,2.66-1.62-.46-.46-.46-1.16-.23-1.39.35-.23.93-.12,1.39.46.81-.69,1.39-1.51,1.97-2.43-.58-.35-.93-.81-.81-1.27.23-.35.81-.46,1.39-.12.35-1.16.23-2.2-.12-3.13-.58.35-1.27.35-1.51,0s0-.93.58-1.27c-.81-.81-1.74-1.39-2.55-1.51.69,4.98-4.63,7.18-11.23,8.69-5.56,1.27-10.42.58-15.29,5.44,3.24-4.52,7.06-4.98,12.97-5.79,1.27-2.78,1.74-5.1,1.51-6.72.69.46,1.74.93,3.01.69,1.85-.35,3.01-1.27,3.47-2.66-1.85,1.39-5.1,1.39-6.6,1.39-.12-.46-.46-1.16-.93-1.51.46-.12,1.04.23,1.39.35.69.12,4.4-1.85,4.4-1.85,0,0-5.21,0-6.14.12,0,0-.12,0-.35.12-.12.12-.35.23-.58.46-1.97-.93-5.79-.69-7.64.23-1.97.93-1.74,3.13-1.74,3.13,0,0,1.16-.81,1.85-.81.35,0,2.55,0,3.36.35.23.12.35.12.35.46-1.27-.12-2.55-.23-2.55-.23,0,0,2.66.58,2.55,1.39-.35,2.32-.58,2.78-3.01,3.71-3.13,1.04-4.17,1.16-6.14,4.63-.81,1.39-1.39,2.9-1.39,2.9,0,0-3.13-2.9-4.52-5.91,0-.12,0-.46.12-.69.46-1.39,2.08-2.55,3.24-3.59,1.51-1.27,1.74-1.97,1.74-3.01.46-1.51-.46-2.08-.93-2.08.69.46.35,1.39-.23,1.74-1.04.69-.69,1.39-1.04,2.2-.69,1.16-1.62,2.2-2.32,2.55.46-1.97,1.74-3.36,1.39-5.56.35-.93-.35-1.74-1.39-1.51.46.35.81.93.23,1.51-.23.23-.93.81-.81,1.62.35,1.62,0,3.13-.58,3.82-.69-2.78-.12-3.82-1.16-4.86-.12-.58-.93-1.51-1.97-.58,1.62,0,.58,1.16.81,1.85s.69,1.04,1.16,2.2c.35.81.69,1.97-.58,3.59-1.51,1.97-2.66,1.16-2.9,2.2-.23.69-.81.81-1.51.69.12.58.93.93,1.51.58,1.51.46,1.97-1.62,3.13-2.32.46-.23.69,0,.81.35.93,1.62,2.66,6.14,4.17,9.03.69-.23,1.74-.23,2.43-.12,0,.35-.12,1.04-.12,1.62-1.85.46-4.28,1.16-7.99,1.51.23-2.32,2.55-4.63,1.39-6.25,0-1.04-.58-1.51-1.39-1.39.58.23.58,1.04.46,1.27s-.46.69-.46.93c-.12.81.69.93-.58,4.52-.58-1.85.12-3.94-.93-4.98-.23-.81-.93-1.39-2.08-.69.46-.12,1.39.23,1.04,1.16-.58,1.16.35,1.51.69,2.78.23.69.23,1.39.23,2.08-1.74-1.74-1.51-2.9-2.78-3.24-.58-.93-1.74-.69-2.08,0,.35-.23,1.39.12,1.39,1.16.12,1.27.58,1.04,1.39,1.51,1.39.93,2.08,2.43,1.97,3.24-.12.81-1.04,1.62-1.27,2.08-.23.58,0,.81.12,1.04.12.35-.12.93-.69,1.16.35,0,.93,0,1.51-.81,1.04-.12,1.16-2.32,1.27-3.24,0-.35.46-.35.58-.35,2.55-.12,7.3-.35,9.84-.46,1.51-2.08,3.24-4.28,6.6-4.28-3.01,1.16-4.52,3.01-5.33,4.28.46,2.08,5.1,4.86,4.28,9.96-.35-1.97-1.39-3.13-2.08-3.71-.81-.23-2.9-.58-3.82-.12-2.43,1.04.23,5.79.12,8.8-2.08-.12-5.44-.69-5.44-2.9.69-1.74,2.32-3.71,1.39-4.98.12-.81,0-1.62-.69-1.85.12.35,0,1.27-.58,1.62-1.39.58-.12,3.82-1.27,3.71-.93-.12,0-2.9-1.51-3.24,0-.46-.69-1.62-1.85-1.04.58.12.93,1.04.81,1.62-1.51,1.62,1.62,2.55,1.04,3.47-.46.69-1.74-1.16-3.13.12-.35-.12-1.97.12-2.08,1.16.58-.46,1.39-.46,1.85-.12.46,1.85,2.55.46,3.24.81.69.35.93,1.39.58,2.32,3.59,3.59,9.73,3.59,11.58,3.24,0-1.51,0-6.83,2.32-6.95,2.9,4.75,4.63,4.63,7.41,5.67,1.39,2.2.35,6.83-1.85,7.3-1.16-.58.23-2.55-1.51-3.24,0-.58-.58-1.39-1.62-1.16.46.23.81,1.04.69,1.51-1.16,1.39,1.51,2.66.93,3.47-.69.93-1.85-2.08-3.47-1.16-1.27-.23-1.97.46-2.08.81.58-.12.93-.12,1.51.23-.23,1.74,3.13.93,3.24,1.74.12,1.27-2.66.35-3.01,2.08-1.27.46-1.27,1.97-.93,2.2,0-.58.69-1.04,1.16-1.16.58.69,1.27.69,2.55-.23,1.16-.81,4.75-3.36,6.02-1.97,2.9-3.24,3.01-7.53,3.36-9.61-.35-2.43-5.1-5.44-4.98-9.96,4.86.81,7.3-1.85,8.69-3.24,1.51-1.51,4.4-4.05,6.6-2.2s-.46,6.95-2.9,8.92c-4.4.93-4.75,6.95-1.74,9.5-.81-4.17,3.13-4.05,2.55-8.92,2.32-1.85,5.91-8.11,3.24-10.65-2.78-2.78-6.72,0-8.92,2.08Zm-13.09-27.1h-.93c0-.46.35-.69.69-.69,0,0,2.32,0,3.01.12.69,0,.69.93.46.93,0-.12,0-.23-1.04-.23-.23,0-.23.69-1.04.69-.69,0-.58-.81-1.16-.81Z" fill="#ffdf43"/><path d="m54,0c29.82,0,54,24.18,54,54s-24.18,54-54,54"/><path d="m90.99,54.73v5.69h-5.3v-21.09h5.05v-14.36h-5.69v8.67h-5.3v-8.67h-5.69v8.67h-5.3v-8.67h-5.69v14.36h5.05v21.09h-5.3v-5.69h-5.69v8.15h1.55v21.48h36.48v-21.35h1.55v-8.15h-5.69v-.13Zm-15.27-9.57v-2.46l1.42-2.33,1.42,2.33v5.95h-2.85v-3.49Zm2.98,32.21v4.53h-3.62v-9.06l1.81-2.98,1.81,2.98v4.53Z" fill="#ad8a30"/></svg>