<?xml version="1.0" encoding="UTF-8"?><svg id="e" xmlns="http://www.w3.org/2000/svg" viewBox="0 0 108 108"><circle cx="54" cy="54" r="54" fill="#fff"/><g id="f"><path d="m53.67,103.21c-2.03-1.17-4.03-2.46-5.97-3.82l-.35-.24.19-.38c1.83-3.77,2.83-8.31,2.83-12.79v-39.17h-20.72c-5.61,0-11.09,1.02-14.32,2.67l-.58.3-.13-.64c-.85-4.13-1.38-8.37-1.58-12.62l-.05-1.09.86.67c2.79,2.18,8.93,3.59,15.63,3.59h20.89v-18.91c0-6.1-1.17-11.78-3.05-14.85l-.47-.76h14.16l-.46.76c-1.89,3.12-3.06,8.87-3.06,15.02v18.74h20.98c6.61,0,12.71-1.38,15.54-3.52l.85-.65-.05,1.07c-.2,4.21-.73,8.41-1.56,12.5l-.13.64-.58-.29c-3.23-1.62-8.68-2.63-14.23-2.63h-20.81v39.17c0,4.2,1.06,8.84,2.9,12.74l.18.38-.34.24c-1.97,1.38-4,2.69-6.05,3.87l-.25.15-.25-.15Z" fill="#fd0"/><path d="m60.12,5.67c-2.01,3.32-3.14,9.36-3.14,15.28v19.24h21.48c6.04,0,12.62-1.19,15.84-3.62-.2,4.23-.73,8.38-1.55,12.42-3.44-1.73-9-2.68-14.45-2.68h-21.31v39.67c0,4.44,1.15,9.16,2.95,12.96-1.94,1.37-3.95,2.65-6.01,3.84-2.04-1.18-4.02-2.45-5.93-3.79,1.78-3.68,2.88-8.24,2.88-13.01v-39.67h-21.22c-5.51,0-11.11.97-14.54,2.73-.84-4.08-1.37-8.27-1.57-12.54,3.18,2.49,9.84,3.7,15.94,3.7h21.39v-19.41c0-5.61-1.02-11.69-3.13-15.11h12.38m1.78-1h-15.94l.94,1.52c1.84,2.99,2.98,8.57,2.98,14.58v18.41h-20.39c-6.6,0-12.62-1.37-15.32-3.49l-1.72-1.34.1,2.18c.2,4.28.73,8.55,1.59,12.7l.26,1.29,1.17-.6c3.15-1.62,8.55-2.62,14.09-2.62h20.22v38.67c0,4.41-.99,8.87-2.78,12.57l-.37.77.7.49c1.96,1.37,3.98,2.66,6.01,3.84l.5.29.5-.29c2.06-1.19,4.11-2.5,6.09-3.89l.69-.48-.36-.76c-1.81-3.84-2.85-8.4-2.85-12.53v-38.67h20.31c5.48,0,10.84.99,14.01,2.58l1.17.59.26-1.28c.84-4.11,1.37-8.35,1.57-12.58l.1-2.14-1.7,1.29c-2.74,2.08-8.73,3.42-15.24,3.42h-20.48v-18.24c0-5.97,1.17-11.76,2.99-14.76l.92-1.52h0Z"/></g></svg>