<?xml version="1.0" encoding="UTF-8"?><svg id="g" xmlns="http://www.w3.org/2000/svg" viewBox="0 0 108 108"><polygon points="9.79 0 9.79 0 9.8 0 9.79 0" fill="#d0d0ce"/><g><path d="m29.19,84.29h0s0,0,0,0l24.81-30.29H0s0,0,0,0c0,29.82,24.18,54,54,54,18.59,0,34.99-9.4,44.7-23.71H29.19Z" fill="#007096"/><path d="m88.2,12.22C78.89,4.58,66.98,0,54,0S29.11,4.58,19.8,12.22l34.2,41.78L88.2,12.22Z" fill="#007096"/><path d="m88.2,12.22l-34.2,41.78L19.8,12.22C7.71,22.12,0,37.16,0,53.99h14.58s39.42,0,39.42,0l-24.81,30.29s0,0,0,0h0s0,.01,0,.01h69.51c5.87-8.64,9.3-19.07,9.3-30.29,0-16.84-7.71-31.88-19.8-41.78Z" fill="#d0d0ce"/></g></svg>