<?xml version="1.0" encoding="utf-8"?>
<!-- Generator: Adobe Illustrator 27.3.1, SVG Export Plug-In . SVG Version: 6.00 Build 0)  -->
<svg version="1.1" id="a" xmlns="http://www.w3.org/2000/svg" xmlns:xlink="http://www.w3.org/1999/xlink" x="0px" y="0px"
	 viewBox="0 0 500 500" style="enable-background:new 0 0 500 500;" xml:space="preserve">
<path d="M250,0C111.9,0,0,111.9,0,250s111.9,250,250,250s250-111.9,250-250S388.1,0,250,0z M126.6,125.7c14.7,0,26.6,11.9,26.6,26.6
	s-11.9,26.6-26.6,26.6S100,166.9,100,152.2S111.9,125.7,126.6,125.7z M126.6,374.3c-14.7,0-26.6-11.9-26.6-26.6
	c0-14.7,11.9-26.6,26.6-26.6s26.6,11.9,26.6,26.6C153.1,362.4,141.2,374.3,126.6,374.3z M145.3,268.7c-10.4,10.4-27.2,10.4-37.6,0
	s-10.3-27.2,0-37.6s27.2-10.4,37.6,0C155.7,241.5,155.7,258.4,145.3,268.7z M376.1,371.7H176.5c-1.6,0-2.6-1.7-1.9-3.1
	c3.3-6.2,5.1-13.3,5.1-20.8c0-7.5-1.9-14.6-5.1-20.8c-0.7-1.4,0.3-3.1,1.9-3.1h199c0,0,0,0,0,0l0,0h0c13,0,24,10.1,24.5,23
	C400.5,360.5,389.6,371.7,376.1,371.7z M376.1,273.9H176.5c-1.6,0-2.6-1.7-1.9-3.1c3.3-6.2,5.1-13.3,5.1-20.8s-1.9-14.6-5.1-20.8
	c-0.7-1.4,0.3-3.1,1.9-3.1h199c13,0,24,9.4,24.5,23C400.5,262.7,389.6,273.9,376.1,273.9z M376.1,176.2H176.5
	c-1.6,0-2.6-1.7-1.9-3.1c3.3-6.2,5.1-13.3,5.1-20.8s-1.9-14.6-5.1-20.8c-0.7-1.4,0.3-3.1,1.9-3.1h199c13,0,24,10.1,24.5,23
	C400.5,165,389.6,176.2,376.1,176.2z"/>
</svg>
