<?xml version="1.0" encoding="UTF-8"?><svg id="a" xmlns="http://www.w3.org/2000/svg" viewBox="0 0 500 500"><path d="m250,40c56.09,0,108.83,21.84,148.49,61.51,39.66,39.66,61.51,92.4,61.51,148.49s-21.84,108.83-61.51,148.49-92.4,61.51-148.49,61.51-108.83-21.84-148.49-61.51c-39.66-39.66-61.51-92.4-61.51-148.49s21.84-108.83,61.51-148.49c39.66-39.66,92.4-61.51,148.49-61.51m0-40C111.93,0,0,111.93,0,250s111.93,250,250,250,250-111.93,250-250S388.07,0,250,0h0Z"/><path d="m375.52,323.85h-199.03c-1.58,0-2.64,1.68-1.91,3.08,3.26,6.23,5.11,13.32,5.11,20.83s-1.85,14.59-5.11,20.83c-.73,1.4.32,3.08,1.91,3.08h199.6c13.49,0,24.38-11.18,23.89-24.78-.46-12.96-11.5-23.04-24.47-23.04Z"/><path d="m375.52,226.09h-199.03c-1.58,0-2.64,1.68-1.91,3.08,3.26,6.23,5.11,13.32,5.11,20.83s-1.85,14.59-5.11,20.83c-.73,1.4.32,3.08,1.91,3.08h199.6c13.49,0,24.38-11.18,23.89-24.78-.46-12.96-11.5-23.04-24.47-23.04Z"/><path d="m375.52,128.34h-199.03c-1.58,0-2.64,1.68-1.91,3.08,3.26,6.23,5.11,13.32,5.11,20.83s-1.85,14.59-5.11,20.83c-.73,1.4.32,3.08,1.91,3.08h199.6c13.49,0,24.38-11.18,23.89-24.78-.46-12.96-11.5-23.04-24.47-23.04Z"/><circle cx="126.56" cy="152.24" r="26.56"/><ellipse cx="126.56" cy="250" rx="26.6" ry="26.53" transform="translate(-139.7 162.7) rotate(-45)"/><circle cx="126.56" cy="347.76" r="26.56"/></svg>