<svg class="ikon farge-programfag" alt="Ikon for Programfag" viewBox="0 0 100 50"><path d="m24.3,44.29H5.71v-19.29C5.71,14.6,13.99,6.08,24.3,5.71h0C25.9,3.59,27.76,1.67,29.83,0h-4.45s-2.8,0-2.8,0C10.11,0,0,10.11,0,22.58H0s0,0,0,0v27.42h29.83c-2.07-1.67-3.93-3.59-5.52-5.71Z"/><path d="m75.7,5.71h18.59v38.57h-18.59c-1.6,2.13-3.46,4.04-5.53,5.71h29.83V0h-29.83c2.07,1.67,3.93,3.59,5.52,5.71Z"/><path d="m50,50c13.8,0,25-11.2,25-25S63.8,0,50,0s-25,11.2-25,25,11.2,25,25,25Zm8.89-5.6c1.19-1.75,2.24-3.92,3.01-6.37,1.4.35,2.66.77,3.92,1.26-1.89,2.1-4.27,3.85-6.93,5.11Zm1.26-17.58c-.07,2.45-.42,4.69-.84,6.72-2.38-.42-4.9-.7-7.42-.77v-5.95h8.26Zm-8.26-3.64v-5.95c2.52-.07,5.04-.35,7.42-.77.42,2.03.77,4.27.84,6.72h-8.26Zm16.25,13.03c-1.68-.7-3.43-1.26-5.18-1.82.49-2.38.77-4.9.91-7.56h7.35c-.28,3.43-1.4,6.58-3.08,9.38Zm0-22.41c1.68,2.8,2.8,5.95,3.08,9.38h-7.35c-.14-2.66-.42-5.18-.91-7.56,1.75-.56,3.5-1.12,5.18-1.82Zm-2.31-3.08c-1.26.49-2.52.91-3.92,1.26-.77-2.45-1.82-4.62-3.01-6.37,2.66,1.26,5.04,3.01,6.93,5.11Zm-7.49,2.1c-2.1.35-4.2.56-6.44.7V4.06c2.45,1.05,4.9,4.13,6.44,8.75Zm-6.44,23.67c2.24.14,4.34.35,6.44.7-1.54,4.62-3.99,7.7-6.44,8.75v-9.45Zm-20.03-.28c-1.68-2.8-2.8-5.95-3.08-9.38h7.35c.14,2.66.42,5.18.91,7.56-1.75.56-3.5,1.12-5.18,1.82Zm2.31,3.08c1.26-.49,2.52-.91,3.92-1.26.77,2.45,1.82,4.62,3.01,6.37-2.66-1.26-5.04-3.01-6.93-5.11Zm13.94-12.47v5.95c-2.52.07-5.04.35-7.42.77-.42-2.03-.77-4.27-.84-6.72h8.26Zm-8.26-3.64c.07-2.45.42-4.69.84-6.72,2.38.42,4.9.7,7.42.77v5.95h-8.26Zm1.82,14.01c2.1-.35,4.2-.56,6.44-.7v9.45c-2.45-1.05-4.9-4.13-6.44-8.75Zm6.44-33.12v9.45c-2.24-.14-4.34-.35-6.44-.7,1.54-4.62,3.99-7.7,6.44-8.75Zm-7,1.54c-1.19,1.75-2.24,3.92-3.01,6.37-1.4-.35-2.66-.77-3.92-1.26,1.89-2.1,4.27-3.85,6.93-5.11Zm-9.24,8.19c1.68.7,3.43,1.26,5.18,1.82-.49,2.38-.77,4.9-.91,7.56h-7.35c.28-3.43,1.4-6.58,3.08-9.38Z"/><path d="m24.38,5.71s.01,0,0,0h0Z"/><path d="m24.38,5.71s-.02,0-.05,0c.02,0,.03,0,.05,0Z"/></svg>