<svg class="ikon farge-naturfag" alt="Ikon for Naturfag" viewBox="0 0 100 50"><path d="m28.44,44.29H5.71v-19.29C5.71,14.37,14.37,5.71,25,5.71h0s2.52,0,2.52,0h0c.88-1.75,2.01-3.73,3.61-5.71h-5.75s-2.8,0-2.8,0C10.11,0,0,10.11,0,22.58v27.42h18.99c6.11,0,9.44-5.71,9.44-5.71Z"/><path d="m68.81,2.56c1.69.2,4.19.91,6.85,3.16h18.63v38.57h-21.87l1.39,1.54v4.18h26.19V0h-32.28s.35.67,1.09,2.55Z"/><path d="m36,23.97l.46,9.4c-3.01-8.57-9.87-8.86-9.87-8.86,0,0,1.8,3.98,2.6,7.87.8,3.9,7.1,5.26,7.1,5.26,0,0,1.13,6.67-3.33,10.75-.62.57-.19,1.62.66,1.62h9.43c.76,0,1.21-.85.78-1.48-1.49-2.17-4.01-6.3-4.01-9.4,0-4.4-.19-6.34-.19-6.34,0,0,5.95-1.5,6.75-5.4.8-3.9,2.6-7.87,2.6-7.87,0,0-7.69,2.28-9.59,8.17l.06-2.13-.02-1.64s3.3-3.71,4.27-5.02c1.48-1.99,1.43-4.6,0-6.62C41.77,9.56,39.32,6.64,41.94,0c-6.09,3.68-7.83,8.78-9.58,12.26-1.09,2.16-1.32,4.55,0,6.62l3.63,5.09Z"/><path d="m54.07,13.21v13.95s6.49,6.47,6.49,6.47v11.77s-2.84,3.16-2.84,3.16v1.43h2.86s3.23,0,3.23,0h0s2.86,0,2.86,0v-1.43l-2.86-3.17v-11.77s4.56-4.58,4.56-4.58v-6.33c1.13-.29,2.2-.87,3.08-1.75,2.62-2.62,2.61-6.87,0-9.48-1.31-1.31-3.03-1.96-4.74-1.96-1.72,0-3.43.66-4.74,1.97-2.62,2.62-2.61,6.87,0,9.48.91.9,2.01,1.49,3.17,1.77v4.97s-2.96,2.97-2.96,2.97l-4.87-4.86v-12.61c1.13-.28,2.22-.87,3.12-1.76,2.62-2.62,2.61-6.87,0-9.48C59.11.66,57.39,0,55.67,0c-1.72,0-3.43.66-4.74,1.97-2.62,2.62-2.61,6.87,0,9.48.9.89,1.98,1.47,3.13,1.76Zm10.18,5.48c-.66-.66-1.02-1.53-1.02-2.46,0-.93.36-1.8,1.02-2.46.66-.66,1.53-1.02,2.46-1.02.93,0,1.8.36,2.46,1.02.66.66,1.02,1.53,1.02,2.46,0,.93-.36,1.8-1.02,2.46-.66.66-1.53,1.02-2.46,1.02-.93,0-1.8-.36-2.46-1.02Zm-11.03-14.44c.66-.66,1.53-1.02,2.46-1.02.93,0,1.8.36,2.46,1.02,1.36,1.35,1.36,3.56,0,4.91-.66.66-1.53,1.02-2.46,1.02-.93,0-1.8-.36-2.46-1.02-1.36-1.35-1.36-3.56,0-4.91Z"/></svg>