<svg class="ikon farge-yff" alt="Ikon for Yrkesfaglig fordypning" viewBox="0 0 100 50"><path d="m63.31,19.4c0,1.37-1.12,2.49-2.49,2.49h-1.78c-1.37,0-2.49-1.12-2.49-2.49h-.05v-.1c-2.34-.25-4.52-.71-6.4-1.37v5.99c0,1.27,1.02,2.28,2.28,2.28h15.08c1.27,0,2.29-1.02,2.29-2.28v-5.99c-1.93.66-4.11,1.12-6.45,1.37v.1Z"/><path d="m59.05,15.08h1.78c1.32,0,2.39,1.02,2.49,2.29,2.39-.25,4.57-.76,6.45-1.47v-2.13c0-1.27-1.02-2.28-2.28-2.28h-2.94v-1.27c0-1.52-1.27-2.84-2.84-2.84h-3.45c-1.57,0-2.84,1.27-2.84,2.84v1.27h-2.95c-1.27,0-2.28,1.02-2.34,2.28v2.13c1.88.71,4.06,1.22,6.45,1.47.1-1.27,1.17-2.29,2.49-2.29Zm-1.32-4.87c0-.31.25-.56.56-.56h3.45c.3,0,.56.25.56.56v1.27h-4.57v-1.27Z"/><path d="m59.05,17.01h1.78c.34,0,.61.27.61.61v1.78c0,.34-.27.61-.61.61h-1.78c-.34,0-.61-.27-.61-.61v-1.78c0-.34.27-.61.61-.61Z"/><path d="m81.96,5.71h12.33v38.57h-44.35l-5.93,5.71h56V0h-22.48c1.74,1.68,3.23,3.6,4.44,5.71Z"/><path d="m28,46.8l2.16,2.24c1.2,1.25,3.21,1.29,4.46.08l15.95-15.36c2.64,1.6,5.72,2.55,9.03,2.61,10.05.19,18.36-7.77,18.55-17.82C78.33,8.51,70.28.19,60.28,0c-10-.19-18.32,7.82-18.5,17.82-.06,3.31.77,6.43,2.27,9.13l-15.97,15.38c-1.25,1.2-1.29,3.21-.08,4.46ZM60.2,4.04c7.81.15,14.05,6.63,13.9,14.44s-6.63,14.05-14.44,13.9c-7.81-.15-14.05-6.63-13.9-14.44.15-7.81,6.63-14.05,14.44-13.9Z"/><path d="m19.99,44.29H5.71v-19.29C5.71,14.37,14.37,5.71,25,5.71h0s5.1,0,5.1,0h0s7.85,0,7.85,0C39.16,3.6,40.66,1.68,42.4,0h-19.82C10.11,0,0,10.11,0,22.58v27.42h21.5c-1.07-1.74-1.58-3.74-1.51-5.71Z"/></svg>