<svg class="ikon farge-kroppoeving" alt="Ikon for Kroppsøving" viewBox="0 0 100 50"><path d="m88.64,28.19c.66,0,1.19-.7,1.19-1.55s-.54-1.55-1.19-1.55h-6.22c-.66,0-1.19.7-1.19,1.55s.54,1.55,1.19,1.55h6.22Z"/><path d="m74.36,32.78c0,.86.54,1.55,1.19,1.55h9.43c.66,0,1.19-.7,1.19-1.55s-.54-1.55-1.19-1.55h-9.43c-.66,0-1.19.7-1.19,1.55Z"/><path d="m73.06,19.09c-9.17,8.38-18.34,16.76-27.48,25.17-.79.73-1.61.99-2.65.98-6.02-.03-12.05,0-18.07-.04-1.14,0-1.55.29-1.54,1.5.03,3.62.12,3.22,3.23,3.22,3.03,0,6.07,0,9.1,0,3.42,0,6.84.04,10.25-.04.65-.01,1.42-.33,1.9-.76,9.8-8.95,19.57-17.94,29.35-26.93,1.4-1.28,1.4-1.64.04-2.97q-2.05-2.01-4.13-.13Z"/><path d="m77.38,5.71h16.91v38.57h-30.66c-2.08,1.9-4.15,3.81-6.23,5.71h42.6V0h-27.8c2.03,1.64,3.75,3.55,5.18,5.71Z"/><path d="m16.17,46.76c0-.37.03-.71.06-1.05,0-.13.02-.27.03-.41,0-.02,0-.03,0-.05.02-.32.05-.64.09-.97H5.71v-19.29C5.71,14.37,14.37,5.71,25,5.71h0s5.1,0,5.1,0h0s21.58,0,21.58,0c.25-.27.71-.98.74-3.62l.02-2.1h-27.06,0s0,0,0,0h-2.8C10.11,0,0,10.11,0,22.58v27.42h16.47c-.19-.98-.29-2.05-.3-3.24Z"/><path d="m64.6,3.49c-.59-.32-1.65-.96-2.22-1.31h-2.82c-.04,3.35-.6,6.52-3.1,8.85-.62.57-1.26,1.06-1.94,1.47l-4.57,1.52c-.46.04-.92.07-1.39.06-3.27-.07-2.8-.08-3.86,2.72-.06.16-.29.77-.63,1.65l4.35,1.58c.18.06.32.19.4.36.08.17.09.36.03.54l-.41,1.14c-.1.28-.37.46-.67.46-.08,0-.16-.01-.24-.04l-4.39-1.59c-.29.77-.61,1.6-.93,2.45l4.43,1.61c.18.06.32.19.4.36.08.17.09.36.03.54l-.41,1.14c-.1.28-.37.46-.67.46-.08,0-.16-.01-.24-.04l-4.48-1.62c-.33.86-.64,1.69-.93,2.45l4.52,1.64c.36.13.55.54.42.9l-.41,1.14c-.1.28-.37.46-.66.46-.08,0-.16-.01-.24-.04l-4.56-1.65c-.31.81-.5,1.31-.5,1.31-.1,1.87-2.4,1.68-3.58,1.66-2.18-.04-3.08-.24-5.15.67,0,0-3.69,1.78-5.27,5.51-.33.77-.68,3.41.73,3.4,5.77-.04,11.05.03,16.81-.03.68,0,1.52-.33,2.02-.79,9.63-8.75,19.22-17.56,28.84-26.33.62-.57.63-1.08.39-1.81-1.63-4.78-4.64-8.39-9.09-10.79Z"/><path d="m88.64,37.34h-19.23c-.66,0-1.19.7-1.19,1.55s.54,1.55,1.19,1.55h19.23c.66,0,1.19-.7,1.19-1.55s-.54-1.55-1.19-1.55Z"/></svg>