<?xml version="1.0" encoding="UTF-8"?><svg id="a" xmlns="http://www.w3.org/2000/svg" viewBox="0 0 380.61 69.41"><path d="m76.52.92h17.64c4.82,0,8.2.44,10.16,1.32s3.61,2.43,4.95,4.65c1.34,2.22,2.02,4.74,2.02,7.55,0,2.59-.58,4.93-1.73,7.01-1.15,2.09-2.65,3.63-4.49,4.63,2.61.93,4.65,2.52,6.13,4.76,1.48,2.25,2.21,4.98,2.21,8.21,0,3.91-.94,7.21-2.82,9.91-1.88,2.7-4.1,4.37-6.67,5-1.78.44-5.92.66-12.42.66h-14.98V.92Zm8.86,8.94v12.42h5.86c3.52,0,5.69-.06,6.52-.18,1.51-.24,2.7-.88,3.55-1.92.85-1.04,1.28-2.45,1.28-4.23,0-1.59-.35-2.88-1.04-3.86s-1.54-1.61-2.53-1.85c-.99-.24-3.83-.37-8.52-.37h-5.13Zm0,21.35v14.32h8.26c3.62,0,5.94-.19,6.97-.57,1.03-.38,1.89-1.12,2.59-2.23.7-1.11,1.05-2.51,1.05-4.22s-.37-3.2-1.12-4.33c-.75-1.13-1.74-1.91-2.97-2.34-1.24-.43-3.76-.64-7.58-.64h-7.19Z"/><path d="m141.79,54.61v-5.82c-1.17,2.11-2.71,3.76-4.61,4.95s-3.89,1.78-5.96,1.78-3.97-.55-5.63-1.65-2.89-2.66-3.71-4.69-1.22-4.97-1.22-8.84V15.71h8.46v17.87c0,5.1.13,8.35.38,9.73.26,1.38.82,2.45,1.7,3.2.88.76,1.93,1.14,3.18,1.14,1.41,0,2.71-.49,3.91-1.48,1.19-.99,1.98-2.26,2.36-3.81.38-1.55.57-4.96.57-10.24V15.71h8.46v38.9h-7.87Z"/><path d="m166.55,54.61h-8.46V15.71h7.84v5.53c1.34-2.59,2.55-4.31,3.61-5.16,1.06-.85,2.29-1.28,3.68-1.28,1.93,0,3.77.65,5.53,1.94l-2.64,8.97c-1.39-1.12-2.71-1.68-3.96-1.68-1.17,0-2.2.43-3.09,1.3-.89.87-1.53,2.44-1.92,4.71-.39,2.27-.59,6.45-.59,12.54v12.03Z"/><path d="m182.12,15.71h7.84v5.71c1.08-2.05,2.49-3.67,4.26-4.85,1.76-1.18,3.66-1.78,5.69-1.78,3.64,0,6.78,1.74,9.41,5.21,2.63,3.47,3.94,8.4,3.94,14.79,0,6.7-1.32,11.83-3.96,15.39s-5.78,5.34-9.41,5.34c-1.69,0-3.25-.41-4.71-1.23-1.45-.82-2.99-2.3-4.6-4.45v19.56h-8.46V15.71Zm8.35,18.79c0,4.41.71,7.65,2.14,9.74,1.42,2.08,3.15,3.12,5.17,3.12s3.55-.96,4.86-2.88c1.32-1.92,1.97-5.06,1.97-9.42s-.68-7.19-2.03-9.17c-1.35-1.97-3-2.96-4.95-2.96-2.05,0-3.75.96-5.12,2.88s-2.05,4.82-2.05,8.69Z"/><path d="m234.87,37.11l8.68-1.03c.98,6.86,4.18,10.29,9.6,10.29,2.69,0,4.8-.7,6.34-2.11,1.54-1.4,2.31-3.14,2.31-5.22,0-1.22-.27-2.26-.81-3.11-.54-.85-1.35-1.56-2.45-2.11-1.1-.55-3.76-1.47-7.98-2.76-3.79-1.15-6.56-2.39-8.31-3.73-1.76-1.34-3.16-3.1-4.19-5.29s-1.56-4.53-1.56-7.05c0-2.93.67-5.56,2-7.91,1.33-2.34,3.17-4.11,5.51-5.31,2.34-1.2,5.24-1.79,8.68-1.79,5.18,0,9.22,1.4,12.12,4.21s4.44,6.83,4.62,12.05l-8.9.48c-.39-2.88-1.23-4.9-2.53-6.04-1.29-1.15-3.14-1.72-5.53-1.72s-4.24.5-5.53,1.5c-1.29,1-1.94,2.24-1.94,3.72s.59,2.69,1.76,3.69c1.17,1,3.87,2.1,8.1,3.29,4.47,1.29,7.7,2.66,9.69,4.09,1.99,1.43,3.51,3.27,4.56,5.53,1.05,2.26,1.57,5,1.57,8.22,0,4.66-1.44,8.58-4.3,11.76-2.87,3.17-7.36,4.76-13.46,4.76-10.79,0-16.8-6.14-18.02-18.42Z"/><path d="m299,54.61v-5.82c-1.17,2.11-2.71,3.76-4.61,4.95s-3.89,1.78-5.96,1.78-3.97-.55-5.63-1.65-2.89-2.66-3.71-4.69c-.82-2.03-1.22-4.97-1.22-8.84V15.71h8.46v17.87c0,5.1.13,8.35.38,9.73.26,1.38.82,2.45,1.7,3.2.88.76,1.94,1.14,3.18,1.14,1.41,0,2.71-.49,3.91-1.48,1.19-.99,1.98-2.26,2.36-3.81.38-1.55.57-4.96.57-10.24V15.71h8.46v38.9h-7.88Z"/><path d="m315.67,10.44V.92h8.46v9.52h-8.46Zm0,44.17V15.71h8.46v38.9h-8.46Z"/><path d="m347.35,15.71v8.2h-5.75v15.7c0,3.4.09,5.37.26,5.91.34.98,1.04,1.47,2.09,1.47.78,0,1.91-.33,3.37-.99l.73,7.99c-1.95,1.03-4.16,1.54-6.63,1.54-2.15,0-3.87-.51-5.16-1.54-1.29-1.03-2.16-2.51-2.6-4.44-.34-1.42-.51-4.3-.51-8.65v-16.98h-3.88v-8.2h3.88v-7.73l8.46-6.01v13.74h5.75Z"/><path d="m371.78,42.27l8.39,1.72c-1.13,3.91-2.87,6.81-5.24,8.7-2.37,1.89-5.26,2.84-8.66,2.84-4.72,0-8.36-1.58-10.93-4.73-3.03-3.67-4.55-8.81-4.55-15.41s1.53-11.72,4.58-15.63c2.59-3.3,5.93-4.95,10.04-4.95,4.57,0,8.14,1.69,10.73,5.06,2.98,3.86,4.47,9.56,4.47,17.1l-.04,1.17h-21.14c.05,3.09.74,5.48,2.08,7.17,1.33,1.69,2.94,2.54,4.83,2.54,2.72,0,4.53-1.86,5.44-5.57Zm.44-10.44c-.07-3.04-.72-5.33-1.94-6.86-1.22-1.53-2.67-2.3-4.36-2.3-1.78,0-3.28.8-4.5,2.39-1.25,1.62-1.86,3.87-1.83,6.77h12.64Z"/><rect y=".91" width="53.69" height="53.69" fill="#f63"/><polygon points="28.92 47.31 24.78 47.31 24.78 41.03 30.43 34.12 24.78 34.12 24.78 25.71 14.6 25.71 24.78 13.15 24.78 8.38 28.92 8.38 28.92 14.66 23.27 21.57 28.92 21.57 28.92 29.98 39.09 29.98 28.92 42.54 28.92 47.31" fill="#fff"/></svg>