<?xml version="1.0" encoding="utf-8"?>
<!-- Generator: Adobe Illustrator 27.5.0, SVG Export Plug-In . SVG Version: 6.00 Build 0)  -->
<svg version="1.1" id="a" xmlns="http://www.w3.org/2000/svg" xmlns:xlink="http://www.w3.org/1999/xlink" x="0px" y="0px"
	 viewBox="0 0 750 200" style="enable-background:new 0 0 750 200;" xml:space="preserve">
<style type="text/css">
	.st0{fill:#F2EBE2;}
	.st1{fill:#FF6633;}
</style>
<rect class="st0" width="750" height="200"/>
<g>
	<path d="M178.3,52.6h30.5c8.3,0,14.2,0.8,17.6,2.3c3.4,1.5,6.2,4.2,8.6,8s3.5,8.2,3.5,13.1c0,4.5-1,8.5-3,12.1
		c-2,3.6-4.6,6.3-7.8,8c4.5,1.6,8,4.4,10.6,8.2c2.6,3.9,3.8,8.6,3.8,14.2c0,6.8-1.6,12.5-4.9,17.1c-3.2,4.7-7.1,7.6-11.5,8.6
		c-3.1,0.8-10.2,1.1-21.5,1.1h-25.9C178.3,145.4,178.3,52.6,178.3,52.6z M193.6,68.1v21.5h10.1c6.1,0,9.8-0.1,11.3-0.3
		c2.6-0.4,4.7-1.5,6.1-3.3c1.5-1.8,2.2-4.2,2.2-7.3c0-2.7-0.6-5-1.8-6.7s-2.7-2.8-4.4-3.2c-1.7-0.4-6.6-0.6-14.7-0.6L193.6,68.1
		L193.6,68.1z M193.6,105v24.8h14.3c6.3,0,10.3-0.3,12-1c1.8-0.7,3.3-1.9,4.5-3.9c1.2-1.9,1.8-4.3,1.8-7.3c0-3-0.6-5.5-1.9-7.5
		c-1.3-2-3-3.3-5.1-4c-2.1-0.7-6.5-1.1-13.1-1.1L193.6,105L193.6,105z"/>
	<path d="M291.1,145.4v-10.1c-2,3.6-4.7,6.5-8,8.6c-3.3,2.1-6.7,3.1-10.3,3.1c-3.6,0-6.9-1-9.7-2.9c-2.9-1.9-5-4.6-6.4-8.1
		c-1.4-3.5-2.1-8.6-2.1-15.3V78.2h14.6v30.9c0,8.8,0.2,14.4,0.7,16.8c0.4,2.4,1.4,4.2,2.9,5.5c1.5,1.3,3.3,2,5.5,2
		c2.4,0,4.7-0.8,6.8-2.6c2.1-1.7,3.4-3.9,4.1-6.6s1-8.6,1-17.7V78.2h14.6v67.2H291.1L291.1,145.4z"/>
	<path d="M333.9,145.4h-14.6V78.2h13.6v9.6c2.3-4.5,4.4-7.5,6.2-8.9c1.8-1.5,4-2.2,6.4-2.2c3.3,0,6.5,1.1,9.6,3.4l-4.6,15.5
		c-2.4-1.9-4.7-2.9-6.8-2.9c-2,0-3.8,0.7-5.3,2.2c-1.5,1.5-2.6,4.2-3.3,8.1c-0.7,3.9-1,11.1-1,21.7L333.9,145.4L333.9,145.4z"/>
	<path d="M360.9,78.2h13.6V88c1.9-3.5,4.3-6.3,7.4-8.4c3-2,6.3-3.1,9.8-3.1c6.3,0,11.7,3,16.3,9c4.5,6,6.8,14.5,6.8,25.6
		c0,11.6-2.3,20.4-6.8,26.6c-4.6,6.2-10,9.2-16.3,9.2c-2.9,0-5.6-0.7-8.1-2.1c-2.5-1.4-5.2-4-8-7.7V171h-14.6L360.9,78.2L360.9,78.2
		z M375.3,110.7c0,7.6,1.2,13.2,3.7,16.8c2.5,3.6,5.4,5.4,8.9,5.4s6.1-1.7,8.4-5c2.3-3.3,3.4-8.7,3.4-16.3s-1.2-12.4-3.5-15.9
		c-2.3-3.4-5.2-5.1-8.6-5.1c-3.5,0-6.5,1.7-8.9,5S375.3,104,375.3,110.7L375.3,110.7z"/>
	<path d="M452,115.2l15-1.8c1.7,11.9,7.2,17.8,16.6,17.8c4.6,0,8.3-1.2,11-3.6c2.7-2.4,4-5.4,4-9c0-2.1-0.5-3.9-1.4-5.4
		c-0.9-1.5-2.3-2.7-4.2-3.6c-1.9-1-6.5-2.5-13.8-4.8c-6.6-2-11.3-4.1-14.4-6.4c-3-2.3-5.5-5.4-7.2-9.1c-1.8-3.8-2.7-7.8-2.7-12.2
		c0-5.1,1.2-9.6,3.5-13.7c2.3-4,5.5-7.1,9.5-9.2c4-2.1,9.1-3.1,15-3.1c9,0,15.9,2.4,21,7.3c5,4.9,7.7,11.8,8,20.8l-15.4,0.8
		c-0.7-5-2.1-8.5-4.4-10.4c-2.2-2-5.4-3-9.6-3c-4.1,0-7.3,0.9-9.6,2.6c-2.2,1.7-3.4,3.9-3.4,6.4s1,4.6,3,6.4c2,1.7,6.7,3.6,14,5.7
		c7.7,2.2,13.3,4.6,16.8,7.1s6.1,5.7,7.9,9.6s2.7,8.6,2.7,14.2c0,8.1-2.5,14.8-7.4,20.3c-5,5.5-12.7,8.2-23.3,8.2
		C464.6,147,454.2,136.4,452,115.2L452,115.2z"/>
	<path d="M562.9,145.4v-10.1c-2,3.6-4.7,6.5-8,8.6s-6.7,3.1-10.3,3.1s-6.9-1-9.7-2.9s-5-4.6-6.4-8.1c-1.4-3.5-2.1-8.6-2.1-15.3V78.2
		H541v30.9c0,8.8,0.2,14.4,0.7,16.8c0.4,2.4,1.4,4.2,2.9,5.5c1.5,1.3,3.4,2,5.5,2c2.4,0,4.7-0.8,6.8-2.6c2.1-1.7,3.4-3.9,4.1-6.6
		s1-8.6,1-17.7V78.2h14.6v67.2H562.9L562.9,145.4z"/>
	<path d="M591.7,69.1V52.6h14.6v16.5C606.3,69.1,591.7,69.1,591.7,69.1z M591.7,145.4V78.2h14.6v67.2
		C606.3,145.4,591.7,145.4,591.7,145.4z"/>
	<path d="M646.5,78.2v14.2h-9.9v27.1c0,5.9,0.2,9.3,0.4,10.2c0.6,1.7,1.8,2.5,3.6,2.5c1.3,0,3.3-0.6,5.8-1.7l1.3,13.8
		c-3.4,1.8-7.2,2.7-11.5,2.7c-3.7,0-6.7-0.9-8.9-2.7c-2.2-1.8-3.7-4.3-4.5-7.7c-0.6-2.5-0.9-7.4-0.9-15V92.4h-6.7V78.2h6.7V64.8
		l14.6-10.4v23.8L646.5,78.2L646.5,78.2z"/>
	<path d="M688.7,124.1l14.5,3c-2,6.8-5,11.8-9.1,15c-4.1,3.3-9.1,4.9-15,4.9c-8.2,0-14.5-2.7-18.9-8.2c-5.2-6.3-7.9-15.2-7.9-26.6
		s2.6-20.3,7.9-27c4.5-5.7,10.3-8.6,17.4-8.6c7.9,0,14.1,2.9,18.5,8.7c5.2,6.7,7.7,16.5,7.7,29.6l-0.1,2h-36.5
		c0.1,5.3,1.3,9.5,3.6,12.4c2.3,2.9,5.1,4.4,8.3,4.4C684,133.7,687.1,130.5,688.7,124.1L688.7,124.1z M689.5,106
		c-0.1-5.3-1.2-9.2-3.4-11.9s-4.6-4-7.5-4c-3.1,0-5.7,1.4-7.8,4.1c-2.2,2.8-3.2,6.7-3.2,11.7H689.5L689.5,106z"/>
	<path class="st1" d="M46,52.6v92.8h92.8V52.6H46z M96,124.6v8.2h-7.2v-10.9l9.8-11.9h-9.8V95.5H71.3l17.6-21.7v-8.2H96v10.9
		l-9.8,11.9H96v14.5h17.6L96,124.6z"/>
</g>
</svg>
