<?xml version="1.0" encoding="UTF-8"?><svg id="a" xmlns="http://www.w3.org/2000/svg" viewBox="0 0 500 500"><path d="m250,40c56.09,0,108.83,21.84,148.49,61.51,39.66,39.66,61.51,92.4,61.51,148.49s-21.84,108.83-61.51,148.49-92.4,61.51-148.49,61.51-108.83-21.84-148.49-61.51c-39.66-39.66-61.51-92.4-61.51-148.49s21.84-108.83,61.51-148.49c39.66-39.66,92.4-61.51,148.49-61.51m0-40C111.93,0,0,111.93,0,250s111.93,250,250,250,250-111.93,250-250S388.07,0,250,0h0Z"/><path d="m415.01,186.59c-.6-2.6-2.17-4.82-4.43-6.24l-150.37-94.35c-6.13-3.85-14.05-3.85-20.19,0l-55.23,34.6v-23.83c0-3.56-2.89-6.45-6.45-6.45h-34.14c-3.56,0-6.45,2.89-6.45,6.45v53.3l-48.33,30.28c-2.26,1.42-3.84,3.63-4.44,6.24-.6,2.6-.15,5.28,1.27,7.55l9.56,15.25c1.42,2.26,3.63,3.84,6.24,4.44.75.17,1.51.26,2.26.26,1.86,0,3.68-.52,5.29-1.53l140.49-88.03,140.28,88.02c4.67,2.93,10.85,1.51,13.79-3.16l9.57-15.25c1.42-2.26,1.87-4.94,1.28-7.55Z"/><path d="m386.12,238.04l-132.84-83.35c-1.95-1.22-4.42-1.22-6.37,0l-133.03,83.35c-1.75,1.1-2.81,3.02-2.81,5.08v140.04c0,3.31,2.69,6,6,6h155.79v-86.17c0-4.62,3.75-8.37,8.37-8.37h44.32c4.62,0,8.37,3.75,8.37,8.37v86.17h49.03c3.31,0,6-2.69,6-6v-140.04c0-2.06-1.06-3.98-2.81-5.08Zm-164.55,81.23c0,3.96-3.21,7.17-7.17,7.17h-37.98c-3.96,0-7.18-3.21-7.18-7.17v-37.98c0-3.96,3.21-7.18,7.18-7.18h37.98c3.96,0,7.17,3.21,7.17,7.18v37.98Z"/></svg>