<?xml version="1.0" encoding="UTF-8"?><svg id="a" xmlns="http://www.w3.org/2000/svg" viewBox="0 0 500 500"><polygon points="319.68 421.59 319.68 421.59 319.68 421.59 319.68 421.59"/><path d="m172.44,397.77v-.14c.35-4.37.54-6.78,2.98-6.78,1.54,0,4.02.93,8.57,3.22,32.82,16.45,99.59,37.28,130.3,46,4.43,1.26,10.05,3.95,11.65,9.57,1.9,6.69-2.36,15.8-12.67,27.06-7.47,8.3-16.6,14.93-26.8,19.47-9.35,4.1-19.45,6.2-29.65,6.19-7.99,0-15.93-1.24-23.54-3.66-7.68-2.44-14.96-6-21.6-10.56-13.98-9.58-24.74-23.16-30.86-38.97-3.33-8.52-4.2-13.48-2.73-15.63.67-.9,1.76-1.38,2.88-1.27,2.83.27,5.57,1.13,8.05,2.51,1.24.59,2.57,1.23,3.97,1.91,9.02,4.36,21.37,10.31,33.85,15.16l.7.27c18.78,7.31,29.12,11.34,36.47,11.34,5.78,0,9.67-2.42,14.39-8.92-5.51-2.23-11.08-4.69-16.98-7.29l-.1-.04c-8.16-3.6-16.6-7.32-25.48-10.71-16.73-6.39-35.02-13.8-35.79-14.11l-2.81-1.27c-11.86-5.34-18.4-8.27-21.74-11.09-3.25-2.74-3.59-5.37-3.15-10.59.05-.59.09-1.13.13-1.66Z"/><path d="m250,.27c-6.87,0-11.86,4.99-11.86,11.86v45.21c0,6.87,4.99,11.86,11.86,11.86s11.86-4.99,11.86-11.86V12.13c0-6.87-4.99-11.86-11.86-11.86Z"/><path d="m115.48,107.88c1.88,1.88,4.85,3.13,8.15,3.13,2.46,0,5.11-.7,7.61-2.37l.28-.2c2.4-1.8,3.91-4.67,4.14-7.85.25-3.46-1.06-6.98-3.48-9.41l-11.47-11.48c-2.27-2.27-5.23-3.52-8.35-3.52s-6.08,1.25-8.35,3.52c-4.67,4.68-4.67,12.01,0,16.69l11.47,11.48Z"/><path d="m368.12,108.16c2.16,2.02,4.87,3.09,7.8,3.09.58,0,1.18-.04,1.77-.13,2.63-.38,5.18-1.59,6.83-3.24l11.47-11.48c4.67-4.68,4.67-12.01,0-16.69-2.27-2.27-5.23-3.52-8.35-3.52s-6.08,1.25-8.35,3.52l-11.47,11.48c-2.43,2.43-3.73,5.95-3.48,9.41.21,3.02,1.58,5.75,3.77,7.56Z"/><path d="m105.69,196.41h-52.2c-6.76,0-11.67,4.91-11.67,11.68s4.91,11.68,11.67,11.68h52.2c6.76,0,11.67-4.91,11.67-11.68s-4.91-11.68-11.67-11.68Z"/><path d="m446.51,196.41h-52.2c-6.76,0-11.67,4.91-11.67,11.68s4.91,11.68,11.67,11.68h52.2c6.76,0,11.67-4.91,11.67-11.68s-4.91-11.68-11.67-11.68Z"/><path d="m365.88,289.65c-3.28-3.28-9.92-4.67-15.76-.77l-.28.2c-2.4,1.8-3.91,4.67-4.14,7.85-.25,3.46,1.05,6.98,3.48,9.41l11.47,11.48c2.27,2.27,5.23,3.52,8.35,3.52s6.08-1.25,8.35-3.52c4.67-4.68,4.67-12.01,0-16.69l-11.47-11.48Z"/><path d="m150.52,289.36c-2.13-1.99-4.89-3.08-7.82-3.08-3.17,0-6.54,1.32-8.58,3.37l-11.47,11.48c-4.67,4.68-4.67,12.01,0,16.69h0c2.27,2.27,5.23,3.52,8.35,3.52s6.08-1.25,8.35-3.52l11.47-11.48c2.43-2.43,3.73-5.95,3.48-9.41-.22-3.02-1.58-5.75-3.78-7.57Zm-23.54,24.13l4.31-4.34s.01,0,.02,0l-4.33,4.33Z"/><path d="m358.69,149.33c-5.74-14.32-14.34-27.31-25.28-38.19-21.63-21.46-51.25-33.27-83.41-33.27s-61.78,11.82-83.41,33.27c-10.94,10.88-19.54,23.87-25.28,38.19-6.26,15.76-9.41,32.58-9.27,49.53-.05,8.52,1.01,17,3.14,25.25,1.91,7.25,4.66,14.25,8.2,20.86,6.75,12.73,15.67,23.42,24.3,33.76,15.38,18.43,29.91,35.83,29.91,61.99.08,7.59-.54,9.05-.82,9.32-.02.03-.06.05-.1.06-1.63,1.02-3.42,1.74-5.31,2.13-1.97.47-3.86,1.2-5.65,2.15-.88.63-1.02,7.19-.64,12.91.27,4.1.73,6.71,1.23,6.98,12.97,7.01,24.29,12.83,37.39,18.39,11.6,4.93,24.89,9.83,45.85,16.88,2.34.79,4.77,1.63,7.12,2.45l.21.07c10.55,3.67,21.46,7.46,32.11,9.22,1.05.19,2.12.3,3.18.32,4.76,0,5.17-2.8,5.91-7.89l.03-.22c.07-.45.13-.91.21-1.38.81-5.22,1.04-7.61-2.01-9.62-3.08-2.04-9.5-3.57-22.27-6.63-2.71-.65-5.77-1.38-9.15-2.2-15.75-3.83-29.48-8.37-37.68-11.08l-.31-.1c-1.65-.55-3.07-1.02-4.29-1.41-.44-1.74-.07-3.59.98-5.05,1.62-1.82,5.29-2.52,13.1-2.52,5.86,0,50.12,2.18,51.89,2.18,3.99,0,9.33-.54,9.71-5.19.3-3.68,1.78-13.46,1.05-14.37-.65-.8-2.07-1.03-4.64-1.19-8.73-.54-12.34-.76-12.31-14.2,0-24.74,14.11-41.55,29.05-59.34,8.8-10.48,17.89-21.31,24.82-34.45,3.65-6.86,6.48-14.12,8.44-21.64,2.19-8.64,3.28-17.52,3.24-26.43.14-16.95-3.01-33.77-9.26-49.53Zm-97.52,201.09h-23.32c-5.83,0-11.66-5.83-11.66-11.66s5.83-11.66,11.66-11.66h23.32c5.83,0,11.66,5.83,11.66,11.66s-5.83,11.66-11.66,11.66Zm84.51-156.01c0,29.66-14.08,53.4-32.46,73.87-46.12,51.38-17.97,45.02-63.22,45.21s-23.8,7.85-64.47-45.02c-16.83-21.88-32.69-44.3-32.69-74.07,0-53.25,43.17-96.42,96.42-96.42s96.42,43.17,96.42,96.42Zm-132.13-55.61c-.19,2.7-1.39,5.17-3.39,6.96-1.49,1.33-2.94,2.76-4.31,4.24-12.14,13.14-18.6,31.78-18.29,52.49.08,5.42-4.2,9.83-9.52,9.84s-9.69-4.37-9.79-9.76c-.46-25.75,7.73-49.29,23.25-66.3,1.8-1.97,3.7-3.86,5.65-5.63,4.11-3.72,10.39-3.36,13.99.83,1.74,2.03,2.6,4.63,2.41,7.34Zm41.37-9.62c-7.13.17-13.93,1.2-20.23,3.05-.85.25-1.72.39-2.6.41-4.54.1-8.55-2.91-9.76-7.34-1.47-5.4,1.66-11.11,7.01-12.72h0c8-2.41,16.58-3.77,25.51-4.03,5.65-.17,10.27,4.35,10.27,10.06s-4.58,10.44-10.21,10.57Z"/></svg>