<?xml version="1.0" encoding="UTF-8"?><svg id="a" xmlns="http://www.w3.org/2000/svg" viewBox="0 0 500 500"><path d="m0,250c0,138.07,111.93,250,250,250s250-111.93,250-250S388.07,0,250,0,0,111.93,0,250Zm220.92,91.09c0-1.31.52-2.56,1.44-3.49l80.07-80.37c3.84-3.85,3.84-10.09,0-13.95l-80.06-80.46c-.92-.93-1.44-2.18-1.45-3.49V59.28c0-4.26,5.32-6.35,8.36-3.29l189.89,191.23c1.83,1.84,1.83,4.76,0,6.59l-189.9,190.63c-3.04,3.05-8.35.95-8.35-3.3v-100.05Zm-123.48-34.62v-112.53c0-3.43,2.86-6.21,6.38-6.21h99.28c.93,0,1.82.37,2.48,1.03l57.61,58.01c1.95,1.95,1.94,5.11,0,7.06l-57.6,57.82c-.65.66-1.54,1.03-2.47,1.03h-99.28c-4.25,0-6.38-3.45-6.38-6.21h-.02Z"/></svg>