<?xml version="1.0" encoding="UTF-8"?><svg id="a" xmlns="http://www.w3.org/2000/svg" viewBox="0 0 500 500"><path d="m277.63,162.81l-80.06,80.46c-3.84,3.86-3.84,10.1,0,13.95l80.07,80.37c.92.93,1.44,2.18,1.44,3.49v100.05c0,4.25-5.31,6.35-8.35,3.3L80.83,253.81c-1.83-1.83-1.83-4.75,0-6.59L270.72,55.99c3.04-3.06,8.36-.97,8.36,3.29v100.05c-.01,1.31-.53,2.56-1.45,3.49Z"/><path d="m396.16,187.73c3.52,0,6.38,2.78,6.38,6.21v112.53c0,2.76-2.13,6.21-6.38,6.21h-99.28c-.93,0-1.82-.37-2.47-1.03l-57.6-57.82c-1.94-1.95-1.95-5.11,0-7.06l57.61-58.01c.66-.66,1.55-1.03,2.48-1.03h99.28Z"/><path d="m250,40c56.09,0,108.83,21.84,148.49,61.51,39.66,39.66,61.51,92.4,61.51,148.49s-21.84,108.83-61.51,148.49-92.4,61.51-148.49,61.51-108.83-21.84-148.49-61.51c-39.66-39.66-61.51-92.4-61.51-148.49s21.84-108.83,61.51-148.49c39.66-39.66,92.4-61.51,148.49-61.51m0-40C111.93,0,0,111.93,0,250s111.93,250,250,250,250-111.93,250-250S388.07,0,250,0h0Z"/></svg>