<?xml version="1.0" encoding="UTF-8"?><svg id="a" xmlns="http://www.w3.org/2000/svg" viewBox="0 0 500 500"><path d="m438.69,467.25c4.18,0,9.41-3.14,9.41-9.41v-29.27l-127.53,38.68h118.12Z"/><path d="m411.87,383.03l1.81,5.44c3.14,9.42,8.1,16.57,15.16,21.87l7.12,5.34-144.59,43.37,120.49-76.03Z"/><circle cx="144.95" cy="101.39" r="15.24"/><circle cx="249.48" cy="101.39" r="15.24"/><circle cx="354.01" cy="101.39" r="15.24"/><circle cx="354.01" cy="101.39" r="18.18"/><circle cx="249.48" cy="101.39" r="18.18"/><circle cx="144.95" cy="101.39" r="18.18"/><path d="m154.4,35.22c0-4.73-4.73-9.45-9.45-9.45s-9.45,4.73-9.45,9.45v66.17h18.91V35.22Z"/><path d="m258.93,35.22c0-4.73-4.73-9.45-9.45-9.45s-9.45,4.73-9.45,9.45v66.17h18.91V35.22Z"/><path d="m363.46,35.22c0-4.73-4.73-9.45-9.45-9.45s-9.45,4.73-9.45,9.45v66.17h18.91V35.22Z"/><path d="m50.87,174.56v292.68h196.52l165.16-102.44c14.63-8.36,15.68,5.23,15.68,8.36,0,13.59,8.36,25.09,20.91,29.27v-227.88H50.87Zm77.69,224.44c0,4-3.27,7.27-7.27,7.27h-38.84c-4,0-7.27-3.27-7.27-7.27v-21.83c0-4,3.27-7.27,7.27-7.27h38.84c4,0,7.27,3.27,7.27,7.27v21.83Zm0-58.17c0,4-3.27,7.27-7.27,7.27h-38.84c-4,0-7.27-3.27-7.27-7.27v-21.83c0-4,3.27-7.27,7.27-7.27h38.84c4,0,7.27,3.27,7.27,7.27v21.83Zm0-58.17c0,4-3.27,7.27-7.27,7.27h-38.84c-4,0-7.27-3.27-7.27-7.27v-21.83c0-4,3.27-7.27,7.27-7.27h38.84c4,0,7.27,3.27,7.27,7.27v21.83Zm0-58.17c0,4-3.27,7.27-7.27,7.27h-38.84c-4,0-7.27-3.27-7.27-7.27v-21.83c0-4,3.27-7.27,7.27-7.27h38.84c4,0,7.27,3.27,7.27,7.27v21.83Zm74.07,174.51c0,4-3.27,7.27-7.27,7.27h-38.84c-4,0-7.27-3.27-7.27-7.27v-21.83c0-4,3.27-7.27,7.27-7.27h38.84c4,0,7.27,3.27,7.27,7.27v21.83Zm0-58.17c0,4-3.27,7.27-7.27,7.27h-38.84c-4,0-7.27-3.27-7.27-7.27v-21.83c0-4,3.27-7.27,7.27-7.27h38.84c4,0,7.27,3.27,7.27,7.27v21.83Zm0-58.17c0,4-3.27,7.27-7.27,7.27h-38.84c-4,0-7.27-3.27-7.27-7.27v-21.83c0-4,3.27-7.27,7.27-7.27h38.84c4,0,7.27,3.27,7.27,7.27v21.83Zm0-58.17c0,4-3.27,7.27-7.27,7.27h-38.84c-4,0-7.27-3.27-7.27-7.27v-21.83c0-4,3.27-7.27,7.27-7.27h38.84c4,0,7.27,3.27,7.27,7.27v21.83Zm74.07,174.51c0,4-3.27,7.27-7.27,7.27h-38.84c-4,0-7.27-3.27-7.27-7.27v-21.83c0-4,3.27-7.27,7.27-7.27h38.84c4,0,7.27,3.27,7.27,7.27v21.83Zm0-58.17c0,4-3.27,7.27-7.27,7.27h-38.84c-4,0-7.27-3.27-7.27-7.27v-21.83c0-4,3.27-7.27,7.27-7.27h38.84c4,0,7.27,3.27,7.27,7.27v21.83Zm0-58.17c0,4-3.27,7.27-7.27,7.27h-38.84c-4,0-7.27-3.27-7.27-7.27v-21.83c0-4,3.27-7.27,7.27-7.27h38.84c4,0,7.27,3.27,7.27,7.27v21.83Zm0-58.17c0,4-3.27,7.27-7.27,7.27h-38.84c-4,0-7.27-3.27-7.27-7.27v-21.83c0-4,3.27-7.27,7.27-7.27h38.84c4,0,7.27,3.27,7.27,7.27v21.83Zm74.07,116.34c0,4-3.27,7.27-7.27,7.27h-38.84c-4,0-7.27-3.27-7.27-7.27v-21.83c0-4,3.27-7.27,7.27-7.27h38.84c4,0,7.27,3.27,7.27,7.27v21.83Zm0-58.17c0,4-3.27,7.27-7.27,7.27h-38.84c-4,0-7.27-3.27-7.27-7.27v-21.83c0-4,3.27-7.27,7.27-7.27h38.84c4,0,7.27,3.27,7.27,7.27v21.83Zm0-58.17c0,4-3.27,7.27-7.27,7.27h-38.84c-4,0-7.27-3.27-7.27-7.27v-21.83c0-4,3.27-7.27,7.27-7.27h38.84c4,0,7.27,3.27,7.27,7.27v21.83Zm74.07,116.34c0,4-3.27,7.27-7.27,7.27h-38.84c-4,0-7.27-3.27-7.27-7.27v-21.83c0-4,3.27-7.27,7.27-7.27h38.84c4,0,7.27,3.27,7.27,7.27v21.83Zm0-58.17c0,4-3.27,7.27-7.27,7.27h-38.84c-4,0-7.27-3.27-7.27-7.27v-21.83c0-4,3.27-7.27,7.27-7.27h38.84c4,0,7.27,3.27,7.27,7.27v21.83Zm0-58.17c0,4-3.27,7.27-7.27,7.27h-38.84c-4,0-7.27-3.27-7.27-7.27v-21.83c0-4,3.27-7.27,7.27-7.27h38.84c4,0,7.27,3.27,7.27,7.27v21.83Z"/><path d="m438.69,49.13h-64.3v26.69c7.52,6,12.35,15.23,12.35,25.58,0,18.04-14.68,32.72-32.72,32.72s-32.72-14.68-32.72-32.72c0-10.36,4.84-19.6,12.37-25.6v-26.67h-63.82v26.68c7.52,6,12.36,15.23,12.36,25.58,0,18.04-14.68,32.72-32.72,32.72s-32.72-14.68-32.72-32.72c0-10.35,4.84-19.59,12.37-25.59v-26.67h-63.82v25.78c7.53,6,12.36,15.24,12.36,25.59,0,18.04-14.68,32.72-32.72,32.72s-32.72-14.68-32.72-32.72c0-10.35,4.84-19.59,12.36-25.59v-25.78H60.29c-4.18,0-9.41,3.14-9.41,9.41v95.12h397.21V58.54c0-4.18-3.14-9.41-9.41-9.41Z"/></svg>