<?xml version="1.0" encoding="utf-8"?>
<!-- Generator: Adobe Illustrator 27.5.0, SVG Export Plug-In . SVG Version: 6.00 Build 0)  -->
<svg version="1.1" id="a" xmlns="http://www.w3.org/2000/svg" xmlns:xlink="http://www.w3.org/1999/xlink" x="0px" y="0px"
	 viewBox="0 0 500 500" style="enable-background:new 0 0 500 500;" xml:space="preserve">
<style type="text/css">
	.st0{fill:#338AAB;}
	.st1{fill:#75A928;}
	.st2{fill:#BC1142;}
</style>
<rect class="st0" width="500" height="500"/>
<g id="b">
	<g id="c">
		<path id="d" d="M172,32.9c-2.2,0.1-4.6,0.9-7.2,3c-6.6-2.5-12.9-3.4-18.6,1.7c-8.8-1.1-11.6,1.2-13.8,4c-1.9,0-14.5-2-20.2,6.6
			c-14.4-1.7-19,8.5-13.8,18c-3,4.6-6,9.1,0.9,17.8c-2.4,4.8-0.9,10.1,4.8,16.4c-1.5,6.8,1.5,11.6,6.8,15.4
			c-1,9.3,8.5,14.7,11.4,16.7c1.1,5.4,3.4,10.6,14.3,13.4c1.8,8.1,8.3,9.5,14.7,11.2c-21,12.2-39,28.2-38.8,67.6l-3.1,5.5
			c-24,14.6-45.7,61.6-11.8,99.8c2.2,12,5.9,20.5,9.2,30c4.9,38.3,37.1,56.2,45.6,58.4c12.4,9.5,25.7,18.5,43.6,24.8
			c16.9,17.4,35.2,24.1,53.7,24.1c0.3,0,0.5,0,0.8,0c18.4,0,36.7-6.6,53.7-24.1c17.9-6.3,31.2-15.3,43.6-24.8
			c8.5-2.1,40.7-20.1,45.6-58.4c3.3-9.5,7-18.1,9.2-30c33.8-38.2,12.2-85.2-11.8-99.8l-3.1-5.5c0.1-39.3-17.9-55.4-38.8-67.6
			c6.3-1.7,12.9-3.1,14.7-11.2c10.9-2.8,13.2-8,14.3-13.4c2.9-1.9,12.4-7.3,11.4-16.7c5.3-3.7,8.3-8.5,6.8-15.4
			c5.7-6.4,7.3-11.6,4.8-16.4c6.9-8.7,3.8-13.2,0.9-17.8c5.2-9.5,0.6-19.7-13.8-18c-5.7-8.6-18.2-6.6-20.2-6.6
			c-2.2-2.8-5-5.1-13.8-4c-5.7-5.2-12.1-4.3-18.6-1.7c-7.8-6.2-13-1.2-18.9,0.6c-9.4-3.1-11.6,1.1-16.3,2.9
			c-10.3-2.2-13.4,2.6-18.4,7.6l-5.7-0.1c-15.5,9.2-23.3,27.8-26,37.4c-2.7-9.6-10.4-28.2-26-37.4l-5.7,0.1c-4.9-5-8.1-9.7-18.4-7.6
			c-4.6-1.7-6.8-6-16.3-2.9C179.8,35.3,176.2,32.8,172,32.9L172,32.9L172,32.9z"/>
		<path id="e" class="st1" d="M141.1,73.2c41.2,21.2,65.2,38.4,78.3,53.1c-6.7,26.9-41.8,28.2-54.6,27.4c2.6-1.2,4.8-2.7,5.6-4.9
			c-3.2-2.3-14.6-0.2-22.6-4.7c3.1-0.6,4.5-1.3,5.9-3.5c-7.5-2.4-15.6-4.5-20.4-8.4c2.6,0,5,0.6,8.3-1.7
			c-6.7-3.6-13.9-6.5-19.5-12.1c3.5-0.1,7.2,0,8.3-1.3c-6.2-3.8-11.4-8.1-15.7-12.7c4.9,0.6,6.9,0.1,8.1-0.8
			c-4.7-4.8-10.6-8.8-13.4-14.7c3.6,1.3,6.9,1.7,9.3-0.1c-1.6-3.6-8.4-5.7-12.3-14c3.8,0.4,7.9,0.8,8.7,0
			c-1.8-7.2-4.8-11.3-7.8-15.5c8.2-0.1,20.5,0,20-0.7l-5-5.2c8-2.1,16.1,0.3,22,2.2c2.7-2.1,0-4.8-3.3-7.5
			c6.8,0.9,12.9,2.5,18.4,4.6c3-2.7-1.9-5.3-4.3-8c10.5,2,14.9,4.8,19.3,7.6c3.2-3.1,0.2-5.7-2-8.3c7.9,2.9,12,6.7,16.2,10.4
			c1.5-2,3.7-3.4,1-8.1c5.6,3.2,9.8,7,12.9,11.3c3.5-2.2,2.1-5.2,2.1-8c5.8,4.7,9.5,9.8,14,14.7c0.9-0.7,1.7-2.9,2.4-6.5
			c13.9,13.5,33.5,47.4,5,60.9C202.1,98.6,173.2,84.1,141.1,73.2L141.1,73.2L141.1,73.2z"/>
		<path id="f" class="st1" d="M359.8,73.2c-41.2,21.2-65.2,38.4-78.3,53.1c6.7,26.9,41.8,28.2,54.6,27.4c-2.6-1.2-4.8-2.7-5.6-4.9
			c3.2-2.3,14.6-0.2,22.6-4.7c-3.1-0.6-4.5-1.3-5.9-3.5c7.5-2.4,15.6-4.5,20.4-8.4c-2.6,0-5,0.6-8.3-1.7c6.7-3.6,13.9-6.5,19.5-12.1
			c-3.5-0.1-7.2,0-8.3-1.3c6.2-3.8,11.4-8.1,15.7-12.7c-4.9,0.6-6.9,0.1-8.1-0.8c4.7-4.8,10.6-8.8,13.4-14.7
			c-3.6,1.3-6.9,1.7-9.3-0.1c1.6-3.6,8.4-5.7,12.3-14c-3.8,0.4-7.9,0.8-8.7,0c1.8-7.2,4.8-11.3,7.8-15.5c-8.2-0.1-20.5,0-20-0.7
			l5-5.2c-8-2.1-16.1,0.3-22,2.2c-2.7-2.1,0-4.8,3.3-7.5c-6.8,0.9-12.9,2.5-18.4,4.6c-3-2.7,1.9-5.3,4.3-8
			c-10.5,2-14.9,4.8-19.3,7.6c-3.2-3.1-0.2-5.7,2-8.3c-7.9,2.9-12,6.7-16.2,10.4c-1.5-2-3.7-3.4-1-8.1c-5.6,3.2-9.8,7-12.9,11.3
			c-3.5-2.2-2.1-5.2-2.1-8c-5.8,4.7-9.5,9.8-14,14.7c-0.9-0.7-1.7-2.9-2.4-6.5c-13.9,13.5-33.5,47.4-5,60.9
			C298.8,98.6,327.8,84.1,359.8,73.2L359.8,73.2L359.8,73.2z"/>
		<path id="g" class="st2" d="M300.4,347.6c0.1,25.1-21.8,45.6-49.1,45.8c-27.3,0.1-49.5-20.1-49.6-45.3c0-0.2,0-0.3,0-0.5
			c-0.1-25.1,21.8-45.6,49.1-45.8c27.3-0.1,49.5,20.1,49.6,45.3C300.4,347.3,300.4,347.4,300.4,347.6L300.4,347.6z"/>
		<path id="h" class="st2" d="M222.4,217.5c20.5,13.4,24.1,43.8,8.2,67.9c-15.9,24.1-45.4,32.7-65.8,19.3l0,0
			c-20.5-13.4-24.1-43.8-8.2-67.9C172.5,212.8,202,204.1,222.4,217.5L222.4,217.5z"/>
		<path id="i" class="st2" d="M277.7,215.1c-20.5,13.4-24.1,43.8-8.2,67.9c15.9,24.1,45.4,32.7,65.8,19.3l0,0
			c20.5-13.4,24.1-43.8,8.2-67.9C327.6,210.3,298.1,201.7,277.7,215.1L277.7,215.1z"/>
		<path id="j" class="st2" d="M120.2,239.4c22.1-5.9,7.5,91.4-10.5,83.4C89.9,306.9,83.5,260.4,120.2,239.4z"/>
		<path id="k" class="st2" d="M375.4,238.2c-22.1-5.9-7.5,91.4,10.5,83.4C405.7,305.7,412.1,259.1,375.4,238.2z"/>
		<path id="l" class="st2" d="M300.4,165.8c38.1-6.4,69.8,16.2,68.5,57.5C367.7,239.2,286.4,168.1,300.4,165.8z"/>
		<path id="m" class="st2" d="M195.1,164.6c-38.1-6.4-69.8,16.2-68.6,57.5C127.8,237.9,209.1,166.9,195.1,164.6z"/>
		<path id="n" class="st2" d="M249.8,154.9c-22.8-0.6-44.6,16.9-44.6,27c-0.1,12.3,18,24.9,44.8,25.2c27.4,0.2,44.8-10.1,44.9-22.8
			C295,170,270,154.7,249.8,154.9L249.8,154.9L249.8,154.9z"/>
		<path id="o" class="st2" d="M251.2,407.5c19.8-0.9,46.4,6.4,46.5,16c0.3,9.3-24.1,30.5-47.8,30c-24.5,1.1-48.6-20.1-48.3-27.4
			C201.3,415.4,231.5,407,251.2,407.5L251.2,407.5z"/>
		<path id="p" class="st2" d="M178,350.5c14.1,17,20.6,46.9,8.8,55.7c-11.2,6.7-38.2,4-57.5-23.7c-13-23.2-11.3-46.8-2.2-53.7
			C140.7,320.4,161.7,331.7,178,350.5L178,350.5L178,350.5z"/>
		<path id="q" class="st2" d="M321.7,345.1c-15.3,17.9-23.8,50.5-12.6,61c10.7,8.2,39.3,7,60.4-22.3c15.3-19.7,10.2-52.6,1.4-61.3
			C357.8,312.4,339.2,325.3,321.7,345.1L321.7,345.1z"/>
	</g>
</g>
</svg>
