<?xml version="1.0" encoding="UTF-8"?><svg id="a" xmlns="http://www.w3.org/2000/svg" viewBox="0 0 274.07 350"><g id="b"><g id="c"><path id="d" d="m74.19,0c-1.77.05-3.68.71-5.84,2.41-5.3-2.04-10.43-2.75-15.02,1.41-7.09-.92-9.39.98-11.14,3.19-1.56-.03-11.65-1.6-16.28,5.3-11.63-1.38-15.3,6.84-11.14,14.5-2.38,3.68-4.84,7.31.72,14.32-1.96,3.9-.75,8.14,3.88,13.26-1.22,5.49,1.18,9.36,5.49,12.38-.81,7.51,6.89,11.88,9.18,13.43.88,4.38,2.72,8.51,11.51,10.79,1.45,6.52,6.73,7.65,11.84,9.02-16.9,9.82-31.4,22.75-31.3,54.47l-2.48,4.42c-19.38,11.79-36.82,49.66-9.55,80.45,1.78,9.64,4.77,16.56,7.43,24.22,3.98,30.87,29.94,45.33,36.78,47.04,10.03,7.64,20.72,14.89,35.18,19.97,13.63,14.06,28.4,19.42,43.25,19.41.22,0,.44,0,.66,0,14.85,0,29.62-5.35,43.25-19.41,14.46-5.08,25.15-12.33,35.18-19.97,6.85-1.71,32.81-16.17,36.78-47.04,2.66-7.66,5.65-14.58,7.43-24.22,27.26-30.79,9.83-68.67-9.55-80.46l-2.48-4.42c.1-31.71-14.4-44.64-31.3-54.47,5.11-1.37,10.39-2.49,11.84-9.02,8.79-2.28,10.63-6.41,11.51-10.79,2.3-1.56,9.99-5.92,9.18-13.43,4.31-3.02,6.71-6.89,5.49-12.38,4.63-5.13,5.85-9.36,3.88-13.26,5.56-7.01,3.09-10.64.72-14.32,4.16-7.66.49-15.88-11.14-14.5-4.63-6.9-14.71-5.34-16.27-5.3-1.75-2.22-4.05-4.11-11.14-3.19-4.59-4.16-9.73-3.45-15.02-1.41-6.29-4.96-10.45-.98-15.2.52-7.61-2.49-9.35.92-13.1,2.31-8.3-1.75-10.83,2.07-14.81,6.1l-4.63-.09c-12.52,7.38-18.75,22.41-20.95,30.14-2.21-7.73-8.41-22.76-20.94-30.14l-4.63.09c-3.99-4.03-6.51-7.85-14.81-6.1-3.74-1.39-5.48-4.8-13.1-2.31C80.43,1.95,77.56-.1,74.18,0h0Z"/><path id="e" d="m49.26,32.48c33.23,17.13,52.54,30.99,63.13,42.79-5.42,21.72-33.69,22.71-44.03,22.1,2.12-.99,3.88-2.17,4.51-3.98-2.59-1.84-11.79-.19-18.21-3.8,2.47-.51,3.62-1.01,4.77-2.83-6.07-1.93-12.6-3.6-16.44-6.81,2.07.03,4.01.46,6.72-1.41-5.43-2.93-11.23-5.25-15.74-9.73,2.81-.07,5.84-.03,6.72-1.06-4.97-3.08-9.17-6.51-12.64-10.26,3.93.47,5.59.07,6.54-.62-3.76-3.85-8.52-7.1-10.79-11.85,2.92,1.01,5.59,1.39,7.52-.09-1.28-2.88-6.75-4.58-9.9-11.32,3.07.3,6.33.67,6.98,0-1.43-5.81-3.87-9.08-6.27-12.46,6.58-.1,16.54.03,16.09-.53l-4.07-4.16c6.42-1.73,13,.28,17.77,1.77,2.14-1.69-.04-3.83-2.65-6.01,5.46.73,10.39,1.98,14.85,3.71,2.38-2.15-1.55-4.3-3.45-6.45,8.44,1.6,12.01,3.85,15.56,6.1,2.58-2.47.15-4.57-1.59-6.72,6.36,2.36,9.64,5.4,13.09,8.4,1.17-1.58,2.97-2.73.8-6.54,4.52,2.6,7.92,5.67,10.43,9.11,2.79-1.78,1.66-4.21,1.68-6.45,4.69,3.82,7.67,7.88,11.32,11.85.73-.53,1.38-2.35,1.95-5.22,11.2,10.86,27.02,38.22,4.07,49.07-19.53-16.11-42.86-27.82-68.71-36.6h0Z" fill="#75a928"/><path id="f" d="m225.56,32.48c-33.22,17.13-52.54,30.99-63.12,42.79,5.42,21.72,33.69,22.71,44.03,22.1-2.12-.99-3.88-2.17-4.51-3.98,2.59-1.84,11.79-.19,18.21-3.8-2.47-.51-3.62-1.01-4.77-2.83,6.07-1.93,12.6-3.6,16.44-6.81-2.07.03-4.01.46-6.72-1.41,5.43-2.93,11.23-5.25,15.74-9.73-2.81-.07-5.84-.03-6.72-1.06,4.97-3.08,9.17-6.51,12.64-10.26-3.93.47-5.59.07-6.54-.62,3.76-3.85,8.52-7.1,10.79-11.85-2.92,1.01-5.59,1.39-7.52-.09,1.28-2.88,6.75-4.58,9.9-11.32-3.07.3-6.33.67-6.98,0,1.43-5.81,3.88-9.08,6.28-12.47-6.58-.1-16.54.03-16.09-.53l4.07-4.16c-6.42-1.73-13,.28-17.77,1.77-2.14-1.69.04-3.83,2.65-6.01-5.46.73-10.39,1.98-14.85,3.71-2.38-2.15,1.55-4.3,3.45-6.45-8.43,1.6-12.01,3.85-15.56,6.1-2.58-2.47-.15-4.57,1.59-6.72-6.36,2.36-9.64,5.4-13.09,8.4-1.17-1.58-2.97-2.73-.8-6.54-4.52,2.6-7.92,5.67-10.43,9.11-2.79-1.78-1.66-4.21-1.68-6.45-4.69,3.82-7.67,7.88-11.32,11.85-.73-.53-1.38-2.35-1.95-5.22-11.2,10.86-27.02,38.22-4.07,49.07,19.52-16.11,42.85-27.82,68.7-36.6h0Z" fill="#75a928"/><path id="g" d="m177.65,253.66c.12,20.27-17.61,36.79-39.59,36.89-21.98.11-39.89-16.24-40.01-36.51,0-.13,0-.26,0-.39-.12-20.27,17.61-36.79,39.59-36.89,21.98-.11,39.89,16.24,40.01,36.51,0,.13,0,.26,0,.39Z" fill="#bc1142"/><path id="h" d="m114.82,148.82c16.49,10.8,19.46,35.3,6.64,54.7-12.82,19.41-36.59,26.38-53.08,15.58h0c-16.49-10.8-19.46-35.3-6.64-54.7,12.82-19.41,36.59-26.38,53.08-15.58h0Z" fill="#bc1142"/><path id="i" d="m159.33,146.86c-16.49,10.8-19.46,35.3-6.64,54.7,12.82,19.41,36.59,26.38,53.08,15.58h0c16.49-10.8,19.46-35.3,6.64-54.7-12.82-19.41-36.59-26.38-53.08-15.58h0Z" fill="#bc1142"/><path id="j" d="m32.39,166.48c17.8-4.77,6.01,73.66-8.48,67.22-15.94-12.82-21.07-50.35,8.48-67.22Z" fill="#bc1142"/><path id="k" d="m238.16,165.5c-17.81-4.77-6.01,73.67,8.48,67.23,15.94-12.82,21.07-50.36-8.48-67.23Z" fill="#bc1142"/><path id="l" d="m177.66,107.1c30.73-5.19,56.3,13.07,55.26,46.39-1.01,12.77-66.58-44.49-55.26-46.39Z" fill="#bc1142"/><path id="m" d="m92.76,106.12c-30.73-5.19-56.3,13.07-55.26,46.39,1.01,12.77,66.58-44.49,55.26-46.39Z" fill="#bc1142"/><path id="n" d="m136.9,98.35c-18.34-.48-35.94,13.61-35.98,21.78-.05,9.93,14.5,20.1,36.11,20.35,22.07.16,36.15-8.14,36.22-18.38.08-11.61-20.07-23.93-36.34-23.75h0Z" fill="#bc1142"/><path id="o" d="m138.02,301.95c15.99-.7,37.44,5.15,37.49,12.91.27,7.53-19.46,24.55-38.55,24.22-19.77.85-39.15-16.19-38.9-22.1-.3-8.66,24.07-15.43,39.96-15.03h0Z" fill="#bc1142"/><path id="p" d="m78.96,255.98c11.38,13.71,16.57,37.81,7.07,44.91-8.99,5.42-30.81,3.19-46.33-19.1-10.46-18.7-9.11-37.73-1.77-43.32,10.99-6.69,27.96,2.35,41.02,17.51h0Z" fill="#bc1142"/><path id="q" d="m194.8,251.63c-12.32,14.43-19.18,40.74-10.19,49.21,8.59,6.58,31.65,5.66,48.69-17.97,12.37-15.88,8.23-42.39,1.16-49.43-10.5-8.12-25.56,2.27-39.66,18.19h0Z" fill="#bc1142"/></g></g></svg>