<?xml version="1.0" encoding="UTF-8"?>
<svg id="Layer_1" data-name="Layer 1" xmlns="http://www.w3.org/2000/svg" viewBox="0 0 50 50">
  <path d="m35.71,7.14h7.14v35.71h-7.14V7.14ZM28.57,0v28.58h-14.29v7.14h14.29v7.14H7.14v-7.14H0v14.28h50V0h-21.43Z" fill="#ef7c00"/>
  <path d="m35.71,7.14h7.14v35.71h-7.14V7.14ZM28.57,0v28.58h-14.29v7.14h14.29v7.14H7.14v-7.14H0v14.28h50V0h-21.43Z" fill="#ef7c00"/>
  <polygon points="0 0 0 32.72 7.14 32.72 7.14 21.43 21.43 21.43 21.43 14.29 7.14 14.29 7.14 7.14 25.58 7.14 25.58 0 0 0"/>
  <polygon points="0 0 0 32.72 7.14 32.72 7.14 21.43 21.43 21.43 21.43 14.29 7.14 14.29 7.14 7.14 25.58 7.14 25.58 0 0 0"/>
</svg>