<?xml version="1.0" encoding="UTF-8"?><svg id="b" xmlns="http://www.w3.org/2000/svg" width="100" height="50" viewBox="0 0 100 50"><g id="c"><path id="d" d="m71.13,33.71l-3.3-1.91,2.54-.68c.8-.22,1.28-1.04,1.06-1.85l-.38-1.45c-.22-.8-1.04-1.28-1.85-1.06l-6.92,1.85-6.23-3.61,6.23-3.6,6.91,1.86c.8.21,1.63-.26,1.85-1.06l.39-1.46c.21-.81-.27-1.63-1.08-1.84l-2.54-.68,3.3-1.9c.72-.42.97-1.34.56-2.06l-1.51-2.62c-.42-.72-1.34-.97-2.06-.56l-3.3,1.9.68-2.54c.21-.8-.26-1.63-1.06-1.85l-1.45-.39c-.8-.21-1.63.26-1.85,1.06l-1.86,6.91-6.13,3.53v-7.57l5.24-5.24c.61-.61.61-1.6,0-2.21l-1.1-1.1c-.61-.61-1.6-.61-2.21,0l-1.93,1.93V1.56c0-.86-.7-1.56-1.56-1.56h-3.12c-.86,0-1.56.7-1.56,1.56v3.95l-1.92-1.93c-.61-.61-1.6-.61-2.21,0l-1.11,1.1c-.61.6-.62,1.58-.01,2.19,0,0,0,.01.01.01l5.24,5.24v7.57l-6.13-3.53-1.86-6.91c-.22-.8-1.04-1.28-1.84-1.06l-1.46.39c-.8.22-1.28,1.04-1.06,1.85l.69,2.54-3.3-1.9c-.72-.42-1.64-.17-2.06.55,0,0,0,0,0,0l-1.51,2.61c-.42.72-.17,1.64.55,2.06,0,0,0,0,0,0l3.3,1.9-2.53.68c-.81.21-1.29,1.04-1.07,1.85,0,0,0,0,0,0l.38,1.46c.22.8,1.04,1.28,1.85,1.06l6.91-1.86,6.24,3.6-6.23,3.6-6.91-1.86c-.81-.22-1.63.26-1.85,1.06l-.38,1.46c-.21.8.26,1.63,1.07,1.84l2.54.68-3.3,1.92c-.72.42-.97,1.34-.56,2.06l1.51,2.62c.42.72,1.34.97,2.06.56l3.3-1.9-.68,2.54c-.21.8.26,1.63,1.06,1.85l1.46.39c.8.21,1.63-.26,1.85-1.06l1.86-6.91,6.13-3.53v7.57l-5.25,5.24c-.61.6-.62,1.58-.01,2.19,0,0,0,.01.01.01l1.1,1.1c.61.61,1.6.61,2.21,0l1.92-1.92v3.94c0,.86.7,1.56,1.56,1.56h3.12c.86,0,1.56-.7,1.56-1.56v-3.95l1.92,1.92c.61.61,1.6.61,2.21,0l1.1-1.1c.61-.61.61-1.6,0-2.21l-5.22-5.24v-7.57l6.13,3.53,1.86,6.91c.22.8,1.04,1.28,1.85,1.06l1.46-.39c.8-.22,1.28-1.04,1.06-1.85l-.69-2.54,3.3,1.9c.72.42,1.64.17,2.06-.55,0,0,0,0,0,0l1.51-2.62c.42-.71.18-1.62-.53-2.04,0,0-.01,0-.02,0h0Z" fill="#ed6645"/></g><g><path d="m37.16,47.23c-3.07-.09-6.07-1.11-8.56-2.95H5.71v-19.29C5.71,14.37,14.37,5.71,25,5.71h0s3.6,0,3.6,0c2.49-1.84,5.49-2.86,8.56-2.95C37.78,1.76,38.52.83,39.35,0h-13.97,0s0,0,0,0h-2.8C10.11,0,0,10.11,0,22.58v27.42h39.35c-.83-.83-1.57-1.76-2.19-2.77Z" fill="#ed6645"/><path d="m60.65,0c.83.83,1.57,1.76,2.19,2.77,3.07.09,6.07,1.11,8.56,2.95h22.89v38.57h-22.89c-2.49,1.84-5.49,2.86-8.56,2.95-.62,1.01-1.36,1.93-2.19,2.77h39.35V0h-39.35Z" fill="#ed6645"/></g></svg>