<?xml version="1.0" encoding="UTF-8"?><svg id="b" xmlns="http://www.w3.org/2000/svg" width="35.28mm" height="17.64mm" viewBox="0 0 100 50"><path d="M59.96,16.71c.06,0,.13-.01,.19-.04l4.45-1.78c1.58,.82,3.46,1.31,5.49,1.31,5.6,0,10.13-3.63,10.13-8.1S75.69,0,70.09,0s-10.13,3.63-10.13,8.1c0,1.36,.46,2.62,1.2,3.75l-1.67,4.17c-.08,.19-.03,.4,.12,.55,.09,.1,.22,.15,.35,.15Z" fill="#c973af"/><path d="M41,23c0,4.97,4.03,9,9,9s9-4.03,9-9-4.03-9-9-9-9,4.03-9,9Z" fill="#c973af"/><path d="M70.57,19.14c-4.26,0-7.71,3.45-7.71,7.71s3.45,7.72,7.71,7.72,7.71-3.45,7.71-7.72-3.45-7.71-7.71-7.71Z" fill="#c973af"/><path d="M21.71,26.85c0,4.26,3.45,7.72,7.71,7.72s7.71-3.45,7.71-7.72-3.45-7.71-7.71-7.71-7.71,3.45-7.71,7.71Z" fill="#c973af"/><path d="M50,34.57c-7.24,.12-17.79,4.6-18,12.86,0,1.42,1.15,2.57,2.57,2.57h30.86c2.31,.03,2.96-2.44,2.57-4.25-1.57-7.35-10.88-11.07-18-11.18Z" fill="#c973af"/><path d="M34.32,37.32c-3.45-.46-7.02,.11-10.13,1.69-3.54,1.53-10.97,8.14-5.01,10.98,0,0,6.97,0,10.64,0-.42-.77-.68-1.64-.68-2.57,.11-4.25,2.2-7.6,5.18-10.1Z" fill="#c973af"/><path d="M84.7,0c1.22,1.71,2.06,3.64,2.43,5.71h7.16V44.28h-4.17c.43,1.88,.38,3.86-.15,5.71h10.03V0h-15.3Z" fill="#c973af"/><path d="M65.87,37.31c2.45,2.07,4.25,4.69,4.93,7.83,.29,1.37,.24,3.25-.6,4.85h10.49c2.55,.1,3.25-3.44,2.04-5.24-3.7-5.44-10.43-8.33-16.85-7.44Z" fill="#c973af"/><path d="M55.5,0H25.38s-2.8,0-2.8,0C10.11,0,0,10.11,0,22.58v27.42H10.26c-.31-1-.48-2.05-.46-3.14,.02-.88,.15-1.74,.37-2.57H5.71V25C5.71,14.37,14.37,5.71,25,5.71h0s0,0,0,0h9.82s18.24,0,18.24,0C53.43,3.64,54.28,1.71,55.5,0Z" fill="#c973af"/></svg>