<?xml version="1.0" encoding="UTF-8"?><svg id="b" xmlns="http://www.w3.org/2000/svg" width="35.28mm" height="17.64mm" viewBox="0 0 100 50"><path d="M34.73,21.82c-.02,2.35,.9,4.48,2.41,6.04l11.68,10.49c.67,.6,1.69,.6,2.36,0l11.69-10.49c1.56-1.62,2.49-3.85,2.39-6.3-.18-4.4-3.74-7.99-8.13-8.2-2.88-.14-5.47,1.14-7.12,3.21-1.61-2.02-4.11-3.29-6.9-3.23-4.59,.1-8.32,3.88-8.37,8.48Zm22.67-5.54c.68,.1,1.34,.34,1.96,.67,1.22,.69,2.24,1.83,2.76,3.18,.14,.33,.23,.68,.32,1.04,.05,.36,.13,.71,.13,1.07,.01,.36,0,.71-.05,1.07-.05,.35-.12,.7-.23,1.04-.43,1.34-1.33,2.51-2.52,3.09,.53-1.2,.83-2.32,.87-3.41,.03-.54,0-1.08-.1-1.6-.08-.52-.21-1.02-.41-1.5-.38-.96-.98-1.84-1.76-2.61-.39-.38-.83-.73-1.32-1.05-.5-.31-1.04-.58-1.64-.85,.63-.19,1.31-.22,1.99-.14Z" fill="#b18bf4"/><path d="M50.11,41.98c-.79,0-1.43,.64-1.43,1.43v5.17c0,.79,.64,1.43,1.43,1.43s1.43-.64,1.43-1.43v-5.17c0-.79-.64-1.43-1.43-1.43Z" fill="#b18bf4"/><path d="M49.89,8.02c.79,0,1.43-.64,1.43-1.43V1.43C51.32,.64,50.68,0,49.89,0s-1.43,.64-1.43,1.43V6.6c0,.79,.64,1.43,1.43,1.43Z" fill="#b18bf4"/><path d="M33.02,25.11c0-.79-.64-1.43-1.43-1.43h-5.17c-.79,0-1.43,.64-1.43,1.43s.64,1.43,1.43,1.43h5.17c.79,0,1.43-.64,1.43-1.43Z" fill="#b18bf4"/><path d="M75,24.89c0-.79-.64-1.43-1.43-1.43h-5.17c-.79,0-1.43,.64-1.43,1.43s.64,1.43,1.43,1.43h5.17c.79,0,1.43-.64,1.43-1.43Z" fill="#b18bf4"/><path d="M36.05,37.08l-3.65,3.65c-.56,.56-.56,1.46,0,2.02,.28,.28,.65,.42,1.01,.42s.73-.14,1.01-.42l3.65-3.65c.56-.56,.56-1.46,0-2.02-.56-.56-1.46-.56-2.02,0Z" fill="#b18bf4"/><path d="M62.94,13.34c.37,0,.73-.14,1.01-.42l3.65-3.65c.56-.56,.56-1.46,0-2.02-.56-.56-1.46-.56-2.02,0l-3.65,3.65c-.56,.56-.56,1.46,0,2.02,.28,.28,.65,.42,1.01,.42Z" fill="#b18bf4"/><path d="M35.9,13.07c.28,.28,.65,.42,1.01,.42s.73-.14,1.01-.42c.56-.56,.56-1.46,0-2.02l-3.65-3.65c-.56-.56-1.46-.56-2.02,0-.56,.56-.56,1.46,0,2.02l3.65,3.66Z" fill="#b18bf4"/><path d="M64.1,36.93c-.56-.56-1.46-.56-2.02,0-.56,.56-.56,1.46,0,2.02l3.65,3.65c.28,.28,.65,.42,1.01,.42s.73-.14,1.01-.42c.56-.56,.56-1.46,0-2.02l-3.65-3.65Z" fill="#b18bf4"/><path d="M24.6,44.29H5.71V25C5.71,14.44,14.24,5.84,24.77,5.71h0C26.41,3.58,28.32,1.66,30.44,0h-5.07s-2.8,0-2.8,0C10.11,0,0,10.11,0,22.58v27.42H30.17c-2.09-1.67-3.96-3.58-5.58-5.71Z" fill="#b18bf4"/><path d="M69.56,0c2.13,1.66,4.04,3.58,5.68,5.71h19.05V44.29h-18.88c-1.61,2.13-3.49,4.05-5.58,5.71h30.17V0h-30.44Z" fill="#b18bf4"/><path d="M24.78,5.71s.02,0,0,0h0Z" fill="#b18bf4"/></svg>