<?xml version="1.0" encoding="UTF-8"?><svg id="b" xmlns="http://www.w3.org/2000/svg" width="35.28mm" height="17.64mm" viewBox="0 0 100 50"><polygon points="55.07 10.54 53.6 12.09 56.46 14.81 53.58 17.69 55.09 19.2 59.52 14.77 55.07 10.54" fill="#339bc9"/><polygon points="46.29 12.09 44.82 10.54 40.37 14.77 44.8 19.2 46.31 17.69 43.43 14.81 46.29 12.09" fill="#339bc9"/><polygon points="46.6 20.31 48.91 20.31 53.29 9.41 50.98 9.41 46.6 20.31" fill="#339bc9"/><path d="M56.49,38.38c-3.16,1.72-9.6,3.92-12.89,4.94-.99,.3-2.15,1.26,.1,3.93,4.16,4.93,11.03,2.8,13.11-2.96,.58-1.62,.48-2.21-.81-1.54-.92,.48-2.32,1.23-3.74,1.83-3.41,1.44-4.12,1.75-5.1,.29,1.31-.58,2.7-1.31,4.21-1.94,1.7-.7,3.54-1.51,3.54-1.51,2.63-1.29,2.83-1.34,2.74-2.46-.07-.95,0-1.2-1.15-.58Z" fill="#339bc9"/><path d="M35.29,44.29H6.01V25C6.01,14.37,14.66,5.71,25.29,5.71h0s0,0,0,0h5.1c.88-2.12,2.08-4.04,3.54-5.71h-11.05C10.41,0,.29,10.11,.29,22.58v27.42H36.91c-1.33-2.17-1.7-4.11-1.62-5.71Z" fill="#339bc9"/><path d="M65.96,0c1.46,1.68,2.66,3.59,3.54,5.71h25.08V44.29h-30.41c-.16,1.08-.47,1.95-.65,2.43-.42,1.17-.97,2.27-1.62,3.29h38.39V0h-34.34Z" fill="#339bc9"/><path d="M56.33,32.74s-.12,.02-.11-1.13h0c0-6.68,7.85-8.61,7.85-17.06S57.75,0,49.95,0s-14.13,5.82-14.13,14.55,7.85,10.62,7.85,17.06c0,1.58-.39,1.64-1.47,1.71-.92,.06-.57,.19-.43,1.87,.07,.82,1.4,.61,2.04,.58,6.23-.27,7.16-.51,7.03,.69-.9,.29-2.79,.96-5.07,1.51-4.13,1.01-4.21,.88-4,2.22,.13,.85,.1,1.27,1.12,1.1,1.58-.26,3.21-.9,4.72-1.41,4.76-1.61,6.56-2.39,9.97-4.24,.16-.09,.25-2.26,.07-2.39-.26-.19-1.17-.35-1.31-.51Zm-6.29-4.26c-1.66,0-2.98-.01-3.93-.03-.62-2.46-2.16-4.31-3.56-5.98-1.92-2.29-3.57-4.27-3.57-7.84,0-6.58,4.61-11.36,10.97-11.36s10.97,4.78,10.97,11.36c0,3.36-1.61,5.3-3.48,7.55-1.45,1.74-3.05,3.67-3.67,6.28-.94,.02-2.2,.03-3.72,.03Z" fill="#339bc9"/></svg>