<?xml version="1.0" encoding="UTF-8"?><svg id="b" xmlns="http://www.w3.org/2000/svg" width="35.28mm" height="17.64mm" viewBox="0 0 100 50"><path d="M60.11,36.56l-7.73-7.8c-1.28-1.28-3.41-1.28-4.69,0l-7.8,7.8c-1.28,1.28-1.28,3.41,0,4.69l7.8,7.8c1.28,1.28,3.35,1.28,4.69,0l7.8-7.8c1.28-1.34,1.28-3.41-.06-4.69h0Zm-10.08-2.57c.66,0,1.2,.54,1.2,1.2s-.54,1.2-1.2,1.2-1.2-.54-1.2-1.2,.54-1.2,1.2-1.2Zm0,9.83c-.66,0-1.2-.54-1.2-1.2s.54-1.2,1.2-1.2,1.2,.54,1.2,1.2-.54,1.2-1.2,1.2Zm4.85-3.71h-9.69c-.67,0-1.21-.55-1.21-1.21s.55-1.21,1.21-1.21h9.69c.67,0,1.21,.55,1.21,1.21s-.55,1.21-1.21,1.21Zm-8.7-17.49l-7.8-7.73c-1.28-1.28-3.41-1.28-4.69,0l-7.73,7.73c-1.28,1.28-1.28,3.41,0,4.69l7.8,7.8c1.28,1.28,3.35,1.28,4.69,0l7.8-7.8c1.22-1.28,1.22-3.35-.06-4.69Zm-5.26,3.59h-9.69c-.67,0-1.21-.55-1.21-1.21s.55-1.21,1.21-1.21h9.69c.67,0,1.21,.55,1.21,1.21s-.55,1.21-1.21,1.21Zm33.12-3.59h0l-7.8-7.8c-1.28-1.28-3.35-1.28-4.69,0l-7.73,7.8c-1.28,1.28-1.28,3.35,0,4.69l7.8,7.8c1.28,1.28,3.35,1.28,4.69,0l7.8-7.8c1.22-1.28,1.22-3.41-.06-4.69Zm-5.63,5.03c.49,.49,.49,1.3,0,1.79h0c-.49,.49-1.3,.49-1.79,0l-2.69-2.69-2.69,2.69c-.49,.49-1.3,.49-1.79,0s-.49-1.3,0-1.79l2.69-2.69-2.69-2.69c-.49-.49-.49-1.3,0-1.79,.49-.49,1.3-.49,1.79,0l2.69,2.69,2.69-2.69c.49-.49,1.3-.49,1.79,0h0c.49,.49,.49,1.3,0,1.79l-2.69,2.69,2.69,2.69Zm-20.79-6.42c1.28,1.28,3.35,1.28,4.69,0l7.8-7.86c1.28-1.28,1.28-3.35,0-4.63L52.31,.96c-1.28-1.28-3.35-1.28-4.69,0l-7.8,7.8c-1.28,1.28-1.28,3.35,0,4.69l7.8,7.8Zm-2.5-11.35h3.64v-3.64c0-.67,.55-1.21,1.21-1.21s1.21,.55,1.21,1.21v3.64h3.64c.67,0,1.21,.55,1.21,1.21s-.55,1.21-1.21,1.21h-3.64v3.64c0,.67-.55,1.21-1.21,1.21s-1.21-.55-1.21-1.21v-3.64h-3.64c-.67,0-1.21-.55-1.21-1.21s.55-1.21,1.21-1.21Z" fill="#dbb700"/><g><path d="M5.71,44.29V25C5.71,14.37,14.37,5.71,25,5.71h0s5.1,0,5.1,0h0s2.67,0,2.67,0L38.48,0h-13.1s0,0,0,0h-2.8C10.11,0,0,10.11,0,22.58v27.42H38.54l-5.71-5.71H5.71Z" fill="#dbb700"/><polygon points="61.47 0 67.21 5.71 94.29 5.71 94.29 44.29 67.22 44.29 61.51 50 100 50 100 0 61.47 0" fill="#dbb700"/></g></svg>