<svg xmlns="http://www.w3.org/2000/svg" width="100" height="100" viewBox="0 0 100 100"><g transform="translate(-874 -1761)"><g transform="translate(874 1761)"><path d="M2.333,19A3.333,3.333,0,0,1-1,15.667V2.333a3.333,3.333,0,0,1,6.667,0V15.667A3.333,3.333,0,0,1,2.333,19Z" transform="translate(47.667 1)" fill="#36393e"/><path d="M2.333,19A3.333,3.333,0,0,1-1,15.667V2.333a3.333,3.333,0,0,1,6.667,0V15.667A3.333,3.333,0,0,1,2.333,19Z" transform="translate(47.667 81)" fill="#36393e"/><path d="M3.333,20A3.333,3.333,0,0,1,0,16.667V3.333a3.333,3.333,0,0,1,6.667,0V16.667A3.333,3.333,0,0,1,3.333,20Z" transform="translate(100 46.666) rotate(90)" fill="#36393e"/><path d="M3.333,20A3.333,3.333,0,0,1,0,16.667V3.333a3.333,3.333,0,0,1,6.667,0V16.667A3.333,3.333,0,0,1,3.333,20Z" transform="translate(20 46.666) rotate(90)" fill="#36393e"/><path d="M3.333,20A3.333,3.333,0,0,1,0,16.667V3.333a3.333,3.333,0,0,1,6.667,0V16.667A3.333,3.333,0,0,1,3.333,20Z" transform="translate(87.378 82.662) rotate(135)" fill="#36393e"/><path d="M3.333,20A3.333,3.333,0,0,1,0,16.667V3.333a3.333,3.333,0,0,1,6.667,0V16.667A3.333,3.333,0,0,1,3.333,20Z" transform="translate(30.81 26.094) rotate(135)" fill="#36393e"/><path d="M3.333,20A3.333,3.333,0,0,1,0,16.667V3.333a3.333,3.333,0,0,1,6.667,0V16.667A3.333,3.333,0,0,1,3.333,20Z" transform="translate(17.002 87.713) rotate(-135)" fill="#36393e"/><path d="M3.333,20A3.333,3.333,0,0,1,0,16.667V3.333a3.333,3.333,0,0,1,6.667,0V16.667A3.333,3.333,0,0,1,3.333,20Z" transform="translate(73.571 31.145) rotate(-135)" fill="#36393e"/></g><circle cx="23.729" cy="23.729" r="23.729" transform="translate(900.271 1787.271)" fill="#36393e"/><circle cx="3.39" cy="3.39" r="3.39" transform="translate(931.627 1796.593)" fill="#36393e"/></g></svg>