<?xml version="1.0" encoding="utf-8"?>
<!-- Generator: Adobe Illustrator 27.5.0, SVG Export Plug-In . SVG Version: 6.00 Build 0)  -->
<svg version="1.1" id="a" xmlns="http://www.w3.org/2000/svg" xmlns:xlink="http://www.w3.org/1999/xlink" x="0px" y="0px"
	 viewBox="0 0 727.8 500" style="enable-background:new 0 0 727.8 500;" xml:space="preserve">
<style type="text/css">
	.st0{fill:#66968E;}
	.st1{fill:none;}
	.st2{fill:#BA3A4F;}
	.st3{fill:#E5E5E5;}
	.st4{fill:#808080;}
	.st5{fill:#14151F;}
	.st6{fill:#1A1A1A;}
	.st7{fill:#FFFFFF;}
</style>
<rect class="st0" width="727.8" height="500"/>
<path class="st1" d="M485.5,262.5c-18,24-37.5,47.2-53.9,71.5c19.6-4.2,38.9-9.7,57.8-16.4C486.1,299.4,484.8,280.9,485.5,262.5
	L485.5,262.5z"/>
<path class="st1" d="M317.5,343.9c-18.5-18.9-38.6-39.5-56.6-61.8c0.4,1.3,0.4,2.7,0.2,4.1l0,0c-2.9,16.9-6.9,33.6-10,50.5
	c4.9,0.9,9.7,1.7,14.5,2.4C282.7,341.7,300.1,343.3,317.5,343.9L317.5,343.9z"/>
<path class="st2" d="M221.6,156.9c2.9,75.5,69.7,136.8,118.8,187c0.1,0.1,0.1,0.2,0.2,0.2c7.9-0.1,15.9-0.4,23.8-0.9
	c15.1-1,30.1-2.7,45-5.1c0.1-0.2,0.1-0.3,0.2-0.5c40.4-64.8,115.2-126,115.1-208.3c0-21.4-4.5-44.9-20.6-60.3
	c-14.9-14.3-36.5-20.8-56.9-20c-45.7,1.8-89.5,26.4-112.9,65.7c-5.4,9-19.5,0.8-14.1-8.3c5.2-8.7,11.3-16.8,18.1-24.2
	c-20.8-20.8-50.6-20.8-75.7-6.2C233.6,92.8,220.3,124.1,221.6,156.9L221.6,156.9z M381.2,101.8c3.9-14.6,22.8-25.6,36.2-30.8
	c15.6-6,32.8-6.4,48,0.7c0.4,0.2,0.1,0.7-0.3,0.7c-18.3-4-35.1-1.1-50.3,10.1c-10.1,7.4-15.2,19.2-25.5,25.6
	C385.2,110.7,380,106.3,381.2,101.8L381.2,101.8z M373.8,116.8c4.5,0.1,8.2,3.7,8.3,8.3c0.2,4.5-3.9,8.3-8.3,8.3
	c-4.5-0.1-8.2-3.7-8.3-8.3C365.4,120.6,369.5,116.8,373.8,116.8z M289.7,245.2c-4.1-0.1-7.5-3.4-7.5-7.5c-0.2-4.1,3.6-7.5,7.5-7.5
	c4.1,0.1,7.4,3.4,7.5,7.5C297.4,241.7,293.7,245.2,289.7,245.2z M301.2,87c0.3,0.1,0.4,0.6,0,0.7c-26.4,5.3-44.6,31.3-41.9,58.1
	c1.2,13.2,4.5,26,9.7,38.2c4,9.1,11.1,17,14.5,26.2c1.8,4.9-2,10.2-6.6,11.6l-1.6,0.5c-4.7,1.4-9.9-1-12.5-5.1
	c-15.7-25.2-27.6-63.4-15-92.3C255.2,108,280.2,79.2,301.2,87L301.2,87z"/>
<path class="st3" d="M564.5,287.9c2.5,1.3,4.1,4,4,6.8c0.2,1.7-0.2,3.5-1.2,4.9c0,0.2,0,0.5-0.1,0.7c-4.9,22.7-9.9,45.4-14.8,68.2
	c31.6-1,63.1-5.2,93.9-12.5c-14.3-12.1-28.5-24.3-42.8-36.4c-3.4-2.9-2.9-8.6,0-11.6c17.7-18.2,34.4-37.4,49.9-57.5l-128.2,16.1
	C538.5,273.1,551.5,280.5,564.5,287.9L564.5,287.9z"/>
<path class="st3" d="M156.5,309.5c-0.3-1.8,0.2-3.7,1.3-5.2c1-1.7,2.7-3,4.7-3.4c15.4-4.1,30.6-8.5,45.9-12.9
	c-39-2.8-78.1-3.6-117.1-2.2c14.4,14.3,28.6,28.9,42.7,43.5c2.8,2.9,3.5,8.8,0,11.6c-19.9,15.6-39.7,31.5-58.6,48.4
	c30.8,3.3,61.4,7.3,92,12C163.7,370.7,160.1,340.1,156.5,309.5L156.5,309.5z"/>
<path class="st4" d="M235,333.3c2.4-12.7,5.2-25.3,7.7-38c-20.1,5.6-40.1,11.5-60.2,17C198.3,322.7,216.4,329,235,333.3z"/>
<path class="st4" d="M504.9,311.7L504.9,311.7c13-5.1,25.8-10.8,38.4-17.1c-13.5-7.6-27.2-14.9-41.5-20.6
	C501.8,286.6,502.8,299.3,504.9,311.7L504.9,311.7z"/>
<path class="st3" d="M527.3,404.8c4.4-9.8,5.3-22.2,7.5-32.6c4.5-20.6,9-41.2,13.5-61.8c-59.1,29.3-123.6,46.1-189.5,49.6
	c-35.5,1.8-71-0.4-106-6.5c-27.5-4.8-54.5-12-77.9-26.8c2.3,19.6,4.7,39.2,7,58.9c1.6,13.4,0,35.2,12.4,43.2
	c8,5.2,19.4,6.7,28.5,8.9c45,10.5,91.4,14.5,137.5,12c47.2-2.5,93.7-11.8,138.2-27.6C508.9,418.4,522.5,415.5,527.3,404.8
	L527.3,404.8z M297.3,415.2c-0.8-5.9-1.7-11.8-2.9-17.7c-1.6,2.6-3,5.3-4.2,8.1c-2.1,5-6.9,7.5-12,4.9c-3.5-1.8-6.7-3.9-9.6-6.2
	l0.4,8.4l0,0l0,0l0,0c0.5,10.5-15.9,10.5-16.4,0c-0.5-11.4-1-22.8-1.5-34.2c-0.4-10,12.9-10,16.1-2.2c2.6,6.3,6.7,11.4,11.9,15.4
	c3.7-6.6,8.4-12.7,13.9-18c4.4-4.1,12.1-2.5,13.7,3.6c3.1,12.5,5.5,25.1,7,37.9C315,425.7,298.6,425.5,297.3,415.2L297.3,415.2z
	 M358.1,425.8c-18.1,4-30.3-10-28.5-27.6c0.8-7.7,4-15.3,10.1-20.2c4.3-3.5,10.6-5.2,15.7-3c7.2,1.1,13.3,7.1,16.9,13
	C381.1,402.7,375.9,422,358.1,425.8L358.1,425.8z M438.7,401.2c-0.1-4.4-0.3-8.9-0.7-13.3c-0.6,1-1.1,2-1.7,3
	c-2.5,4.6-5.2,9.2-10.4,11.1c-5.4,2-10.5,0-14.9-3.5c0,3,0.1,6,0.2,8.9c0.2,10.6-16,10.5-16.4,0c-0.1-2.5-0.1-4.9-0.1-7.3l-0.4-23
	l0,0c-0.1-4.3,2.6-6.8,5.8-7.6c3.7-2.2,9.4-1.4,11.6,2.8c2.1,4,4.9,10,8.9,12.4c0.3,0.2,0.2,0.5,0.1,0.9c0.1-0.2,0.4-0.5,0.6-0.9
	c0.8-1.4,1.5-2.8,2.1-4.3c3.8-6.8,8.8-12.9,14.8-17.9c4.1-3.5,12.7-3,13.7,3.6c1.8,11.7,2.8,23.4,3.2,35.2
	C455.3,411.8,439,411.7,438.7,401.2z"/>
<path class="st3" d="M357.5,395.3c-0.5-0.7-2.1-2-3-2.9c-0.5,0.1-1,0.1-1.5,0.1c-1.5,0.2-3,0.1-4.4-0.5c-0.5,0.7-1,1.4-1.4,2.2
	c-1,2.2-1.5,4.7-1.5,7.1c-0.1,4.5,0.9,8.8,6.1,8.8c5.6,0.1,9.4-3.5,8.3-9.1C359.6,399,358.8,397.1,357.5,395.3L357.5,395.3z"/>
<path class="st5" d="M671.4,231.8c-59.1,7.4-118.2,14.9-177.4,22.3c-0.9-0.1-1.8,0.1-2.7,0.4c21.9-30.2,40.7-62.1,47.3-99.1
	c5.9-32.9,2.4-73.6-23-97.9c-25.1-24.1-60.2-28-93-21.5c-27.2,5.4-52.2,17.2-72.6,34.8c-49.7-51.6-130.6-3.6-142.5,57.9
	c-10.6,54.5,14.7,104.2,49,148c-1-0.5-2.2-0.8-3.3-0.8h0c-60.2-6.8-120.8-8.6-181.2-5.6c-6.8,0.3-11.1,8.9-5.8,14
	c17,16.3,33.5,33.2,49.9,50.2c-22.4,17.6-44.6,35.7-65.3,55.3c-5.6,5.3-0.8,13.3,5.8,14c38,3.8,75.9,8.6,113.6,14.5
	c3.3,13.6,9.8,23.5,25.7,29.3c48.7,17.9,107.3,21.1,158.6,19c54.3-2.2,108.7-12.9,159.4-32.5c20.4-7.9,27.9-16.8,32.6-38.2
	c0.8-3.5,1.5-7.1,2.3-10.7c39.5-1,78.8-6.7,117-17c5.6-1.5,8.4-9.6,3.6-13.7l-48.3-41.1c20.6-21.7,39.8-44.7,57.4-68.9
	C681.9,239.4,677.3,231.1,671.4,231.8L671.4,231.8z M603.5,307.9c-2.9,3-3.4,8.7,0,11.6c14.3,12.1,28.5,24.3,42.8,36.4
	c-30.8,7.3-62.2,11.4-93.9,12.5c5-22.7,9.9-45.4,14.8-68.2c0-0.2,0-0.5,0.1-0.7c1-1.4,1.4-3.2,1.2-4.9c0.1-2.9-1.4-5.5-4-6.8
	c-13-7.4-26-14.8-39.4-21.3l128.2-16.1C637.8,270.6,621.2,289.8,603.5,307.9L603.5,307.9z M222.8,437.7c-9.1-2.1-20.6-3.7-28.5-8.9
	c-12.4-8-10.8-29.9-12.4-43.2c-2.3-19.6-4.7-39.2-7-58.9c23.4,14.7,50.4,21.9,77.9,26.8c35,6.1,70.5,8.3,106,6.5
	c65.9-3.5,130.4-20.3,189.5-49.6c-4.5,20.6-9,41.2-13.5,61.8c-2.3,10.4-3.2,22.8-7.5,32.6c-4.8,10.8-18.4,13.6-28.8,17.3
	c-44.5,15.8-91.1,25.1-138.2,27.6C314.1,452.2,267.8,448.1,222.8,437.7L222.8,437.7z M133.9,340.9c3.5-2.8,2.8-8.7,0-11.6
	c-14.1-14.6-28.3-29.2-42.7-43.5c39.1-1.3,78.2-0.5,117.1,2.2c-15.3,4.4-30.5,8.8-45.9,12.9c-2,0.5-3.7,1.7-4.7,3.4
	c-1.1,1.5-1.6,3.4-1.3,5.2c3.6,30.6,7.2,61.1,10.9,91.7c-30.6-4.6-61.2-8.6-92-12C94.2,372.4,114,356.5,133.9,340.9L133.9,340.9z
	 M338.3,82.1c-6.9,7.4-13,15.5-18.1,24.2c-5.4,9.1,8.7,17.3,14.1,8.3c23.4-39.3,67.2-63.9,112.9-65.7c20.4-0.8,42,5.8,56.9,20
	c16.1,15.3,20.6,38.8,20.6,60.3c0.1,82.3-74.7,143.5-115.1,208.3c-0.1,0.2-0.2,0.3-0.2,0.5c-14.9,2.4-29.9,4.2-45,5.1
	c-7.9,0.5-15.8,0.8-23.8,0.9c-0.1-0.1-0.1-0.2-0.2-0.2c-49.1-50.3-115.9-111.5-118.8-187c-1.3-32.8,12-64.1,41-81
	C287.7,61.4,317.5,61.3,338.3,82.1L338.3,82.1z M504.9,311.7L504.9,311.7c-2-12.5-3.1-25.1-3.2-37.7c14.4,5.7,28,13,41.5,20.6
	C530.7,300.9,517.9,306.6,504.9,311.7L504.9,311.7z M431.5,333.9c16.5-24.2,36-47.4,53.9-71.4c-0.6,18.4,0.7,36.9,3.9,55.1
	C470.4,324.3,451.1,329.7,431.5,333.9L431.5,333.9z M235,333.3c-18.6-4.3-36.7-10.6-52.5-21c20.1-5.6,40.1-11.5,60.2-17
	C240.2,308,237.4,320.6,235,333.3z M261,286.1L261,286.1c0.2-1.4,0.2-2.8-0.2-4.1c18,22.3,38.2,43,56.6,61.8
	c-17.4-0.6-34.8-2.2-52-4.9c-4.8-0.7-9.6-1.5-14.5-2.4C254.2,319.8,258.1,303.1,261,286.1L261,286.1z"/>
<polygon class="st6" points="269.1,412.7 269.1,412.7 269.1,412.7 "/>
<path class="st6" d="M306.7,377.3c-1.5-6.1-9.3-7.8-13.7-3.6c-5.5,5.3-10.2,11.4-13.9,18c-5.2-4-9.3-9.1-11.9-15.4
	c-3.2-7.8-16.5-7.9-16.1,2.2c0.5,11.4,1,22.8,1.5,34.2c0.5,10.5,16.8,10.5,16.4,0l-0.4-8.4c2.9,2.3,6.1,4.4,9.6,6.2
	c5.1,2.6,10,0.2,12-4.9c1.2-2.8,2.6-5.5,4.2-8.1c1.1,5.9,2.1,11.8,2.9,17.7c1.3,10.3,17.7,10.4,16.4,0
	C312.1,402.4,309.8,389.8,306.7,377.3L306.7,377.3z"/>
<path class="st6" d="M355.3,375c-5-2.1-11.4-0.5-15.7,3c-6.1,5-9.3,12.6-10.1,20.2c-1.8,17.6,10.3,31.6,28.5,27.6
	c17.8-3.9,23-23.2,14.1-37.9C368.6,382,362.5,376.1,355.3,375L355.3,375z M351.8,410.2c-5.1-0.1-6.1-4.3-6.1-8.8
	c0-2.5,0.5-4.9,1.5-7.1c0.4-0.8,0.8-1.5,1.4-2.2c1.4,0.6,2.9,0.7,4.4,0.5c0.5,0,1,0,1.5-0.1c0.9,1,2.5,2.2,3,2.9
	c1.2,1.7,2.1,3.7,2.6,5.8C361.2,406.8,357.5,410.3,351.8,410.2L351.8,410.2z"/>
<path class="st6" d="M438.2,362.4c-6,5-11,11.1-14.8,17.9c-0.6,1.5-1.3,2.9-2.1,4.3c-0.3,0.4-0.5,0.7-0.6,0.9
	c0.1-0.3,0.2-0.7-0.1-0.9c-3.9-2.4-6.8-8.4-8.9-12.4c-2.1-4.1-7.8-4.9-11.6-2.8c-3.2,0.8-5.9,3.3-5.8,7.6l0,0l0.4,23
	c0,2.4,0.1,4.9,0.1,7.3c0.3,10.5,16.5,10.6,16.4,0c0-3-0.1-6-0.2-8.9c4.4,3.5,9.4,5.4,14.9,3.5c5.2-1.9,7.9-6.5,10.4-11.1
	c0.5-1,1.1-2,1.7-3c0.3,4.4,0.6,8.9,0.7,13.3c0.3,10.5,16.7,10.5,16.4,0c-0.4-11.8-1.4-23.5-3.2-35.2
	C450.8,359.4,442.3,358.9,438.2,362.4L438.2,362.4z"/>
<path class="st5" d="M562.6,202.5L562.6,202.5c16-11.1,32.1-22.2,48.2-33.3c8.6-5.9,0.4-20.1-8.3-14.1c-16,11.1-32.1,22.2-48.1,33.3
	C545.8,194.3,554,208.5,562.6,202.5L562.6,202.5z"/>
<path class="st5" d="M137.3,205.3c17,13.9,35.1,26.3,54.1,37.2c9.2,5.2,17.4-8.9,8.3-14.1c-17.9-10.1-34.9-21.7-50.8-34.6
	C140.8,187.1,129.1,198.6,137.3,205.3L137.3,205.3z"/>
<path class="st5" d="M159,173.7l14.4,16.6c2.9,3.3,8.6,3,11.6,0c3.3-3.3,2.9-8.2,0-11.6l-14.4-16.6c-2.9-3.3-8.6-3-11.6,0
	C155.7,165.4,156.1,170.3,159,173.7C159,173.7,159,173.7,159,173.7z"/>
<path class="st5" d="M559.4,152.1c3.9,2.2,8.8,0.9,11.2-2.9l0,0c0.6-1,1.3-1.9,1.9-2.8c0-0.1,0.1-0.1,0.1-0.1
	c0.1-0.1,0.2-0.2,0.3-0.3c0.4-0.5,0.8-1,1.2-1.4c1.6-1.8,3.4-3.4,5.3-4.9c3.4-2.7,3-8.8,0-11.6c-3.6-3.3-8-2.8-11.6,0
	c-4.5,3.6-8.3,8-11.4,12.9C554.2,144.8,555.5,149.8,559.4,152.1z"/>
<path class="st7" d="M262.9,217.3c2.5,4.1,7.7,6.5,12.5,5.1l1.6-0.5c4.6-1.4,8.4-6.7,6.6-11.6c-3.3-9.2-10.5-17.1-14.5-26.2
	c-5.2-12.1-8.5-25-9.7-38.2c-2.7-26.8,15.5-52.8,41.9-58.1c0.4-0.1,0.3-0.6,0-0.7c-21-7.9-46,21-53.4,37.9
	C235.3,153.9,247.2,192.1,262.9,217.3L262.9,217.3z"/>
<path class="st7" d="M289.7,230.1c-3.9,0-7.7,3.5-7.5,7.5c0.1,4.1,3.4,7.4,7.5,7.5c3.9,0,7.7-3.5,7.5-7.5
	C297.2,233.5,293.9,230.2,289.7,230.1z"/>
<path class="st7" d="M389.4,108c10.3-6.5,15.4-18.2,25.5-25.6c15.2-11.2,32-14.1,50.3-10.1c0.4,0.1,0.7-0.5,0.3-0.7
	c-15.2-7.1-32.5-6.8-48-0.7c-13.4,5.2-32.3,16.2-36.2,30.8C380,106.3,385.2,110.7,389.4,108L389.4,108z"/>
<path class="st7" d="M373.8,133.3c4.3,0,8.5-3.8,8.3-8.3c-0.1-4.5-3.7-8.2-8.3-8.3c-4.3,0-8.5,3.8-8.3,8.3
	C365.7,129.6,369.3,133.2,373.8,133.3z"/>
</svg>
