<?xml version="1.0" encoding="utf-8"?>
<!-- Generator: Adobe Illustrator 27.4.1, SVG Export Plug-In . SVG Version: 6.00 Build 0)  -->
<svg version="1.1" id="a" xmlns="http://www.w3.org/2000/svg" xmlns:xlink="http://www.w3.org/1999/xlink" x="0px" y="0px"
	 viewBox="0 0 500 500" style="enable-background:new 0 0 500 500;" xml:space="preserve">
<style type="text/css">
	.st0{fill:#091947;}
	.st1{fill:#00BCFF;}
	.st2{fill:#5CFAFF;}
	.st3{fill:#4F5DFF;}
	.st4{fill:#0B24B8;}
	.st5{fill:#FF9000;}
	.st6{fill:#FFA600;}
	.st7{fill:#FF7B00;}
	.st8{fill:#638AFF;}
	.st9{fill:#A33BFF;}
	.st10{fill:#00F0D4;}
	.st11{fill:#00B6FF;}
	.st12{fill:#006EFF;}
	.st13{fill:#FF9808;}
	.st14{opacity:0.2;fill:#FF5B45;enable-background:new    ;}
	.st15{fill:#FF5C6E;}
	.st16{fill:#A200FF;}
	.st17{fill:#9117FF;}
	.st18{fill:#AD52FF;}
	.st19{fill:#EB4659;}
	.st20{fill:#00E0A1;}
	.st21{fill:#00F0AC;}
	.st22{fill:#00D1E0;}
	.st23{fill:#00D69A;}
	.st24{fill:#6011A6;}
	.st25{fill:#009EC2;}
</style>
<rect class="st0" width="500" height="500"/>
<path class="st1" d="M282.8,26.2h-0.2C282.7,26.2,282.8,26.2,282.8,26.2z"/>
<path class="st1" d="M282.6,46.3V233h31.6V26.2h-31.4v20C282.8,46.2,282.7,46.3,282.6,46.3L282.6,46.3z"/>
<path class="st2" d="M315.6,233L315.6,233c1.7,0.1,3.4,0.5,4.9,1.4l14.2,8.7V26.2h-20.5V233H315.6z"/>
<path class="st3" d="M200.7,108.4c0-45.4,36.8-82,82-82.1l0,0C237.4,26.3,200.6,63.2,200.7,108.4l-0.1,8.8h0.2v-8.8H200.7z"/>
<path class="st3" d="M282.6,46.3c-33.4,3.1-59.7,31.1-59.7,65.3v5.6c16,0.4,29,13.4,29,29.6V233h30.7V46.3L282.6,46.3z"/>
<path class="st4" d="M200.7,108.4v8.8h21.6c0.2,0,0.5,0,0.7,0v-5.6c0-34.2,26.2-62.2,59.7-65.3c0.1,0,0.1,0,0.2,0v-20
	c-0.1,0-0.1,0-0.2,0C237.4,26.3,200.7,63,200.7,108.4L200.7,108.4z"/>
<path class="st5" d="M228.8,234.4c1.2-0.7,2.5-1.1,3.9-1.3V233H252v-86.2c0-16.3-13-29.3-29-29.6c-0.2,0-0.5,0-0.7,0H193v139.2
	L228.8,234.4L228.8,234.4z"/>
<path class="st6" d="M73.2,415.5c-5.2-3.5-9.4-8.6-11.5-14.9c-2.1-6.5-1.9-13,0-18.8c2.6-7.4,2.8-15.4,0.2-22.8
	c-0.2-0.3-0.2-0.9-0.3-1.2c-2.6-10,3.5-20.5,14-22.6c0.2,0,0.3,0,0.5-0.1v-11.3c0-4,3.2-7.2,7.2-7.2h24.4c4,0,7.2,3.2,7.2,7.2v3.4
	c0.7-0.2,1.4-0.3,2.1-0.3h60.7v-38.6h-3.5c-2.1,0-4-0.6-5.4-1.7v4.7c0,1-0.2,2-0.6,2.9c-0.9,2.7-3.4,4.5-6.5,4.5h-14.2
	c-0.5,0-1-0.1-1.5-0.2h-8.9c-3.9,0-7.2-3.2-7.2-7.2v-24.4c0-4,3.2-7.2,7.2-7.2h24.4c4,0,7.2,3.2,7.2,7.2v4.4
	c0.2-0.1,0.3-0.2,0.5-0.3l23.7-14.5V117.1H83.4c-16.3,0-29.7,13.2-29.7,29.7v270.6h17.9C72.2,416.8,72.7,416.1,73.2,415.5
	L73.2,415.5z M130,150.5c0-4,3.2-7.2,7.2-7.2h24.4c4,0,7.2,3.2,7.2,7.2v24.4c0,1.6-0.5,3-1.3,4.1c-1.2,1.9-3.3,3.1-5.7,3.1h-24.6
	c-3.9,0-7.2-3.3-7.2-7.2L130,150.5L130,150.5z M130,211c0-4,3.2-7.2,7.2-7.2h24.4c4,0,7.2,3.2,7.2,7.2v24.4c0,1-0.2,2-0.6,2.9
	c-0.9,2.7-3.4,4.5-6.5,4.5h-14.2c-0.5,0-1-0.1-1.5-0.2h-8.9c-3.9,0-7.2-3.2-7.2-7.2L130,211L130,211z M76.1,150.5
	c0-4,3.2-7.2,7.2-7.2h24.4c4,0,7.2,3.2,7.2,7.2v24.4c0,1.6-0.5,3-1.3,4.1c-1.2,1.9-3.3,3.1-5.7,3.1H83.3c-4,0-7.2-3.3-7.2-7.2
	L76.1,150.5L76.1,150.5z M76.1,211c0-4,3.2-7.2,7.2-7.2h24.4c4,0,7.2,3.2,7.2,7.2v24.4c0,1-0.2,2-0.6,2.9c-0.9,2.7-3.4,4.5-6.5,4.5
	H93.6c-0.5,0-1-0.1-1.5-0.2h-8.8c-4,0-7.2-3.2-7.2-7.2V211L76.1,211z M76.1,266.9c0-4,3.2-7.2,7.2-7.2h24.4c4,0,7.2,3.2,7.2,7.2
	v24.4c0,1-0.2,2-0.6,2.9c-0.9,2.7-3.4,4.5-6.5,4.5H93.6c-0.5,0-1-0.1-1.5-0.2h-8.8c-4,0-7.2-3.2-7.2-7.2V266.9L76.1,266.9z"/>
<path class="st6" d="M176.3,353.7c-10.9,0-19.7,8.8-19.7,19.7v44.1h21.1v-63.7h-1.4V353.7z"/>
<path class="st7" d="M83.3,182.1h10.4c-3.9,0-6.8-3-6.8-6.7v-25.1c0-3.9,3-6.8,6.8-6.8h14.2c3.9,0,6.8,3,6.8,6.8v24.9
	c0,1.4-0.4,2.7-1.1,3.8c0.8-1.2,1.3-2.6,1.3-4.1v-24.4c0-4-3.2-7.2-7.2-7.2H83.3c-4,0-7.2,3.2-7.2,7.2v24.4
	C76.1,178.7,79.2,182.1,83.3,182.1L83.3,182.1z"/>
<path class="st8" d="M114.7,150.3c0-3.9-3-6.8-6.8-6.8H93.6c-3.9,0-6.8,3-6.8,6.8v25.1c0,3.7,3,6.7,6.8,6.7h14.2
	c2.4,0,4.5-1.2,5.7-3.1c0.7-1.1,1.1-2.4,1.1-3.8L114.7,150.3L114.7,150.3z"/>
<path class="st7" d="M137.2,182.1h10.4c-3.7,0-6.8-3-6.8-6.7v-25.1c0-3.9,3-6.8,6.8-6.8h14.2c3.9,0,6.8,3,6.8,6.8v24.9
	c0,1.4-0.4,2.7-1.1,3.8c0.8-1.2,1.3-2.6,1.3-4.1v-24.4c0-4-3.2-7.2-7.2-7.2h-24.4c-4,0-7.2,3.2-7.2,7.2v24.4
	C130,178.7,133.3,182.1,137.2,182.1L137.2,182.1z"/>
<path class="st8" d="M168.6,150.3c0-3.9-3-6.8-6.8-6.8h-14.2c-3.9,0-6.8,3-6.8,6.8v25.1c0,3.7,3.2,6.7,6.8,6.7h14.2
	c2.4,0,4.5-1.2,5.7-3.1c0.7-1.1,1.1-2.4,1.1-3.8V150.3L168.6,150.3z"/>
<path class="st7" d="M83.3,242.6h8.8c-3.1-0.7-5.3-3.5-5.3-6.7v-25.1c0-3.9,3-6.8,6.8-6.8h14.2c3.9,0,6.8,3,6.8,6.8V236
	c0,0.8-0.1,1.6-0.4,2.3c0.4-0.9,0.6-1.8,0.6-2.9V211c0-4-3.2-7.2-7.2-7.2H83.3c-4,0-7.2,3.2-7.2,7.2v24.4
	C76.1,239.5,79.2,242.6,83.3,242.6L83.3,242.6z"/>
<path class="st8" d="M114.7,210.9c0-3.9-3-6.8-6.8-6.8H93.6c-3.9,0-6.8,3-6.8,6.8V236c0,3.2,2.2,6,5.3,6.7c0.5,0.1,1,0.2,1.5,0.2
	h14.2c3,0,5.5-1.9,6.5-4.5c0.3-0.7,0.4-1.5,0.4-2.3V210.9L114.7,210.9z"/>
<path class="st7" d="M137.2,242.6h8.9c-3-0.7-5.4-3.5-5.4-6.7v-25.1c0-3.9,3-6.8,6.8-6.8h14.2c3.9,0,6.8,3,6.8,6.8V236
	c0,0.8-0.1,1.6-0.4,2.3c0.4-0.9,0.6-1.8,0.6-2.9V211c0-4-3.2-7.2-7.2-7.2h-24.4c-4,0-7.2,3.2-7.2,7.2v24.4
	C130,239.5,133.3,242.6,137.2,242.6L137.2,242.6z"/>
<path class="st8" d="M168.6,210.9c0-3.9-3-6.8-6.8-6.8h-14.2c-3.9,0-6.8,3-6.8,6.8V236c0,3.2,2.4,6,5.4,6.7c0.5,0.1,1,0.2,1.5,0.2
	h14.2c3,0,5.5-1.9,6.5-4.5c0.3-0.7,0.4-1.5,0.4-2.3L168.6,210.9L168.6,210.9z"/>
<path class="st7" d="M83.3,298.4h8.8c-3.1-0.7-5.3-3.5-5.3-6.7v-25.1c0-3.9,3-6.8,6.8-6.8h14.2c3.9,0,6.8,3,6.8,6.8v25.1
	c0,0.8-0.1,1.6-0.4,2.3c0.4-0.9,0.6-1.8,0.6-2.9v-24.4c0-4-3.2-7.2-7.2-7.2H83.3c-4,0-7.2,3.2-7.2,7.2v24.4
	C76.1,295.3,79.2,298.4,83.3,298.4L83.3,298.4z"/>
<path class="st8" d="M114.7,266.7c0-3.9-3-6.8-6.8-6.8H93.6c-3.9,0-6.8,3-6.8,6.8v25.1c0,3.2,2.2,6,5.3,6.7c0.5,0.1,1,0.2,1.5,0.2
	h14.2c3,0,5.5-1.9,6.5-4.5c0.3-0.7,0.4-1.5,0.4-2.3V266.7L114.7,266.7z"/>
<path class="st7" d="M86.8,336.5v-13c0-3.9,3-6.8,6.8-6.8h14.2c3.9,0,6.8,3,6.8,6.8v3.6c0.1,0,0.1,0,0.2,0v-3.4c0-4-3.2-7.2-7.2-7.2
	H83.3c-4,0-7.2,3.2-7.2,7.2V335C79.8,334.4,83.5,335,86.8,336.5L86.8,336.5z"/>
<path class="st8" d="M107.9,334.1c0.8-3.4,3.4-6.1,6.8-7v-3.6c0-3.9-3-6.8-6.8-6.8H93.6c-3.9,0-6.8,3-6.8,6.8v13
	c0.3,0.2,0.6,0.3,1,0.5c3.2-2.9,7.6-4.7,12.4-4.7C102.9,332.3,105.5,333,107.9,334.1L107.9,334.1z"/>
<path class="st7" d="M140.7,291.8v-25.1c0-3.9,3-6.8,6.8-6.8h14.2c3.9,0,6.8,3,6.8,6.8v4.7c0.1,0,0.1-0.1,0.2-0.1v-4.4
	c0-4-3.2-7.2-7.2-7.2h-24.4c-4,0-7.2,3.2-7.2,7.2v24.4c0,4,3.3,7.2,7.2,7.2h8.9C143,297.7,140.7,295,140.7,291.8L140.7,291.8z"/>
<path class="st7" d="M168.6,291.8c0,0.8-0.1,1.6-0.4,2.3c0.4-0.9,0.6-1.8,0.6-2.9v-4.7c-0.1,0-0.1-0.1-0.2-0.1L168.6,291.8
	L168.6,291.8z"/>
<path class="st8" d="M168.6,286.4c-4.7-3.5-5.4-11.2,0-15.1v-4.7c0-3.9-3-6.8-6.8-6.8h-14.2c-3.9,0-6.8,3-6.8,6.8v25.1
	c0,3.2,2.4,6,5.4,6.7c0.5,0.1,1,0.2,1.5,0.2h14.2c3,0,5.5-1.9,6.5-4.5c0.3-0.7,0.4-1.5,0.4-2.3L168.6,286.4L168.6,286.4z"/>
<path class="st9" d="M375.8,247.3c-4.6-2.6-8.9-6.3-12.6-11c-0.3-0.3-0.5-0.6-0.7-1l-8.1,19.8L369,264L375.8,247.3z"/>
<path class="st10" d="M375.8,247.3c2.5,1.4,5,2.5,7.6,3.2c8.1,2.5,16.3,1.4,22.5-3.3c4.4-3.4,8.3-6.1,10.9-8.8
	c-4.5,3.3-9.9,4.6-15.5,4.2c-2.1-0.2-4.2-0.5-6.3-1.2c-1.8-0.5-3.7-1.2-5.5-2.1c-0.9-0.4-1.8-0.9-2.7-1.4c-0.4-0.3-0.9-0.5-1.3-0.8
	c-0.9-0.6-1.7-1.2-2.6-1.8c-0.4-0.3-0.8-0.6-1.3-1c-0.8-0.7-1.6-1.4-2.4-2.1c-1.6-1.5-3.1-3.2-4.5-5c-0.3-0.4-0.7-0.9-1-1.4
	c-0.7-0.9-1.3-1.8-1.8-2.8c-1.7-2.8-3-5.8-4-8.7c-0.2-0.5-0.3-1-0.4-1.5c-0.3-1-0.5-2-0.7-3s-0.3-2-0.4-2.9c-0.1-1-0.2-2-0.2-2.9
	c0-2.3,0.2-4.4,0.5-6.5c0.9-4.8,3-9.1,6.3-12.5c-2.8,1.9-5.8,4.4-9.4,7.2c-6.1,4.9-9.1,12.5-9,20.9c0.2,7.4,2.7,15.2,7.9,22.2
	c0.2,0.3,0.5,0.7,0.7,1C366.8,241,371.2,244.7,375.8,247.3L375.8,247.3z"/>
<path class="st11" d="M389.5,239.3c-0.9-0.4-1.8-0.9-2.7-1.4C387.7,238.4,388.6,238.9,389.5,239.3z"/>
<path class="st11" d="M367.5,212.8c-0.3-1-0.5-2-0.7-3C367,210.9,367.2,211.9,367.5,212.8z"/>
<path class="st11" d="M385.5,237.1c-0.9-0.6-1.7-1.2-2.6-1.8C383.8,235.9,384.7,236.5,385.5,237.1z"/>
<path class="st11" d="M398.4,198.3l13.6-10.5c-11.6-10.1-26.8-12.4-36.8-4.7c-0.8,0.6-1.5,1.2-2.1,1.9c-3.3,3.3-5.4,7.7-6.3,12.5
	C376.6,191.3,389.2,191.8,398.4,198.3L398.4,198.3z"/>
<path class="st11" d="M367.9,214.3c0.9,3,2.3,5.9,4,8.7C370.2,220.2,368.9,217.3,367.9,214.3z"/>
<path class="st11" d="M366.8,209.9c-0.2-1-0.3-2-0.4-2.9C366.5,207.9,366.6,208.9,366.8,209.9z"/>
<path class="st11" d="M408.6,211.9c3.8,10.6,1.2,22.7-7.3,30.7c5.6,0.3,11-1,15.5-4.2c0.2-0.1,0.3-0.2,0.5-0.3
	c10.1-7.7,11.6-22.9,5-36.7L408.6,211.9L408.6,211.9z"/>
<path class="st11" d="M373.8,225.8c-0.7-0.9-1.3-1.8-1.8-2.8C372.5,224,373.1,224.9,373.8,225.8z"/>
<path class="st11" d="M379.3,232.1c0.8,0.8,1.6,1.5,2.4,2.1C380.9,233.6,380.1,232.9,379.3,232.1z"/>
<path class="st12" d="M408.6,211.9l-5.2,4c-3.7,2.6-9,2.1-11.9-1.6c-2.8-3.7-2.1-9,1.6-11.9l5.3-4.1c-9.2-6.5-21.8-7-31.7-0.8
	c-0.3,2.1-0.5,4.2-0.5,6.5c0,1,0.1,1.9,0.2,2.9s0.3,2,0.4,2.9s0.4,2,0.7,3c0.1,0.5,0.3,1,0.4,1.5c0.9,3,2.3,5.9,4,8.7
	c0.6,0.9,1.2,1.9,1.8,2.8c0.3,0.5,0.7,0.9,1,1.4c1.4,1.8,2.9,3.5,4.5,5c0.8,0.8,1.6,1.5,2.4,2.1c0.4,0.3,0.8,0.7,1.3,1
	c0.8,0.6,1.7,1.2,2.6,1.8c0.4,0.3,0.9,0.5,1.3,0.8c0.9,0.5,1.8,1,2.7,1.4c1.8,0.9,3.6,1.6,5.5,2.1c2.1,0.7,4.2,1.1,6.3,1.2
	C409.8,234.6,412.4,222.5,408.6,211.9L408.6,211.9z"/>
<path class="st9" d="M398.4,198.3l-5.3,4.1c-3.7,3-4.4,8.3-1.6,11.9c3,3.7,8.3,4.2,11.9,1.6l5.2-4l13.7-10.5l2.7-2.1
	c3.7-3,4.4-8.3,1.6-11.9c-3-3.7-8.3-4.4-11.9-1.6l-2.7,2.1L398.4,198.3L398.4,198.3z"/>
<path class="st13" d="M311.1,366.7c0-5.1,4.2-9.3,9.3-9.3h32.7c1.2-2.1,2.5-4,4.1-5.8c5.6-6.3,7.2-15.3,3.7-22.8
	c-1.4-3.2-2.3-6.5-2.3-10.2c0-6.9,2.9-13.1,7.6-17.6h-76.5v26.1c4.1,1,7.2,4.7,7.2,9c0.2,5.1-4,9.3-9.1,9.3h-59.7v72H249v-48.3
	c0-6.7,4.3-12.4,10.3-14.6c1.6-0.6,3.3-0.9,5.1-0.9h9.6c8.4,0,15.4,6.8,15.4,15.4v48.3h30.9V376C315.3,376,311.1,371.8,311.1,366.7
	L311.1,366.7z"/>
<path class="st13" d="M293,288.3h-3.3v12.8h76.5c1.7-1.6,3.5-2.9,5.6-4v-8.9L293,288.3L293,288.3z"/>
<path class="st14" d="M293,288.3h-3.3v12.8h76.5c1.7-1.6,3.5-2.9,5.6-4v-8.9L293,288.3L293,288.3z"/>
<path class="st15" d="M226.8,326.9h60.7c0.7,0,1.4,0.1,2.1,0.3v-38.9h-0.2v12.8L177.7,313v13.9H226.8L226.8,326.9z"/>
<path class="st15" d="M187.3,353.7h-9.6v63.7H207v-44.1C207,362.5,198.2,353.7,187.3,353.7L187.3,353.7z"/>
<path class="st15" d="M269.7,369.2c0-6.8-4.4-12.5-10.4-14.6c-6.1,2.1-10.3,7.9-10.3,14.6v48.3h20.7V369.2z"/>
<path class="st13" d="M408.8,417.4c0.5-0.7,1-1.3,1.5-1.9c-3.1-1.7-5.8-4-8.1-6.7v8.6H408.8L408.8,417.4z"/>
<path class="st15" d="M375.8,417.4h26.3v-8.6c-1.3-1.5-2.5-3.2-3.5-4.9c-5.2,2.8-11.1,4.3-17.4,4.1c-17.2-0.7-31.4-14.6-32.5-31.8
	c0-0.1,0-0.1,0-0.2h-28.4v41.4H375.8L375.8,417.4z"/>
<polygon class="st16" points="289.5,301.1 289.5,288.3 256.3,288.3 177.7,288.3 177.7,313 "/>
<path class="st17" d="M375.1,288.1h-80.3c-0.6,0.1-1.2,0.2-1.9,0.2H375c5.9,0,9.5-4.8,9.4-9.7C384.6,283.4,381,288.1,375.1,288.1
	L375.1,288.1z"/>
<path class="st17" d="M315.6,233.1L315.6,233.1l-83-0.1v0.2c2-0.2,4,0.2,5.8,1.3l59.2,36.3h82.1l-10.8-6.6l-14.6-8.9l-19.6-12
	l-14.2-8.7C319,233.5,317.3,233.1,315.6,233.1L315.6,233.1z"/>
<path class="st18" d="M297.6,270.7l-59.2-36.3c-1.8-1-3.8-1.5-5.8-1.3c-1.3,0.1-2.7,0.5-3.9,1.3l-35.8,22l-23.7,14.5
	c-0.2,0.1-0.4,0.2-0.5,0.3c-0.1,0-0.1,0.1-0.2,0.1c-5.4,3.9-4.7,11.6,0,15.1c0.1,0,0.1,0.1,0.2,0.1c1.5,1,3.3,1.7,5.4,1.7H293
	c0.7,0,1.3-0.1,1.9-0.2h80.3c5.9,0,9.4-4.7,9.4-9.5c0-3-1.4-5.9-4.5-7.9L297.6,270.7L297.6,270.7z"/>
<path class="st13" d="M176.3,353.7h-19.7c-10.9,0-19.7,8.8-19.7,19.7v44.1h19.7v-44.1C156.6,362.5,165.4,353.7,176.3,353.7
	L176.3,353.7z"/>
<path class="st19" d="M289.5,369.2c0-8.6-7-15.4-15.4-15.4h-9.6c-1.8,0-3.5,0.3-5.1,0.9c6,2.1,10.4,7.8,10.4,14.6v48.3h19.8
	L289.5,369.2L289.5,369.2z"/>
<path class="st19" d="M228.1,353.7v-8.3H117.4c0.3,1,0.5,2.1,0.6,3.2c0.2,0.7,0.2,1.2,0.2,1.9c0,7.9,2.5,15.4,7.4,21.2
	c3.5,4.6,5.8,10.2,6.1,16.3c0.6,9.1-3.1,17.5-9.3,23.3c2,1.8,3.8,3.8,5.4,6h9.1v-44.1c0-10.9,8.8-19.7,19.7-19.7h30.7
	c10.9,0,19.7,8.8,19.7,19.7v44.1h21.1L228.1,353.7L228.1,353.7z"/>
<path class="st17" d="M226.8,326.9c5.1,0,9.3,4.2,9.3,9.3c0.2,5.1-4,9.3-9.3,9.3h60.9c5.1,0,9.3-4.2,9.1-9.3c0-4.4-3.1-8.1-7.2-9
	c-0.7-0.2-1.4-0.3-2.1-0.3H226.8L226.8,326.9z"/>
<path class="st18" d="M107.9,334.1c4.5,2.2,8.1,6.4,9.5,11.3h109.4c5.3,0,9.5-4.2,9.3-9.3c0-5.1-4.2-9.3-9.3-9.3H117
	c-0.7,0-1.4,0.1-2.1,0.3c-0.1,0-0.1,0-0.2,0C111.3,328,108.7,330.7,107.9,334.1L107.9,334.1z"/>
<path class="st18" d="M311.1,366.7c0,5.1,4.2,9.3,9.3,9.3h28.4c-0.3-6.7,1.2-13.1,4.3-18.6h-32.7
	C315.3,357.4,311.1,361.6,311.1,366.7L311.1,366.7z"/>
<path class="st20" d="M80.3,408.9c-3.7-4.3-6.2-9.6-6.9-15.5c-0.7-6.7,0.7-13,3.9-18.3c3.9-6.7,5.8-14.6,4.7-22.3
	c-0.2-0.3-0.2-0.9-0.2-1.2c-0.4-5.8,1.9-11,5.9-14.6c-0.3-0.2-0.6-0.3-1-0.5c-3.3-1.5-7-2.1-10.7-1.5c-0.2,0-0.3,0-0.5,0.1
	c-10.5,2.1-16.7,12.6-14,22.6c0.2,0.3,0.2,0.9,0.3,1.2c2.6,7.4,2.5,15.4-0.2,22.8c-1.9,5.8-2.1,12.3,0,18.8
	c2.1,6.3,6.3,11.4,11.5,14.9C75.2,413,77.6,410.8,80.3,408.9L80.3,408.9z"/>
<path class="st21" d="M107.9,334.1c-2.4-1.2-5-1.8-7.8-1.8c-4.8,0-9.1,1.8-12.4,4.7c-3.9,3.6-6.3,8.8-5.9,14.6c0,0.3,0,0.9,0.2,1.2
	c1.1,7.7-0.9,15.6-4.7,22.3c-3.2,5.3-4.6,11.6-3.9,18.3c0.7,5.9,3.2,11.3,6.9,15.5c5.5-3.8,12.2-6.1,19.5-6.1
	c8.7,0,16.6,3.2,22.7,8.6c6.2-5.8,9.8-14.2,9.3-23.3c-0.3-6.1-2.6-11.8-6.1-16.3c-4.9-5.8-7.4-13.3-7.4-21.2c0-0.7,0-1.2-0.2-1.9
	c-0.1-1.1-0.3-2.1-0.6-3.2C116,340.5,112.4,336.4,107.9,334.1L107.9,334.1z"/>
<path class="st22" d="M122.4,411.4c-6.1-5.3-14-8.6-22.7-8.6c-7.2,0-13.9,2.2-19.5,6.1c-2.7,1.8-5.1,4.1-7.1,6.6
	c-0.5,0.6-1,1.3-1.5,1.9h56.1C126.3,415.2,124.5,413.2,122.4,411.4L122.4,411.4z"/>
<path class="st20" d="M444.3,349.2c-0.5,8.1,1.9,16.1,6.3,22.8c3.5,5.3,5.4,11.8,5.1,18.8c-0.4,6.3-2.7,12.1-6.3,16.8
	c3.4,1.8,6.4,4.1,9,6.9c7.9-3,14.2-9.5,16.5-18c1.6-6,1.1-11.9-1.1-17.2c-2.8-6.7-3.3-14-1.4-20.9c0.2-0.3,0.3-0.7,0.3-1.1
	c1.9-9.5-4.4-18.6-14-20c-5.8-0.7-11.4,1.6-15,5.8c0.4,1.5,0.6,3.1,0.6,4.7V349.2L444.3,349.2z"/>
<path class="st21" d="M416.6,374.1c0,12.9-7.2,24.1-17.9,29.8c1,1.8,2.2,3.4,3.5,4.9c2.3,2.7,5,4.9,8.1,6.7
	c5.8-7,14.6-11.6,24.5-11.6c5.3,0,10.2,1.3,14.6,3.6c3.6-4.7,5.9-10.5,6.3-16.8c0.3-7-1.6-13.5-5.1-18.8c-4.4-6.7-6.8-14.7-6.3-22.8
	v-1.4c0-1.6-0.2-3.2-0.6-4.7c-2.2-8.5-10.2-14.6-19.6-14c-9.5,0.7-17.2,8.6-17.6,18.1v1.9c0,0.2,0,0.4,0,0.6
	c0.4,0.6,0.9,1.3,1.4,1.9C413.2,357.4,416.6,365.5,416.6,374.1L416.6,374.1z"/>
<path class="st22" d="M449.4,407.5c-4.4-2.3-9.3-3.6-14.6-3.6c-10,0-18.8,4.5-24.5,11.6c-0.5,0.6-1,1.3-1.5,1.9h48.1
	c0.1,0,0.3,0,0.4,0c0.4,0,0.8,0,1.1,0c0.4,0,0.7,0.1,1.1,0.1c0.1,0,0.1,0,0.2,0c0.4,0,0.8,0.1,1.2,0.1c-0.8-1.2-1.7-2.3-2.7-3.3
	C455.8,411.6,452.8,409.3,449.4,407.5L449.4,407.5z"/>
<path class="st20" d="M358.6,318.6c0,3.7,0.9,7,2.3,10.2c3.5,7.5,1.9,16.5-3.7,22.8c-1.6,1.8-3,3.7-4.1,5.8
	c-3.1,5.5-4.7,11.9-4.3,18.6c0,0.1,0,0.1,0,0.2c1.1,17.2,15.3,31.1,32.5,31.8c6.3,0.2,12.3-1.3,17.4-4.1
	c10.6-5.7,17.9-16.9,17.9-29.8c0-8.6-3.3-16.7-8.6-22.6c-0.5-0.6-0.9-1.2-1.4-1.9c-4.2-6.3-5-14.3-2-21.1c1.6-3.3,2.3-7,2.1-10.9
	c-0.5-12.1-10.2-22.1-22.3-23c-4.6-0.3-8.9,0.6-12.6,2.5c-2,1-3.9,2.4-5.6,4C361.5,305.5,358.6,311.7,358.6,318.6L358.6,318.6z"/>
<path class="st9" d="M364.3,445.5c0-4.4-1-8.6-2.8-12.3H17.9c-1.9,3.8-2.9,8-2.9,12.5c0,15.4,12.5,28.1,28.1,28.1h402.8
	c1.1,0,2.1-0.1,3.1-0.2H336.2C351.6,473.6,364.3,461.1,364.3,445.5L364.3,445.5z"/>
<path class="st23" d="M361.2,432.7c-0.2-0.3-0.3-0.6-0.5-0.9c-0.1-0.2-0.2-0.3-0.3-0.4c-4.5-7.7-12.6-13.1-22-13.8
	c-0.1,0-0.3,0-0.4,0c-0.6,0-1.2-0.1-1.9-0.1h-293c-11.1,0-20.7,6.5-25.3,15.8h343.6C361.4,433.1,361.3,432.9,361.2,432.7
	L361.2,432.7z"/>
<path class="st24" d="M482.2,433.2H361.5c-0.1-0.2-0.2-0.3-0.3-0.5c0.1,0.2,0.2,0.3,0.3,0.5c1.8,3.7,2.8,7.9,2.8,12.3
	c0,15.6-12.6,28.1-28.1,28.1h120.7c15.6,0,28.1-12.6,28.1-28.1C485,441.1,484,437,482.2,433.2L482.2,433.2z"/>
<path class="st24" d="M457.3,417.4c0.4,0,0.8,0,1.1,0C458.1,417.5,457.7,417.5,457.3,417.4z"/>
<path class="st24" d="M459.6,417.6c0.1,0,0.1,0,0.2,0C459.7,417.6,459.6,417.6,459.6,417.6z"/>
<path class="st24" d="M338.4,417.5c-0.1,0-0.3,0-0.4,0C338.2,417.5,338.3,417.5,338.4,417.5z"/>
<path class="st24" d="M360.7,431.8c-0.1-0.2-0.2-0.3-0.3-0.4C360.5,431.5,360.6,431.6,360.7,431.8z"/>
<path class="st25" d="M459.6,417.6c-0.4,0-0.7-0.1-1.1-0.1s-0.8,0-1.1,0c-0.1,0-0.3,0-0.4,0H336.2c0.6,0,1.3,0,1.9,0.1
	c0.1,0,0.3,0,0.4,0c9.3,0.8,17.5,6.1,22,13.8c0.1,0.1,0.2,0.3,0.3,0.4c0.2,0.3,0.3,0.6,0.5,0.9c0.1,0.2,0.2,0.3,0.3,0.5h120.7
	c-4-8.1-11.9-14.1-21.2-15.5c-0.4-0.1-0.8-0.1-1.2-0.1C459.7,417.6,459.6,417.6,459.6,417.6L459.6,417.6z"/>
</svg>
