<?xml version="1.0" encoding="utf-8"?>
<!-- Generator: Adobe Illustrator 27.5.0, SVG Export Plug-In . SVG Version: 6.00 Build 0)  -->
<svg version="1.1" id="a" xmlns="http://www.w3.org/2000/svg" xmlns:xlink="http://www.w3.org/1999/xlink" x="0px" y="0px"
	 viewBox="0 0 496.1 496.1" style="enable-background:new 0 0 496.1 496.1;" xml:space="preserve">
<style type="text/css">
	.st0{fill:#091947;}
	.st1{clip-path:url(#SVGID_00000118390791574122368870000018091119715736288915_);}
	.st2{fill:#1523A1;}
	.st3{fill:#1F55E9;}
	.st4{fill:none;stroke:#1F92D7;stroke-width:7.074;stroke-linecap:round;stroke-miterlimit:10;}
	.st5{fill:#FF4019;}
	.st6{fill:#E936FD;}
	.st7{fill:#BA00EA;}
	.st8{fill:#FF2E77;}
	.st9{fill:#7100C7;}
	.st10{fill:#F9D66A;}
	.st11{fill:#FF3A31;}
	.st12{fill:#DC005E;}
	.st13{fill:#FF8639;}
	
		.st14{fill:none;stroke:url(#SVGID_00000148662106426811522680000000159359700054039959_);stroke-width:9.072;stroke-linecap:round;stroke-miterlimit:10;}
	
		.st15{fill:none;stroke:url(#SVGID_00000070118718090180901640000002713990098493025419_);stroke-width:9.072;stroke-linecap:round;stroke-miterlimit:10;}
	
		.st16{fill:none;stroke:url(#SVGID_00000040566653089630500360000002304267703070046131_);stroke-width:9.072;stroke-linecap:round;stroke-miterlimit:10;}
	
		.st17{fill:none;stroke:url(#SVGID_00000102542613091435293330000008089276810726826405_);stroke-width:9.072;stroke-linecap:round;stroke-miterlimit:10;}
	.st18{fill:#00E159;}
	.st19{fill:#FF4E57;}
	.st20{fill:#006EFD;}
	.st21{fill:#FFDB00;}
	.st22{fill-rule:evenodd;clip-rule:evenodd;fill:#228AD7;}
	.st23{fill:#48CA5E;}
	.st24{fill:#FFFFFF;}
	.st25{fill:#228AD7;}
	.st26{fill:#004BB2;}
	.st27{fill:#006D57;}
	.st28{fill:#28EBDB;}
	.st29{fill:#0E52FF;}
	.st30{fill:none;stroke:#B9FDF6;stroke-width:4.527;stroke-linecap:round;stroke-miterlimit:10;}
	.st31{fill:#B9FDF6;}
	.st32{fill:#2E2B4F;}
	.st33{fill:none;stroke:#FFFFFF;stroke-width:4.527;stroke-linecap:round;stroke-miterlimit:10;}
	.st34{fill:none;stroke:#FFFFFF;stroke-width:3.906;stroke-linecap:round;stroke-miterlimit:10;}
	.st35{fill:none;stroke:#FFFFFF;stroke-width:3.375;stroke-linecap:round;stroke-miterlimit:10;}
	.st36{fill:#33178A;}
	.st37{fill:#210D62;}
	.st38{fill:none;stroke:#0080EB;stroke-width:5.436;stroke-linecap:round;stroke-linejoin:round;}
	.st39{fill:#8D54E3;stroke:#8D54E3;stroke-width:4.4821;stroke-linecap:round;stroke-linejoin:round;stroke-miterlimit:4.0001;}
	.st40{fill:none;stroke:#DECAFB;stroke-width:4.482;stroke-linecap:round;stroke-linejoin:round;}
	.st41{fill:#DECAFB;stroke:#DECAFB;stroke-width:4.482;stroke-linecap:round;stroke-linejoin:round;}
	.st42{fill:#E6D8FA;stroke:#E6D8FA;stroke-width:4.482;stroke-linecap:round;stroke-linejoin:round;}
	
		.st43{opacity:0.25;fill:#8D54E3;stroke:#8D54E3;stroke-width:4.482;stroke-linecap:round;stroke-linejoin:round;enable-background:new    ;}
	.st44{fill:#FFFFFF;stroke:#FFFFFF;stroke-width:4.482;stroke-linecap:round;stroke-linejoin:round;}
	.st45{fill:#A300F6;}
	.st46{fill:none;stroke:#8700D1;stroke-width:5.436;stroke-miterlimit:10;}
	.st47{fill:none;stroke:#352A61;stroke-width:4.698;stroke-linecap:round;stroke-linejoin:round;}
	.st48{fill:#D700AB;stroke:#D700AB;stroke-width:4.419;stroke-linecap:round;stroke-linejoin:round;}
	.st49{fill:none;stroke:#F600E4;stroke-width:4.419;stroke-linecap:round;stroke-linejoin:round;}
	.st50{fill:none;stroke:#8700D1;stroke-width:4.419;stroke-linecap:round;stroke-linejoin:round;}
	.st51{fill:#8700D1;}
	.st52{fill:#352A61;}
	.st53{fill:none;stroke:#D700AB;stroke-width:9.639;stroke-linecap:round;stroke-linejoin:round;}
	.st54{fill:none;stroke:#F600E4;stroke-width:6.273;stroke-linecap:round;stroke-linejoin:round;}
	.st55{fill:#FF7900;}
	.st56{fill:#1C63FF;}
	.st57{fill:none;stroke:#434CCE;stroke-width:4.698;stroke-linecap:round;stroke-linejoin:round;}
</style>
<rect x="0" y="0" class="st0" width="496.1" height="496.1"/>
<circle cx="365" cy="131" r="108"/>
<g>
	<g>
		<defs>
			<circle id="SVGID_1_" cx="365" cy="131" r="108"/>
		</defs>
		<clipPath id="SVGID_00000022554069513038438090000014643057127360039587_">
			<use xlink:href="#SVGID_1_"  style="overflow:visible;"/>
		</clipPath>
		<g style="clip-path:url(#SVGID_00000022554069513038438090000014643057127360039587_);">
			<path class="st2" d="M374.7,77.6L374.7,77.6c-2.9-10-13.4-15.7-23.4-12.7l0,0c-1.7,0.5-2.6,2.2-2.1,3.9l0,0
				c2.9,10,13.4,15.7,23.4,12.7l0,0C374.2,81,375.1,79.3,374.7,77.6z"/>
			<path class="st2" d="M399.1,101L399.1,101c-2.3-10.1-12.5-16.4-22.5-14.1l0,0c-1.7,0.4-2.7,2.1-2.3,3.8l0,0
				c2.3,10.1,12.5,16.4,22.5,14.1l0,0C398.5,104.3,399.5,102.6,399.1,101z"/>
			<path class="st3" d="M332.4,138.4L332.4,138.4c-4.8-8.7-15.7-11.8-24.4-7l0,0c-1.4,0.8-1.9,2.6-1.2,4l0,0
				c4.8,8.7,15.7,11.8,24.4,7l0,0C332.7,141.6,333.2,139.8,332.4,138.4z"/>
			<path class="st2" d="M337.9,123.2L337.9,123.2c0.8-9.9-6.6-18.6-16.5-19.3l0,0c-1.7-0.1-3.1,1-3.2,2.7l0,0
				c-0.8,9.9,6.6,18.6,16.5,19.3l0,0C336.3,126.1,337.7,124.9,337.9,123.2z"/>
			<path class="st2" d="M372.5,125.5L372.5,125.5c4.3,11,16.9,16.6,27.9,12.2l0,0c1.8-0.6,2.7-2.7,2.1-4.5l0,0
				c-4.3-11-16.9-16.6-27.9-12.2l0,0C372.8,121.6,371.9,123.6,372.5,125.5z"/>
			<path class="st4" d="M324.9,129.3c0-11.6,30.4-4.2,61.1-8.3c0,0,25.1-19.3,3.1-34.9c-12.6-9-19.9-13.2-17.8-25.8"/>
			<path class="st3" d="M394.3,88.3L394.3,88.3c8.3-6.2,10-17.9,3.9-26.2l0,0c-1-1.4-3-1.7-4.3-0.6l0,0c-8.3,6.2-10,17.9-3.9,26.2
				l0,0C391,88.9,392.9,89.3,394.3,88.3z"/>
			<path class="st3" d="M397.5,114.3L397.5,114.3c10,2.9,20.4-2.9,23.2-12.9l0,0c0.5-1.7-0.5-3.4-2.1-3.8l0,0
				c-10-2.9-20.4,2.9-23.2,12.9l0,0C394.9,112,395.8,113.7,397.5,114.3z"/>
			<path class="st5" d="M400.8,155.9c-1.7,5.8-4,11.2-6.9,16.2c-2.9,5.1-6.1,9.9-10.1,14.4c-1,1.2-2.1,2.3-3.5,3.6
				c-0.1,0.1-0.4,0.4-0.6,0.5c-0.3,0.1-0.4,0.4-0.8,0.5l-0.4,0.3l-0.5,0.4l-0.3,0.1l-0.1,0.1l-0.3,0.1c-0.4,0.1-0.6,0.4-1,0.5
				c-1,0.4-1.8,0.8-2.7,1c-3.2,1-6,1.7-8.7,2.5c-5.5,1.3-10.6,2.3-15.7,3.5c-10.3,2.3-20.1,4.8-29.6,7.9c-9.3,3.1-18.3,7-25.7,11.8
				c-7,4.5-16.5,2.6-21-4.4s-2.6-16.5,4.4-21c0.5-0.4,1.2-0.6,1.7-0.9l0.3-0.1c11.3-5.3,22.6-8.4,33.6-10.6
				c11-2.2,22.1-3.4,32.7-4.4c5.3-0.5,10.6-0.9,15.7-1.4c2.5-0.3,4.9-0.5,6.9-0.9c0.5-0.1,0.9-0.1,1.2-0.3c-0.3,0.1-0.4,0.1-0.6,0.3
				l-0.1,0.1h-0.1l-0.1,0.1h0.1c0,0,0.1,0,0.1-0.1c0.6-0.4,1.6-1,2.3-1.8c3.4-3,6.8-6.6,9.7-10.4s5.5-7.9,7.4-12.1l0.1-0.1
				c1.6-3.4,5.5-4.9,9-3.4C400.2,149.3,401.7,152.7,400.8,155.9L400.8,155.9z"/>
			<rect x="328.4" y="101.8" class="st6" width="28.8" height="74.1"/>
			<polygon class="st7" points="328.5,172.5 357.3,172.5 357.3,138.1 328.5,154.1 			"/>
			<polygon class="st8" points="347.1,79.6 328.5,101.7 357.3,101.7 370.2,79.6 			"/>
			<path class="st4" d="M392.3,162c1.8,20.8-36.6,17.8-36.6,17.8"/>
			<rect x="357.3" y="101.8" class="st9" width="31.5" height="74.1"/>
			<path class="st10" d="M335.9,126.1h12.5v-10.6c0-3.4-2.7-6.2-6.2-6.2l0,0c-3.4,0-6.2,2.7-6.2,6.2L335.9,126.1L335.9,126.1z"/>
			<path class="st11" d="M367.6,126.1h12.5v-10.6c0-3.4-2.7-6.2-6.2-6.2l0,0c-3.4,0-6.2,2.7-6.2,6.2L367.6,126.1L367.6,126.1z"/>
			<path class="st11" d="M367.5,174.6h13.4v-17.4c0-3.6-3-6.6-6.6-6.6l0,0c-3.6,0-6.6,3-6.6,6.6L367.5,174.6z"/>
			<polygon class="st12" points="370.2,79.6 357.3,101.7 388.9,101.7 			"/>
			<path class="st4" d="M324.9,129.3c0,10,65.6,11.9,67.4,32.7"/>
			<path class="st13" d="M424.5,146.7c-2.1,5.8-4.8,10.9-7.9,15.8c-3.1,4.9-6.4,9.5-10,13.9c-1.8,2.2-3.8,4.4-6.2,6.8
				c-0.6,0.6-1.3,1.2-2.5,2.1l-0.6,0.4l-0.3,0.1c-0.1,0-0.1,0.1-0.4,0.3c-0.4,0.3-0.9,0.4-1.3,0.5l-0.5,0.1l-1.4,0.5
				c-1.7,0.5-3.4,0.9-4.8,1.2c-6,1.2-11.3,1.8-16.6,2.6c-10.5,1.4-20.8,3.1-30.4,5.7c-4.8,1.3-9.5,2.7-14,4.4
				c-4.4,1.7-8.7,3.6-12.5,5.8c-7.3,4.2-16.6,1.7-20.8-5.7c-4.2-7.4-1.7-16.6,5.7-20.8c0.6-0.4,1.2-0.6,1.8-0.9l0.3-0.1
				c11.7-4.7,23.5-7,34.8-8.4c11.4-1.3,22.6-1.7,33.5-1.7c5.3,0,10.8,0,15.4-0.3c1.2,0,2.2-0.1,3-0.3l0.5-0.1l0,0c0,0,0.1,0-0.1,0
				c-0.3,0.1-0.5,0.3-0.9,0.4l-0.3,0.1h-0.1l-0.1,0.1c-0.1,0.1,0.4-0.1,0.6-0.4c1.6-1.2,3.5-2.9,5.3-4.5c3.6-3.4,7.1-7.1,10.3-11
				c3.1-3.9,6-7.9,8-12.1l0.1-0.1c1.7-3.4,5.7-4.7,9.1-3C424.2,139.9,425.6,143.6,424.5,146.7L424.5,146.7z"/>
			<path class="st13" d="M361.4,141.3l-2.3,4.7c-0.4,0.8-0.9,1.6-1.4,2.2l-1.6,2.2c-0.5,0.8-1,1.4-1.7,2.1l-1.8,2.1
				c-0.6,0.8-1.3,1.3-1.9,1.9l-2.1,1.8c-1.4,1.2-2.9,2.2-4.4,3.2c-1.6,0.9-3,1.8-4.5,2.7c-1.4,0.8-3,1.6-4.5,2.2l-4.3,1.9
				c-5.6,2.5-10.5,4.8-14.4,7.4c-3.9,2.6-6.9,5.6-9.3,9.1c-5.1,6.9-14.5,8.3-21.4,3.4c-6.9-4.9-8.3-14.5-3.4-21.4
				c0.8-1,1.6-1.9,2.5-2.7l0.8-0.6c6-4.9,12.9-8.8,19.6-11.2c6.8-2.5,13.2-3.6,19-4.7c5.7-1,10.5-2.1,14.7-4s7.8-4.8,10.9-9l0.4-0.5
				c2.3-3,6.5-3.5,9.5-1.2C362,134.9,362.8,138.4,361.4,141.3L361.4,141.3z"/>
			<path class="st13" d="M387.8,192.4c-2.5,2.3-5.2,4.5-8.3,6.2c-3.1,1.8-6.6,3.1-10.1,4s-7.1,1.3-10.5,1.4c-3.4,0.1-6.5,0.1-9.5,0
				c-5.8-0.1-10.9,0-14.8,1s-6.9,2.7-9.9,5.2c-6.6,5.5-16.2,4.4-21.7-2.1c-5.5-6.6-4.4-16.2,2.1-21.7c1-0.9,2.2-1.6,3.4-2.1l1.2-0.5
				c3.5-1.6,7.4-2.9,11.3-3.8c3.9-0.8,7.9-1.2,11.7-1.2c7.7,0.1,14.1,1.8,19.7,3.2s10.3,2.7,14.5,2.7c4.3,0.1,8.4-1,12.9-3.4
				l0.3-0.1c3.2-1.8,7.4-0.6,9.2,2.6C390.7,186.9,390.1,190.3,387.8,192.4L387.8,192.4z"/>
			<path class="st13" d="M449.4,156.8c-0.6,0.4-1.8,1.2-2.7,1.8c-1,0.8-2.1,1.7-3.2,2.5c-2.2,1.8-4.3,3.6-6.5,5.6
				c-4.3,3.9-8.6,7.8-12.7,11.9l-12.7,12.2l-6.5,6.2c-1.2,1-2.2,2.1-3.5,3.2c-0.4,0.3-0.8,0.6-1.2,1l-0.4,0.3l-0.6,0.4
				c-0.1,0.1-0.4,0.3-0.6,0.4l-0.4,0.1l-0.4,0.1c-0.3,0.1-0.4,0.1-0.6,0.3c-0.4,0.1-0.8,0.3-1.3,0.4l-0.4,0.1h-0.1l-0.8,0.1h-3.5
				c-3.2,0.1-6.1,0.1-9.1,0.1l-8.8,0.1l-17.7,0.3c-11.8,0.1-23.5,0.4-35.2,0.9c-8.4,0.4-15.4-6.2-15.8-14.5
				c-0.4-8.4,6.2-15.4,14.5-15.8c0.8,0,1.6,0,2.2,0.1h0.1c11.9,1.4,23.8,3,35.6,4.5l17.7,2.5l8.7,1.3l8.6,1.2l0.9,0.1h0.4H393
				c-0.1,0-0.3,0-0.4,0.1l-0.4,0.1c-0.4,0.1-0.8,0.1-1.2,0.3c-0.1,0.1-0.4,0.1-0.5,0.3l-0.4,0.1l-0.3,0.1c-0.1,0.1-0.4,0.3-0.4,0.3
				c-0.1,0-0.1,0.1-0.3,0.1l0,0c0.1,0,0.3-0.1,0.5-0.4c0.9-0.6,2.1-1.6,3.2-2.5l6.8-5.6l13.8-11.3c4.7-3.8,9.2-7.5,14.1-11.2
				c2.5-1.8,4.8-3.6,7.4-5.5c1.3-0.9,2.6-1.8,4-2.6c1.4-0.9,2.9-1.7,4.8-2.6c3.4-1.6,7.4,0,8.8,3.5c1.4,3.2,0.1,6.9-2.9,8.6
				L449.4,156.8L449.4,156.8z"/>
			<path class="st13" d="M284.8,164.2c-19.1,16.6-13.6,51-13.6,70l41.8,22.5c0,0,0.4-40.1,16.1-48.9
				C344.6,198.9,284.8,164.2,284.8,164.2L284.8,164.2z"/>
			<path class="st13" d="M338.9,164.5c-2.3,1.2-3,6.6,1.7,6.1c7.3-0.8-20.1,9.2-20.1,9.2l-10.6-11.6L338.9,164.5L338.9,164.5z"/>
			<path class="st5" d="M450.5,151.2l-0.4,0.1c-0.8,0.4-1.8,1-3,1.7c-1.2,0.6-2.3,1.4-3.4,2.3c-2.3,1.7-4.7,3.4-7,5.2
				c-4.7,3.6-9.2,7.3-13.9,11.2L409,183.3l-7,5.8c-1.2,1-2.3,1.9-3.9,3c-0.4,0.3-0.8,0.5-1.3,0.9l-0.5,0.3l-0.6,0.4l-0.6,0.4
				l-0.4,0.1l-0.4,0.1l-0.6,0.3c-0.4,0.1-0.9,0.3-1.3,0.3h-4.9c-6.4-0.3-12.2-0.6-18.3-1l-18-1c-6.1-0.4-26.5-1.2-32.2,1.4
				c-16.5,7.3-26.1,33.9-27.6,52.2l21.5,10.3c0,0,0.4-40.1,16.1-48.9c0.3-0.1,0.4-0.3,0.6-0.4c1.6-0.8,3.1-1.4,4.9-1.9
				c0.9-0.3,1.9-0.4,3-0.6c6-0.1,11.9-0.3,17.8-0.4l17.7-0.3c6-0.1,11.7-0.1,18-0.3h2.1c0.5,0,1.2-0.1,1.7-0.1h0.5l0.4-0.1
				c0.4-0.1,0.9-0.3,1.3-0.4l0.6-0.3l0.4-0.1l0.4-0.1l0.6-0.4l0.6-0.4l0.4-0.3c0.5-0.4,0.9-0.6,1.2-1c1.3-1.2,2.5-2.2,3.5-3.2
				l6.5-6.2l12.7-12.2c4.3-4,8.4-8,12.7-11.9c2.1-1.9,4.3-3.8,6.5-5.6c1-0.9,2.2-1.7,3.2-2.5s2.1-1.4,2.7-1.8l0.4-0.3
				c2.6-1.4,3.9-4.5,3.2-7.4C452.4,150.1,451.6,150.9,450.5,151.2L450.5,151.2z"/>
			<path class="st3" d="M373.8,63.5L373.8,63.5c7.7-7,8.3-18.8,1.4-26.5l0,0c-1.2-1.3-3.1-1.4-4.4-0.3l0,0c-7.7,7-8.3,18.8-1.4,26.5
				l0,0C370.7,64.5,372.7,64.7,373.8,63.5z"/>
		</g>
	</g>
</g>
<circle cx="365" cy="365" r="108"/>
<circle cx="365" cy="365" r="92.2"/>
<linearGradient id="SVGID_00000059282853711523262100000006536005280885982098_" gradientUnits="userSpaceOnUse" x1="-930.6631" y1="-762.8563" x2="-930.6631" y2="-853.0861" gradientTransform="matrix(0.9846 -0.1749 -0.1749 -0.9846 1107.1981 -627.32)">
	<stop  offset="0" style="stop-color:#4800A9"/>
	<stop  offset="1" style="stop-color:#4800A9;stop-opacity:0"/>
</linearGradient>
<path style="fill:none;stroke:url(#SVGID_00000059282853711523262100000006536005280885982098_);stroke-width:9.072;stroke-linecap:round;stroke-miterlimit:10;" d="
	M365,283.9c-44.1,7.8-73.6,50-65.7,94.1"/>
<linearGradient id="SVGID_00000179620901122927942270000017249985987332598957_" gradientUnits="userSpaceOnUse" x1="7146.1475" y1="6797.334" x2="7146.1475" y2="6707.104" gradientTransform="matrix(0.1749 0.9846 0.9846 -0.1749 -7498.1167 -5523.1118)">
	<stop  offset="0" style="stop-color:#4800A9"/>
	<stop  offset="1" style="stop-color:#4800A9;stop-opacity:0"/>
</linearGradient>
<path style="fill:none;stroke:url(#SVGID_00000179620901122927942270000017249985987332598957_);stroke-width:9.072;stroke-linecap:round;stroke-miterlimit:10;" d="
	M446.1,365c-7.8-44.1-50-73.6-94.1-65.7"/>
<linearGradient id="SVGID_00000164486577269259474090000016755625278165800344_" gradientUnits="userSpaceOnUse" x1="-413.1409" y1="14873.1328" x2="-413.1409" y2="14782.9033" gradientTransform="matrix(-0.9846 0.1749 0.1749 0.9846 -2602.335 -14128.4268)">
	<stop  offset="0" style="stop-color:#4800A9"/>
	<stop  offset="1" style="stop-color:#4800A9;stop-opacity:0"/>
</linearGradient>
<path style="fill:none;stroke:url(#SVGID_00000164486577269259474090000016755625278165800344_);stroke-width:9.072;stroke-linecap:round;stroke-miterlimit:10;" d="
	M365,446.1c44.1-7.8,73.6-50,65.7-94.1"/>
<linearGradient id="SVGID_00000070117242966336794510000002557187015820115604_" gradientUnits="userSpaceOnUse" x1="-8489.9434" y1="7312.8765" x2="-8489.9434" y2="7222.6465" gradientTransform="matrix(-0.1749 -0.9846 -0.9846 0.1749 6002.9795 -9232.6348)">
	<stop  offset="0" style="stop-color:#4800A9"/>
	<stop  offset="1" style="stop-color:#4800A9;stop-opacity:0"/>
</linearGradient>
<path style="fill:none;stroke:url(#SVGID_00000070117242966336794510000002557187015820115604_);stroke-width:9.072;stroke-linecap:round;stroke-miterlimit:10;" d="
	M283.9,365c7.8,44.1,50,73.6,94.1,65.7"/>
<circle class="st18" cx="365" cy="283.9" r="7.7"/>
<circle class="st19" cx="446.1" cy="365" r="7.7"/>
<circle class="st20" cx="365" cy="446.1" r="7.7"/>
<circle class="st21" cx="283.9" cy="365" r="7.7"/>
<path class="st22" d="M365,314.4c-27.9,0-50.6,22.7-50.6,50.6s22.7,50.6,50.6,50.6s50.6-22.7,50.6-50.6S393,314.4,365,314.4"/>
<path class="st23" d="M371.6,336.6c0,1.2-1,1.9-2.2,1.9h-0.3c-2.3,0-4.2,1.8-4.2,4.2c0,2.3,1.8,4.2,4.2,4.2h14.3
	c2.3,0,4.2-1.8,4.2-4.2c0-2.3-1.8-4.2-4.2-4.2h-2.2c-1.2,0-2.1-0.9-2.2-1.9c0-1.2,0.9-2.1,2.1-2.2h0.6c4,0,7.4-3.2,7.3-7.3
	c-0.1-3.9-3.2-7-7.1-7h-26c-4,0-7.4,3.2-7.3,7.3c0.1,3.9,3.2,7,7.1,7h13.8C370.7,334.4,371.6,335.4,371.6,336.6L371.6,336.6z"/>
<path class="st23" d="M339.4,340.1H321c-2.6,4.5-4.4,9.5-5.5,14.7h24c4,0,7.4-3.2,7.4-7.4C346.8,343.3,343.5,340.1,339.4,340.1
	L339.4,340.1z"/>
<path class="st23" d="M362,398.9h-11.7c-1.2,0-2.1-0.9-2.2-1.9c0-1.2,0.9-2.1,1.9-2.2h1c4.4,0,8.3-3.5,8.4-8
	c0.1-4.7-3.6-8.4-8.2-8.4h-13.5c-4.4,0-8.3,3.5-8.4,8c-0.1,4.7,3.6,8.4,8.2,8.4h0.9c1.2,0,2.1,1,1.9,2.2c0,1.2-1,1.9-2.2,1.9h-11.2
	c4.5,5.1,10.3,9.3,16.6,12.2h18c3.4,0,6.1-2.7,6.1-6.1C368.1,401.6,365.4,398.9,362,398.9"/>
<path class="st23" d="M415.6,365v-1.9h-32.3c-6,0-10.8,4.8-10.8,10.8s4.8,10.8,10.8,10.8h28.4C414.2,378.5,415.6,371.9,415.6,365"/>
<path class="st24" d="M330.3,373c-0.3-0.1-0.5-0.1-0.8-0.1h-6.8c-3,0-5.5-2.5-5.5-5.6c0.1-3,2.6-5.2,5.6-5.2h21c3,0,5.5,2.3,5.6,5.2
	c0.1,3.1-2.3,5.6-5.5,5.6h-4.8c-0.3,0-0.5,0-0.8,0.1c-0.5,0.3-0.9,0.9-0.9,1.6c0,0.9,0.8,1.7,1.7,1.7h0.4c2.2,0,3.9,1.8,3.9,3.9
	c0,2.2-1.8,3.9-3.9,3.9h-11.3c-2.2,0-4-1.8-3.9-4.2c0.1-2.1,1.9-3.8,4-3.8h1.2c0.9,0,1.7-0.8,1.7-1.7
	C331.2,374,330.8,373.3,330.3,373L330.3,373z"/>
<path class="st24" d="M346.6,335.3h-11.8c-2.7,0-4.8,2.2-4.8,4.8c0,2.7,2.2,4.8,4.8,4.8h11.8c2.7,0,4.8-2.2,4.8-4.8
	C351.4,337.4,349.2,335.3,346.6,335.3z"/>
<path class="st24" d="M377.5,358.8h-11.8c-2.7,0-4.8,2.2-4.8,4.8c0,2.7,2.2,4.8,4.8,4.8h11.8c2.7,0,4.8-2.2,4.8-4.8
	C382.3,360.9,380.1,358.8,377.5,358.8z"/>
<path class="st24" d="M384.1,378.2h14.4c3.2,0,6,2.6,6,6s-2.6,6-6,6h-14.4c-3.2,0-6-2.6-6-6S380.7,378.2,384.1,378.2"/>
<path class="st24" d="M382.4,394.7h-7.9c-1.8,0-3.2,1.4-3.2,3.2s1.4,3.2,3.2,3.2h7.9c1.8,0,3.2-1.4,3.2-3.2
	C385.6,396.3,384.2,394.7,382.4,394.7"/>
<path class="st24" d="M403.3,347.1h-7.9c-1.8,0-3.2,1.4-3.2,3.2s1.4,3.2,3.2,3.2h7.9c1.8,0,3.2-1.4,3.2-3.2S405.1,347.1,403.3,347.1
	"/>
<path class="st25" d="M365,415.6L365,415.6 M365,415.6L365,415.6 M364.9,415.6L364.9,415.6 M364.9,415.6L364.9,415.6 M364.9,415.6
	L364.9,415.6 M364.9,415.6L364.9,415.6 M364.7,415.6L364.7,415.6 M364.7,415.6L364.7,415.6 M364.7,415.6L364.7,415.6 M415.6,365
	L415.6,365 M415.6,365L415.6,365 M415.6,365L415.6,365 M414.3,353.6c0.8,3.6,1.3,7.4,1.3,11.2v0.3
	C415.6,361,415.2,357.2,414.3,353.6 M414.3,353.6L414.3,353.6 M414.3,353.5C414.3,353.5,414.3,353.6,414.3,353.5
	C414.3,353.6,414.3,353.5,414.3,353.5 M414.3,353.5L414.3,353.5 M414.3,353.5L414.3,353.5"/>
<path class="st26" d="M316.5,379.3c2.2,7.4,6,14,10.9,19.6h11.2c1.2,0,2.1-0.9,2.2-1.9c0-1.2-0.9-2.1-1.9-2.2H338
	c-3.6,0-6.9-2.5-7.8-5.8C324.9,386.4,320.4,383.2,316.5,379.3 M374.5,401.4c-1.8,0-3.2-1.4-3.2-3.2c0-1.8,1.4-3.2,3.2-3.2h7.9
	c1.8,0,3.2,1.4,3.2,3.2c0,1.8-1.4,3.2-3.2,3.2H374.5 M415.5,368.5c-0.4,5.6-1.7,11-3.8,16h-7.4c-0.3,3.1-2.7,5.6-6,5.6H384
	c-2.3,0-4.4-1.4-5.3-3.4c-7,4.3-15.3,7-24,7.4c-1,0.4-2.1,0.6-3.2,0.6h-1c-1.2,0-2.1,1-1.9,2.2c0,1.2,1,1.9,2.2,1.9h11.7
	c3.4,0,6.1,2.7,6.1,6.1s-2.7,6.1-6.1,6.1H344c-0.1,0-0.3-0.1-0.4-0.1c6.4,3,13.5,4.7,21,4.8h0.1
	C391.8,415.6,413.7,394.9,415.5,368.5 M400.8,329.2c1.3,4.5,2.1,9.3,2.1,14.3c0,1.2,0,2.5-0.1,3.6h0.6c1.8,0,3.2,1.4,3.2,3.2
	s-1.4,3.2-3.2,3.2H402c-0.6,3.2-1.7,6.5-2.9,9.5h16.6v1.7c0-3.9-0.5-7.7-1.3-11.2l0,0C412.1,344.1,407.5,335.7,400.8,329.2"/>
<path class="st27" d="M329.8,388.9c1,3.4,4.2,5.8,7.8,5.8h0.9c1.2,0,2.1,1,1.9,2.2c0,1.2-1,1.9-2.2,1.9H327
	c4.5,5.1,10,9.1,16.2,12.1l0,0c0.1,0,0.3,0.1,0.4,0.1h18c3.4,0,6.1-2.7,6.1-6.1s-2.7-6.1-6.1-6.1h-11.7c-1.2,0-2.1-0.9-2.2-1.9
	c0-1.2,0.9-2.1,1.9-2.2h1c1.2,0,2.2-0.3,3.2-0.6h-2.3C344.2,394.1,336.6,392.3,329.8,388.9"/>
<path class="st27" d="M415.6,363.1H399c-2.3,5.7-5.7,10.8-9.9,15.2h9.3c3.2,0,6,2.6,6,6v0.4h7.4c2.1-4.9,3.4-10.4,3.8-16
	c0.1-1.2,0.1-2.3,0.1-3.5l0,0v-0.3C415.6,364.2,415.6,363.6,415.6,363.1"/>
<path class="st25" d="M398.4,378.2H389c-3.1,3.2-6.6,6.1-10.4,8.4c0.9,2.1,3,3.4,5.3,3.4h14.4c3.1,0,5.7-2.5,6-5.6V384
	C404.3,380.8,401.7,378.2,398.4,378.2"/>
<path class="st25" d="M382.4,394.7h-7.9c-1.8,0-3.2,1.4-3.2,3.2s1.4,3.2,3.2,3.2h7.9c1.8,0,3.2-1.4,3.2-3.2
	C385.6,396.3,384.2,394.7,382.4,394.7"/>
<path class="st25" d="M403.3,347.1h-0.6c-0.1,2.2-0.4,4.4-0.9,6.5h1.4c1.8,0,3.2-1.4,3.2-3.2C406.5,348.5,405.1,347.1,403.3,347.1"
	/>
<circle cx="131" cy="365" r="108"/>
<polygon class="st28" points="209.3,395.5 170.1,383.5 152.2,420.2 133.2,384 94.5,397.3 106.5,358.3 69.8,340.2 106,321.2 
	92.7,282.5 131.8,294.6 149.8,257.8 168.8,294.1 207.5,280.8 195.3,319.8 232.2,337.8 195.9,356.9 "/>
<path class="st29" d="M181.4,379.9l40.1,11.5c-6.4,22.2-29.4,34.9-51.6,28.6l-5.3-1.5c-22.6-6.4-18.3-40.1,5.2-40.2
	C173.6,378.3,177.5,378.7,181.4,379.9L181.4,379.9z"/>
<path class="st30" d="M210.3,393.2l-2.5,4.9c-4.5,9-13.3,15.2-23.4,16.4l-4.8,0.5"/>
<path class="st30" d="M200.5,391l-1.2,2.7c-3,6.4-9.4,10.4-16.6,10.1l0,0"/>
<line class="st30" x1="191.5" y1="389.1" x2="184" y2="393.7"/>
<path class="st29" d="M96.6,408.5l16.2,57.1c0.5,2.1,2.6,3.6,4.8,3.6h5.6c3.3,0,5.6-3.1,4.8-6.3L111.8,406c-0.5-2.1-2.6-3.6-4.8-3.6
	h-5.6C98.1,402.4,95.8,405.4,96.6,408.5L96.6,408.5z M120.7,408.5l16.2,57.1c0.5,2.1,2.6,3.6,4.8,3.6h5.6c3.3,0,5.6-3.1,4.8-6.3
	l-16.2-57.1c-0.5-2.1-2.6-3.6-4.8-3.6h-5.6C122.1,402.4,119.8,405.4,120.7,408.5L120.7,408.5z M177.4,325.9
	c-4.4-8.1-12-14.1-21.2-16.2h-0.1c-2.3-0.5-4.8-0.8-7.3-0.8h-32.4c0,5.9,1.6,11.5,4.4,16.2c-2.7,4.8-4.4,10.3-4.4,16.2
	c0,4.8,1.1,9.3,2.9,13.4c-4.8,0.7-9.3,2.1-13.4,4.2l-12.7-12.7c-4.1-4.1-10.7-4.1-14.6,0c-0.8,0.8-1.5,1.8-1.9,2.7l-2.7-2.7
	c-4.1-4.1-10.7-4.1-14.6,0c-0.5,0.5-1.1,1.2-1.5,1.9l-1.9-1.9c-4.1-4.1-10.7-4.1-14.6,0c-4.1,4.1-4.1,10.7,0,14.6L53,372.4h-7.9
	c0,23.5,18.1,42.7,41.2,44.5c4.4,9.3,12,16.7,21.5,20.9l6.7,23.8h-10.4c-2.5,0-4.4,1.9-4.4,4.4v0.7c0,2.5,1.9,4.4,4.4,4.4h59.1
	c2.5,0,4.4-1.9,4.4-4.4V466c0-2.5-1.9-4.4-4.4-4.4h-13.8l-6.6-23.3c10.7-4.5,19.3-13.1,23.7-23.8c7.5-3.8,12.6-11.5,12.6-20.4
	c0-11-7.8-20.1-18.1-22.3c0-0.1-0.1-0.1-0.1-0.3c7.5-2.9,13.8-8.6,17.4-15.9 M137.7,461.8h-12.3l-5.8-20.4c1.9,0.3,3.8,0.4,5.9,0.4
	c2.2,0,4.4-0.1,6.4-0.4L137.7,461.8z M171.7,342.7l25-11.1c-6-13.8-22.2-20.1-36-14l-25,11.1C141.7,342.6,157.9,348.9,171.7,342.7z
	 M150.2,353.4l13.7,11.5c7.5,6.3,18.8,5.3,25-2.2l-13.7-11.5C167.9,344.7,156.6,345.8,150.2,353.4z"/>
<circle class="st29" cx="148.2" cy="342" r="31.9"/>
<path class="st24" d="M137.6,435.1h-2.1c-1.2,0-2.1,1.1-1.8,2.3l5.9,20.9c0.3,0.8,1,1.4,1.8,1.4h2.1c1.2,0,2.1-1.1,1.8-2.3
	l-5.9-20.9C139.1,435.6,138.4,435.1,137.6,435.1z"/>
<path class="st24" d="M110.1,437.4l5.9,20.9c0.3,0.8,1,1.4,1.8,1.4h2.1c1.2,0,2.1-1.1,1.8-2.3l-5.9-20.9c-0.3-0.8-1-1.4-1.8-1.4
	h-2.1C110.6,435.1,109.7,436.2,110.1,437.4z"/>
<path class="st31" d="M173.6,320.8c6.8-1.4,14.1,1.9,17.5,8.5l-11.9,6.2C178.4,329.3,173.6,320.8,173.6,320.8z"/>
<path class="st31" d="M172.2,365c4,1.9,8.8,1.1,11.8-2.3l-6.2-5.5C176.3,360.6,172.2,365,172.2,365L172.2,365z"/>
<circle class="st24" cx="149.2" cy="342.1" r="25.7"/>
<circle class="st32" cx="154.1" cy="338.3" r="10.1"/>
<path class="st24" d="M117.4,465.9h-8.8c-0.7,0-1.2-0.5-1.2-1.2v-2.2c0-0.7,0.5-1.2,1.2-1.2h8.8c0.7,0,1.2,0.5,1.2,1.2v2.2
	C118.7,465.3,118.1,465.9,117.4,465.9z"/>
<path class="st31" d="M143,388.5l-0.8,6.8c-0.1,0.8-1,1.5-1.8,1.4l-2.6-0.3c-0.8-0.1-1.5-1-1.4-1.8l0.8-6.8c0.1-0.8,1-1.5,1.8-1.4
	l2.6,0.3C142.6,386.9,143.2,387.6,143,388.5L143,388.5z"/>
<path class="st31" d="M136.3,407.7l-0.7,5.5c-0.1,0.7-0.7,1.2-1.4,1.1l-2.1-0.3c-0.7-0.1-1.2-0.7-1.1-1.4l0.7-5.5
	c0.1-0.7,0.7-1.2,1.4-1.1l2.1,0.3C135.9,406.3,136.3,407,136.3,407.7z"/>
<path class="st31" d="M130,425.9l-0.5,4.2c-0.1,0.5-0.5,1-1.1,0.8l-1.6-0.1c-0.5-0.1-1-0.5-0.8-1.1l0.5-4.2c0.1-0.5,0.5-1,1.1-0.8
	l1.6,0.1C129.6,424.8,130,425.4,130,425.9z"/>
<path class="st31" d="M146.2,372.3l-0.3,2.7c-0.1,1-1,1.5-1.8,1.5l-2.5-0.3c-1-0.1-1.5-1-1.5-1.8l0.3-2.7c0.1-1,1-1.5,1.8-1.5
	l2.5,0.3C145.6,370.5,146.3,371.3,146.2,372.3z"/>
<path class="st24" d="M57.5,369.1l-12.9-13c-1.8-1.8-1.5-4.7,0.5-6l0.4-0.3c1.6-1.1,3.8-1,5.2,0.4L69,368.7c0.7,0.7,0.1,1.9-0.8,1.9
	h-7.1C59.7,370.6,58.5,370.1,57.5,369.1L57.5,369.1z"/>
<path class="st24" d="M78.2,369.1l-12.9-13c-1.8-1.8-1.5-4.7,0.5-6l0.4-0.3c1.6-1.1,3.8-1,5.2,0.4l18.2,18.5
	c0.7,0.7,0.1,1.9-0.8,1.9h-7.1C80.5,370.6,79.1,370.1,78.2,369.1L78.2,369.1z"/>
<path class="st24" d="M98.8,369.1l-12.9-13c-1.8-1.8-1.5-4.7,0.5-6l0.4-0.3c1.6-1.1,3.8-1,5.2,0.4l18.2,18.5
	c0.7,0.7,0.1,1.9-0.8,1.9h-7.1C101.2,370.6,99.8,370.1,98.8,369.1L98.8,369.1z"/>
<path class="st24" d="M128.8,466.3h-5.3c-0.7,0-1.2-0.5-1.2-1.2V464c0-0.7,0.5-1.2,1.2-1.2h5.3c0.7,0,1.2,0.5,1.2,1.2v1.1
	C130.2,465.7,129.5,466.3,128.8,466.3z"/>
<path class="st24" d="M123.9,470.7h-5.3c-0.7,0-1.2-0.5-1.2-1.2v-1.1c0-0.7,0.5-1.2,1.2-1.2h5.3c0.7,0,1.2,0.5,1.2,1.2v1.1
	C125.1,470,124.6,470.7,123.9,470.7z"/>
<path class="st24" d="M146.2,465.9h-8.8c-0.7,0-1.2-0.5-1.2-1.2v-2.2c0-0.7,0.5-1.2,1.2-1.2h8.8c0.7,0,1.2,0.5,1.2,1.2v2.2
	C147.4,465.3,146.9,465.9,146.2,465.9z"/>
<path class="st24" d="M157.6,466.3h-5.3c-0.7,0-1.2-0.5-1.2-1.2V464c0-0.7,0.5-1.2,1.2-1.2h5.3c0.7,0,1.2,0.5,1.2,1.2v1.1
	C158.8,465.7,158.2,466.3,157.6,466.3z"/>
<path class="st24" d="M152.8,470.5h-5.3c-0.7,0-1.2-0.5-1.2-1.2v-1.1c0-0.7,0.5-1.2,1.2-1.2h5.3c0.7,0,1.2,0.5,1.2,1.2v1.1
	C154.1,470,153.6,470.5,152.8,470.5z"/>
<path class="st33" d="M130.2,394.6h-9.4c-3.7,0-6.7-3-6.7-6.7l0,0c0-3.7,3-6.7,6.7-6.7h25"/>
<path class="st33" d="M150.2,394.6h9.4c3.7,0,6.7-3,6.7-6.7l0,0c0-3.7-3-6.7-6.7-6.7h-21.9"/>
<path class="st34" d="M124.4,413.2H119c-3.1,0-5.8-2.6-5.8-5.8l0,0c0-3.1,2.6-5.8,5.8-5.8h19.3"/>
<path class="st34" d="M142.1,413.2h5.5c3.1,0,5.8-2.6,5.8-5.8l0,0c0-3.1-2.6-5.8-5.8-5.8h-19.3"/>
<path class="st35" d="M120.3,429.2h-2.5c-2.7,0-4.9-2.2-4.9-4.9l0,0c0-2.7,2.2-4.9,4.9-4.9h11.6"/>
<path class="st35" d="M135.9,429.2h2.5c2.7,0,4.9-2.2,4.9-4.9l0,0c0-2.7-2.2-4.9-4.9-4.9h-14.8"/>
<path class="st33" d="M53,379.4l3.7,8.1c2.9,6.4,8.1,11.5,14.5,14.2l0,0c8.4,3.6,17.9,2.7,25.6-2.1l6.2-3.8"/>
<path class="st33" d="M63,378.6l4.4,7c2.1,3.4,5.3,6,9,7.4l0,0c5.2,1.9,11,1.2,15.6-1.6l4.7-2.9"/>
<path class="st33" d="M73.8,378.4L73.8,378.4c3,5.9,10.8,7.5,15.9,3.3l1.9-1.5"/>
<circle cx="131" cy="131" r="108"/>
<polygon class="st36" points="135.8,211.1 149.9,218.1 149.9,160 135.8,160 "/>
<polygon class="st37" points="142.8,214.6 149.9,218.1 149.9,160 142.8,161.2 "/>
<polygon points="135.3,177.9 150.3,182.8 150.3,162 135.3,162 "/>
<path class="st37" d="M105.6,108.8L105.6,108.8c12.1,0,21.9,9.8,21.9,21.9v37H83.7v-37C83.7,118.6,93.5,108.8,105.6,108.8
	L105.6,108.8z"/>
<path d="M105.6,109.4c12.1,0,21.9,9.8,21.9,21.9v37h-10.6"/>
<path class="st38" d="M83.7,166.1v-35.4c0-12.1,9.8-21.9,21.9-21.9"/>
<rect x="96.5" y="112.4" transform="matrix(0.4024 -0.9155 0.9155 0.4024 -60.5041 184.7762)" class="st39" width="29.6" height="52.6"/>
<line class="st40" x1="141.2" y1="135.7" x2="129.3" y2="162.8"/>
<line class="st40" x1="81.2" y1="141.6" x2="93.1" y2="114.5"/>
<polygon class="st41" points="91.2,118.7 111.2,138.7 81.2,141.6 "/>
<polygon class="st41" points="139.4,139.8 111.2,138.7 129.3,162.8 "/>
<polygon class="st42" points="129.3,162.8 81.2,141.6 111.2,138.7 "/>
<path class="st43" d="M105.9,140.6l-12.8-26l48.2,21.2l-27.8,8.2C110.4,144.8,107.2,143.4,105.9,140.6z"/>
<path class="st44" d="M107.3,138.2L93,114.5l48.2,21.2l-27.1,5.5C111.4,141.8,108.7,140.6,107.3,138.2z"/>
<path class="st45" d="M107.2,108.8h60.3c12.1,0,21.9,9.8,21.9,21.9v37h-60.2v-37C129.2,118.6,120.5,108.8,107.2,108.8z"/>
<path class="st46" d="M112.8,108.8L112.8,108.8c12.1,0,21.9,9.8,21.9,21.9v37"/>
<path class="st46" d="M107.2,108.8h60.3c12.1,0,21.9,9.8,21.9,21.9v37"/>
<path class="st38" d="M107.2,108.8L107.2,108.8c12.1,0,21.9,9.8,21.9,21.9v35.4"/>
<line class="st47" x1="192.2" y1="167.7" x2="127.5" y2="167.7"/>
<path class="st48" d="M83.8,166.2L61.3,154c-10.9-8-9.9-14.5,2.2-14.5l0,0c12.1,0,30.7,6.5,41.6,14.5l22.5,12.2H83.8L83.8,166.2z"/>
<path class="st49" d="M83.8,166.2L61.3,154c-12.3-7.2-9.9-14.5,2.2-14.5"/>
<path class="st50" d="M63.5,139.6c22.2,0,41.6,13,41.6,13l22.5,13.7"/>
<path class="st51" d="M145,139.6c-3.7,0-6.7-3-6.7-6.7s3-6.7,6.7-6.7h5.2c3.7,0,6.7,3,6.7,6.7s-3,6.7-6.7,6.7H145z"/>
<circle class="st52" cx="150.3" cy="132.8" r="5.3"/>
<line class="st53" x1="152.1" y1="93.8" x2="161" y2="93.8"/>
<line class="st54" x1="150.4" y1="132.8" x2="150.4" y2="91.6"/>
<path class="st55" d="M100.7,89.2l-4.8,1.7c-2,0.7-4.2-0.4-4.9-2.4l0,0c-0.7-2,0.4-4.2,2.4-4.9l4.8-1.7c2-0.7,4.2,0.4,4.9,2.4l0,0
	C103.8,86.3,102.7,88.5,100.7,89.2z"/>
<path class="st55" d="M113.6,102.1c0,1.2,1,2.2,2.2,2.2l0,0c1.2,0,2.2-1,2.2-2.2v-7.9c0-1.2-0.9-2.2-2.2-2.2l0,0
	c-1.2,0-2.2,1-2.2,2.2V102.1z"/>
<path class="st55" d="M121.5,102.1c0,1.2,1,2.2,2.2,2.2l0,0c1.2,0,2.2-1,2.2-2.2v-7.9c0-1.2-1-2.2-2.2-2.2l0,0c-1.2,0-2.2,1-2.2,2.2
	V102.1z"/>
<path class="st55" d="M128.3,101.9h-17.1c-1.3,0-2.4,1.1-2.4,2.4l0,0c0,1.3,1.1,2.4,2.4,2.4h17.1c1.3,0,2.4-1.1,2.4-2.4l0,0
	C130.6,103,129.6,101.9,128.3,101.9z"/>
<path class="st56" d="M142.3,55.4C142.3,55.4,142.2,55.4,142.3,55.4L142.3,55.4c-0.5-1.7-2.2-2.8-4-2.5l0,0l-27.2,7.7
	C100.9,63.4,95,74,97.9,84.1c2.9,10.2,13.5,16.1,23.6,13.2c9.4-2.6,15.2-12,13.7-21.5C141.4,71.4,144.5,63.3,142.3,55.4L142.3,55.4
	L142.3,55.4L142.3,55.4z"/>
<circle class="st24" cx="112.6" cy="79.6" r="6.5"/>
<rect x="105.5" y="81.8" transform="matrix(0.9772 -0.2123 0.2123 0.9772 -15.7015 26.5479)" class="st56" width="20.5" height="9.1"/>
<line class="st57" x1="130.5" y1="167.7" x2="80.4" y2="167.7"/>
</svg>
