<?xml version="1.0" encoding="utf-8"?>
<!-- Generator: Adobe Illustrator 27.4.1, SVG Export Plug-In . SVG Version: 6.00 Build 0)  -->
<svg version="1.1" id="a" xmlns="http://www.w3.org/2000/svg" xmlns:xlink="http://www.w3.org/1999/xlink" x="0px" y="0px"
	 viewBox="0 0 500 500" style="enable-background:new 0 0 500 500;" xml:space="preserve">
<style type="text/css">
	.st0{fill:#091947;}
	.st1{fill:#192A9B;}
	.st2{fill:#FFAF33;}
	.st3{fill:#AF201D;}
	.st4{fill:#D03F39;}
	.st5{fill:#FFCC95;}
	.st6{fill:#0E97C0;}
	.st7{fill:#FF9275;}
	.st8{fill:#FFB281;}
	.st9{fill:#FF5248;}
	.st10{fill:#FF9C54;}
	.st11{fill:#0081FF;}
</style>
<rect class="st0" width="500" height="500"/>
<path class="st1" d="M434,271.2c-5.2-0.3-9.8-2.1-13.7-4.2c-4.7-2.5-8.7-5.7-12-9.5c-0.7-0.8-1.5-1.7-2.2-2.7c-0.8-1-1.5-2-2.2-3
	c-1.5-2-2.5-4-3.5-6.2c-2-4.2-3.2-9-2.7-14.7c6.2,1,10.7,2.7,15.2,4.7c4,2.2,7.5,5,10.7,8.2c3.2,3.2,5.7,6.7,8,11.2
	c1.2,2.2,2,4.5,3,7.2c0.4,1,0.7,2.1,1,3.3c0.5-1,1-2.1,1.4-3c1.2-2.5,2.7-4.7,4-7c1.1-1.9,2.4-3.8,3.7-5.5c-0.1-9.6-1-18.9-2.4-28.1
	c-2,0.5-4.2,0.7-6.5,0.6c-5.7,1.4-11,0.8-15.7-0.6c-5.2-1.5-9.5-4-13.7-6.7c-4-3-7.5-6.2-10.5-10.2c-2.7-4-5.2-8.5-5.7-14.2
	c6.2-0.3,11,0.5,15.9,1.7c4.5,1.5,8.5,3.2,12.2,5.7c3.5,2.5,7.2,5.5,10.2,9.2c1.5,1.7,3,4,4.5,6.2c0.7,1.2,1.3,2.4,1.9,3.7
	c0.3-1.5,0.7-2.8,1-4.2c0.7-2.7,1.5-5.2,2.2-7.7c0.1-0.4,0.3-0.7,0.4-1.1c-2.2-8.8-5.1-17.4-8.5-25.7c-0.6,1.8-1.3,3.7-2.4,5.6
	c-3-1.7-5.5-3.5-7.7-5.5s-4-4-5.7-6c-3.5-4-5.7-8.2-7.7-12.7c-0.7-2.2-1.5-4.5-2.2-7s-1.2-5-1.5-7.5c0-2.7-0.3-5.2-0.3-8.2
	c0.1-1.7,0.3-3.4,0.6-5.2c-25.5-32.6-61-57-102-68.5l-9.1,15.9c-1.6,2.7-4.4,4.3-7.3,4.3c-1.4,0-2.9-0.4-4.2-1.1
	c-4.1-2.3-5.5-7.5-3.1-11.5l6.6-11.5c-11.6-2.1-23.6-3.3-35.8-3.3c-2.4,0-4.8,0.1-7.2,0.1v3.8c0,4.7-3.8,8.4-8.4,8.4
	s-8.4-3.8-8.4-8.4V58c-13.5,1.7-26.5,4.7-39,8.9l2.5,4.4c2.3,4.1,0.9,9.2-3.1,11.5c-1.3,0.8-2.8,1.1-4.2,1.1c-2.9,0-5.8-1.5-7.3-4.3
	l-3.7-6.6C140.5,85.7,115.4,105,95.8,129c0.8,2.9,1,5.8,1,8.7c0.3,3,0,5.5-0.3,8.2c-0.3,2.7-0.8,5.2-1.5,7.5c-0.5,2.5-1.2,4.7-2.2,7
	c-2,4.5-4.2,8.7-7.7,12.7c-1.7,2-3.5,4-5.7,6c-2.2,1.7-4.7,3.7-7.7,5.5c-1.7-3.2-2.7-6.2-3.2-9.2c-0.1-0.4-0.1-0.8-0.2-1.2
	c-3.5,8-6.5,16.3-9,24.9c0.8,2,1.6,4,2.4,6.2c0.8,2.5,1.5,5,2.2,7.7c0.5,1.4,0.9,2.9,1.2,4.5c0.6-1.3,1.3-2.5,2-3.7
	c1.5-2.2,3-4.2,4.5-6.2c3-3.7,6.5-6.7,10.2-9.2c3.5-2.5,7.7-4.5,12.2-5.7c4.5-1.2,9.2-2.2,15.7-1.7c-0.5,6-3,10.2-5.5,14.2
	c-3,4-6.5,7.2-10.5,10.2c-4.2,3-8.5,5.2-13.7,6.7c-5.1,1.5-10.7,2-16.6,0.3c-3.3,0-6.4-0.6-9.1-1.6c-1.4,8.2-2.2,16.5-2.5,24.9
	c2.5,3.2,5,6.4,7.1,9.9c1.2,2.2,2.7,4.5,4,7c0.6,1.1,1.1,2.3,1.7,3.5c0.3-1.2,0.7-2.3,1.1-3.5c1-2.7,1.7-5,3-7.2
	c2.2-4.5,4.7-8,8-11.2c3.2-3.2,6.5-6,10.7-8.2c4.2-2.2,8.7-4,14.9-5c0.5,5.7-0.7,10.5-2.5,14.9c-1,2.2-2.2,4.2-3.5,6.2
	c-0.7,1-1.5,2-2.2,3s-1.5,1.7-2.2,2.7c-3.2,3.5-7.5,7-12,9.5c-4.2,2.6-9.2,4.5-15.2,4.3c-4.3,1-8.3,0.9-12.1,0
	c0.8,8.2,2,16.2,3.8,24c0,0,0.1,0.1,0.1,0.1c1.7,1.5,3.7,3,5.5,4.5c1.7,1.5,3.7,3.2,5.5,5c2.6,2.8,5.4,5.5,8.3,9
	c-0.2-4.6,0.4-8.3,1.2-12c0.5-2.5,1.2-4.7,2-6.7c0.7-2,2-4,3-6c1.2-2,2.2-3.7,3.7-5.5c1.5-1.7,3-3.5,4.7-5c3.7-3,7.5-5.7,13.4-8.2
	c1,2.7,1.5,5.2,1.5,7.5c0,2.5,0,5-0.5,7.2c-0.2,2.2-1,4.5-1.7,6.7c-0.8,2.2-1.7,4.5-3,6.7c-2.2,4.5-5.2,8.5-9.2,12.2
	c-3.5,3.3-7.9,6.3-13.5,7.7c-4.4,2.3-8.7,3.4-13.1,3.4c2.8,7.3,5.9,14.5,9.5,21.4c0.6,0.2,1.3,0.5,1.9,0.7c4.5,1.7,8.7,3.7,13.2,6.2
	c2.2,1.5,4.5,2.7,6.7,4.2c0.9,0.6,1.9,1.3,2.9,2c-0.4-1.2-0.7-2.3-0.9-3.5c-0.5-2.7-0.7-5.2-1-7.7C96,340.7,97,336.2,98,332
	c1.2-4.2,3.2-8.5,5.7-12.2c2.5-4,5.7-7.7,11-11.5c1.5,2.5,2.5,4.7,3.5,7c0.2,1.2,0.5,2.2,0.7,3.5c0.3,1.2,0.5,2.2,0.5,3.5
	c0.2,4.5,0,9.2-1.2,13.9c-1.2,4.7-3,9.5-5.7,13.9c-2.4,3.9-5.5,7.7-9.9,10.4c-4,4.2-8.7,6.6-13.6,7.6c4.7,6.4,9.7,12.6,15.1,18.4
	c0.7,0.1,1.5,0.1,2.2,0.2c5,0.3,9.5,1,14.4,2.2c3.7,0.9,7.3,2,11.6,3.5c-2.4-3.8-3.9-7.4-5.1-10.7c-1.5-4.7-2.2-9.2-2.2-13.4
	c0.3-4.5,0.7-8.7,2.2-13.2c1.5-4.5,3.5-9,7.5-13.9c2.2,1.7,3.7,3.7,5.2,6.2c1.2,2,2,4.2,3,6.2c0.7,2.2,1.2,4.5,1.7,6.7
	c0.3,2.2,0.7,4.5,0.7,7s0,5-0.2,7.5c-0.3,2.5-0.5,5-1.2,7.5c-1.4,4.7-3.5,9.6-7.6,13.7c-2.7,4.8-6.6,8-10.8,10.2
	c-0.1,0-0.1,0.1-0.2,0.1c6,4.8,12.3,9.3,18.8,13.4c1.3-0.3,2.5-0.6,3.8-0.8c2.2-0.5,4.5-0.8,7-1c2.5-0.3,5-0.5,7.5-0.5
	c3.8,0,8-0.1,12.7,0.2c-3.7-3.2-6.1-6.2-8.3-9.5c-1.5-2-2.5-4-3.5-6c-1-2-1.7-4-2.2-6.2c-1-4.2-1.7-8.5-1.5-13.2s1.2-9.7,3.5-15.4
	c2.5,1,4.5,2.5,6.2,4c1.7,1.5,3.2,3.2,4.7,5.2c1.5,2,2.7,4,3.7,6c1,2,2,4.2,2.7,6.7c1.5,4.5,2.5,9.7,2.5,14.9c0,4.8-0.8,10-3.7,14.8
	c-1.2,5.8-4.3,10.2-8.1,13.6c-0.3,0.3-0.7,0.6-1,0.9c4.8,2.1,9.6,3.9,14.5,5.6c4.4-1,9.2-0.9,13.6,0.5c3.8,1.2,7.4,3,10.3,6
	c5.9,1.2,11.9,2.1,18,2.8c0.6-0.4,1.2-0.7,1.8-1.1c0.9-0.5,1.9-1,2.8-1.4c-4.8-1.3-9.6-2.8-14.3-4.6c-4.2-1.5-8.5-3.5-12.4-6
	c-2-1.2-3.7-3-5.2-4.7c-0.8-1.3-1.5-2.6-1.9-4c-0.6-1-1.1-1.9-1.6-3c-2-4.5-3-9.5-2.5-14.2c0.3-2.5,0.8-4.7,1.5-7.2
	c0.8-2,2.2-4.2,3.5-6.2c0.5,0,0.7,0.5,1,0.5l0.8,0.8l1.2,1.5c0.7,1,1.5,2,2.2,2.7c1.2,1.7,2.5,3.5,3.5,5.2c2,3.2,3.7,6.5,5,9.7
	c1.5,3.2,2.7,6.2,4,10c0.9,2.8,1.9,5.8,2.7,9.5c4.1,0.7,8.3,1.5,12.7,1.9c4.2,0.8,8.7,1.2,13.2,2c1.7,0.3,3.4,0.6,5.1,0.9
	c1.7-0.3,3.4-0.6,5.1-0.9c4.5-0.8,8.7-1.5,13.2-2c4.2-0.5,8.7-1.2,12.9-2c0.1,0,0.2,0,0.3-0.1c0.8-3.5,1.7-6.4,2.6-9.2
	c1.2-3.7,2.5-6.7,4-10c1.5-3.2,3-6.2,5-9.7c1-1.7,2.2-3.5,3.5-5.2c0.8-1,1.2-2,2.2-2.7l1.2-1.5l0.7-0.8c0-0.5,0.3-0.8,0.8-0.8
	c1.2,2,2.7,4.2,3.7,6.5c1,2.2,1.5,4.7,1.5,7.2c0.5,4.7-0.5,9.7-2.5,14.2c-0.9,2-2,3.8-3.3,5.6c-0.2,0.4-0.4,0.8-0.7,1.2
	c-1.5,2-3.2,3.5-5.2,4.7c-1.3,1-2.8,1.8-4.3,2.5c-2.7,1.4-5.4,2.5-8.2,3.4c-4.7,1.7-9.6,3.1-14.3,4.5c1,0.5,1.9,1,2.9,1.5
	c0.4,0.2,0.8,0.5,1.3,0.8c6.9-0.8,13.8-2.1,20.5-3.6c2.7-2.4,5.9-4,9.2-4.9c3.4-1.1,7.1-1.2,10.7-0.9c5.3-1.8,10.5-3.9,15.6-6.2
	c-3.6-3.2-6.4-7.4-7.8-12.9c-3-5-3.8-10.3-3.8-15.2c0-5.2,1-10.5,2.5-14.9c0.7-2.2,1.7-4.7,2.7-6.7c1.2-2,2.5-4,3.7-6
	c1.2-2,3-3.7,4.7-5.2c1.7-1.7,4-3.2,6.5-4.2c2.5,5.7,3.2,10.7,3.2,15.7c0.3,4.7-0.3,9-1.5,13.2c-0.5,2-1.2,4.2-2.2,6.2
	c-1,2-2.2,4-3.5,6c-2.1,3-4.4,6.1-8,9.2c4.6-0.4,8.7-0.2,12.5-0.2c2.5,0,5,0.2,7.5,0.5c2.2,0.3,4.7,0.5,7,1c0.5,0.1,0.9,0.2,1.4,0.3
	c6.7-4.3,13.2-8.9,19.3-13.9c-4-2.5-7.6-5.9-10-11c0.1,0,0.1,0,0.2-0.1c-3.4-3.8-5.4-8.2-6.4-12.4c-0.5-2.5-1-5-1.2-7.5
	c-0.3-2.5-0.5-5-0.3-7.5c0-2.2,0.3-4.5,0.8-7c0.2-2.2,1-4.5,1.7-6.7c0.7-2,1.7-4.2,3-6.2c1.5-2,3-4,5-5.7c3.7,5,6,9.5,7.7,13.4
	c1.5,4.5,2.2,8.7,2.2,13.2c-0.3,4.2-0.8,8.7-2.2,13.4c-1.3,3.5-2.8,7.1-5.3,10.9c4-1.4,7.5-2.3,11.3-3.2c4.5-1.1,8.8-1.6,13.1-2.1
	c5.6-6.1,10.9-12.5,15.8-19.2c-3.8-1.4-7.3-3.6-10.4-7.1c0,0,0.1-0.1,0.1-0.1c-4.4-2.7-7.5-6.6-9.8-10.4c-3-4.5-4.5-9.2-5.7-13.9
	c-1.2-4.7-1.5-9.2-1.2-13.9c0-1.2,0.3-2.2,0.5-3.5c0.2-1.2,0.5-2.2,0.7-3.5c0.7-2.5,1.7-4.7,3.2-7c5.2,3.7,8.5,7.5,11.2,11.5
	c2.7,4,4.7,8,5.7,12.2c1,4,1.7,8.7,1.5,13.4c-0.2,2.5-0.5,5-1,7.7c-0.3,1.3-0.6,2.7-1.1,4.2c1.1-0.8,2.2-1.5,3.4-2.2
	c2.2-1.7,4.5-3,6.7-4.2c3.3-1.8,6.5-3.4,9.7-4.8c4.2-7.8,7.8-15.8,11-24.2c-3-0.3-5.9-1.2-8.8-2.7c-6.1-1.3-10.7-4.2-14.4-7.9
	c-4-3.7-7-8-9.2-12.2c-1.2-2.2-2.2-4.5-3-6.7c-0.8-2.2-1.2-4.5-1.7-6.7c-0.5-2.5-0.5-4.7-0.5-7.2s0.5-5,1.5-7.7
	c6,2.5,10,5.2,13.4,8.5c1.7,1.5,3.2,3.2,4.7,5c1.5,1.7,2.5,3.5,3.7,5.5c1,1.7,2,3.7,3,6c0.7,2.2,1.5,4.2,2,6.7
	c0.8,3.8,1.2,7.6,1.1,12.2c3-3.8,5.9-6.6,8.6-9.5c1.7-1.7,3.5-3.5,5.5-5c0.3-0.3,0.7-0.6,1-0.8c2.1-8.8,3.7-17.8,4.6-27
	C440.6,272.5,437.4,272.2,434,271.2L434,271.2z M349.4,177.5c-1.3-0.6-2.7-1.2-4.2-1.7c4.3,10.1,6.7,21.2,6.7,32.9v27.6
	c0,26.2-16.2,48.8-39.1,58.2v59.3H208.4c-0.1,0-0.2,0-0.3,0l0,0c-29.1,0-54.1-23.7-56.8-54h-0.5v-18.7h0.3v-49.3
	c-8.2-2.4-14.2-10-14.2-18.9v-6.5c0-45.1,36.6-81.9,81.9-81.9h48.8c4.9,0,9.6,0.4,14.2,1.2c3.1-18.5,19.2-32.6,38.6-32.6
	c16.3,0,30.2,9.9,36.1,24c5.9,11.8,9.6,29.9,12,45.9C370.1,173.8,359.1,182,349.4,177.5L349.4,177.5z"/>
<path class="st2" d="M402.9,145.6c0.3,2.5,0.7,5,1.5,7.5c0.8,2.5,1.5,4.7,2.2,7c2,4.5,4.2,8.7,7.7,12.7c1.7,2,3.5,4,5.7,6
	s4.7,3.7,7.7,5.5c1-1.9,1.8-3.8,2.4-5.6c0.4-1.2,0.7-2.4,0.9-3.6c0.5-3,0.8-5.7,0.8-8.7c-0.3-5.5-1.2-11-3.5-15.7
	c-1-2.5-2.2-4.7-3.7-7.2c-1.5-2.2-3.2-4.2-5.2-6.2c-2-2-4.2-3.7-6.7-5.5c-2.2-1.5-5-2.7-8.5-3.7c-0.4,1.5-0.7,2.9-0.9,4.2
	c-0.3,1.8-0.4,3.5-0.6,5.2C402.7,140.4,402.9,142.9,402.9,145.6L402.9,145.6z"/>
<path class="st2" d="M436,213.1c-0.4,1.3-0.7,2.7-1,4.2c-0.6-1.3-1.2-2.5-1.9-3.7c-1.5-2.2-3-4.5-4.5-6.2c-3-3.7-6.7-6.7-10.2-9.2
	c-3.7-2.5-7.7-4.2-12.2-5.7c-5-1.2-9.7-2-15.9-1.7c0.5,5.7,3,10.2,5.7,14.2c3,4,6.5,7.2,10.5,10.2c4.2,2.7,8.5,5.2,13.7,6.7
	c4.6,1.4,9.9,1.9,15.7,0.6c2.3,0.1,4.5-0.2,6.5-0.6c3-0.7,5.7-1.8,8.2-3.4c4.5-2.7,8.5-7,11.2-12c2.7-5,4.7-10.7,5.2-16.9
	c0.5-6.5,0-13.4-3.2-20.9c-5.2,3.7-9,7.7-12,11.5c-3.2,4-5.5,8-7.7,12.2c-2.1,3.9-3.7,7.8-5.3,12.1c-0.1,0.4-0.3,0.7-0.4,1.1
	C437.6,207.9,436.8,210.4,436,213.1L436,213.1z"/>
<path class="st2" d="M437,262.5c-0.5,1-1,2-1.4,3c-0.3-1.2-0.6-2.3-1-3.3c-1-2.7-1.7-5-3-7.2c-2.2-4.5-4.7-8-8-11.2s-6.7-6-10.7-8.2
	c-4.5-2-9-3.7-15.2-4.7c-0.5,5.7,0.8,10.5,2.7,14.7c1,2.2,2,4.2,3.5,6.2c0.8,1,1.5,2,2.2,3c0.7,1,1.5,2,2.2,2.7
	c3.2,3.7,7.2,7,12,9.5c3.9,2.1,8.5,3.9,13.7,4.2c3.4,1,6.6,1.3,9.8,1c2.2-0.2,4.4-0.7,6.4-1.5c5.2-1.7,9.7-5,13.7-9.2
	c1-1,2-2.2,2.7-3.2c0.8-1.2,1.7-2.5,2.5-3.7c1.5-2.5,2.7-5.5,3.7-8.5c1.7-6,3-13.2,1.2-21.2c-6,2.5-10.2,5.5-14.2,8.7
	s-7.2,6.7-10.5,10.2c-1.6,2-3.2,4.1-4.8,6.2c-1.3,1.8-2.6,3.6-3.7,5.5C439.8,257.7,438.3,260,437,262.5L437,262.5z"/>
<path class="st2" d="M432.8,305c-2.7,2.9-5.6,5.7-8.6,9.5c0.1-4.7-0.3-8.5-1.1-12.2c-0.5-2.5-1.2-4.5-2-6.7c-1-2.2-2-4.2-3-6
	c-1.2-2-2.2-3.7-3.7-5.5c-1.5-1.7-3-3.5-4.7-5c-3.5-3.2-7.5-6-13.4-8.5c-1,2.7-1.5,5.2-1.5,7.7c0,2.5,0,4.7,0.5,7.2
	c0.5,2.2,1,4.5,1.7,6.7c0.7,2.2,1.7,4.5,3,6.7c2.2,4.2,5.2,8.5,9.2,12.2c3.7,3.7,8.3,6.6,14.4,7.9c2.8,1.5,5.8,2.4,8.8,2.7
	c1.9,0.2,3.8,0.2,5.7,0.1c5.5-0.5,10.7-2.5,15.4-5.5c2.2-1.5,4.5-3.5,6.7-5.7c2.2-2.2,4.2-4.7,5.7-7.5c1.7-2.7,3.2-6,4.5-9.2
	c0.7-3.5,1.5-7.2,1.7-11.2c-6.5,1-11.2,3-15.9,5.2c-2.2,1-4.5,2.2-6.5,3.5c-2,1.2-4,2.5-6,4c-1.6,1.2-3.1,2.4-4.5,3.6
	c-0.3,0.3-0.7,0.6-1,0.8C436.3,301.6,434.6,303.3,432.8,305L432.8,305z"/>
<path class="st2" d="M404.9,355.1c-1.1,0.7-2.2,1.4-3.4,2.2c0.5-1.5,0.9-2.9,1.1-4.2c0.5-2.7,0.8-5.2,1-7.7
	c0.3-4.7-0.5-9.5-1.5-13.4c-1-4.2-3-8.2-5.7-12.2c-2.7-4-6-7.7-11.2-11.5c-1.5,2.2-2.5,4.5-3.2,7c-0.3,1.2-0.5,2.2-0.7,3.5
	c-0.3,1.2-0.5,2.2-0.5,3.5c-0.3,4.7,0,9.2,1.2,13.9c1.2,4.7,2.7,9.5,5.7,13.9c2.3,3.8,5.4,7.6,9.8,10.4c0,0-0.1,0.1-0.1,0.1
	c3.1,3.5,6.6,5.7,10.4,7.1c1.4,0.5,2.8,0.9,4.3,1.1c5.2,1,11,0.8,16.4-1.2c5.5-1.7,11-5,15.7-9.5c1.2-1.2,2.5-2.5,3.5-3.7
	c1-1.2,2.2-2.7,3.2-4.2c1.7-3.5,3.5-7,4.5-11c-6.5-0.5-11.7,0.3-16.7,1.2c-5,1-9.5,2.5-13.9,4.2c-1.2,0.5-2.3,0.9-3.5,1.4
	c-3.2,1.4-6.4,3-9.7,4.8C409.4,352.1,407.2,353.4,404.9,355.1L404.9,355.1z"/>
<path class="st2" d="M367.8,392.2c2.5-3.9,4-7.4,5.3-10.9c1.5-4.7,2-9.2,2.2-13.4c0-4.5-0.8-8.7-2.2-13.2c-1.7-4-4-8.5-7.7-13.4
	c-2,1.7-3.5,3.7-5,5.7c-1.2,2-2.2,4.2-3,6.2c-0.8,2.2-1.5,4.5-1.7,6.7c-0.5,2.5-0.8,4.7-0.8,7c-0.3,2.5,0,5,0.3,7.5
	c0.3,2.5,0.8,5,1.2,7.5c1,4.2,3,8.6,6.4,12.4c-0.1,0-0.1,0-0.2,0.1c2.4,5,6,8.5,10,11c0.6,0.3,1.1,0.7,1.7,1c2.5,1.2,5,2.2,7.7,2.7
	c2.7,0.5,5.5,0.8,8.5,0.5s6-0.5,8.7-1.2c3-0.8,6-2,9-3.5s5.7-3.5,8.5-6c3.2-2.2,5.7-5.2,8-9c-6.2-2.2-11.2-3-16.4-3.2
	c-5.2-0.5-10-0.3-14.7,0.3c-0.5,0.1-0.9,0.1-1.4,0.1c-4.3,0.5-8.6,1-13.1,2.1C375.3,389.9,371.8,390.8,367.8,392.2L367.8,392.2z"/>
<path class="st2" d="M344.9,417.9c-2.5-0.3-5-0.5-7.5-0.5c-3.8,0-7.8-0.1-12.5,0.2c3.5-3.1,5.9-6.2,8-9.2c1.2-2,2.5-4,3.5-6
	c1-2,1.7-4.2,2.2-6.2c1.2-4.2,1.7-8.5,1.5-13.2c0-5-0.7-10-3.2-15.7c-2.5,1-4.7,2.5-6.5,4.2c-1.7,1.5-3.5,3.2-4.7,5.2
	c-1.2,2-2.5,4-3.7,6c-1,2-2,4.5-2.7,6.7c-1.5,4.5-2.5,9.7-2.5,14.9c0,4.9,0.9,10.2,3.8,15.2c1.4,5.4,4.2,9.7,7.8,12.9
	c0,0,0.1,0.1,0.1,0.1c4,3.5,9,6.2,14.7,7.5c2.7,0.5,5.7,1,8.7,1c3,0,6.2-0.3,9.5-1c3.2-0.7,6.5-1.7,9.7-3.2c3.5-1.7,6.7-3.7,10-6.5
	c-5.2-3.7-10.2-6-14.9-7.7c-4.3-1.6-8.5-2.7-12.8-3.5c-0.5-0.1-0.9-0.2-1.4-0.3C349.6,418.4,347.1,418.1,344.9,417.9L344.9,417.9z"
	/>
<path class="st2" d="M302.1,439.5c-3.3,0.9-6.4,2.5-9.2,4.9c-1.2,1-2.3,2.2-3.3,3.6c5,2.7,8.7,4.2,12.4,5.5c3.5,1.2,6.7,2.2,10.2,3
	c3.5,0.8,6.7,1.5,10.7,2c2,0.2,4,0.5,6.2,0.5h6.5c0.3,0,0.8,0.3,1-0.3c-1-2.5-1.7-5-2.5-7c-1.2-2.2-3-4-4.7-5.7
	c-3.5-3.2-8-5.5-12.7-6.7c-1.3-0.3-2.7-0.5-4-0.6C309.2,438.3,305.5,438.4,302.1,439.5L302.1,439.5z"/>
<path class="st2" d="M71.7,184.5c3-1.7,5.5-3.7,7.7-5.5c2.2-2,4-4,5.7-6c3.5-4,5.7-8.2,7.7-12.7c1-2.2,1.7-4.5,2.2-7
	c0.7-2.2,1.2-4.7,1.5-7.5c0.2-2.7,0.5-5.2,0.3-8.2c0-2.9-0.2-5.8-1-8.7c-0.1-0.3-0.2-0.7-0.3-1c-3.2,1-6.2,2.5-8.7,4
	c-2.5,1.5-4.7,3.5-6.7,5.5s-3.7,4-5.2,6.2c-1.5,2.2-2.7,4.7-3.7,7.2c-2.2,5-3.2,10.2-3.5,15.7c0,2.4,0.2,4.9,0.6,7.5
	c0.1,0.4,0.1,0.8,0.2,1.2C68.9,178.3,69.9,181.3,71.7,184.5L71.7,184.5z"/>
<path class="st2" d="M80.1,221.9c5.2-1.5,9.5-3.7,13.7-6.7c4-3,7.5-6.2,10.5-10.2c2.5-4,5-8.2,5.5-14.2c-6.5-0.5-11.2,0.5-15.7,1.7
	c-4.5,1.2-8.7,3.2-12.2,5.7c-3.7,2.5-7.2,5.5-10.2,9.2c-1.5,2-3,4-4.5,6.2c-0.7,1.2-1.4,2.4-2,3.7c-0.3-1.6-0.7-3.1-1.2-4.5
	c-0.8-2.7-1.5-5.2-2.2-7.7c-0.8-2.2-1.6-4.2-2.4-6.2c-1-2.4-2.1-4.7-3.3-7c-2.2-4.2-4.7-8.2-7.7-12.2c-3-3.5-6.7-7.5-12-11.2
	c-3.2,7.5-3.7,14.4-3.2,20.7c0.5,6.5,2.5,12.2,5.2,16.9c2.7,5,6.7,9,11.2,12c1.5,1,3.2,1.8,4.9,2.5c2.8,1,5.8,1.6,9.1,1.6
	C69.4,223.8,75,223.3,80.1,221.9L80.1,221.9z"/>
<path class="st2" d="M64.7,271.5c6,0.2,10.9-1.7,15.2-4.3c4.5-2.5,8.7-6,12-9.5c0.8-1,1.5-1.7,2.2-2.7c0.7-1,1.5-2,2.2-3
	c1.2-2,2.5-4,3.5-6.2c1.7-4.5,3-9.2,2.5-14.9c-6.2,1-10.7,2.7-14.9,5c-4.2,2.2-7.5,5-10.7,8.2c-3.2,3.2-5.7,6.7-8,11.2
	c-1.2,2.2-2,4.5-3,7.2c-0.4,1.1-0.8,2.3-1.1,3.5c-0.6-1.2-1.1-2.4-1.7-3.5c-1.2-2.5-2.7-4.7-4-7c-2.1-3.6-4.6-6.8-7.1-9.9
	c-0.5-0.6-0.9-1.2-1.4-1.8c-3-3.5-6.5-7-10.5-10.2s-8.2-6.2-14.2-8.7c-1.7,8-0.5,14.9,1.2,21.2c1,3,2.2,6,3.7,8.5
	c0.8,1.2,1.5,2.5,2.5,3.7s1.7,2.2,2.7,3.2c4,4.2,8.5,7.5,13.7,9.2c0.9,0.3,1.9,0.6,2.9,0.8C56.4,272.4,60.4,272.5,64.7,271.5
	L64.7,271.5z"/>
<path class="st2" d="M90.9,311c4-3.7,7-7.7,9.2-12.2c1.2-2.2,2.2-4.5,3-6.7s1.5-4.5,1.7-6.7c0.5-2.2,0.5-4.7,0.5-7.2
	c0-2.2-0.5-4.7-1.5-7.5c-6,2.5-9.7,5.2-13.4,8.2c-1.7,1.5-3.2,3.2-4.7,5c-1.5,1.7-2.5,3.5-3.7,5.5c-1,2-2.2,4-3,6
	c-0.8,2-1.5,4.2-2,6.7c-0.7,3.7-1.4,7.5-1.2,12c-2.9-3.6-5.7-6.2-8.3-9c-1.7-1.7-3.7-3.5-5.5-5c-1.7-1.5-3.7-3-5.5-4.5
	c0,0-0.1-0.1-0.1-0.1c-2-1.5-3.9-2.7-5.9-3.9c-2-1.2-4.2-2.5-6.5-3.5c-4.7-2.2-9.7-4.2-16.2-5.2c0.3,4.2,1,8,2,11.2
	c1,3.5,2.7,6.5,4.5,9.2c1.7,2.7,3.7,5.2,5.7,7.5c2.2,2.2,4.5,4,6.7,5.7c5,3.2,10.2,5,15.4,5.5c0.7,0.1,1.4,0.1,2,0.1
	c4.4,0.1,8.7-1.1,13.1-3.4C83,317.3,87.4,314.3,90.9,311L90.9,311z"/>
<path class="st2" d="M112.5,350.1c2.7-4.5,4.5-9.2,5.7-13.9c1.2-4.7,1.5-9.5,1.2-13.9c0-1.2-0.3-2.2-0.5-3.5
	c-0.3-1.2-0.5-2.2-0.7-3.5c-1-2.2-2-4.5-3.5-7c-5.2,3.7-8.5,7.5-11,11.5c-2.5,3.7-4.5,8-5.7,12.2c-1,4.2-2,8.7-1.5,13.4
	c0.3,2.5,0.5,5,1,7.7c0.2,1.1,0.5,2.3,0.9,3.5c-1-0.7-2-1.4-2.9-2c-2.2-1.5-4.5-2.7-6.7-4.2c-4.5-2.5-8.7-4.5-13.2-6.2
	c-0.6-0.2-1.3-0.5-1.9-0.7c-3.9-1.4-7.8-2.7-12.1-3.5c-5.7-0.5-10.7-1.2-17.2-0.8c1,4,3,7.5,5,10.5c1,1.5,2,3,3.2,4.2
	c1.2,1.2,2.2,2.5,3.5,3.7c4.7,4.7,10.2,7.7,15.7,9.5c5.5,2,11.2,2.2,16.4,1.2c0.2,0,0.5-0.1,0.7-0.1c4.8-1,9.6-3.4,13.6-7.6
	C107.1,357.8,110.2,354,112.5,350.1L112.5,350.1z"/>
<path class="st2" d="M136.3,395.9c4.2-4.1,6.2-9,7.6-13.7c0.8-2.5,1-5,1.2-7.5c0.2-2.5,0.2-5,0.2-7.5s-0.5-4.7-0.7-7
	c-0.5-2.2-1-4.5-1.7-6.7c-1-2-1.7-4.2-3-6.2c-1.5-2.5-3-4.5-5.2-6.2c-4,5-6,9.5-7.5,13.9c-1.5,4.5-2,8.7-2.2,13.2
	c0,4.2,0.7,8.7,2.2,13.4c1.3,3.3,2.7,6.8,5.1,10.7c-4.3-1.5-7.9-2.5-11.6-3.5c-5-1.2-9.5-2-14.4-2.2c-0.7-0.1-1.5-0.1-2.2-0.2
	c-4-0.3-8.1-0.5-12.5,0c-5,0.5-10,1-16.2,3.2c2.2,3.5,4.7,6.5,7.7,9c2.7,2.2,5.5,4.5,8.5,6c3,1.5,6,2.7,9,3.5c3,0.7,6,1.2,8.7,1.2
	c3,0.3,5.7,0,8.5-0.5c2.7-0.5,5.1-1.5,7.5-2.6c0.1,0,0.1-0.1,0.2-0.1C129.7,403.9,133.6,400.7,136.3,395.9L136.3,395.9z"/>
<path class="st2" d="M179.3,419c2.8-4.9,3.7-10.1,3.7-14.8c0-5.2-1-10.5-2.5-14.9c-0.8-2.5-1.7-4.7-2.7-6.7c-1-2-2.2-4-3.7-6
	c-1.5-2-3-3.7-4.7-5.2s-3.7-3-6.2-4c-2.2,5.7-3.2,10.7-3.5,15.4c-0.2,4.7,0.5,9,1.5,13.2c0.5,2.2,1.2,4.2,2.2,6.2s2,4,3.5,6
	c2.1,3.3,4.6,6.3,8.3,9.5c-4.8-0.4-8.9-0.2-12.7-0.2c-2.5,0-5,0.3-7.5,0.5c-2.5,0.3-4.7,0.5-7,1c-1.3,0.2-2.5,0.5-3.8,0.8
	c-3.5,0.8-6.9,1.9-10.4,3c-4.5,1.7-9.5,3.7-14.7,7.7c3.2,2.7,6.5,4.7,9.7,6.5c3.2,1.5,6.7,2.5,9.7,3.2c3.2,0.8,6.5,1,9.5,1
	s6-0.5,8.7-1c5.3-1.1,9.9-3.4,13.7-6.6c0.3-0.3,0.7-0.6,1-0.9C175.1,429.2,178.2,424.8,179.3,419L179.3,419z"/>
<path class="st2" d="M184.8,439c-0.4,0.1-0.7,0.2-1.1,0.2c-4.7,1.2-9.2,3.5-12.7,6.7c-1.7,1.7-3.5,3.5-4.7,5.7c-1.2,2.2-2.2,4.7-3,7
	c0.3,0.3,0.8,0.3,1.5,0.3h6.5c2.2,0,4.2-0.3,6.2-0.5c4-0.5,7.2-1.2,10.7-2c3.2-0.8,6.5-1.7,10.2-3c3.5-1.5,7.5-3,12.4-5.5
	c-0.7-0.9-1.4-1.7-2.1-2.5c-3-3-6.6-4.8-10.3-6C194.1,438.2,189.3,438.1,184.8,439L184.8,439z"/>
<path class="st2" d="M268.3,445.8c4.8-1.4,9.6-2.8,14.3-4.5c2.8-1,5.5-2.1,8.2-3.4c1.5-0.7,2.9-1.5,4.3-2.5c2-1.2,3.7-2.7,5.2-4.7
	c0.2-0.4,0.5-0.8,0.7-1.2c1.3-1.7,2.4-3.6,3.3-5.6c2-4.5,3-9.5,2.5-14.2c0-2.5-0.5-5-1.5-7.2c-1-2.2-2.5-4.5-3.7-6.5
	c-0.5,0-0.8,0.3-0.8,0.8l-0.7,0.8l-1.2,1.5c-1,0.8-1.5,1.7-2.2,2.7c-1.2,1.7-2.5,3.5-3.5,5.2c-2,3.5-3.5,6.5-5,9.7
	c-1.5,3.2-2.7,6.2-4,10c-0.9,2.8-1.8,5.6-2.6,9.2c-0.1,0-0.2,0-0.3,0.1c-4.2,0.8-8.7,1.5-12.9,2c-4.5,0.5-8.7,1.2-13.2,2
	c-1.7,0.3-3.4,0.6-5.1,0.9c-1.7-0.3-3.4-0.6-5.1-0.9c-4.5-0.8-9-1.2-13.2-2c-4.4-0.5-8.6-1.2-12.7-1.9c-0.8-3.7-1.8-6.7-2.7-9.5
	c-1.2-3.7-2.5-6.7-4-10c-1.2-3.2-3-6.5-5-9.7c-1-1.7-2.2-3.5-3.5-5.2c-0.7-0.8-1.5-1.7-2.2-2.7l-1.2-1.5l-0.8-0.8
	c-0.3,0-0.5-0.5-1-0.5c-1.2,2-2.7,4.2-3.5,6.2c-0.7,2.5-1.2,4.7-1.5,7.2c-0.5,4.7,0.5,9.7,2.5,14.2c0.5,1,1,2,1.6,3
	c0.5,1.4,1.1,2.7,1.9,4c1.5,1.7,3.2,3.5,5.2,4.7c4,2.5,8.2,4.5,12.4,6c4.7,1.8,9.5,3.2,14.3,4.6c-0.9,0.4-1.9,0.9-2.8,1.4
	c-0.6,0.3-1.2,0.7-1.8,1.1c-7.5,4.7-14.1,11.5-16.7,20.1l1,0.8c8-5,14.9-8.5,22.7-11.2c3.7-1.5,7.5-2.7,11.5-4.5
	c1.5-0.7,3-1.3,4.5-1.9c1.6,0.6,3.1,1.2,4.7,1.9c3.7,1.5,7.7,3,11.5,4.5c7.7,3,14.9,6.2,22.7,11.2l1-0.8
	c-2.6-8.7-9.5-15.7-17.2-20.4c-0.4-0.3-0.8-0.5-1.3-0.8C270.2,446.7,269.3,446.2,268.3,445.8L268.3,445.8z"/>
<path class="st3" d="M356.6,117.1c-5.9-14.1-19.8-24-36.1-24c-19.4,0-35.5,14.1-38.6,32.6c24.8,4.2,45.9,19.3,58.3,40.3
	c1.9,3.2,3.5,6.4,5,9.8c1.5,0.6,2.9,1.1,4.2,1.7c9.7,4.5,20.7-3.7,19.2-14.4C366.2,147,362.5,129,356.6,117.1L356.6,117.1z"/>
<path class="st4" d="M281.9,125.7c-4.6-0.8-9.4-1.2-14.2-1.2h-48.8c-45.3,0-81.9,36.9-81.9,81.9v6.5c0,8.9,5.9,16.5,14.2,18.9v-19.6
	c0.1,0,0.2,0,0.2,0c35.7,5.4,60.2-0.4,89.3-16.1c0.9,3.7,2.1,7.5,3.7,11.4c0.4,0.9,0.8,1.8,1.2,2.8c0.6,1.4,1.3,2.8,2,4.1
	c7.6,14.8,19.9,26,34.4,32.7c4.3-4.6,10.4-7.4,17.2-7.4c9.9,0,18.2,5.9,21.8,14.3c1.2,2.9,1.9,6,1.9,9.3c0,7.7-3.8,14.6-9.6,18.9
	l-0.4,3.5v8.9c22.9-9.5,39.1-32.1,39.1-58.2v-27.6c0-11.7-2.4-22.8-6.7-32.9c-1.4-3.4-3.1-6.7-5-9.8
	C327.9,145,306.7,129.9,281.9,125.7L281.9,125.7z"/>
<path class="st5" d="M255.2,338.7c24.7-15.4,34.1-38.1,36.9-45.3c0,0,1.4-2.8,3.6-6.7c1.1,0.2,2.2,0.2,3.4,0.2
	c5.3,0,10.1-1.8,14.1-4.7c5.8-4.3,9.6-11.2,9.6-18.9c0-3.3-0.7-6.5-1.9-9.3c-3.6-8.5-11.9-14.3-21.8-14.3c-6.8,0-12.9,2.9-17.2,7.4
	c-2.5,2.7-4.4,5.9-5.5,9.5c-14.2-10.2-24.6-24.9-29-42.2c-0.7-1.3-1.3-2.7-2-4.1l-2.2,0.7c-34.6,12-60,15.2-91.9,6.2v-4.9
	c-0.1,0-0.2,0-0.2,0v69h6.2c5.2,0,9.5,4,9.5,9.2s-4.2,9.5-9.5,9.5h-6c2.7,30.3,27.6,54,56.8,54l0,0c-6.6,0-13.3-1.5-19.2-3.7
	C195.5,351.4,225.6,357.1,255.2,338.7L255.2,338.7z M299.3,250c7.2,0,13.2,6,13.2,13.2c0,7.2-6,13.2-13.2,13.2
	c-7.2,0-13.2-6-13.2-13.2C286.1,256,292.1,250,299.3,250L299.3,250z M249.5,280.9c5.2,0.3,9.5,4.2,9.5,9.5c0,5.2-4.2,9.5-9.5,9.5
	h-12.7c-5.2,0-9.5-4.2-9.5-9.5c0-5.2,4.2-9.5,9.5-9.5H249.5z M232.6,247c6.2,0,11.5,5.2,11.5,11.5c0,6.2-5,11.5-11.5,11.5
	s-11.5-5-11.5-11.5C221.1,252,226.1,247,232.6,247z M193.5,283.1h11.5c3.5,0,6,2.5,6,6c0,3.2-2.7,6-6,6h-11.5c-3.2,0-6-2.7-6-6
	S190.2,283.1,193.5,283.1z M175.5,269.9c-6.2,0-11.5-5-11.5-11.5c0-6.5,5-11.5,11.5-11.5c6.5,0,11.5,5.2,11.5,11.5
	S182,269.9,175.5,269.9z M185.7,307.8h31.9c-3,5-9,9.2-15.9,9.2S189,313,185.7,307.8z"/>
<path class="st6" d="M175.5,247c-6.5,0-11.5,5.2-11.5,11.5c0,6.2,5.2,11.5,11.5,11.5c6.2,0,11.5-5.2,11.5-11.5
	C187,252.2,182,247,175.5,247z"/>
<path class="st6" d="M232.6,269.9c6.5,0,11.5-5.2,11.5-11.5s-5.2-11.5-11.5-11.5s-11.5,5.2-11.5,11.5S226.3,269.9,232.6,269.9z"/>
<path class="st7" d="M193.5,295.1h11.5c3.2,0,6-2.7,6-6c0-3.5-2.5-6-6-6h-11.5c-3.2,0-6,2.7-6,6S190.2,295.1,193.5,295.1z"/>
<path class="st8" d="M227.3,290.4c0,5.2,4.2,9.5,9.5,9.5h12.7c5.2,0,9.5-4.2,9.5-9.5c0-5.2-4.2-9.2-9.5-9.5h-12.7
	C231.6,280.9,227.3,285.1,227.3,290.4z"/>
<path class="st8" d="M166.8,290.4c0-5.2-4.2-9.2-9.5-9.2h-6.5v18.7h6.5C162.6,299.8,166.8,295.6,166.8,290.4L166.8,290.4z"/>
<path class="st9" d="M217.6,307.8h-31.9c3.2,5.2,9.2,9.2,15.9,9.2S214.6,312.8,217.6,307.8z"/>
<path class="st10" d="M243.3,210.9l2.2-0.7c-0.4-0.9-0.8-1.8-1.2-2.8c-1.6-3.9-2.8-7.7-3.7-11.4c-29.1,15.8-53.5,21.5-89.3,16.1v4.9
	C183.2,226.1,208.7,222.9,243.3,210.9L243.3,210.9z"/>
<path class="st10" d="M276.4,256.5c1.1-3.6,3-6.8,5.5-9.5c-14.5-6.7-26.8-17.9-34.4-32.7C251.7,231.5,262.2,246.3,276.4,256.5
	L276.4,256.5z"/>
<path class="st10" d="M313.2,282.1c-3.9,3-8.8,4.7-14.1,4.7c-1.1,0-2.3-0.1-3.4-0.2c-2.2,3.9-3.6,6.7-3.6,6.7
	c-2.7,7.2-12.2,29.9-36.9,45.3c-29.6,18.4-59.8,12.7-66.3,11.5c5.9,2.2,12.5,3.7,19.2,3.7c0.1,0,0.2,0,0.3,0h104.4v-68.2
	L313.2,282.1L313.2,282.1z"/>
<path class="st10" d="M299.3,276.4c7.2,0,13.2-6,13.2-13.2c0-7.2-6-13.2-13.2-13.2c-7.2,0-13.2,6-13.2,13.2S292.1,276.4,299.3,276.4
	z"/>
<path class="st11" d="M232.6,68.9c4.7,0,8.4-3.8,8.4-8.4V40.8c0-4.7-3.8-8.4-8.4-8.4c-4.7,0-8.4,3.8-8.4,8.4v19.7
	C224.1,65.1,227.9,68.9,232.6,68.9z"/>
<path class="st11" d="M280.7,82.7c1.3,0.8,2.8,1.1,4.2,1.1c2.9,0,5.8-1.5,7.3-4.3l9.1-15.9l0.9-1.6c2.3-4.1,0.9-9.2-3.1-11.5
	c-4.1-2.3-9.2-0.9-11.5,3.1l-3.4,6l-6.6,11.5C275.2,75.3,276.6,80.4,280.7,82.7L280.7,82.7z"/>
<path class="st11" d="M180.3,83.9c1.4,0,2.9-0.4,4.2-1.1c4.1-2.3,5.5-7.5,3.1-11.5l-2.5-4.4l-7.5-13.1c-2.3-4.1-7.5-5.5-11.5-3.1
	c-4.1,2.3-5.5,7.5-3.1,11.5l6.2,10.9l3.7,6.6C174.5,82.3,177.3,83.9,180.3,83.9L180.3,83.9z"/>
</svg>
