<?xml version="1.0" encoding="utf-8"?>
<!-- Generator: Adobe Illustrator 27.5.0, SVG Export Plug-In . SVG Version: 6.00 Build 0)  -->
<svg version="1.1" id="a" xmlns="http://www.w3.org/2000/svg" xmlns:xlink="http://www.w3.org/1999/xlink" x="0px" y="0px"
	 viewBox="0 0 500 500" style="enable-background:new 0 0 500 500;" xml:space="preserve">
<style type="text/css">
	.st0{fill:#091947;}
	.st1{fill:#00BCFF;}
	.st2{fill:#5CFAFF;}
	.st3{fill:#4F5DFF;}
	.st4{fill:#0B24B8;}
	.st5{fill:#FF9000;}
	.st6{fill:#FFA600;}
	.st7{fill:#FF7B00;}
	.st8{fill:#638AFF;}
	.st9{fill:#A33BFF;}
	.st10{fill:#00F0D4;}
	.st11{fill:#00B6FF;}
	.st12{fill:#006EFF;}
	.st13{fill:#FF9808;}
	.st14{opacity:0.2;fill:#FF5B45;enable-background:new    ;}
	.st15{fill:#FF5C6E;}
	.st16{fill:#A200FF;}
	.st17{fill:#9117FF;}
	.st18{fill:#AD52FF;}
	.st19{fill:#EB4659;}
	.st20{fill:#00E0A1;}
	.st21{fill:#00F0AC;}
	.st22{fill:#00D1E0;}
	.st23{fill:#00D69A;}
	.st24{fill:#6011A6;}
	.st25{fill:#009EC2;}
</style>
<rect x="0" y="0" class="st0" width="500" height="500"/>
<path class="st1" d="M279.2,51H279C279.1,51,279.2,51,279.2,51z"/>
<path class="st1" d="M279,68.9v166h28.1V51h-27.9v17.8C279.2,68.8,279.1,68.9,279,68.9L279,68.9z"/>
<path class="st2" d="M308.3,234.9L308.3,234.9c1.5,0.1,3,0.4,4.4,1.2l12.6,7.7V51h-18.2v183.9H308.3z"/>
<path class="st3" d="M206.2,124.1c0-40.4,32.7-72.9,72.9-73l0,0C238.8,51.1,206.1,83.9,206.2,124.1l-0.1,7.8h0.2L206.2,124.1
	L206.2,124.1z"/>
<path class="st3" d="M279,68.9c-29.7,2.8-53.1,27.7-53.1,58.1v5c14.2,0.4,25.8,11.9,25.8,26.3v76.6H279V68.9L279,68.9z"/>
<path class="st4" d="M206.2,124.1v7.8h19.2c0.2,0,0.4,0,0.6,0v-5c0-30.4,23.3-55.3,53.1-58.1c0.1,0,0.1,0,0.2,0V51.1
	c-0.1,0-0.1,0-0.2,0C238.8,51.1,206.2,83.7,206.2,124.1L206.2,124.1z"/>
<path class="st5" d="M231.2,236.1c1.1-0.6,2.2-1,3.5-1.2v-0.1h17.2v-76.6c0-14.5-11.6-26.1-25.8-26.3c-0.2,0-0.4,0-0.6,0h-26.1
	v123.8L231.2,236.1L231.2,236.1z"/>
<path class="st6" d="M92.8,397.2c-4.6-3.1-8.4-7.6-10.2-13.2c-1.9-5.8-1.7-11.6,0-16.7c2.3-6.6,2.5-13.7,0.2-20.3
	c-0.2-0.3-0.2-0.8-0.3-1.1c-2.3-8.9,3.1-18.2,12.4-20.1c0.2,0,0.3,0,0.4-0.1v-10c0-3.6,2.8-6.4,6.4-6.4h21.7c3.6,0,6.4,2.8,6.4,6.4
	v3c0.6-0.2,1.2-0.3,1.9-0.3h54v-34.3h-3.1c-1.9,0-3.6-0.5-4.8-1.5v4.2c0,0.9-0.2,1.8-0.5,2.6c-0.8,2.4-3,4-5.8,4h-12.6
	c-0.4,0-0.9-0.1-1.3-0.2h-7.9c-3.5,0-6.4-2.8-6.4-6.4V265c0-3.6,2.8-6.4,6.4-6.4h21.7c3.6,0,6.4,2.8,6.4,6.4v3.9
	c0.2-0.1,0.3-0.2,0.4-0.3l21.1-12.9V131.8h-97.4c-14.5,0-26.4,11.7-26.4,26.4v240.6h15.9C91.9,398.3,92.4,397.7,92.8,397.2
	L92.8,397.2z M143.3,161.5c0-3.6,2.8-6.4,6.4-6.4h21.7c3.6,0,6.4,2.8,6.4,6.4v21.7c0,1.4-0.4,2.7-1.2,3.6c-1.1,1.7-2.9,2.8-5.1,2.8
	h-21.9c-3.5,0-6.4-2.9-6.4-6.4L143.3,161.5L143.3,161.5z M143.3,215.3c0-3.6,2.8-6.4,6.4-6.4h21.7c3.6,0,6.4,2.8,6.4,6.4V237
	c0,0.9-0.2,1.8-0.5,2.6c-0.8,2.4-3,4-5.8,4h-12.6c-0.4,0-0.9-0.1-1.3-0.2h-7.9c-3.5,0-6.4-2.8-6.4-6.4L143.3,215.3L143.3,215.3z
	 M95.4,161.5c0-3.6,2.8-6.4,6.4-6.4h21.7c3.6,0,6.4,2.8,6.4,6.4v21.7c0,1.4-0.4,2.7-1.2,3.6c-1.1,1.7-2.9,2.8-5.1,2.8h-21.9
	c-3.6,0-6.4-2.9-6.4-6.4L95.4,161.5L95.4,161.5z M95.4,215.3c0-3.6,2.8-6.4,6.4-6.4h21.7c3.6,0,6.4,2.8,6.4,6.4V237
	c0,0.9-0.2,1.8-0.5,2.6c-0.8,2.4-3,4-5.8,4h-12.6c-0.4,0-0.9-0.1-1.3-0.2h-7.8c-3.6,0-6.4-2.8-6.4-6.4V215.3L95.4,215.3z M95.4,265
	c0-3.6,2.8-6.4,6.4-6.4h21.7c3.6,0,6.4,2.8,6.4,6.4v21.7c0,0.9-0.2,1.8-0.5,2.6c-0.8,2.4-3,4-5.8,4h-12.6c-0.4,0-0.9-0.1-1.3-0.2
	h-7.8c-3.6,0-6.4-2.8-6.4-6.4V265L95.4,265z"/>
<path class="st6" d="M184.5,342.2c-9.7,0-17.5,7.8-17.5,17.5v39.2h18.8v-56.6L184.5,342.2L184.5,342.2L184.5,342.2z"/>
<path class="st7" d="M101.8,189.6h9.2c-3.5,0-6-2.7-6-6v-22.3c0-3.5,2.7-6,6-6h12.6c3.5,0,6,2.7,6,6v22.1c0,1.2-0.4,2.4-1,3.4
	c0.7-1.1,1.2-2.3,1.2-3.6v-21.7c0-3.6-2.8-6.4-6.4-6.4h-21.7c-3.6,0-6.4,2.8-6.4,6.4v21.7C95.4,186.6,98.1,189.6,101.8,189.6
	L101.8,189.6z"/>
<path class="st8" d="M129.7,161.4c0-3.5-2.7-6-6-6h-12.7c-3.5,0-6,2.7-6,6v22.3c0,3.3,2.7,6,6,6h12.6c2.1,0,4-1.1,5.1-2.8
	c0.6-1,1-2.1,1-3.4L129.7,161.4L129.7,161.4z"/>
<path class="st7" d="M149.7,189.6h9.2c-3.3,0-6-2.7-6-6v-22.3c0-3.5,2.7-6,6-6h12.6c3.5,0,6,2.7,6,6v22.1c0,1.2-0.4,2.4-1,3.4
	c0.7-1.1,1.2-2.3,1.2-3.6v-21.7c0-3.6-2.8-6.4-6.4-6.4h-21.7c-3.6,0-6.4,2.8-6.4,6.4v21.7C143.3,186.6,146.2,189.6,149.7,189.6
	L149.7,189.6z"/>
<path class="st8" d="M177.6,161.4c0-3.5-2.7-6-6-6H159c-3.5,0-6,2.7-6,6v22.3c0,3.3,2.8,6,6,6h12.6c2.1,0,4-1.1,5.1-2.8
	c0.6-1,1-2.1,1-3.4V161.4L177.6,161.4z"/>
<path class="st7" d="M101.8,243.4h7.8c-2.8-0.6-4.7-3.1-4.7-6v-22.3c0-3.5,2.7-6,6-6h12.6c3.5,0,6,2.7,6,6v22.4c0,0.7-0.1,1.4-0.4,2
	c0.4-0.8,0.5-1.6,0.5-2.6v-21.7c0-3.6-2.8-6.4-6.4-6.4h-21.6c-3.6,0-6.4,2.8-6.4,6.4V237C95.4,240.7,98.1,243.4,101.8,243.4
	L101.8,243.4z"/>
<path class="st8" d="M129.7,215.2c0-3.5-2.7-6-6-6h-12.7c-3.5,0-6,2.7-6,6v22.3c0,2.8,2,5.3,4.7,6c0.4,0.1,0.9,0.2,1.3,0.2h12.6
	c2.7,0,4.9-1.7,5.8-4c0.3-0.6,0.4-1.3,0.4-2V215.2L129.7,215.2z"/>
<path class="st7" d="M149.7,243.4h7.9c-2.7-0.6-4.8-3.1-4.8-6v-22.3c0-3.5,2.7-6,6-6h12.6c3.5,0,6,2.7,6,6v22.4c0,0.7-0.1,1.4-0.4,2
	c0.4-0.8,0.5-1.6,0.5-2.6v-21.7c0-3.6-2.8-6.4-6.4-6.4h-21.7c-3.6,0-6.4,2.8-6.4,6.4V237C143.3,240.7,146.2,243.4,149.7,243.4
	L149.7,243.4z"/>
<path class="st8" d="M177.6,215.2c0-3.5-2.7-6-6-6H159c-3.5,0-6,2.7-6,6v22.3c0,2.8,2.1,5.3,4.8,6c0.4,0.1,0.9,0.2,1.3,0.2h12.6
	c2.7,0,4.9-1.7,5.8-4c0.3-0.6,0.4-1.3,0.4-2L177.6,215.2L177.6,215.2z"/>
<path class="st7" d="M101.8,293h7.8c-2.8-0.6-4.7-3.1-4.7-6v-22.3c0-3.5,2.7-6,6-6h12.6c3.5,0,6,2.7,6,6v22.3c0,0.7-0.1,1.4-0.4,2
	c0.4-0.8,0.5-1.6,0.5-2.6v-21.7c0-3.6-2.8-6.4-6.4-6.4h-21.6c-3.6,0-6.4,2.8-6.4,6.4v21.7C95.4,290.3,98.1,293,101.8,293L101.8,293z
	"/>
<path class="st8" d="M129.7,264.8c0-3.5-2.7-6-6-6h-12.7c-3.5,0-6,2.7-6,6v22.3c0,2.8,2,5.3,4.7,6c0.4,0.1,0.9,0.2,1.3,0.2h12.6
	c2.7,0,4.9-1.7,5.8-4c0.3-0.6,0.4-1.3,0.4-2V264.8L129.7,264.8z"/>
<path class="st7" d="M104.9,326.9v-11.6c0-3.5,2.7-6,6-6h12.6c3.5,0,6,2.7,6,6v3.2c0.1,0,0.1,0,0.2,0v-3c0-3.6-2.8-6.4-6.4-6.4
	h-21.6c-3.6,0-6.4,2.8-6.4,6.4v10C98.7,325,102,325.6,104.9,326.9L104.9,326.9z"/>
<path class="st8" d="M123.7,324.8c0.7-3,3-5.4,6-6.2v-3.2c0-3.5-2.7-6-6-6h-12.7c-3.5,0-6,2.7-6,6v11.6c0.3,0.2,0.5,0.3,0.9,0.4
	c2.8-2.6,6.8-4.2,11-4.2C119.2,323.2,121.5,323.8,123.7,324.8L123.7,324.8z"/>
<path class="st7" d="M152.8,287.2v-22.3c0-3.5,2.7-6,6-6h12.6c3.5,0,6,2.7,6,6v4.2c0.1,0,0.1-0.1,0.2-0.1V265c0-3.6-2.8-6.4-6.4-6.4
	h-21.7c-3.6,0-6.4,2.8-6.4,6.4v21.7c0,3.6,2.9,6.4,6.4,6.4h7.9C154.9,292.4,152.8,290,152.8,287.2L152.8,287.2z"/>
<path class="st7" d="M177.6,287.2c0,0.7-0.1,1.4-0.4,2c0.4-0.8,0.5-1.6,0.5-2.6v-4.2c-0.1,0-0.1-0.1-0.2-0.1L177.6,287.2
	L177.6,287.2z"/>
<path class="st8" d="M177.6,282.4c-4.2-3.1-4.8-10,0-13.4v-4.2c0-3.5-2.7-6-6-6H159c-3.5,0-6,2.7-6,6v22.3c0,2.8,2.1,5.3,4.8,6
	c0.4,0.1,0.9,0.2,1.3,0.2h12.6c2.7,0,4.9-1.7,5.8-4c0.3-0.6,0.4-1.3,0.4-2L177.6,282.4L177.6,282.4z"/>
<path class="st9" d="M361.9,247.6c-4.1-2.3-7.9-5.6-11.2-9.8c-0.3-0.3-0.4-0.5-0.6-0.9l-7.2,17.6l13,7.9L361.9,247.6z"/>
<path class="st10" d="M361.9,247.6c2.2,1.2,4.4,2.2,6.8,2.8c7.2,2.2,14.5,1.2,20-2.9c3.9-3,7.4-5.4,9.7-7.8c-4,2.9-8.8,4.1-13.8,3.7
	c-1.9-0.2-3.7-0.4-5.6-1.1c-1.6-0.4-3.3-1.1-4.9-1.9c-0.8-0.4-1.6-0.8-2.4-1.2c-0.4-0.3-0.8-0.4-1.2-0.7c-0.8-0.5-1.5-1.1-2.3-1.6
	c-0.4-0.3-0.7-0.5-1.2-0.9c-0.7-0.6-1.4-1.2-2.1-1.9c-1.4-1.3-2.8-2.8-4-4.4c-0.3-0.4-0.6-0.8-0.9-1.2c-0.6-0.8-1.2-1.6-1.6-2.5
	c-1.5-2.5-2.7-5.2-3.6-7.7c-0.2-0.4-0.3-0.9-0.4-1.3c-0.3-0.9-0.4-1.8-0.6-2.7s-0.3-1.8-0.4-2.6c-0.1-0.9-0.2-1.8-0.2-2.6
	c0-2,0.2-3.9,0.4-5.8c0.8-4.3,2.7-8.1,5.6-11.1c-2.5,1.7-5.2,3.9-8.4,6.4c-5.4,4.4-8.1,11.1-8,18.6c0.2,6.6,2.4,13.5,7,19.7
	c0.2,0.3,0.4,0.6,0.6,0.9C353.9,242,357.8,245.3,361.9,247.6L361.9,247.6z"/>
<path class="st11" d="M374,240.5c-0.8-0.4-1.6-0.8-2.4-1.2C372.4,239.7,373.2,240.1,374,240.5z"/>
<path class="st11" d="M354.5,216.9c-0.3-0.9-0.4-1.8-0.6-2.7C354,215.2,354.2,216.1,354.5,216.9z"/>
<path class="st11" d="M370.5,238.5c-0.8-0.5-1.5-1.1-2.3-1.6C369,237.5,369.8,238,370.5,238.5z"/>
<path class="st11" d="M381.9,204l12.1-9.3c-10.3-9-23.8-11-32.7-4.2c-0.7,0.5-1.3,1.1-1.9,1.7c-2.9,2.9-4.8,6.8-5.6,11.1
	C362.6,197.8,373.8,198.3,381.9,204L381.9,204z"/>
<path class="st11" d="M354.8,218.3c0.8,2.7,2,5.2,3.6,7.7C356.9,223.5,355.7,220.9,354.8,218.3z"/>
<path class="st11" d="M353.9,214.3c-0.2-0.9-0.3-1.8-0.4-2.6C353.6,212.6,353.7,213.5,353.9,214.3z"/>
<path class="st11" d="M391,216.1c3.4,9.4,1.1,20.2-6.5,27.3c5,0.3,9.8-0.9,13.8-3.7c0.2-0.1,0.3-0.2,0.4-0.3
	c9-6.8,10.3-20.4,4.4-32.6L391,216.1L391,216.1z"/>
<path class="st11" d="M360.1,228.5c-0.6-0.8-1.2-1.6-1.6-2.5C358.9,226.9,359.5,227.7,360.1,228.5z"/>
<path class="st11" d="M365,234.1c0.7,0.7,1.4,1.3,2.1,1.9C366.4,235.4,365.7,234.8,365,234.1z"/>
<path class="st12" d="M391,216.1l-4.6,3.6c-3.3,2.3-8,1.9-10.6-1.4c-2.5-3.3-1.9-8,1.4-10.6l4.7-3.6c-8.2-5.8-19.4-6.2-28.2-0.7
	c-0.3,1.9-0.4,3.7-0.4,5.8c0,0.9,0.1,1.7,0.2,2.6c0.1,0.9,0.3,1.8,0.4,2.6c0.1,0.8,0.4,1.8,0.6,2.7c0.1,0.4,0.3,0.9,0.4,1.3
	c0.8,2.7,2,5.2,3.6,7.7c0.5,0.8,1.1,1.7,1.6,2.5c0.3,0.4,0.6,0.8,0.9,1.2c1.2,1.6,2.6,3.1,4,4.4c0.7,0.7,1.4,1.3,2.1,1.9
	c0.4,0.3,0.7,0.6,1.2,0.9c0.7,0.5,1.5,1.1,2.3,1.6c0.4,0.3,0.8,0.4,1.2,0.7c0.8,0.4,1.6,0.9,2.4,1.2c1.6,0.8,3.2,1.4,4.9,1.9
	c1.9,0.6,3.7,1,5.6,1.1C392.1,236.3,394.4,225.5,391,216.1L391,216.1z"/>
<path class="st9" d="M381.9,204l-4.7,3.6c-3.3,2.7-3.9,7.4-1.4,10.6c2.7,3.3,7.4,3.7,10.6,1.4l4.6-3.6l12.2-9.3l2.4-1.9
	c3.3-2.7,3.9-7.4,1.4-10.6c-2.7-3.3-7.4-3.9-10.6-1.4l-2.4,1.9L381.9,204L381.9,204z"/>
<path class="st13" d="M304.3,353.8c0-4.5,3.7-8.3,8.3-8.3h29.1c1.1-1.9,2.2-3.6,3.6-5.2c5-5.6,6.4-13.6,3.3-20.3
	c-1.2-2.8-2-5.8-2-9.1c0-6.1,2.6-11.6,6.8-15.6h-68v23.2c3.6,0.9,6.4,4.2,6.4,8c0.2,4.5-3.6,8.3-8.1,8.3h-53.1v64h18.6v-42.9
	c0-6,3.8-11,9.2-13c1.4-0.5,2.9-0.8,4.5-0.8h8.5c7.5,0,13.7,6,13.7,13.7v42.9h27.5V362C308.1,362,304.3,358.3,304.3,353.8
	L304.3,353.8z"/>
<path class="st13" d="M288.2,284.1h-2.9v11.4h68c1.5-1.4,3.1-2.6,5-3.6V284L288.2,284.1L288.2,284.1z"/>
<path class="st14" d="M288.2,284.1h-2.9v11.4h68c1.5-1.4,3.1-2.6,5-3.6V284L288.2,284.1L288.2,284.1z"/>
<path class="st15" d="M229.4,318.4h54c0.6,0,1.2,0.1,1.9,0.3v-34.6H285v11.4L185.7,306v12.4H229.4L229.4,318.4z"/>
<path class="st15" d="M194.3,342.2h-8.5v56.6h26.1v-39.2C211.8,350,203.9,342.2,194.3,342.2L194.3,342.2z"/>
<path class="st15" d="M267.5,356c0-6-3.9-11.1-9.2-13c-5.4,1.9-9.2,7-9.2,13v42.9h18.4V356z"/>
<path class="st13" d="M391.2,398.8c0.4-0.6,0.9-1.2,1.3-1.7c-2.8-1.5-5.2-3.6-7.2-6v7.6H391.2L391.2,398.8z"/>
<path class="st15" d="M361.9,398.8h23.4v-7.6c-1.2-1.3-2.2-2.8-3.1-4.4c-4.6,2.5-9.9,3.8-15.5,3.6c-15.3-0.6-27.9-13-28.9-28.3
	c0-0.1,0-0.1,0-0.2h-25.3v36.8H361.9L361.9,398.8z"/>
<polygon class="st16" points="285.1,295.4 285.1,284.1 255.6,284.1 185.7,284.1 185.7,306 "/>
<path class="st17" d="M361.2,283.9h-71.4c-0.5,0.1-1.1,0.2-1.7,0.2h73c5.2,0,8.4-4.3,8.4-8.6C369.7,279.7,366.5,283.9,361.2,283.9
	L361.2,283.9z"/>
<path class="st17" d="M308.3,235L308.3,235l-73.8-0.1v0.2c1.8-0.2,3.6,0.2,5.2,1.2l52.6,32.3h73l-9.6-5.9l-13-7.9L325.3,244
	l-12.6-7.7C311.3,235.3,309.8,235,308.3,235L308.3,235z"/>
<path class="st18" d="M292.3,268.4l-52.6-32.3c-1.6-0.9-3.4-1.3-5.2-1.2c-1.2,0.1-2.4,0.4-3.5,1.2l-31.8,19.6l-21.1,12.9
	c-0.2,0.1-0.4,0.2-0.4,0.3c-0.1,0-0.1,0.1-0.2,0.1c-4.8,3.5-4.2,10.3,0,13.4c0.1,0,0.1,0.1,0.2,0.1c1.3,0.9,2.9,1.5,4.8,1.5h105.7
	c0.6,0,1.2-0.1,1.7-0.2h71.4c5.2,0,8.4-4.2,8.4-8.4c0-2.7-1.2-5.2-4-7L292.3,268.4L292.3,268.4z"/>
<path class="st13" d="M184.5,342.2H167c-9.7,0-17.5,7.8-17.5,17.5v39.2H167v-39.2C167,350,174.8,342.2,184.5,342.2L184.5,342.2z"/>
<path class="st19" d="M285.1,356c0-7.6-6.2-13.7-13.7-13.7h-8.5c-1.6,0-3.1,0.3-4.5,0.8c5.3,1.9,9.2,6.9,9.2,13V399h17.6L285.1,356
	L285.1,356z"/>
<path class="st19" d="M230.5,342.2v-7.4h-98.4c0.3,0.9,0.4,1.9,0.5,2.8c0.2,0.6,0.2,1.1,0.2,1.7c0,7,2.2,13.7,6.6,18.8
	c3.1,4.1,5.2,9.1,5.4,14.5c0.5,8.1-2.8,15.6-8.3,20.7c1.8,1.6,3.4,3.4,4.8,5.3h8.1v-39.2c0-9.7,7.8-17.5,17.5-17.5h27.3
	c9.7,0,17.5,7.8,17.5,17.5v39.2h18.8L230.5,342.2L230.5,342.2z"/>
<path class="st17" d="M229.4,318.4c4.5,0,8.3,3.7,8.3,8.3c0.2,4.5-3.6,8.3-8.3,8.3h54.1c4.5,0,8.3-3.7,8.1-8.3c0-3.9-2.8-7.2-6.4-8
	c-0.6-0.2-1.2-0.3-1.9-0.3H229.4L229.4,318.4z"/>
<path class="st18" d="M123.7,324.8c4,2,7.2,5.7,8.4,10h97.3c4.7,0,8.4-3.7,8.3-8.3c0-4.5-3.7-8.3-8.3-8.3h-97.6
	c-0.6,0-1.2,0.1-1.9,0.3c-0.1,0-0.1,0-0.2,0C126.7,319.4,124.4,321.8,123.7,324.8L123.7,324.8z"/>
<path class="st18" d="M304.3,353.8c0,4.5,3.7,8.3,8.3,8.3h25.3c-0.3-6,1.1-11.6,3.8-16.5h-29.1C308.1,345.5,304.3,349.2,304.3,353.8
	L304.3,353.8z"/>
<path class="st20" d="M99.1,391.3c-3.3-3.8-5.5-8.5-6.1-13.8c-0.6-6,0.6-11.6,3.5-16.3c3.5-6,5.2-13,4.2-19.8
	c-0.2-0.3-0.2-0.8-0.2-1.1c-0.4-5.2,1.7-9.8,5.2-13c-0.3-0.2-0.5-0.3-0.9-0.4c-2.9-1.3-6.2-1.9-9.5-1.3c-0.2,0-0.3,0-0.4,0.1
	c-9.3,1.9-14.8,11.2-12.4,20.1c0.2,0.3,0.2,0.8,0.3,1.1c2.3,6.6,2.2,13.7-0.2,20.3c-1.7,5.2-1.9,10.9,0,16.7
	c1.9,5.6,5.6,10.1,10.2,13.2C94.6,394.9,96.7,393,99.1,391.3L99.1,391.3z"/>
<path class="st21" d="M123.7,324.8c-2.1-1.1-4.4-1.6-6.9-1.6c-4.3,0-8.1,1.6-11,4.2c-3.5,3.2-5.6,7.8-5.2,13c0,0.3,0,0.8,0.2,1.1
	c1,6.8-0.8,13.9-4.2,19.8c-2.8,4.7-4.1,10.3-3.5,16.3c0.6,5.2,2.8,10,6.1,13.8c4.9-3.4,10.8-5.4,17.3-5.4c7.7,0,14.8,2.8,20.2,7.6
	c5.5-5.2,8.7-12.6,8.3-20.7c-0.3-5.4-2.3-10.5-5.4-14.5c-4.4-5.2-6.6-11.8-6.6-18.8c0-0.6,0-1.1-0.2-1.7c-0.1-1-0.3-1.9-0.5-2.8
	C130.9,330.5,127.7,326.8,123.7,324.8L123.7,324.8z"/>
<path class="st22" d="M136.5,393.5c-5.4-4.7-12.4-7.6-20.2-7.6c-6.4,0-12.4,2-17.3,5.4c-2.4,1.6-4.5,3.6-6.3,5.9
	c-0.4,0.5-0.9,1.2-1.3,1.7h49.9C140,396.9,138.4,395.1,136.5,393.5L136.5,393.5z"/>
<path class="st20" d="M422.8,338.2c-0.4,7.2,1.7,14.3,5.6,20.3c3.1,4.7,4.8,10.5,4.5,16.7c-0.4,5.6-2.4,10.8-5.6,14.9
	c3,1.6,5.7,3.6,8,6.1c7-2.7,12.6-8.4,14.7-16c1.4-5.3,1-10.6-1-15.3c-2.5-6-2.9-12.4-1.2-18.6c0.2-0.3,0.3-0.6,0.3-1
	c1.7-8.4-3.9-16.5-12.4-17.8c-5.2-0.6-10.1,1.4-13.3,5.2c0.4,1.3,0.5,2.8,0.5,4.2V338.2L422.8,338.2z"/>
<path class="st21" d="M398.1,360.3c0,11.5-6.4,21.4-15.9,26.5c0.9,1.6,2,3,3.1,4.4c2,2.4,4.4,4.4,7.2,6c5.2-6.2,13-10.3,21.8-10.3
	c4.7,0,9.1,1.2,13,3.2c3.2-4.2,5.2-9.3,5.6-14.9c0.3-6.2-1.4-12-4.5-16.7c-3.9-6-6-13.1-5.6-20.3v-1.2c0-1.4-0.2-2.8-0.5-4.2
	c-2-7.6-9.1-13-17.4-12.4c-8.4,0.6-15.3,7.6-15.6,16.1v1.7c0,0.2,0,0.4,0,0.5c0.4,0.5,0.8,1.2,1.2,1.7
	C395.1,345.5,398.1,352.7,398.1,360.3L398.1,360.3z"/>
<path class="st22" d="M427.3,390c-3.9-2-8.3-3.2-13-3.2c-8.9,0-16.7,4-21.8,10.3c-0.4,0.5-0.9,1.2-1.3,1.7H434c0.1,0,0.3,0,0.4,0
	c0.4,0,0.7,0,1,0c0.4,0,0.6,0.1,1,0.1c0.1,0,0.1,0,0.2,0c0.4,0,0.7,0.1,1.1,0.1c-0.7-1.1-1.5-2-2.4-2.9
	C433,393.7,430.3,391.6,427.3,390L427.3,390z"/>
<path class="st20" d="M346.6,311c0,3.3,0.8,6.2,2,9.1c3.1,6.7,1.7,14.7-3.3,20.3c-1.4,1.6-2.7,3.3-3.6,5.2
	c-2.8,4.9-4.2,10.6-3.8,16.5c0,0.1,0,0.1,0,0.2c1,15.3,13.6,27.7,28.9,28.3c5.6,0.2,10.9-1.2,15.5-3.6c9.4-5.1,15.9-15,15.9-26.5
	c0-7.6-2.9-14.8-7.6-20.1c-0.4-0.5-0.8-1.1-1.2-1.7c-3.7-5.6-4.4-12.7-1.8-18.8c1.4-2.9,2-6.2,1.9-9.7c-0.4-10.8-9.1-19.6-19.8-20.4
	c-4.1-0.3-7.9,0.5-11.2,2.2c-1.8,0.9-3.5,2.1-5,3.6C349.1,299.3,346.6,304.9,346.6,311L346.6,311z"/>
<path class="st9" d="M351.6,423.8c0-3.9-0.9-7.6-2.5-10.9H43.6c-1.7,3.4-2.6,7.1-2.6,11.1c0,13.7,11.1,25,25,25h358.1
	c1,0,1.9-0.1,2.8-0.2H326.6C340.3,448.8,351.6,437.7,351.6,423.8L351.6,423.8z"/>
<path class="st23" d="M348.9,412.4c-0.2-0.3-0.3-0.5-0.4-0.8c-0.1-0.2-0.2-0.3-0.3-0.4c-4-6.8-11.2-11.6-19.6-12.3
	c-0.1,0-0.3,0-0.4,0c-0.5,0-1.1-0.1-1.7-0.1H66c-9.9,0-18.4,5.8-22.5,14H349C349,412.8,349,412.6,348.9,412.4L348.9,412.4z"/>
<path class="st24" d="M456.5,412.9H349.1c-0.1-0.2-0.2-0.3-0.3-0.4c0.1,0.2,0.2,0.3,0.3,0.4c1.6,3.3,2.5,7,2.5,10.9
	c0,13.9-11.2,25-25,25H434c13.9,0,25-11.2,25-25C458.9,419.9,458.1,416.3,456.5,412.9L456.5,412.9z"/>
<path class="st24" d="M434.3,398.8c0.4,0,0.7,0,1,0C435,398.9,434.7,398.9,434.3,398.8z"/>
<path class="st24" d="M436.4,399c0.1,0,0.1,0,0.2,0C436.5,399,436.4,399,436.4,399z"/>
<path class="st24" d="M328.6,398.9c-0.1,0-0.3,0-0.4,0C328.4,398.9,328.5,398.9,328.6,398.9z"/>
<path class="st24" d="M348.4,411.6c-0.1-0.2-0.2-0.3-0.3-0.4C348.2,411.4,348.3,411.5,348.4,411.6z"/>
<path class="st25" d="M436.4,399c-0.4,0-0.6-0.1-1-0.1c-0.4,0-0.7,0-1,0c-0.1,0-0.3,0-0.4,0H326.6c0.5,0,1.2,0,1.7,0.1
	c0.1,0,0.3,0,0.4,0c8.3,0.7,15.6,5.4,19.6,12.3c0.1,0.1,0.2,0.3,0.3,0.4c0.2,0.3,0.3,0.5,0.4,0.8c0.1,0.2,0.2,0.3,0.3,0.4h107.3
	c-3.6-7.2-10.6-12.5-18.8-13.8c-0.4-0.1-0.7-0.1-1.1-0.1C436.5,399,436.4,399,436.4,399L436.4,399z"/>
</svg>
