<?xml version="1.0" encoding="UTF-8"?><svg id="a" xmlns="http://www.w3.org/2000/svg" viewBox="0 0 631.45 433.78"><path d="m437.26,229.37c-17.98,24.03-37.49,47.24-53.94,71.45,19.6-4.2,38.91-9.67,57.82-16.35-3.2-18.18-4.5-36.65-3.88-55.09Z" fill="none"/><path d="m269.28,310.78c-18.49-18.85-38.6-39.52-56.65-61.82.35,1.33.41,2.72.18,4.08h0c-2.89,16.91-6.86,33.61-10.04,50.47,4.85.88,9.69,1.69,14.5,2.42,17.23,2.62,34.59,4.24,52.01,4.85Z" fill="none"/><path d="m173.43,123.79c2.93,75.51,69.74,136.75,118.79,187.03.07.08.12.16.19.24,7.94-.1,15.86-.4,23.77-.9,15.1-.96,30.1-2.71,44.98-5.15.09-.17.14-.34.25-.51,40.39-64.83,115.19-126,115.06-208.34-.04-21.44-4.53-44.94-20.6-60.27-14.94-14.26-36.51-20.83-56.89-20.03-45.73,1.79-89.5,26.37-112.93,65.65-5.39,9.04-19.53.81-14.13-8.26,5.19-8.68,11.27-16.8,18.15-24.22-20.78-20.78-50.57-20.75-75.66-6.19-29,16.83-42.27,48.11-40.99,80.96Zm159.55-55.14c3.87-14.64,22.83-25.64,36.21-30.84,15.57-6.05,32.82-6.38,48.02.72.39.18.1.73-.28.66-18.31-3.97-35.08-1.07-50.28,10.13-10.06,7.4-15.16,19.18-25.49,25.63-4.2,2.63-9.39-1.72-8.18-6.29Zm-7.34,15.01c4.53.07,8.19,3.73,8.26,8.26.2,4.46-3.94,8.26-8.26,8.26-4.53-.08-8.18-3.73-8.26-8.26-.2-4.46,3.94-8.26,8.26-8.26Zm-84.12,128.39c-4.12-.07-7.45-3.39-7.51-7.51-.18-4.06,3.58-7.52,7.51-7.52,4.12.07,7.45,3.39,7.52,7.52.18,4.06-3.58,7.51-7.52,7.51Zm11.5-158.12c.3.11.38.61,0,.69-26.41,5.35-44.6,31.3-41.87,58.14,1.21,13.15,4.5,26.04,9.72,38.17,3.99,9.08,11.15,17.02,14.48,26.19,1.79,4.92-2.01,10.22-6.6,11.62l-1.63.5c-4.74,1.44-9.93-1.01-12.46-5.07-15.66-25.22-27.62-63.41-15.01-92.34,7.36-16.89,32.38-45.76,53.36-37.9Z" fill="#ba3a4f"/><path d="m516.3,254.75c2.53,1.3,4.08,3.95,3.97,6.8.23,1.73-.19,3.49-1.19,4.92-.03.23-.03.45-.08.68-4.94,22.72-9.89,45.44-14.84,68.16,31.63-1.05,63.07-5.23,93.88-12.49-14.26-12.14-28.52-24.27-42.77-36.41-3.41-2.9-2.9-8.59,0-11.57,17.72-18.18,34.37-37.38,49.87-57.48l-128.23,16.11c13.42,6.5,26.43,13.88,39.4,21.28Z" fill="#e5e5e5"/><path d="m108.27,276.43c-.3-1.84.18-3.73,1.32-5.21,1.04-1.72,2.73-2.95,4.69-3.41,15.36-4.09,30.63-8.49,45.9-12.89-38.98-2.8-78.09-3.55-117.15-2.25,14.45,14.3,28.58,28.93,42.71,43.54,2.78,2.87,3.52,8.81,0,11.57-19.89,15.59-39.68,31.51-58.56,48.37,30.75,3.34,61.41,7.33,91.99,11.97-3.7-30.55-7.27-61.12-10.9-91.68Z" fill="#e5e5e5"/><path d="m186.81,300.22c2.36-12.71,5.17-25.33,7.7-38-20.11,5.56-40.13,11.45-60.23,17.05,15.87,10.3,33.96,16.6,52.53,20.95Z" fill="gray"/><path d="m456.68,278.63h0c13.04-5.13,25.83-10.84,38.36-17.13-13.49-7.6-27.16-14.87-41.53-20.59.07,12.63,1.12,25.25,3.17,37.71Z" fill="gray"/><path d="m479.09,371.67c4.38-9.8,5.26-22.2,7.53-32.61,4.49-20.61,8.97-41.22,13.46-61.84-59.14,29.27-123.63,46.15-189.52,49.61-35.45,1.81-71-.37-105.97-6.49-27.54-4.81-54.49-12.04-77.93-26.75,2.33,19.62,4.66,39.23,6.99,58.85,1.59,13.36,0,35.22,12.36,43.23,8,5.19,19.42,6.74,28.54,8.88,45.04,10.48,91.35,14.52,137.53,12.02,47.16-2.49,93.72-11.78,138.23-27.58,10.37-3.68,23.97-6.57,28.77-17.31Zm-229.95,10.42c-.76-5.93-1.72-11.83-2.86-17.69-1.59,2.58-3,5.28-4.18,8.1-2.07,5.05-6.87,7.49-12.02,4.89-3.5-1.77-6.69-3.85-9.6-6.18l.37,8.38s0,0,0,0h0s0,0,0,0c.47,10.54-15.89,10.48-16.36,0-.51-11.41-1.02-22.82-1.53-34.23-.45-10.04,12.86-10.01,16.07-2.17,2.59,6.32,6.69,11.42,11.86,15.42,3.72-6.63,8.39-12.7,13.91-17.99,4.36-4.14,12.12-2.51,13.67,3.61,3.12,12.47,5.47,25.12,7.02,37.89,1.31,10.44-15.07,10.31-16.36,0Zm60.73,10.65c-18.15,3.96-30.28-10-28.49-27.6.78-7.67,3.99-15.29,10.07-20.24,4.31-3.52,10.64-5.19,15.66-3.03,7.16,1.15,13.28,7.09,16.89,13.02,8.93,14.66,3.67,33.97-14.13,37.86Zm80.61-24.62c-.11-4.43-.34-8.86-.68-13.28-.58.99-1.14,1.98-1.66,3.01-2.48,4.65-5.18,9.23-10.42,11.12-5.41,1.95-10.45.05-14.85-3.48.05,2.98.11,5.96.16,8.94.19,10.56-16.05,10.5-16.36,0-.07-2.46-.12-4.9-.13-7.34l-.42-23.04h0c-.08-4.28,2.58-6.82,5.77-7.62,3.74-2.16,9.41-1.35,11.56,2.76,2.08,3.99,4.92,9.98,8.85,12.41.28.17.24.53.12.85.15-.23.37-.53.65-.92.81-1.39,1.52-2.83,2.15-4.31,3.76-6.84,8.77-12.91,14.76-17.91,4.12-3.48,12.68-3.05,13.67,3.61,1.76,11.66,2.83,23.41,3.19,35.2.3,10.55-16.06,10.5-16.36,0Z" fill="#e5e5e5"/><path d="m309.32,362.23c-.52-.72-2.08-1.95-3.02-2.92-.51.1-1.02.13-1.54.11-1.45.24-2.95.12-4.35-.45-.54.69-1,1.43-1.36,2.23-1.02,2.23-1.54,4.66-1.52,7.12-.06,4.53.94,8.76,6.07,8.83,5.65.08,9.43-3.49,8.3-9.15-.45-2.08-1.33-4.04-2.58-5.76Z" fill="#e5e5e5"/><path d="m623.2,198.73c-59.12,7.43-118.25,14.86-177.37,22.29-.91-.05-1.82.08-2.68.37,21.94-30.24,40.68-62.09,47.29-99.15,5.86-32.9,2.39-73.6-22.99-97.93C442.31.22,407.21-3.71,374.43,2.8c-27.24,5.4-52.22,17.25-72.58,34.84-49.73-51.59-130.56-3.63-142.54,57.87-10.61,54.48,14.72,104.24,48.97,147.96-1.03-.52-2.17-.78-3.33-.78h-.02c-60.16-6.78-120.77-8.65-181.23-5.6-6.81.34-11.13,8.85-5.78,13.96,17.04,16.3,33.5,33.22,49.9,50.17-22.4,17.65-44.62,35.73-65.35,55.29-5.6,5.29-.83,13.3,5.78,13.96,38.01,3.8,75.88,8.62,113.63,14.46,3.32,13.65,9.82,23.45,25.74,29.3,48.68,17.88,107.31,21.09,158.61,18.98,54.33-2.23,108.67-12.92,159.44-32.5,20.35-7.85,27.87-16.81,32.58-38.23.78-3.55,1.54-7.11,2.32-10.67,39.54-1.01,78.81-6.72,116.99-17.03,5.59-1.51,8.39-9.6,3.61-13.67l-48.31-41.12c20.62-21.7,39.79-44.73,57.4-68.94,3.43-4.73-1.11-13.07-7.07-12.32Zm-67.94,76.11c-2.9,2.97-3.41,8.67,0,11.57,14.26,12.13,28.52,24.27,42.77,36.41-30.8,7.26-62.25,11.44-93.88,12.49,4.95-22.72,9.89-45.44,14.84-68.16.05-.24.05-.45.08-.68,1-1.43,1.42-3.19,1.19-4.92.11-2.85-1.44-5.5-3.97-6.8-12.98-7.4-25.98-14.78-39.4-21.28l128.23-16.11c-15.5,20.11-32.15,39.3-49.87,57.48Zm-380.7,129.72c-9.12-2.14-20.55-3.69-28.54-8.88-12.35-8.01-10.77-29.88-12.36-43.23-2.33-19.62-4.66-39.23-6.99-58.85,23.44,14.71,50.39,21.94,77.93,26.75,34.97,6.12,70.51,8.3,105.97,6.49,65.89-3.46,130.38-20.34,189.52-49.61-4.49,20.61-8.97,41.22-13.46,61.84-2.27,10.41-3.15,22.82-7.53,32.61-4.8,10.75-18.4,13.63-28.77,17.31-44.51,15.8-91.07,25.09-138.23,27.58-46.18,2.51-92.48-1.54-137.53-12.02Zm-88.83-96.78c3.52-2.76,2.78-8.7,0-11.57-14.13-14.61-28.26-29.24-42.71-43.54,39.06-1.3,78.17-.55,117.15,2.25-15.27,4.4-30.54,8.8-45.9,12.89-1.96.46-3.65,1.69-4.69,3.41-1.14,1.48-1.62,3.37-1.32,5.21,3.63,30.56,7.2,61.12,10.9,91.68-30.58-4.63-61.25-8.62-91.99-11.97,18.88-16.86,38.67-32.77,58.56-48.37ZM290.08,49.02c-6.87,7.42-12.96,15.54-18.15,24.22-5.41,9.06,8.73,17.3,14.13,8.26,23.43-39.28,67.2-63.87,112.93-65.65,20.38-.8,41.95,5.77,56.89,20.03,16.07,15.33,20.56,38.83,20.6,60.27.13,82.34-74.67,143.51-115.06,208.34-.11.17-.16.34-.25.51-14.88,2.44-29.88,4.19-44.98,5.15-7.91.5-15.84.8-23.77.9-.07-.08-.11-.16-.19-.24-49.06-50.28-115.86-111.52-118.79-187.03-1.28-32.85,11.99-64.13,40.99-80.96,25.09-14.55,54.88-14.58,75.66,6.19Zm166.6,229.61h0c-2.04-12.47-3.1-25.08-3.17-37.71,14.37,5.72,28.04,12.99,41.53,20.59-12.53,6.29-25.32,12-38.36,17.13Zm-73.36,22.19c16.45-24.21,35.96-47.41,53.94-71.45-.62,18.45.68,36.91,3.88,55.09-18.9,6.69-38.21,12.15-57.82,16.35Zm-196.51-.6c-18.57-4.34-36.66-10.65-52.53-20.95,20.1-5.6,40.12-11.49,60.23-17.05-2.53,12.67-5.34,25.29-7.7,38Zm26.01-47.18h0c.23-1.36.16-2.75-.18-4.08,18.04,22.3,38.16,42.97,56.65,61.82-17.41-.61-34.78-2.23-52.01-4.85-4.81-.74-9.65-1.54-14.5-2.42,3.18-16.86,7.15-33.56,10.04-50.47Z" fill="#14151f"/><polygon points="220.86 379.58 220.86 379.58 220.86 379.58 220.86 379.58" fill="#1a1a1a"/><path d="m258.47,344.21c-1.55-6.12-9.31-7.75-13.67-3.61-5.52,5.29-10.19,11.36-13.91,17.99-5.16-4-9.27-9.09-11.86-15.42-3.21-7.83-16.52-7.87-16.07,2.17.51,11.41,1.02,22.82,1.53,34.23.47,10.48,16.83,10.54,16.36,0l-.37-8.38c2.91,2.34,6.1,4.41,9.6,6.18,5.15,2.6,9.95.16,12.02-4.89,1.18-2.81,2.58-5.52,4.18-8.1,1.14,5.86,2.1,11.76,2.86,17.69,1.29,10.31,17.66,10.44,16.36,0-1.55-12.76-3.9-25.41-7.02-37.89Z" fill="#1a1a1a"/><path d="m307.11,341.86c-5.02-2.15-11.35-.49-15.66,3.03-6.07,4.96-9.28,12.58-10.07,20.24-1.79,17.6,10.34,31.56,28.49,27.6,17.8-3.89,23.05-23.2,14.13-37.86-3.61-5.93-9.73-11.87-16.89-13.02Zm-3.5,35.28c-5.13-.07-6.13-4.3-6.07-8.83-.02-2.46.5-4.89,1.52-7.12.36-.8.83-1.54,1.36-2.23,1.4.57,2.9.69,4.35.45.52.03,1.03-.01,1.54-.11.93.97,2.5,2.2,3.02,2.92,1.25,1.72,2.13,3.68,2.58,5.76,1.13,5.66-2.65,9.23-8.3,9.15Z" fill="#1a1a1a"/><path d="m389.97,329.31c-5.99,5-11,11.07-14.76,17.91-.62,1.48-1.34,2.92-2.15,4.31-.29.39-.5.69-.65.92.12-.32.16-.68-.12-.85-3.93-2.43-6.76-8.42-8.85-12.41-2.15-4.11-7.81-4.91-11.56-2.76-3.19.8-5.85,3.34-5.77,7.62h0s.42,23.03.42,23.03c.02,2.44.06,4.88.13,7.34.31,10.5,16.55,10.56,16.36,0-.05-2.98-.11-5.96-.16-8.94,4.4,3.54,9.44,5.44,14.85,3.48,5.24-1.89,7.93-6.47,10.42-11.12.52-1.02,1.08-2.02,1.66-3.01.34,4.42.57,8.85.68,13.28.3,10.5,16.66,10.55,16.36,0-.37-11.79-1.43-23.54-3.19-35.2-.99-6.66-9.55-7.09-13.67-3.61Z" fill="#1a1a1a"/><path d="m514.45,169.39h0c16.05-11.11,32.1-22.22,48.15-33.33,8.6-5.95.43-20.14-8.26-14.12-16.05,11.11-32.1,22.22-48.15,33.33-8.6,5.95-.43,20.14,8.26,14.13Z" fill="#14151f"/><path d="m89.1,172.15c16.98,13.87,35.09,26.32,54.13,37.2,9.16,5.22,17.41-8.91,8.26-14.13-17.87-10.12-34.86-21.71-50.81-34.64-8.1-6.59-19.74,4.92-11.57,11.57Z" fill="#14151f"/><path d="m110.83,140.59l14.41,16.63c2.89,3.34,8.6,2.97,11.57,0,3.31-3.31,2.9-8.22,0-11.57l-14.41-16.63c-2.89-3.34-8.6-2.97-11.57,0-3.31,3.31-2.9,8.22,0,11.57h0Z" fill="#14151f"/><path d="m511.2,119.01c3.91,2.18,8.85.89,11.19-2.93h0c.61-.96,1.27-1.89,1.91-2.83.04-.06.07-.11.09-.14.06-.07.15-.16.27-.3.42-.47.82-.96,1.25-1.43,1.63-1.77,3.4-3.41,5.29-4.9,3.37-2.67,3-8.81,0-11.57-3.58-3.28-7.97-2.85-11.57,0-4.49,3.63-8.34,7.99-11.37,12.91-2.24,3.91-.93,8.89,2.94,11.19Z" fill="#14151f"/><path d="m214.69,184.17c2.52,4.07,7.72,6.51,12.46,5.07l1.63-.5c4.59-1.4,8.39-6.71,6.6-11.62-3.34-9.17-10.49-17.11-14.48-26.19-5.23-12.13-8.51-25.01-9.72-38.17-2.73-26.85,15.46-52.79,41.87-58.14.38-.08.3-.58,0-.69-20.97-7.86-45.99,21.02-53.36,37.9-12.61,28.93-.65,67.12,15.01,92.34Z" fill="#fff"/><path d="m241.53,197.03c-3.93,0-7.7,3.46-7.51,7.52.07,4.12,3.39,7.45,7.51,7.51,3.93,0,7.7-3.46,7.52-7.51-.07-4.12-3.39-7.45-7.52-7.52Z" fill="#fff"/><path d="m341.17,74.94c10.33-6.46,15.43-18.23,25.49-25.63,15.21-11.19,31.98-14.09,50.28-10.13.38.08.66-.47.28-.66-15.21-7.1-32.46-6.77-48.02-.72-13.38,5.2-32.34,16.2-36.21,30.84-1.21,4.57,3.98,8.92,8.18,6.29Z" fill="#fff"/><path d="m325.65,100.18c4.32,0,8.46-3.8,8.26-8.26-.08-4.53-3.73-8.18-8.26-8.26-4.32,0-8.46,3.8-8.26,8.26.07,4.53,3.73,8.19,8.26,8.26Z" fill="#fff"/></svg>