<?xml version="1.0" encoding="UTF-8"?><svg id="a" xmlns="http://www.w3.org/2000/svg" xmlns:xlink="http://www.w3.org/1999/xlink" viewBox="0 0 500 500"><defs><clipPath id="b"><rect y="0" width="500" height="500" fill="none"/></clipPath><clipPath id="c"><path d="m249.68,75.88c96.77,0,175.22,78.45,175.22,175.22s-78.45,175.22-175.22,175.22V75.88Z" fill="none"/></clipPath><clipPath id="d"><circle cx="249.68" cy="251.11" r="175.22" fill="none"/></clipPath></defs><g clip-path="url(#b)"><circle cx="250" cy="251.21" r="355.66" fill="#091947" isolation="isolate"/><circle cx="250" cy="251.21" r="307.41" fill="#081e4e" isolation="isolate"/><circle cx="250" cy="251.21" r="258.65" fill="#082363" isolation="isolate"/><circle cx="250" cy="251.21" r="208.32" fill="#0a1439" isolation="isolate"/><circle cx="249.68" cy="251.11" r="175.22" fill="#218bd8" isolation="isolate"/><path d="m249.68,75.88c96.77,0,175.22,78.45,175.22,175.22s-78.45,175.22-175.22,175.22V75.88Z" fill="#1566d3" isolation="isolate"/><g clip-path="url(#c)"><path d="m351.39,159.93c0-1.43-1.16-2.59-2.59-2.59h-3.29c-.59,0-1.14-.12-1.67-.29.16.85.25,1.73.25,2.62,0,.98-.1,1.93-.28,2.85h5c1.43,0,2.59-1.16,2.59-2.59Z" fill="none"/><path d="m428.1,268.48c17.19,0,31.13-13.94,31.13-31.13s-13.94-31.13-31.13-31.13h-109.45c-17.19,0-31.13,13.94-31.13,31.13s13.94,31.13,31.13,31.13h109.45Z" fill="#2e9084" isolation="isolate"/><path d="m481.18,283.6h-109.45c-12.89,0-23.35,10.45-23.35,23.35,0,4.14,1.09,8.01,2.97,11.38h23.1c6.95,0,12.68,5.23,13.48,11.96h93.25c12.89,0,23.35-10.45,23.35-23.35s-10.45-23.35-23.35-23.35Z" fill="#2e9084" isolation="isolate"/><path d="m273.91,159.67c0,2.02.41,3.94,1.16,5.69h15.85c4.52,0,8.19,3.67,8.19,8.19,0,.22-.05.42-.06.63h30.52c.32,0,.63-.03.94-.05.8-6.54,6.36-11.6,13.12-11.6h.16c.18-.92.28-1.88.28-2.85,0-.9-.09-1.77-.25-2.62-2.19-.71-3.78-2.74-3.78-5.16,0-.65.13-1.27.34-1.85-2.66-2.98-6.51-4.87-10.82-4.87h-41.16c-8.01,0-14.51,6.49-14.51,14.51Z" fill="#2e9084" isolation="isolate"/><path d="m310.21,102.2h44.96c8.37,0,15.16-6.79,15.16-15.16s-6.79-15.16-15.16-15.16h-44.96c-8.37,0-15.16,6.79-15.16,15.16s6.79,15.16,15.16,15.16Z" fill="#2e9084" isolation="isolate"/><path d="m260.32,325.94c0-9.33-4.13-17.69-10.63-23.39v46.78c6.51-5.71,10.63-14.06,10.63-23.39Z" fill="#2e9084" isolation="isolate"/><path d="m256.06,368.84h-6.37v35.8h6.37c9.89,0,17.9-8.01,17.9-17.9s-8.01-17.9-17.9-17.9Z" fill="#2e9084" isolation="isolate"/><path d="m254.35,256.94c8.6,0,15.56-6.97,15.56-15.56s-6.97-15.56-15.56-15.56h-4.67v31.13h4.67Z" fill="#a6b2ed" isolation="isolate"/><path d="m338.14,360.79h-25.88c-5.68,0-10.29,4.61-10.29,10.29s4.61,10.29,10.29,10.29h25.88c5.68,0,10.29-4.61,10.29-10.29s-4.61-10.29-10.29-10.29Z" fill="#a6b2ed" isolation="isolate"/><path d="m351.35,318.33h-11.08c-7.5,0-13.58,6.08-13.58,13.58s6.08,13.58,13.58,13.58h34.19c7.5,0,13.58-6.08,13.58-13.58,0-.55-.04-1.09-.11-1.62h-16.21c-8.76,0-16.38-4.83-20.37-11.96Z" fill="#a6b2ed" isolation="isolate"/><path d="m374.46,318.33h-23.1c3.99,7.13,11.62,11.96,20.37,11.96h16.21c-.8-6.74-6.53-11.96-13.48-11.96Z" fill="#a6b2ed" isolation="isolate"/><path d="m392.37,152.66h68.17c9.89,0,17.9-8.01,17.9-17.9s-8.01-17.9-17.9-17.9h-68.17c-9.89,0-17.9,8.01-17.9,17.9s8.01,17.9,17.9,17.9Z" fill="#a6b2ed" isolation="isolate"/><path d="m275.07,165.36h-6.37c-4.52,0-8.19,3.67-8.19,8.19s3.67,8.19,8.19,8.19h22.22c4.31,0,7.8-3.34,8.13-7.56h-10.63c-5.99,0-11.13-3.63-13.35-8.82Z" fill="#a6b2ed" isolation="isolate"/><path d="m290.93,165.36h-15.85c2.21,5.18,7.35,8.82,13.35,8.82h10.63c.02-.21.06-.41.06-.63,0-4.52-3.67-8.19-8.19-8.19Z" fill="#a6b2ed" isolation="isolate"/><path d="m270.18,125.59c6.11,0,11.06-4.95,11.06-11.06s-4.95-11.06-11.06-11.06h-20.49v22.11h20.49Z" fill="#a6b2ed" isolation="isolate"/><path d="m345.5,157.33h3.29c1.43,0,2.59,1.16,2.59,2.59s-1.16,2.59-2.59,2.59h-5c-1.27,6.34-6.67,11.18-13.28,11.6-.07.53-.11,1.07-.11,1.63,0,7.31,5.92,13.23,13.23,13.23h68.17c7.31,0,13.23-5.92,13.23-13.23s-5.92-13.23-13.23-13.23h-49.98c-1.43,0-2.59-1.16-2.59-2.59s1.16-2.59,2.59-2.59h5.97c3.01,0,5.45-2.44,5.45-5.45s-2.44-5.45-5.45-5.45h-22.29c-2.35,0-4.34,1.5-5.1,3.59,1.73,1.94,2.95,4.35,3.43,7.01.53.17,1.08.29,1.67.29Z" fill="#a6b2ed" isolation="isolate"/><path d="m343.84,157.05c-.49-2.67-1.7-5.07-3.43-7.01-.21.58-.34,1.2-.34,1.85,0,2.42,1.59,4.45,3.78,5.16Z" fill="#a6b2ed" isolation="isolate"/><path d="m343.8,162.52h-.16c-6.75,0-12.32,5.07-13.12,11.6,6.61-.43,12.01-5.26,13.28-11.6Z" fill="#a6b2ed" isolation="isolate"/></g><g clip-path="url(#d)"><path d="m101.93,272.06h-47.32c-8.59,0-15.55-6.96-15.55-15.55s6.96-15.55,15.55-15.55h47.32c8.59,0,15.55,6.96,15.55,15.55s-6.96,15.55-15.55,15.55Z" fill="#47cb5e"/><path d="m225.04,364.61h-42.49c-9.32,0-16.88-7.56-16.88-16.88s7.56-16.88,16.88-16.88h42.49c9.32,0,16.88,7.56,16.88,16.88s-7.56,16.88-16.88,16.88Z" fill="#fff"/><path d="m225.43,289.49h-62.81c-2.4,0-4.34-1.94-4.34-4.34s1.94-4.34,4.34-4.34h7.36c5.16,0,9.34-4.18,9.34-9.34s-4.18-9.34-9.34-9.34h-61.48c-5.16,0-9.34,4.18-9.34,9.34s4.18,9.34,9.34,9.34h27.77c2.4,0,4.34,1.94,4.34,4.34s-1.94,4.34-4.34,4.34h-4.82c-7.88,0-14.27,6.39-14.27,14.27s6.39,14.27,14.27,14.27h93.97c7.88,0,14.27-6.39,14.27-14.27s-6.39-14.27-14.27-14.27Z" fill="#fff"/></g><path d="m165.18,404.63c25.06,13.82,53.86,21.7,84.5,21.7v-21.7h-84.5Z" fill="none"/><path d="m239.7,303.76c0,7.88-6.39,14.27-14.27,14.27h-90.65c-.66,2.53-1.05,5.17-1.05,7.91,0,17.19,13.94,31.13,31.13,31.13h3.64c-1.78-2.68-2.82-5.88-2.82-9.34,0-9.32,7.56-16.88,16.88-16.88h42.49c9.32,0,16.88,7.56,16.88,16.88,0,2.61-.61,5.07-1.67,7.28,3.49-1.33,6.67-3.26,9.43-5.68v-46.78c-3.5-3.07-7.7-5.36-12.33-6.62,1.48,2.25,2.35,4.94,2.35,7.83Z" fill="#47cb5e"/><path d="m99.17,271.47c0-5.16,4.18-9.34,9.34-9.34h7.92c.68-1.74,1.06-3.63,1.06-5.62,0-8.59-6.96-15.55-15.55-15.55h-27.17c-.19,3.36-.3,6.74-.3,10.15,0,7.09.43,14.09,1.25,20.96h23.49c-.01-.2-.03-.39-.03-.6Z" fill="#47cb5e"/><path d="m119.66,182.24c0,4.26-3.45,7.72-7.72,7.72h-6.14c-11.24,0-20.35,9.11-20.35,20.35s9.11,20.35,20.35,20.35h50.42c11.24,0,20.35-9.11,20.35-20.35s-9.11-20.35-20.35-20.35h-3.99c-4.26,0-7.72-3.45-7.72-7.72s3.45-7.72,7.72-7.72h37.14c12.89,0,23.35-10.45,23.35-23.35s-10.45-23.35-23.35-23.35h-64.2c-13.44,13.57-24.67,29.33-33.12,46.69h19.9c4.26,0,7.72,3.45,7.72,7.72Z" fill="#47cb5e"/><path d="m249.68,368.84h-28.63,0c-2.67,0-4.89-1.79-5.61-4.22h-24.46c-.72,2.43-2.95,4.22-5.61,4.22h0s-65.49,0-65.49,0c12.96,14.28,28.26,26.41,45.28,35.8h84.5v-35.8Z" fill="#47cb5e"/><path d="m199.62,241.38c0,8.6,6.97,15.56,15.56,15.56h34.5v-31.13h-34.5c-8.6,0-15.56,6.97-15.56,15.56Z" fill="#fff"/><path d="m185.38,357.07h-16.89c3.03,4.55,8.19,7.54,14.06,7.54h8.44c.16-.53.27-1.08.27-1.66,0-3.25-2.63-5.88-5.88-5.88Z" fill="#fff"/><path d="m240.26,355.01c-3.44,1.31-7.16,2.06-11.06,2.06h-8.13c-3.25,0-5.88,2.63-5.88,5.88,0,.58.11,1.13.27,1.66h9.59c6.71,0,12.49-3.93,15.21-9.6Z" fill="#fff"/><path d="m221.06,357.07h8.13c3.9,0,7.62-.75,11.06-2.06,1.06-2.21,1.67-4.67,1.67-7.28,0-9.32-7.56-16.88-16.88-16.88h-42.49c-9.32,0-16.88,7.56-16.88,16.88,0,3.45,1.04,6.66,2.82,9.34h52.57Z" fill="#fff"/><path d="m221.06,357.07h-35.68c3.25,0,5.88,2.63,5.88,5.88,0,.58-.11,1.13-.27,1.66h24.46c-.16-.53-.27-1.08-.27-1.66,0-3.25,2.63-5.88,5.88-5.88Z" fill="#fff"/><path d="m229.11,114.53c0,6.11,4.95,11.06,11.06,11.06h9.51v-22.11h-9.51c-6.11,0-11.06,4.95-11.06,11.06Z" fill="#fff"/><path d="m164.86,294.81h64.33c2.83,0,5.56.41,8.16,1.12-2.55-3.88-6.94-6.44-11.93-6.44h-62.81c-2.4,0-4.34-1.94-4.34-4.34s1.94-4.34,4.34-4.34h7.36c5.16,0,9.34-4.18,9.34-9.34s-4.18-9.34-9.34-9.34h-53.56c-2.25,5.81-7.88,9.93-14.49,9.93h-2.74c.31,4.88,4.35,8.74,9.31,8.74h27.77c2.4,0,4.34,1.94,4.34,4.34s-1.94,4.34-4.34,4.34h-4.82c-7.88,0-14.27,6.39-14.27,14.27s6.39,14.27,14.27,14.27h3.32c3.5-13.36,15.62-23.22,30.08-23.22Z" fill="#fff"/><path d="m239.7,303.76c0-2.89-.87-5.58-2.35-7.83-2.61-.71-5.33-1.12-8.16-1.12h-64.33c-14.46,0-26.57,9.87-30.08,23.22h90.65c7.88,0,14.27-6.39,14.27-14.27Z" fill="#fff"/><path d="m116.42,262.13h-7.92c-5.16,0-9.34,4.18-9.34,9.34,0,.2.02.4.03.6h2.74c6.61,0,12.24-4.12,14.49-9.93Z" fill="#fff"/><circle cx="187.24" cy="7.92" r="3.46" fill="#4769ff" isolation="isolate"/><circle cx="456.17" cy="57.46" r="8.04" fill="#4769ff" isolation="isolate"/><circle cx="67.84" cy="92.48" r="5.06" fill="#4769ff" isolation="isolate"/><circle cx="486.26" cy="291.7" r="8.04" fill="#4769ff" isolation="isolate"/><circle cx="455.91" cy="387.16" r="4.28" fill="#4769ff" isolation="isolate"/><circle cx="400.39" cy="484.44" r="4.67" fill="#4769ff" isolation="isolate"/><circle cx="138.4" cy="469.13" r="4.67" fill="#4769ff" isolation="isolate"/><circle cx="14.15" cy="445.53" r="4.41" fill="#4769ff" isolation="isolate"/></g></svg>