<?xml version="1.0" encoding="UTF-8"?><svg id="a" xmlns="http://www.w3.org/2000/svg" viewBox="0 0 454.92 456.17"><g id="b"><g id="c"><g id="d"><g id="e"><g id="f"><g id="g"><path id="h" d="m387.57,16.07c-22.76-25.32-60.28,11.62,6.73,43.07,54.22-50.4,7.22-74.12-6.73-43.07Z" fill="#f14883"/></g></g><g id="i"><g id="j"><path id="k" d="m431.86,74.79c7.87-19.7-23.12-30.48-22.21,15.64,43.12,16.39,43.41-16.42,22.21-15.64Z" fill="#f14883"/></g></g><g id="l"><g id="m"><path id="n" d="m367.82,87.17c-24.27-11.55-40.41,26.75,17.97,29.35,24.23-53.18-17.22-56.21-17.97-29.35Z" fill="#f14883"/></g></g></g></g><g id="o"><path id="p" d="m420.36,10.34c-2.13-5.87-7.65-9.83-13.9-9.96-6.1-.2-14.17,3.09-19.37,12.65-8.53-8.14-18.36-8.53-24.66-5.08-6.6,3.62-9.31,10.84-7.09,18.85.26.94,1.24,1.5,2.18,1.23.94-.26,1.5-1.24,1.23-2.18h0c-1.76-6.34.3-12.01,5.38-14.79,5.52-3.03,14.5-2.28,22.11,6.19.65.73,1.77.79,2.5.13.18-.17.33-.37.43-.59,4.38-9.75,11.75-13.04,17.17-12.87,4.82.06,9.09,3.12,10.69,7.66,1.55,4.13,4.4,19.52-23.07,45.43-3.29-1.58-6.34-3.17-9.08-4.74-.85-.49-1.93-.19-2.42.66-.49.85-.19,1.93.66,2.42h0c3.12,1.79,6.63,3.6,10.42,5.38.65.31,1.43.19,1.96-.31,29.2-27.14,27.11-44.07,24.85-50.09Z"/><path id="q" d="m373.38,49.08c.78.6,1.89.45,2.49-.33.6-.78.45-1.89-.33-2.49-.02-.02-.05-.04-.07-.05-4.39-3.1-8.33-6.78-11.71-10.96-.6-.77-1.71-.91-2.49-.31s-.91,1.71-.31,2.49c3.58,4.44,7.76,8.36,12.42,11.65Z"/><path id="r" d="m446.44,80.74c-1.59-3.5-5.57-7.13-12.15-7.67,1.71-6.37-.37-11.34-3.13-14.02-2.96-2.93-7.41-3.75-11.21-2.05-3.8,1.65-12.58,8.22-12.08,33.47.01.72.47,1.37,1.14,1.62,9.2,3.5,16.21,4.71,21.5,4.71,8.28,0,12.35-2.97,14.08-4.82,2.88-3.01,3.61-7.48,1.85-11.25Zm-4.44,8.82c-1.8,1.92-9.26,7.46-30.61-.36-.18-22.73,7.56-27.9,9.97-28.94,2.48-1.14,5.41-.6,7.33,1.34,2.27,2.2,3.86,6.65,1.51,12.53-.22.56-.15,1.19.2,1.68.35.49.92.77,1.51.75,6.32-.23,9.98,2.77,11.3,5.65,1.18,2.46.69,5.4-1.22,7.35h0Z"/><path id="s" d="m388.48,71.21c-3.75-2.78-8.76-3.2-12.92-1.07-5.11,2.48-8.49,7.78-9.33,14.44-7.97-2.9-14.46-.72-18.05,2.53-3.8,3.37-5.14,8.74-3.37,13.5,1.75,4.85,9.23,16.27,40.89,17.67h.08c.69,0,1.33-.41,1.61-1.04,1.61-3.49,3.03-7.07,4.25-10.71.31-.93-.2-1.93-1.12-2.24s-1.93.2-2.24,1.12c-.96,2.9-2.18,6.01-3.62,9.26-29.32-1.57-35.36-12.06-36.52-15.28-1.3-3.41-.34-7.28,2.42-9.67,3.08-2.79,9.04-4.52,16.49-.97.88.42,1.94.05,2.36-.84.11-.22.16-.47.17-.71.18-6.5,2.99-11.69,7.52-13.89,2.97-1.54,6.56-1.26,9.26.73,4.53,3.37,6.22,10.88,4.65,20.61-.16.97.5,1.88,1.47,2.03.97.16,1.88-.5,2.03-1.47,1.79-11.07-.41-19.83-6.04-24.01Z"/></g></g><g id="t"><g id="u"><circle id="v" cx="58.11" cy="379.06" r="10.74" fill="#cfedf4"/><g id="w"><g id="x"><g id="y"><path id="z" d="m58.1,346.79c-12.23-18.78-40.4,1.43,0,28.7,40.4-27.27,12.23-47.48,0-28.7Z" fill="#f14883"/></g></g></g><g id="aa"><g id="ab"><g id="ac"><g id="ad"><path id="ae" d="m58.1,454.4c-19.62,0-35.52-15.9-35.52-35.52,0-19.62,15.9-35.52,35.52-35.52,19.62,0,35.52,15.9,35.52,35.52h0c-.02,19.61-15.91,35.5-35.52,35.52Zm0-63.09c-15.23,0-27.57,12.34-27.57,27.57s12.34,27.57,27.57,27.57c15.23,0,27.57-12.34,27.57-27.57h0c-.02-15.22-12.35-27.55-27.57-27.57Z" fill="#78cfe8"/></g></g></g></g></g><g id="af"><path id="ag" d="m66.23,451.63c-5.19,1.28-10.61,1.32-15.82.11-.95-.22-1.91.37-2.13,1.32s.37,1.91,1.32,2.13c5.75,1.34,11.75,1.3,17.48-.12.95-.25,1.51-1.22,1.26-2.17-.25-.92-1.18-1.48-2.11-1.27h0Z"/><path id="ah" d="m87.45,418.87c0-16.21-13.13-29.35-29.34-29.35-16.21,0-29.35,13.13-29.35,29.34s13.13,29.35,29.34,29.35h0c16.2-.02,29.33-13.14,29.34-29.34Zm-55.15,0c0-14.25,11.55-25.8,25.8-25.8s25.8,11.55,25.8,25.8c0,14.25-11.55,25.8-25.79,25.8-14.25-.01-25.79-11.55-25.81-25.8Z"/><path id="ai" d="m69.8,383.47c1.66-4.37.73-9.31-2.42-12.77,3.62-2.99,6.8-6.46,9.46-10.32.54-.82.31-1.92-.51-2.45-.82-.54-1.92-.31-2.45.51-2.86,4.1-6.32,7.74-10.26,10.8,0,0-.01,0-.01,0-.83.68-1.71,1.36-2.63,2.05-.92.69-1.87,1.37-2.87,2.06-.5-.35-.99-.7-1.47-1.04-1.43-1.03-2.77-2.06-4.02-3.07,0,0-.01,0-.02-.01-10.03-8.14-15.04-16.63-13.42-22.7.71-2.75,3.01-4.79,5.82-5.17,3.26-.52,8.03.89,11.62,6.4.53.82,1.63,1.05,2.45.52.21-.13.38-.31.52-.52,3.99-6.12,9.27-7.16,12.6-6.19,3.17.92,5.3,3.9,5.13,7.2,0,.97.8,1.76,1.77,1.76h.02c.98,0,1.77-.81,1.76-1.79.16-4.87-3-9.22-7.68-10.57-4.06-1.19-10.21-.3-15.08,5.63-3.72-4.47-8.79-6.72-13.66-5.95-4.2.58-7.64,3.65-8.69,7.76-.93,3.46-1.42,12.69,13.08,25.09-3.16,3.45-4.09,8.4-2.41,12.77-19.56,6.44-30.19,27.51-23.75,47.06,2.76,8.37,8.39,15.49,15.9,20.11.85.49,1.93.21,2.43-.63.48-.82.23-1.86-.56-2.38-15.88-9.75-20.85-30.53-11.1-46.41,4.51-7.35,11.67-12.69,20-14.93h.02c5.73-1.53,11.76-1.53,17.49,0h.03c17.99,4.84,28.66,23.34,23.82,41.33-2.2,8.18-7.39,15.23-14.55,19.76-.82.54-1.04,1.64-.49,2.46.53.79,1.58,1.03,2.39.53,17.4-11,22.58-34.02,11.58-51.42-4.62-7.3-11.63-12.77-19.84-15.48h0Zm-4.87-1.25c-.46-.09-.92-.16-1.39-.23-.29-.04-.58-.09-.88-.12-.49-.06-.99-.1-1.48-.15-.27-.02-.54-.05-.8-.07-.67-.04-1.34-.06-2.01-.07h-.46c-.69,0-1.38.03-2.07.07-.25.02-.51.04-.76.06-.51.04-1.03.09-1.54.15-.28.03-.56.08-.84.12-.48.07-.96.15-1.43.23-.3.06-.6.12-.9.18-.18.04-.36.07-.54.11-1.36-3.26-.68-7.01,1.73-9.58l.04.03c.77.6,1.58,1.21,2.43,1.83.17.12.34.25.52.37.83.6,1.68,1.2,2.57,1.8.29.2.64.31,1,.31h0c.35,0,.7-.1.99-.3l.08-.05c.84-.57,1.64-1.14,2.43-1.7.21-.15.42-.3.62-.45.82-.6,1.6-1.19,2.35-1.77l.07-.05c2.41,2.58,3.08,6.32,1.72,9.57-.17-.04-.35-.07-.52-.1-.31-.07-.62-.14-.93-.19h0Z"/></g></g><g id="aj"><path id="ak" d="m453.15,199.96v56.33c0,5.59-4.54,10.12-10.13,10.13h-94.6c-5.59,0-10.12-4.54-10.13-10.13v-56.33c0-5.59,4.54-10.12,10.13-10.13h94.6c5.59,0,10.12,4.54,10.13,10.13Z" fill="#ccedf4"/><path id="al" d="m449.67,192.34l-49.73,35.79-4.22,3.04-4.22-3.04-49.73-35.79c1.84-1.62,4.21-2.51,6.65-2.5h94.6c2.45,0,4.82.88,6.65,2.5Z" fill="#78cfe8"/><path id="am" d="m449.67,263.92c-1.84,1.62-4.21,2.51-6.65,2.5h-94.6c-2.45,0-4.82-.88-6.65-2.5l49.73-35.79,4.22-3.04,4.22,3.04,49.73,35.79Z" fill="#78cfe8"/><path id="an" d="m395.72,216.62c-13.17-20.22-43.49,1.54,0,30.9,43.49-29.36,13.17-51.12,0-30.9Z" fill="#f14883"/><g id="ao"><path id="ap" d="m450.84,191.01c-2.16-1.9-4.95-2.95-7.82-2.94h-6.72c-.98,0-1.77.79-1.77,1.77s.79,1.77,1.77,1.77h6.72c.28,0,.57.02.85.05.09,0,.18.02.27.04.19.03.38.06.57.09.1.02.2.04.3.07.18.04.35.09.53.15.1.03.19.06.29.09.19.07.38.15.56.23.06.03.12.05.18.08l-28.06,20.19c-.09-.16-.2-.3-.3-.45s-.18-.29-.28-.42c-.21-.3-.44-.59-.68-.86-.08-.09-.14-.18-.22-.27-.32-.35-.67-.68-1.04-.98-.09-.07-.18-.13-.27-.2-.29-.23-.59-.44-.9-.64-.05-.03-.1-.07-.15-.1-.09-.05-.19-.09-.29-.15-.28-.16-.57-.31-.87-.44-.16-.07-.32-.14-.49-.21-.32-.13-.64-.24-.98-.34-.15-.05-.3-.1-.45-.14-.5-.13-1-.23-1.51-.3-5.14-.68-10.46,1.79-14.35,6.54-3.89-4.74-9.22-7.22-14.35-6.54-.51.07-1.01.17-1.51.3-.16.04-.3.09-.45.14-.33.1-.66.21-.98.34-.17.07-.33.14-.49.21-.3.14-.58.28-.87.44-.15.08-.3.16-.44.25-.31.19-.6.41-.89.63-.09.07-.19.14-.28.21-.37.3-.71.63-1.04.98-.08.09-.15.19-.23.28-.24.27-.46.55-.67.85-.1.14-.19.29-.28.43s-.2.29-.29.45l-28.06-20.19c.05-.02.1-.04.15-.07.19-.09.39-.17.59-.24.09-.03.19-.06.28-.09.18-.06.35-.11.54-.15.1-.02.2-.05.3-.07.19-.04.38-.07.57-.1.09-.01.18-.03.27-.04.28-.03.57-.05.85-.05h6.72c.98,0,1.77-.79,1.77-1.77s-.79-1.77-1.77-1.77h-6.72c-2.88,0-5.66,1.04-7.82,2.94h0c-2.58,2.26-4.07,5.53-4.07,8.96v56.33c0,6.57,5.33,11.89,11.9,11.9h94.6c2.88,0,5.66-1.04,7.82-2.94h0c2.58-2.26,4.07-5.53,4.07-8.96v-56.34c0-3.43-1.49-6.7-4.08-8.96Zm.53,65.29c0,1.93-.68,3.8-1.91,5.29l-36.71-26.42c4.61-5.44,6.52-10.04,7.11-13.65.06-.33.1-.66.13-.97,0-.04.01-.09.01-.13.15-1.47.08-2.95-.22-4.39l29.67-21.35c1.23,1.49,1.91,3.36,1.91,5.29v56.33Zm-69.55-45.71c.37-.05.75-.07,1.12-.07h.42c.09,0,.19,0,.28.01.19.01.38.03.57.05.08,0,.16.02.23.03.21.03.43.07.64.11.06.01.11.02.17.03.25.05.5.12.76.19h.05c.85.27,1.66.62,2.43,1.05l.08.05c.23.13.45.27.67.41.06.04.12.08.17.12.19.13.38.26.57.4.07.05.14.11.21.16.17.13.34.27.51.41.08.07.16.13.24.2.16.14.31.28.47.43.08.08.17.16.25.24.15.15.3.3.44.45.08.09.16.17.24.26.14.16.28.33.42.49.08.09.16.18.23.28.15.18.29.37.43.56.06.09.13.17.19.26.2.28.4.57.6.87.53.82,1.63,1.05,2.45.52.21-.13.38-.31.52-.52,3.24-4.97,7.88-7.58,12.41-6.99.38.05.76.13,1.13.23,2.15.55,3.94,2.01,4.92,4,.16.33.3.68.42,1.03h0c.31.95.46,1.94.46,2.94,0,.4-.02.79-.06,1.19-.33,3.53-2.22,7.58-5.5,11.75-.67.84-1.39,1.69-2.17,2.54h0c-3.94,4.18-8.33,7.9-13.1,11.1-.67-.46-1.32-.92-1.96-1.38-4.03-2.85-7.77-6.11-11.15-9.72-6.22-6.8-8.87-13.52-7.26-18.42.93-2.87,3.47-4.93,6.47-5.25h0Zm-41.76,45.71v-56.33c0-1.93.68-3.8,1.91-5.29l29.67,21.35c-.02.09-.04.17-.06.26-.15.81-.23,1.62-.24,2.44-.04,3.9,1.44,9.48,7.33,16.43l-36.71,26.42c-1.23-1.49-1.91-3.36-1.91-5.29h0Zm8.36,8.36c-.28,0-.57-.02-.85-.05-.09,0-.18-.02-.27-.04-.19-.03-.38-.06-.57-.09-.1-.02-.2-.04-.3-.07-.18-.04-.35-.09-.52-.15-.1-.03-.2-.06-.29-.1-.19-.07-.37-.14-.55-.22-.06-.03-.12-.05-.18-.08l36.2-26.05c.07.07.15.14.22.22.19.2.39.39.58.59.3.3.6.6.91.9.21.2.43.41.65.61.31.29.63.58.95.87.23.21.46.42.7.62.33.29.66.58,1,.86.24.21.49.42.74.62.35.29.71.58,1.07.87.25.2.51.41.76.61.38.3.78.6,1.17.9.25.19.5.38.76.57.44.33.9.66,1.36.99.22.16.43.32.66.47.69.49,1.39.97,2.11,1.46.6.4,1.38.4,1.98,0,.72-.49,1.42-.97,2.11-1.46l.1-.07c.19-.14.37-.27.56-.41.46-.33.92-.66,1.36-.99.26-.19.51-.38.76-.58.39-.3.79-.6,1.17-.9.21-.16.41-.33.61-.49l.15-.12c.36-.29.72-.58,1.06-.86.25-.21.5-.42.75-.63.33-.28.66-.57.99-.85.24-.21.48-.42.71-.63.32-.29.63-.57.93-.86.22-.21.45-.42.67-.63.3-.29.6-.58.89-.87.2-.2.41-.41.61-.61.07-.07.14-.14.21-.21l36.2,26.05c-.05.03-.11.04-.16.07-.19.08-.38.16-.58.23-.09.03-.19.06-.28.09-.18.06-.35.11-.53.15-.1.02-.2.05-.3.07-.19.04-.38.07-.57.1-.09.01-.18.03-.27.04-.28.03-.57.05-.85.05h-94.61Z"/><path id="aq" d="m394.04,191.61h30.85c.98,0,1.77-.79,1.77-1.77s-.79-1.77-1.77-1.77h-30.85c-.98,0-1.77.79-1.77,1.77s.79,1.77,1.77,1.77Z"/><path id="ar" d="m366.55,191.61h16.08c.98,0,1.77-.79,1.77-1.77s-.79-1.77-1.77-1.77h-16.08c-.98,0-1.77.79-1.77,1.77s.79,1.77,1.77,1.77Z"/></g></g><g id="as"><g id="at"><path id="au" d="m274.51,49.57c.02,12.8-5.14,25.06-14.3,34v33.12l-19.88-21.44c-25.23,7.42-51.69-7.02-59.11-32.24-7.42-25.23,7.02-51.69,32.24-59.11,25.23-7.42,51.69,7.02,59.11,32.24,1.28,4.36,1.93,8.88,1.93,13.43Z" fill="#79cee9"/><path id="av" d="m226.91,40.92c-13.68-21.01-45.18,1.6,0,32.1,45.18-30.5,13.68-53.11,0-32.1Z" fill="#f14883"/></g><g id="aw"><path id="ax" d="m276.24,47.59c-.07-.98-.92-1.71-1.89-1.65-.95.07-1.68.87-1.65,1.82.03.6.04,1.2.04,1.8.05,12.33-4.92,24.15-13.77,32.74-.34.33-.53.79-.53,1.27v28.6l-16.8-18.13c-.46-.49-1.15-.69-1.8-.5-16.68,4.87-34.69-.09-46.53-12.81-.67-.72-1.79-.76-2.51-.09s-.76,1.79-.09,2.51c12.48,13.42,31.36,18.85,49.06,14.1l19.14,20.65c.67.72,1.79.76,2.5.1.36-.33.57-.8.57-1.3v-32.38c9.2-9.22,14.35-21.72,14.3-34.75,0-.66,0-1.31-.04-1.97Z"/><path id="ay" d="m270.98,36.93c.29.93,1.29,1.46,2.22,1.16.9-.28,1.42-1.22,1.19-2.14-1.58-5.51-4.1-10.7-7.47-15.34-.57-.79-1.68-.97-2.47-.39-.79.57-.97,1.68-.4,2.47,3.12,4.3,5.47,9.12,6.93,14.24Z"/><path id="az" d="m181.08,49.56c0-25.31,20.51-45.83,45.82-45.83,10.88,0,21.41,3.87,29.7,10.92.75.64,1.86.55,2.5-.2.64-.75.55-1.86-.2-2.5-20.78-17.66-51.94-15.13-69.6,5.65-13.34,15.69-15.53,38.01-5.51,56.01.48.85,1.56,1.16,2.41.68.85-.48,1.16-1.56.68-2.41-3.8-6.83-5.79-14.51-5.79-22.32Z"/><path id="ba" d="m242.53,31.2c-4.46-.85-10.67.57-15.62,6.71-4.94-6.14-11.17-7.55-15.62-6.71-4.72.84-8.43,4.49-9.35,9.19-.98,4.73-.59,17.52,23.98,34.11.6.4,1.38.4,1.98,0,24.57-16.59,24.95-29.38,23.98-34.11-.92-4.7-4.63-8.35-9.35-9.19Zm-15.62,39.68c-22.43-15.47-22.14-26.68-21.5-29.78.62-3.3,3.23-5.87,6.54-6.42.58-.11,1.18-.16,1.77-.16,3.6,0,8.14,1.91,11.7,7.37.53.82,1.63,1.05,2.45.52.21-.13.38-.31.52-.52,4.17-6.41,9.7-7.92,13.47-7.21,3.31.56,5.92,3.12,6.54,6.42.64,3.1.94,14.31-21.49,29.78h0Z"/></g></g><g id="bb"><g id="bc"><g id="bd"><g id="be"><rect id="bf" x="72.52" y="239.14" width="10.13" height="16.86" transform="translate(-152.33 127.37) rotate(-45)" fill="#ebe8e5"/></g><path id="bg" d="m111.8,281.79h0c-3.56,3.56-9.33,3.56-12.89,0,0,0,0,0,0,0l-25.07-25.07,12.89-12.89,25.07,25.07c3.56,3.56,3.56,9.33,0,12.89Z" fill="#f9dcb2"/></g><g id="bh"><g id="bi"><circle id="bj" cx="43.96" cy="213.95" r="42.17" fill="#79cee9"/><circle id="bk" cx="43.96" cy="213.95" r="35.08" fill="#ccedf4"/></g><g id="bl"><g id="bm"><g id="bn"><path id="bo" d="m43.96,206.44c-10.9-16.74-36.01,1.27,0,25.58,36.01-24.31,10.9-42.33,0-25.58Z" fill="#f14883"/></g></g></g></g></g><g id="bp"><path id="bq" d="m107.41,267.01c.69.69,1.81.69,2.51,0,.69-.69.69-1.81,0-2.51h0l-11.39-11.38c-.69-.69-1.81-.69-2.51,0-.69.69-.69,1.81,0,2.51l11.39,11.38Z"/><path id="br" d="m114.44,273.42c-.98.02-1.76.82-1.74,1.8.06,4.06-3.19,7.41-7.25,7.46-.03,0-.06,0-.09,0h0c-1.95,0-3.82-.77-5.2-2.15l-23.81-23.81,10.39-10.39,1.24,1.24c.69.69,1.81.69,2.51,0s.69-1.81,0-2.51h0l-2.49-2.49c-.69-.69-1.81-.69-2.51,0,0,0,0,0,0,0l-1.61,1.61-4.39-4.39c14.28-19.62,9.96-47.1-9.66-61.38-17.49-12.73-41.64-10.84-56.94,4.46-.31.31-.6.62-.9.93-.67.72-.63,1.84.09,2.5s1.84.63,2.5-.09c.27-.29.54-.57.82-.85,15.8-15.75,41.38-15.71,57.13.09,14.4,14.44,15.77,37.35,3.21,53.41-2,2.55-4.3,4.86-6.86,6.85-17.56,13.76-42.95,10.69-56.72-6.87-9.83-12.54-11.37-29.68-3.94-43.77.46-.87.13-1.94-.74-2.4s-1.94-.12-2.4.74c-11.33,21.46-3.12,48.04,18.34,59.37,14.83,7.83,32.82,6.53,46.38-3.34l4.38,4.38-1.61,1.61c-.69.69-.69,1.81,0,2.51l25.07,25.07c2.04,2.05,4.81,3.2,7.7,3.19h0c6.02,0,10.89-4.9,10.88-10.92,0-.05,0-.1,0-.15,0-.96-.78-1.74-1.75-1.74-.02,0-.03,0-.05,0Zm-41.52-26.44c.12-.11.24-.22.36-.33.59-.53,1.18-1.07,1.75-1.64s1.11-1.15,1.64-1.74c.11-.12.22-.24.33-.37.09-.1.18-.2.27-.3l4.09,4.09-4.65,4.65-4.09-4.09c.1-.09.2-.18.3-.27Z"/><path id="bs" d="m17.9,240c14.39,14.41,37.74,14.43,52.15.04,14.41-14.39,14.43-37.74.04-52.15-14.39-14.41-37.74-14.43-52.15-.04-6.93,6.92-10.82,16.31-10.82,26.1-.03,9.78,3.85,19.16,10.78,26.06Zm2.51-49.61c13.16-12.85,34.25-12.61,47.1.55,12.64,12.94,12.64,33.61,0,46.55h0c-13.16,12.85-34.25,12.61-47.1-.55-12.64-12.94-12.64-33.61,0-46.55Z"/><path id="bt" d="m42.97,233.5c.6.41,1.38.41,1.98,0,19.76-13.34,20.05-23.71,19.26-27.55-.76-3.89-3.84-6.91-7.74-7.61-3.57-.67-8.52.41-12.51,5.13-3.99-4.72-8.95-5.81-12.51-5.13-3.9.69-6.98,3.72-7.74,7.61-.79,3.84-.5,14.21,19.26,27.55Zm-15.79-26.84c.46-2.49,2.43-4.42,4.93-4.84.44-.08.89-.12,1.35-.12,2.77,0,6.27,1.48,9.02,5.71.53.82,1.63,1.05,2.45.52.21-.13.38-.31.52-.52,3.23-4.96,7.47-6.14,10.37-5.59,2.49.42,4.46,2.35,4.93,4.84.5,2.41.71,11.09-16.78,23.22-17.49-12.13-17.28-20.81-16.78-23.22Z"/></g></g><g id="bu"><g id="bv"><path id="bw" d="m395.71,402.26s.05-16.44-26.77-10.77c0,0,8.56,22.93,26.77,10.77Z" fill="#ceecf4"/><path id="bx" d="m395.73,402.26s-.05-16.44,26.77-10.77c0,0-8.56,22.93-26.77,10.77Z" fill="#ceecf4"/><g id="by"><g id="bz"><g id="ca"><g id="cb"><g id="cc"><path id="cd" d="m395.71,404.03c-.18,0-.36-.03-.53-.08l-10.08-3.17c-.93-.29-1.45-1.29-1.16-2.22.29-.93,1.29-1.45,2.22-1.16h0l10.08,3.17c.93.29,1.45,1.29,1.16,2.22-.23.74-.92,1.24-1.69,1.24Z" fill="#b4d6db"/></g></g></g><g id="ce"><g id="cf"><g id="cg"><path id="ch" d="m395.73,404.03c-.98,0-1.77-.8-1.77-1.78,0-.77.5-1.46,1.24-1.69l10.08-3.17c.93-.29,1.93.23,2.22,1.16.29.93-.23,1.93-1.16,2.22l-10.08,3.17c-.17.05-.35.08-.53.08Z" fill="#b4d6db"/></g></g></g></g></g><g id="ci"><rect id="cj" x="393.93" y="378.55" width="3.55" height="59.67" fill="#79cee2"/></g><path id="ck" d="m395.73,350.28c-13.17-20.22-43.5,1.54,0,30.9,43.49-29.36,13.17-51.12,0-30.9Z" fill="#f14883"/><path id="cl" d="m409.62,450.61h-27.78l-5.31-24.46h38.4l-5.31,24.46Z" fill="#79cee2"/><g id="cm"><g id="cn"><g id="co"><rect id="cp" x="372.94" y="419.06" width="45.58" height="7.09" fill="#cfedf4"/></g></g></g></g><g id="cq"><path id="cr" d="m387.09,345c2.97,1.3,5.47,3.48,7.15,6.25.33.5.89.8,1.48.8h0c.6,0,1.16-.3,1.48-.81,1.72-2.84,4.3-5.06,7.38-6.34.92-.34,1.39-1.36,1.05-2.28-.34-.92-1.36-1.39-2.28-1.05,0,0-.02,0-.03.01-2.99,1.19-5.62,3.15-7.61,5.68-1.93-2.45-4.45-4.36-7.32-5.57-.91-.35-1.94.1-2.29,1.01-.35.9.09,1.91.98,2.28h0Z"/><path id="cs" d="m405.91,407.59c1.53,0,3.06-.24,4.52-.71,9.24-2.98,13.56-14.29,13.74-14.77.34-.92-.12-1.94-1.04-2.28-.08-.03-.17-.06-.26-.07-10.85-2.29-18.9-1.37-23.94,2.72-.52.42-1,.88-1.45,1.37v-11.72c19.05-13.09,22.35-23.7,22.6-28.89.32-3.78-1.2-7.49-4.08-9.96-.77-.61-1.88-.48-2.49.29-.59.74-.49,1.82.23,2.44,2.01,1.76,3.05,4.39,2.8,7.05-.37,7.63-7.93,17.06-20.81,25.96-12.99-8.98-20.56-18.46-20.82-26.12-.22-2.69.89-5.32,2.97-7.04.76-.62.86-1.74.24-2.5-.6-.73-1.67-.86-2.43-.3-2.99,2.41-4.6,6.12-4.33,9.95.18,5.22,3.38,15.87,22.57,29.06v11.73c-.44-.49-.92-.94-1.43-1.35-5.03-4.09-13.09-5.01-23.94-2.72-.96.2-1.57,1.14-1.37,2.1.02.09.04.17.07.25.18.48,4.49,11.78,13.74,14.77,1.46.47,2.98.71,4.52.71,2.94-.06,5.82-.82,8.41-2.23v11.93h-21c-.98,0-1.77.79-1.77,1.77v7.09c0,.98.79,1.77,1.77,1.77h2.16l5.01,23.06c.18.82.9,1.4,1.73,1.4h27.78c.83,0,1.56-.58,1.73-1.4l5.01-23.06h2.16c.98,0,1.77-.79,1.77-1.77v-7.09c0-.98-.79-1.77-1.77-1.77h-3.21c-.98,0-1.77.79-1.77,1.77s.79,1.77,1.77,1.77h1.44v3.55h-42.03v-3.55h29.19c.98,0,1.77-.79,1.77-1.77s-.79-1.77-1.77-1.77h-6.42v-11.94c2.59,1.41,5.48,2.18,8.43,2.24Zm2.28,41.25h-24.91l-4.54-20.92h34l-4.55,20.92Zm-6.97-53.66c3.8-3.05,10.25-3.86,18.75-2.38-1.53,3.07-5.08,8.9-10.64,10.7-3.03.89-6.29.61-9.12-.79l6.14-1.93c.93-.29,1.45-1.29,1.16-2.22-.29-.93-1.29-1.45-2.22-1.16l-7.25,2.28c.62-1.77,1.72-3.33,3.19-4.5h0Zm-19.1,8.33c-5.54-1.78-9.1-7.63-10.64-10.7,8.5-1.48,14.95-.67,18.75,2.38,1.47,1.17,2.57,2.73,3.19,4.5l-7.25-2.28c-.93-.29-1.93.23-2.22,1.16-.29.93.23,1.93,1.16,2.22l6.14,1.93c-2.83,1.4-6.09,1.68-9.12.79h0Z"/></g></g><g id="ct"><g id="cu"><g id="cv"><g id="cw"><path id="cx" d="m278.66,197.13v72.2c0,5.59-4.54,10.12-10.13,10.12h-83.24c-5.59,0-10.13-4.53-10.13-10.12h0v-72.2c0-5.59,4.53-10.13,10.12-10.13h83.24c5.59,0,10.13,4.54,10.13,10.13Z" fill="#ceecf4"/><g id="cy"><g id="cz"><path id="da" d="m278.66,197.13v10.13h-103.49v-10.13c0-5.59,4.53-10.13,10.12-10.13h83.24c5.59,0,10.12,4.54,10.13,10.13Z" fill="#ee4983"/></g></g></g><g id="db"><g id="dc"><g id="dd"><path id="de" d="m226.91,232.42c-15.08-23.16-49.8,1.76,0,35.38,49.8-33.62,15.08-58.54,0-35.38Z" fill="#f14883"/></g></g></g></g><g id="df"><g id="dg"><path id="dh" d="m193.57,197.18c-2.8,0-5.06-2.27-5.06-5.06h0v-10.24c0-2.8,2.27-5.06,5.07-5.06,2.79,0,5.05,2.27,5.06,5.06v10.24c0,2.8-2.27,5.06-5.06,5.06Z" fill="#ceecf4"/></g><g id="di"><path id="dj" d="m217.35,197.18c-2.8,0-5.06-2.27-5.06-5.06h0v-10.24c0-2.8,2.27-5.06,5.07-5.06,2.79,0,5.05,2.27,5.06,5.06v10.24c0,2.8-2.27,5.06-5.06,5.06Z" fill="#ceecf4"/></g><g id="dk"><path id="dl" d="m241.14,197.18c-2.8,0-5.06-2.27-5.06-5.06h0v-10.24c0-2.8,2.27-5.06,5.07-5.06,2.79,0,5.05,2.27,5.06,5.06v10.24c0,2.8-2.27,5.06-5.06,5.06Z" fill="#ceecf4"/></g><g id="dm"><path id="dn" d="m264.92,197.18c-2.8,0-5.06-2.27-5.06-5.06v-10.24c0-2.8,2.27-5.06,5.06-5.06s5.06,2.27,5.06,5.06h0v10.24c0,2.8-2.27,5.06-5.06,5.06h0Z" fill="#ceecf4"/></g></g></g><g id="do"><path id="dp" d="m216.12,277.67h-16.09c-.98,0-1.77.79-1.77,1.77s.79,1.77,1.77,1.77h16.08c.98,0,1.77-.79,1.77-1.77s-.79-1.77-1.77-1.77h0Z"/><path id="dq" d="m258.38,277.67h-30.85c-.98,0-1.77.79-1.77,1.77s.79,1.77,1.77,1.77h30.85c.98,0,1.77-.79,1.77-1.77s-.79-1.77-1.77-1.77h0Z"/><path id="dr" d="m271.76,185.68v-3.81c.05-3.78-2.98-6.87-6.75-6.92s-6.87,2.98-6.92,6.75c0,.06,0,.11,0,.17v3.34h-10.11v-3.34c-.05-3.78-3.14-6.8-6.92-6.75-3.71.05-6.71,3.04-6.75,6.75v3.34h-10.11v-3.34c-.05-3.78-3.14-6.8-6.92-6.75-3.71.05-6.71,3.04-6.75,6.75v3.34h-10.12v-3.34c-.05-3.78-3.14-6.8-6.92-6.75-3.71.05-6.71,3.04-6.75,6.75v3.34h-1.44c-6.57,0-11.89,5.33-11.9,11.9v72.2c0,6.57,5.33,11.89,11.9,11.9h3.34c.98,0,1.77-.79,1.77-1.77s-.79-1.77-1.77-1.77h-3.34c-4.61,0-8.35-3.74-8.36-8.36v-60.3h99.95v60.29c0,4.21-3.14,7.76-7.32,8.29-.97.15-1.64,1.05-1.49,2.02.14.93.99,1.59,1.92,1.5,5.95-.75,10.42-5.81,10.43-11.81v-72.2c-.03-5.32-3.56-9.98-8.67-11.43Zm-10.13-3.81c0-1.82,1.47-3.3,3.28-3.3s3.3,1.47,3.3,3.28h0v10.25c0,1.82-1.47,3.3-3.28,3.3s-3.3-1.47-3.3-3.28h0v-10.25Zm-23.78,0c-.03-1.82,1.42-3.32,3.23-3.35,1.82-.03,3.32,1.42,3.35,3.23,0,.04,0,.08,0,.11v10.24c.03,1.82-1.42,3.32-3.23,3.35-1.82.03-3.32-1.42-3.35-3.23,0-.04,0-.08,0-.11v-10.24Zm-23.78,0c0-1.82,1.47-3.3,3.28-3.3s3.3,1.47,3.3,3.28h0v10.25c0,1.82-1.47,3.3-3.28,3.3s-3.3-1.47-3.3-3.28h0v-10.25Zm-23.79,0c-.03-1.82,1.42-3.32,3.23-3.35,1.82-.03,3.32,1.42,3.35,3.23,0,.04,0,.08,0,.11v10.24c.03,1.82-1.42,3.32-3.23,3.35-1.82.03-3.32-1.42-3.35-3.23,0-.04,0-.08,0-.11v-10.24Zm-13.34,23.6v-8.36c0-4.61,3.74-8.35,8.36-8.36h1.44v3.35c-.05,3.78,2.98,6.87,6.75,6.92s6.87-2.98,6.92-6.75c0-.06,0-.11,0-.17v-3.35h10.12v3.35c-.05,3.78,2.98,6.87,6.75,6.92s6.87-2.98,6.92-6.75c0-.06,0-.11,0-.17v-3.35h10.11v3.35c-.05,3.78,2.98,6.87,6.75,6.92s6.87-2.98,6.92-6.75c0-.06,0-.11,0-.17v-3.35h10.11v3.35c-.05,3.78,2.98,6.87,6.75,6.92s6.87-2.98,6.92-6.75c0-.06,0-.11,0-.17v-2.7c3.09,1.31,5.11,4.34,5.12,7.7v8.36h-99.95Z"/><path id="ds" d="m225.92,269.27c.6.4,1.38.4,1.98,0,26.99-18.22,27.42-32.23,26.35-37.4-1-5.11-5.04-9.08-10.16-9.99-4.89-.92-11.76.66-17.18,7.51-5.42-6.85-12.29-8.43-17.18-7.51-5.13.91-9.16,4.88-10.16,9.99-1.07,5.17-.64,19.18,26.35,37.4Zm-22.88-36.69c.69-3.71,3.63-6.59,7.35-7.22.65-.12,1.32-.18,1.98-.18,4.02,0,9.09,2.12,13.05,8.21.53.82,1.63,1.05,2.45.52.21-.13.38-.31.52-.52,4.65-7.13,10.81-8.82,15.03-8.03,3.72.63,6.66,3.51,7.35,7.22.71,3.45,1.05,15.92-23.87,33.07-24.92-17.15-24.58-29.62-23.87-33.07Z"/></g></g><g id="dt"><g id="du"><g id="dv"><g id="dw"><g id="dx"><g id="dy"><path id="dz" d="m83.6,68.81h-51.01c-2.8,0-5.06-2.27-5.06-5.06h0v-31.4C27.53,15.46,41.21,1.77,58.1,1.77s30.57,13.69,30.57,30.57v31.4c0,2.8-2.27,5.06-5.06,5.06h0Zm-45.94-10.13h40.88v-26.33c0-11.29-9.15-20.44-20.44-20.44s-20.44,9.15-20.44,20.44v26.33Z" fill="#ceecf4"/></g></g></g></g><path id="ea" d="m58.1,55.85c-26.01-39.94-85.9,3.04,0,61.04,85.9-58,26.01-100.98,0-61.04Z" fill="#f14883"/><path id="eb" d="m65.92,74.49c0,2.95-1.66,5.64-4.28,6.98v13.23c0,1.96-1.59,3.54-3.55,3.54-1.96,0-3.54-1.59-3.54-3.54v-13.23c-3.85-1.96-5.39-6.67-3.43-10.52,1.96-3.85,6.67-5.39,10.52-3.43,2.63,1.33,4.28,4.03,4.28,6.98h0Z" fill="#ceecf4"/></g><g id="ec"><path id="ed" d="m86.47,90.52c-3.52,3.97-7.31,7.69-11.33,11.16-.74.64-.82,1.76-.18,2.5s1.76.82,2.5.18c4.14-3.57,8.03-7.41,11.66-11.49.63-.75.53-1.87-.23-2.5-.72-.6-1.79-.54-2.43.15h0Z"/><path id="ee" d="m103.02,51.77c-2.15-5.72-6.78-10.16-12.59-12.06v-7.36C90.44,14.48,75.97,0,58.11,0c-12.55,0-23.97,7.26-29.29,18.62-.39.9.02,1.94.91,2.34.86.38,1.87.01,2.3-.83C38.77,5.73,55.9-.48,70.31,6.26c10.12,4.74,16.59,14.91,16.59,26.08v6.48c-.06,0-.12-.01-.18-.02-.37-.06-.74-.1-1.12-.14-.13-.01-.25-.03-.38-.04-.5-.04-1.01-.07-1.52-.08h-.36c-.39,0-.79,0-1.18.01-.18,0-.36.02-.55.03-.34.02-.67.04-1.01.08-.1,0-.19.01-.29.02v-6.34c.08-12.27-9.8-22.28-22.06-22.36s-22.28,9.8-22.36,22.06c0,.1,0,.2,0,.3v6.34c-.09,0-.19-.01-.28-.02-.34-.03-.68-.06-1.02-.08-.18-.01-.37-.02-.55-.03-.39-.01-.77-.02-1.16-.01h-.38c-.51.01-1.01.04-1.51.08-.13.01-.25.03-.38.04-.38.04-.76.08-1.13.14-.06,0-.12.01-.17.02v-6.48c0-.67.02-1.27.07-1.84.08-.98-.65-1.83-1.63-1.91-.98-.08-1.83.65-1.91,1.63-.05.66-.08,1.35-.08,2.11v7.36c-7.3,2.41-12.61,8.73-13.72,16.33-1.44,8.61.06,31.93,45.08,62.32.6.4,1.38.4,1.98,0,3.22-2.17,6.39-4.44,9.44-6.74.78-.6.92-1.71.32-2.49-.59-.76-1.68-.92-2.46-.34-2.68,2.03-5.46,4.03-8.29,5.96C28.68,94.64,12.78,72.96,15.52,56.61c.98-6.72,5.89-12.19,12.46-13.89.36-.1.73-.18,1.11-.26,2.72-.53,5.51-.52,8.23.02h0c7.37,1.46,14.22,6.55,19.29,14.33.53.82,1.63,1.05,2.45.52.21-.13.38-.31.52-.52,5.07-7.78,11.92-12.87,19.29-14.33.79-.15,1.59-.27,2.39-.34,2.33-.21,4.67-.02,6.94.57,5.28,1.36,9.57,5.2,11.5,10.3,2.95,7.8.67,17.98-6.41,28.68-.54.82-.32,1.92.5,2.46.82.54,1.92.32,2.46-.5,7.74-11.68,10.14-23.01,6.78-31.9Zm-44.93.97c-5.09-6.92-11.61-11.6-18.67-13.4v-6.99c-.08-10.31,8.22-18.73,18.53-18.8,10.31-.08,18.73,8.22,18.8,18.53,0,.09,0,.18,0,.27v6.99c-7.06,1.8-13.58,6.49-18.67,13.4Z"/><path id="ef" d="m58.1,100.01c2.93,0,5.31-2.38,5.32-5.32v-12.21c2.68-1.77,4.29-4.78,4.29-7.99,0-.65-.07-1.31-.2-1.95-.53-2.53-2.05-4.74-4.23-6.14-.02-.02-.05-.03-.07-.04-.23-.15-.47-.29-.71-.41-.16-.08-.32-.15-.49-.22-.11-.05-.22-.11-.34-.15-.25-.1-.51-.19-.77-.26-.03,0-.06-.02-.09-.03-.88-.26-1.8-.39-2.72-.39-5.3,0-9.6,4.3-9.6,9.6h0c0,3.21,1.6,6.22,4.28,7.99v12.21c0,2.94,2.38,5.32,5.32,5.32Zm-4.16-29.92c2.33-2.22,6-2.22,8.33,0h0c2.43,2.3,2.53,6.13.23,8.56-.48.51-1.04.92-1.66,1.24-.59.3-.97.91-.97,1.58v13.23c0,.98-.79,1.77-1.77,1.77s-1.77-.79-1.77-1.77v-13.23c0-.67-.37-1.28-.97-1.58-2.98-1.51-4.17-5.16-2.66-8.14.31-.62.73-1.18,1.24-1.66h0Z"/></g></g><g id="eg"><rect id="eh" x="189.83" y="339.51" width="74.17" height="114.85" rx="10.13" ry="10.13" fill="#78cfea"/><rect id="ei" x="196.92" y="353.69" width="59.99" height="78.69" fill="#ccedf4"/><circle id="ej" cx="226.94" cy="444.17" r="4.14" fill="#e8f3f9"/><g id="ek"><g id="el"><path id="em" d="m232.44,348.02h-11.05c-.98,0-1.77-.79-1.77-1.77s.79-1.77,1.77-1.77h11.05c.98,0,1.77.79,1.77,1.77s-.79,1.77-1.77,1.77Z" fill="#e8f3f9"/></g></g><path id="en" d="m226.91,383.34c-11.09-17.03-36.63,1.3,0,26.02,36.63-24.73,11.09-43.06,0-26.02Z" fill="#f14883"/><g id="eo"><path id="ep" d="m253.87,337.73h-53.91c-6.57,0-11.89,5.33-11.9,11.9v94.6c0,6.57,5.33,11.89,11.9,11.9h53.91c6.57,0,11.89-5.33,11.9-11.9v-6.72c0-.98-.79-1.77-1.77-1.77s-1.77.79-1.77,1.77v6.72c0,4.61-3.74,8.35-8.36,8.36h-53.91c-4.61,0-8.35-3.74-8.36-8.36v-94.6c0-4.61,3.74-8.35,8.36-8.36h53.91c4.61,0,8.35,3.74,8.36,8.36v6.72c0,.98.79,1.77,1.77,1.77s1.77-.79,1.77-1.77v-6.73c0-6.57-5.33-11.89-11.9-11.9Z"/><path id="eq" d="m264,393.48c-.98,0-1.77.79-1.77,1.77v30.85c0,.98.79,1.77,1.77,1.77s1.77-.79,1.77-1.77h0v-30.85c0-.98-.79-1.77-1.77-1.77Z"/><path id="er" d="m264,365.99c-.98,0-1.77.79-1.77,1.77v16.08c0,.98.79,1.77,1.77,1.77s1.77-.79,1.77-1.77h0v-16.08c0-.98-.79-1.77-1.77-1.77h0Z"/><path id="es" d="m258.68,432.38v-78.7c0-.98-.79-1.77-1.77-1.77h-59.99c-.98,0-1.77.79-1.77,1.77v78.7c0,.98.79,1.77,1.77,1.77h59.99c.98,0,1.77-.79,1.77-1.77Zm-3.54-1.77h-56.44v-75.15h56.44v75.15Z"/><path id="et" d="m221.02,444.17c0,3.27,2.65,5.92,5.92,5.92s5.92-2.65,5.92-5.92c0-3.27-2.65-5.92-5.92-5.92-3.27,0-5.91,2.65-5.92,5.92Zm8.29,0c0,1.31-1.06,2.37-2.37,2.37-1.31,0-2.37-1.06-2.37-2.37s1.06-2.37,2.37-2.37h0c1.31,0,2.37,1.06,2.37,2.37Z"/><path id="eu" d="m232.44,348.02c.98,0,1.77-.79,1.77-1.77s-.79-1.77-1.77-1.77h-11.05c-.98,0-1.77.79-1.77,1.77s.79,1.77,1.77,1.77h11.05Z"/><path id="ev" d="m225.92,410.83c.6.4,1.38.4,1.98,0,20.09-13.56,20.38-24.1,19.58-28-.77-3.95-3.89-7.01-7.85-7.71-3.62-.69-8.66.42-12.72,5.24-4.06-4.82-9.1-5.93-12.72-5.24-3.96.7-7.08,3.77-7.85,7.71-.8,3.91-.5,14.44,19.58,28Zm-16.11-27.28c.47-2.54,2.49-4.52,5.03-4.95.45-.08.91-.13,1.37-.13,2.82,0,6.39,1.51,9.2,5.82.53.82,1.63,1.05,2.45.52.21-.13.38-.31.52-.52,3.29-5.05,7.62-6.26,10.58-5.7,2.55.43,4.56,2.4,5.03,4.95.51,2.45.73,11.31-17.1,23.66-17.82-12.35-17.6-21.21-17.09-23.66h0Z"/></g></g></g></svg>