<?xml version="1.0" encoding="utf-8"?>
<!-- Generator: Adobe Illustrator 27.4.1, SVG Export Plug-In . SVG Version: 6.00 Build 0)  -->
<svg version="1.1" id="a" xmlns="http://www.w3.org/2000/svg" xmlns:xlink="http://www.w3.org/1999/xlink" x="0px" y="0px"
	 viewBox="0 0 500 500" style="enable-background:new 0 0 500 500;" xml:space="preserve">
<style type="text/css">
	.st0{fill:#091947;}
	.st1{clip-path:url(#SVGID_00000158004351208204035330000014694623120238448817_);}
	.st2{fill:#1523A1;}
	.st3{fill:#1F55E9;}
	.st4{fill:none;stroke:#1F92D7;stroke-width:7.074;stroke-linecap:round;stroke-miterlimit:10;}
	.st5{fill:#FF4019;}
	.st6{fill:#E936FD;}
	.st7{fill:#BA00EA;}
	.st8{fill:#FF2E77;}
	.st9{fill:#7100C7;}
	.st10{fill:#F9D66A;}
	.st11{fill:#FF3A31;}
	.st12{fill:#DC005E;}
	.st13{fill:#FF8639;}
	
		.st14{fill:none;stroke:url(#SVGID_00000021842362926807180000000005300593219324647837_);stroke-width:9.072;stroke-linecap:round;stroke-miterlimit:10;}
	
		.st15{fill:none;stroke:url(#SVGID_00000056398551221551000200000000899694367147897016_);stroke-width:9.072;stroke-linecap:round;stroke-miterlimit:10;}
	
		.st16{fill:none;stroke:url(#SVGID_00000048471145985384892430000000385444600628860332_);stroke-width:9.072;stroke-linecap:round;stroke-miterlimit:10;}
	
		.st17{fill:none;stroke:url(#SVGID_00000069377358469934749110000016588228484658467245_);stroke-width:9.072;stroke-linecap:round;stroke-miterlimit:10;}
	.st18{fill:#00E159;}
	.st19{fill:#FF4E57;}
	.st20{fill:#006EFD;}
	.st21{fill:#FFDB00;}
	.st22{fill-rule:evenodd;clip-rule:evenodd;fill:#228AD7;}
	.st23{fill:#48CA5E;}
	.st24{fill:#FFFFFF;}
	.st25{fill:#228AD7;}
	.st26{fill:#004BB2;}
	.st27{fill:#006D57;}
	.st28{fill:#28EBDB;}
	.st29{fill:#0E52FF;}
	.st30{fill:none;stroke:#B9FDF6;stroke-width:4.527;stroke-linecap:round;stroke-miterlimit:10;}
	.st31{fill:#B9FDF6;}
	.st32{fill:#2E2B4F;}
	.st33{fill:none;stroke:#FFFFFF;stroke-width:4.527;stroke-linecap:round;stroke-miterlimit:10;}
	.st34{fill:none;stroke:#FFFFFF;stroke-width:3.906;stroke-linecap:round;stroke-miterlimit:10;}
	.st35{fill:none;stroke:#FFFFFF;stroke-width:3.375;stroke-linecap:round;stroke-miterlimit:10;}
	.st36{fill:#33178A;}
	.st37{fill:#210D62;}
	.st38{fill:none;stroke:#0080EB;stroke-width:5.436;stroke-linecap:round;stroke-linejoin:round;}
	.st39{fill:#8D54E3;stroke:#8D54E3;stroke-width:4.482;stroke-linecap:round;stroke-linejoin:round;}
	.st40{fill:none;stroke:#DECAFB;stroke-width:4.482;stroke-linecap:round;stroke-linejoin:round;}
	.st41{fill:#DECAFB;stroke:#DECAFB;stroke-width:4.482;stroke-linecap:round;stroke-linejoin:round;}
	.st42{fill:#E6D8FA;stroke:#E6D8FA;stroke-width:4.482;stroke-linecap:round;stroke-linejoin:round;}
	
		.st43{opacity:0.25;fill:#8D54E3;stroke:#8D54E3;stroke-width:4.482;stroke-linecap:round;stroke-linejoin:round;enable-background:new    ;}
	.st44{fill:#FFFFFF;stroke:#FFFFFF;stroke-width:4.482;stroke-linecap:round;stroke-linejoin:round;}
	.st45{fill:#A300F6;}
	.st46{fill:none;stroke:#8700D1;stroke-width:5.436;stroke-miterlimit:10;}
	.st47{fill:none;stroke:#352A61;stroke-width:4.698;stroke-linecap:round;stroke-linejoin:round;}
	.st48{fill:#D700AB;stroke:#D700AB;stroke-width:4.419;stroke-linecap:round;stroke-linejoin:round;}
	.st49{fill:none;stroke:#F600E4;stroke-width:4.419;stroke-linecap:round;stroke-linejoin:round;}
	.st50{fill:none;stroke:#8700D1;stroke-width:4.419;stroke-linecap:round;stroke-linejoin:round;}
	.st51{fill:#8700D1;}
	.st52{fill:#352A61;}
	.st53{fill:none;stroke:#D700AB;stroke-width:9.639;stroke-linecap:round;stroke-linejoin:round;}
	.st54{fill:none;stroke:#F600E4;stroke-width:6.273;stroke-linecap:round;stroke-linejoin:round;}
	.st55{fill:#FF7900;}
	.st56{fill:#1C63FF;}
	.st57{fill:none;stroke:#434CCE;stroke-width:4.698;stroke-linecap:round;stroke-linejoin:round;}
</style>
<rect class="st0" width="500" height="500"/>
<circle cx="367" cy="133" r="108"/>
<g>
	<defs>
		<circle id="SVGID_1_" cx="367" cy="133" r="108"/>
	</defs>
	<clipPath id="SVGID_00000136398921364123849440000015096199596571035052_">
		<use xlink:href="#SVGID_1_"  style="overflow:visible;"/>
	</clipPath>
	<g style="clip-path:url(#SVGID_00000136398921364123849440000015096199596571035052_);">
		<path class="st2" d="M376.7,79.6L376.7,79.6c-2.9-10-13.4-15.7-23.4-12.7l0,0c-1.7,0.5-2.6,2.2-2.1,3.9l0,0
			c2.9,10,13.4,15.7,23.4,12.7l0,0C376.2,83,377.1,81.3,376.7,79.6z"/>
		<path class="st2" d="M401.1,103L401.1,103c-2.3-10.1-12.5-16.4-22.5-14.1l0,0c-1.7,0.4-2.7,2.1-2.3,3.8l0,0
			c2.3,10.1,12.5,16.4,22.5,14.1l0,0C400.5,106.3,401.5,104.6,401.1,103z"/>
		<path class="st3" d="M334.4,140.4L334.4,140.4c-4.8-8.7-15.7-11.8-24.4-7l0,0c-1.4,0.8-1.9,2.6-1.2,4l0,0
			c4.8,8.7,15.7,11.8,24.4,7l0,0C334.7,143.6,335.2,141.8,334.4,140.4z"/>
		<path class="st2" d="M339.9,125.2L339.9,125.2c0.8-9.9-6.6-18.6-16.5-19.3l0,0c-1.7-0.1-3.1,1-3.2,2.7l0,0
			c-0.8,9.9,6.6,18.6,16.5,19.3l0,0C338.3,128.1,339.7,126.9,339.9,125.2z"/>
		<path class="st2" d="M374.5,127.5L374.5,127.5c4.3,11,16.9,16.6,27.9,12.2l0,0c1.8-0.6,2.7-2.7,2.1-4.5l0,0
			c-4.3-11-16.9-16.6-27.9-12.2l0,0C374.8,123.6,373.9,125.6,374.5,127.5z"/>
		<path class="st4" d="M326.9,131.3c0-11.6,30.4-4.2,61.1-8.3c0,0,25.1-19.3,3.1-34.9c-12.6-9-19.9-13.2-17.8-25.8"/>
		<path class="st3" d="M396.3,90.3L396.3,90.3c8.3-6.2,10-17.9,3.9-26.2l0,0c-1-1.4-3-1.7-4.3-0.6l0,0c-8.3,6.2-10,17.9-3.9,26.2
			l0,0C393,90.9,394.9,91.3,396.3,90.3z"/>
		<path class="st3" d="M399.5,116.3L399.5,116.3c10,2.9,20.4-2.9,23.2-12.9l0,0c0.5-1.7-0.5-3.4-2.1-3.8l0,0
			c-10-2.9-20.4,2.9-23.2,12.9l0,0C396.9,114,397.8,115.7,399.5,116.3z"/>
		<path class="st5" d="M402.8,157.9c-1.7,5.8-4,11.2-6.9,16.2c-2.9,5.1-6.1,9.9-10.1,14.4c-1,1.2-2.1,2.3-3.5,3.6
			c-0.1,0.1-0.4,0.4-0.6,0.5c-0.3,0.1-0.4,0.4-0.8,0.5l-0.4,0.3l-0.5,0.4l-0.3,0.1l-0.1,0.1l-0.3,0.1c-0.4,0.1-0.6,0.4-1,0.5
			c-1,0.4-1.8,0.8-2.7,1c-3.2,1-6,1.7-8.7,2.5c-5.5,1.3-10.6,2.3-15.7,3.5c-10.3,2.3-20.1,4.8-29.6,7.9c-9.3,3.1-18.3,7-25.7,11.8
			c-7,4.5-16.5,2.6-21-4.4c-4.5-7-2.6-16.5,4.4-21c0.5-0.4,1.2-0.6,1.7-0.9l0.3-0.1c11.3-5.3,22.6-8.4,33.6-10.6
			c11-2.2,22.1-3.4,32.7-4.4c5.3-0.5,10.6-0.9,15.7-1.4c2.5-0.3,4.9-0.5,6.9-0.9c0.5-0.1,0.9-0.1,1.2-0.3c-0.3,0.1-0.4,0.1-0.6,0.3
			l-0.1,0.1h-0.1l-0.1,0.1h0.1c0,0,0.1,0,0.1-0.1c0.6-0.4,1.6-1,2.3-1.8c3.4-3,6.8-6.6,9.7-10.4s5.5-7.9,7.4-12.1l0.1-0.1
			c1.6-3.4,5.5-4.9,9-3.4C402.2,151.3,403.7,154.7,402.8,157.9L402.8,157.9z"/>
		<rect x="330.4" y="103.8" class="st6" width="28.8" height="74.1"/>
		<polygon class="st7" points="330.5,174.5 359.3,174.5 359.3,140.1 330.5,156.1 		"/>
		<polygon class="st8" points="349.1,81.6 330.5,103.7 359.3,103.7 372.2,81.6 		"/>
		<path class="st4" d="M394.3,164c1.8,20.8-36.6,17.8-36.6,17.8"/>
		<rect x="359.3" y="103.8" class="st9" width="31.5" height="74.1"/>
		<path class="st10" d="M337.9,128.1h12.5v-10.6c0-3.4-2.7-6.2-6.2-6.2l0,0c-3.4,0-6.2,2.7-6.2,6.2L337.9,128.1L337.9,128.1z"/>
		<path class="st11" d="M369.6,128.1h12.5v-10.6c0-3.4-2.7-6.2-6.2-6.2l0,0c-3.4,0-6.2,2.7-6.2,6.2L369.6,128.1L369.6,128.1z"/>
		<path class="st11" d="M369.5,176.6h13.4v-17.4c0-3.6-3-6.6-6.6-6.6l0,0c-3.6,0-6.6,3-6.6,6.6L369.5,176.6z"/>
		<polygon class="st12" points="372.2,81.6 359.3,103.7 390.9,103.7 		"/>
		<path class="st4" d="M326.9,131.3c0,10,65.6,11.9,67.4,32.7"/>
		<path class="st13" d="M426.5,148.7c-2.1,5.8-4.8,10.9-7.9,15.8c-3.1,4.9-6.4,9.5-10,13.9c-1.8,2.2-3.8,4.4-6.2,6.8
			c-0.6,0.6-1.3,1.2-2.5,2.1l-0.6,0.4l-0.3,0.1c-0.1,0-0.1,0.1-0.4,0.3c-0.4,0.3-0.9,0.4-1.3,0.5l-0.5,0.1l-1.4,0.5
			c-1.7,0.5-3.4,0.9-4.8,1.2c-6,1.2-11.3,1.8-16.6,2.6c-10.5,1.4-20.8,3.1-30.4,5.7c-4.8,1.3-9.5,2.7-14,4.4
			c-4.4,1.7-8.7,3.6-12.5,5.8c-7.3,4.2-16.6,1.7-20.8-5.7c-4.2-7.4-1.7-16.6,5.7-20.8c0.6-0.4,1.2-0.6,1.8-0.9l0.3-0.1
			c11.7-4.7,23.5-7,34.8-8.4c11.4-1.3,22.6-1.7,33.5-1.7c5.3,0,10.8,0,15.4-0.3c1.2,0,2.2-0.1,3-0.3l0.5-0.1l0,0c0,0,0.1,0-0.1,0
			c-0.3,0.1-0.5,0.3-0.9,0.4l-0.3,0.1h-0.1l-0.1,0.1c-0.1,0.1,0.4-0.1,0.6-0.4c1.6-1.2,3.5-2.9,5.3-4.5c3.6-3.4,7.1-7.1,10.3-11
			c3.1-3.9,6-7.9,8-12.1l0.1-0.1c1.7-3.4,5.7-4.7,9.1-3C426.2,141.9,427.6,145.6,426.5,148.7L426.5,148.7z"/>
		<path class="st13" d="M363.4,143.3l-2.3,4.7c-0.4,0.8-0.9,1.6-1.4,2.2l-1.6,2.2c-0.5,0.8-1,1.4-1.7,2.1l-1.8,2.1
			c-0.6,0.8-1.3,1.3-1.9,1.9l-2.1,1.8c-1.4,1.2-2.9,2.2-4.4,3.2c-1.6,0.9-3,1.8-4.5,2.7c-1.4,0.8-3,1.6-4.5,2.2l-4.3,1.9
			c-5.6,2.5-10.5,4.8-14.4,7.4c-3.9,2.6-6.9,5.6-9.3,9.1c-5.1,6.9-14.5,8.3-21.4,3.4c-6.9-4.9-8.3-14.5-3.4-21.4
			c0.8-1,1.6-1.9,2.5-2.7l0.8-0.6c6-4.9,12.9-8.8,19.6-11.2c6.8-2.5,13.2-3.6,19-4.7c5.7-1,10.5-2.1,14.7-4s7.8-4.8,10.9-9l0.4-0.5
			c2.3-3,6.5-3.5,9.5-1.2C364,136.9,364.8,140.4,363.4,143.3L363.4,143.3z"/>
		<path class="st13" d="M389.8,194.4c-2.5,2.3-5.2,4.5-8.3,6.2c-3.1,1.8-6.6,3.1-10.1,4s-7.1,1.3-10.5,1.4c-3.4,0.1-6.5,0.1-9.5,0
			c-5.8-0.1-10.9,0-14.8,1c-3.9,1-6.9,2.7-9.9,5.2c-6.6,5.5-16.2,4.4-21.7-2.1c-5.5-6.6-4.4-16.2,2.1-21.7c1-0.9,2.2-1.6,3.4-2.1
			l1.2-0.5c3.5-1.6,7.4-2.9,11.3-3.8c3.9-0.8,7.9-1.2,11.7-1.2c7.7,0.1,14.1,1.8,19.7,3.2c5.6,1.4,10.3,2.7,14.5,2.7
			c4.3,0.1,8.4-1,12.9-3.4l0.3-0.1c3.2-1.8,7.4-0.6,9.2,2.6C392.7,188.9,392.1,192.3,389.8,194.4L389.8,194.4z"/>
		<path class="st13" d="M451.4,158.8c-0.6,0.4-1.8,1.2-2.7,1.8c-1,0.8-2.1,1.7-3.2,2.5c-2.2,1.8-4.3,3.6-6.5,5.6
			c-4.3,3.9-8.6,7.8-12.7,11.9l-12.7,12.2l-6.5,6.2c-1.2,1-2.2,2.1-3.5,3.2c-0.4,0.3-0.8,0.6-1.2,1l-0.4,0.3l-0.6,0.4
			c-0.1,0.1-0.4,0.3-0.6,0.4l-0.4,0.1l-0.4,0.1c-0.3,0.1-0.4,0.1-0.6,0.3c-0.4,0.1-0.8,0.3-1.3,0.4l-0.4,0.1h-0.1l-0.8,0.1h-3.5
			c-3.2,0.1-6.1,0.1-9.1,0.1l-8.8,0.1l-17.7,0.3c-11.8,0.1-23.5,0.4-35.2,0.9c-8.4,0.4-15.4-6.2-15.8-14.5
			c-0.4-8.4,6.2-15.4,14.5-15.8c0.8,0,1.6,0,2.2,0.1h0.1c11.9,1.4,23.8,3,35.6,4.5l17.7,2.5l8.7,1.3l8.6,1.2l0.9,0.1h0.4h-0.4
			c-0.1,0-0.3,0-0.4,0.1l-0.4,0.1c-0.4,0.1-0.8,0.1-1.2,0.3c-0.1,0.1-0.4,0.1-0.5,0.3l-0.4,0.1l-0.3,0.1c-0.1,0.1-0.4,0.3-0.4,0.3
			c-0.1,0-0.1,0.1-0.3,0.1l0,0c0.1,0,0.3-0.1,0.5-0.4c0.9-0.6,2.1-1.6,3.2-2.5l6.8-5.6l13.8-11.3c4.7-3.8,9.2-7.5,14.1-11.2
			c2.5-1.8,4.8-3.6,7.4-5.5c1.3-0.9,2.6-1.8,4-2.6c1.4-0.9,2.9-1.7,4.8-2.6c3.4-1.6,7.4,0,8.8,3.5c1.4,3.2,0.1,6.9-2.9,8.6
			L451.4,158.8L451.4,158.8z"/>
		<path class="st13" d="M286.8,166.2c-19.1,16.6-13.6,51-13.6,70l41.8,22.5c0,0,0.4-40.1,16.1-48.9
			C346.6,200.9,286.8,166.2,286.8,166.2L286.8,166.2z"/>
		<path class="st13" d="M340.9,166.5c-2.3,1.2-3,6.6,1.7,6.1c7.3-0.8-20.1,9.2-20.1,9.2l-10.6-11.6L340.9,166.5L340.9,166.5z"/>
		<path class="st5" d="M452.5,153.2l-0.4,0.1c-0.8,0.4-1.8,1-3,1.7c-1.2,0.6-2.3,1.4-3.4,2.3c-2.3,1.7-4.7,3.4-7,5.2
			c-4.7,3.6-9.2,7.3-13.9,11.2l-13.8,11.6l-7,5.8c-1.2,1-2.3,1.9-3.9,3c-0.4,0.3-0.8,0.5-1.3,0.9l-0.5,0.3l-0.6,0.4l-0.6,0.4
			l-0.4,0.1l-0.4,0.1l-0.6,0.3c-0.4,0.1-0.9,0.3-1.3,0.3h-4.9c-6.4-0.3-12.2-0.6-18.3-1l-18-1c-6.1-0.4-26.5-1.2-32.2,1.4
			c-16.5,7.3-26.1,33.9-27.6,52.2l21.5,10.3c0,0,0.4-40.1,16.1-48.9c0.3-0.1,0.4-0.3,0.6-0.4c1.6-0.8,3.1-1.4,4.9-1.9
			c0.9-0.3,1.9-0.4,3-0.6c6-0.1,11.9-0.3,17.8-0.4l17.7-0.3c6-0.1,11.7-0.1,18-0.3h2.1c0.5,0,1.2-0.1,1.7-0.1h0.5l0.4-0.1
			c0.4-0.1,0.9-0.3,1.3-0.4l0.6-0.3l0.4-0.1l0.4-0.1l0.6-0.4l0.6-0.4l0.4-0.3c0.5-0.4,0.9-0.6,1.2-1c1.3-1.2,2.5-2.2,3.5-3.2
			l6.5-6.2l12.7-12.2c4.3-4,8.4-8,12.7-11.9c2.1-1.9,4.3-3.8,6.5-5.6c1-0.9,2.2-1.7,3.2-2.5s2.1-1.4,2.7-1.8l0.4-0.3
			c2.6-1.4,3.9-4.5,3.2-7.4C454.4,152.1,453.6,152.9,452.5,153.2L452.5,153.2z"/>
		<path class="st3" d="M375.8,65.5L375.8,65.5c7.7-7,8.3-18.8,1.4-26.5l0,0c-1.2-1.3-3.1-1.4-4.4-0.3l0,0c-7.7,7-8.3,18.8-1.4,26.5
			l0,0C372.7,66.5,374.7,66.7,375.8,65.5z"/>
	</g>
</g>
<circle cx="367" cy="367" r="108"/>
<circle cx="367" cy="367" r="92.2"/>
<linearGradient id="SVGID_00000113334189004599819550000010180946384252138130_" gradientUnits="userSpaceOnUse" x1="-841.4681" y1="1189.2024" x2="-841.4681" y2="1279.4531" gradientTransform="matrix(0.9846 -0.1749 0.1749 0.9846 946.8404 -1029.514)">
	<stop  offset="0" style="stop-color:#4800A9"/>
	<stop  offset="1" style="stop-color:#4800A9;stop-opacity:0"/>
</linearGradient>
<path style="fill:none;stroke:url(#SVGID_00000113334189004599819550000010180946384252138130_);stroke-width:9.072;stroke-linecap:round;stroke-miterlimit:10;" d="
	M367,285.9c-44.1,7.8-73.6,50-65.7,94.1"/>
<linearGradient id="SVGID_00000140719947234047286280000001474066823364072886_" gradientUnits="userSpaceOnUse" x1="7074.9321" y1="-5469.147" x2="7074.9321" y2="-5378.8965" gradientTransform="matrix(0.1749 0.9846 -0.9846 0.1749 -6175.9858 -5683.4697)">
	<stop  offset="0" style="stop-color:#4800A9"/>
	<stop  offset="1" style="stop-color:#4800A9;stop-opacity:0"/>
</linearGradient>
<path style="fill:none;stroke:url(#SVGID_00000140719947234047286280000001474066823364072886_);stroke-width:9.072;stroke-linecap:round;stroke-miterlimit:10;" d="
	M448.1,367c-7.8-44.1-50-73.6-94.1-65.7"/>
<linearGradient id="SVGID_00000030461797604108376240000000542546145925948803_" gradientUnits="userSpaceOnUse" x1="417.0511" y1="-13384.7422" x2="417.0511" y2="-13294.4912" gradientTransform="matrix(-0.9846 0.1749 -0.1749 -0.9846 -1522.0403 -12806.2959)">
	<stop  offset="0" style="stop-color:#4800A9"/>
	<stop  offset="1" style="stop-color:#4800A9;stop-opacity:0"/>
</linearGradient>
<path style="fill:none;stroke:url(#SVGID_00000030461797604108376240000000542546145925948803_);stroke-width:9.072;stroke-linecap:round;stroke-miterlimit:10;" d="
	M367,448.1c44.1-7.8,73.6-50,65.7-94.1"/>
<linearGradient id="SVGID_00000052806394999619155250000002164369449913369771_" gradientUnits="userSpaceOnUse" x1="-7499.3428" y1="-6726.3545" x2="-7499.3428" y2="-6636.104" gradientTransform="matrix(-0.1749 -0.9846 0.9846 -0.1749 5600.7856 -8152.3403)">
	<stop  offset="0" style="stop-color:#4800A9"/>
	<stop  offset="1" style="stop-color:#4800A9;stop-opacity:0"/>
</linearGradient>
<path style="fill:none;stroke:url(#SVGID_00000052806394999619155250000002164369449913369771_);stroke-width:9.072;stroke-linecap:round;stroke-miterlimit:10;" d="
	M285.9,367c7.8,44.1,50,73.6,94.1,65.7"/>
<circle class="st18" cx="367" cy="285.9" r="7.7"/>
<circle class="st19" cx="448.1" cy="367" r="7.7"/>
<circle class="st20" cx="367" cy="448.1" r="7.7"/>
<circle class="st21" cx="285.9" cy="367" r="7.7"/>
<path class="st22" d="M367,316.4c-27.9,0-50.6,22.7-50.6,50.6s22.7,50.6,50.6,50.6s50.6-22.7,50.6-50.6S395,316.4,367,316.4"/>
<path class="st23" d="M373.6,338.6c0,1.2-1,1.9-2.2,1.9h-0.3c-2.3,0-4.2,1.8-4.2,4.2c0,2.3,1.8,4.2,4.2,4.2h14.3
	c2.3,0,4.2-1.8,4.2-4.2c0-2.3-1.8-4.2-4.2-4.2h-2.2c-1.2,0-2.1-0.9-2.2-1.9c0-1.2,0.9-2.1,2.1-2.2h0.6c4,0,7.4-3.2,7.3-7.3
	c-0.1-3.9-3.2-7-7.1-7h-26c-4,0-7.4,3.2-7.3,7.3c0.1,3.9,3.2,7,7.1,7h13.8C372.7,336.4,373.6,337.4,373.6,338.6L373.6,338.6z"/>
<path class="st23" d="M341.4,342.1H323c-2.6,4.5-4.4,9.5-5.5,14.7h24c4,0,7.4-3.2,7.4-7.4C348.8,345.3,345.5,342.1,341.4,342.1
	L341.4,342.1z"/>
<path class="st23" d="M364,400.9h-11.7c-1.2,0-2.1-0.9-2.2-1.9c0-1.2,0.9-2.1,1.9-2.2h1c4.4,0,8.3-3.5,8.4-8
	c0.1-4.7-3.6-8.4-8.2-8.4h-13.5c-4.4,0-8.3,3.5-8.4,8c-0.1,4.7,3.6,8.4,8.2,8.4h0.9c1.2,0,2.1,1,1.9,2.2c0,1.2-1,1.9-2.2,1.9h-11.2
	c4.5,5.1,10.3,9.3,16.6,12.2h18c3.4,0,6.1-2.7,6.1-6.1C370.1,403.6,367.4,400.9,364,400.9"/>
<path class="st23" d="M417.6,367v-1.9h-32.3c-6,0-10.8,4.8-10.8,10.8c0,6,4.8,10.8,10.8,10.8h28.4
	C416.2,380.5,417.6,373.9,417.6,367"/>
<path class="st24" d="M332.3,375c-0.3-0.1-0.5-0.1-0.8-0.1h-6.8c-3,0-5.5-2.5-5.5-5.6c0.1-3,2.6-5.2,5.6-5.2h21c3,0,5.5,2.3,5.6,5.2
	c0.1,3.1-2.3,5.6-5.5,5.6h-4.8c-0.3,0-0.5,0-0.8,0.1c-0.5,0.3-0.9,0.9-0.9,1.6c0,0.9,0.8,1.7,1.7,1.7h0.4c2.2,0,3.9,1.8,3.9,3.9
	c0,2.2-1.8,3.9-3.9,3.9h-11.3c-2.2,0-4-1.8-3.9-4.2c0.1-2.1,1.9-3.8,4-3.8h1.2c0.9,0,1.7-0.8,1.7-1.7
	C333.2,376,332.8,375.3,332.3,375L332.3,375z"/>
<path class="st24" d="M348.6,337.3h-11.8c-2.7,0-4.8,2.2-4.8,4.8c0,2.7,2.2,4.8,4.8,4.8h11.8c2.7,0,4.8-2.2,4.8-4.8
	C353.4,339.4,351.2,337.3,348.6,337.3z"/>
<path class="st24" d="M379.5,360.8h-11.8c-2.7,0-4.8,2.2-4.8,4.8c0,2.7,2.2,4.8,4.8,4.8h11.8c2.7,0,4.8-2.2,4.8-4.8
	C384.3,362.9,382.1,360.8,379.5,360.8z"/>
<path class="st24" d="M386.1,380.2h14.4c3.2,0,6,2.6,6,6s-2.6,6-6,6h-14.4c-3.2,0-6-2.6-6-6S382.7,380.2,386.1,380.2"/>
<path class="st24" d="M384.4,396.7h-7.9c-1.8,0-3.2,1.4-3.2,3.2s1.4,3.2,3.2,3.2h7.9c1.8,0,3.2-1.4,3.2-3.2
	C387.6,398.3,386.2,396.7,384.4,396.7"/>
<path class="st24" d="M405.3,349.1h-7.9c-1.8,0-3.2,1.4-3.2,3.2s1.4,3.2,3.2,3.2h7.9c1.8,0,3.2-1.4,3.2-3.2S407.1,349.1,405.3,349.1
	"/>
<path class="st25" d="M367,417.6L367,417.6 M367,417.6L367,417.6 M366.9,417.6L366.9,417.6 M366.9,417.6L366.9,417.6 M366.9,417.6
	L366.9,417.6 M366.9,417.6L366.9,417.6 M366.7,417.6L366.7,417.6 M366.7,417.6L366.7,417.6 M366.7,417.6L366.7,417.6 M417.6,367
	L417.6,367 M417.6,367L417.6,367 M417.6,367L417.6,367 M416.3,355.6c0.8,3.6,1.3,7.4,1.3,11.2v0.3
	C417.6,363,417.2,359.2,416.3,355.6 M416.3,355.6L416.3,355.6 M416.3,355.5C416.3,355.5,416.3,355.6,416.3,355.5
	C416.3,355.6,416.3,355.5,416.3,355.5 M416.3,355.5L416.3,355.5 M416.3,355.5L416.3,355.5"/>
<path class="st26" d="M318.5,381.3c2.2,7.4,6,14,10.9,19.6h11.2c1.2,0,2.1-0.9,2.2-1.9c0-1.2-0.9-2.1-1.9-2.2h-0.9
	c-3.6,0-6.9-2.5-7.8-5.8C326.9,388.4,322.4,385.2,318.5,381.3 M376.5,403.4c-1.8,0-3.2-1.4-3.2-3.2c0-1.8,1.4-3.2,3.2-3.2h7.9
	c1.8,0,3.2,1.4,3.2,3.2c0,1.8-1.4,3.2-3.2,3.2H376.5 M417.5,370.5c-0.4,5.6-1.7,11-3.8,16h-7.4c-0.3,3.1-2.7,5.6-6,5.6h-14.3
	c-2.3,0-4.4-1.4-5.3-3.4c-7,4.3-15.3,7-24,7.4c-1,0.4-2.1,0.6-3.2,0.6h-1c-1.2,0-2.1,1-1.9,2.2c0,1.2,1,1.9,2.2,1.9h11.7
	c3.4,0,6.1,2.7,6.1,6.1s-2.7,6.1-6.1,6.1H346c-0.1,0-0.3-0.1-0.4-0.1c6.4,3,13.5,4.7,21,4.8h0.1
	C393.8,417.6,415.7,396.9,417.5,370.5 M402.8,331.2c1.3,4.5,2.1,9.3,2.1,14.3c0,1.2,0,2.5-0.1,3.6h0.6c1.8,0,3.2,1.4,3.2,3.2
	s-1.4,3.2-3.2,3.2H404c-0.6,3.2-1.7,6.5-2.9,9.5h16.6v1.7c0-3.9-0.5-7.7-1.3-11.2l0,0C414.1,346.1,409.5,337.7,402.8,331.2"/>
<path class="st27" d="M331.8,390.9c1,3.4,4.2,5.8,7.8,5.8h0.9c1.2,0,2.1,1,1.9,2.2c0,1.2-1,1.9-2.2,1.9h-11.2
	c4.5,5.1,10,9.1,16.2,12.1l0,0c0.1,0,0.3,0.1,0.4,0.1h18c3.4,0,6.1-2.7,6.1-6.1s-2.7-6.1-6.1-6.1h-11.7c-1.2,0-2.1-0.9-2.2-1.9
	c0-1.2,0.9-2.1,1.9-2.2h1c1.2,0,2.2-0.3,3.2-0.6h-2.3C346.2,396.1,338.6,394.3,331.8,390.9"/>
<path class="st27" d="M417.6,365.1H401c-2.3,5.7-5.7,10.8-9.9,15.2h9.3c3.2,0,6,2.6,6,6v0.4h7.4c2.1-4.9,3.4-10.4,3.8-16
	c0.1-1.2,0.1-2.3,0.1-3.5l0,0v-0.3C417.6,366.2,417.6,365.6,417.6,365.1"/>
<path class="st25" d="M400.4,380.2H391c-3.1,3.2-6.6,6.1-10.4,8.4c0.9,2.1,3,3.4,5.3,3.4h14.4c3.1,0,5.7-2.5,6-5.6v-0.4
	C406.3,382.8,403.7,380.2,400.4,380.2"/>
<path class="st25" d="M384.4,396.7h-7.9c-1.8,0-3.2,1.4-3.2,3.2s1.4,3.2,3.2,3.2h7.9c1.8,0,3.2-1.4,3.2-3.2
	C387.6,398.3,386.2,396.7,384.4,396.7"/>
<path class="st25" d="M405.3,349.1h-0.6c-0.1,2.2-0.4,4.4-0.9,6.5h1.4c1.8,0,3.2-1.4,3.2-3.2C408.5,350.5,407.1,349.1,405.3,349.1"
	/>
<circle cx="133" cy="367" r="108"/>
<polygon class="st28" points="211.3,397.5 172.1,385.5 154.2,422.2 135.2,386 96.5,399.3 108.5,360.3 71.8,342.2 108,323.2 
	94.7,284.5 133.8,296.6 151.8,259.8 170.8,296.1 209.5,282.8 197.3,321.8 234.2,339.8 197.9,358.9 "/>
<path class="st29" d="M183.4,381.9l40.1,11.5c-6.4,22.2-29.4,34.9-51.6,28.6l-5.3-1.5c-22.6-6.4-18.3-40.1,5.2-40.2
	C175.6,380.3,179.5,380.7,183.4,381.9L183.4,381.9z"/>
<path class="st30" d="M212.3,395.2l-2.5,4.9c-4.5,9-13.3,15.2-23.4,16.4l-4.8,0.5"/>
<path class="st30" d="M202.5,393l-1.2,2.7c-3,6.4-9.4,10.4-16.6,10.1l0,0"/>
<line class="st30" x1="193.5" y1="391.1" x2="186" y2="395.7"/>
<path class="st29" d="M98.6,410.5l16.2,57.1c0.5,2.1,2.6,3.6,4.8,3.6h5.6c3.3,0,5.6-3.1,4.8-6.3l-16.2-56.9
	c-0.5-2.1-2.6-3.6-4.8-3.6h-5.6C100.1,404.4,97.8,407.4,98.6,410.5L98.6,410.5z M122.7,410.5l16.2,57.1c0.5,2.1,2.6,3.6,4.8,3.6h5.6
	c3.3,0,5.6-3.1,4.8-6.3l-16.2-57.1c-0.5-2.1-2.6-3.6-4.8-3.6h-5.6C124.1,404.4,121.8,407.4,122.7,410.5L122.7,410.5z M179.4,327.9
	c-4.4-8.1-12-14.1-21.2-16.2h-0.1c-2.3-0.5-4.8-0.8-7.3-0.8h-32.4c0,5.9,1.6,11.5,4.4,16.2c-2.7,4.8-4.4,10.3-4.4,16.2
	c0,4.8,1.1,9.3,2.9,13.4c-4.8,0.7-9.3,2.1-13.4,4.2l-12.7-12.7c-4.1-4.1-10.7-4.1-14.6,0c-0.8,0.8-1.5,1.8-1.9,2.7l-2.7-2.7
	c-4.1-4.1-10.7-4.1-14.6,0c-0.5,0.5-1.1,1.2-1.5,1.9l-1.9-1.9c-4.1-4.1-10.7-4.1-14.6,0c-4.1,4.1-4.1,10.7,0,14.6l11.6,11.6h-7.9
	c0,23.5,18.1,42.7,41.2,44.5c4.4,9.3,12,16.7,21.5,20.9l6.7,23.8h-10.4c-2.5,0-4.4,1.9-4.4,4.4v0.7c0,2.5,1.9,4.4,4.4,4.4h59.1
	c2.5,0,4.4-1.9,4.4-4.4V468c0-2.5-1.9-4.4-4.4-4.4h-13.8l-6.6-23.3c10.7-4.5,19.3-13.1,23.7-23.8c7.5-3.8,12.6-11.5,12.6-20.4
	c0-11-7.8-20.1-18.1-22.3c0-0.1-0.1-0.1-0.1-0.3c7.5-2.9,13.8-8.6,17.4-15.9 M139.7,463.8h-12.3l-5.8-20.4c1.9,0.3,3.8,0.4,5.9,0.4
	c2.2,0,4.4-0.1,6.4-0.4L139.7,463.8z M173.7,344.7l25-11.1c-6-13.8-22.2-20.1-36-14l-25,11.1C143.7,344.6,159.9,350.9,173.7,344.7z
	 M152.2,355.4l13.7,11.5c7.5,6.3,18.8,5.3,25-2.2l-13.7-11.5C169.9,346.7,158.6,347.8,152.2,355.4z"/>
<circle class="st29" cx="150.2" cy="344" r="31.9"/>
<path class="st24" d="M139.6,437.1h-2.1c-1.2,0-2.1,1.1-1.8,2.3l5.9,20.9c0.3,0.8,1,1.4,1.8,1.4h2.1c1.2,0,2.1-1.1,1.8-2.3
	l-5.9-20.9C141.1,437.6,140.4,437.1,139.6,437.1z"/>
<path class="st24" d="M112.1,439.4l5.9,20.9c0.3,0.8,1,1.4,1.8,1.4h2.1c1.2,0,2.1-1.1,1.8-2.3l-5.9-20.9c-0.3-0.8-1-1.4-1.8-1.4
	h-2.1C112.6,437.1,111.7,438.2,112.1,439.4z"/>
<path class="st31" d="M175.6,322.8c6.8-1.4,14.1,1.9,17.5,8.5l-11.9,6.2C180.4,331.3,175.6,322.8,175.6,322.8z"/>
<path class="st31" d="M174.2,367c4,1.9,8.8,1.1,11.8-2.3l-6.2-5.5C178.3,362.6,174.2,367,174.2,367L174.2,367z"/>
<circle class="st24" cx="151.2" cy="344.1" r="25.7"/>
<circle class="st32" cx="156.1" cy="340.3" r="10.1"/>
<path class="st24" d="M119.4,467.9h-8.8c-0.7,0-1.2-0.5-1.2-1.2v-2.2c0-0.7,0.5-1.2,1.2-1.2h8.8c0.7,0,1.2,0.5,1.2,1.2v2.2
	C120.7,467.3,120.1,467.9,119.4,467.9z"/>
<path class="st31" d="M145,390.5l-0.8,6.8c-0.1,0.8-1,1.5-1.8,1.4l-2.6-0.3c-0.8-0.1-1.5-1-1.4-1.8l0.8-6.8c0.1-0.8,1-1.5,1.8-1.4
	l2.6,0.3C144.6,388.9,145.2,389.6,145,390.5L145,390.5z"/>
<path class="st31" d="M138.3,409.7l-0.7,5.5c-0.1,0.7-0.7,1.2-1.4,1.1l-2.1-0.3c-0.7-0.1-1.2-0.7-1.1-1.4l0.7-5.5
	c0.1-0.7,0.7-1.2,1.4-1.1l2.1,0.3C137.9,408.3,138.3,409,138.3,409.7z"/>
<path class="st31" d="M132,427.9l-0.5,4.2c-0.1,0.5-0.5,1-1.1,0.8l-1.6-0.1c-0.5-0.1-1-0.5-0.8-1.1l0.5-4.2c0.1-0.5,0.5-1,1.1-0.8
	l1.6,0.1C131.6,426.8,132,427.4,132,427.9z"/>
<path class="st31" d="M148.2,374.3l-0.3,2.7c-0.1,1-1,1.5-1.8,1.5l-2.5-0.3c-1-0.1-1.5-1-1.5-1.8l0.3-2.7c0.1-1,1-1.5,1.8-1.5
	l2.5,0.3C147.6,372.5,148.3,373.3,148.2,374.3z"/>
<path class="st24" d="M59.5,371.1l-12.9-13c-1.8-1.8-1.5-4.7,0.5-6l0.4-0.3c1.6-1.1,3.8-1,5.2,0.4L71,370.7c0.7,0.7,0.1,1.9-0.8,1.9
	h-7.1C61.7,372.6,60.5,372.1,59.5,371.1L59.5,371.1z"/>
<path class="st24" d="M80.2,371.1l-12.9-13c-1.8-1.8-1.5-4.7,0.5-6l0.4-0.3c1.6-1.1,3.8-1,5.2,0.4l18.2,18.5
	c0.7,0.7,0.1,1.9-0.8,1.9h-7.1C82.5,372.6,81.1,372.1,80.2,371.1L80.2,371.1z"/>
<path class="st24" d="M100.8,371.1l-12.9-13c-1.8-1.8-1.5-4.7,0.5-6l0.4-0.3c1.6-1.1,3.8-1,5.2,0.4l18.2,18.5
	c0.7,0.7,0.1,1.9-0.8,1.9h-7.1C103.2,372.6,101.8,372.1,100.8,371.1L100.8,371.1z"/>
<path class="st24" d="M130.8,468.3h-5.3c-0.7,0-1.2-0.5-1.2-1.2V466c0-0.7,0.5-1.2,1.2-1.2h5.3c0.7,0,1.2,0.5,1.2,1.2v1.1
	C132.2,467.7,131.5,468.3,130.8,468.3z"/>
<path class="st24" d="M125.9,472.7h-5.3c-0.7,0-1.2-0.5-1.2-1.2v-1.1c0-0.7,0.5-1.2,1.2-1.2h5.3c0.7,0,1.2,0.5,1.2,1.2v1.1
	C127.1,472,126.6,472.7,125.9,472.7z"/>
<path class="st24" d="M148.2,467.9h-8.8c-0.7,0-1.2-0.5-1.2-1.2v-2.2c0-0.7,0.5-1.2,1.2-1.2h8.8c0.7,0,1.2,0.5,1.2,1.2v2.2
	C149.4,467.3,148.9,467.9,148.2,467.9z"/>
<path class="st24" d="M159.6,468.3h-5.3c-0.7,0-1.2-0.5-1.2-1.2V466c0-0.7,0.5-1.2,1.2-1.2h5.3c0.7,0,1.2,0.5,1.2,1.2v1.1
	C160.8,467.7,160.2,468.3,159.6,468.3z"/>
<path class="st24" d="M154.8,472.5h-5.3c-0.7,0-1.2-0.5-1.2-1.2v-1.1c0-0.7,0.5-1.2,1.2-1.2h5.3c0.7,0,1.2,0.5,1.2,1.2v1.1
	C156.1,472,155.6,472.5,154.8,472.5z"/>
<path class="st33" d="M132.2,396.6h-9.4c-3.7,0-6.7-3-6.7-6.7l0,0c0-3.7,3-6.7,6.7-6.7h25"/>
<path class="st33" d="M152.2,396.6h9.4c3.7,0,6.7-3,6.7-6.7l0,0c0-3.7-3-6.7-6.7-6.7h-21.9"/>
<path class="st34" d="M126.4,415.2H121c-3.1,0-5.8-2.6-5.8-5.8l0,0c0-3.1,2.6-5.8,5.8-5.8h19.3"/>
<path class="st34" d="M144.1,415.2h5.5c3.1,0,5.8-2.6,5.8-5.8l0,0c0-3.1-2.6-5.8-5.8-5.8h-19.3"/>
<path class="st35" d="M122.3,431.2h-2.5c-2.7,0-4.9-2.2-4.9-4.9l0,0c0-2.7,2.2-4.9,4.9-4.9h11.6"/>
<path class="st35" d="M137.9,431.2h2.5c2.7,0,4.9-2.2,4.9-4.9l0,0c0-2.7-2.2-4.9-4.9-4.9h-14.8"/>
<path class="st33" d="M55,381.4l3.7,8.1c2.9,6.4,8.1,11.5,14.5,14.2l0,0c8.4,3.6,17.9,2.7,25.6-2.1l6.2-3.8"/>
<path class="st33" d="M65,380.6l4.4,7c2.1,3.4,5.3,6,9,7.4l0,0c5.2,1.9,11,1.2,15.6-1.6l4.7-2.9"/>
<path class="st33" d="M75.8,380.4L75.8,380.4c3,5.9,10.8,7.5,15.9,3.3l1.9-1.5"/>
<circle cx="133" cy="133" r="108"/>
<polygon class="st36" points="137.8,213.1 151.9,220.1 151.9,162 137.8,162 "/>
<polygon class="st37" points="144.8,216.6 151.9,220.1 151.9,162 144.8,163.2 "/>
<polygon points="137.3,179.9 152.3,184.8 152.3,164 137.3,164 "/>
<path class="st37" d="M107.6,110.8L107.6,110.8c12.1,0,21.9,9.8,21.9,21.9v37H85.7v-37C85.7,120.6,95.5,110.8,107.6,110.8
	L107.6,110.8z"/>
<path d="M107.6,111.4c12.1,0,21.9,9.8,21.9,21.9v37h-10.6"/>
<path class="st38" d="M85.7,168.1v-35.4c0-12.1,9.8-21.9,21.9-21.9"/>
<rect x="98.4" y="114.4" transform="matrix(0.4024 -0.9155 0.9155 0.4024 -61.1189 187.716)" class="st39" width="29.6" height="52.6"/>
<line class="st40" x1="143.2" y1="137.7" x2="131.3" y2="164.8"/>
<line class="st40" x1="83.2" y1="143.6" x2="95.1" y2="116.5"/>
<polygon class="st41" points="93.2,120.7 113.2,140.7 83.2,143.6 "/>
<polygon class="st41" points="141.4,141.8 113.2,140.7 131.3,164.8 "/>
<polygon class="st42" points="131.3,164.8 83.2,143.6 113.2,140.7 "/>
<path class="st43" d="M107.9,142.6l-12.8-26l48.2,21.2l-27.8,8.2C112.4,146.8,109.2,145.4,107.9,142.6z"/>
<path class="st44" d="M109.3,140.2L95,116.5l48.2,21.2l-27.1,5.5C113.4,143.8,110.7,142.6,109.3,140.2z"/>
<path class="st45" d="M109.2,110.8h60.3c12.1,0,21.9,9.8,21.9,21.9v37h-60.2v-37C131.2,120.6,122.5,110.8,109.2,110.8z"/>
<path class="st46" d="M114.8,110.8L114.8,110.8c12.1,0,21.9,9.8,21.9,21.9v37"/>
<path class="st46" d="M109.2,110.8h60.3c12.1,0,21.9,9.8,21.9,21.9v37"/>
<path class="st38" d="M109.2,110.8L109.2,110.8c12.1,0,21.9,9.8,21.9,21.9v35.4"/>
<line class="st47" x1="194.2" y1="169.7" x2="129.5" y2="169.7"/>
<path class="st48" d="M85.8,168.2L63.3,156c-10.9-8-9.9-14.5,2.2-14.5l0,0c12.1,0,30.7,6.5,41.6,14.5l22.5,12.2H85.8L85.8,168.2z"/>
<path class="st49" d="M85.8,168.2L63.3,156c-12.3-7.2-9.9-14.5,2.2-14.5"/>
<path class="st50" d="M65.5,141.6c22.2,0,41.6,13,41.6,13l22.5,13.7"/>
<path class="st51" d="M147,141.6c-3.7,0-6.7-3-6.7-6.7c0-3.7,3-6.7,6.7-6.7h5.2c3.7,0,6.7,3,6.7,6.7c0,3.7-3,6.7-6.7,6.7H147z"/>
<circle class="st52" cx="152.3" cy="134.8" r="5.3"/>
<line class="st53" x1="154.1" y1="95.8" x2="163" y2="95.8"/>
<line class="st54" x1="152.4" y1="134.8" x2="152.4" y2="93.6"/>
<path class="st55" d="M102.7,91.2l-4.8,1.7c-2,0.7-4.2-0.4-4.9-2.4l0,0c-0.7-2,0.4-4.2,2.4-4.9l4.8-1.7c2-0.7,4.2,0.4,4.9,2.4l0,0
	C105.8,88.3,104.7,90.5,102.7,91.2z"/>
<path class="st55" d="M115.6,104.1c0,1.2,1,2.2,2.2,2.2l0,0c1.2,0,2.2-1,2.2-2.2v-7.9c0-1.2-0.9-2.2-2.2-2.2l0,0
	c-1.2,0-2.2,1-2.2,2.2V104.1z"/>
<path class="st55" d="M123.5,104.1c0,1.2,1,2.2,2.2,2.2l0,0c1.2,0,2.2-1,2.2-2.2v-7.9c0-1.2-1-2.2-2.2-2.2l0,0c-1.2,0-2.2,1-2.2,2.2
	V104.1z"/>
<path class="st55" d="M130.3,103.9l-17.1,0c-1.3,0-2.4,1.1-2.4,2.4l0,0c0,1.3,1.1,2.4,2.4,2.4l17.1,0c1.3,0,2.4-1.1,2.4-2.4l0,0
	C132.6,105,131.6,103.9,130.3,103.9z"/>
<path class="st56" d="M144.3,57.4C144.3,57.4,144.2,57.4,144.3,57.4L144.3,57.4c-0.5-1.7-2.2-2.8-4-2.5v0l-27.2,7.7
	C102.9,65.4,97,76,99.9,86.1c2.9,10.2,13.5,16.1,23.6,13.2c9.4-2.6,15.2-12,13.7-21.5C143.4,73.4,146.5,65.3,144.3,57.4
	C144.3,57.4,144.3,57.4,144.3,57.4C144.3,57.4,144.3,57.4,144.3,57.4L144.3,57.4z"/>
<circle class="st24" cx="114.6" cy="81.6" r="6.5"/>
<rect x="107.5" y="83.8" transform="matrix(0.9772 -0.2123 0.2123 0.9772 -16.0812 27.021)" class="st56" width="20.5" height="9.1"/>
<line class="st57" x1="132.5" y1="169.7" x2="82.4" y2="169.7"/>
</svg>
