<?xml version="1.0" encoding="utf-8"?>
<!-- Generator: Adobe Illustrator 27.5.0, SVG Export Plug-In . SVG Version: 6.00 Build 0)  -->
<svg version="1.1" id="a" xmlns="http://www.w3.org/2000/svg" xmlns:xlink="http://www.w3.org/1999/xlink" x="0px" y="0px"
	 viewBox="0 0 1347.8 500" style="enable-background:new 0 0 1347.8 500;" xml:space="preserve">
<style type="text/css">
	.st0{fill:#091947;}
	.st1{fill:#1D1859;}
	.st2{fill:none;stroke:#F8E6DF;stroke-width:23.9491;stroke-linecap:round;stroke-miterlimit:10;}
	.st3{fill:#F3D8CD;}
	.st4{fill:#E9C0B0;}
	.st5{fill:#F8E6DF;}
	.st6{fill:#FFFFFF;}
	.st7{fill:#332B45;}
	.st8{fill:none;stroke:#F3D8CD;stroke-width:3.978;stroke-miterlimit:10;}
	.st9{fill:#474154;}
	.st10{fill:none;stroke:#F3D8CD;stroke-width:3.978;stroke-linecap:round;stroke-miterlimit:10;}
	.st11{fill:#F87902;}
	.st12{fill:#22B5EC;}
	.st13{fill:#5510AE;}
	.st14{fill:#865AFD;}
	.st15{opacity:0.41;fill:#5510AE;enable-background:new    ;}
	.st16{fill:#FD7E6A;}
	.st17{fill:none;stroke:#2E2342;stroke-width:114.1207;stroke-linecap:round;stroke-miterlimit:10;}
	.st18{fill:#2E2342;}
	.st19{fill:#FD6E00;}
	.st20{fill:#2E2342;stroke:#2E2342;stroke-width:9.4501;stroke-linecap:round;stroke-linejoin:round;}
	.st21{fill:#FC3647;}
	.st22{fill:#FD6564;}
	.st23{fill:#F79400;}
	.st24{fill:#F86360;}
	.st25{fill:#453069;}
	.st26{fill:#FF9A4E;}
	.st27{fill:none;stroke:#FF9A4E;stroke-width:18.4771;stroke-linecap:round;stroke-linejoin:round;}
	.st28{fill:#0049D2;}
	.st29{fill:#0374FD;}
	.st30{fill:#72D3B7;}
	.st31{fill:#50B58D;}
	.st32{fill:none;}
	.st33{opacity:0.15;fill:#231F20;enable-background:new    ;}
	.st34{fill:#9F12E6;}
	.st35{fill:#8D00C5;}
	.st36{fill:#E269FC;}
	.st37{fill:#F86D5D;}
	.st38{fill:#FFAF33;}
	.st39{fill:#61C7CA;}
	.st40{fill:#FD8980;}
	.st41{fill:#068FFD;}
	.st42{fill:#FBCC2C;}
	.st43{fill:#6DA64B;}
	.st44{fill:#E60359;}
	.st45{fill:#7501A1;}
	.st46{fill:#B902DE;}
	.st47{fill:#FD7A03;}
</style>
<rect x="-1.1" y="0" class="st0" width="1350" height="500"/>
<g id="c">
	<g id="d">
		<ellipse class="st1" cx="832" cy="452.4" rx="257.6" ry="22.6"/>
		<path class="st1" d="M471.2,408.2h176.6c12.4,0,22.4,10,22.4,22.4l0,0c0,12.4-10,22.4-22.4,22.4H471.2c-12.4,0-22.4-10-22.4-22.4
			l0,0C448.8,418.3,458.8,408.2,471.2,408.2z"/>
		<path class="st2" d="M655.6,355.5c10.2,6.2,23.5,2.9,29.6-7.3c6.2-10.2,2.9-23.5-7.3-29.6l0,0"/>
		<path class="st3" d="M641.5,335.1l-111-25.1c-22.4-5.1-44.6,9-49.7,31.4c-0.7,3-1,6.1-1,9.2v25.1c0,22.9,18.6,41.5,41.5,41.5h111
			c22.9,0,41.5-18.6,41.5-41.5l0,0C673.9,356.2,660.4,339.4,641.5,335.1L641.5,335.1z"/>
		<circle class="st4" cx="540.7" cy="359" r="47.2"/>
		<path class="st5" d="M600.5,417.5l48.7,0.4c17.7,0,32.1-14.3,32.2-32l0,0c0-31.9-41.4-44.4-58.9-17.7l-22,33.5V417.5L600.5,417.5z
			"/>
		<path class="st5" d="M610.4,417.6l-18.2,0.3c-8.4,0.1-15.3-6.6-15.4-14.9l0,0l0,0c-0.2-8.4,6.5-15.3,14.9-15.4l0,0L625,387
			l0.2,15.2C625.4,410.5,618.7,417.4,610.4,417.6L610.4,417.6z"/>
		<path class="st5" d="M600.5,417.5l48.7,0.4c17.7,0,32.1-14.3,32.2-32l0,0c0-31.9-41.4-44.4-58.9-17.7l-22,33.5V417.5L600.5,417.5z
			"/>
		<path class="st5" d="M610.4,417.6l-18.2,0.3c-8.4,0.1-15.3-6.6-15.4-14.9l0,0l0,0c-0.2-8.4,6.5-15.3,14.9-15.4l0,0L625,387
			l0.2,15.2C625.4,410.5,618.7,417.4,610.4,417.6L610.4,417.6z"/>
		<path class="st2" d="M677.9,318.6c-10.2-6.1-23.4-2.9-29.5,7.3c0,0,0,0,0,0.1"/>
		<path class="st4" d="M469.2,387.9h27c8.9,0,16.2,7.2,16.2,16.2l0,0c0,8.9-7.2,16.2-16.2,16.2h-27c-8.9,0-16.2-7.2-16.2-16.2l0,0
			C453.1,395.1,460.3,387.9,469.2,387.9z"/>
		<path class="st4" d="M469.2,387.9h27c8.9,0,16.2,7.2,16.2,16.2l0,0c0,8.9-7.2,16.2-16.2,16.2h-27c-8.9,0-16.2-7.2-16.2-16.2l0,0
			C453.1,395.1,460.3,387.9,469.2,387.9z"/>
		
			<ellipse transform="matrix(0.9985 -5.425169e-02 5.425169e-02 0.9985 -16.9286 27.7621)" class="st5" cx="502.9" cy="325.7" rx="49.5" ry="47"/>
		<path class="st5" d="M445.7,328.8l113.1-6.1l-9.6,32.7c-1.9,6.8-6.1,12.7-11.8,16.8c-4.6,3.2-9.8,5.5-15.3,6.7l0,0
			c-11.2,2.3-22.6,2.9-33.9,1.9l0,0c-5.6-0.6-10.9-2.3-15.8-5c-6.1-3.5-10.9-8.9-13.6-15.4L445.7,328.8L445.7,328.8z"/>
		<path class="st3" d="M522.7,360.4c-1.6-3.2-3-8.1-6-10.3c-2.5-2-6.4-1.3-9.3-1c-3.7,0.5-7.3,1.1-11,1.4c-4.1,0.4-5.8,3.7-7.8,7
			c-4.1,6.6-7.2,13.6-9.5,20.9c3.1,1.1,6.4,1.9,9.7,2.2l0,0c11.3,1.1,22.8,0.5,33.9-1.9c2.9-0.6,5.7-1.5,8.4-2.7
			C528.1,370.9,525.4,365.6,522.7,360.4L522.7,360.4z"/>
		<path class="st3" d="M457.5,291.6l-14.1,7.3c-10.6,5.4-14.8,18.3-9.4,28.9c0.8,1.6,1.8,3,3,4.4l4.8,5.4c2.2,2.5,6.1,2.8,8.6,0.5
			c0.6-0.5,1.1-1.2,1.5-1.9l23.5-49.2l0,0C469,287.2,463,288.8,457.5,291.6L457.5,291.6z"/>
		<path class="st3" d="M544.3,286.9l14.8,5.6c11.1,4.2,16.7,16.6,12.4,27.7c-0.6,1.6-1.5,3.2-2.5,4.7l-4.1,5.9
			c-1.9,2.7-5.8,3.4-8.5,1.5c-0.7-0.5-1.2-1.1-1.7-1.8L526,284.1l0,0C532.3,283.7,538.5,284.7,544.3,286.9L544.3,286.9z"/>
		<path class="st6" d="M487.7,341.2c2.9-8.2-1.4-17.1-9.6-20s-17.1,1.4-20,9.6"/>
		<path class="st6" d="M518.5,339.5c-4.2-7.6-1.4-17.1,6.2-21.2c7.6-4.2,17.1-1.4,21.2,6.2c0.3,0.5,0.5,1.1,0.8,1.6"/>
		<circle class="st7" cx="473" cy="336" r="10.7"/>
		<circle class="st7" cx="532.5" cy="332.7" r="10.7"/>
		<path class="st6" d="M519.8,377.7l-6.1-7c-3.7-4.8-10.5-5.7-15.3-2c-1.1,0.8-2,1.8-2.7,3l-5.4,7.6c-3.3,3.9-8.6,5.3-13.4,3.6
			c-6.6-3.3-10.9-10-11.2-17.4v-1c-0.8-15.5,9.9-28.8,24.2-29.5l0,0c7.9-4.6,17.5-5.1,25.9-1.4l0,0c14.1-0.8,26.3,11.2,27.1,26.8v1
			c0.5,7.4-3,14.5-9.3,18.5C529.1,382.1,523.5,381.3,519.8,377.7L519.8,377.7z"/>
		<line class="st8" x1="503.7" y1="352.1" x2="504.5" y2="366.7"/>
		<path class="st9" d="M495.5,350.1l-2-2.7c-1.1-1.5-0.7-3.5,0.7-4.6c0.5-0.4,1.1-0.6,1.7-0.6l14.4-0.8c1.8-0.1,3.3,1.3,3.4,3.1
			c0,0.6-0.1,1.2-0.4,1.8l-1.7,3c-2.6,4.6-8.5,6.2-13.1,3.6C497.3,352.3,496.3,351.3,495.5,350.1L495.5,350.1z"/>
		<path class="st10" d="M522.9,307.6L522.9,307.6c-13.8-3.8-28.5-3-41.9,2.3l0,0"/>
		<path class="st3" d="M522.1,389.3l31.3-0.5c8.9-0.2,16.3,7,16.4,15.9l0,0c0.2,8.9-7,16.3-15.9,16.4l-31.3,0.5
			c-8.9,0.2-16.3-7-16.4-15.9l0,0C506.1,396.8,513.2,389.4,522.1,389.3z"/>
		<path class="st5" d="M522.1,389.3l31.3-0.5c8.9-0.2,16.3,7,16.4,15.9l0,0c0.2,8.9-7,16.3-15.9,16.4l-31.3,0.5
			c-8.9,0.2-16.3-7-16.4-15.9l0,0C506.1,396.8,513.2,389.4,522.1,389.3z"/>
		<path class="st11" d="M616.8,168.6c1.2-7.3,8.1-12.3,15.4-11.1c0.1,0,0.2,0,0.3,0.1l50.6,8.9c7.3,1.2,12.3,8.1,11.1,15.4
			c0,0.1,0,0.2,0,0.3l0,0c-1.3,7.4-8.3,12.3-15.7,11.1l-50.6-8.9C620.4,183,615.5,176,616.8,168.6L616.8,168.6L616.8,168.6z"/>
		<path class="st12" d="M792.1,278.9c5.1,0.8,9.9-2.5,10.7-7.6c2.3-13.2-71.2-112-107-118.1c-19.6-3.4-35.4-6.2-40.8,24.2l-7,39.9
			c-3.4,19.6,9.7,38.2,29.2,41.6l0,0l0,0L792.1,278.9L792.1,278.9z"/>
		<path class="st12" d="M670.9,269.9c-0.6,3.4,1.7,6.7,5.1,7.3l0,0l0,0c3.4,0.6,6.6-1.7,7.2-5.1l0,0l3.9-22.2c0.6-3.4-1.6-6.7-5-7.3
			c0,0,0,0-0.1,0l0,0c-3.4-0.6-6.7,1.7-7.3,5.1l0,0L670.9,269.9L670.9,269.9z"/>
		<path class="st12" d="M697,274.5c-0.6,3.4,1.7,6.7,5.1,7.3l0,0l0,0c3.4,0.6,6.7-1.7,7.3-5.1l0,0l3.9-22.3c0.6-3.4-1.7-6.7-5.1-7.3
			h-0.1l0,0c-3.4-0.6-6.7,1.7-7.3,5.1l0,0L697,274.5L697,274.5z"/>
		<path class="st11" d="M657.1,270.4c-0.4,2.2,1.1,4.2,3.2,4.6l56.2,9.8c2.1,0.4,4.2-1,4.6-3.2l0,0l0,0c0.4-2.1-1-4.2-3.2-4.6l0,0
			l-56.2-9.9C659.5,266.8,657.4,268.2,657.1,270.4L657.1,270.4L657.1,270.4z"/>
		<path class="st6" d="M668.6,172c-1.4,8,4,15.7,12,17.1c8,1.4,15.7-4,17.1-12c1.4-8-4-15.7-12-17.1l0,0
			C677.7,158.6,670,164,668.6,172L668.6,172z"/>
		<path class="st13" d="M664.2,304.2l44.1,0.2c7.5-77.1,76.1-133.6,153.2-126.2c77.1,7.5,133.6,76.1,126.2,153.2
			c-7,72-67.5,126.9-139.8,126.8H664.2c-42.6,0.8-77.7-33.1-78.5-75.6c-0.8-42.6,33.1-77.7,75.6-78.5
			C662.3,304.2,663.3,304.2,664.2,304.2L664.2,304.2z"/>
		<path class="st14" d="M664.2,304.2l44.1,0.2c7.5-77.2,76.1-133.7,153.3-126.2c14.4,1.4,28.5,5,41.9,10.7
			c43.8,64,27.5,151.3-36.5,195.1c-23.3,16-51,24.6-79.3,24.6H604c-4.1,0-8.1-0.3-12.1-1c-14.6-40,6-84.2,45.9-98.8
			C646.3,305.8,655.2,304.2,664.2,304.2L664.2,304.2z"/>
		<path class="st15" d="M657.3,345.2l114.1,37.6l0,0l2.5,0.9c52.4,17.2,110,2.2,147.3-38.4H657.3V345.2z"/>
		<path class="st16" d="M815.8,257.3l-50.1-54.5c-2.5-2.7-6.7-2.9-9.3-0.4c-0.3,0.2-0.5,0.5-0.7,0.8L719,249.7
			c-2,2.5-1.9,6.1,0.3,8.5l0.5,0.5l4.2,4.5c22.8,24.8,59.8,30.4,89,13.4c4.5-2.6,6.9-7.7,6.1-12.8
			C818.6,261.4,817.5,259.1,815.8,257.3L815.8,257.3z"/>
		<path class="st17" d="M827.3,226.3c0,0,21.5-30.6,27.4-91.6"/>
		<path class="st18" d="M610.9,341.2c-8.5,0.8-16-5.5-16.8-14l0,0c-0.9-8.4,5.2-15.9,13.6-16.8c0.1,0,0.2,0,0.3,0l50.4-4.7
			c8.5-0.8,16,5.4,16.8,13.9l0,0c0.8,8.5-5.4,16-13.8,16.8h-0.1L610.9,341.2L610.9,341.2z"/>
		<path class="st18" d="M850.4,290.4c3.2,54.5-35.8,65.3-91.1,68.6c-55.3,3.2-106.1-2.3-109.3-56.8s39.1-101.4,94.4-104.7
			C799.8,194.1,847.2,235.8,850.4,290.4L850.4,290.4z"/>
		<path class="st18" d="M670.7,368.2c-8,2.9-16.8-1.1-19.8-9.1l0,0c-3-7.9,0.9-16.7,8.8-19.8c0.1,0,0.2-0.1,0.2-0.1l47.4-17.6
			c8-2.9,16.8,1.1,19.8,9l0,0c3,7.9-1,16.8-8.9,19.8h-0.1L670.7,368.2L670.7,368.2z"/>
		<path class="st19" d="M611.7,286.5l11.5,48.1c2,8.4-3.2,16.7-11.5,18.7l0,0c-8.4,2-16.7-3.2-18.7-11.5l-11.5-48.1
			c-2-8.4,3.2-16.7,11.5-18.7l0,0C601.3,273,609.7,278.2,611.7,286.5z"/>
		<path class="st20" d="M897.8,186.7l-110.1,13.9c-4.1,0-81.8-7.7-101.1,30.2c-27.2,53.4,76.4,130.9,139,108
			C838.8,334,878,298,897.8,186.7L897.8,186.7z"/>
		<path class="st19" d="M674.3,308.3l3.2,49.4c0.6,8.6-5.9,16-14.5,16.5l0,0c-8.6,0.6-16-5.9-16.5-14.5l-3.2-49.4
			c-0.6-8.6,5.9-16,14.5-16.5l0,0C666.4,293.2,673.8,299.7,674.3,308.3z"/>
		<path class="st21" d="M798.8,247L798.8,247c5.2-3,11.8-1.2,14.8,4l28.6,50.1c3,5.2,1.2,11.8-4,14.8l0,0c-5.2,3-11.8,1.2-14.8-4
			l-28.6-50.1C791.8,256.6,793.6,250,798.8,247L798.8,247z"/>
		<path class="st21" d="M837.5,244.9L837.5,244.9c5.5,2.3,8.1,8.7,5.8,14.2l-22.4,53.2c-2.3,5.5-8.7,8.1-14.2,5.8l0,0
			c-5.5-2.3-8.1-8.7-5.8-14.2l22.4-53.2C825.7,245.1,832,242.6,837.5,244.9L837.5,244.9z"/>
		<path class="st11" d="M748,321.6c0-5.1,4.1-9.3,9.2-9.3c0,0,0,0,0.1,0h34.9c5.1,0,9.2,4.1,9.2,9.2c0,0,0,0,0,0.1l0,0
			c0,5.1-4.1,9.2-9.2,9.2h-34.9C752.1,330.7,748,326.6,748,321.6L748,321.6L748,321.6z"/>
		<path class="st11" d="M836.4,363.7c0-5.6-4.5-10.1-10.1-10.1h-22.9c-5.6,0-10.1,4.5-10.1,10.1s4.5,10.1,10.1,10.1h22.9
			C831.9,373.8,836.4,369.3,836.4,363.7L836.4,363.7z"/>
		<path class="st22" d="M845.2,367.9h-26.8c-27.7,0-50.1-22.4-50.1-50l0,0l0,0c0-26.4,21.4-47.9,47.9-47.9h74.3
			c9.1,0,16.6,7.4,16.6,16.5v19.7C907,340.2,879.3,367.9,845.2,367.9L845.2,367.9L845.2,367.9z"/>
		<path class="st22" d="M845.2,367.9h-26.8c-27.7,0-50.1-22.4-50.1-50l0,0l0,0c0-26.4,21.4-47.9,47.9-47.9h74.3
			c9.1,0,16.6,7.4,16.6,16.5v19.7C907,340.2,879.3,367.9,845.2,367.9L845.2,367.9L845.2,367.9z"/>
		<path class="st23" d="M851.7,363.7c0-5.6-4.5-10.1-10.1-10.1h-22.9c-5.6,0-10.1,4.5-10.1,10.1s4.5,10.1,10.1,10.1h22.9
			C847.1,373.8,851.7,369.3,851.7,363.7L851.7,363.7z"/>
		<path class="st6" d="M790,308.4c0,7.4,6,13.4,13.4,13.4s13.4-6,13.4-13.4s-6-13.4-13.4-13.4h-0.1c-7.3,0-13.3,5.9-13.3,13.3
			C790,308.3,790,308.3,790,308.4L790,308.4z"/>
		<path class="st22" d="M786,298.6c0,9.7,7.8,17.5,17.5,17.5s17.5-7.8,17.5-17.5s-7.8-17.5-17.5-17.5l0,0
			C793.9,281.1,786,288.9,786,298.6L786,298.6z"/>
		<path class="st24" d="M847.5,292.3c0-12.3,13.1-22.4,29.2-22.4h41.1c4.6,0,8.2,2.8,8.2,6.3v6.7c0,16.4-17.3,29.5-38.7,29.5H874
			C859.3,312.6,847.5,303.5,847.5,292.3L847.5,292.3z"/>
		<path class="st21" d="M842.5,327.6c0-9.1,7.4-16.5,16.5-16.5h23.2c2.6,0,4.6,2.1,4.6,4.6l0,0v4.9c0,12.1-9.8,21.8-21.8,21.8h-7.6
			C849.2,342.5,842.5,335.8,842.5,327.6L842.5,327.6L842.5,327.6z"/>
		<path class="st25" d="M820.8,226.3c0,2.5,0.8,5,2.2,7.1l65.8,97.7c5.3,7.8,15.9,9.9,23.7,4.7c1.4-1,2.7-2.2,3.8-3.5
			c19.6-24.8,20.9-59.5,3.2-85.7l-3.5-5.2c-19.2-28.4-55.5-39.5-87.3-26.8c-4.9,1.9-8,6.6-8.1,11.8L820.8,226.3L820.8,226.3z"/>
		<path class="st19" d="M791.2,164.4l-11.8-1.5c-14.1-1.8-24.1-14.7-22.3-28.8V134l0,0c1.8-14.1,14.7-24,28.8-22.2l16.1,2
			c5.1,0.7,8.8,5.4,8.1,10.5c-0.1,0.4-0.1,0.8-0.2,1.2l-8.4,32C800.4,162,795.9,165,791.2,164.4L791.2,164.4z"/>
		<path class="st6" d="M881.6,141.3c-3.6,13-17.1,20.6-30.1,16.9c-13-3.6-20.6-17.1-16.9-30.1c3.6-13,17.1-20.5,30.1-16.9
			C877.6,114.8,885.3,128.2,881.6,141.3L881.6,141.3L881.6,141.3z"/>
		<path class="st18" d="M885.1,180.3c-4.8,17.2-22.7,27.3-39.9,22.5s-27.3-22.7-22.5-39.9s22.6-27.3,39.8-22.5
			c17.2,4.7,27.3,22.4,22.6,39.5C885.2,180.1,885.1,180.2,885.1,180.3z"/>
		<path class="st26" d="M1064.8,431.8c2.2,1.3,2.9,4.2,1.6,6.4l0,0c-1.3,2.2-4.1,2.9-6.2,1.7c0,0,0,0-0.1,0l-28.2-16.6
			c-2.2-1.3-3-4.1-1.7-6.3l0,0l0,0c1.3-2.2,4.1-3,6.3-1.7c0,0,0,0,0.1,0L1064.8,431.8L1064.8,431.8z"/>
		<path class="st26" d="M1054.8,448.6c2.2,1.3,2.9,4.1,1.6,6.3l0,0c-1.3,2.2-4.1,3-6.3,1.7l0,0l-28.2-16.6c-2.2-1.3-3-4.1-1.7-6.4
			l0,0l0,0c1.3-2.2,4.1-2.9,6.3-1.6l0,0L1054.8,448.6L1054.8,448.6z"/>
		<path class="st26" d="M1076.7,420.6c2.4,1.4,3.2,4.5,1.8,6.9l0,0l-23.9,40.5c-1.4,2.4-4.5,3.2-6.9,1.8l0,0
			c-2.4-1.4-3.2-4.5-1.8-6.9l23.9-40.5C1071.2,419.9,1074.3,419.1,1076.7,420.6L1076.7,420.6z"/>
		<line class="st27" x1="1034.9" y1="355.3" x2="1057.9" y2="355.2"/>
		<path class="st28" d="M1047.8,406.3l-69.8,0.2l0,0l-0.2-61c-0.1-19.3,15.5-35,34.8-35l0,0c19.3-0.1,35,15.5,35,34.8L1047.8,406.3
			L1047.8,406.3L1047.8,406.3z"/>
		<path class="st28" d="M1003.4,456.6l-75.2,0.3l0,0l-0.1-27.5c-0.1-34.1,27.4-61.9,61.5-62l58-0.2l0,0l0.2,44.7
			C1047.9,436.5,1028,456.5,1003.4,456.6L1003.4,456.6L1003.4,456.6z"/>
		<path class="st29" d="M1033.3,412L1033.3,412c0.1,16.7-13.4,30.2-30.1,30.3l-60.8,0.2l0,0v-13.1c-0.1-26.2,21.1-47.5,47.2-47.6
			h13.4c16.7-0.1,30.4,13.5,30.4,30.2l0,0H1033.3L1033.3,412z"/>
		
			<ellipse transform="matrix(0.1602 -0.9871 0.9871 0.1602 512.9459 1301.0955)" class="st6" cx="1021.1" cy="349.1" rx="13.8" ry="13.8"/>
		
			<ellipse transform="matrix(0.1602 -0.9871 0.9871 0.1602 494.0953 1312.5393)" class="st28" cx="1018.4" cy="365.9" rx="13.8" ry="13.8"/>
		<path class="st11" d="M450.3,186.1c-1,2.7,0.3,5.7,3,6.8l0,0c2.7,1,5.8-0.3,6.9-3l7-17.8c1.1-2.7-0.3-5.8-3-6.9l0,0
			c-2.7-1-5.8,0.3-6.9,3L450.3,186.1z"/>
		<path class="st11" d="M471.1,194.4c-1,2.7,0.3,5.7,3,6.8l0,0c2.7,1.1,5.8-0.3,6.9-3l7-17.7c1.1-2.7-0.3-5.8-3-6.9l0,0
			c-2.7-1-5.7,0.4-6.8,3L471.1,194.4L471.1,194.4z"/>
		<path class="st11" d="M438.8,186.5c1.2-2.9,4.5-4.3,7.4-3.1l0,0l37.6,14.8c2.9,1.1,4.3,4.4,3.2,7.3l0,0l0,0
			c-1.1,2.9-4.4,4.3-7.3,3.2c0,0,0,0-0.1,0L442,193.9C439.1,192.7,437.7,189.4,438.8,186.5L438.8,186.5L438.8,186.5z"/>
		<path class="st30" d="M562.1,139.4c4.6-1.3,7.4-6.1,6.1-10.7l0,0c-1.3-4.6-6.1-7.4-10.7-6.1l-51.3,14.1c-4.6,1.3-7.4,6.1-6.1,10.7
			l0,0c1.3,4.6,6.1,7.4,10.7,6.1l0,0L562.1,139.4L562.1,139.4z"/>
		<path class="st30" d="M572.3,153.6c4.6-1.3,7.4-6.1,6.1-10.7l0,0c-1.3-4.6-6.1-7.4-10.7-6.1L516.3,151c-4.6,1.3-7.4,6.1-6.1,10.7
			l0,0l0,0c1.3,4.7,6.1,7.4,10.7,6.1l0,0L572.3,153.6L572.3,153.6z"/>
		<path class="st31" d="M453.8,67.7L453.8,67.7c38.2-10.5,77.8,12,88.3,50.2l0,0l11.3,41l0,0l-69.2,19l0,0L453.8,67.7L453.8,67.7
			L453.8,67.7z"/>
		<path class="st11" d="M410.7,132.1c-1.4-5.2,1.6-10.5,6.8-12l35.5-9.7c5.2-1.4,10.5,1.6,12,6.8l0,0c1.4,5.2-1.6,10.5-6.8,12
			l-35.5,9.7C417.5,140.3,412.2,137.2,410.7,132.1L410.7,132.1z"/>
		<path class="st31" d="M439.8,151c5.5,20,25.2,32.1,44,26.8l27.5-7.6l3.7-1c18.8-5.2,29.5-25.6,24.2-45.6l0,0
			c-5.4-20-25.2-32.2-44-26.8l-31.3,8.8c-18.8,5.2-29.5,25.6-24.2,45.6L439.8,151L439.8,151z"/>
		<path class="st31" d="M447.8,69.3l7.9-2.2c15.5-4.3,31.6,4.9,35.9,20.4l2.2,7.9c4.3,15.5-4.9,31.6-20.4,35.9l-7.9,2.2
			c-15.5,4.3-31.6-4.9-35.9-20.4l-2.2-7.9C423.1,89.6,432.2,73.5,447.8,69.3z"/>
		
			<rect x="433.9" y="103.7" transform="matrix(0.9642 -0.2652 0.2652 0.9642 -17.3752 124.1296)" class="st31" width="34.2" height="45.4"/>
		<path class="st6" d="M447,104c2.1,7.5,9.8,11.8,17.3,9.7c7.5-2.1,11.8-9.8,9.7-17.3c-2.1-7.5-9.8-11.8-17.3-9.7
			C449.3,88.8,444.9,96.5,447,104L447,104L447,104z"/>
		<line class="st32" x1="556.9" y1="157.5" x2="513.9" y2="169.3"/>
		<polyline class="st31" points="549.4,159.9 539.9,126.6 515.1,169.3 		"/>
		<path class="st33" d="M490.5,144.3c-8-5.3-10.2-16.1-4.9-24.1c0,0,0,0,0-0.1l13.6-20.4c1.5-2.3,4.5-2.9,6.8-1.4l0,0l4.5,3
			c10.6,7,13.5,21.3,6.5,31.9l0,0l-4.6,6.7C507.5,147.1,497.7,149.1,490.5,144.3L490.5,144.3z"/>
		<ellipse class="st1" cx="1195.2" cy="434.4" rx="51.1" ry="8.6"/>
		<circle class="st34" cx="1195.9" cy="377.3" r="57"/>
		<path class="st35" d="M1176.3,420c34.8,0,63-28.2,63-63c0-6.9-1.1-13.7-3.4-20.3c22.2,22.3,22.1,58.4-0.3,80.6
			c-22.3,22.2-58.4,22.1-80.6-0.3c-0.4-0.4-0.8-0.8-1.2-1.2C1161,418.6,1168.6,420,1176.3,420L1176.3,420z"/>
		<path class="st36" d="M1158.8,371.1c-1.2,1.2-3.1,1.2-4.3,0c-0.5-0.5-0.9-1.2-0.9-2c-1.1-18.7,13.3-34.7,32-35.8
			c1.3-0.1,2.5-0.1,3.8,0c1.7,0.1,3,1.5,2.9,3.2c0,0.8-0.4,1.5-0.9,2L1158.8,371.1L1158.8,371.1z"/>
		<path class="st11" d="M1201.2,322.4c0,3.4,2.8,6.1,6.1,6.1l0,0c3.4,0,6.2-2.7,6.2-6.1c0,0,0,0,0-0.1l6.3-22.1
			c0-3.4-2.8-6.2-6.2-6.2l0,0l0,0c-3.4,0-6.1,2.8-6.1,6.1l0,0L1201.2,322.4z"/>
		<path class="st37" d="M1264.5,225.9L1264.5,225.9c5.8,5.3,6.3,14.3,1.1,20.1l0,0l-27.5,30.5c-5.3,5.8-14.3,6.3-20.1,1.1l0,0l0,0
			L1264.5,225.9L1264.5,225.9z"/>
		<path class="st37" d="M1280.3,245.4L1280.3,245.4c0.9,7.8-4.7,14.9-12.5,15.8c-0.1,0-0.1,0-0.2,0l-40.8,4.6
			c-7.8,0.8-14.8-4.9-15.6-12.7l0,0l0,0L1280.3,245.4L1280.3,245.4z"/>
		<path class="st38" d="M1184.8,231.2h38.2c20.1,0,36.4,16.3,36.4,36.4l0,0c0,20.1-16.3,36.4-36.4,36.4h-38.2
			c-20.1,0-36.4-16.3-36.4-36.4l0,0C1148.4,247.5,1164.7,231.2,1184.8,231.2z"/>
		<path class="st11" d="M1175.2,322.4c0,3.4,2.8,6.1,6.1,6.1l0,0l0,0c3.4,0,6.1-2.7,6.1-6.1c0,0,0,0,0-0.1l6.3-22.1
			c0-3.4-2.7-6.1-6.1-6.2h-0.1l0,0c-3.4,0-6.2,2.7-6.2,6.1c0,0,0,0,0,0.1L1175.2,322.4z"/>
		<path class="st11" d="M1116.8,238.3c0-8.4,6.8-15.2,15.2-15.2c0,0,0,0,0.1,0h57.5c8.4,0,15.1,6.8,15.1,15.1l0,0l0,0
			c0,8.4-6.7,15.2-15.1,15.2c0,0,0,0-0.1,0H1132C1123.6,253.5,1116.8,246.7,1116.8,238.3L1116.8,238.3L1116.8,238.3z"/>
		<path class="st38" d="M1151.3,281.9l-15.1-35.1c-7.9-18.5,0.6-39.8,19.1-47.7l0,0c18.5-7.9,39.8,0.6,47.7,19.1l15.1,35.1
			c7.9,18.5-0.6,39.8-19.1,47.7l0,0C1180.6,308.9,1159.2,300.4,1151.3,281.9L1151.3,281.9z"/>
		<path class="st6" d="M1152.9,225.6c0,7,5.7,12.7,12.7,12.7s12.7-5.7,12.7-12.7s-5.7-12.6-12.6-12.7
			C1158.7,212.9,1153,218.5,1152.9,225.6C1152.9,225.5,1152.9,225.6,1152.9,225.6L1152.9,225.6z"/>
		<path class="st37" d="M1232.3,241.9L1232.3,241.9c4,14.3-4.3,29.1-18.6,33.1l0,0l-14.2,4c-8.8,2.3-17.9-2.8-20.5-11.6l0,0
			c-2.5-9,2.7-18.3,11.7-20.8l33.2-9.5C1227.5,236.1,1231.3,238.2,1232.3,241.9L1232.3,241.9L1232.3,241.9z"/>
		<path class="st11" d="M1164.7,323.6c0,3.1,2.5,5.5,5.6,5.5h47.6c3.1,0,5.5-2.5,5.6-5.5l0,0c0-3.1-2.5-5.6-5.6-5.6h-47.6
			C1167.2,318,1164.7,320.5,1164.7,323.6L1164.7,323.6z"/>
		<ellipse class="st1" cx="264.3" cy="438.9" rx="73.8" ry="8.8"/>
		<path class="st11" d="M170.4,338.7l3.4,17.4c0.5,2.7-1.2,5.2-3.9,5.8l0,0c-2.7,0.6-5.3-1.1-5.9-3.8c0-0.1,0-0.1,0-0.2l-3.4-17.4"
			/>
		<path class="st11" d="M150.1,342.7l3.4,17.4c0.6,2.7-1.1,5.3-3.8,5.9c0,0,0,0-0.1,0l0,0c-2.7,0.6-5.3-1.2-5.8-3.8c0,0,0,0,0-0.1
			l-3.4-17.6"/>
		<path class="st11" d="M184.4,358.3c-0.6-2.8-3.3-4.7-6.2-4.2l-36.8,7.2c-2.9,0.6-4.7,3.3-4.2,6.2l0,0c0.6,2.8,3.3,4.7,6.2,4.2
			l36.8-7.2C183,363.9,184.9,361.2,184.4,358.3L184.4,358.3z"/>
		<path class="st39" d="M94.6,334.4c-4,0.2-7.4-2.9-7.6-6.9c0,0,0,0,0-0.1l0,0c-0.2-4,2.9-7.4,7-7.6l44.4-1.9c4-0.2,7.4,3,7.6,7l0,0
			c0.1,4-3,7.4-7,7.6L94.6,334.4L94.6,334.4z"/>
		<path class="st39" d="M85.5,321.1c-4,0.2-7.4-2.9-7.6-6.9l0,0l0,0c-0.2-4,3-7.4,7-7.6l44.4-2c4-0.1,7.4,3,7.6,7l0,0
			c0.1,4-3,7.4-7,7.6L85.5,321.1L85.5,321.1z"/>
		<path class="st39" d="M75,307.9c-4,0.2-7.5-2.9-7.7-7l0,0c-0.2-4,3-7.4,7-7.6l44.5-1.9c4-0.2,7.4,3,7.6,7l0,0
			c0.2,4-2.9,7.4-6.9,7.6l0,0C119.5,305.9,75,307.9,75,307.9z"/>
		<path class="st11" d="M224.5,274.7c-0.2-5.7-5-10.1-10.7-9.8c0,0,0,0-0.1,0l-38.9,1.8c-5.7,0.2-10.1,5-9.9,10.7l0,0l0,0
			c0.2,5.7,5.1,10.1,10.7,9.9l38.9-1.8C220.3,285.1,224.7,280.3,224.5,274.7z"/>
		<path class="st40" d="M158.3,232.8l8.6-0.4c17.1-0.7,31.5,12.5,32.2,29.5l0.4,8.6c0.7,17.1-12.5,31.5-29.5,32.2l-8.6,0.4
			c-17.1,0.7-31.5-12.5-32.2-29.5l-0.4-8.6C128.1,248,141.3,233.5,158.3,232.8z"/>
		<path class="st40" d="M134.5,350.7l30-1.3c21.2-0.9,37.9-14.2,36.9-38l0,0c-0.9-20.1-18.8-35.6-40-34.6l-16.1,0.6
			c-21.2,0.9-51.4,21.5-49.9,54.7v-0.3C96.1,351.8,113.3,351.6,134.5,350.7L134.5,350.7z"/>
		
			<rect x="165.1" y="266.3" transform="matrix(0.9992 -3.995746e-02 3.995746e-02 0.9992 -11.4553 7.554)" class="st40" width="36.3" height="48.1"/>
		<path class="st6" d="M185.9,265.9c0.4,8.2-6,15.1-14.2,15.5s-15.1-6-15.5-14.2s6-15.1,14.2-15.5l0,0
			C178.6,251.4,185.5,257.7,185.9,265.9z"/>
		<path class="st40" d="M189.7,269.7c0.8,9-5.8,17-14.8,17.8c-8.1,0.7-15.5-4.5-17.4-12.4"/>
		<ellipse class="st29" cx="264.3" cy="403.7" rx="35.2" ry="35.2"/>
		<path class="st28" d="M252.2,430c21.5,0,38.9-17.4,38.9-38.9c0-4.3-0.7-8.5-2.1-12.5c14,13.5,14.3,35.8,0.8,49.8
			s-35.8,14.3-49.8,0.8c-0.6-0.6-1.2-1.2-1.7-1.8C242.8,429.2,247.5,430,252.2,430z"/>
		<path class="st41" d="M241.4,399.8c-0.7,0.7-1.9,0.7-2.7,0c-0.3-0.3-0.5-0.7-0.5-1.2c-0.7-11.5,8.1-21.4,19.7-22.1
			c0.8,0,1.6,0,2.4,0c1.1,0.1,1.8,1,1.8,2c0,0.4-0.2,0.9-0.5,1.2L241.4,399.8L241.4,399.8z"/>
		<path class="st42" d="M292,234.1c-0.8,11.4,7.7,21.3,19.1,22.1l36.5,2.7c11.4,0.9,21.3-7.7,22.1-19c0,0,0,0,0-0.1l0,0
			c0.8-11.4-7.7-21.3-19.1-22.1l0,0l-36.5-2.7C302.8,214.2,292.9,222.7,292,234.1L292,234.1L292,234.1z"/>
		<path class="st42" d="M382.3,262c-0.5,6.9,4.6,12.9,11.5,13.4l0,0l22.1,1.6c6.9,0.5,12.9-4.7,13.4-11.6l0,0
			c0.5-6.9-4.7-12.9-11.6-13.4l-22.1-1.6C388.8,250,382.8,255.2,382.3,262C382.3,262.1,382.3,262.1,382.3,262L382.3,262L382.3,262z"
			/>
		<path class="st42" d="M372.7,280.8c-0.5,6.9,4.7,12.9,11.6,13.4l22.1,1.6c6.9,0.5,12.9-4.7,13.4-11.6l0,0l0,0
			c0.5-6.9-4.6-12.9-11.5-13.4l0,0l-22.1-1.6C379.3,268.8,373.3,274,372.7,280.8L372.7,280.8L372.7,280.8z"/>
		<path class="st42" d="M360.4,299.4c-0.5,6.9,4.7,12.9,11.6,13.4l22.1,1.6c6.9,0.5,12.9-4.6,13.4-11.5l0,0l0,0
			c0.5-6.9-4.7-12.9-11.6-13.4l-22.1-1.6C367,287.4,361,292.5,360.4,299.4L360.4,299.4L360.4,299.4z"/>
		<path class="st11" d="M260.4,268.7c0.5-7.1,6.7-12.4,13.7-11.9l48.6,3.6c7.1,0.5,12.4,6.7,11.9,13.7l0,0l0,0
			c-0.5,7.1-6.7,12.4-13.8,11.9l-48.5-3.6C265.3,282,259.9,275.8,260.4,268.7L260.4,268.7L260.4,268.7z"/>
		<path class="st11" d="M333.6,331.2c0.4,2.3,2.5,3.8,4.8,3.4l0,0l0,0c2.3-0.4,3.8-2.5,3.4-4.8l0,0l-2.5-14.7
			c-0.4-2.3-2.5-3.8-4.8-3.4l0,0c-2.3,0.4-3.8,2.5-3.4,4.7c0,0,0,0,0,0.1L333.6,331.2L333.6,331.2z"/>
		<path class="st11" d="M350.9,328.4c0.4,2.2,2.5,3.8,4.7,3.4c0,0,0,0,0.1,0l0,0c2.3-0.4,3.8-2.5,3.4-4.8l0,0l-2.5-14.7
			c-0.4-2.2-2.5-3.8-4.8-3.4l0,0l0,0c-2.3,0.4-3.8,2.5-3.4,4.8l0,0L350.9,328.4L350.9,328.4z"/>
		<path class="st11" d="M320.4,337.7c0.4,2.4,2.7,4.1,5.1,3.7c0,0,0,0,0.1,0l41.7-7.1c2.4-0.4,4.1-2.7,3.7-5.1c0,0,0,0,0-0.1l0,0
			c-0.4-2.5-2.7-4.1-5.2-3.7l0,0l-41.7,7.1C321.7,332.9,320,335.2,320.4,337.7L320.4,337.7L320.4,337.7z"/>
		<path class="st43" d="M286.2,274.5c1.8-25.1,23.7-44.1,48.8-42.3c0.1,0,0.1,0,0.2,0l64.3,4.8c7.1,0.5,12.5,6.7,12,13.9l-1,13.6
			c-2.6,33.3-31.6,58.2-64.9,55.8l-21-1.5C301.7,317.1,284.6,297.3,286.2,274.5L286.2,274.5L286.2,274.5z"/>
		<path class="st6" d="M304.1,259.3c-0.5,6.9,4.7,12.9,11.6,13.4s12.9-4.7,13.4-11.6c0.5-6.9-4.7-12.9-11.6-13.4l0,0
			C310.6,247.2,304.6,252.4,304.1,259.3z"/>
		<path class="st43" d="M306,275.9c-0.5,6.9,4.7,12.9,11.6,13.4s12.9-4.7,13.4-11.6s-4.7-12.9-11.6-13.4l0,0
			C312.6,263.8,306.6,269,306,275.9z"/>
		<path class="st44" d="M141,372.2L369,333c5.3-0.9,10.4,2.7,11.3,8l0,0c0.9,5.3-2.7,10.4-8,11.3l-228,39.2
			c-5.3,0.9-10.4-2.7-11.3-8l0,0C132.1,378.2,135.7,373.1,141,372.2L141,372.2z"/>
		<path class="st45" d="M1050.8,25.7c-2.9-1.5-6.5-0.4-8.1,2.5c-0.3,0.5-0.5,1-0.6,1.6c-2.3,13.3,6.6,26,19.9,28.4
			c8.4,1.5,17-1.5,22.7-8c1.6-1.8,1.4-4.5-0.4-6.1c-0.2-0.2-0.5-0.4-0.8-0.6L1050.8,25.7L1050.8,25.7z"/>
		
			<rect x="1049.3" y="101.3" transform="matrix(0.9976 -6.923416e-02 6.923416e-02 0.9976 -6.7841 73.3646)" class="st11" width="11.4" height="66.5"/>
		
			<rect x="1029.5" y="102.7" transform="matrix(0.9976 -6.923416e-02 6.923416e-02 0.9976 -6.9284 71.9972)" class="st11" width="11.4" height="66.5"/>
		<path class="st11" d="M1072.7,171.7l-48.2,3.3c-2.8,0.2-5.2-1.9-5.4-4.6l0,0c-0.2-2.8,1.9-5.1,4.7-5.3l48.2-3.3
			c2.8-0.2,5.2,1.9,5.4,4.6l0,0C1077.6,169.1,1075.5,171.5,1072.7,171.7z"/>
		<path class="st46" d="M1025.6,144.4l-23.6-12.9c-26-14.2-35.6-46.8-21.5-72.9l6.4-11.8c1.4-2.5,4.5-3.5,7.1-2.1l0,0l66.2,36.1
			c16.3,8.9,22.3,29.2,13.4,45.5l-2.5,4.6C1062.2,147.2,1041.9,153.2,1025.6,144.4L1025.6,144.4z"/>
		<path class="st45" d="M1004.5,38L1004.5,38c-16.6,8.6-23.1,29.1-14.5,45.6c0,0,0,0.1,0.1,0.1l8.6,16.5c5.4,10.3,18.1,14.3,28.5,9
			l0,0c10.4-5.5,14.4-18.3,9.1-28.8l-20.1-38.8C1014,37.5,1008.7,35.9,1004.5,38L1004.5,38z"/>
		<path class="st47" d="M1076.2,84.4l24.2,13.1c4.9,2.6,11,0.8,13.6-4l0,0c2.6-4.9,0.8-11-4-13.6l-24.2-13.1c-4.9-2.6-11-0.8-13.6,4
			l0,0C1069.5,75.6,1071.3,81.7,1076.2,84.4z"/>
		<path class="st45" d="M1034.3,66.8l39.5,59.7l22.2-40.8c8.2-15.1,2.6-33.9-12.4-42.1c-15.1-8.2-33.9-2.6-42.1,12.4l-1.7,3.2
			C1038.3,61.9,1036.5,64.5,1034.3,66.8"/>
		<path class="st6" d="M1064.4,68.5L1064.4,68.5c0.2-6.3,5.4-11.2,11.6-11c6.2,0.2,11.1,5.4,10.9,11.6c-0.2,4.7-3.3,8.9-7.8,10.4
			L1064.4,68.5L1064.4,68.5z"/>
	</g>
</g>
</svg>
