<?xml version="1.0" encoding="utf-8"?>
<!-- Generator: Adobe Illustrator 27.5.0, SVG Export Plug-In . SVG Version: 6.00 Build 0)  -->
<svg version="1.1" id="a" xmlns="http://www.w3.org/2000/svg" xmlns:xlink="http://www.w3.org/1999/xlink" x="0px" y="0px"
	 viewBox="0 0 566.9 566.9" style="enable-background:new 0 0 566.9 566.9;" xml:space="preserve">
<style type="text/css">
	.st0{fill:#614368;stroke:#000000;stroke-miterlimit:10;}
	.st1{fill:#F14883;}
	.st2{fill:#CFEDF4;}
	.st3{fill:#78CFE8;}
	.st4{fill:#CCEDF4;}
	.st5{fill:#79CEE9;}
	.st6{fill:#EBE8E5;}
	.st7{fill:#F9DCB2;}
	.st8{fill:#CEECF4;}
	.st9{fill:#B4D6DB;}
	.st10{fill:#79CEE2;}
	.st11{fill:#EE4983;}
	.st12{fill:#78CFEA;}
	.st13{fill:#E8F3F9;}
</style>
<rect y="0" class="st0" width="566.9" height="566.9"/>
<g id="b">
	<g id="c">
		<g id="d">
			<g id="e">
				<g id="f">
					<g id="g">
						<path id="h" class="st1" d="M443.6,71.4c-22.8-25.3-60.3,11.6,6.7,43.1C504.5,64.1,457.5,40.4,443.6,71.4z"/>
					</g>
				</g>
				<g id="i">
					<g id="j">
						<path id="k" class="st1" d="M487.9,130.2c7.9-19.7-23.1-30.5-22.2,15.6C508.8,162.2,509.1,129.4,487.9,130.2z"/>
					</g>
				</g>
				<g id="l">
					<g id="m">
						<path id="n" class="st1" d="M423.8,142.5c-24.3-11.6-40.4,26.8,18,29.4C466,118.7,424.6,115.7,423.8,142.5z"/>
					</g>
				</g>
			</g>
		</g>
		<g id="o">
			<path id="p" d="M476.4,65.7c-2.1-5.9-7.6-9.8-13.9-10c-6.1-0.2-14.2,3.1-19.4,12.6c-8.5-8.1-18.4-8.5-24.7-5.1
				c-6.6,3.6-9.3,10.8-7.1,18.9c0.3,0.9,1.2,1.5,2.2,1.2c0.9-0.3,1.5-1.2,1.2-2.2l0,0c-1.8-6.3,0.3-12,5.4-14.8
				c5.5-3,14.5-2.3,22.1,6.2c0.6,0.7,1.8,0.8,2.5,0.1c0.2-0.2,0.3-0.4,0.4-0.6c4.4-9.8,11.8-13,17.2-12.9c4.8,0.1,9.1,3.1,10.7,7.7
				c1.5,4.1,4.4,19.5-23.1,45.4c-3.3-1.6-6.3-3.2-9.1-4.7c-0.9-0.5-1.9-0.2-2.4,0.7c-0.5,0.8-0.2,1.9,0.7,2.4l0,0
				c3.1,1.8,6.6,3.6,10.4,5.4c0.6,0.3,1.4,0.2,2-0.3C480.7,88.7,478.6,71.7,476.4,65.7L476.4,65.7z"/>
			<path id="q" d="M429.4,104.5c0.8,0.6,1.9,0.5,2.5-0.3c0.6-0.8,0.5-1.9-0.3-2.5c0,0,0,0-0.1-0.1c-4.4-3.1-8.3-6.8-11.7-11
				c-0.6-0.8-1.7-0.9-2.5-0.3s-0.9,1.7-0.3,2.5C420.5,97.2,424.7,101.2,429.4,104.5L429.4,104.5z"/>
			<path id="r" d="M502.4,136.1c-1.6-3.5-5.6-7.1-12.1-7.7c1.7-6.4-0.4-11.3-3.1-14c-3-2.9-7.4-3.8-11.2-2.1
				c-3.8,1.7-12.6,8.2-12.1,33.5c0,0.7,0.5,1.4,1.1,1.6c9.2,3.5,16.2,4.7,21.5,4.7c8.3,0,12.4-3,14.1-4.8
				C503.5,144.3,504.2,139.9,502.4,136.1L502.4,136.1z M498,144.9c-1.8,1.9-9.3,7.5-30.6-0.4c-0.2-22.7,7.6-27.9,10-28.9
				c2.5-1.1,5.4-0.6,7.3,1.3c2.3,2.2,3.9,6.6,1.5,12.5c-0.2,0.6-0.1,1.2,0.2,1.7c0.4,0.5,0.9,0.8,1.5,0.8c6.3-0.2,10,2.8,11.3,5.7
				C500.4,140,499.9,143,498,144.9L498,144.9L498,144.9z"/>
			<path id="s" d="M444.5,126.6c-3.8-2.8-8.8-3.2-12.9-1.1c-5.1,2.5-8.5,7.8-9.3,14.4c-8-2.9-14.5-0.7-18,2.5
				c-3.8,3.4-5.1,8.7-3.4,13.5c1.8,4.9,9.2,16.3,40.9,17.7h0.1c0.7,0,1.3-0.4,1.6-1c1.6-3.5,3-7.1,4.2-10.7c0.3-0.9-0.2-1.9-1.1-2.2
				s-1.9,0.2-2.2,1.1c-1,2.9-2.2,6-3.6,9.3c-29.3-1.6-35.4-12.1-36.5-15.3c-1.3-3.4-0.3-7.3,2.4-9.7c3.1-2.8,9-4.5,16.5-1
				c0.9,0.4,1.9,0.1,2.4-0.8c0.1-0.2,0.2-0.5,0.2-0.7c0.2-6.5,3-11.7,7.5-13.9c3-1.5,6.6-1.3,9.3,0.7c4.5,3.4,6.2,10.9,4.6,20.6
				c-0.2,1,0.5,1.9,1.5,2c1,0.2,1.9-0.5,2-1.5C452.3,139.5,450.1,130.8,444.5,126.6L444.5,126.6z"/>
		</g>
	</g>
	<g id="t">
		<g id="u">
			<circle id="v" class="st2" cx="114.1" cy="434.4" r="10.7"/>
			<g id="w">
				<g id="x">
					<g id="y">
						<path id="z" class="st1" d="M114.1,402.2c-12.2-18.8-40.4,1.4,0,28.7C154.5,403.6,126.3,383.4,114.1,402.2z"/>
					</g>
				</g>
			</g>
			<g id="aa">
				<g id="ab">
					<g id="ac">
						<g id="ad">
							<path id="ae" class="st3" d="M114.1,509.8c-19.6,0-35.5-15.9-35.5-35.5s15.9-35.5,35.5-35.5s35.5,15.9,35.5,35.5l0,0
								C149.6,493.9,133.7,509.8,114.1,509.8z M114.1,446.7c-15.2,0-27.6,12.3-27.6,27.6s12.3,27.6,27.6,27.6s27.6-12.3,27.6-27.6
								l0,0C141.7,459,129.3,446.7,114.1,446.7z"/>
						</g>
					</g>
				</g>
			</g>
		</g>
		<g id="af">
			<path id="ag" d="M122.2,507c-5.2,1.3-10.6,1.3-15.8,0.1c-1-0.2-1.9,0.4-2.1,1.3s0.4,1.9,1.3,2.1c5.8,1.3,11.8,1.3,17.5-0.1
				c0.9-0.2,1.5-1.2,1.3-2.2C124.1,507.4,123.2,506.8,122.2,507L122.2,507z"/>
			<path id="ah" d="M143.5,474.2c0-16.2-13.1-29.4-29.3-29.4S84.8,458,84.8,474.2s13.1,29.4,29.3,29.4l0,0
				C130.3,503.6,143.4,490.4,143.5,474.2L143.5,474.2z M88.3,474.2c0-14.2,11.5-25.8,25.8-25.8s25.8,11.5,25.8,25.8
				S128.4,500,114.1,500C99.9,500,88.3,488.5,88.3,474.2z"/>
			<path id="ai" d="M125.8,438.8c1.7-4.4,0.7-9.3-2.4-12.8c3.6-3,6.8-6.5,9.5-10.3c0.5-0.8,0.3-1.9-0.5-2.5
				c-0.8-0.5-1.9-0.3-2.4,0.5c-2.9,4.1-6.3,7.7-10.3,10.8h0c-0.8,0.7-1.7,1.4-2.6,2s-1.9,1.4-2.9,2.1c-0.5-0.4-1-0.7-1.5-1
				c-1.4-1-2.8-2.1-4-3.1c0,0,0,0,0,0c-10-8.1-15-16.6-13.4-22.7c0.7-2.8,3-4.8,5.8-5.2c3.3-0.5,8,0.9,11.6,6.4
				c0.5,0.8,1.6,1,2.5,0.5c0.2-0.1,0.4-0.3,0.5-0.5c4-6.1,9.3-7.2,12.6-6.2c3.2,0.9,5.3,3.9,5.1,7.2c0,1,0.8,1.8,1.8,1.8h0
				c1,0,1.8-0.8,1.8-1.8c0.2-4.9-3-9.2-7.7-10.6c-4.1-1.2-10.2-0.3-15.1,5.6c-3.7-4.5-8.8-6.7-13.7-6c-4.2,0.6-7.6,3.6-8.7,7.8
				c-0.9,3.5-1.4,12.7,13.1,25.1c-3.2,3.5-4.1,8.4-2.4,12.8c-19.6,6.4-30.2,27.5-23.8,47.1c2.8,8.4,8.4,15.5,15.9,20.1
				c0.8,0.5,1.9,0.2,2.4-0.6c0.5-0.8,0.2-1.9-0.6-2.4c-15.9-9.8-20.8-30.5-11.1-46.4c4.5-7.4,11.7-12.7,20-14.9h0
				c5.7-1.5,11.8-1.5,17.5,0h0c18,4.8,28.7,23.3,23.8,41.3c-2.2,8.2-7.4,15.2-14.6,19.8c-0.8,0.5-1,1.6-0.5,2.5
				c0.5,0.8,1.6,1,2.4,0.5c17.4-11,22.6-34,11.6-51.4C141,447,134,441.6,125.8,438.8L125.8,438.8L125.8,438.8z M120.9,437.6
				c-0.5-0.1-0.9-0.2-1.4-0.2c-0.3,0-0.6-0.1-0.9-0.1c-0.5-0.1-1-0.1-1.5-0.1c-0.3,0-0.5,0-0.8-0.1c-0.7,0-1.3-0.1-2-0.1h-0.5
				c-0.7,0-1.4,0-2.1,0.1c-0.2,0-0.5,0-0.8,0.1c-0.5,0-1,0.1-1.5,0.1c-0.3,0-0.6,0.1-0.8,0.1c-0.5,0.1-1,0.1-1.4,0.2
				c-0.3,0.1-0.6,0.1-0.9,0.2c-0.2,0-0.4,0.1-0.5,0.1c-1.4-3.3-0.7-7,1.7-9.6l0,0c0.8,0.6,1.6,1.2,2.4,1.8c0.2,0.1,0.3,0.2,0.5,0.4
				c0.8,0.6,1.7,1.2,2.6,1.8c0.3,0.2,0.6,0.3,1,0.3l0,0c0.3,0,0.7-0.1,1-0.3l0.1,0c0.8-0.6,1.6-1.1,2.4-1.7c0.2-0.1,0.4-0.3,0.6-0.5
				c0.8-0.6,1.6-1.2,2.3-1.8l0.1,0c2.4,2.6,3.1,6.3,1.7,9.6c-0.2,0-0.3-0.1-0.5-0.1C121.6,437.7,121.2,437.6,120.9,437.6
				L120.9,437.6L120.9,437.6z"/>
		</g>
	</g>
	<g id="aj">
		<path id="ak" class="st4" d="M509.2,255.3v56.3c0,5.6-4.5,10.1-10.1,10.1h-94.6c-5.6,0-10.1-4.5-10.1-10.1v-56.3
			c0-5.6,4.5-10.1,10.1-10.1H499C504.6,245.2,509.1,249.7,509.2,255.3z"/>
		<path id="al" class="st3" d="M505.7,247.7l-49.7,35.8l-4.2,3l-4.2-3l-49.7-35.8c1.8-1.6,4.2-2.5,6.6-2.5H499
			C501.5,245.2,503.8,246.1,505.7,247.7L505.7,247.7z"/>
		<path id="am" class="st3" d="M505.7,319.3c-1.8,1.6-4.2,2.5-6.6,2.5h-94.6c-2.5,0-4.8-0.9-6.6-2.5l49.7-35.8l4.2-3l4.2,3
			L505.7,319.3L505.7,319.3z"/>
		<path id="an" class="st1" d="M451.7,272c-13.2-20.2-43.5,1.5,0,30.9C495.2,273.5,464.9,251.8,451.7,272z"/>
		<g id="ao">
			<path id="ap" d="M506.8,246.4c-2.2-1.9-5-2.9-7.8-2.9h-6.7c-1,0-1.8,0.8-1.8,1.8s0.8,1.8,1.8,1.8h6.7c0.3,0,0.6,0,0.9,0.1
				c0.1,0,0.2,0,0.3,0c0.2,0,0.4,0.1,0.6,0.1c0.1,0,0.2,0,0.3,0.1c0.2,0,0.4,0.1,0.5,0.1c0.1,0,0.2,0.1,0.3,0.1
				c0.2,0.1,0.4,0.1,0.6,0.2c0.1,0,0.1,0.1,0.2,0.1L474.5,268c-0.1-0.2-0.2-0.3-0.3-0.5s-0.2-0.3-0.3-0.4c-0.2-0.3-0.4-0.6-0.7-0.9
				c-0.1-0.1-0.1-0.2-0.2-0.3c-0.3-0.4-0.7-0.7-1-1c-0.1-0.1-0.2-0.1-0.3-0.2c-0.3-0.2-0.6-0.4-0.9-0.6c0,0-0.1-0.1-0.1-0.1
				c-0.1,0-0.2-0.1-0.3-0.1c-0.3-0.2-0.6-0.3-0.9-0.4c-0.2-0.1-0.3-0.1-0.5-0.2c-0.3-0.1-0.6-0.2-1-0.3c-0.1-0.1-0.3-0.1-0.5-0.1
				c-0.5-0.1-1-0.2-1.5-0.3c-5.1-0.7-10.5,1.8-14.4,6.5c-3.9-4.7-9.2-7.2-14.4-6.5c-0.5,0.1-1,0.2-1.5,0.3c-0.2,0-0.3,0.1-0.5,0.1
				c-0.3,0.1-0.7,0.2-1,0.3c-0.2,0.1-0.3,0.1-0.5,0.2c-0.3,0.1-0.6,0.3-0.9,0.4c-0.1,0.1-0.3,0.2-0.4,0.2c-0.3,0.2-0.6,0.4-0.9,0.6
				c-0.1,0.1-0.2,0.1-0.3,0.2c-0.4,0.3-0.7,0.6-1,1c-0.1,0.1-0.1,0.2-0.2,0.3c-0.2,0.3-0.5,0.6-0.7,0.9c-0.1,0.1-0.2,0.3-0.3,0.4
				c-0.1,0.1-0.2,0.3-0.3,0.5l-28.1-20.2c0,0,0.1,0,0.1-0.1c0.2-0.1,0.4-0.2,0.6-0.2c0.1,0,0.2-0.1,0.3-0.1c0.2-0.1,0.4-0.1,0.5-0.1
				c0.1,0,0.2-0.1,0.3-0.1c0.2,0,0.4-0.1,0.6-0.1c0.1,0,0.2,0,0.3,0c0.3,0,0.6-0.1,0.9-0.1h6.7c1,0,1.8-0.8,1.8-1.8
				s-0.8-1.8-1.8-1.8h-6.7c-2.9,0-5.7,1-7.8,2.9l0,0c-2.6,2.3-4.1,5.5-4.1,9v56.3c0,6.6,5.3,11.9,11.9,11.9h94.6
				c2.9,0,5.7-1,7.8-2.9l0,0c2.6-2.3,4.1-5.5,4.1-9v-56.3C511,251.9,509.5,248.6,506.8,246.4L506.8,246.4z M507.4,311.7
				c0,1.9-0.7,3.8-1.9,5.3l-36.7-26.4c4.6-5.4,6.5-10,7.1-13.6c0.1-0.3,0.1-0.7,0.1-1c0,0,0-0.1,0-0.1c0.1-1.5,0.1-3-0.2-4.4
				l29.7-21.4c1.2,1.5,1.9,3.4,1.9,5.3L507.4,311.7L507.4,311.7z M437.8,266c0.4,0,0.8-0.1,1.1-0.1h0.4c0.1,0,0.2,0,0.3,0
				c0.2,0,0.4,0,0.6,0c0.1,0,0.2,0,0.2,0c0.2,0,0.4,0.1,0.6,0.1c0.1,0,0.1,0,0.2,0c0.2,0,0.5,0.1,0.8,0.2h0c0.9,0.3,1.7,0.6,2.4,1
				l0.1,0.1c0.2,0.1,0.5,0.3,0.7,0.4c0.1,0,0.1,0.1,0.2,0.1c0.2,0.1,0.4,0.3,0.6,0.4c0.1,0,0.1,0.1,0.2,0.2c0.2,0.1,0.3,0.3,0.5,0.4
				c0.1,0.1,0.2,0.1,0.2,0.2c0.2,0.1,0.3,0.3,0.5,0.4c0.1,0.1,0.2,0.2,0.2,0.2c0.1,0.1,0.3,0.3,0.4,0.4c0.1,0.1,0.2,0.2,0.2,0.3
				c0.1,0.2,0.3,0.3,0.4,0.5c0.1,0.1,0.2,0.2,0.2,0.3c0.1,0.2,0.3,0.4,0.4,0.6c0.1,0.1,0.1,0.2,0.2,0.3c0.2,0.3,0.4,0.6,0.6,0.9
				c0.5,0.8,1.6,1,2.5,0.5c0.2-0.1,0.4-0.3,0.5-0.5c3.2-5,7.9-7.6,12.4-7c0.4,0.1,0.8,0.1,1.1,0.2c2.1,0.5,3.9,2,4.9,4
				c0.2,0.3,0.3,0.7,0.4,1l0,0c0.3,0.9,0.5,1.9,0.5,2.9c0,0.4,0,0.8-0.1,1.2c-0.3,3.5-2.2,7.6-5.5,11.8c-0.7,0.8-1.4,1.7-2.2,2.5
				l0,0c-3.9,4.2-8.3,7.9-13.1,11.1c-0.7-0.5-1.3-0.9-2-1.4c-4-2.9-7.8-6.1-11.1-9.7c-6.2-6.8-8.9-13.5-7.3-18.4
				C432.3,268.4,434.8,266.3,437.8,266L437.8,266L437.8,266z M396.1,311.7v-56.3c0-1.9,0.7-3.8,1.9-5.3l29.7,21.4
				c0,0.1,0,0.2-0.1,0.3c-0.1,0.8-0.2,1.6-0.2,2.4c0,3.9,1.4,9.5,7.3,16.4L398,317C396.7,315.5,396.1,313.6,396.1,311.7L396.1,311.7
				L396.1,311.7z M404.4,320c-0.3,0-0.6,0-0.9,0c-0.1,0-0.2,0-0.3,0c-0.2,0-0.4-0.1-0.6-0.1c-0.1,0-0.2,0-0.3-0.1
				c-0.2,0-0.4-0.1-0.5-0.1c-0.1,0-0.2-0.1-0.3-0.1c-0.2-0.1-0.4-0.1-0.5-0.2c-0.1,0-0.1,0-0.2-0.1l36.2-26c0.1,0.1,0.1,0.1,0.2,0.2
				c0.2,0.2,0.4,0.4,0.6,0.6c0.3,0.3,0.6,0.6,0.9,0.9c0.2,0.2,0.4,0.4,0.6,0.6c0.3,0.3,0.6,0.6,1,0.9c0.2,0.2,0.5,0.4,0.7,0.6
				c0.3,0.3,0.7,0.6,1,0.9c0.2,0.2,0.5,0.4,0.7,0.6c0.4,0.3,0.7,0.6,1.1,0.9c0.2,0.2,0.5,0.4,0.8,0.6c0.4,0.3,0.8,0.6,1.2,0.9
				c0.2,0.2,0.5,0.4,0.8,0.6c0.4,0.3,0.9,0.7,1.4,1c0.2,0.2,0.4,0.3,0.7,0.5c0.7,0.5,1.4,1,2.1,1.5c0.6,0.4,1.4,0.4,2,0
				c0.7-0.5,1.4-1,2.1-1.5l0.1-0.1c0.2-0.1,0.4-0.3,0.6-0.4c0.5-0.3,0.9-0.7,1.4-1c0.3-0.2,0.5-0.4,0.8-0.6c0.4-0.3,0.8-0.6,1.2-0.9
				c0.2-0.2,0.4-0.3,0.6-0.5l0.1-0.1c0.4-0.3,0.7-0.6,1.1-0.9c0.2-0.2,0.5-0.4,0.8-0.6c0.3-0.3,0.7-0.6,1-0.9
				c0.2-0.2,0.5-0.4,0.7-0.6c0.3-0.3,0.6-0.6,0.9-0.9c0.2-0.2,0.5-0.4,0.7-0.6c0.3-0.3,0.6-0.6,0.9-0.9c0.2-0.2,0.4-0.4,0.6-0.6
				c0.1-0.1,0.1-0.1,0.2-0.2l36.2,26c0,0-0.1,0-0.2,0.1c-0.2,0.1-0.4,0.2-0.6,0.2c-0.1,0-0.2,0.1-0.3,0.1c-0.2,0.1-0.4,0.1-0.5,0.1
				c-0.1,0-0.2,0-0.3,0.1c-0.2,0-0.4,0.1-0.6,0.1c-0.1,0-0.2,0-0.3,0c-0.3,0-0.6,0-0.9,0L404.4,320L404.4,320z"/>
			<path id="aq" d="M450,247h30.9c1,0,1.8-0.8,1.8-1.8s-0.8-1.8-1.8-1.8H450c-1,0-1.8,0.8-1.8,1.8S449.1,247,450,247z"/>
			<path id="ar" d="M422.6,247h16.1c1,0,1.8-0.8,1.8-1.8s-0.8-1.8-1.8-1.8h-16.1c-1,0-1.8,0.8-1.8,1.8S421.6,247,422.6,247z"/>
		</g>
	</g>
	<g id="as">
		<g id="at">
			<path id="au" class="st5" d="M330.5,104.9c0,12.8-5.1,25.1-14.3,34v33.1l-19.9-21.4c-25.2,7.4-51.7-7-59.1-32.2
				c-7.4-25.2,7-51.7,32.2-59.1c25.2-7.4,51.7,7,59.1,32.2C329.9,95.9,330.5,100.4,330.5,104.9L330.5,104.9z"/>
			<path id="av" class="st1" d="M282.9,96.3c-13.7-21-45.2,1.6,0,32.1C328.1,97.9,296.6,75.3,282.9,96.3z"/>
		</g>
		<g id="aw">
			<path id="ax" d="M332.2,103c-0.1-1-0.9-1.7-1.9-1.7c-1,0.1-1.7,0.9-1.6,1.8c0,0.6,0,1.2,0,1.8c0,12.3-4.9,24.2-13.8,32.7
				c-0.3,0.3-0.5,0.8-0.5,1.3v28.6l-16.8-18.1c-0.5-0.5-1.1-0.7-1.8-0.5c-16.7,4.9-34.7-0.1-46.5-12.8c-0.7-0.7-1.8-0.8-2.5-0.1
				c-0.7,0.7-0.8,1.8-0.1,2.5c12.5,13.4,31.4,18.9,49.1,14.1l19.1,20.6c0.7,0.7,1.8,0.8,2.5,0.1c0.4-0.3,0.6-0.8,0.6-1.3v-32.4
				c9.2-9.2,14.4-21.7,14.3-34.8C332.3,104.3,332.3,103.6,332.2,103L332.2,103z"/>
			<path id="ay" d="M327,92.3c0.3,0.9,1.3,1.5,2.2,1.2c0.9-0.3,1.4-1.2,1.2-2.1c-1.6-5.5-4.1-10.7-7.5-15.3c-0.6-0.8-1.7-1-2.5-0.4
				c-0.8,0.6-1,1.7-0.4,2.5C323.2,82.4,325.5,87.2,327,92.3z"/>
			<path id="az" d="M237.1,104.9c0-25.3,20.5-45.8,45.8-45.8c10.9,0,21.4,3.9,29.7,10.9c0.8,0.6,1.9,0.6,2.5-0.2s0.5-1.9-0.2-2.5
				C294.1,49.7,263,52.2,245.3,73c-13.3,15.7-15.5,38-5.5,56c0.5,0.9,1.6,1.2,2.4,0.7c0.9-0.5,1.2-1.6,0.7-2.4
				C239.1,120.4,237.1,112.7,237.1,104.9L237.1,104.9z"/>
			<path id="ba" d="M298.5,86.6c-4.5-0.8-10.7,0.6-15.6,6.7c-4.9-6.1-11.2-7.6-15.6-6.7c-4.7,0.8-8.4,4.5-9.4,9.2
				c-1,4.7-0.6,17.5,24,34.1c0.6,0.4,1.4,0.4,2,0c24.6-16.6,25-29.4,24-34.1C307,91.1,303.3,87.4,298.5,86.6L298.5,86.6z
				 M282.9,126.3c-22.4-15.5-22.1-26.7-21.5-29.8c0.6-3.3,3.2-5.9,6.5-6.4c0.6-0.1,1.2-0.2,1.8-0.2c3.6,0,8.1,1.9,11.7,7.4
				c0.5,0.8,1.6,1.1,2.4,0.5c0.2-0.1,0.4-0.3,0.5-0.5c4.2-6.4,9.7-7.9,13.5-7.2c3.3,0.6,5.9,3.1,6.5,6.4
				C305,99.6,305.3,110.8,282.9,126.3L282.9,126.3L282.9,126.3z"/>
		</g>
	</g>
	<g id="bb">
		<g id="bc">
			<g id="bd">
				<g id="be">
					
						<rect id="bf" x="128.5" y="294.5" transform="matrix(0.7071 -0.7071 0.7071 0.7071 -175.0872 183.1963)" class="st6" width="10.1" height="16.9"/>
				</g>
				<path id="bg" class="st7" d="M167.8,337.2L167.8,337.2c-3.6,3.6-9.3,3.6-12.9,0l0,0l-25.1-25.1l12.9-12.9l25.1,25.1
					C171.4,327.8,171.4,333.6,167.8,337.2z"/>
			</g>
			<g id="bh">
				<g id="bi">
					<circle id="bj" class="st5" cx="100" cy="269.3" r="42.2"/>
					<circle id="bk" class="st4" cx="100" cy="269.3" r="35.1"/>
				</g>
				<g id="bl">
					<g id="bm">
						<g id="bn">
							<path id="bo" class="st1" d="M100,261.8c-10.9-16.7-36,1.3,0,25.6C136,263.1,110.9,245.1,100,261.8z"/>
						</g>
					</g>
				</g>
			</g>
		</g>
		<g id="bp">
			<path id="bq" d="M163.4,322.4c0.7,0.7,1.8,0.7,2.5,0c0.7-0.7,0.7-1.8,0-2.5l0,0l-11.4-11.4c-0.7-0.7-1.8-0.7-2.5,0
				c-0.7,0.7-0.7,1.8,0,2.5L163.4,322.4L163.4,322.4z"/>
			<path id="br" d="M170.4,328.8c-1,0-1.8,0.8-1.7,1.8c0.1,4.1-3.2,7.4-7.2,7.5c0,0-0.1,0-0.1,0l0,0c-1.9,0-3.8-0.8-5.2-2.1
				l-23.8-23.8l10.4-10.4l1.2,1.2c0.7,0.7,1.8,0.7,2.5,0c0.7-0.7,0.7-1.8,0-2.5l0,0l-2.5-2.5c-0.7-0.7-1.8-0.7-2.5,0l0,0l-1.6,1.6
				l-4.4-4.4c14.3-19.6,10-47.1-9.7-61.4c-17.5-12.7-41.6-10.8-56.9,4.5c-0.3,0.3-0.6,0.6-0.9,0.9c-0.7,0.7-0.6,1.8,0.1,2.5
				s1.8,0.6,2.5-0.1c0.3-0.3,0.5-0.6,0.8-0.9c15.8-15.8,41.4-15.7,57.1,0.1c14.4,14.4,15.8,37.3,3.2,53.4c-2,2.5-4.3,4.9-6.9,6.9
				c-17.6,13.8-43,10.7-56.7-6.9c-9.8-12.5-11.4-29.7-3.9-43.8c0.5-0.9,0.1-1.9-0.7-2.4s-1.9-0.1-2.4,0.7
				c-11.3,21.5-3.1,48,18.3,59.4c14.8,7.8,32.8,6.5,46.4-3.3l4.4,4.4l-1.6,1.6c-0.7,0.7-0.7,1.8,0,2.5l25.1,25.1
				c2,2,4.8,3.2,7.7,3.2l0,0c6,0,10.9-4.9,10.9-10.9c0,0,0-0.1,0-0.1C172.2,329.5,171.4,328.8,170.4,328.8
				C170.5,328.8,170.4,328.8,170.4,328.8L170.4,328.8z M128.9,302.4c0.1-0.1,0.2-0.2,0.4-0.3c0.6-0.5,1.2-1.1,1.8-1.6
				c0.6-0.6,1.1-1.1,1.6-1.7c0.1-0.1,0.2-0.2,0.3-0.4c0.1-0.1,0.2-0.2,0.3-0.3l4.1,4.1l-4.7,4.6l-4.1-4.1
				C128.7,302.5,128.8,302.4,128.9,302.4L128.9,302.4z"/>
			<path id="bs" d="M73.9,295.4c14.4,14.4,37.7,14.4,52.2,0c14.4-14.4,14.4-37.7,0-52.2s-37.7-14.4-52.2,0
				c-6.9,6.9-10.8,16.3-10.8,26.1C63.1,279.1,67,288.5,73.9,295.4L73.9,295.4z M76.4,245.8c13.2-12.9,34.2-12.6,47.1,0.6
				c12.6,12.9,12.6,33.6,0,46.6l0,0c-13.2,12.9-34.2,12.6-47.1-0.6C63.8,279.4,63.8,258.7,76.4,245.8z"/>
			<path id="bt" d="M99,288.9c0.6,0.4,1.4,0.4,2,0c19.8-13.3,20.1-23.7,19.3-27.5c-0.8-3.9-3.8-6.9-7.7-7.6
				c-3.6-0.7-8.5,0.4-12.5,5.1c-4-4.7-9-5.8-12.5-5.1c-3.9,0.7-7,3.7-7.7,7.6C78.9,265.2,79.2,275.5,99,288.9z M83.2,262
				c0.5-2.5,2.4-4.4,4.9-4.8c0.4-0.1,0.9-0.1,1.3-0.1c2.8,0,6.3,1.5,9,5.7c0.5,0.8,1.6,1,2.5,0.5c0.2-0.1,0.4-0.3,0.5-0.5
				c3.2-5,7.5-6.1,10.4-5.6c2.5,0.4,4.5,2.4,4.9,4.8c0.5,2.4,0.7,11.1-16.8,23.2C82.5,273.1,82.7,264.4,83.2,262L83.2,262z"/>
		</g>
	</g>
	<g id="bu">
		<g id="bv">
			<path id="bw" class="st8" d="M451.7,457.6c0,0,0-16.4-26.8-10.8C424.9,446.9,433.5,469.8,451.7,457.6z"/>
			<path id="bx" class="st8" d="M451.7,457.6c0,0,0-16.4,26.8-10.8C478.5,446.9,469.9,469.8,451.7,457.6z"/>
			<g id="by">
				<g id="bz">
					<g id="ca">
						<g id="cb">
							<g id="cc">
								<path id="cd" class="st9" d="M451.7,459.4c-0.2,0-0.4,0-0.5-0.1l-10.1-3.2c-0.9-0.3-1.5-1.3-1.2-2.2s1.3-1.5,2.2-1.2l0,0
									l10.1,3.2c0.9,0.3,1.5,1.3,1.2,2.2C453.2,458.9,452.5,459.4,451.7,459.4z"/>
							</g>
						</g>
					</g>
					<g id="ce">
						<g id="cf">
							<g id="cg">
								<path id="ch" class="st9" d="M451.7,459.4c-1,0-1.8-0.8-1.8-1.8c0-0.8,0.5-1.5,1.2-1.7l10.1-3.2c0.9-0.3,1.9,0.2,2.2,1.2
									s-0.2,1.9-1.2,2.2l-10.1,3.2C452.1,459.4,451.9,459.4,451.7,459.4L451.7,459.4z"/>
							</g>
						</g>
					</g>
				</g>
			</g>
			<g id="ci">
				<rect id="cj" x="449.9" y="433.9" class="st10" width="3.5" height="59.7"/>
			</g>
			<path id="ck" class="st1" d="M451.7,405.7c-13.2-20.2-43.5,1.5,0,30.9C495.2,407.2,464.9,385.4,451.7,405.7z"/>
			<path id="cl" class="st10" d="M465.6,506h-27.8l-5.3-24.5h38.4L465.6,506z"/>
			<g id="cm">
				<g id="cn">
					<g id="co">
						<rect id="cp" x="428.9" y="474.4" class="st2" width="45.6" height="7.1"/>
					</g>
				</g>
			</g>
		</g>
		<g id="cq">
			<path id="cr" d="M443.1,400.4c3,1.3,5.5,3.5,7.1,6.2c0.3,0.5,0.9,0.8,1.5,0.8l0,0c0.6,0,1.2-0.3,1.5-0.8c1.7-2.8,4.3-5.1,7.4-6.3
				c0.9-0.3,1.4-1.4,1-2.3c-0.3-0.9-1.4-1.4-2.3-1c0,0,0,0,0,0c-3,1.2-5.6,3.1-7.6,5.7c-1.9-2.5-4.5-4.4-7.3-5.6
				c-0.9-0.4-1.9,0.1-2.3,1C441.8,399,442.2,400,443.1,400.4L443.1,400.4L443.1,400.4z"/>
			<path id="cs" d="M461.9,463c1.5,0,3.1-0.2,4.5-0.7c9.2-3,13.6-14.3,13.7-14.8c0.3-0.9-0.1-1.9-1-2.3c-0.1,0-0.2-0.1-0.3-0.1
				c-10.9-2.3-18.9-1.4-23.9,2.7c-0.5,0.4-1,0.9-1.5,1.4v-11.7c19-13.1,22.4-23.7,22.6-28.9c0.3-3.8-1.2-7.5-4.1-10
				c-0.8-0.6-1.9-0.5-2.5,0.3c-0.6,0.7-0.5,1.8,0.2,2.4c2,1.8,3,4.4,2.8,7c-0.4,7.6-7.9,17.1-20.8,26c-13-9-20.6-18.5-20.8-26.1
				c-0.2-2.7,0.9-5.3,3-7c0.8-0.6,0.9-1.7,0.2-2.5c-0.6-0.7-1.7-0.9-2.4-0.3c-3,2.4-4.6,6.1-4.3,10c0.2,5.2,3.4,15.9,22.6,29.1v11.7
				c-0.4-0.5-0.9-0.9-1.4-1.4c-5-4.1-13.1-5-23.9-2.7c-1,0.2-1.6,1.1-1.4,2.1c0,0.1,0,0.2,0.1,0.2c0.2,0.5,4.5,11.8,13.7,14.8
				c1.5,0.5,3,0.7,4.5,0.7c2.9-0.1,5.8-0.8,8.4-2.2v11.9h-21c-1,0-1.8,0.8-1.8,1.8v7.1c0,1,0.8,1.8,1.8,1.8h2.2l5,23.1
				c0.2,0.8,0.9,1.4,1.7,1.4h27.8c0.8,0,1.6-0.6,1.7-1.4l5-23.1h2.2c1,0,1.8-0.8,1.8-1.8v-7.1c0-1-0.8-1.8-1.8-1.8h-3.2
				c-1,0-1.8,0.8-1.8,1.8s0.8,1.8,1.8,1.8h1.4v3.5h-42v-3.5h29.2c1,0,1.8-0.8,1.8-1.8s-0.8-1.8-1.8-1.8h-6.4v-11.9
				C456.1,462.1,459,462.9,461.9,463L461.9,463z M464.2,504.2h-24.9l-4.5-20.9h34L464.2,504.2z M457.2,450.6
				c3.8-3,10.2-3.9,18.8-2.4c-1.5,3.1-5.1,8.9-10.6,10.7c-3,0.9-6.3,0.6-9.1-0.8l6.1-1.9c0.9-0.3,1.5-1.3,1.2-2.2s-1.3-1.5-2.2-1.2
				l-7.2,2.3C454.7,453.3,455.8,451.7,457.2,450.6L457.2,450.6L457.2,450.6z M438.1,458.9c-5.5-1.8-9.1-7.6-10.6-10.7
				c8.5-1.5,15-0.7,18.8,2.4c1.5,1.2,2.6,2.7,3.2,4.5l-7.2-2.3c-0.9-0.3-1.9,0.2-2.2,1.2s0.2,1.9,1.2,2.2l6.1,1.9
				C444.4,459.5,441.2,459.8,438.1,458.9L438.1,458.9L438.1,458.9z"/>
		</g>
	</g>
	<g id="ct">
		<g id="cu">
			<g id="cv">
				<g id="cw">
					<path id="cx" class="st8" d="M334.7,252.5v72.2c0,5.6-4.5,10.1-10.1,10.1h-83.2c-5.6,0-10.1-4.5-10.1-10.1l0,0v-72.2
						c0-5.6,4.5-10.1,10.1-10.1h83.2C330.1,242.4,334.7,246.9,334.7,252.5L334.7,252.5z"/>
					<g id="cy">
						<g id="cz">
							<path id="da" class="st11" d="M334.7,252.5v10.1H231.2v-10.1c0-5.6,4.5-10.1,10.1-10.1h83.2
								C330.1,242.4,334.7,246.9,334.7,252.5z"/>
						</g>
					</g>
				</g>
				<g id="db">
					<g id="dc">
						<g id="dd">
							<path id="de" class="st1" d="M282.9,287.8c-15.1-23.2-49.8,1.8,0,35.4C332.7,289.6,298,264.6,282.9,287.8L282.9,287.8z"/>
						</g>
					</g>
				</g>
			</g>
			<g id="df">
				<g id="dg">
					<path id="dh" class="st8" d="M249.6,252.6c-2.8,0-5.1-2.3-5.1-5.1l0,0v-10.2c0-2.8,2.3-5.1,5.1-5.1c2.8,0,5.1,2.3,5.1,5.1v10.2
						C254.6,250.3,252.4,252.6,249.6,252.6L249.6,252.6z"/>
				</g>
				<g id="di">
					<path id="dj" class="st8" d="M273.4,252.6c-2.8,0-5.1-2.3-5.1-5.1l0,0v-10.2c0-2.8,2.3-5.1,5.1-5.1c2.8,0,5.1,2.3,5.1,5.1v10.2
						C278.4,250.3,276.2,252.6,273.4,252.6L273.4,252.6z"/>
				</g>
				<g id="dk">
					<path id="dl" class="st8" d="M297.1,252.6c-2.8,0-5.1-2.3-5.1-5.1l0,0v-10.2c0-2.8,2.3-5.1,5.1-5.1c2.8,0,5,2.3,5.1,5.1v10.2
						C302.2,250.3,299.9,252.6,297.1,252.6L297.1,252.6z"/>
				</g>
				<g id="dm">
					<path id="dn" class="st8" d="M320.9,252.6c-2.8,0-5.1-2.3-5.1-5.1v-10.2c0-2.8,2.3-5.1,5.1-5.1s5.1,2.3,5.1,5.1l0,0v10.2
						C326,250.3,323.7,252.6,320.9,252.6L320.9,252.6z"/>
				</g>
			</g>
		</g>
		<g id="do">
			<path id="dp" d="M272.1,333H256c-1,0-1.8,0.8-1.8,1.8s0.8,1.8,1.8,1.8h16.1c1,0,1.8-0.8,1.8-1.8S273.1,333,272.1,333L272.1,333
				L272.1,333z"/>
			<path id="dq" d="M314.4,333h-30.9c-1,0-1.8,0.8-1.8,1.8s0.8,1.8,1.8,1.8h30.9c1,0,1.8-0.8,1.8-1.8S315.4,333,314.4,333L314.4,333
				z"/>
			<path id="dr" d="M327.8,241.1v-3.8c0-3.8-3-6.9-6.8-6.9s-6.9,3-6.9,6.8c0,0.1,0,0.1,0,0.2v3.3H304v-3.3c-0.1-3.8-3.1-6.8-6.9-6.8
				c-3.7,0.1-6.7,3-6.8,6.8v3.3h-10.1v-3.3c-0.1-3.8-3.1-6.8-6.9-6.8c-3.7,0.1-6.7,3-6.8,6.8v3.3h-10.1v-3.3c0-3.8-3.1-6.8-6.9-6.8
				c-3.7,0.1-6.7,3-6.8,6.8v3.3h-1.4c-6.6,0-11.9,5.3-11.9,11.9v72.2c0,6.6,5.3,11.9,11.9,11.9h3.3c1,0,1.8-0.8,1.8-1.8
				s-0.8-1.8-1.8-1.8h-3.3c-4.6,0-8.4-3.7-8.4-8.4v-60.3h99.9v60.3c0,4.2-3.1,7.8-7.3,8.3c-1,0.1-1.6,1-1.5,2c0.1,0.9,1,1.6,1.9,1.5
				c6-0.8,10.4-5.8,10.4-11.8v-72.2C336.4,247.2,332.9,242.5,327.8,241.1L327.8,241.1z M317.6,237.2c0-1.8,1.5-3.3,3.3-3.3
				s3.3,1.5,3.3,3.3l0,0v10.2c0,1.8-1.5,3.3-3.3,3.3s-3.3-1.5-3.3-3.3l0,0V237.2z M293.9,237.2c0-1.8,1.4-3.3,3.2-3.4
				c1.8,0,3.3,1.4,3.4,3.2c0,0,0,0.1,0,0.1v10.2c0,1.8-1.4,3.3-3.2,3.4c-1.8,0-3.3-1.4-3.4-3.2c0,0,0-0.1,0-0.1V237.2z M270.1,237.2
				c0-1.8,1.5-3.3,3.3-3.3s3.3,1.5,3.3,3.3l0,0v10.2c0,1.8-1.5,3.3-3.3,3.3s-3.3-1.5-3.3-3.3l0,0V237.2z M246.3,237.2
				c0-1.8,1.4-3.3,3.2-3.4c1.8,0,3.3,1.4,3.4,3.2c0,0,0,0.1,0,0.1v10.2c0,1.8-1.4,3.3-3.2,3.4c-1.8,0-3.3-1.4-3.4-3.2
				c0,0,0-0.1,0-0.1V237.2z M232.9,260.8v-8.4c0-4.6,3.7-8.4,8.4-8.4h1.4v3.4c-0.1,3.8,3,6.9,6.8,6.9s6.9-3,6.9-6.8
				c0-0.1,0-0.1,0-0.2v-3.4h10.1v3.4c0,3.8,3,6.9,6.8,6.9c3.8,0.1,6.9-3,6.9-6.8c0-0.1,0-0.1,0-0.2v-3.4h10.1v3.4
				c0,3.8,3,6.9,6.8,6.9c3.8,0.1,6.9-3,6.9-6.8c0-0.1,0-0.1,0-0.2v-3.4h10.1v3.4c0,3.8,3,6.9,6.8,6.9s6.9-3,6.9-6.8
				c0-0.1,0-0.1,0-0.2v-2.7c3.1,1.3,5.1,4.3,5.1,7.7v8.4L232.9,260.8L232.9,260.8z"/>
			<path id="ds" d="M281.9,324.6c0.6,0.4,1.4,0.4,2,0c27-18.2,27.4-32.2,26.4-37.4c-1-5.1-5-9.1-10.2-10c-4.9-0.9-11.8,0.7-17.2,7.5
				c-5.4-6.9-12.3-8.4-17.2-7.5c-5.1,0.9-9.2,4.9-10.2,10C254.5,292.4,254.9,306.4,281.9,324.6L281.9,324.6z M259,288
				c0.7-3.7,3.6-6.6,7.4-7.2c0.6-0.1,1.3-0.2,2-0.2c4,0,9.1,2.1,13.1,8.2c0.5,0.8,1.6,1,2.4,0.5c0.2-0.1,0.4-0.3,0.5-0.5
				c4.6-7.1,10.8-8.8,15-8c3.7,0.6,6.7,3.5,7.4,7.2c0.7,3.4,1,15.9-23.9,33.1C258,303.9,258.3,291.4,259,288L259,288z"/>
		</g>
	</g>
	<g id="dt">
		<g id="du">
			<g id="dv">
				<g id="dw">
					<g id="dx">
						<g id="dy">
							<path id="dz" class="st8" d="M139.6,124.2h-51c-2.8,0-5.1-2.3-5.1-5.1l0,0V87.7c0-16.9,13.7-30.6,30.6-30.6
								s30.6,13.7,30.6,30.6v31.4C144.7,121.9,142.4,124.2,139.6,124.2L139.6,124.2L139.6,124.2z M93.7,114.1h40.9V87.7
								c0-11.3-9.1-20.4-20.4-20.4s-20.4,9.1-20.4,20.4C93.7,87.7,93.7,114.1,93.7,114.1z"/>
						</g>
					</g>
				</g>
			</g>
			<path id="ea" class="st1" d="M114.1,111.2c-26-39.9-85.9,3,0,61C200,114.3,140.1,71.3,114.1,111.2z"/>
			<path id="eb" class="st8" d="M121.9,129.9c0,2.9-1.7,5.6-4.3,7v13.2c0,2-1.6,3.5-3.6,3.5s-3.5-1.6-3.5-3.5v-13.2
				c-3.8-2-5.4-6.7-3.4-10.5c2-3.8,6.7-5.4,10.5-3.4C120.3,124.2,121.9,126.9,121.9,129.9L121.9,129.9L121.9,129.9z"/>
		</g>
		<g id="ec">
			<path id="ed" d="M142.5,145.9c-3.5,4-7.3,7.7-11.3,11.2c-0.7,0.6-0.8,1.8-0.2,2.5c0.6,0.7,1.8,0.8,2.5,0.2
				c4.1-3.6,8-7.4,11.7-11.5c0.6-0.8,0.5-1.9-0.2-2.5C144.2,145.1,143.1,145.2,142.5,145.9L142.5,145.9L142.5,145.9z"/>
			<path id="ee" d="M159,107.1c-2.1-5.7-6.8-10.2-12.6-12.1v-7.4c0-17.9-14.5-32.3-32.3-32.3c-12.6,0-24,7.3-29.3,18.6
				c-0.4,0.9,0,1.9,0.9,2.3c0.9,0.4,1.9,0,2.3-0.8c6.7-14.4,23.9-20.6,38.3-13.9c10.1,4.7,16.6,14.9,16.6,26.1v6.5
				c-0.1,0-0.1,0-0.2,0c-0.4-0.1-0.7-0.1-1.1-0.1c-0.1,0-0.2,0-0.4,0c-0.5,0-1-0.1-1.5-0.1h-0.4c-0.4,0-0.8,0-1.2,0
				c-0.2,0-0.4,0-0.6,0c-0.3,0-0.7,0-1,0.1c-0.1,0-0.2,0-0.3,0v-6.3c0.1-12.3-9.8-22.3-22.1-22.4C102,65.3,92,75.2,91.9,87.4
				c0,0.1,0,0.2,0,0.3v6.3c-0.1,0-0.2,0-0.3,0c-0.3,0-0.7-0.1-1-0.1c-0.2,0-0.4,0-0.5,0c-0.4,0-0.8,0-1.2,0h-0.4c-0.5,0-1,0-1.5,0.1
				c-0.1,0-0.2,0-0.4,0c-0.4,0-0.8,0.1-1.1,0.1c-0.1,0-0.1,0-0.2,0v-6.5c0-0.7,0-1.3,0.1-1.8c0.1-1-0.7-1.8-1.6-1.9
				c-1-0.1-1.8,0.7-1.9,1.6c0,0.7-0.1,1.3-0.1,2.1v7.4c-7.3,2.4-12.6,8.7-13.7,16.3c-1.4,8.6,0.1,31.9,45.1,62.3
				c0.6,0.4,1.4,0.4,2,0c3.2-2.2,6.4-4.4,9.4-6.7c0.8-0.6,0.9-1.7,0.3-2.5c-0.6-0.8-1.7-0.9-2.5-0.3c-2.7,2-5.5,4-8.3,6
				C84.7,150,68.8,128.3,71.5,112c1-6.7,5.9-12.2,12.5-13.9c0.4-0.1,0.7-0.2,1.1-0.3c2.7-0.5,5.5-0.5,8.2,0l0,0
				c7.4,1.5,14.2,6.6,19.3,14.3c0.5,0.8,1.6,1.1,2.4,0.5c0.2-0.1,0.4-0.3,0.5-0.5c5.1-7.8,11.9-12.9,19.3-14.3
				c0.8-0.2,1.6-0.3,2.4-0.3c2.3-0.2,4.7,0,6.9,0.6c5.3,1.4,9.6,5.2,11.5,10.3c2.9,7.8,0.7,18-6.4,28.7c-0.5,0.8-0.3,1.9,0.5,2.5
				c0.8,0.5,1.9,0.3,2.5-0.5C160,127.3,162.4,116,159,107.1L159,107.1z M114.1,108.1c-5.1-6.9-11.6-11.6-18.7-13.4v-7
				C95.3,77.4,103.6,69,114,68.9c10.3-0.1,18.7,8.2,18.8,18.5c0,0.1,0,0.2,0,0.3v7C125.7,96.5,119.2,101.2,114.1,108.1L114.1,108.1z
				"/>
			<path id="ef" d="M114.1,155.4c2.9,0,5.3-2.4,5.3-5.3v-12.2c2.7-1.8,4.3-4.8,4.3-8c0-0.6-0.1-1.3-0.2-1.9
				c-0.5-2.5-2.1-4.7-4.2-6.1c0,0,0,0-0.1,0c-0.2-0.2-0.5-0.3-0.7-0.4c-0.2-0.1-0.3-0.2-0.5-0.2c-0.1-0.1-0.2-0.1-0.3-0.2
				c-0.2-0.1-0.5-0.2-0.8-0.3c0,0-0.1,0-0.1,0c-0.9-0.3-1.8-0.4-2.7-0.4c-5.3,0-9.6,4.3-9.6,9.6l0,0c0,3.2,1.6,6.2,4.3,8v12.2
				C108.8,153,111.2,155.4,114.1,155.4L114.1,155.4z M109.9,125.5c2.3-2.2,6-2.2,8.3,0l0,0c2.4,2.3,2.5,6.1,0.2,8.6
				c-0.5,0.5-1,0.9-1.7,1.2c-0.6,0.3-1,0.9-1,1.6v13.2c0,1-0.8,1.8-1.8,1.8c-1,0-1.8-0.8-1.8-1.8v-13.2c0-0.7-0.4-1.3-1-1.6
				c-3-1.5-4.2-5.2-2.7-8.1C109,126.5,109.4,125.9,109.9,125.5C109.9,125.5,109.9,125.5,109.9,125.5z"/>
		</g>
	</g>
	<g id="eg">
		<path id="eh" class="st12" d="M256,394.9h53.9c5.6,0,10.1,4.5,10.1,10.1v94.6c0,5.6-4.5,10.1-10.1,10.1H256
			c-5.6,0-10.1-4.5-10.1-10.1V405C245.8,399.4,250.4,394.9,256,394.9z"/>
		<rect id="ei" x="252.9" y="409.1" class="st4" width="60" height="78.7"/>
		<circle id="ej" class="st13" cx="282.9" cy="499.5" r="4.1"/>
		<g id="ek">
			<g id="el">
				<path id="em" class="st13" d="M288.4,403.4h-11c-1,0-1.8-0.8-1.8-1.8s0.8-1.8,1.8-1.8h11c1,0,1.8,0.8,1.8,1.8
					S289.4,403.4,288.4,403.4z"/>
			</g>
		</g>
		<path id="en" class="st1" d="M282.9,438.7c-11.1-17-36.6,1.3,0,26C319.5,440,294,421.7,282.9,438.7z"/>
		<g id="eo">
			<path id="ep" d="M309.9,393.1H256c-6.6,0-11.9,5.3-11.9,11.9v94.6c0,6.6,5.3,11.9,11.9,11.9h53.9c6.6,0,11.9-5.3,11.9-11.9v-6.7
				c0-1-0.8-1.8-1.8-1.8s-1.8,0.8-1.8,1.8v6.7c0,4.6-3.7,8.4-8.4,8.4H256c-4.6,0-8.4-3.7-8.4-8.4V405c0-4.6,3.7-8.4,8.4-8.4h53.9
				c4.6,0,8.3,3.7,8.4,8.4v6.7c0,1,0.8,1.8,1.8,1.8s1.8-0.8,1.8-1.8V405C321.8,398.4,316.4,393.1,309.9,393.1L309.9,393.1z"/>
			<path id="eq" d="M320,448.9c-1,0-1.8,0.8-1.8,1.8v30.9c0,1,0.8,1.8,1.8,1.8s1.8-0.8,1.8-1.8l0,0v-30.9
				C321.8,449.6,321,448.9,320,448.9z"/>
			<path id="er" d="M320,421.4c-1,0-1.8,0.8-1.8,1.8v16.1c0,1,0.8,1.8,1.8,1.8s1.8-0.8,1.8-1.8l0,0v-16.1
				C321.8,422.2,321,421.4,320,421.4L320,421.4z"/>
			<path id="es" d="M314.7,487.8v-78.7c0-1-0.8-1.8-1.8-1.8h-60c-1,0-1.8,0.8-1.8,1.8v78.7c0,1,0.8,1.8,1.8,1.8h60
				C313.9,489.5,314.7,488.7,314.7,487.8z M311.1,486h-56.4v-75.1h56.4V486z"/>
			<path id="et" d="M277,499.5c0,3.3,2.6,5.9,5.9,5.9c3.3,0,5.9-2.6,5.9-5.9c0-3.3-2.6-5.9-5.9-5.9C279.7,493.6,277,496.3,277,499.5
				z M285.3,499.5c0,1.3-1.1,2.4-2.4,2.4s-2.4-1.1-2.4-2.4s1.1-2.4,2.4-2.4l0,0C284.3,497.2,285.3,498.2,285.3,499.5z"/>
			<path id="eu" d="M288.4,403.4c1,0,1.8-0.8,1.8-1.8s-0.8-1.8-1.8-1.8h-11c-1,0-1.8,0.8-1.8,1.8s0.8,1.8,1.8,1.8H288.4z"/>
			<path id="ev" d="M281.9,466.2c0.6,0.4,1.4,0.4,2,0c20.1-13.6,20.4-24.1,19.6-28c-0.8-4-3.9-7-7.9-7.7c-3.6-0.7-8.7,0.4-12.7,5.2
				c-4.1-4.8-9.1-5.9-12.7-5.2c-4,0.7-7.1,3.8-7.9,7.7C261.5,442.1,261.8,452.6,281.9,466.2L281.9,466.2z M265.8,438.9
				c0.5-2.5,2.5-4.5,5-5c0.5-0.1,0.9-0.1,1.4-0.1c2.8,0,6.4,1.5,9.2,5.8c0.5,0.8,1.6,1,2.4,0.5c0.2-0.1,0.4-0.3,0.5-0.5
				c3.3-5,7.6-6.3,10.6-5.7c2.6,0.4,4.6,2.4,5,5c0.5,2.5,0.7,11.3-17.1,23.7C265.1,450.2,265.3,441.4,265.8,438.9L265.8,438.9
				L265.8,438.9z"/>
		</g>
	</g>
</g>
</svg>
