<?xml version="1.0" encoding="utf-8"?>
<!-- Generator: Adobe Illustrator 27.5.0, SVG Export Plug-In . SVG Version: 6.00 Build 0)  -->
<svg version="1.1" id="a" xmlns="http://www.w3.org/2000/svg" xmlns:xlink="http://www.w3.org/1999/xlink" x="0px" y="0px"
	 viewBox="0 0 496.1 496.1" style="enable-background:new 0 0 496.1 496.1;" xml:space="preserve">
<style type="text/css">
	.st0{clip-path:url(#SVGID_00000183971273038022528450000010402049451980826778_);}
	.st1{fill:#091947;}
	.st2{fill:#081E4E;}
	.st3{fill:#082363;}
	.st4{fill:#0A1439;}
	.st5{fill:#218BD8;}
	.st6{fill:#1566D3;}
	.st7{clip-path:url(#SVGID_00000006680220774254745110000001272944932440614034_);}
	.st8{fill:none;}
	.st9{fill:#2E9084;}
	.st10{fill:#A6B2ED;}
	.st11{clip-path:url(#SVGID_00000183219215159272556500000007986270943709210527_);}
	.st12{fill:#47CB5E;}
	.st13{fill:#FFFFFF;}
	.st14{fill:#4769FF;}
</style>
<g>
	<defs>
		<rect id="SVGID_1_" y="0" width="496.1" height="496.1"/>
	</defs>
	<clipPath id="SVGID_00000169516500726222726820000015987465628858941578_">
		<use xlink:href="#SVGID_1_"  style="overflow:visible;"/>
	</clipPath>
	<g style="clip-path:url(#SVGID_00000169516500726222726820000015987465628858941578_);">
		<circle class="st1" cx="248" cy="249.2" r="352.9"/>
		<circle class="st2" cx="248" cy="249.2" r="305"/>
		<circle class="st3" cx="248" cy="249.2" r="256.6"/>
		<circle class="st4" cx="248" cy="249.2" r="206.7"/>
		<circle class="st5" cx="247.7" cy="249.1" r="173.8"/>
		<path class="st6" d="M247.7,75.3c96,0,173.8,77.8,173.8,173.8S343.7,423,247.7,423V75.3z"/>
		<g>
			<defs>
				<path id="SVGID_00000013157734165479119660000011655634842751267739_" d="M247.7,75.3c96,0,173.8,77.8,173.8,173.8
					S343.7,423,247.7,423V75.3z"/>
			</defs>
			<clipPath id="SVGID_00000059287871236571122100000003423114430173291945_">
				<use xlink:href="#SVGID_00000013157734165479119660000011655634842751267739_"  style="overflow:visible;"/>
			</clipPath>
			<g style="clip-path:url(#SVGID_00000059287871236571122100000003423114430173291945_);">
				<path class="st8" d="M348.6,158.7c0-1.4-1.2-2.6-2.6-2.6h-3.3c-0.6,0-1.1-0.1-1.7-0.3c0.2,0.8,0.2,1.7,0.2,2.6
					c0,1-0.1,1.9-0.3,2.8h5C347.5,161.2,348.6,160.1,348.6,158.7L348.6,158.7z"/>
				<path class="st9" d="M424.7,266.4c17.1,0,30.9-13.8,30.9-30.9s-13.8-30.9-30.9-30.9H316.1c-17.1,0-30.9,13.8-30.9,30.9
					s13.8,30.9,30.9,30.9H424.7L424.7,266.4z"/>
				<path class="st9" d="M477.4,281.4H368.8c-12.8,0-23.2,10.4-23.2,23.2c0,4.1,1.1,7.9,2.9,11.3h22.9c6.9,0,12.6,5.2,13.4,11.9
					h92.5c12.8,0,23.2-10.4,23.2-23.2C500.6,291.7,490.2,281.4,477.4,281.4L477.4,281.4z"/>
				<path class="st9" d="M271.8,158.4c0,2,0.4,3.9,1.2,5.6h15.7c4.5,0,8.1,3.6,8.1,8.1c0,0.2,0,0.4-0.1,0.6H327c0.3,0,0.6,0,0.9,0
					c0.8-6.5,6.3-11.5,13-11.5h0.2c0.2-0.9,0.3-1.9,0.3-2.8c0-0.9-0.1-1.8-0.2-2.6c-2.2-0.7-3.8-2.7-3.8-5.1c0-0.6,0.1-1.3,0.3-1.8
					c-2.6-3-6.5-4.8-10.7-4.8h-40.8C278.2,144,271.7,150.5,271.8,158.4L271.8,158.4z"/>
				<path class="st9" d="M307.8,101.4h44.6c8.3,0,15-6.7,15-15s-6.7-15-15-15h-44.6c-8.3,0-15,6.7-15,15S299.5,101.4,307.8,101.4z"
					/>
				<path class="st9" d="M258.3,323.4c0-9.3-4.1-17.6-10.5-23.2v46.4C254.2,340.9,258.3,332.6,258.3,323.4z"/>
				<path class="st9" d="M254,365.9h-6.3v35.5h6.3c9.8,0,17.8-7.9,17.8-17.8C271.8,373.9,263.9,365.9,254,365.9z"/>
				<path class="st10" d="M252.3,254.9c8.5,0,15.4-6.9,15.4-15.4c0-8.5-6.9-15.4-15.4-15.4h-4.6v30.9L252.3,254.9L252.3,254.9z"/>
				<path class="st10" d="M335.5,357.9h-25.7c-5.6,0-10.2,4.6-10.2,10.2c0,5.6,4.6,10.2,10.2,10.2h25.7c5.6,0,10.2-4.6,10.2-10.2
					C345.7,362.5,341.1,357.9,335.5,357.9z"/>
				<path class="st10" d="M348.6,315.8h-11c-7.4,0-13.5,6-13.5,13.5s6,13.5,13.5,13.5h33.9c7.4,0,13.5-6,13.5-13.5
					c0-0.5,0-1.1-0.1-1.6h-16.1C360.1,327.7,352.5,322.9,348.6,315.8L348.6,315.8z"/>
				<path class="st10" d="M371.5,315.8h-22.9c4,7.1,11.5,11.9,20.2,11.9h16.1C384.1,321,378.4,315.8,371.5,315.8L371.5,315.8z"/>
				<path class="st10" d="M389.3,151.5h67.6c9.8,0,17.8-7.9,17.8-17.8s-7.9-17.8-17.8-17.8h-67.6c-9.8,0-17.8,7.9-17.8,17.8
					S379.5,151.5,389.3,151.5z"/>
				<path class="st10" d="M272.9,164.1h-6.3c-4.5,0-8.1,3.6-8.1,8.1s3.6,8.1,8.1,8.1h22c4.3,0,7.7-3.3,8.1-7.5h-10.5
					C280.2,172.8,275.1,169.2,272.9,164.1L272.9,164.1z"/>
				<path class="st10" d="M288.6,164.1h-15.7c2.2,5.1,7.3,8.8,13.2,8.8h10.5c0-0.2,0.1-0.4,0.1-0.6
					C296.8,167.7,293.1,164.1,288.6,164.1L288.6,164.1z"/>
				<path class="st10" d="M268.1,124.6c6.1,0,11-4.9,11-11c0-6.1-4.9-11-11-11h-20.3v21.9L268.1,124.6L268.1,124.6z"/>
				<path class="st10" d="M342.8,156.1h3.3c1.4,0,2.6,1.2,2.6,2.6c0,1.4-1.2,2.6-2.6,2.6h-5c-1.3,6.3-6.6,11.1-13.2,11.5
					c-0.1,0.5-0.1,1.1-0.1,1.6c0,7.3,5.9,13.1,13.1,13.1h67.6c7.3,0,13.1-5.9,13.1-13.1s-5.9-13.1-13.1-13.1H359
					c-1.4,0-2.6-1.2-2.6-2.6c0-1.4,1.2-2.6,2.6-2.6h5.9c3,0,5.4-2.4,5.4-5.4c0-3-2.4-5.4-5.4-5.4h-22.1c-2.3,0-4.3,1.5-5.1,3.6
					c1.7,1.9,2.9,4.3,3.4,7C341.6,156,342.2,156.1,342.8,156.1L342.8,156.1z"/>
				<path class="st10" d="M341.1,155.8c-0.5-2.6-1.7-5-3.4-7c-0.2,0.6-0.3,1.2-0.3,1.8C337.4,153.1,339,155.1,341.1,155.8
					L341.1,155.8z"/>
				<path class="st10" d="M341.1,161.2h-0.2c-6.7,0-12.2,5-13,11.5C334.5,172.3,339.8,167.5,341.1,161.2z"/>
			</g>
		</g>
		<g>
			<defs>
				<circle id="SVGID_00000134939989521894176390000001899197064695053470_" cx="247.7" cy="249.1" r="173.8"/>
			</defs>
			<clipPath id="SVGID_00000183971871983306846450000001876935934683368342_">
				<use xlink:href="#SVGID_00000134939989521894176390000001899197064695053470_"  style="overflow:visible;"/>
			</clipPath>
			<g style="clip-path:url(#SVGID_00000183971871983306846450000001876935934683368342_);">
				<path class="st12" d="M101.1,269.9H54.2c-8.5,0-15.4-6.9-15.4-15.4c0-8.5,6.9-15.4,15.4-15.4h46.9c8.5,0,15.4,6.9,15.4,15.4
					C116.6,263,109.6,269.9,101.1,269.9z"/>
				<path class="st13" d="M223.3,361.7h-42.2c-9.2,0-16.7-7.5-16.7-16.7s7.5-16.7,16.7-16.7h42.2c9.2,0,16.7,7.5,16.7,16.7
					S232.5,361.7,223.3,361.7z"/>
				<path class="st13" d="M223.7,287.2h-62.3c-2.4,0-4.3-1.9-4.3-4.3c0-2.4,1.9-4.3,4.3-4.3h7.3c5.1,0,9.3-4.1,9.3-9.3
					s-4.1-9.3-9.3-9.3h-61c-5.1,0-9.3,4.1-9.3,9.3s4.1,9.3,9.3,9.3h27.6c2.4,0,4.3,1.9,4.3,4.3c0,2.4-1.9,4.3-4.3,4.3h-4.8
					c-7.8,0-14.2,6.3-14.2,14.2s6.3,14.2,14.2,14.2h93.2c7.8,0,14.2-6.3,14.2-14.2S231.5,287.2,223.7,287.2L223.7,287.2z"/>
			</g>
		</g>
		<path class="st8" d="M163.9,401.4c24.9,13.7,53.4,21.5,83.8,21.5v-21.5H163.9z"/>
		<path class="st12" d="M237.8,301.4c0,7.8-6.3,14.2-14.2,14.2h-89.9c-0.7,2.5-1,5.1-1,7.8c0,17.1,13.8,30.9,30.9,30.9h3.6
			c-1.8-2.7-2.8-5.8-2.8-9.3c0-9.2,7.5-16.7,16.7-16.7h42.2c9.2,0,16.7,7.5,16.7,16.7c0,2.6-0.6,5-1.7,7.2c3.5-1.3,6.6-3.2,9.4-5.6
			v-46.4c-3.5-3-7.6-5.3-12.2-6.6C237,295.8,237.8,298.5,237.8,301.4L237.8,301.4z"/>
		<path class="st12" d="M98.4,269.3c0-5.1,4.1-9.3,9.3-9.3h7.9c0.7-1.7,1.1-3.6,1.1-5.6c0-8.5-6.9-15.4-15.4-15.4h-27
			c-0.2,3.3-0.3,6.7-0.3,10.1c0,7,0.4,14,1.2,20.8h23.3C98.4,269.7,98.4,269.5,98.4,269.3L98.4,269.3z"/>
		<path class="st12" d="M118.7,180.8c0,4.2-3.4,7.7-7.7,7.7H105c-11.2,0-20.2,9-20.2,20.2s9,20.2,20.2,20.2h50
			c11.2,0,20.2-9,20.2-20.2s-9-20.2-20.2-20.2h-4c-4.2,0-7.7-3.4-7.7-7.7c0-4.2,3.4-7.7,7.7-7.7h36.8c12.8,0,23.2-10.4,23.2-23.2
			s-10.4-23.2-23.2-23.2h-63.7c-13.3,13.5-24.5,29.1-32.9,46.3h19.7C115.3,173.1,118.7,176.6,118.7,180.8L118.7,180.8z"/>
		<path class="st12" d="M247.7,365.9h-28.4l0,0c-2.6,0-4.9-1.8-5.6-4.2h-24.3c-0.7,2.4-2.9,4.2-5.6,4.2l0,0h-65
			c12.9,14.2,28,26.2,44.9,35.5h83.8L247.7,365.9L247.7,365.9z"/>
		<path class="st13" d="M198,239.5c0,8.5,6.9,15.4,15.4,15.4h34.2V224h-34.2C205,224,198,230.9,198,239.5L198,239.5z"/>
		<path class="st13" d="M183.9,354.3h-16.8c3,4.5,8.1,7.5,13.9,7.5h8.4c0.2-0.5,0.3-1.1,0.3-1.6
			C189.8,356.9,187.1,354.3,183.9,354.3z"/>
		<path class="st13" d="M238.4,352.2c-3.4,1.3-7.1,2-11,2h-8.1c-3.2,0-5.8,2.6-5.8,5.8c0,0.6,0.1,1.1,0.3,1.6h9.5
			C229.9,361.7,235.7,357.8,238.4,352.2z"/>
		<path class="st13" d="M219.3,354.3h8.1c3.9,0,7.6-0.7,11-2c1.1-2.2,1.7-4.6,1.7-7.2c0-9.2-7.5-16.7-16.7-16.7h-42.2
			c-9.2,0-16.7,7.5-16.7,16.7c0,3.4,1,6.6,2.8,9.3H219.3z"/>
		<path class="st13" d="M219.3,354.3h-35.4c3.2,0,5.8,2.6,5.8,5.8c0,0.6-0.1,1.1-0.3,1.6h24.3c-0.2-0.5-0.3-1.1-0.3-1.6
			C213.5,356.9,216.1,354.3,219.3,354.3L219.3,354.3z"/>
		<path class="st13" d="M227.3,113.6c0,6.1,4.9,11,11,11h9.4v-21.9h-9.4C232.2,102.7,227.3,107.6,227.3,113.6L227.3,113.6z"/>
		<path class="st13" d="M163.6,292.5h63.8c2.8,0,5.5,0.4,8.1,1.1c-2.5-3.8-6.9-6.4-11.8-6.4h-62.3c-2.4,0-4.3-1.9-4.3-4.3
			c0-2.4,1.9-4.3,4.3-4.3h7.3c5.1,0,9.3-4.1,9.3-9.3s-4.1-9.3-9.3-9.3h-53.1c-2.2,5.8-7.8,9.9-14.4,9.9h-2.7
			c0.3,4.8,4.3,8.7,9.2,8.7h27.6c2.4,0,4.3,1.9,4.3,4.3s-1.9,4.3-4.3,4.3h-4.8c-7.8,0-14.2,6.3-14.2,14.2c0,7.8,6.3,14.2,14.2,14.2
			h3.3C137.2,302.3,149.2,292.5,163.6,292.5L163.6,292.5z"/>
		<path class="st13" d="M237.8,301.4c0-2.9-0.9-5.5-2.3-7.8c-2.6-0.7-5.3-1.1-8.1-1.1h-63.8c-14.3,0-26.4,9.8-29.8,23h89.9
			C231.5,315.5,237.8,309.2,237.8,301.4L237.8,301.4z"/>
		<path class="st13" d="M115.5,260.1h-7.9c-5.1,0-9.3,4.1-9.3,9.3c0,0.2,0,0.4,0,0.6h2.7C107.7,269.9,113.3,265.8,115.5,260.1
			L115.5,260.1z"/>
		<circle class="st14" cx="185.8" cy="7.9" r="3.4"/>
		<circle class="st14" cx="452.6" cy="57" r="8"/>
		<circle class="st14" cx="67.3" cy="91.8" r="5"/>
		<circle class="st14" cx="482.4" cy="289.4" r="8"/>
		<circle class="st14" cx="452.3" cy="384.1" r="4.2"/>
		<circle class="st14" cx="397.2" cy="480.6" r="4.6"/>
		<circle class="st14" cx="137.3" cy="465.4" r="4.6"/>
		<circle class="st14" cx="14" cy="442" r="4.4"/>
	</g>
</g>
</svg>
