<?xml version="1.0" encoding="UTF-8"?><svg id="a" xmlns="http://www.w3.org/2000/svg" viewBox="0 0 500 500"><path d="m229.95,267.37c9.44,9.44,27.29,9.44,36.73,0l27.57-27.57c14.02-14.02,22.05-33.72,22.05-54.05v-22.84c-44.55,19.46-89.94,1.51-108.05-12.21-9.1,2.41-18.37,3.86-27.22,4.26-.2,9.5-.68,29.24-.72,30.86.01,20.9,7.64,39.57,22.05,53.99l27.57,27.57Z"/><path d="m249.13,363.68c-29.51,0-57.12-12.34-76.36-33.59-14.49,6.75-28.78,17.02-40.6,29.08,1.25,1.34,2.53,2.66,3.83,3.96,30.22,30.22,70.4,46.86,113.14,46.86s82.92-16.64,113.14-46.86c1.33-1.33,2.63-2.67,3.91-4.04-11.95-12.14-26.36-22.33-40.87-28.81-19.24,21.14-46.77,33.4-76.17,33.4Z"/><path d="m208.27,124.11c1.19-.3,2.34-.45,3.45-.45,3.41,0,6.49,1.39,9.32,4.21,10.62,10.62,59.18,23.7,91.88,9.01-8.88-27.69-34.55-46.7-63.79-46.7h0c-26.15,0-49.35,14.71-61.07,38.07,5.57-.76,11.54-2.14,17.75-3.58l2.45-.57Z"/><path d="m249.13,0C111.06,0-.87,111.93-.87,250s111.93,250,250,250,250-111.93,250-250S387.2,0,249.13,0Zm-94.22,158.18c0-25.26,9.77-48.95,27.52-66.69,17.75-17.75,41.43-27.52,66.69-27.52s48.95,9.77,66.69,27.52c17.75,17.75,27.52,41.43,27.52,66.69v27.57c0,27.09-10.88,53.5-29.85,72.47l-27.57,27.57c-9.69,9.69-23.1,15.25-36.79,15.25s-27.09-5.56-36.79-15.25l-27.57-27.57c-19.25-19.25-29.85-44.99-29.85-72.47v-27.57Zm228.57,226.17c-35.89,35.89-83.6,55.65-134.35,55.65s-98.46-19.76-134.35-55.65c-7.9-7.9-15.02-16.38-21.32-25.34,19.42-28.12,50.87-52.42,83.15-62.56.87-.27,1.75-.4,2.62-.4,3.49,0,6.94,2.08,9.35,5.69,12.92,19.31,35.38,31.95,60.54,31.95s47.5-12.58,60.43-31.8c2.34-3.48,5.71-5.4,9.11-5.4.84,0,1.69.12,2.52.36,32.48,9.48,64.22,33.9,83.72,62.04-6.32,9-13.47,17.53-21.41,25.47Z"/></svg>