<?xml version="1.0" encoding="UTF-8"?><svg id="a" xmlns="http://www.w3.org/2000/svg" viewBox="0 0 500 500"><path d="m250,40c56.09,0,108.83,21.84,148.49,61.51,39.66,39.66,61.51,92.4,61.51,148.49s-21.84,108.83-61.51,148.49c-39.66,39.66-92.4,61.51-148.49,61.51s-108.83-21.84-148.49-61.51c-39.66-39.66-61.51-92.4-61.51-148.49s21.84-108.83,61.51-148.49c39.66-39.66,92.4-61.51,148.49-61.51M250,0C111.93,0,0,111.93,0,250s111.93,250,250,250,250-111.93,250-250S388.07,0,250,0h0Z"/><path d="m161.86,226.14c-3.85,0-6.97,3.12-6.97,6.97v24.88l-24.19,24.19c-3.58-1.97-7.68-3.09-12.04-3.09-13.83,0-25.08,11.25-25.08,25.08s11.25,25.08,25.08,25.08,25.08-11.25,25.08-25.08c0-4.41-1.15-8.56-3.16-12.16l28.24-28.25v-30.65c0-3.85-3.12-6.97-6.97-6.97Zm-43.19,89.17c-6.15,0-11.15-5-11.15-11.15s5-11.15,11.15-11.15,11.15,5,11.15,11.15-5,11.15-11.15,11.15Z"/><path d="m266.36,331.65v-98.54c0-3.85-3.12-6.97-6.97-6.97s-6.97,3.12-6.97,6.97v43.1l-51.55,51.55v58.23c-10.45,3.03-18.11,12.67-18.11,24.08,0,13.83,11.25,25.08,25.08,25.08s25.08-11.25,25.08-25.08c0-11.41-7.67-21.05-18.11-24.08v-52.46l37.62-37.62v35.74c-10.45,3.03-18.11,12.67-18.11,24.08,0,13.83,11.25,25.08,25.08,25.08s25.08-11.25,25.08-25.08c0-11.41-7.67-21.05-18.11-24.08Zm-47.37,78.42c0,6.15-5,11.15-11.15,11.15s-11.15-5-11.15-11.15,5-11.15,11.15-11.15,11.15,5,11.15,11.15Zm40.41-43.19c-6.15,0-11.15-5-11.15-11.15s5-11.15,11.15-11.15,11.15,5,11.15,11.15-5,11.15-11.15,11.15Z"/><path d="m404.3,305.56c-4.07,0-7.9.99-11.3,2.72l-29.11-28.31v-46.87c0-3.85-3.12-6.97-6.97-6.97s-6.97,3.12-6.97,6.97v52.64l32.54,32.54c-2.08,3.65-3.28,7.86-3.28,12.35,0,13.83,11.25,25.08,25.08,25.08s25.08-11.25,25.08-25.08-11.25-25.08-25.08-25.08Zm0,36.23c-6.15,0-11.15-5-11.15-11.15s5-11.15,11.15-11.15,11.15,5,11.15,11.15-5,11.15-11.15,11.15Z"/><path d="m396.01,187.02h0s-.09-.3-.09-.3c.09-10.02-2.37-19.89-7.16-28.68-4.72-8.54-11.9-15.28-20.87-19.97-6.92-3.81-15.38-5.84-25.37-6.52-9.93-.67-18.15,1.58-24.66,6.97-18.98-24.22-41.94-32.51-68.94-25.13-26.98,7.17-42.53,26.01-46.64,56.5-30.3,2.6-46.24,17.23-47.85,43.71,2.31-.88,4.81-1.39,7.43-1.39,11.52,0,20.9,9.38,20.9,20.9v28.12c5.25,1.98,11.21,3.42,17.91,4.3h37.83v-32.42c0-11.52,9.38-20.9,20.9-20.9s20.9,9.38,20.9,20.9v32.42h55.73v-32.42c0-11.52,9.38-20.9,20.9-20.9s20.9,9.38,20.9,20.9v32.42h13.25c24.09-2.75,36.82-15.07,38.19-36.93,1.38-21.87-9.7-35.73-33.26-41.57Z"/><path d="m318.4,74.61c-13.89-11.64-30.24-17.71-49.54-18.16-14.35.23-27.35,3.83-39,10.78-11.44,6.94-20.64,16.34-27.82,27.79-8.52-5.16-18.16-7.62-28.91-7.62-17.07.45-31.21,6.28-42.48,17.27-11.21,10.99-17.04,25.1-17.49,42.14-.03,2.83.18,5.66.63,8.46-12.45,1.52-22.69,6.71-30.76,15.7-8.03,8.96-12.17,19.88-12.41,32.77.46,13.68,5.17,25.13,14.25,34.11,9.07,9.04,20.43,13.78,34.19,14.22,7.98,0,15.28-1.69,21.91-5.05,0,0-.37-22.23-.37-25.32.01-7.85,1.31-15.65,3.83-23.09,2.38-7.19,6.2-13.83,11.21-19.51,5.15-6.45,11.75-11.6,19.27-15.02,4.92-2.06,10.03-3.64,15.26-4.69,1.57-7.86,4.53-15.38,8.74-22.2,9.31-15.03,23.35-26.54,39.91-32.72,9.04-3.35,18.61-5.02,28.25-4.93,10.78,0,20.87,1.78,30.06,5.83,9.41,4.04,17.88,9.99,24.87,17.47,5.4-2,11.43-2.9,18.39-2.9h4.26c-3.59-18.61-12.35-33.63-26.25-45.29Z"/></svg>