<?xml version="1.0" encoding="UTF-8"?><svg id="a" xmlns="http://www.w3.org/2000/svg" viewBox="0 0 500 500"><path d="m426.78,73.22c-97.63-97.63-255.92-97.63-353.55,0-97.63,97.63-97.63,255.92,0,353.55s255.92,97.63,353.55,0c97.63-97.63,97.63-255.92,0-353.55ZM148.77,224.56l30.83,6.54-23.82,23.82-18.68-18.68,11.68-11.68Zm11.21,58.59l56.99,56.99-30.83,6.54-32.7-32.7,6.54-30.83Zm120.31,154.45c-9.93,1.58-20.05,2.4-30.3,2.4-50.75,0-98.46-19.76-134.35-55.65-35.89-35.89-55.65-83.6-55.65-134.35,0-4.88.19-9.72.55-14.54,7.07-3.94,15.58-4.5,23.77-.53,10.98,5.32,16.19,19.99,14.44,26.55-1.41,5.3,1.23,7.77,2.86,8.59,3.27.82,24.54,12.27,14.72,39.26-1.64,4.91,2.04,6.95,2.04,6.95,5.32,5.32,8.18,12.27,8.18,19.63,0,2.45,2.86,8.59,9.82,4.09l11.04-11.04,24.54,24.54-11.45,11.45c-4.5,6.95,1.64,9.82,4.09,9.82,5.32.41,13.5,2.04,19.63,8.18,0,0,2.04,4.5,7.36,1.64,10.63-5.73,29.86-3.68,39.26,14.72,1.64,3.27,5.32,4.5,7.77,2.86,13.5-7.77,31.49-3.68,39.67,10.23,3.72,5.84,5.53,15.99,1.99,25.19Zm-35.1-93.25l23.82-23.82,6.54,30.83-11.68,11.68-18.68-18.68Zm114.11-138.13l-126.12,126.12-26.43-26.43,31.76-31.76c3.46-3.46,3.46-9.08,0-12.55-3.46-3.46-9.08-3.46-12.55,0l-31.76,31.76-26.43-26.43,126.12-126.12c27.56-27.56,76.14-27.56,92.02-26.62.94,15.88.94,64.46-26.62,92.02Z"/><path d="m312.6,140.82c-13.08,13.08-13.08,33.63,0,46.71s33.63,13.08,46.71,0c13.08-13.08,13.08-33.63,0-46.71-13.08-13.08-33.63-13.08-46.71,0Zm34.65,34.65c-6.24,6.24-16.35,6.24-22.59,0-6.24-6.24-6.24-16.35,0-22.59,6.24-6.24,16.35-6.24,22.59,0,6.24,6.24,6.24,16.35,0,22.59Z"/></svg>