<?xml version="1.0" encoding="UTF-8"?><svg id="a" xmlns="http://www.w3.org/2000/svg" viewBox="0 0 500 500"><path d="m250,40c56.09,0,108.83,21.84,148.49,61.51,39.66,39.66,61.51,92.4,61.51,148.49s-21.84,108.83-61.51,148.49c-39.66,39.66-92.4,61.51-148.49,61.51s-108.83-21.84-148.49-61.51c-39.66-39.66-61.51-92.4-61.51-148.49s21.84-108.83,61.51-148.49c39.66-39.66,92.4-61.51,148.49-61.51m0-40C111.93,0,0,111.93,0,250s111.93,250,250,250,250-111.93,250-250S388.07,0,250,0h0Z"/><path d="m402.4,138.49h-78.12l-30.59-39.88c-1.64-2.73-4.37-3.82-7.1-3.82h-73.2c-2.73,0-5.46,1.64-7.1,3.82l-30.59,39.88h-18.57v-15.84c0-3.28-2.73-6.01-6.01-6.01h-31.68c-3.28,0-6.01,2.73-6.01,6.01v15.84h-15.84c-3.28,0-6.01,2.73-6.01,6.01v217.41c0,3.28,2.73,6.01,6.01,6.01h304.81c3.28,0,6.01-2.73,6.01-6.01v-217.41c0-3.28-2.73-6.01-6.01-6.01Zm-152.41,207.57c-51.35,0-92.86-41.52-92.86-92.86s41.52-92.86,92.86-92.86,92.86,41.52,92.86,92.86-41.51,92.86-92.86,92.86Z"/><path d="m250,173.5c-44.1,0-79.7,35.6-79.7,79.7s35.6,79.7,79.7,79.7,79.7-35.6,79.7-79.7-35.6-79.7-79.7-79.7Zm0,120.58c-22.77,0-40.88-18.1-40.88-40.88s18.1-40.88,40.88-40.88,40.88,18.1,40.88,40.88-18.1,40.88-40.88,40.88Z"/><path d="m250,225.89c-15.29,0-27.31,12.02-27.31,27.31s12.02,27.31,27.31,27.31,27.31-12.02,27.31-27.31-12.02-27.31-27.31-27.31Zm8.97,32.39c-5.82,0-10.54-4.72-10.54-10.54s4.72-10.54,10.54-10.54,10.54,4.72,10.54,10.54-4.72,10.54-10.54,10.54Z"/></svg>