<?xml version="1.0" encoding="UTF-8"?><svg id="a" xmlns="http://www.w3.org/2000/svg" viewBox="0 0 500 500"><path d="m250,40c56.09,0,108.83,21.84,148.49,61.51,39.66,39.66,61.51,92.4,61.51,148.49s-21.84,108.83-61.51,148.49c-39.66,39.66-92.4,61.51-148.49,61.51s-108.83-21.84-148.49-61.51c-39.66-39.66-61.51-92.4-61.51-148.49s21.84-108.83,61.51-148.49c39.66-39.66,92.4-61.51,148.49-61.51M250,0C111.93,0,0,111.93,0,250s111.93,250,250,250,250-111.93,250-250S388.07,0,250,0h0Z"/><path d="m182.14,342.55l-13.87-13.73-13.87-13.73c-.65-.64-1.61-.85-2.41-.52l-26.78,11.02c-.52.21-.91.63-1.11,1.15l-22.01,60.64c-.23.62-.05,1.21.32,1.63l26.31-26.63c-2.41-5.74.31-12.06,6.08-13.84,5.11-1.58,11.02,1.15,13.41,6.22,2.69,5.71.2,12.13-5.4,14.16-2.45.89-5.2.81-7.71-.22l-26.31,26.62c.43.41,1.05.62,1.71.37l60.34-22.71c.52-.2.93-.6,1.14-1.12l10.71-26.93c.32-.8.1-1.76-.55-2.4Z"/><path d="m160.47,310.19l26.11,26.11s78.26-69.36,119.24-110.35l-35.01-35.01c-40.99,40.4-110.35,119.24-110.35,119.24h0Z"/><path d="m386.93,109.24c-7.12-7.12-17.38-9.33-23.56-4.93-19.74,14.99-52.18,45.65-84.36,77.83l35.01,35.01c31.76-31.76,62.33-64.71,77.83-84.36,4.4-6.18,2.2-16.44-4.93-23.56h0Z"/><path d="m113.74,196.38l55,55c1.72,1.72,5.7.31,9.3-3.28s5-7.58,3.28-9.3l-51.56-51.56,12.58-12.58s-11.6-11.6-11.8-12.7l-8.09,8.09c-9.89,9.89-14.11,21.84-8.72,26.33Z"/><path d="m388.39,362.68l-23.97,23.97c9.55,2.96,19.71,5.33,30.51,6.54-1.26-10.25-3.63-20.41-6.54-30.51Z"/><path d="m295,251.33l-43.66,41.42,65.61,65.61c10.67,10.07,23.13,18.34,36.91,24.33l29.96-29.96c-5.45-13.84-13.72-26.3-24.33-36.91l-64.49-64.49Z"/><path d="m203.98,245.38l41.42-43.66-84.91-85.51c-1.45-1.45-3.61-1.22-5.41.58l-36.55,36.55c-1.8,1.8-2.03,3.96-.58,5.41l86.03,86.63Z"/><path d="m116.91,140.94l25.16-25.16-10.52-10.52c-5.46-6.06-15.91-5.12-23.1,2.07-7.14,6.64-8.08,17.09-2.07,23.1l10.52,10.52Z"/></svg>