<?xml version="1.0" encoding="UTF-8"?><svg id="a" xmlns="http://www.w3.org/2000/svg" viewBox="0 0 500 500"><path d="m490.51,103.45h-123.27l-48.28-62.93c-2.59-4.31-6.9-6.03-11.21-6.03h-115.52c-4.31,0-8.62,2.59-11.21,6.03l-48.28,62.93H9.48c-5.17,0-9.48,4.31-9.48,9.48v343.1c0,5.17,4.31,9.48,9.48,9.48h481.03c5.17,0,9.48-4.31,9.48-9.48V112.93c0-5.17-4.31-9.48-9.48-9.48h0ZM17.23,353.45c0-4.31,4.31-8.62,8.62-8.62s8.62,4.31,8.62,8.62v17.24c0,4.31-4.31,8.62-8.62,8.62s-8.62-4.31-8.62-8.62v-17.24Zm43.1,94.83h-24.14c-10.34,0-18.97-8.62-18.97-18.97v-24.14c0-4.31,4.31-8.62,8.62-8.62s8.62,4.31,8.62,8.62v25.86h25.86c4.31,0,8.62,4.31,8.62,8.62s-4.31,8.62-8.62,8.62Zm189.66-17.24c-81.03,0-146.55-65.52-146.55-146.55s65.52-146.55,146.55-146.55,146.55,65.52,146.55,146.55-65.52,146.55-146.55,146.55Zm232.76-284.48c0,4.31-4.31,8.62-8.62,8.62s-8.62-4.31-8.62-8.62v-8.62h-8.62c-4.31,0-8.62-4.31-8.62-8.62s4.31-8.62,8.62-8.62h9.48c8.62,0,16.38,7.76,16.38,16.38v9.48Z"/><path d="m103.44,78.45c0-5.17-4.31-9.48-9.48-9.48h-50c-5.17,0-9.48,4.31-9.48,9.48v7.76h68.97v-7.76Z"/><path d="m250,155.17c-71.55,0-129.31,57.76-129.31,129.31s57.76,129.31,129.31,129.31,129.31-57.76,129.31-129.31-57.76-129.31-129.31-129.31Zm-82.76,67.24c-3.45-3.45-3.45-8.62-.86-12.07,12.93-13.79,28.45-25,45.69-31.03,4.31-1.72,9.48.86,11.21,5.17s-.86,9.48-5.17,11.21c-14.66,5.17-28.45,14.66-38.79,25.86-1.72,1.72-8.62,4.31-12.07.86Zm22.41,62.07c0-33.62,26.72-60.34,60.34-60.34s60.34,26.72,60.34,60.34-26.72,60.34-60.34,60.34-60.34-26.72-60.34-60.34Zm157.75,56.03c-12.93,23.28-34.48,40.52-59.48,50-.86,0-8.62,1.72-11.21-5.17-1.72-4.31.86-9.48,5.17-11.21,21.55-7.76,38.79-22.41,50.86-42.24,2.59-4.31,7.76-5.17,12.07-3.45,3.45,2.59,4.31,7.76,2.59,12.07Zm-2.59-56.03c0-4.31,4.31-8.62,8.62-8.62s8.62,4.31,8.62,8.62c0,6.03-.86,12.93-1.72,18.97-.86,4.31-5.17,8.62-10.34,6.9-4.31-1.72-7.76-5.17-6.9-10.34,1.72-5.17,1.72-10.34,1.72-15.52Z"/><path d="m250,241.38c-24.14,0-43.1,18.97-43.1,43.1s18.97,43.1,43.1,43.1,43.1-18.97,43.1-43.1-18.97-43.1-43.1-43.1Zm17.24,51.72c-4.31,0-8.62-4.31-8.62-8.62s-4.31-8.62-8.62-8.62-8.62-4.31-8.62-8.62,4.31-8.62,8.62-8.62c14.66,0,25.86,11.21,25.86,25.86,0,4.31-4.31,8.62-8.62,8.62Z"/></svg>