<?xml version="1.0" encoding="UTF-8"?><svg id="a" xmlns="http://www.w3.org/2000/svg" viewBox="0 0 500 500"><path d="m250,0C111.93,0,0,111.93,0,250s111.93,250,250,250,250-111.93,250-250S388.07,0,250,0Zm-71.27,184h19.43c3.24,0,6.48-3.24,6.48-6.48s-3.24-6.48-6.48-6.48h-19.43v-12.95h19.43c3.24,0,6.48-3.24,6.48-6.48s-3.24-6.48-6.48-6.48h-19.43v-12.95h19.43c3.24,0,6.48-3.24,6.48-6.48s-3.24-6.48-6.48-6.48h-19.43c3.89-36.27,34.32-64.76,71.24-64.76s67.35,28.49,71.24,64.76h-19.43c-3.24,0-6.48,3.24-6.48,6.48s3.24,6.48,6.48,6.48h19.43v12.95h-19.43c-3.24,0-6.48,3.24-6.48,6.48s3.24,6.48,6.48,6.48h19.43v12.95h-19.43c-3.24,0-6.48,3.24-6.48,6.48s3.24,6.48,6.48,6.48h19.43v29.5h-142.47v-29.5Zm-4.37,41.17h151.22c3.15,0,6.3,3.39,6.3,6.78s-3.15,18.08-6.3,18.08h-151.22c-3.15,0-6.3-14.69-6.3-18.08s3.15-6.78,6.3-6.78Zm146.51,36.52c-5,35.04-34.86,62.22-70.9,62.22s-65.9-27.17-70.9-62.22h141.81Zm23.01,66.48c-21.67,23.02-52.35,37.31-84.62,39.53v49.11h60.24c5.38,0,9.28,3.7,9.28,8.79s-3.9,8.8-9.28,8.8h-139.04c-5.38,0-9.28-3.7-9.28-8.8s3.9-8.79,9.28-8.79h60.24v-49.11c-31.95-2.2-62.39-16.32-83.95-39.05-22.88-24.12-34.27-56.1-32.09-90.06.05-3.53,2.54-8.68,9.28-8.68h11.6c5.38,0,9.28,3.7,9.28,8.8s-3.9,8.79-9.28,8.79h-2.45c-.62,26.06,10.12,52.02,29.74,71.68,20.11,20.14,47.53,31.69,75.24,31.68.61,0,1.23,0,1.84-.02,33.67-.56,60.48-11.79,79.71-33.36,22.75-25.51,27.85-57.73,27.4-69.99h-2.61c-5.38,0-9.28-3.7-9.28-8.79s3.9-8.8,9.28-8.8h11.6c6.73,0,9.22,5.13,9.28,8.67,2.44,33.67-8.72,65.49-31.42,89.6Z"/></svg>