<?xml version="1.0" encoding="UTF-8"?><svg id="a" xmlns="http://www.w3.org/2000/svg" viewBox="0 0 500 500"><path d="m250,40c56.09,0,108.83,21.84,148.49,61.51,39.66,39.66,61.51,92.4,61.51,148.49s-21.84,108.83-61.51,148.49c-39.66,39.66-92.4,61.51-148.49,61.51s-108.83-21.84-148.49-61.51c-39.66-39.66-61.51-92.4-61.51-148.49s21.84-108.83,61.51-148.49c39.66-39.66,92.4-61.51,148.49-61.51m0-40C111.93,0,0,111.93,0,250s111.93,250,250,250,250-111.93,250-250S388.07,0,250,0h0Z"/><polygon points="306.9 374.3 306.9 374.3 306.9 374.3 306.9 374.3"/><path d="m186.67,354.85v-.12c.29-3.57.44-5.53,2.43-5.53,1.26,0,3.28.76,6.99,2.63,26.8,13.43,81.32,30.44,106.4,37.56,3.62,1.03,8.21,3.22,9.51,7.82,1.55,5.46-1.93,12.9-10.34,22.1-6.1,6.78-13.55,12.19-21.89,15.9-7.63,3.35-15.88,5.07-24.21,5.05-6.52,0-13.01-1.01-19.22-2.99-6.27-1.99-12.22-4.9-17.64-8.62-11.42-7.82-20.2-18.92-25.2-31.82-2.72-6.96-3.43-11.01-2.23-12.76.55-.73,1.44-1.13,2.35-1.04,2.31.22,4.55.92,6.57,2.05,1.01.48,2.1,1.01,3.24,1.56,7.36,3.56,17.45,8.42,27.64,12.38l.57.22c15.33,5.97,23.78,9.26,29.78,9.26,4.72,0,7.9-1.98,11.75-7.28-4.5-1.82-9.05-3.83-13.87-5.95l-.08-.04c-6.67-2.94-13.56-5.98-20.81-8.74-13.66-5.22-28.6-11.27-29.23-11.52l-2.29-1.04c-9.69-4.36-15.02-6.76-17.75-9.05-2.65-2.24-2.93-4.38-2.57-8.65.04-.48.08-.93.11-1.36Z"/><path d="m250,54.75c-5.61,0-9.68,4.07-9.68,9.69v12.42c0,5.61,4.07,9.69,9.68,9.69s9.68-4.07,9.68-9.69v-12.42c0-5.61-4.07-9.69-9.68-9.69Z"/><path d="m140.15,118.13c1.53,1.53,3.96,2.56,6.66,2.56,2.01,0,4.17-.57,6.21-1.93l.23-.16c1.96-1.47,3.2-3.81,3.38-6.41.2-2.83-.86-5.7-2.84-7.68l-9.37-9.38c-1.85-1.85-4.27-2.87-6.82-2.87s-4.96,1.02-6.82,2.87c-3.82,3.82-3.82,9.81,0,13.63l9.37,9.38Z"/><path d="m346.45,118.36c1.76,1.65,3.97,2.52,6.37,2.52.48,0,.96-.03,1.45-.1,2.15-.31,4.23-1.3,5.58-2.65l9.37-9.38c3.82-3.82,3.82-9.81,0-13.63-1.85-1.85-4.27-2.87-6.82-2.87s-4.96,1.02-6.82,2.87l-9.37,9.38c-1.98,1.98-3.04,4.86-2.84,7.68.17,2.47,1.29,4.69,3.08,6.17Z"/><path d="m132.16,190.42h-18.13c-5.52,0-9.53,4.01-9.53,9.54s4.01,9.54,9.53,9.54h18.13c5.52,0,9.53-4.01,9.53-9.54s-4.01-9.54-9.53-9.54Z"/><path d="m385.97,190.42h-18.13c-5.52,0-9.53,4.01-9.53,9.54s4.01,9.54,9.53,9.54h18.13c5.52,0,9.53-4.01,9.53-9.54s-4.01-9.54-9.53-9.54Z"/><path d="m344.63,266.56c-2.68-2.68-8.1-3.81-12.87-.63l-.23.16c-1.96,1.47-3.19,3.81-3.38,6.41-.2,2.83.86,5.7,2.84,7.68l9.37,9.38c1.85,1.85,4.27,2.87,6.82,2.87s4.96-1.02,6.82-2.87c3.82-3.82,3.82-9.81,0-13.63l-9.37-9.37Z"/><path d="m168.76,266.32c-1.74-1.63-3.99-2.52-6.38-2.52-2.59,0-5.34,1.08-7.01,2.75l-9.37,9.38c-3.82,3.82-3.82,9.81,0,13.63h0c1.85,1.85,4.27,2.87,6.81,2.87s4.96-1.02,6.82-2.87l9.37-9.38c1.98-1.98,3.05-4.86,2.84-7.68-.18-2.47-1.29-4.7-3.08-6.18Zm-19.22,19.7l3.52-3.54s0,0,.01,0l-3.54,3.53Z"/><path d="m338.76,151.98c-4.68-11.69-11.71-22.3-20.64-31.18-17.66-17.52-41.85-27.17-68.11-27.17s-50.45,9.65-68.11,27.17c-8.93,8.88-15.96,19.49-20.64,31.18-5.11,12.87-7.68,26.6-7.57,40.45-.04,6.95.82,13.88,2.56,20.62,1.56,5.92,3.81,11.64,6.7,17.03,5.51,10.4,12.8,19.13,19.85,27.57,12.56,15.05,24.42,29.26,24.42,50.62.07,6.19-.44,7.39-.67,7.61-.02.03-.05.04-.08.05-1.33.83-2.8,1.42-4.33,1.74-1.6.39-3.15.98-4.61,1.75-.72.52-.83,5.87-.52,10.54.22,3.35.6,5.48,1,5.7,10.59,5.73,19.83,10.47,30.53,15.02,9.48,4.03,20.32,8.03,37.44,13.78,1.91.64,3.89,1.33,5.81,2l.17.06c8.62,2.99,17.52,6.09,26.22,7.53.86.16,1.73.24,2.6.26,3.89,0,4.22-2.29,4.83-6.44l.03-.18c.05-.36.11-.74.17-1.13.66-4.26.85-6.21-1.64-7.86-2.52-1.67-7.75-2.92-18.19-5.41-2.21-.53-4.71-1.12-7.47-1.79-12.86-3.12-24.08-6.83-30.77-9.05l-.26-.09c-1.35-.45-2.51-.83-3.5-1.15-.36-1.42-.06-2.94.8-4.12,1.32-1.48,4.32-2.06,10.7-2.06,4.78,0,40.93,1.78,42.37,1.78,3.26,0,7.62-.44,7.93-4.24.25-3,1.45-10.99.85-11.74-.53-.65-1.69-.84-3.79-.97-7.13-.44-10.08-.62-10.05-11.59,0-20.21,11.52-33.93,23.73-48.46,7.18-8.56,14.61-17.4,20.27-28.13,2.98-5.6,5.29-11.53,6.89-17.67,1.79-7.05,2.68-14.31,2.64-21.58.11-13.84-2.46-27.58-7.56-40.45Zm-121.63-13.58c-.2,2.44-1.33,4.66-3.2,6.24-1.39,1.18-2.75,2.46-4.03,3.78-11.45,11.81-17.75,28.9-17.75,48.1,0,5.05-4.11,9.17-9.17,9.17s-9.16-4.11-9.17-9.17c0-23.99,8.14-45.61,22.91-60.86,1.7-1.75,3.49-3.43,5.32-4.99,3.85-3.28,9.65-2.81,12.92,1.04,1.58,1.86,2.35,4.23,2.15,6.67Zm41.99,177.78h-19.04c-4.76,0-9.52-4.76-9.52-9.52s4.76-9.52,9.52-9.52h19.04c4.76,0,9.52,4.76,9.52,9.52s-4.76,9.52-9.52,9.52Zm-4.3-185.57c-6.42,0-12.58.78-18.3,2.3-.77.21-1.57.31-2.37.31-4.14,0-7.78-2.79-8.85-6.8-1.3-4.88,1.61-9.92,6.49-11.22h0c7.27-1.94,15.02-2.93,23.03-2.93,5.05,0,9.17,4.11,9.17,9.17s-4.11,9.17-9.17,9.17Z"/></svg>