<?xml version="1.0" encoding="UTF-8"?><svg id="a" xmlns="http://www.w3.org/2000/svg" viewBox="0 0 500 500"><path d="m151.36,392.05l65.22,17.74-50.35-37.4c-2.4,8.15-7.67,15.35-14.87,19.66Z"/><path d="m250,40c56.09,0,108.83,21.84,148.49,61.51,39.66,39.66,61.51,92.4,61.51,148.49s-21.84,108.83-61.51,148.49-92.4,61.51-148.49,61.51-108.83-21.84-148.49-61.51c-39.66-39.66-61.51-92.4-61.51-148.49s21.84-108.83,61.51-148.49c39.66-39.66,92.4-61.51,148.49-61.51m0-40C111.93,0,0,111.93,0,250s111.93,250,250,250,250-111.93,250-250S388.07,0,250,0h0Z"/><path d="m364.83,83.5h-230.23c-2.3,0-5.17,2.87-5.17,5.74v292.81c13.21-2.87,22.97-14.35,22.97-28.13,0-2.3,1.15-4.02,2.87-5.17,1.72-1.15,4.59-.57,5.74.57l90.14,67.18h114.25c2.3,0,5.17-1.72,5.17-5.17V89.24c0-2.87-2.3-5.74-5.74-5.74Zm-201.8,22.97h148.02c6.06,0,12.11,6.06,12.11,12.11s-6.06,12.11-12.11,12.11h-148.02c-6.06,0-12.11-4.84-12.11-12.11s6.06-12.11,12.11-12.11Zm28.26,101.37c0,4.16-3.37,7.53-7.53,7.53h-24.95c-4.16,0-7.53-3.37-7.53-7.53v-24.95c0-4.16,3.37-7.53,7.53-7.53h24.95c4.16,0,7.53,3.37,7.53,7.53v24.95Zm78.53,7.53h-59.82c-4.15,0-8.29-2.99-8.29-7.48,0-3.74,4.14-7.48,8.29-7.48h59.82c4.14,0,8.29,3.74,8.29,7.48s-4.14,7.48-8.29,7.48Zm70.6-25.04h-130.42c-4.15,0-8.29-3.74-8.29-7.48s4.14-7.48,8.29-7.48h130.42c4.14,0,8.29,3.74,8.29,7.48s-4.15,7.48-8.29,7.48Zm-149.13,75.69c0,4.16-3.37,7.53-7.53,7.53h-24.95c-4.16,0-7.53-3.37-7.53-7.53v-24.95c0-4.16,3.37-7.53,7.53-7.53h24.95c4.16,0,7.53,3.37,7.53,7.53v24.95Zm78.53,7.53h-59.82c-4.15,0-8.29-2.99-8.29-7.48,0-3.74,4.14-7.48,8.29-7.48h59.82c4.14,0,8.29,3.74,8.29,7.48s-4.14,7.48-8.29,7.48Zm70.6-25.04h-130.42c-4.15,0-8.29-3.74-8.29-7.48s4.14-7.48,8.29-7.48h130.42c4.14,0,8.29,3.74,8.29,7.48s-4.15,7.48-8.29,7.48Zm-149.13,74.16c0,4.16-3.37,7.53-7.53,7.53h-24.95c-4.16,0-7.53-3.37-7.53-7.53v-24.95c0-4.16,3.37-7.53,7.53-7.53h24.95c4.16,0,7.53,3.37,7.53,7.53v24.95Zm78.53,7.53h-59.82c-4.15,0-8.29-2.99-8.29-7.48,0-3.74,4.14-7.48,8.29-7.48h59.82c4.14,0,8.29,3.74,8.29,7.48s-4.14,7.48-8.29,7.48Zm70.6-25.04h-130.42c-4.15,0-8.29-3.74-8.29-7.48s4.14-7.48,8.29-7.48h130.42c4.14,0,8.29,3.74,8.29,7.48s-4.15,7.48-8.29,7.48Zm-86.15-149.35h-95.06c-4.15,0-8.29-2.99-8.29-7.48,0-3.74,4.14-7.48,8.29-7.48h95.06c4.14,0,8.29,3.74,8.29,7.48s-4.14,7.48-8.29,7.48Z"/></svg>