<?xml version="1.0" encoding="UTF-8"?><svg id="a" xmlns="http://www.w3.org/2000/svg" viewBox="0 0 500 500"><path d="m250,0C111.93,0,0,111.93,0,250s111.93,250,250,250,250-111.93,250-250S388.07,0,250,0Zm107.25,190.58c2.68,0,5.36-2.68,5.36-5.36,0-9.12,6.97-16.09,16.09-16.09,5.36,0,11.26,3.22,13.94,8.58,1.61,2.68,4.29,3.22,6.97,2.15,0,0,5.36-.54,5.36,5.36.54,2.68,3.22,5.36,5.9,5.36s5.36,2.68,5.36,5.36-2.68,5.36-5.36,5.36h-53.63c-2.68,0-5.36-2.68-5.36-5.36s2.68-5.36,5.36-5.36Zm36.23,89.26c-3.33,13-13.14,6.64-15.75,2.86,0,0-5.23-15.77-22.06-17.31-7.08-.51-13.34.74-17.63,7.24-3.87,5.87-15.26,8.2-21.49,2.64l34.34-43.15c1.96-3.25,6.06-4.18,9.08-4.18,1.21,0,6.2.92,8.04,4.65l25.47,47.25ZM244.64,53.33c0-2.68,2.68-5.36,5.36-5.36s5.36,2.68,5.36,5.36v5.36h25.74c9.12,0,17.7,5.36,21.99,13.41,2.15,4.83,7.51,8.04,12.33,8.04h25.74c5.9,0,10.73,4.29,10.73,10.19v32.71c0,5.36-4.29,10.19-10.19,10.19h-36.47c-9.65,0-17.7-5.36-21.99-13.94-2.15-4.29-7.51-7.51-12.33-7.51h-15.55v23.6c-3.75-1.07-9.12,0-10.73.54V53.33Zm1.03,100.85c1.96-2.75,6-2.87,8.13-.25l23.25,28.63s-1.22,5.46-9.43-1.12c-23.71-16.27-34.29,7.83-34.29,7.83-9,9.73-10.63-2.96-10.63-2.96l22.97-32.12Zm-34.73,48.46c24.67,19.41,36.19-7.21,36.19-7.21,2.31-4.58,9.79-2.09,10.95-.84,11.86,11.5,26.14,4.21,29.43.84l37.08,45.66-61.96,77.86-28.59-40.46.3-.27-39.15-53.69,15.75-21.88Zm-75.75-77.46c2.68,0,5.36-2.68,5.36-5.36,0-5.9,5.36-5.36,5.36-5.36,2.68,1.07,5.9.54,7.51-2.15,2.68-5.36,8.58-8.58,13.94-8.58,9.12,0,16.09,6.97,16.09,16.09,0,2.68,2.68,5.36,5.36,5.36s5.36,2.68,5.36,5.36-2.68,5.36-5.36,5.36h-53.63c-2.68,0-5.36-2.68-5.36-5.36s2.68-5.36,5.36-5.36Zm11.23,80.41c2.21-3.01,4.73-4.3,8.22-4.3s6.81,1.28,8.18,4.3l34.18,46.88c-8.83,8.1-27.55,4.3-31.38-.67-20.83-19.69-38.52,9.5-38.52,9.5-9.16,8.72-10.36-.73-10.36-.73l29.68-54.98Zm103.59,239.4c-52.09,0-101.06-20.28-137.89-57.11-15.6-15.6-28.22-33.39-37.6-52.66l32.82-57.23c24.75,11.85,35.77-14.04,35.77-14.04,1.64-2.54,8.39-5.57,12.22-1.02,10.73,11.9,36.51,12.91,50.84,2.13l117.1,165.75c-22.97,9.3-47.74,14.19-73.27,14.19Zm137.89-57.11c-15.07,15.07-32.18,27.37-50.69,36.64l-65.57-92.81,35.61-44.75c12.38,4.41,27.2,13.7,40.87-2.55,3.75-4.46,10.81-2.15,12.58,1.08,0,0,17.1,32.73,40.7,10.42l23.79,39.92c-9.35,19.04-21.87,36.61-37.3,52.05Z"/></svg>