<?xml version="1.0" encoding="UTF-8"?><svg id="a" xmlns="http://www.w3.org/2000/svg" viewBox="0 0 1500 500"><path id="b" d="m257.06,0c-12.83,1.13-22.68,10.87-22.86,22.63,11.08-.64,20.63,7.03,21.33,17.13.03.44.04.87.04,1.31-1.08,13.37-5.18,26.39-12.06,38.24-8.99,19.21-17.11,29.09-24.49,29.54-5.08.12-10.16-.09-15.2-.63-5.08-.58-10.2-.8-15.32-.63-11.15.12-21.5,5.34-27.52,13.9,4.7,2.25,25.25,9.99,61.66,23.21,20.75,6.94,40.26,16.65,57.88,28.82,1.29-3.15,1.83-6.52,1.6-9.87-1.31-7.27-4.68-14.1-9.76-19.83-4.67-5.1-7.95-11.13-9.59-17.6.26-15.34,3.77-30.48,10.33-44.6,6.23-13.1,9.8-27.13,10.56-41.39-1.49-20.34-10.32-33.78-26.61-40.21ZM127.25,120.13c-19.63,1.71-36.51,13.41-43.59,30.19-10.13,20.51-17.68,41.99-22.53,64.04-5.24,22.12-10.48,44.13-15.5,66.23-9.71,33.43-19.35,66.86-28.93,100.28C4.33,427.85-1.17,460.44.21,478.63c.64,8.76,2.95,14.58,7.14,17.45,6.42,3.42,13.95,4.66,21.28,3.49,1.76-.11,5.51-4.83,11.24-14.17,10.19-15.6,21.92-30.32,35.06-43.97,24.42-26.12,37.44-40.01,39.08-41.87,18.24-21.74,38.69-41.86,61.07-60.1,26-19.57,52-39.2,77.98-58.9,32.68-28,48.37-52.41,46.84-73.32-.94-12.85-12.96-25.89-35.94-39.05-17.33-9.73-35.88-17.53-55.25-23.21-13.32-5.25-26.67-10.59-39.99-15.84-12.89-5.85-27.08-8.93-41.49-9h.02Zm154.19,96.51c-10.01,2.54-19.39,6.83-27.62,12.63-9.13,5.25-30.6,26.3-64.43,62.86-39.58,44.05-61.61,68.1-66.07,72.15l-6.02-3.96,68.79-77.2c32.88-38.85,48.74-65.94,47.58-81.28-.14-2.05-.62-4.06-1.44-5.98,8.63,9.05,25.03,15.97,49.21,20.75v.03Zm-10.13-150.75c-14.32,30.97-21.19,50.45-20.6,58.42,2.47,9.09,6.27,17.83,11.31,25.99l-25.65-13.29,34.94-71.12Zm-16.49-61.76c3.32,1.34,5.71,4.08,6.4,7.33.37,5.16-3.95,7.96-12.98,8.51-2.09.17-4.2,0-6.23-.5.77-6.9,5.72-12.83,12.81-15.34Z" opacity=".2"/><path id="c" d="m557.06,0c-12.83,1.13-22.68,10.87-22.86,22.63,11.08-.64,20.63,7.03,21.33,17.13.03.44.04.87.04,1.31-1.08,13.37-5.18,26.39-12.06,38.24-8.99,19.21-17.11,29.09-24.49,29.54-5.08.12-10.16-.09-15.2-.63-5.08-.58-10.2-.8-15.32-.63-11.15.12-21.5,5.34-27.52,13.9,4.7,2.25,25.25,9.99,61.66,23.21,20.75,6.94,40.26,16.65,57.88,28.82,1.29-3.15,1.83-6.52,1.6-9.87-1.31-7.27-4.68-14.1-9.76-19.83-4.67-5.1-7.95-11.13-9.59-17.6.26-15.34,3.77-30.48,10.33-44.6,6.23-13.1,9.8-27.13,10.56-41.39-1.49-20.34-10.32-33.78-26.61-40.21Zm-129.81,120.13c-19.63,1.71-36.51,13.41-43.59,30.19-10.13,20.51-17.68,41.99-22.53,64.04-5.24,22.12-10.48,44.13-15.5,66.23-9.71,33.43-19.35,66.86-28.93,100.28-12.37,46.98-17.87,79.56-16.5,97.76.64,8.76,2.95,14.58,7.14,17.45,6.42,3.42,13.95,4.66,21.28,3.49,1.76-.11,5.51-4.83,11.24-14.17,10.19-15.6,21.92-30.32,35.06-43.97,24.42-26.12,37.44-40.01,39.08-41.87,18.24-21.74,38.69-41.86,61.07-60.1,26-19.57,52-39.2,77.98-58.9,32.68-28,48.37-52.41,46.84-73.32-.94-12.85-12.96-25.89-35.94-39.05-17.33-9.73-35.88-17.53-55.25-23.21-13.32-5.25-26.67-10.59-39.99-15.84-12.89-5.85-27.08-8.93-41.49-9h.02Zm154.19,96.51c-10.01,2.54-19.39,6.83-27.62,12.63-9.13,5.25-30.6,26.3-64.43,62.86-39.58,44.05-61.61,68.1-66.07,72.15l-6.02-3.96,68.79-77.2c32.88-38.85,48.74-65.94,47.58-81.28-.14-2.05-.62-4.06-1.44-5.98,8.63,9.05,25.03,15.97,49.21,20.75v.03Zm-10.13-150.75c-14.32,30.97-21.19,50.45-20.6,58.42,2.47,9.09,6.27,17.83,11.31,25.99l-25.65-13.29,34.94-71.12Zm-16.49-61.76c3.32,1.34,5.71,4.08,6.4,7.33.37,5.16-3.95,7.96-12.98,8.51-2.09.17-4.2,0-6.23-.5.77-6.9,5.72-12.83,12.81-15.34Z" opacity=".2"/><path id="d" d="m857.06,0c-12.83,1.13-22.68,10.87-22.86,22.63,11.08-.64,20.63,7.03,21.33,17.13.03.44.04.87.04,1.31-1.08,13.37-5.18,26.39-12.06,38.24-8.99,19.21-17.11,29.09-24.49,29.54-5.08.12-10.16-.09-15.2-.63-5.08-.58-10.2-.8-15.32-.63-11.15.12-21.5,5.34-27.52,13.9,4.7,2.25,25.25,9.99,61.66,23.21,20.75,6.94,40.26,16.65,57.88,28.82,1.29-3.15,1.83-6.52,1.6-9.87-1.31-7.27-4.68-14.1-9.76-19.83-4.67-5.1-7.95-11.13-9.59-17.6.26-15.34,3.77-30.48,10.33-44.6,6.23-13.1,9.8-27.13,10.56-41.39-1.49-20.34-10.32-33.78-26.61-40.21Zm-129.81,120.13c-19.63,1.71-36.51,13.41-43.59,30.19-10.13,20.51-17.68,41.99-22.53,64.04-5.24,22.12-10.48,44.13-15.5,66.23-9.71,33.43-19.35,66.86-28.93,100.28-12.37,46.98-17.87,79.56-16.5,97.76.64,8.76,2.95,14.58,7.14,17.45,6.42,3.42,13.95,4.66,21.28,3.49,1.76-.11,5.51-4.83,11.24-14.17,10.19-15.6,21.92-30.32,35.06-43.97,24.42-26.12,37.44-40.01,39.08-41.87,18.24-21.74,38.69-41.86,61.07-60.1,26-19.57,52-39.2,77.98-58.9,32.68-28,48.37-52.41,46.84-73.32-.94-12.85-12.96-25.89-35.94-39.05-17.33-9.73-35.88-17.53-55.25-23.21-13.32-5.25-26.67-10.59-39.99-15.84-12.89-5.85-27.08-8.93-41.49-9h.02Zm154.19,96.51c-10.01,2.54-19.39,6.83-27.62,12.63-9.13,5.25-30.6,26.3-64.43,62.86-39.58,44.05-61.61,68.1-66.07,72.15l-6.02-3.96,68.79-77.2c32.88-38.85,48.74-65.94,47.58-81.28-.14-2.05-.62-4.06-1.44-5.98,8.63,9.05,25.03,15.97,49.21,20.75v.03Zm-10.13-150.75c-14.32,30.97-21.19,50.45-20.6,58.42,2.47,9.09,6.27,17.83,11.31,25.99l-25.65-13.29,34.94-71.12Zm-16.49-61.76c3.32,1.34,5.71,4.08,6.4,7.33.37,5.16-3.95,7.96-12.98,8.51-2.09.17-4.2,0-6.23-.5.77-6.9,5.72-12.83,12.81-15.34Z" opacity=".2"/><path id="e" d="m1157.06,0c-12.83,1.13-22.68,10.87-22.86,22.63,11.08-.64,20.63,7.03,21.33,17.13.03.44.04.87.04,1.31-1.08,13.37-5.18,26.39-12.06,38.24-8.99,19.21-17.11,29.09-24.49,29.54-5.08.12-10.16-.09-15.2-.63-5.08-.58-10.2-.8-15.32-.63-11.15.12-21.5,5.34-27.52,13.9,4.7,2.25,25.25,9.99,61.66,23.21,20.75,6.94,40.26,16.65,57.88,28.82,1.29-3.15,1.83-6.52,1.6-9.87-1.31-7.27-4.68-14.1-9.76-19.83-4.67-5.1-7.95-11.13-9.59-17.6.26-15.34,3.77-30.48,10.33-44.6,6.23-13.1,9.8-27.13,10.56-41.39-1.49-20.34-10.32-33.78-26.61-40.21Zm-129.81,120.13c-19.63,1.71-36.51,13.41-43.59,30.19-10.13,20.51-17.68,41.99-22.53,64.04-5.24,22.12-10.48,44.13-15.5,66.23-9.71,33.43-19.35,66.86-28.93,100.28-12.37,46.98-17.87,79.56-16.5,97.76.64,8.76,2.95,14.58,7.14,17.45,6.42,3.42,13.95,4.66,21.28,3.49,1.76-.11,5.51-4.83,11.24-14.17,10.19-15.6,21.92-30.32,35.06-43.97,24.42-26.12,37.44-40.01,39.08-41.87,18.24-21.74,38.69-41.86,61.07-60.1,26-19.57,52-39.2,77.98-58.9,32.68-28,48.37-52.41,46.84-73.32-.94-12.85-12.96-25.89-35.94-39.05-17.33-9.73-35.88-17.53-55.25-23.21-13.32-5.25-26.67-10.59-39.99-15.84-12.89-5.85-27.08-8.93-41.49-9h.02Zm154.19,96.51c-10.01,2.54-19.39,6.83-27.62,12.63-9.13,5.25-30.6,26.3-64.43,62.86-39.58,44.05-61.61,68.1-66.07,72.15l-6.02-3.96,68.79-77.2c32.88-38.85,48.74-65.94,47.58-81.28-.14-2.05-.62-4.06-1.44-5.98,8.63,9.05,25.03,15.97,49.21,20.75v.03Zm-10.13-150.75c-14.32,30.97-21.19,50.45-20.6,58.42,2.47,9.09,6.27,17.83,11.31,25.99l-25.65-13.29,34.94-71.12Zm-16.49-61.76c3.32,1.34,5.71,4.08,6.4,7.33.37,5.16-3.95,7.96-12.98,8.51-2.09.17-4.2,0-6.23-.5.77-6.9,5.72-12.83,12.81-15.34Z" opacity=".2"/><path id="f" d="m1457.06,0c-12.83,1.13-22.68,10.87-22.86,22.63,11.08-.64,20.63,7.03,21.33,17.13.03.44.04.87.04,1.31-1.08,13.37-5.18,26.39-12.06,38.24-8.99,19.21-17.11,29.09-24.49,29.54-5.08.12-10.16-.09-15.2-.63-5.08-.58-10.2-.8-15.32-.63-11.15.12-21.5,5.34-27.52,13.9,4.7,2.25,25.25,9.99,61.66,23.21,20.75,6.94,40.26,16.65,57.88,28.82,1.29-3.15,1.83-6.52,1.6-9.87-1.31-7.27-4.68-14.1-9.76-19.83-4.67-5.1-7.95-11.13-9.59-17.6.26-15.34,3.77-30.48,10.33-44.6,6.23-13.1,9.8-27.13,10.56-41.39-1.49-20.34-10.32-33.78-26.61-40.21Zm-129.81,120.13c-19.63,1.71-36.51,13.41-43.59,30.19-10.13,20.51-17.68,41.99-22.53,64.04-5.24,22.12-10.48,44.13-15.5,66.23-9.71,33.43-19.35,66.86-28.93,100.28-12.37,46.98-17.87,79.56-16.5,97.76.64,8.76,2.95,14.58,7.14,17.45,6.42,3.42,13.95,4.66,21.28,3.49,1.76-.11,5.51-4.83,11.24-14.17,10.19-15.6,21.92-30.32,35.06-43.97,24.42-26.12,37.44-40.01,39.08-41.87,18.24-21.74,38.69-41.86,61.07-60.1,26-19.57,52-39.2,77.98-58.9,32.68-28,48.37-52.41,46.84-73.32-.94-12.85-12.96-25.89-35.94-39.05-17.33-9.73-35.88-17.53-55.25-23.21-13.32-5.25-26.67-10.59-39.99-15.84-12.89-5.85-27.08-8.93-41.49-9h.02Zm154.19,96.51c-10.01,2.54-19.39,6.83-27.62,12.63-9.13,5.25-30.6,26.3-64.43,62.86-39.58,44.05-61.61,68.1-66.07,72.15l-6.02-3.96,68.79-77.2c32.88-38.85,48.74-65.94,47.58-81.28-.14-2.05-.62-4.06-1.44-5.98,8.63,9.05,25.03,15.97,49.21,20.75v.03Zm-10.13-150.75c-14.32,30.97-21.19,50.45-20.6,58.42,2.47,9.09,6.27,17.83,11.31,25.99l-25.65-13.29,34.94-71.12Zm-16.49-61.76c3.32,1.34,5.71,4.08,6.4,7.33.37,5.16-3.95,7.96-12.98,8.51-2.09.17-4.2,0-6.23-.5.77-6.9,5.72-12.83,12.81-15.34Z" opacity=".2"/></svg>