<?xml version="1.0" encoding="UTF-8"?><svg id="a" xmlns="http://www.w3.org/2000/svg" viewBox="0 0 1500 500"><g opacity=".2"><path id="b" d="m257.06.15c-13.36-1.14-24.08,4.11-22.12,17.38.38,2.59,1.82,7.39,10.59,7.66,9.22.28,9.4,5.95,10.01,14.71.03.43.04.87.04,1.31-1.08,13.36-5.18,26.38-12.06,38.22-8.99,19.21-12.41,21.02-19.78,21.47-5.08.12-10.16-.09-15.2-.63-5.08-.58-10.2-.79-15.32-.63-9.5.1-17.39,4.66-23.25,11.3-1.56,1.76-.86,4.55,1.32,5.43,8.59,3.48,27.75,10.62,57.47,21.41,19.3,6.45,37.52,15.3,54.15,26.29,1.92,1.27,4.47-.17,4.4-2.46-.06-2.05-.36-4.14-.49-5.94-1.31-7.27-4.68-14.1-9.76-19.82-4.67-5.1-12.16-11.92-13.2-18.51-2.33-14.77.16-21.37,4.44-35.07s8.13-27.98,8.89-42.24c-1.06-14.54-2.42-21-11.11-28.21-3.46-2.87-1.22-11-9.04-11.67ZM127.25,120.25c-19.63,1.71-36.51,13.4-43.59,30.18-10.13,20.5-17.68,41.97-22.53,64.02-5.24,22.11-10.48,44.12-15.5,66.21-9.71,33.42-19.35,66.84-28.93,100.25C4.33,427.87-1.17,460.45.21,478.64c.64,8.76,2.95,14.58,7.14,17.44,6.42,3.42,13.95,4.66,21.28,3.49,1.76-.11,5.51-4.83,11.24-14.17,10.19-15.6,21.92-30.31,35.06-43.95,24.42-26.11,37.44-40,39.08-41.85,18.24-21.73,38.69-41.85,61.07-60.08,26-19.56,52-39.19,77.98-58.89,32.68-27.99,48.37-52.39,46.84-73.3-.94-12.84-12.96-25.88-35.94-39.03-17.33-9.73-35.88-17.52-55.25-23.2-13.32-5.24-26.67-10.59-39.99-15.84-12.89-5.84-27.08-8.92-41.49-9h.02Zm139.06,91.69c-10.65,8.04-9.73,19.23-17.63,29.27-6.05,7.69-21.51,25.16-41.69,42.51-21.28,18.3-50,39.18-70.03,55.44l-14.03,1.5s46.83-38.16,61.28-52.16c43.42-42.05,44.72-71.25,43.56-86.58-.63-9.72-8.24-12.23-10.91-17.25-1.51-2.85,2.38-7.1,5.46-6.14,7.02,2.2,8.72,3.81,15.89,6.66,9.64,3.84,19.17,10.13,26.55,17.42l-7.33-6.67c4.77,4.71,14.23,11.95,8.88,15.98ZM251.32,4.71c3.71-.71,6.49,2.37,6,5.55-.23,3.71-2,6.55-8.88,7.27-1.51-.08-5.96,1.17-6.68-.72-3.5-9.15,4.41-11.13,9.56-12.11Z"/></g><g opacity=".2"><path id="c" d="m557.06.15c-13.36-1.14-24.08,4.11-22.12,17.38.38,2.59,1.82,7.39,10.59,7.66,9.22.28,9.4,5.95,10.01,14.71.03.43.04.87.04,1.31-1.08,13.36-5.18,26.38-12.06,38.22-8.99,19.21-12.41,21.02-19.78,21.47-5.08.12-10.16-.09-15.2-.63-5.08-.58-10.2-.79-15.32-.63-9.5.1-17.39,4.66-23.25,11.3-1.56,1.76-.86,4.55,1.32,5.43,8.59,3.48,27.75,10.62,57.47,21.41,19.3,6.45,37.52,15.3,54.15,26.29,1.92,1.27,4.47-.17,4.4-2.46-.06-2.05-.36-4.14-.49-5.94-1.31-7.27-4.68-14.1-9.76-19.82-4.67-5.1-12.16-11.92-13.2-18.51-2.33-14.77.16-21.37,4.44-35.07s8.13-27.98,8.89-42.24c-1.06-14.54-2.42-21-11.11-28.21-3.46-2.87-1.22-11-9.04-11.67Zm-129.81,120.1c-19.63,1.71-36.51,13.4-43.59,30.18-10.13,20.5-17.68,41.97-22.53,64.02-5.24,22.11-10.48,44.12-15.5,66.21-9.71,33.42-19.35,66.84-28.93,100.25-12.37,46.96-17.87,79.54-16.5,97.73.64,8.76,2.95,14.58,7.14,17.44,6.42,3.42,13.95,4.66,21.28,3.49,1.76-.11,5.51-4.83,11.24-14.17,10.19-15.6,21.92-30.31,35.06-43.95,24.42-26.11,37.44-40,39.08-41.85,18.24-21.73,38.69-41.85,61.07-60.08,26-19.56,52-39.19,77.98-58.89,32.68-27.99,48.37-52.39,46.84-73.3-.94-12.84-12.96-25.88-35.94-39.03-17.33-9.73-35.88-17.52-55.25-23.2-13.32-5.24-26.67-10.59-39.99-15.84-12.89-5.84-27.08-8.92-41.49-9h.02Zm139.06,91.69c-10.65,8.04-9.73,19.23-17.63,29.27-6.05,7.69-21.51,25.16-41.69,42.51-21.28,18.3-50,39.18-70.03,55.44l-14.03,1.5s46.83-38.16,61.28-52.16c43.42-42.05,44.72-71.25,43.56-86.58-.63-9.72-8.24-12.23-10.91-17.25-1.51-2.85,2.38-7.1,5.46-6.14,7.02,2.2,8.72,3.81,15.89,6.66,9.64,3.84,19.17,10.13,26.55,17.42l-7.33-6.67c4.77,4.71,14.23,11.95,8.88,15.98Zm-14.99-207.23c3.71-.71,6.49,2.37,6,5.55-.23,3.71-2,6.55-8.88,7.27-1.51-.08-5.96,1.17-6.68-.72-3.5-9.15,4.41-11.13,9.56-12.11Z"/></g><g opacity=".2"><path id="d" d="m857.06.15c-13.36-1.14-24.08,4.11-22.12,17.38.38,2.59,1.82,7.39,10.59,7.66,9.22.28,9.4,5.95,10.01,14.71.03.43.04.87.04,1.31-1.08,13.36-5.18,26.38-12.06,38.22-8.99,19.21-12.41,21.02-19.78,21.47-5.08.12-10.16-.09-15.2-.63-5.08-.58-10.2-.79-15.32-.63-9.5.1-17.39,4.66-23.25,11.3-1.56,1.76-.86,4.55,1.32,5.43,8.59,3.48,27.75,10.62,57.47,21.41,19.3,6.45,37.52,15.3,54.15,26.29,1.92,1.27,4.47-.17,4.4-2.46-.06-2.05-.36-4.14-.49-5.94-1.31-7.27-4.68-14.1-9.76-19.82-4.67-5.1-12.16-11.92-13.2-18.51-2.33-14.77.16-21.37,4.44-35.07s8.13-27.98,8.89-42.24c-1.06-14.54-2.42-21-11.11-28.21-3.46-2.87-1.22-11-9.04-11.67Zm-129.81,120.1c-19.63,1.71-36.51,13.4-43.59,30.18-10.13,20.5-17.68,41.97-22.53,64.02-5.24,22.11-10.48,44.12-15.5,66.21-9.71,33.42-19.35,66.84-28.93,100.25-12.37,46.96-17.87,79.54-16.5,97.73.64,8.76,2.95,14.58,7.14,17.44,6.42,3.42,13.95,4.66,21.28,3.49,1.76-.11,5.51-4.83,11.24-14.17,10.19-15.6,21.92-30.31,35.06-43.95,24.42-26.11,37.44-40,39.08-41.85,18.24-21.73,38.69-41.85,61.07-60.08,26-19.56,52-39.19,77.98-58.89,32.68-27.99,48.37-52.39,46.84-73.3-.94-12.84-12.96-25.88-35.94-39.03-17.33-9.73-35.88-17.52-55.25-23.2-13.32-5.24-26.67-10.59-39.99-15.84-12.89-5.84-27.08-8.92-41.49-9h.02Zm139.06,91.69c-10.65,8.04-9.73,19.23-17.63,29.27-6.05,7.69-21.51,25.16-41.69,42.51-21.28,18.3-50,39.18-70.03,55.44l-14.03,1.5s46.83-38.16,61.28-52.16c43.42-42.05,44.72-71.25,43.56-86.58-.63-9.72-8.24-12.23-10.91-17.25-1.51-2.85,2.38-7.1,5.46-6.14,7.02,2.2,8.72,3.81,15.89,6.66,9.64,3.84,19.17,10.13,26.55,17.42l-7.33-6.67c4.77,4.71,14.23,11.95,8.88,15.98Zm-14.99-207.23c3.71-.71,6.49,2.37,6,5.55-.23,3.71-2,6.55-8.88,7.27-1.51-.08-5.96,1.17-6.68-.72-3.5-9.15,4.41-11.13,9.56-12.11Z"/></g><g opacity=".2"><path id="e" d="m1157.06.15c-13.36-1.14-24.08,4.11-22.12,17.38.38,2.59,1.82,7.39,10.59,7.66,9.22.28,9.4,5.95,10.01,14.71.03.43.04.87.04,1.31-1.08,13.36-5.18,26.38-12.06,38.22-8.99,19.21-12.41,21.02-19.78,21.47-5.08.12-10.16-.09-15.2-.63-5.08-.58-10.2-.79-15.32-.63-9.5.1-17.39,4.66-23.25,11.3-1.56,1.76-.86,4.55,1.32,5.43,8.59,3.48,27.75,10.62,57.47,21.41,19.3,6.45,37.52,15.3,54.15,26.29,1.92,1.27,4.47-.17,4.4-2.46-.06-2.05-.36-4.14-.49-5.94-1.31-7.27-4.68-14.1-9.76-19.82-4.67-5.1-12.16-11.92-13.2-18.51-2.33-14.77.16-21.37,4.44-35.07s8.13-27.98,8.89-42.24c-1.06-14.54-2.42-21-11.11-28.21-3.46-2.87-1.22-11-9.04-11.67Zm-129.81,120.1c-19.63,1.71-36.51,13.4-43.59,30.18-10.13,20.5-17.68,41.97-22.53,64.02-5.24,22.11-10.48,44.12-15.5,66.21-9.71,33.42-19.35,66.84-28.93,100.25-12.37,46.96-17.87,79.54-16.5,97.73.64,8.76,2.95,14.58,7.14,17.44,6.42,3.42,13.95,4.66,21.28,3.49,1.76-.11,5.51-4.83,11.24-14.17,10.19-15.6,21.92-30.31,35.06-43.95,24.42-26.11,37.44-40,39.08-41.85,18.24-21.73,38.69-41.85,61.07-60.08,26-19.56,52-39.19,77.98-58.89,32.68-27.99,48.37-52.39,46.84-73.3-.94-12.84-12.96-25.88-35.94-39.03-17.33-9.73-35.88-17.52-55.25-23.2-13.32-5.24-26.67-10.59-39.99-15.84-12.89-5.84-27.08-8.92-41.49-9h.02Zm139.06,91.69c-10.65,8.04-9.73,19.23-17.63,29.27-6.05,7.69-21.51,25.16-41.69,42.51-21.28,18.3-50,39.18-70.03,55.44l-14.03,1.5s46.83-38.16,61.28-52.16c43.42-42.05,44.72-71.25,43.56-86.58-.63-9.72-8.24-12.23-10.91-17.25-1.51-2.85,2.38-7.1,5.46-6.14,7.02,2.2,8.72,3.81,15.89,6.66,9.64,3.84,19.17,10.13,26.55,17.42l-7.33-6.67c4.77,4.71,14.23,11.95,8.88,15.98Zm-14.99-207.23c3.71-.71,6.49,2.37,6,5.55-.23,3.71-2,6.55-8.88,7.27-1.51-.08-5.96,1.17-6.68-.72-3.5-9.15,4.41-11.13,9.56-12.11Z"/></g><g opacity=".2"><path id="f" d="m1457.06.15c-13.36-1.14-24.08,4.11-22.12,17.38.38,2.59,1.82,7.39,10.59,7.66,9.22.28,9.4,5.95,10.01,14.71.03.43.04.87.04,1.31-1.08,13.36-5.18,26.38-12.06,38.22-8.99,19.21-12.41,21.02-19.78,21.47-5.08.12-10.16-.09-15.2-.63-5.08-.58-10.2-.79-15.32-.63-9.5.1-17.39,4.66-23.25,11.3-1.56,1.76-.86,4.55,1.32,5.43,8.59,3.48,27.75,10.62,57.47,21.41,19.3,6.45,37.52,15.3,54.15,26.29,1.92,1.27,4.47-.17,4.4-2.46-.06-2.05-.36-4.14-.49-5.94-1.31-7.27-4.68-14.1-9.76-19.82-4.67-5.1-12.16-11.92-13.2-18.51-2.33-14.77.16-21.37,4.44-35.07s8.13-27.98,8.89-42.24c-1.06-14.54-2.42-21-11.11-28.21-3.46-2.87-1.22-11-9.04-11.67Zm-129.81,120.1c-19.63,1.71-36.51,13.4-43.59,30.18-10.13,20.5-17.68,41.97-22.53,64.02-5.24,22.11-10.48,44.12-15.5,66.21-9.71,33.42-19.35,66.84-28.93,100.25-12.37,46.96-17.87,79.54-16.5,97.73.64,8.76,2.95,14.58,7.14,17.44,6.42,3.42,13.95,4.66,21.28,3.49,1.76-.11,5.51-4.83,11.24-14.17,10.19-15.6,21.92-30.31,35.06-43.95,24.42-26.11,37.44-40,39.08-41.85,18.24-21.73,38.69-41.85,61.07-60.08,26-19.56,52-39.19,77.98-58.89,32.68-27.99,48.37-52.39,46.84-73.3-.94-12.84-12.96-25.88-35.94-39.03-17.33-9.73-35.88-17.52-55.25-23.2-13.32-5.24-26.67-10.59-39.99-15.84-12.89-5.84-27.08-8.92-41.49-9h.02Zm139.06,91.69c-10.65,8.04-9.73,19.23-17.63,29.27-6.05,7.69-21.51,25.16-41.69,42.51-21.28,18.3-50,39.18-70.03,55.44l-14.03,1.5s46.83-38.16,61.28-52.16c43.42-42.05,44.72-71.25,43.56-86.58-.63-9.72-8.24-12.23-10.91-17.25-1.51-2.85,2.38-7.1,5.46-6.14,7.02,2.2,8.72,3.81,15.89,6.66,9.64,3.84,19.17,10.13,26.55,17.42l-7.33-6.67c4.77,4.71,14.23,11.95,8.88,15.98Zm-14.99-207.23c3.71-.71,6.49,2.37,6,5.55-.23,3.71-2,6.55-8.88,7.27-1.51-.08-5.96,1.17-6.68-.72-3.5-9.15,4.41-11.13,9.56-12.11Z"/></g><path id="g" d="m1457.06.15c-13.36-1.14-24.08,4.11-22.12,17.38.38,2.59,1.82,7.39,10.59,7.66,9.22.28,9.4,5.95,10.01,14.71.03.43.04.87.04,1.31-1.08,13.36-5.18,26.38-12.06,38.22-8.99,19.21-12.41,21.02-19.78,21.47-5.08.12-10.16-.09-15.2-.63-5.08-.58-10.2-.79-15.32-.63-9.5.1-17.39,4.66-23.25,11.3-1.56,1.76-.86,4.55,1.32,5.43,8.59,3.48,27.75,10.62,57.47,21.41,19.3,6.45,37.52,15.3,54.15,26.29,1.92,1.27,4.47-.17,4.4-2.46-.06-2.05-.36-4.14-.49-5.94-1.31-7.27-4.68-14.1-9.76-19.82-4.67-5.1-12.16-11.92-13.2-18.51-2.33-14.77.16-21.37,4.44-35.07s8.13-27.98,8.89-42.24c-1.06-14.54-2.42-21-11.11-28.21-3.46-2.87-1.22-11-9.04-11.67Zm-129.81,120.1c-19.63,1.71-36.51,13.4-43.59,30.18-10.13,20.5-17.68,41.97-22.53,64.02-5.24,22.11-10.48,44.12-15.5,66.21-9.71,33.42-19.35,66.84-28.93,100.25-12.37,46.96-17.87,79.54-16.5,97.73.64,8.76,2.95,14.58,7.14,17.44,6.42,3.42,13.95,4.66,21.28,3.49,1.76-.11,5.51-4.83,11.24-14.17,10.19-15.6,21.92-30.31,35.06-43.95,24.42-26.11,37.44-40,39.08-41.85,18.24-21.73,38.69-41.85,61.07-60.08,26-19.56,52-39.19,77.98-58.89,32.68-27.99,48.37-52.39,46.84-73.3-.94-12.84-12.96-25.88-35.94-39.03-17.33-9.73-35.88-17.52-55.25-23.2-13.32-5.24-26.67-10.59-39.99-15.84-12.89-5.84-27.08-8.92-41.49-9h.02Zm139.06,91.69c-10.65,8.04-9.73,19.23-17.63,29.27-6.05,7.69-21.51,25.16-41.69,42.51-21.28,18.3-50,39.18-70.03,55.44l-14.03,1.5s46.83-38.16,61.28-52.16c43.42-42.05,44.72-71.25,43.56-86.58-.63-9.72-8.24-12.23-10.91-17.25-1.51-2.85,2.38-7.1,5.46-6.14,7.02,2.2,8.72,3.81,15.89,6.66,9.64,3.84,19.17,10.13,26.55,17.42l-7.33-6.67c4.77,4.71,14.23,11.95,8.88,15.98Zm-14.99-207.23c3.71-.71,6.49,2.37,6,5.55-.23,3.71-2,6.55-8.88,7.27-1.51-.08-5.96,1.17-6.68-.72-3.5-9.15,4.41-11.13,9.56-12.11Z"/><path d="m11.86,400C2.91,436.81-.97,463.03.21,478.64c.64,8.76,2.95,14.58,7.14,17.44,6.42,3.42,13.95,4.66,21.28,3.49,1.76-.11,5.51-4.83,11.24-14.17,10.19-15.6,21.92-30.31,35.06-43.95,23.12-24.73,36.02-38.48,38.72-41.45H11.86Z"/><path d="m487.14,300c-17.25,13.67-35.92,27.59-50.18,39.16l-14.03,1.5s29.17-23.77,48.57-40.67h-131.46c-7.82,26.97-15.6,53.94-23.33,80.91-12.37,46.96-17.87,79.54-16.5,97.73.64,8.76,2.95,14.58,7.14,17.44,6.42,3.42,13.95,4.66,21.28,3.49,1.76-.11,5.51-4.83,11.24-14.17,10.19-15.6,21.92-30.31,35.06-43.95,24.42-26.11,37.44-40,39.08-41.85,18.24-21.73,38.69-41.85,61.07-60.08,17.46-13.14,34.92-26.32,52.38-39.51h-40.31Z"/><path d="m898.17,200h-36.21c.96.86,1.9,1.73,2.8,2.63l-2.89-2.63h-.16c4.37,4.18,8.56,8.94,4.59,11.94-10.65,8.04-9.73,19.23-17.63,29.27-6.05,7.69-21.51,25.16-41.69,42.51-21.28,18.3-50,39.18-70.03,55.44l-14.03,1.5s46.83-38.16,61.28-52.16c43.42-42.05,44.72-71.25,43.56-86.58-.04-.68-.13-1.32-.24-1.93h-162.8c-1.33,4.79-2.53,9.6-3.59,14.45-5.24,22.11-10.48,44.12-15.5,66.21-9.71,33.42-19.35,66.84-28.93,100.25-12.37,46.96-17.87,79.54-16.5,97.73.64,8.76,2.95,14.58,7.14,17.44,6.42,3.42,13.95,4.66,21.27,3.49,1.76-.11,5.51-4.83,11.24-14.17,10.19-15.6,21.92-30.31,35.06-43.95,24.42-26.11,37.44-40,39.08-41.85,18.24-21.73,38.69-41.85,61.07-60.08,26-19.56,52-39.19,77.98-58.89,32.68-27.99,48.37-52.39,46.84-73.3-.18-2.44-.76-4.88-1.73-7.33Z"/><path d="m1128.81,100c-1.54.57-3.18.79-5.09.9-5.08.12-10.16-.09-15.2-.63-.92-.11-1.85-.19-2.77-.27h-16.79c-7.62,1.19-14.05,5.32-19.01,10.94-1.56,1.76-.86,4.55,1.32,5.43,8.59,3.48,27.75,10.62,57.48,21.41,19.3,6.45,37.52,15.3,54.15,26.29,1.92,1.27,4.47-.17,4.4-2.46-.06-2.05-.36-4.14-.49-5.94-1.31-7.27-4.68-14.1-9.76-19.82-4.67-5.1-12.16-11.92-13.2-18.51-1.12-7.11-1.12-12.32-.35-17.34h-34.71Z"/><path d="m1163.96,168.29c-17.33-9.73-35.88-17.52-55.25-23.2-13.32-5.24-26.67-10.59-39.99-15.83-12.89-5.84-27.08-8.92-41.48-9h.02c-19.63,1.71-36.51,13.4-43.59,30.18-10.13,20.5-17.68,41.97-22.52,64.02-5.24,22.11-10.48,44.12-15.5,66.21-9.71,33.42-19.35,66.84-28.93,100.25-12.37,46.96-17.87,79.54-16.5,97.73.64,8.76,2.95,14.58,7.14,17.44,6.42,3.42,13.95,4.66,21.28,3.49,1.76-.11,5.51-4.83,11.24-14.17,10.19-15.6,21.92-30.31,35.06-43.95,24.42-26.11,37.44-40,39.08-41.85,18.24-21.73,38.69-41.85,61.07-60.08,26-19.56,52-39.19,77.98-58.89,32.68-27.99,48.37-52.39,46.84-73.3-.94-12.84-12.96-25.88-35.94-39.03Zm.81,34.33l-4.51-4.1c1.57,1.32,3.08,2.69,4.51,4.1Zm1.54,9.31c-10.65,8.04-9.73,19.23-17.63,29.27-6.05,7.69-21.51,25.16-41.69,42.51-21.28,18.3-50,39.18-70.03,55.44l-14.03,1.5s46.83-38.16,61.28-52.16c43.42-42.05,44.72-71.25,43.56-86.58-.63-9.72-8.24-12.23-10.91-17.25-1.51-2.85,2.38-7.1,5.46-6.14,7.02,2.2,8.72,3.81,15.89,6.66,7.42,2.95,14.76,7.36,21.12,12.55,4.94,4.6,11.68,10.63,6.98,14.18Z"/></svg>