<?xml version="1.0" encoding="UTF-8"?><svg id="a" xmlns="http://www.w3.org/2000/svg" viewBox="0 0 500 500"><path d="m303.63,157.29h-45.6c-53.58,0-96.9,43.32-96.9,96.9s43.32,96.9,96.9,96.9h112.97l29.54,27.26v-124.16c0-53.58-43.32-96.9-96.9-96.9Zm-67.82,107.72c-5.41,0-10.82-4.33-10.82-10.82,0-5.41,5.41-10.82,10.82-10.82s10.82,5.41,10.82,10.82c0,6.49-5.41,10.82-10.82,10.82Zm45.02,0c-5.41,0-10.82-5.41-10.82-10.82,0-6.49,5.41-10.82,10.82-10.82s10.82,4.33,10.82,10.82-5.41,10.82-10.82,10.82Zm45.02,0c-5.41,0-10.82-5.41-10.82-10.82s5.41-10.82,10.82-10.82,10.82,5.41,10.82,10.82-5.41,10.82-10.82,10.82Zm56.53-3.35c-4.8,0-7.54-2.06-7.54-5.48-3.43-23.99-17.14-45.93-37.7-60.32-3.43-2.06-3.43-6.85-1.37-9.6,2.06-3.43,6.85-3.43,9.6-1.37,23.31,16.45,39.07,41.81,43.18,69.92.69,2.74-2.06,6.17-6.17,6.85Z"/><path d="m139.49,254.19c0-65.36,53.18-118.54,118.54-118.54h45.6c4.42,0,8.78.25,13.08.73-16.18-31.14-48.69-51.78-85.75-51.78h-45.6c-53.58,0-96.9,43.32-96.9,96.9v124.16l29.54-27.26h24c-1.63-7.82-2.49-15.92-2.49-24.22Zm-25.39-37.93c0,3.57-3.57,7.13-7.13,7.13s-7.13-3.57-7.13-7.13v-14.26c0-3.57,3.57-7.13,7.13-7.13s7.13,3.57,7.13,7.13v14.26Zm1.43-37.94c-.71,3.57-3.57,5.71-7.13,5.71-5.71,0-7.85-4.28-7.13-8.56,3.57-22.82,14.26-42.79,29.24-57.77,2.85-2.85,7.13-2.85,9.98,0,2.85,2.85,2.85,7.13,0,9.98-12.84,12.84-21.4,30.67-24.96,50.64Z"/><path d="m250,40c56.09,0,108.83,21.84,148.49,61.51,39.66,39.66,61.51,92.4,61.51,148.49s-21.84,108.83-61.51,148.49c-39.66,39.66-92.4,61.51-148.49,61.51s-108.83-21.84-148.49-61.51c-39.66-39.66-61.51-92.4-61.51-148.49s21.84-108.83,61.51-148.49c39.66-39.66,92.4-61.51,148.49-61.51M250,0C111.93,0,0,111.93,0,250s111.93,250,250,250,250-111.93,250-250S388.07,0,250,0h0Z"/></svg>