<?xml version="1.0" encoding="UTF-8"?><svg id="b" xmlns="http://www.w3.org/2000/svg" viewBox="0 0 350 500"><ellipse cx="175" cy="381.97" rx="5.37" ry="9.53"/><path d="m321.53,111.6V40h2.1c14.5,0,26.36-11.86,26.36-26.36V0H0v13.64c0,14.5,11.86,26.36,26.36,26.36h2.1v71.6c0,57.47,33.75,114.76,83.99,138.4-50.24,23.64-83.99,80.93-83.99,138.4v71.6h-2.1c-14.5,0-26.36,11.86-26.36,26.36v13.64h350v-13.64c0-14.5-11.86-26.36-26.36-26.36h-2.1v-71.6c0-57.47-33.75-114.76-83.99-138.4,50.24-23.64,83.99-80.93,83.99-138.4Zm-262.51,25.27c-.24-1.39,5.67-17.66,25.51-23.53,1.72-.51,3.48-.72,3.44,1.08l-.09,2.18c-2.32,60.73,25.96,90.54,45.82,105.88,1.44,1.11,1.41,3.29-.05,4.37l-.1.08c-.79.59-1.83.72-2.73.33-37.35-16.03-64.52-48.91-71.8-90.39Zm234.51,251.53v71.6h-85.12l-25.86-44.63c-3.36-5.8-11.74-5.8-15.1,0l-25.86,44.63H56.47v-71.6c0-57.6,41.38-111.88,96.13-122.31h5.76c4.01,8.48,8.87,27.75,10.27,71.63.34,10.57,12.21,10.57,12.74,0,2.19-43.87,6.96-63.15,10.73-71.63h5.3c54.75,10.44,96.13,64.72,96.13,122.31ZM217.04,77.91c-20.68-3.8-63.45-3.98-84.09,0-39.31,7.58-76.49,24.58-76.49,33.69V40h237.07v71.6c0-9.11-37.67-26.55-76.49-33.69Z"/></svg>