<?xml version="1.0" encoding="UTF-8"?><svg id="a" xmlns="http://www.w3.org/2000/svg" viewBox="0 0 500 500"><path d="m250,40c56.09,0,108.83,21.84,148.49,61.51,39.66,39.66,61.51,92.4,61.51,148.49s-21.84,108.83-61.51,148.49c-39.66,39.66-92.4,61.51-148.49,61.51s-108.83-21.84-148.49-61.51c-39.66-39.66-61.51-92.4-61.51-148.49s21.84-108.83,61.51-148.49c39.66-39.66,92.4-61.51,148.49-61.51M250,0C111.93,0,0,111.93,0,250s111.93,250,250,250,250-111.93,250-250S388.07,0,250,0h0Z"/><path d="m427.48,259.6c0-.16-.01-.31-.02-.47,0-.12,0-.25-.02-.37-.02-.18-.05-.35-.07-.53-.02-.1-.03-.21-.05-.31-.03-.18-.08-.35-.12-.52-.03-.11-.05-.21-.08-.32-.05-.15-.1-.3-.15-.45-.04-.13-.09-.25-.14-.38-.05-.12-.11-.24-.16-.36-.07-.15-.14-.31-.22-.46-.05-.09-.1-.18-.15-.27-.1-.17-.2-.34-.31-.51-.02-.03-.03-.05-.05-.08-.04-.05-.08-.1-.12-.15-.11-.16-.23-.31-.36-.47-.08-.1-.16-.19-.24-.28-.11-.12-.21-.24-.33-.35-.11-.11-.23-.22-.35-.33-.09-.08-.18-.16-.27-.24-.15-.13-.31-.24-.47-.36-.05-.04-.1-.08-.15-.12l-80.45-55.21v-77.06s0-.03,0-.04v-.05s0-.01,0-.02c0-.15-.01-.29-.02-.44,0-.13,0-.25-.02-.38-.02-.17-.04-.34-.07-.52-.02-.11-.03-.22-.05-.32-.03-.17-.08-.34-.12-.5-.03-.11-.05-.22-.09-.33-.01-.04-.02-.07-.03-.11-.04-.12-.09-.24-.13-.36-.04-.12-.08-.24-.13-.36-.06-.14-.12-.27-.18-.41-.06-.13-.12-.26-.19-.39-.06-.12-.13-.23-.19-.34-.08-.14-.16-.28-.25-.41-.03-.04-.05-.08-.08-.12,0,0,0,0,0-.01-.03-.04-.07-.08-.1-.13,0,0-.01-.02-.02-.02-.1-.14-.2-.28-.31-.42-.03-.04-.06-.07-.09-.11-.06-.07-.13-.14-.19-.22-.09-.11-.19-.21-.29-.31-.03-.03-.06-.06-.1-.1-.1-.1-.2-.18-.3-.27-.08-.07-.15-.14-.23-.21-.03-.03-.07-.06-.11-.09-.13-.11-.27-.2-.41-.3-.05-.04-.1-.08-.16-.12l-.04-.03s-.02-.01-.03-.02l-84.23-57.81s-.06-.03-.09-.05c-.16-.11-.32-.2-.49-.3-.1-.06-.19-.11-.29-.17-.14-.08-.29-.14-.44-.21-.12-.06-.25-.12-.38-.17-.12-.05-.24-.09-.36-.13-.15-.06-.31-.11-.47-.16-.1-.03-.21-.05-.31-.08-.17-.04-.35-.09-.52-.12-.11-.02-.22-.03-.32-.05-.17-.03-.34-.05-.51-.07-.14-.01-.27-.02-.41-.02-.14,0-.28-.02-.43-.02-.17,0-.35.01-.52.02-.1,0-.21,0-.31.02-.2.02-.4.05-.6.08-.08.01-.16.02-.24.04-.2.04-.4.09-.59.14-.08.02-.16.04-.24.06-.18.05-.35.11-.52.18-.1.04-.21.07-.31.11-.14.06-.28.12-.42.19-.13.06-.27.12-.4.19-.11.06-.21.12-.32.18-.15.09-.31.18-.46.28-.03.02-.07.04-.1.06l-84.3,57.86s-.03.03-.05.04c-.22.15-.43.31-.64.49-.04.04-.08.07-.12.11-.16.14-.31.28-.46.43-.06.06-.11.11-.17.17-.16.17-.32.35-.47.54-.05.07-.1.13-.15.2-.1.14-.2.28-.3.42-.05.08-.11.16-.16.24-.12.19-.23.39-.34.59-.03.06-.06.12-.08.17-.09.18-.17.36-.25.55-.03.07-.06.15-.09.22-.08.2-.15.41-.21.62,0,.03-.02.07-.03.1-.07.24-.13.49-.17.74-.01.06-.02.12-.03.19-.03.2-.06.4-.08.6,0,.06-.01.13-.02.19-.02.24-.03.47-.03.71v.06s0,.01,0,.02v77.07l-80.45,55.21s-.03.02-.05.04c-.22.15-.44.32-.64.49-.04.03-.07.06-.11.1-.16.14-.32.29-.48.45-.05.05-.1.1-.15.16-.17.18-.33.36-.48.55-.05.06-.09.12-.13.18-.11.15-.22.29-.32.45-.05.07-.1.15-.15.22-.13.2-.25.41-.36.62-.02.04-.04.08-.06.12-.09.19-.18.38-.26.58-.03.07-.06.14-.08.21-.08.21-.15.42-.22.64,0,.03-.02.05-.02.08-.07.25-.13.5-.18.75-.01.06-.02.12-.03.18-.03.2-.06.4-.08.61,0,.06-.01.13-.02.19-.02.24-.03.47-.03.71v.06s0,.01,0,.02v81.74c0,.62.08,1.22.2,1.82.08.96.4,1.92.99,2.78.17.25.37.48.58.7.58.77,1.27,1.46,2.08,2.02l84.3,57.85c.06.04.11.07.17.11.21.14.43.27.66.39.07.04.15.08.22.12.27.14.55.26.83.37.05.02.1.03.15.05.27.1.55.18.83.25.04,0,.08.02.11.03.31.07.62.13.93.17.06,0,.12.01.18.02.31.03.63.06.95.06,0,0,0,0,0,0s0,0,0,0c.32,0,.64-.02.96-.06.05,0,.11-.01.16-.02.32-.04.63-.1.94-.17.04,0,.07-.02.11-.03.31-.08.62-.17.92-.29.02,0,.03-.01.05-.02.3-.12.6-.25.9-.41.03-.01.06-.02.08-.04.05-.03.1-.06.15-.09.08-.05.17-.09.25-.14.12-.07.24-.15.35-.22.04-.03.09-.05.13-.08l79.28-54.41,79.28,54.41c.05.04.11.07.16.1.22.14.44.27.66.39.07.04.15.08.22.12.27.14.55.26.83.37.05.02.1.03.15.05.28.1.55.18.84.26.04,0,.07.02.11.03.31.07.62.13.93.17.06,0,.12.01.17.02.32.03.63.06.95.06,0,0,0,0,0,0s0,0,0,0c.32,0,.64-.02.96-.06.05,0,.11-.01.16-.02.32-.04.63-.1.95-.17.03,0,.07-.02.1-.03.31-.08.62-.17.93-.29.01,0,.03,0,.04-.01.31-.12.61-.26.91-.41.03-.01.05-.02.08-.03.05-.03.09-.05.14-.08.09-.05.18-.1.27-.15.11-.07.22-.14.33-.21.05-.03.1-.06.14-.09l84.3-57.86c2.5-1.72,3.85-4.49,3.85-7.32h0v-.05s0-.03,0-.04v-81.64s0-.03,0-.04v-.05h0Zm-84.36-41.04l59.81,41.04-44.72,30.69-15.09-10.18v-61.55Zm-84.38-139.73l59.88,41.1-44.71,30.68-15.17-10.24v-61.54Zm66.69,57.95v48.59l-35.7-24.09,35.7-24.5Zm-83.69-58.28v61.65l-16.24,10.05-44.11-30.28,60.36-41.42Zm-67.54,139.84l60.12,41.26-44.14,30.29-15.98-10.79v-60.77Zm-77.12,41.26l60.12-41.26v60.55l-16.84,10.42-43.28-29.71Zm68.62,47.09l-10.02-6.88,9.82-6.08,9.62,6.49-9.42,6.46Zm8.87,75.73v-60.3l16.36-11.23,44.3,29.89-60.66,41.63Zm66.55-58.16l-35.13-23.71,35.13-24.11v47.81Zm8.87-157.25l-9.19-6.3,9.23-5.71,8.81,5.94-8.85,6.07Zm8.87,15.44l15.79-10.83,44.3,29.89-60.09,41.24v-60.3Zm6.81,77.15l60.43-41.48v61.76l-16.24,10.05-44.2-30.33Zm68.62,47.09l-9.1-6.25,9.22-5.7,8.72,5.89-8.84,6.07Zm8.87,75.73v-60.3l15.78-10.83,44.3,29.89-60.08,41.23Zm66.55-57.37l-35.71-24.1,35.71-24.51v48.6Z"/></svg>