<?xml version="1.0" encoding="UTF-8"?><svg id="b" xmlns="http://www.w3.org/2000/svg" viewBox="0 0 350 500"><ellipse cx="175" cy="381.97" rx="5.37" ry="9.53"/><path d="m321.53,111.6V40h2.1c14.5,0,26.36-11.86,26.36-26.36V0H0v13.64c0,14.5,11.86,26.36,26.36,26.36h2.1v71.6c0,57.47,33.75,114.76,83.99,138.4-50.24,23.64-83.99,80.93-83.99,138.4v71.6h-2.1c-14.5,0-26.36,11.86-26.36,26.36v13.64h350v-13.64c0-14.5-11.86-26.36-26.36-26.36h-2.1v-71.6c0-57.47-33.75-114.76-83.99-138.4,50.24-23.64,83.99-80.93,83.99-138.4Zm-249.67,58.4c-1.01-2.65,12.63-9.73,18.42-12.59,1.29-.64,2.84.05,3.22,1.43,9.37,34.19,29.34,55.51,43.62,65.8l-4.33,3.23c-27.18-11.2-50.17-29.7-60.93-57.87Zm221.67,218.4v71.6h-85.12l-25.86-44.63c-3.36-5.8-11.74-5.8-15.1,0l-25.86,44.63H56.47v-71.6c0-57.6,41.38-111.88,96.13-122.31h5.76c4.01,8.48,8.87,27.75,10.27,71.63.34,10.57,12.21,10.57,12.74,0,2.19-43.87,6.96-63.15,10.73-71.63h5.3c54.75,10.44,96.13,64.72,96.13,122.31ZM218.86,125.91c-21.39-4.83-66.48-5.44-87.73,0-35.62,9.11-59.59,20.27-67.29,27.78-4.77-13.39-7.38-27.64-7.38-42.09V40h237.07v71.6c0,14.51-2.63,28.8-7.43,42.24-8.26-8.04-34.55-20.55-67.24-27.93Z"/></svg>