<?xml version="1.0" encoding="UTF-8"?><svg id="a" xmlns="http://www.w3.org/2000/svg" viewBox="0 0 500 500"><polygon points="174.57 322.13 174.57 382.43 235.23 340.8 190.93 310.9 174.57 322.13"/><polygon points="157.2 218.34 97.08 259.6 140.36 289.31 157.2 278.89 157.2 218.34"/><polygon points="165.5 293.74 155.68 299.82 165.7 306.7 175.11 300.23 165.5 293.74"/><polygon points="402.92 259.6 343.12 218.56 343.12 280.11 358.21 290.29 402.92 259.6"/><polygon points="325.43 185.37 325.43 136.78 289.73 161.28 325.43 185.37"/><polygon points="318.62 119.92 258.74 78.83 258.74 140.37 273.91 150.61 318.62 119.92"/><polygon points="241.74 140.15 241.74 78.5 181.38 119.92 225.49 150.2 241.74 140.15"/><polygon points="241.13 324.27 241.13 276.45 206 300.56 241.13 324.27"/><polygon points="234.32 259.6 174.2 218.34 174.2 279.11 190.18 289.89 234.32 259.6"/><polygon points="240.81 160.71 250 167.02 258.85 160.95 250.04 155 240.81 160.71"/><polygon points="409.73 325.06 409.73 276.45 374.02 300.96 409.73 325.06"/><path d="m250,0C111.93,0,0,111.93,0,250s111.93,250,250,250,250-111.93,250-250S388.07,0,250,0Zm177.48,259.69v81.64s0,.03,0,.04v.05h0c0,2.82-1.35,5.6-3.85,7.32l-84.3,57.86s-.1.06-.14.09c-.11.07-.22.14-.33.21-.09.05-.18.1-.27.15-.05.03-.09.06-.14.08-.03.01-.05.02-.08.03-.3.15-.6.29-.91.41-.01,0-.03,0-.04.01-.31.11-.62.21-.93.29-.03,0-.07.02-.1.03-.31.08-.63.13-.95.17-.05,0-.11.01-.16.02-.32.03-.64.06-.96.06,0,0,0,0,0,0s0,0,0,0c-.32,0-.63-.02-.95-.06-.06,0-.12-.01-.17-.02-.31-.04-.62-.09-.93-.17-.04,0-.07-.02-.11-.03-.28-.07-.56-.16-.84-.26-.05-.02-.1-.03-.15-.05-.28-.11-.56-.23-.83-.37-.07-.04-.15-.08-.22-.12-.23-.12-.45-.25-.66-.39-.05-.04-.11-.07-.16-.1l-79.28-54.41-79.28,54.41s-.09.05-.13.08c-.12.08-.23.15-.35.22-.08.05-.17.1-.25.14-.05.03-.1.06-.15.09-.03.01-.06.02-.08.04-.29.15-.59.29-.9.41-.02,0-.03.01-.05.02-.3.11-.61.21-.92.29-.04,0-.07.02-.11.03-.31.07-.63.13-.94.17-.05,0-.11.01-.16.02-.32.03-.64.06-.96.06,0,0,0,0,0,0s0,0,0,0c-.32,0-.63-.02-.95-.06-.06,0-.12-.01-.18-.02-.31-.04-.62-.09-.93-.17-.04,0-.08-.02-.11-.03-.28-.07-.56-.16-.83-.25-.05-.02-.1-.03-.15-.05-.28-.11-.56-.23-.83-.37-.08-.04-.15-.08-.22-.12-.22-.12-.44-.25-.66-.39-.06-.04-.11-.07-.17-.11l-84.3-57.85c-.81-.56-1.51-1.25-2.08-2.02-.21-.22-.4-.45-.58-.7-.59-.86-.91-1.81-.99-2.78-.12-.59-.2-1.2-.2-1.82v-81.74s0-.01,0-.02v-.06c0-.24.01-.48.03-.71,0-.06.01-.13.02-.19.02-.2.05-.41.08-.61.01-.06.02-.12.03-.18.05-.25.11-.5.18-.75,0-.03.02-.05.02-.08.06-.22.14-.43.22-.64.03-.07.05-.14.08-.21.08-.2.17-.39.26-.58.02-.04.04-.08.06-.12.11-.21.23-.42.36-.62.05-.08.1-.15.15-.22.1-.15.21-.3.32-.45.04-.06.09-.12.13-.18.15-.19.31-.38.48-.55.05-.05.1-.1.15-.16.15-.15.31-.3.48-.45.04-.03.07-.07.11-.1.21-.17.42-.34.64-.49.02-.01.03-.02.05-.04l80.45-55.21v-77.07s0-.01,0-.02v-.06c0-.24.01-.48.03-.71,0-.06.01-.13.02-.19.02-.2.05-.4.08-.6.01-.06.02-.12.03-.19.05-.25.11-.5.17-.74,0-.03.02-.06.03-.1.06-.21.13-.41.21-.62.03-.07.06-.15.09-.22.08-.19.16-.37.25-.55.03-.06.05-.12.08-.17.1-.2.22-.4.34-.59.05-.08.11-.16.16-.24.1-.14.19-.28.3-.42.05-.07.1-.13.15-.2.15-.19.31-.37.47-.54.06-.06.11-.12.17-.17.15-.15.3-.29.46-.43.04-.04.08-.07.12-.11.2-.17.42-.33.64-.49.02-.01.03-.03.05-.04l84.3-57.86s.07-.04.1-.06c.15-.1.3-.19.46-.28.11-.06.21-.13.32-.18.13-.07.26-.13.4-.19.14-.06.28-.13.42-.19.1-.04.21-.08.31-.11.17-.06.35-.13.52-.18.08-.02.16-.04.24-.06.2-.05.39-.1.59-.14.08-.02.16-.02.24-.04.2-.03.4-.06.6-.08.1,0,.21-.01.31-.02.17,0,.35-.02.52-.02.14,0,.28.01.43.02.14,0,.27,0,.41.02.17.02.34.04.51.07.11.02.22.03.32.05.17.03.35.08.52.12.1.03.21.05.31.08.16.05.31.1.47.16.12.04.24.08.36.13.13.05.25.11.38.17.15.07.29.14.44.21.1.05.19.11.29.17.16.1.33.19.49.3.03.02.06.03.09.05l84.23,57.81s.02.01.03.02l.04.03c.06.04.11.08.16.12.14.1.27.2.41.3.04.03.07.06.11.09.08.07.15.14.23.21.1.09.2.18.3.27.03.03.06.06.1.1.1.1.19.21.29.31.06.07.13.14.19.22.03.04.06.07.09.11.11.14.21.28.31.42,0,0,.01.02.02.02.03.04.07.08.1.13,0,0,0,0,0,.01.03.04.05.08.08.12.09.14.17.27.25.41.07.11.13.22.19.34.07.13.13.26.19.39.06.14.13.27.18.41.05.12.09.24.13.36.04.12.09.24.13.36.01.04.02.07.03.11.03.11.06.22.09.33.04.17.09.33.12.5.02.11.03.22.05.32.03.17.05.34.07.52.01.12.01.25.02.38,0,.15.02.29.02.44,0,0,0,.01,0,.02v.05s0,.03,0,.04v77.06l80.45,55.21c.05.04.1.08.15.12.16.11.32.23.47.36.09.08.18.16.27.24.12.11.24.22.35.33.11.11.22.23.33.35.08.09.16.18.24.28.13.15.24.31.36.47.04.05.08.1.12.15.02.03.03.05.05.08.11.17.21.34.31.51.05.09.11.18.15.27.08.15.15.3.22.46.05.12.11.24.16.36.05.12.09.25.14.38.05.15.11.3.15.45.03.1.05.21.08.32.04.17.09.35.12.52.02.1.03.21.05.31.03.18.06.35.07.53.01.12.01.25.02.37,0,.16.02.31.02.47h0v.05s0,.03,0,.04Z"/><polygon points="343.18 322.13 343.18 382.43 403.25 341.2 358.95 311.3 343.18 322.13"/><polygon points="274.66 171.62 258.87 182.45 258.87 242.75 318.96 201.51 274.66 171.62"/><polygon points="326.12 218.13 265.68 259.6 309.88 289.94 326.12 279.89 326.12 218.13"/><polygon points="325.2 300.45 334.3 306.7 343.14 300.63 334.42 294.74 325.2 300.45"/></svg>