<?xml version="1.0" encoding="UTF-8"?><svg id="a" xmlns="http://www.w3.org/2000/svg" viewBox="0 0 500 500"><path d="m180.19,219.43h45.21c3.77,0,7.53-3.77,7.53-7.53s-3.77-7.53-7.53-7.53h-45.21c-4.52,0-7.53,3.77-7.53,7.53s3.77,7.53,7.53,7.53Z"/><path d="m184.95,117.73v10.72c3.21,2.26,5.31,5.99,5.31,10.22,0,6.9-5.6,12.5-12.5,12.5s-12.5-5.6-12.5-12.5c0-4.23,2.1-7.95,5.31-10.22v-10.72c-8.89,3.01-15.31,11.42-15.31,21.32,0,12.41,10.09,22.5,22.5,22.5s22.5-10.09,22.5-22.5c0-9.89-6.42-18.31-15.31-21.32Z"/><path d="m256.83,118.35v11.1c3.21,2.26,5.31,5.99,5.31,10.22,0,6.9-5.6,12.5-12.5,12.5s-12.5-5.6-12.5-12.5c0-4.23,2.1-7.95,5.31-10.22v-11.1c-8.89,3.01-15.31,11.42-15.31,21.32,0,12.41,10.09,22.5,22.5,22.5s22.5-10.09,22.5-22.5c0-9.89-6.42-18.31-15.31-21.32Z"/><path d="m328.71,118.35v11.1c3.21,2.26,5.31,5.99,5.31,10.22,0,6.9-5.6,12.5-12.5,12.5s-12.5-5.6-12.5-12.5c0-4.23,2.1-7.95,5.31-10.22v-11.1c-8.89,3.01-15.31,11.42-15.31,21.32,0,12.41,10.09,22.5,22.5,22.5s22.5-10.09,22.5-22.5c0-9.89-6.42-18.31-15.31-21.32Z"/><path d="m134.98,219.43h15.07c3.77,0,7.53-3.77,7.53-7.53s-3.77-7.53-7.53-7.53h-15.07c-4.52,0-7.54,3.77-7.54,7.53s3.77,7.53,7.54,7.53Z"/><path d="m250,0C111.93,0,0,111.93,0,250s111.93,250,250,250,250-111.93,250-250S388.07,0,250,0ZM113.08,110.2c0-4.31,3.59-6.47,6.47-6.47h51.03v-14.38c0-3.59,3.59-7.19,7.19-7.19s7.19,3.59,7.19,7.19v14.38h57.5v-14.38c0-3.59,3.59-7.19,7.19-7.19s7.19,3.59,7.19,7.19v14.38h57.5v-14.38c0-3.59,3.59-7.19,7.19-7.19s7.19,3.59,7.19,7.19v14.38h51.04c4.31,0,6.47,3.59,6.47,6.47v65.41H113.08v-65.41Zm273.14,274.57c0,4.31-3.59,6.47-6.47,6.47h-81.22l87.69-26.59v20.13Zm-107.77.84l82.86-52.28,1.25,3.74c2.16,6.48,5.57,11.4,10.42,15.04l4.9,3.67-99.42,29.83Zm108.48-38.93c-8.63-2.88-14.38-10.78-14.38-20.13,0-2.16-.72-11.5-10.78-5.75l-113.57,70.44H113.08v-201.26s273.85,0,273.85,0v156.69Z"/><text transform="translate(0 -20)" font-family="MyriadPro-Regular, &apos;Myriad Pro&apos;" font-size="110"><tspan x="0" y="0" letter-spacing="-.03em">W</tspan><tspan x="89.43" y="0" letter-spacing="0em">eb</tspan></text></svg>