<?xml version="1.0" encoding="UTF-8"?><svg id="a" xmlns="http://www.w3.org/2000/svg" viewBox="0 0 500 500"><polygon points="294.52 171.05 273.16 171.05 205.1 294.13 226.1 294.13 294.52 171.05"/><path d="m202.94,207.79s-15.57-14.48-15.57-14.84c0,.36-42.35,40.18-42.35,40.18l41.99,39.82,15.57-14.84-21-20.63c-1.45-1.45-2.17-3.26-2.17-5.07s.72-3.62,2.17-5.07l21.36-19.55Z"/><path d="m297.06,257.75l15.57,14.84,42.35-40.18-42.35-40.18-15.57,14.84,21,20.63c1.45,1.45,2.17,3.26,2.17,5.07s-.72,3.62-2.17,5.07l-21,19.91Z"/><path d="m250,0C111.93,0,0,111.93,0,250s111.93,250,250,250,250-111.93,250-250S388.07,0,250,0ZM104.54,130.85c0-2.91,2.91-5.82,5.82-5.82h279.28c2.91,0,5.82,2.91,5.82,5.82v197.66h-116.37c-6.98,0-11.64,4.65-11.64,11.64h-34.91c0-6.98-4.65-11.64-11.64-11.64h-116.37v-197.66Zm285.1,232.57H110.36c-13.96,0-25.6-9.89-28.51-23.27h139.05c0,6.98,4.65,11.64,11.64,11.64h34.91c6.98,0,11.64-4.65,11.64-11.64h139.06c-2.91,13.38-14.55,23.27-28.51,23.27Z"/></svg>