<?xml version="1.0" encoding="UTF-8"?><svg id="a" xmlns="http://www.w3.org/2000/svg" viewBox="0 0 500 500"><path d="m379.75,391.24c2.88,0,6.47-2.16,6.47-6.47v-20.13l-87.69,26.59h81.22Z"/><path d="m361.31,333.33l1.25,3.74c2.16,6.48,5.57,11.4,10.42,15.04l4.9,3.67-99.42,29.83,82.86-52.28Z"/><path d="m113.08,391.24h135.13l113.57-70.44c10.06-5.75,10.78,3.59,10.78,5.75,0,9.34,5.75,17.25,14.38,20.13v-156.69H113.07v201.26Zm67.12-186.88h45.21c3.77,0,7.53,3.77,7.53,7.53s-3.77,7.53-7.53,7.53h-45.21c-3.77,0-7.53-3.77-7.53-7.53s3.01-7.53,7.53-7.53Zm-45.21,0h15.07c3.77,0,7.53,3.77,7.53,7.53s-3.77,7.53-7.53,7.53h-15.07c-3.77,0-7.53-3.77-7.53-7.53s3.01-7.53,7.53-7.53Z"/><circle cx="177.76" cy="139.67" r="10.48"/><circle cx="249.64" cy="139.67" r="10.48"/><circle cx="321.52" cy="139.67" r="10.48"/><circle cx="321.52" cy="139.67" r="12.5"/><circle cx="249.64" cy="139.67" r="12.5"/><path d="m379.75,103.73H119.55c-2.88,0-6.47,2.16-6.47,6.47v65.41h273.14v-65.41c0-2.88-2.16-6.47-6.47-6.47Zm-201.98,57.82c-12.41,0-22.5-10.09-22.5-22.5s10.09-22.5,22.5-22.5,22.5,10.09,22.5,22.5-10.09,22.5-22.5,22.5Zm71.88.62c-12.41,0-22.5-10.09-22.5-22.5s10.09-22.5,22.5-22.5,22.5,10.09,22.5,22.5-10.09,22.5-22.5,22.5Zm71.88,0c-12.41,0-22.5-10.09-22.5-22.5s10.09-22.5,22.5-22.5,22.5,10.09,22.5,22.5-10.09,22.5-22.5,22.5Z"/><circle cx="177.76" cy="138.67" r="12.5"/><path d="m184.95,89.35c0-3.59-3.59-7.19-7.19-7.19s-7.19,3.59-7.19,7.19v50.31h14.38v-50.31Z"/><path d="m256.83,89.35c0-3.59-3.59-7.19-7.19-7.19s-7.19,3.59-7.19,7.19v50.31h14.38v-50.31Z"/><path d="m328.71,89.35c0-3.59-3.59-7.19-7.19-7.19s-7.19,3.59-7.19,7.19v50.31h14.38v-50.31Z"/><path d="m250,40c56.09,0,108.83,21.84,148.49,61.51,39.66,39.66,61.51,92.4,61.51,148.49s-21.84,108.83-61.51,148.49-92.4,61.51-148.49,61.51-108.83-21.84-148.49-61.51c-39.66-39.66-61.51-92.4-61.51-148.49s21.84-108.83,61.51-148.49c39.66-39.66,92.4-61.51,148.49-61.51m0-40C111.93,0,0,111.93,0,250s111.93,250,250,250,250-111.93,250-250S388.07,0,250,0h0Z"/><text transform="translate(0 0)" font-family="MyriadPro-Regular, &apos;Myriad Pro&apos;" font-size="110"><tspan x="0" y="0">Uker</tspan></text></svg>