<?xml version="1.0" encoding="UTF-8"?><svg id="a" xmlns="http://www.w3.org/2000/svg" viewBox="0 0 500 500"><path d="m250,40c56.09,0,108.83,21.84,148.49,61.51,39.66,39.66,61.51,92.4,61.51,148.49s-21.84,108.83-61.51,148.49c-39.66,39.66-92.4,61.51-148.49,61.51s-108.83-21.84-148.49-61.51c-39.66-39.66-61.51-92.4-61.51-148.49s21.84-108.83,61.51-148.49c39.66-39.66,92.4-61.51,148.49-61.51M250,0C111.93,0,0,111.93,0,250s111.93,250,250,250,250-111.93,250-250S388.07,0,250,0h0Z"/><path d="m279.09,340.14c0,6.98-4.65,11.64-11.64,11.64h-34.91c-6.98,0-11.64-4.65-11.64-11.64H81.85c2.91,13.38,14.55,23.27,28.51,23.27h279.28c13.96,0,25.6-9.89,28.51-23.27h-139.06Z"/><path d="m389.64,125.03H110.36c-2.91,0-5.82,2.91-5.82,5.82v197.66h116.37c6.98,0,11.64,4.65,11.64,11.64h34.91c0-6.98,4.65-11.64,11.64-11.64h116.37v-197.66c0-2.91-2.91-5.82-5.82-5.82Zm-208.06,112.44l21,20.63-15.57,14.84-41.99-39.82s42.35-39.82,42.35-40.18c0,.36,15.57,14.84,15.57,14.84l-21.36,19.55c-1.45,1.45-2.17,3.26-2.17,5.07s.72,3.62,2.17,5.07Zm44.52,56.65h-21l68.05-123.07h21.36l-68.42,123.07Zm70.96-36.38l21-19.91c1.45-1.45,2.17-3.26,2.17-5.07s-.72-3.62-2.17-5.07l-21-20.63,15.57-14.84,42.35,40.18-42.35,40.18-15.57-14.84Z"/></svg>