<?xml version="1.0" encoding="UTF-8"?><svg id="a" xmlns="http://www.w3.org/2000/svg" viewBox="0 0 500 500"><path d="m172.54,361h-33.41c-4.72,0-8.59-3.86-8.59-8.59v-33.41c0-3-3-6-6-6s-6,3-6,6v36.84c0,9.48,7.68,17.16,17.16,17.16h36.84c3,0,6-3,6-6s-3-6-6-6Z"/><path d="m207,361h-12c-3,0-6,3-6,6s3,6,6,6h12c3,0,6-3,6-6s-3-6-6-6Z"/><path d="m251.54,0C113.47,0,1.54,111.93,1.54,250s111.93,250,250,250,250-111.93,250-250S389.61,0,251.54,0Zm-120.18,388.89c-15.41,0-28.7-13.29-28.7-28.7v-165.84c0-3.72,3.72-7.44,7.44-7.44h229.09c3.72,0,7.44,3.19,7.44,7.44v165.3c0,11.16,4.79,21.79,12.23,29.23h-227.5Zm269.06-27.11c0,15.41-13.21,26.04-21.26,26.04-12.86,0-20.73-14.88-20.73-28.17v-165.3c0-9.94-8.13-18.07-18.07-18.07H123.91v-67.74c0-4.09,3.35-7.44,7.44-7.44h104c1.87,0,3.65.83,4.85,2.27l22.9,27.45c1.2,1.44,2.99,2.28,4.87,2.27l126.08-.52h0c3.72,0,5.85,2.66,6.38,5.85v223.35Z"/></svg>