<?xml version="1.0" encoding="UTF-8"?><svg id="a" xmlns="http://www.w3.org/2000/svg" viewBox="0 0 500 500"><path d="m250,40c56.09,0,108.83,21.84,148.49,61.51,39.66,39.66,61.51,92.4,61.51,148.49s-21.84,108.83-61.51,148.49c-39.66,39.66-92.4,61.51-148.49,61.51s-108.83-21.84-148.49-61.51c-39.66-39.66-61.51-92.4-61.51-148.49s21.84-108.83,61.51-148.49c39.66-39.66,92.4-61.51,148.49-61.51M250,0C186.02,0,122.04,24.41,73.22,73.22c-97.63,97.63-97.63,255.92,0,353.55,48.82,48.82,112.8,73.22,176.78,73.22s127.96-24.41,176.78-73.22c97.63-97.63,97.63-255.92,0-353.55C377.96,24.41,313.98,0,250,0h0Z"/><path d="m412.48,142.96h-179.4c-2.95,0-4.73,1.77-4.73,4.73v44.52h139.42c4.73,0,17.72,2.95,17.72,18.9h0v40.17h25.97c3.17,0,5.75-2.57,5.75-5.75v-97.85c0-2.61-2.12-4.73-4.73-4.73Z"/><path d="m146.44,192.21v-24.33c0-3.52-2.85-6.37-6.37-6.37h-23.09v7.36c0,3.68-3.68,7.36-7.36,7.36s-7.36-3.68-7.36-7.36v-7.36h-23.09c-3.52,0-6.37,2.85-6.37,6.37v147.92c0,3.52,2.85,6.37,6.37,6.37h35.32v-115.88c0-7.75,6.34-14.09,14.09-14.09h17.87Z"/><path d="m255.14,263.75v35.53h16.2c-1.05-13.59-6.79-26.13-16.2-35.53Z"/><path d="m244.69,299.28v-35.53c-9.41,9.41-15.15,21.95-16.2,35.53h16.2Z"/><path d="m244.69,345.27v-35.53h-16.2c1.05,13.59,6.79,26.13,16.2,35.53Z"/><path d="m373.67,234.72h0v-25.39c0-2.36-2.35-5.3-5.89-5.3h-236.32c-2.36,0-5.3,2.95-5.3,5.3v25.39h0v139.44c0,4.14,3.54,6.5,6.5,6.5h97.81c-.59,12.41-1.52,13.29-6.25,23.93h-50.85c-2.95,0-5.91,2.95-5.91,5.91s2.95,5.91,5.91,5.91h150.74c2.95,0,5.91-2.95,5.91-5.91s-2.95-5.91-5.91-5.91h-47.9c-4.73-10.63-5.06-10.34-5.65-23.93h96.64c4.14,0,6.5-3.54,6.5-6.5v-16.54h0v-122.9Zm-159.12-18.91h141.44c2.95,0,5.89,2.95,5.89,5.89s-2.95,5.89-5.89,5.89h-141.44c-2.95,0-5.89-2.95-5.89-5.89s2.95-5.89,5.89-5.89Zm-23.57,0c2.95,0,5.89,2.95,5.89,5.89s-2.95,5.89-5.89,5.89-5.89-2.95-5.89-5.89,2.95-5.89,5.89-5.89Zm-23.57,0c2.95,0,5.89,2.95,5.89,5.89s-2.95,5.89-5.89,5.89-5.89-2.95-5.89-5.89,2.95-5.89,5.89-5.89Zm-23.57,0c2.95,0,5.89,2.95,5.89,5.89s-2.95,5.89-5.89,5.89-5.89-2.95-5.89-5.89,2.95-5.89,5.89-5.89Zm106.08,146.19c-31.88,0-57.48-25.61-57.48-57.48s25.61-57.48,57.48-57.48,57.48,25.61,57.48,57.48-25.61,57.48-57.48,57.48Z"/><path d="m233.19,260.61c-16.2,6.27-28.22,20.9-30.31,38.67h14.63c1.57-14.63,6.79-27.7,15.68-38.67Z"/><path d="m202.88,309.73c2.09,17.77,14.11,32.92,30.31,38.67-8.88-10.97-14.63-24.04-15.68-38.67h-14.63Z"/><path d="m266.12,260.61c8.88,10.97,14.63,24.04,15.68,38.67h14.63c-2.09-17.77-14.11-32.92-30.31-38.67Z"/><path d="m266.64,348.4c16.2-6.27,28.22-20.9,30.31-38.67h-14.63c-1.57,14.63-6.79,27.7-15.68,38.67Z"/><path d="m255.14,309.73v35.53c9.41-9.41,15.15-21.95,16.2-35.53h-16.2Z"/></svg>