<?xml version="1.0" encoding="UTF-8"?><svg id="a" xmlns="http://www.w3.org/2000/svg" viewBox="0 0 500 500"><path d="m294.27,94.74c-49.63,0-90,40.37-90,90s40.37,90,90,90,90-40.37,90-90-40.37-90-90-90Zm-61.81,63.51c.32-7.99,6.71-14.37,14.69-14.37h18.53v-7.98c0-9.9,7.98-17.89,17.89-17.89h21.72c9.9,0,17.89,8.3,17.89,17.89v7.98h18.52c7.98,0,14.37,6.39,14.37,14.37v13.42c-11.82,4.47-25.55,7.67-40.56,9.27-.64-7.99-7.35-14.38-15.65-14.38h-11.18c-8.3,0-15.01,6.39-15.65,14.38-15.01-1.6-28.75-4.8-40.57-9.27v-13.42Zm71.23,24.27v11.18c0,2.24-1.6,3.83-3.84,3.83h-11.18c-2.24,0-3.83-1.59-3.83-3.83v-11.18c0-2.24,1.59-3.83,3.83-3.83h11.18c2.24,0,3.84,1.59,3.84,3.83Zm52.38,39.61c0,7.98-6.39,14.37-14.38,14.37h-94.86c-7.98,0-14.37-6.39-14.37-14.37v-37.69c11.81,4.15,25.55,7.03,40.24,8.62v.64h.32c0,8.62,7.03,15.65,15.65,15.65h11.18c8.63,0,15.65-7.02,15.65-15.65v-.64c14.69-1.6,28.43-4.47,40.57-8.62v37.69Z"/><path d="m309.12,135.9c0-1.92-1.6-3.51-3.51-3.51h-21.72c-1.92,0-3.51,1.59-3.51,3.51v7.98h28.75v-7.98Z"/><path d="m250,0C111.93,0,0,111.93,0,250s111.93,250,250,250,250-111.93,250-250S388.07,0,250,0Zm-122.88,381.54c-7.23,7.95-22.41,7.95-29.64,0,0,0-15.18-14.46,0-31.09l94.63-93.92c8.3,11.78,18.58,22.06,30.36,30.36l-95.35,94.65Zm167.16-81.79c-63.41,0-115-51.59-115-115s51.59-115,115-115,115,51.59,115,115-51.59,115-115,115Z"/></svg>