<?xml version="1.0" encoding="UTF-8"?><svg id="a" xmlns="http://www.w3.org/2000/svg" viewBox="0 0 400 500"><path d="m8.15,328.97h127.75c4.98,0,9.06,3.97,9.06,8.82v156.16c0,3.65,3.07,6.06,6.26,6.06,1.56,0,3.15-.57,4.42-1.86l242.61-244.33c2.33-2.35,2.33-6.07,0-8.41L155.63,1.87c-1.27-1.28-2.86-1.85-4.41-1.85-3.19,0-6.26,2.41-6.26,6.06v154.43c0,4.85-4.08,8.82-9.06,8.82H8.15C2.72,169.33,0,173.74,0,177.27v143.77c0,4.38,3.65,7.94,8.15,7.94Zm31.85-119.65h132.96c6.63,0,12-5.37,12-12v-109.34l161.06,161.68-161.06,162.2v-110.89c0-6.63-5.37-12-12-12H40v-79.65Z"/></svg>