<?xml version="1.0" encoding="UTF-8"?><svg id="a" xmlns="http://www.w3.org/2000/svg" viewBox="0 0 500 500"><path d="m213.21,285.8c9.69,9.69,23.1,15.25,36.79,15.25s27.09-5.56,36.79-15.25l27.57-27.57c18.97-18.97,29.85-45.38,29.85-72.47v-27.57c0-25.26-9.77-48.95-27.52-66.69-17.75-17.75-41.43-27.52-66.69-27.52s-48.95,9.77-66.69,27.52c-17.75,17.75-27.52,41.43-27.52,66.69v27.57c0,27.49,10.6,53.22,29.85,72.47l27.57,27.57Zm8.7-157.92c-2.82-2.82-5.91-4.21-9.32-4.21-1.12,0-2.27.15-3.45.45l-2.45.57c-6.2,1.44-12.18,2.83-17.75,3.58,11.71-23.37,34.92-38.07,61.07-38.07h0c29.23,0,54.91,19.01,63.79,46.7-32.7,14.69-81.27,1.61-91.88-9.01Zm-39.99,27.08c8.84-.4,18.12-1.85,27.22-4.26,18.1,13.73,63.5,31.68,108.05,12.21v22.84c0,20.33-8.04,40.03-22.05,54.05l-27.57,27.57c-9.44,9.44-27.29,9.44-36.73,0l-27.57-27.57c-14.41-14.41-22.04-33.08-22.05-53.99.04-1.61.52-21.36.72-30.86Z"/><path d="m322.04,296.84c-.83-.24-1.67-.36-2.52-.36-3.39,0-6.77,1.92-9.11,5.4-12.93,19.23-35.34,31.8-60.43,31.8s-47.62-12.64-60.54-31.95c-2.42-3.61-5.87-5.69-9.35-5.69-.88,0-1.76.13-2.62.4-32.28,10.14-63.73,34.44-83.15,62.56,6.3,8.96,13.42,17.44,21.32,25.34,35.89,35.89,83.6,55.65,134.35,55.65s98.46-19.76,134.35-55.65c7.94-7.94,15.09-16.46,21.41-25.47-19.5-28.14-51.24-52.56-83.72-62.04Zm41.09,66.3c-30.22,30.22-70.4,46.86-113.14,46.86s-82.92-16.64-113.14-46.86c-1.3-1.3-2.58-2.62-3.83-3.96,11.82-12.06,26.12-22.33,40.6-29.08,19.24,21.25,46.85,33.59,76.36,33.59s56.94-12.27,76.17-33.4c14.52,6.48,28.92,16.67,40.87,28.81-1.28,1.37-2.58,2.72-3.91,4.04Z"/><path d="m250,0C111.93,0,0,111.93,0,250s111.93,250,250,250,250-111.93,250-250S388.07,0,250,0Zm148.49,398.49c-39.66,39.66-92.4,61.51-148.49,61.51s-108.83-21.84-148.49-61.51-61.51-92.4-61.51-148.49,21.84-108.83,61.51-148.49c39.66-39.66,92.4-61.51,148.49-61.51s108.83,21.84,148.49,61.51c39.66,39.66,61.51,92.4,61.51,148.49s-21.84,108.83-61.51,148.49Z"/></svg>