<?xml version="1.0" encoding="UTF-8"?><svg id="a" xmlns="http://www.w3.org/2000/svg" viewBox="0 0 500 500"><path d="m250.04,40c56.09,0,108.83,21.84,148.49,61.51,39.66,39.66,61.51,92.4,61.51,148.49s-21.84,108.83-61.51,148.49c-39.66,39.66-92.4,61.51-148.49,61.51s-108.83-21.84-148.49-61.51c-39.66-39.66-61.51-92.4-61.51-148.49s21.84-108.83,61.51-148.49c39.66-39.66,92.4-61.51,148.49-61.51M250.04,0C111.97,0,.04,111.93.04,250s111.93,250,250,250,250-111.93,250-250S388.12,0,250.04,0h0Z"/><path d="m241.91,400.77v-122.95h-16.17v.08c0,20.21-16.98,37.19-37.19,37.19,0,0-11.32,2.43-11.32-8.08,0-9.7,11.32-8.08,11.32-8.08,12.13,0,21.02-8.89,21.02-21.02v-71.14c0-12.13-8.89-21.02-21.02-21.02,0,0-11.32,3.23-11.32-8.08,0-9.7,11.32-8.08,11.32-8.08,20.21,0,37.19,13.78,37.19,33.99h16.17v-102.71c0-16.17-12.13-28.29-29.1-29.91h-24.25c-14.55,0-26.68,11.32-27.48,25.06,0,4.04-4.04,7.28-8.08,7.28h-11.32c-16.17,0-28.29,12.13-28.29,28.29v25.06c0,6.47,3.23,10.51,4.04,15.36,4.04,14.55-8.89,12.93-8.89,12.93-16.17,0-28.29,12.13-28.29,28.29v25.06c0,8.08,4.85,16.17,10.51,21.83,6.47,6.47,1.62,11.32,0,12.93-6.47,4.85-10.51,13.74-10.51,21.83v25.06c0,14.55,11.32,26.68,25.06,27.48,4.04,0,7.28,4.04,7.28,8.08v12.13c0,15.36,12.13,28.29,27.48,29.1h12.93c4.04,0,8.08,3.23,8.08,7.28,1.62,13.74,13.74,25.06,27.48,25.06h25.06c16.17,0,28.29-12.13,28.29-28.29h0Zm-56.59-295.86h13.74c14.55,0,26.68,12.13,26.68,26.68v13.74c0,4.04-4.04,8.08-8.08,8.08s-8.08-4.04-8.08-8.08v-13.74c0-4.85-4.04-10.51-10.51-10.51h-13.74c-4.04,0-8.08-4.04-8.08-8.08s4.04-8.08,8.08-8.08Zm-40.42,59.82c0-14.55,12.93-27.48,27.48-27.48h12.93c4.04,0,8.08,4.04,8.08,8.08s-4.04,8.08-8.08,8.08h-12.93c-6.47,0-11.32,5.66-11.32,11.32v25.87c0,6.47,5.66,11.32,11.32,11.32h12.93c4.04,0,8.08,4.04,8.08,8.08s-4.04,8.08-8.08,8.08h-12.93c-14.55,0-27.48-12.93-27.48-27.48v-25.87Zm-16.17,85.69v8.08c0,4.04-4.04,8.08-8.08,8.08s-8.08-4.04-8.08-8.08v-32.33c0-4.04,4.04-8.08,8.08-8.08s8.08,4.04,8.08,8.08v8.08h24.25c4.04,0,8.08,4.04,8.08,8.08s-4.04,8.08-8.08,8.08h-24.25Zm16.17,69.52v-25.87c0-14.55,12.93-27.48,27.48-27.48h12.93c4.04,0,8.08,4.04,8.08,8.08s-4.04,8.08-8.08,8.08h-12.93c-6.47,0-11.32,5.66-11.32,11.32v25.87c0,6.47,5.66,11.32,11.32,11.32h12.93c4.04,0,8.08,4.04,8.08,8.08s-4.04,8.08-8.08,8.08h-12.93c-14.55,0-27.48-12.93-27.48-27.48Zm54.16,92.15h-13.74c-4.04,0-8.08-4.04-8.08-8.08s4.04-8.08,8.08-8.08h13.74c4.85,0,10.51-4.04,10.51-10.51v-13.74c0-4.04,4.04-8.08,8.08-8.08s8.08,4.04,8.08,8.08v13.74c0,14.55-12.13,26.68-26.68,26.68Z"/><path d="m286.38,428.25h25.06c14.55,0,26.68-11.32,27.48-25.06,0-4.04,4.04-7.28,8.08-7.28h12.93c15.36-.81,27.48-13.74,27.48-29.1v-11.32c0-4.04,3.23-8.08,7.28-8.08,13.74-1.62,25.06-13.74,25.06-27.48v-25.06c0-8.08-4.04-16.98-10.51-21.83-1.62-1.62-6.47-6.47,0-12.93,5.66-5.66,10.51-13.74,10.51-21.83v-25.06c0-16.17-12.13-28.29-28.29-28.29,0,0-12.93,2.43-8.89-12.93,1.62-4.85,4.04-8.89,4.04-15.36v-25.06c0-16.17-12.13-28.29-28.29-28.29h-11.32c-4.04,0-8.08-3.23-8.08-7.28-1.62-13.74-13.74-25.06-27.48-25.06h-24.25c-16.17,1.62-29.1,14.55-29.1,29.91v102.7h16.17c0-20.21,16.98-33.99,37.19-33.99,0,0,11.32-1.62,11.32,8.08,0,11.32-11.32,8.08-11.32,8.08-12.13,0-21.02,8.89-21.02,21.02v71.14c0,12.13,8.89,21.02,21.02,21.02,0,0,11.32-1.62,11.32,8.08,0,10.51-11.32,8.08-11.32,8.08-20.21,0-37.19-16.98-37.19-37.19v-.08h-16.17v122.96c0,15.36,12.13,27.48,28.29,27.48h0Zm36.38-315.27c0,4.04-4.04,8.08-8.08,8.08h-13.74c-6.47,0-10.51,5.66-10.51,10.51v13.74c0,4.04-4.04,8.08-8.08,8.08s-8.08-4.04-8.08-8.08v-13.74c0-14.55,12.13-26.68,26.68-26.68h13.74c4.04,0,8.08,3.23,8.08,8.08Zm32.33,76.8c0,14.55-12.93,27.48-27.48,27.48h-12.93c-4.04,0-8.08-4.04-8.08-8.08s4.04-8.08,8.08-8.08h12.93c6.47,0,11.32-5.66,11.32-11.32v-25.87c0-6.47-5.66-11.32-11.32-11.32h-12.93c-4.04,0-8.08-4.04-8.08-8.08s4.04-8.08,8.08-8.08h12.93c14.55,0,27.48,12.93,27.48,27.48v25.87Zm-8.08,60.63c-4.04,0-8.08-4.04-8.08-8.08s4.04-8.08,8.08-8.08h24.25v-8.08c0-4.04,4.04-8.08,8.08-8.08s8.08,4.04,8.08,8.08v32.33c0,4.04-4.04,8.08-8.08,8.08s-8.08-4.04-8.08-8.08v-8.08h-24.25Zm-19.4,97h-12.93c-4.04,0-8.08-4.04-8.08-8.08s4.04-8.08,8.08-8.08h12.93c6.47,0,11.32-5.66,11.32-11.32v-25.87c0-6.47-5.66-11.32-11.32-11.32h-12.93c-4.04,0-8.08-4.04-8.08-8.08s4.04-8.08,8.08-8.08h12.93c14.55,0,27.48,12.93,27.48,27.48v25.87c0,14.55-12.93,27.48-27.48,27.48Zm-53.35,37.99v-13.74c0-4.04,4.04-8.08,8.08-8.08s8.08,4.04,8.08,8.08v13.74c0,6.47,5.66,10.51,10.51,10.51h13.74c4.04,0,8.08,4.04,8.08,8.08s-4.04,8.08-8.08,8.08h-13.74c-14.55,0-26.68-12.93-26.68-26.68Z"/><path d="m258.67,234.68v11.81h-17.33v-11.81h17.33m12.62-15.66h-42.58c-1.68,0-3.04,1.36-3.04,3.04v37.05c0,1.68,1.36,3.04,3.04,3.04h42.58c1.68,0,3.04-1.36,3.04-3.04v-37.05c0-1.68-1.36-3.04-3.04-3.04h0Z"/></svg>