<?xml version="1.0" encoding="UTF-8"?><svg id="a" xmlns="http://www.w3.org/2000/svg" viewBox="0 0 500 500"><path d="m249.13,0C111.06,0-.87,111.93-.87,250s111.93,250,250,250,250-111.93,250-250S387.2,0,249.13,0Zm38.01,253.25l96.71,96.71h.01c9.28,9.28,9.28,24.91,0,34.68-9.28,9.28-24.91,9.28-34.68,0l-96.71-96.71c-1.95-1.95-4.88-1.95-6.84,0l-96.71,96.22c-9.28,9.28-24.91,9.28-34.68,0-9.28-9.28-9.28-24.91,0-34.68l97.19-96.22c2.93-2.44.98-5.86,0-6.84l-96.22-96.71c-9.28-9.28-9.28-24.91,0-34.68,3.91-3.91,20.51-12.7,33.21,0l97.19,96.71c1.95,1.95,4.88,1.95,6.84,0l96.71-96.71c19.54-15.14,34.19.49,34.19.49,4.4,4.4,14.65,19.05,0,34.19l-96.22,96.71c-1.95,1.95-1.95,4.88,0,6.84Z"/></svg>