<?xml version="1.0" encoding="UTF-8"?><svg id="a" xmlns="http://www.w3.org/2000/svg" viewBox="0 0 500 500"><path d="m384.72,349.95l-96.71-96.71c-1.95-1.95-1.95-4.88,0-6.84l96.22-96.71c14.65-15.14,4.4-29.79,0-34.19,0,0-14.65-15.63-34.19-.49l-96.71,96.71c-1.95,1.95-4.88,1.95-6.84,0l-97.19-96.71c-12.7-12.7-29.31-3.91-33.21,0-9.28,9.77-9.28,25.4,0,34.68l96.22,96.71c.98.98,2.93,4.4,0,6.84l-97.19,96.22c-9.28,9.77-9.28,25.4,0,34.68,9.77,9.28,25.4,9.28,34.68,0l96.71-96.22c1.95-1.95,4.88-1.95,6.84,0l96.71,96.71c9.77,9.28,25.4,9.28,34.68,0,9.28-9.77,9.28-25.4,0-34.68h-.01Z"/><path d="m250,40c56.09,0,108.83,21.84,148.49,61.51,39.66,39.66,61.51,92.4,61.51,148.49s-21.84,108.83-61.51,148.49-92.4,61.51-148.49,61.51-108.83-21.84-148.49-61.51c-39.66-39.66-61.51-92.4-61.51-148.49s21.84-108.83,61.51-148.49c39.66-39.66,92.4-61.51,148.49-61.51m0-40C111.93,0,0,111.93,0,250s111.93,250,250,250,250-111.93,250-250S388.07,0,250,0h0Z"/></svg>