<?xml version="1.0" encoding="UTF-8"?><svg id="a" xmlns="http://www.w3.org/2000/svg" viewBox="0 0 500 500"><path d="m250,40c56.09,0,108.83,21.84,148.49,61.51,39.66,39.66,61.51,92.4,61.51,148.49s-21.84,108.83-61.51,148.49c-39.66,39.66-92.4,61.51-148.49,61.51s-108.83-21.84-148.49-61.51c-39.66-39.66-61.51-92.4-61.51-148.49s21.84-108.83,61.51-148.49c39.66-39.66,92.4-61.51,148.49-61.51M250,0C111.93,0,0,111.93,0,250s111.93,250,250,250,250-111.93,250-250S388.07,0,250,0h0Z"/><path d="m165.08,204.4h38.73c2.99,0,5.97-2.99,5.97-5.97v-112.85c0-5.37,5.37-10.75,10.75-10.75h58.08c5.97,0,11.34,4.78,11.34,10.75v112.85c0,2.99,2.99,5.97,5.97,5.97h38.72c2.99,0,4.18,4.18,2.39,5.97l-73.44,85.98c-2.99,3.58-7.76,5.37-13.14,5.37s-10.15-1.79-13.14-4.78l-74.64-86.58c-1.19-1.79-.6-5.97,2.39-5.97Z"/><path d="m380,381.13c0,3.31-2.69,6-6,6H126c-3.31,0-6-2.69-6-6v-67.72c0-3.31,2.69-6,6-6h33c3.31,0,6,2.69,6,6v22.72c0,3.31,2.69,6,6,6h158c3.31,0,6-2.69,6-6v-22.72c0-3.31,2.69-6,6-6h33c3.31,0,6,2.69,6,6v67.72Z"/></svg>