<?xml version="1.0" encoding="UTF-8"?><svg id="a" xmlns="http://www.w3.org/2000/svg" viewBox="0 0 500 500"><path d="m387.41,203.69v-91.1h-91.41c-5.44,0-8.16,6.57-4.32,10.42l19.38,19.38c1.83,1.83,1.83,4.8,0,6.63l-23.69,23.69c-1.43,1.43-1.43,3.78,0,5.21l34.69,34.69c1.43,1.43,3.78,1.43,5.21,0l23.69-23.69c1.9-1.9,4.74-1.9,6.63,0l19.42,19.11c3.86,3.8,10.38,1.06,10.38-4.35Z"/><path d="m142.39,188.92c3.32-2.84,5.69-.95,6.63,0l23.69,23.69c1.42,1.42,3.32,1.42,4.74,0l35.16-34.69c1.42-1.42,1.42-3.79,0-5.21l-23.69-23.69c-1.9-1.9-1.9-4.74,0-6.63l19.11-19.42c3.8-3.86,1.06-10.38-4.35-10.38h-91.09v91.1c0,5.41,6.53,8.15,10.38,4.35l19.42-19.11Z"/><path d="m112.59,296.32v91.1h91.41c5.44,0,8.16-6.57,4.32-10.42l-19.38-19.38c-1.83-1.83-1.83-4.8,0-6.63l23.69-23.69c1.43-1.43,1.43-3.78,0-5.21l-34.69-34.69c-1.43-1.43-3.78-1.43-5.21,0l-23.69,23.69c-1.9,1.9-4.74,1.9-6.63,0l-19.42-19.11c-3.86-3.8-10.38-1.06-10.38,4.35Z"/><path d="m387.41,296.32c0-5.41-6.53-8.15-10.38-4.35l-19.42,19.11c-3.32,2.84-5.69.95-6.63,0l-23.69-23.69c-1.31-1.31-3.43-1.31-4.74,0l-34.69,34.69c-1.43,1.43-1.43,3.78,0,5.21l23.69,23.69c1.9,1.9,1.9,4.74,0,6.63l-19.11,19.42c-3.8,3.86-1.06,10.38,4.35,10.38h90.62v-91.1Z"/><path d="m250,40c56.09,0,108.83,21.84,148.49,61.51,39.66,39.66,61.51,92.4,61.51,148.49s-21.84,108.83-61.51,148.49-92.4,61.51-148.49,61.51-108.83-21.84-148.49-61.51c-39.66-39.66-61.51-92.4-61.51-148.49s21.84-108.83,61.51-148.49c39.66-39.66,92.4-61.51,148.49-61.51m0-40C111.93,0,0,111.93,0,250s111.93,250,250,250,250-111.93,250-250S388.07,0,250,0h0Z"/></svg>