<?xml version="1.0" encoding="UTF-8"?><svg id="a" xmlns="http://www.w3.org/2000/svg" viewBox="0 0 500 500"><path d="m250,0C111.93,0,0,111.93,0,250s111.93,250,250,250,250-111.93,250-250S388.07,0,250,0ZM112.59,112.59h91.09c5.41,0,8.15,6.53,4.35,10.38l-19.11,19.42c-1.9,1.9-1.9,4.74,0,6.63l23.69,23.69c1.42,1.42,1.42,3.79,0,5.21l-35.16,34.69c-1.42,1.42-3.32,1.42-4.74,0l-23.69-23.69c-.95-.95-3.32-2.84-6.63,0l-19.42,19.11c-3.86,3.8-10.38,1.06-10.38-4.35v-91.1Zm100.03,214.7l-23.69,23.69c-1.83,1.83-1.83,4.8,0,6.63l19.38,19.38c3.84,3.84,1.12,10.42-4.32,10.42h-91.41v-91.1c0-5.41,6.53-8.15,10.38-4.35l19.42,19.11c1.9,1.9,4.74,1.9,6.63,0l23.69-23.69c1.43-1.43,3.78-1.43,5.21,0l34.69,34.69c1.43,1.43,1.43,3.78,0,5.21Zm174.8,60.13h-90.62c-5.41,0-8.15-6.53-4.35-10.38l19.11-19.42c1.9-1.9,1.9-4.74,0-6.63l-23.69-23.69c-1.43-1.43-1.43-3.78,0-5.21l34.69-34.69c1.31-1.31,3.43-1.31,4.74,0l23.69,23.69c.95.95,3.32,2.84,6.63,0l19.42-19.11c3.86-3.8,10.38-1.06,10.38,4.35v91.1Zm0-183.73c0,5.41-6.53,8.15-10.38,4.35l-19.42-19.11c-1.9-1.9-4.74-1.9-6.63,0l-23.69,23.69c-1.43,1.43-3.78,1.43-5.21,0l-34.69-34.69c-1.43-1.43-1.43-3.78,0-5.21l23.69-23.69c1.83-1.83,1.83-4.8,0-6.63l-19.38-19.38c-3.84-3.84-1.12-10.42,4.32-10.42h91.41v91.1Z"/></svg>