<?xml version="1.0" encoding="UTF-8"?><svg id="a" xmlns="http://www.w3.org/2000/svg" viewBox="0 0 500 500"><path d="m250,40c56.09,0,108.83,21.84,148.49,61.51,39.66,39.66,61.51,92.4,61.51,148.49s-21.84,108.83-61.51,148.49c-39.66,39.66-92.4,61.51-148.49,61.51s-108.83-21.84-148.49-61.51c-39.66-39.66-61.51-92.4-61.51-148.49s21.84-108.83,61.51-148.49c39.66-39.66,92.4-61.51,148.49-61.51M250,0C186.02,0,122.04,24.41,73.22,73.22c-97.63,97.63-97.63,255.92,0,353.55,48.82,48.82,112.8,73.22,176.78,73.22s127.96-24.41,176.78-73.22c97.63-97.63,97.63-255.92,0-353.55C377.96,24.41,313.98,0,250,0h0Z"/><polygon points="148.77 224.56 179.6 231.1 155.78 254.92 137.09 236.24 148.77 224.56"/><polygon points="159.98 283.15 216.97 340.14 186.14 346.68 153.44 313.98 159.98 283.15"/><path d="m115.65,384.35c35.89,35.89,83.6,55.65,134.35,55.65,10.25,0,20.37-.82,30.3-2.4,3.54-9.2,1.73-19.35-1.99-25.19-8.18-13.91-26.18-18-39.67-10.23-2.45,1.64-6.14.41-7.77-2.86-9.41-18.41-28.63-20.45-39.26-14.72-5.32,2.86-7.36-1.64-7.36-1.64-6.13-6.14-14.31-7.77-19.63-8.18-2.45,0-8.59-2.86-4.09-9.82l11.45-11.45-24.54-24.54-11.04,11.04c-6.95,4.5-9.82-1.64-9.82-4.09,0-7.36-2.86-14.31-8.18-19.63,0,0-3.68-2.05-2.04-6.95,9.82-26.99-11.45-38.45-14.72-39.26-1.64-.82-4.27-3.29-2.86-8.59,1.75-6.56-3.46-21.22-14.44-26.55-8.19-3.97-16.7-3.42-23.77.53-.36,4.81-.55,9.66-.55,14.54,0,50.75,19.76,98.46,55.65,134.35Z"/><polygon points="245.19 344.35 269.02 320.52 275.56 351.35 263.88 363.03 245.19 344.35"/><path d="m324.65,152.87c-6.24,6.24-6.24,16.35,0,22.59,6.24,6.24,16.35,6.24,22.59,0,6.24-6.24,6.24-16.35,0-22.59-6.24-6.24-16.35-6.24-22.59,0Z"/><path d="m385.93,114.19c-15.88-.93-64.46-.93-92.02,26.62l-126.12,126.12,26.43,26.43,31.76-31.76c3.46-3.46,9.08-3.46,12.55,0,3.46,3.46,3.46,9.08,0,12.55l-31.76,31.76,26.43,26.43,126.12-126.12c27.56-27.56,27.56-76.14,26.62-92.02Zm-26.62,73.33c-13.08,13.08-33.63,13.08-46.71,0s-13.08-33.63,0-46.71,33.63-13.08,46.71,0,13.08,33.63,0,46.71Z"/></svg>