<?xml version="1.0" encoding="UTF-8"?><svg id="a" xmlns="http://www.w3.org/2000/svg" viewBox="0 0 500 500"><path d="m250,0C111.93,0,0,111.93,0,250s111.93,250,250,250,250-111.93,250-250S388.07,0,250,0Zm3.6,209.36l42.18-42.18c2.49-2.49,2.49-6.52,0-9.01l-31.41-31.41c-2.82-2.82-.82-7.65,3.17-7.65h108.87c2.47,0,4.48,2.01,4.48,4.48v108.27c0,3.99-4.82,6.01-7.66,3.2l-31.4-30.85c-2.57-2.57-6.44-2.57-9.01,0l-42.18,42.18c-1.95,1.95-5.13,1.95-7.08,0l-29.95-29.95c-1.95-1.95-1.95-5.13,0-7.08Zm127.48,167.23c0,2.47-2.01,4.48-4.48,4.48H123.4c-2.47,0-4.48-2.01-4.48-4.48V123.4c0-2.47,2.01-4.48,4.48-4.48h78.81c1.19,0,2.33.47,3.17,1.31l39.73,39.72c1.44,1.44.42,3.9-1.62,3.9h-75.15c-2.47,0-4.48,2.01-4.48,4.48v163.32c0,2.47,2.01,4.48,4.48,4.48h163.33c2.47,0,4.48-2.01,4.48-4.48v-85.18c0-2.04,2.46-3.05,3.9-1.62l39.73,49.72c.84.84,1.31,1.98,1.31,3.17v78.84Z"/></svg>