<?xml version="1.0" encoding="UTF-8"?><svg id="a" xmlns="http://www.w3.org/2000/svg" viewBox="0 0 500 500"><path d="m250,40c56.09,0,108.83,21.84,148.49,61.51,39.66,39.66,61.51,92.4,61.51,148.49s-21.84,108.83-61.51,148.49c-39.66,39.66-92.4,61.51-148.49,61.51s-108.83-21.84-148.49-61.51c-39.66-39.66-61.51-92.4-61.51-148.49s21.84-108.83,61.51-148.49c39.66-39.66,92.4-61.51,148.49-61.51m0-40C111.93,0,0,111.93,0,250s111.93,250,250,250,250-111.93,250-250S388.07,0,250,0h0Z"/><path d="m414.92,201.54l-88.74,47.54v46.88l88.71,48.16c3.52,1.91,7.81-.64,7.81-4.65v-133.27c0-4-4.26-6.55-7.79-4.66Z"/><path d="m304.82,211.17l-219.94-.69c-4.83,0-7.58,3.45-7.58,8.27v109.62c0,4.14,3.45,6.89,7.58,6.89h70.43l5.62,37.43h11.34l1.83,54.17c12.98,5.69,26.59,9.93,40.62,12.63l2.25-66.8h11.34l5.62-37.43h70.19c4.83,0,7.58-3.45,8.27-7.58v-109.62c0-4.83-4.14-6.9-7.58-6.9Z"/><path d="m250,68.41c-37.65,0-68.16,30.52-68.16,68.16s30.52,68.16,68.16,68.16,68.16-30.52,68.16-68.16-30.52-68.16-68.16-68.16Zm0,100.79c-17.99,0-32.62-14.63-32.62-32.62s14.63-32.62,32.62-32.62,32.62,14.63,32.62,32.62-14.63,32.62-32.62,32.62Z"/><path d="m129.28,204.74c20.99,0,38-17.01,38-38s-17.01-38-38-38-38,17.01-38,38,17.01,38,38,38Zm0-52.99c8.27,0,14.99,6.72,14.99,14.99s-6.72,14.99-14.99,14.99-14.99-6.72-14.99-14.99,6.72-14.99,14.99-14.99Z"/><circle cx="250" cy="136.57" r="17.63" transform="translate(28.15 315.28) rotate(-67.5)"/></svg>