<?xml version="1.0" encoding="UTF-8"?><svg id="a" xmlns="http://www.w3.org/2000/svg" viewBox="0 0 500 500"><path d="m250,0C111.93,0,0,111.93,0,250s111.93,250,250,250,250-111.93,250-250S388.07,0,250,0Zm114.4,104.32c6.18-4.4,16.44-2.2,23.56,4.92,0,0,0,0,0,0h0s0,0,0,0c7.12,7.12,9.33,17.37,4.92,23.56-15.5,19.65-46.07,52.6-77.83,84.36l-35.01-35.01c32.18-32.18,64.63-62.84,84.36-77.83Zm-202.89,11.89l84.91,85.51-41.42,43.66-65.95-66.41-8.27,8.27,51.56,51.56c1.72,1.72.31,5.7-3.28,9.3-3.59,3.59-7.58,5-9.3,3.28l-55-55c-5.39-4.49-1.17-16.45,8.72-26.33l3.37-3.37-7.87-7.93c-1.45-1.45-1.22-3.61.58-5.41l36.55-36.55c1.8-1.8,3.96-2.03,5.41-.58Zm-52.03-8.88c7.19-7.19,17.64-8.12,23.1-2.07l10.52,10.52-25.16,25.16-10.52-10.52c-6.01-6.01-5.07-16.46,2.07-23.1Zm74.23,237.63l-10.71,26.93c-.21.52-.62.92-1.14,1.12l-60.34,22.71c-.65.25-1.28.04-1.71-.37l26.31-26.62c2.52,1.03,5.27,1.11,7.71.22,5.59-2.03,8.09-8.45,5.4-14.16-2.39-5.06-8.29-7.8-13.41-6.22-5.76,1.79-8.49,8.1-6.08,13.84l-26.31,26.63c-.37-.42-.55-1.01-.32-1.63l22.01-60.64c.19-.53.59-.94,1.11-1.15l26.78-11.02c.8-.33,1.75-.12,2.41.52l13.87,13.73,13.87,13.73c.65.64.87,1.6.55,2.4Zm3.89-8.65l-26.11-26.11h0s69.35-78.85,110.35-119.25l35.01,35.01c-40.98,40.98-119.24,110.35-119.24,110.35Zm130.37,22.05l-65.61-65.61,43.66-41.42,64.49,64.49c10.61,10.61,18.88,23.07,24.33,36.91l-29.96,29.96c-13.78-5.99-26.25-14.26-36.91-24.33Zm47.47,28.3l23.97-23.97c2.91,10.1,5.28,20.26,6.54,30.51-10.8-1.22-20.96-3.58-30.51-6.54Z"/></svg>