<?xml version="1.0" encoding="UTF-8"?><svg id="a" xmlns="http://www.w3.org/2000/svg" viewBox="0 0 500 500"><path d="m250,40c56.09,0,108.83,21.84,148.49,61.51,39.66,39.66,61.51,92.4,61.51,148.49s-21.84,108.83-61.51,148.49-92.4,61.51-148.49,61.51-108.83-21.84-148.49-61.51c-39.66-39.66-61.51-92.4-61.51-148.49s21.84-108.83,61.51-148.49c39.66-39.66,92.4-61.51,148.49-61.51m0-40C111.93,0,0,111.93,0,250s111.93,250,250,250,250-111.93,250-250S388.07,0,250,0h0Z"/><path d="m394.29,139.06c-34.75-34.75-91.09-34.75-125.84,0-7.99,7.99-14.14,17.12-18.45,26.87-4.32-9.75-10.46-18.88-18.45-26.87-34.75-34.75-91.09-34.75-125.84,0-34.75,34.75-34.75,83.56,0,125.84l144,173.59,144.59-173.59c34.75-42.29,34.75-91.09,0-125.84Z"/></svg>