<?xml version="1.0" encoding="UTF-8"?><svg id="a" xmlns="http://www.w3.org/2000/svg" viewBox="0 0 500 500"><path d="m156.88,384.85l61.58,16.75-47.54-35.32c-2.26,7.7-7.24,14.49-14.04,18.56Z"/><path d="m250,40c56.09,0,108.83,21.84,148.49,61.51,39.66,39.66,61.51,92.4,61.51,148.49s-21.84,108.83-61.51,148.49c-39.66,39.66-92.4,61.51-148.49,61.51s-108.83-21.84-148.49-61.51c-39.66-39.66-61.51-92.4-61.51-148.49s21.84-108.83,61.51-148.49c39.66-39.66,92.4-61.51,148.49-61.51m0-40C111.93,0,0,111.93,0,250s111.93,250,250,250,250-111.93,250-250S388.07,0,250,0h0Z"/><path d="m358.41,93.54h-217.37c-2.17,0-4.88,2.71-4.88,5.42v276.45c12.47-2.71,21.68-13.55,21.68-26.56,0-2.17,1.08-3.79,2.71-4.88,1.63-1.08,4.34-.54,5.42.54l85.11,63.42h107.87c2.17,0,4.88-1.63,4.88-4.88V98.96c0-2.71-2.17-5.42-5.42-5.42Zm-122.74,37.73h34.71v30.39h-34.71v-30.39Zm51.36,216.46h-68.12v-24.28l16.76-4.16v-93.11l-18.54-4.16v-24.42h53.26v121.69l16.64,4.16v24.28Z"/></svg>