<?xml version="1.0" encoding="UTF-8"?><svg id="a" xmlns="http://www.w3.org/2000/svg" viewBox="0 0 500 500"><path d="m280.33,344.02c0,7.28-4.85,12.13-12.13,12.13h-36.4c-7.28,0-12.13-4.85-12.13-12.13H74.67c3.03,13.95,15.17,24.27,29.73,24.27h291.21c14.56,0,26.69-10.31,29.73-24.27h-145Z"/><path d="m395.6,119.72H104.39c-3.03,0-6.07,3.03-6.07,6.07v206.1h121.34c7.28,0,12.13,4.85,12.13,12.13h36.4c0-7.28,4.85-12.13,12.13-12.13h121.34V125.78c0-3.03-3.03-6.07-6.07-6.07Zm-201.87,116.17l17.27,16.97-12.8,12.21-34.53-32.75s34.83-32.75,34.83-33.05c0,.3,12.8,12.21,12.8,12.21l-17.57,16.08c-1.19,1.19-1.79,2.68-1.79,4.17s.6,2.98,1.79,4.17Zm36.61,46.59h-17.27l55.97-101.22h17.57l-56.27,101.22Zm58.36-29.92l17.27-16.37c1.19-1.19,1.79-2.68,1.79-4.17s-.6-2.98-1.79-4.17l-17.27-16.97,12.8-12.21,34.83,33.05-34.83,33.05-12.8-12.21Z"/><path d="m250,40c56.09,0,108.83,21.84,148.49,61.51,39.66,39.66,61.51,92.4,61.51,148.49s-21.84,108.83-61.51,148.49-92.4,61.51-148.49,61.51-108.83-21.84-148.49-61.51c-39.66-39.66-61.51-92.4-61.51-148.49s21.84-108.83,61.51-148.49c39.66-39.66,92.4-61.51,148.49-61.51m0-40C111.93,0,0,111.93,0,250s111.93,250,250,250,250-111.93,250-250S388.07,0,250,0h0Z"/></svg>