<?xml version="1.0" encoding="UTF-8"?><svg id="a" xmlns="http://www.w3.org/2000/svg" viewBox="0 0 500 500"><path d="m250,0C111.93,0,0,111.93,0,250s111.93,250,250,250,250-111.93,250-250S388.07,0,250,0Zm-99.46,411.96c-10.55-6.51-20.53-14.09-29.78-22.7l27.67-48.52c9.23,8.2,19.49,15.28,30.55,21.01l-28.43,50.21Zm194.71,2.52l-29.86-52.73c11.06-5.73,21.33-12.8,30.56-21l29.58,51.88c-9.44,8.33-19.58,15.64-30.28,21.86Zm-98.07-56.16h0c-71.22,0-128.87-57.65-128.87-128.87,0-71.05,57.11-128.48,128.16-128.87,20.53-.11,39.76,4.71,56.93,13.17h0v21.91l-10.73,10.73-6.82-3.1c-12.32-5.6-25.33-8.44-38.66-8.44-25.35,0-49.13,9.82-66.96,27.65-17.83,17.83-27.65,41.61-27.65,66.96s9.82,49.13,27.65,66.96c17.83,17.83,41.61,27.65,66.96,27.65s49.13-9.82,66.96-27.65c17.83-17.83,27.65-41.61,27.65-66.96,0-13.29-2.81-26.27-8.34-38.6l-3.11-6.93,10.69-10.69h21.86l.21-.2c8.38,17.02,12.97,36.08,12.97,56.42,0,71.22-57.65,128.87-128.87,128.87Zm-.14-88.53h.26c14.13,0,27.35-7.51,34.61-19.63,3.32-5.29,5.32-11.28,5.8-17.37l.52-6.76,26.98-26.98c4.14,9.21,6.59,19.43,6.59,30.4,0,41.38-33.24,74.61-74.61,74.61s-74.61-33.24-74.61-74.61,33.24-74.61,74.61-74.61c10.9,0,21.07,2.42,30.38,6.65l-27.11,27.11-7.09.62c-9.15.8-17.83,4.93-24.45,11.61-4.18,4.14-7.45,9.23-9.47,14.73-1.73,4.56-2.61,9.23-2.61,13.88,0,22.58,17.65,40.28,40.21,40.35Zm107.55-116.56h-21.86l-67.22,67.22c1.35,2.72,2.11,5.78,2.11,9.02,0,.68-.04,1.35-.1,2.01l.24-.24c-.24,3.12-1.31,5.98-2.91,8.46-3.52,6.03-10.07,10.09-17.56,10.09-.02,0-.04,0-.06,0s-.04,0-.06,0c-11.53,0-20.35-8.82-20.35-20.35,0-2.25.47-4.61,1.34-6.88,1.04-2.89,2.73-5.48,4.88-7.59,3.09-3.15,7.2-5.4,12.05-5.83l-.14.14c.76-.09,1.54-.14,2.33-.14,3.18,0,6.18.73,8.86,2.03l67.23-67.23v-21.91l33.5-33.5,6.85,24.35,24.35,6.85-33.5,33.5Z"/><text transform="translate(0 -20)" font-family="MyriadPro-Regular, &apos;Myriad Pro&apos;" font-size="110"><tspan x="0" y="0">Eks</tspan><tspan x="149.27" y="0" letter-spacing="0em">t</tspan><tspan x="185.02" y="0">e</tspan><tspan x="240.13" y="0" letter-spacing="0em">r</tspan><tspan x="276.54" y="0">n</tspan></text></svg>