<?xml version="1.0" encoding="UTF-8"?><svg id="a" xmlns="http://www.w3.org/2000/svg" viewBox="0 0 500 500"><path id="b" d="m88.07,362.58l-45.15,19.81c-.87.38-1.56,1.09-1.9,1.98L1.05,486.43c-1.06,2.71,2.35,4.92,4.39,2.85l46.37-46.9c-2.24-5.71.72-12.17,6.59-14.16,5.21-1.77,11.07.79,13.31,5.82,2.52,5.66-.21,12.22-5.92,14.46-2.5.98-5.27.99-7.77.04l-46.37,46.89c-2.04,2.07.21,5.45,2.9,4.36l101.6-41.1c.88-.36,1.59-1.05,1.96-1.93l19.3-45.37c.58-1.36.27-2.93-.78-3.96l-22.3-22.06-22.3-22.06c-1.05-1.04-2.62-1.33-3.97-.74Z"/><path d="m104.72,357.13l37.44,37.44s118.28-105.52,180.41-167.65l-50.21-50.21c-62.12,61.27-167.65,180.41-167.65,180.41h0Zm187.22-133.61c3.4,3.4,3.4,8.51,0,11.91-3.4,3.4-8.51,3.4-11.91,0l-11.06-11.06-28.08,28.08c-3.4,3.4-8.51,3.4-11.91,0-3.4-3.4-3.4-8.51,0-11.91l28.08-28.08c6.81-6.81,17.02-6.81,23.83,0l11.06,11.06Z"/><path d="m490.22,8.22c-10.21-10.21-27.23-11.06-39.15-1.7-38.29,31.49-102.98,93.61-167.65,158.29l50.21,50.21c63.82-63.82,125.95-129.35,158.29-167.65,9.36-11.91,8.51-28.93-1.7-39.15h0Zm-11.91,23.83l-135.3,135.3c-3.4,3.4-8.51,3.4-11.91,0s-3.4-8.51,0-11.91L466.39,20.14c3.4-3.4,8.51-3.4,11.91,0s3.4,8.51,0,11.91Z"/><path d="m8.1,140.73l110.13,110.13c3.44,3.44,8.6,3.44,12.05,0,3.44-3.44,3.44-8.6,0-12.05L27.02,135.57l12.05-12.05s-23.23-23.23-24.09-24.95l-7.74,7.74c-9.46,9.46-9.46,24.95.86,34.42Z"/><path d="m485.61,450.47l-34.42,34.42c15.49,6.02,31.83,11.19,49.04,14.63-3.44-16.35-8.6-32.69-14.63-49.04Z"/><path d="m316.35,255.4l-63.09,59.09,117.05,117.05c18.93,18.07,40.44,33.56,63.67,45.6l43.02-43.02c-11.19-23.23-26.67-44.74-45.6-63.67l-115.05-115.05Zm78.92,161.52c2.58-3.44,8.6-4.3,12.05-1.72,9.46,6.88,18.93,13.77,28.39,18.93,4.3,2.58,5.16,9.46,1.72,13.77-1.72,3.44-6.88,3.44-10.32,1.72-10.32-6.02-19.79-12.05-30.11-19.79-3.44-2.58-4.3-7.74-1.72-12.91Z"/><path d="m183.82,245.03l59.09-63.09L91.56,29.73c-2.58-2.58-6.02-2.58-8.6,0l-52.48,52.48c-2.58,2.58-2.58,6.02,0,8.6l153.35,154.21ZM117.37,93.4c3.44-3.44,8.6-3.44,12.05,0l12.05,12.05c3.44,3.44,3.44,8.6,0,12.05-3.44,3.44-8.6,3.44-12.05,0l-12.05-12.05c-3.44-3.44-3.44-9.46,0-12.05Zm-49.9-24.95l8.6-7.74c7.74-6.88,15.49-4.3,18.93-.86l9.46,8.6c3.44,3.44,3.44,8.6,0,12.05-3.44,3.44-8.6,3.44-12.05,0l-6.02-6.02-6.02,6.02c-3.44,3.44-8.6,3.44-12.05,0-3.44-3.44-2.58-8.6-.86-12.05Z"/><path d="m26.16,62.43L62.3,26.3l-18.07-18.07c-9.46-10.32-25.81-10.32-36.14,0-10.32,9.46-10.32,25.81,0,36.14l18.07,18.07Z"/></svg>