<?xml version="1.0" encoding="UTF-8"?><svg id="a" xmlns="http://www.w3.org/2000/svg" viewBox="0 0 500 500"><path d="m271.59,388.63l16.35-15.49v-50.77l-41.31,41.31,24.96,24.96Z"/><path d="m178.65,213.93h-49.05l-15.49,15.49,24.1,24.96,40.45-40.45Z"/><path d="m111.51,347.32l43.03,43.03,38.73-7.75-74.01-74.01-7.75,38.73Z"/><path d="m324.94,90.87l-198.79,200.52,84.34,84.34,205.67-207.41c56.8-67.13,74.01-117.04,80.9-164.37-65.4,10.33-125.65,40.45-172.12,86.92h0Zm-71.43,169.54l-60.24,61.1c-3.44,3.44-8.61,3.44-12.05,0s-3.44-8.61,0-12.05l60.24-61.1c3.44-3.44,8.61-3.44,12.05,0s3.44,8.61,0,12.05Zm132.53-100.69c-12.05,0-43.03-4.3-43.03-43.03,0-24.1,18.93-43.03,43.03-43.03s43.03,18.93,43.03,43.03-18.93,43.03-43.03,43.03Zm86.92-119.62c-16.35,2.58-33.56,8.61-51.64,18.07-3.44,1.72-7.75.86-10.33-1.72-.86-.86-7.75-9.47,2.58-13.77,20.65-9.47,38.73-16.35,56.8-19.79,4.3-.86,9.47,2.58,10.33,6.88,0,5.16-3.44,9.47-7.75,10.33Z"/><path d="m386.04,90.87c-14.63,0-25.82,12.05-25.82,25.82,0,14.63,11.19,25.82,25.82,25.82s25.82-12.05,25.82-25.82c0-6.88-6.88-25.82-25.82-25.82Z"/><path d="m96.03,418.75c2.58-3.44,2.58-8.61-.86-12.05s-8.61-3.44-12.05,0c-2.58,2.58-10.33,14.63-18.93,30.12,15.49-7.75,28.4-15.49,31.84-18.07Z"/><path d="m46.11,465.22c-2.58,1.72-6.88.86-9.47-1.72s-3.44-6.88-.86-10.33c6.88-12.05,28.4-50.77,35.28-58.52-12.91-1.72-25.82,2.58-35.28,12.05-12.05,12.05-24.96,58.52-31.84,92.08,33.56-6.88,80.9-19.79,92.08-30.98,9.47-10.33,13.77-24.1,12.05-36.14-8.61,6.88-49.05,27.54-61.96,33.56Z"/><path d="m284.49,36.65c-4.3,0-8.61-4.3-8.61-8.61,0-14.63-11.19-25.82-25.82-25.82-9.47,0-18.07,5.16-22.38,13.77-2.58,3.44-7.75,5.16-12.05,3.44,0,0-9.47-.86-8.61,8.61,0,4.3-4.3,8.61-8.61,8.61s-8.61,4.3-8.61,8.61,4.3,8.61,8.61,8.61h86.06c4.3,0,8.61-4.3,8.61-8.61s-4.3-8.61-8.61-8.61Z"/><path d="m95.16,157.13c-4.3,0-8.61-4.3-8.61-8.61,0-14.63-11.19-25.82-25.82-25.82-8.61,0-18.07,5.16-22.38,13.77-2.58,4.3-7.75,5.16-12.05,3.44,0,0-8.61-1.72-8.61,8.61,0,4.3-4.3,8.61-8.61,8.61S.5,161.44.5,165.74s4.3,8.61,8.61,8.61h86.06c4.3,0,8.61-4.3,8.61-8.61s-4.3-8.61-8.61-8.61Z"/><path d="m491.03,277.62c-4.3,0-8.61-4.3-8.61-8.61,0-14.63-11.19-25.82-25.82-25.82-8.61,0-18.07,5.16-22.38,13.77-2.58,4.3-6.88,5.16-11.19,3.44,0,0-8.61-.86-8.61,8.61,0,4.3-4.3,8.61-8.61,8.61s-8.61,4.3-8.61,8.61,4.3,8.61,8.61,8.61h86.06c4.3,0,8.61-4.3,8.61-8.61s-5.16-8.61-9.47-8.61Z"/></svg>