<?xml version="1.0" encoding="UTF-8"?><svg id="a" xmlns="http://www.w3.org/2000/svg" viewBox="0 0 500 500"><path d="m133.62,224.05c-5.08,0-9.2,4.12-9.2,9.2v32.85l-31.93,31.94c-4.72-2.6-10.14-4.08-15.9-4.08-18.26,0-33.11,14.85-33.11,33.11s14.85,33.11,33.11,33.11,33.11-14.85,33.11-33.11c0-5.83-1.52-11.3-4.18-16.06l37.29-37.29v-40.47c0-5.08-4.12-9.2-9.2-9.2Zm-57.03,117.74c-8.12,0-14.72-6.6-14.72-14.72s6.6-14.72,14.72-14.72,14.72,6.6,14.72,14.72-6.6,14.72-14.72,14.72Z"/><path d="m271.6,363.35v-130.11c0-5.08-4.12-9.2-9.2-9.2s-9.2,4.12-9.2,9.2v56.9l-68.07,68.07v76.89c-13.79,4-23.92,16.72-23.92,31.79,0,18.26,14.85,33.11,33.11,33.11s33.11-14.85,33.11-33.11c0-15.07-10.12-27.79-23.92-31.79v-69.26l49.67-49.67v47.19c-13.79,4-23.92,16.72-23.92,31.79,0,18.26,14.85,33.11,33.11,33.11s33.11-14.85,33.11-33.11c0-15.07-10.12-27.79-23.92-31.79Zm-62.55,103.54c0,8.12-6.6,14.72-14.72,14.72s-14.72-6.6-14.72-14.72,6.6-14.72,14.72-14.72,14.72,6.6,14.72,14.72Zm53.35-57.03c-8.12,0-14.72-6.6-14.72-14.72s6.6-14.72,14.72-14.72,14.72,6.6,14.72,14.72-6.6,14.72-14.72,14.72Z"/><path d="m453.73,328.91c-5.37,0-10.43,1.31-14.91,3.59l-38.44-37.37v-61.88c0-5.08-4.12-9.2-9.2-9.2s-9.2,4.12-9.2,9.2v69.5l42.97,42.97c-2.74,4.82-4.33,10.38-4.33,16.31,0,18.26,14.86,33.11,33.11,33.11s33.11-14.85,33.11-33.11-14.86-33.11-33.11-33.11Zm0,47.83c-8.12,0-14.72-6.6-14.72-14.72s6.6-14.72,14.72-14.72,14.72,6.6,14.72,14.72-6.6,14.72-14.72,14.72Z"/><path d="m442.78,172.39h0s-.12-.4-.12-.4c.12-13.22-3.13-26.26-9.45-37.87-6.24-11.27-15.71-20.17-27.55-26.37-9.14-5.03-20.31-7.72-33.49-8.61-13.11-.89-23.96,2.09-32.57,9.2-25.06-31.97-55.38-42.93-91.02-33.18-35.62,9.47-56.15,34.34-61.58,74.6-40,3.44-61.06,22.75-63.18,57.71,3.05-1.17,6.35-1.83,9.81-1.83,15.22,0,27.6,12.38,27.6,27.6v37.13c6.93,2.62,14.8,4.51,23.65,5.68h49.94v-42.8c0-15.22,12.38-27.6,27.6-27.6s27.6,12.38,27.6,27.6v42.8h73.59v-42.8c0-15.22,12.38-27.6,27.6-27.6s27.6,12.38,27.6,27.6v42.8h17.49c31.8-3.64,48.61-19.89,50.43-48.77,1.83-28.87-12.81-47.17-43.91-54.89Zm-183.26-64.42l-.18.05c-22.11,5.88-33.06,19.72-36.65,46.29-.58,4.27-4.22,7.37-8.41,7.37-.38,0-.76-.03-1.15-.08-4.65-.63-7.92-4.91-7.29-9.56,4.52-33.53,20.12-52.74,49.1-60.44l.15-.04c4.54-1.22,9.2,1.46,10.42,6s-1.46,9.2-6,10.42Z"/><path d="m340.31,23.98C321.97,8.61,300.38.59,274.9,0c-18.95.31-36.12,5.05-51.49,14.23-15.1,9.16-27.26,21.57-36.73,36.69-11.25-6.81-23.98-10.07-38.17-10.07-22.54.59-41.21,8.29-56.09,22.8-14.8,14.51-22.5,33.14-23.09,55.64-.03,3.74.24,7.48.83,11.17-16.44,2.01-29.96,8.86-40.62,20.72-10.6,11.83-16.06,26.25-16.38,43.26.61,18.06,6.83,33.18,18.81,45.04,11.98,11.94,26.98,18.2,45.14,18.77,10.53,0,20.17-2.23,28.92-6.67,0,0-.48-29.35-.48-33.43.02-10.37,1.73-20.67,5.05-30.49,3.14-9.5,8.18-18.26,14.8-25.76,6.8-8.52,15.52-15.31,25.44-19.83,6.5-2.72,13.25-4.8,20.15-6.2,2.08-10.38,5.98-20.3,11.55-29.31,12.29-19.85,30.83-35.04,52.7-43.2,11.94-4.42,24.57-6.62,37.3-6.51,14.23,0,27.55,2.35,39.69,7.7,12.43,5.33,23.61,13.19,32.84,23.07,7.12-2.64,15.1-3.83,24.28-3.83h5.62c-4.74-24.57-16.3-44.41-34.66-59.8Zm-166.92,47.72c-1.58,4.42-6.44,6.73-10.86,5.15-15.25-5.43-23.6-3.63-31.44.74-1.31.73-2.73,1.08-4.13,1.08-2.98,0-5.88-1.57-7.43-4.36-2.29-4.1-.82-9.28,3.28-11.56,13.88-7.74,27.46-8.31,45.43-1.91,4.42,1.58,6.73,6.44,5.15,10.86Z"/></svg>