<?xml version="1.0" encoding="UTF-8"?><svg id="a" xmlns="http://www.w3.org/2000/svg" viewBox="0 0 500 500"><path d="m294.08,392.95c0,10.38-6.92,17.3-17.3,17.3h-51.9c-10.38,0-17.3-6.92-17.3-17.3H.83c4.33,19.9,21.63,34.6,42.39,34.6h415.22c20.76,0,38.06-14.71,42.39-34.6h-206.75Z"/><path d="m458.44,73.13H43.22c-4.33,0-8.65,4.33-8.65,8.65v293.87h173.01c10.38,0,17.3,6.92,17.3,17.3h51.9c0-10.38,6.92-17.3,17.3-17.3h173.01V81.78c0-4.33-4.33-8.65-8.65-8.65Zm-328.72,17.3h17.3c4.33,0,8.65,4.33,8.65,8.65s-4.33,8.65-8.65,8.65h-17.3c-4.33,0-8.65-4.33-8.65-8.65s4.33-8.65,8.65-8.65Zm-60.55,60.55c0,4.33-4.33,8.65-8.65,8.65s-8.65-4.33-8.65-8.65v-43.25c0-9.52,7.79-17.3,17.3-17.3h25.95c4.33,0,8.65,4.33,8.65,8.65s-4.33,8.65-8.65,8.65h-25.95v43.25Zm119.74,86.48l19,18.67-14.09,13.43-38-36.04s38.33-36.04,38.33-36.36c0,.33,14.09,13.43,14.09,13.43l-19.33,17.69c-1.31,1.31-1.97,2.95-1.97,4.59s.66,3.28,1.97,4.59Zm40.29,51.27h-19l61.59-111.39h19.33l-61.92,111.39Zm64.22-32.92l19-18.02c1.31-1.31,1.97-2.95,1.97-4.59s-.66-3.28-1.97-4.59l-19-18.67,14.09-13.43,38.33,36.36-38.33,36.36-14.09-13.43Zm156.37,85.24c0,9.52-7.79,17.3-17.3,17.3h-25.95c-4.33,0-8.65-4.33-8.65-8.65s4.33-8.65,8.65-8.65h25.95v-25.95c0-4.33,4.33-8.65,8.65-8.65s8.65,4.33,8.65,8.65v25.95Z"/></svg>