<?xml version="1.0" encoding="UTF-8"?><svg id="a" xmlns="http://www.w3.org/2000/svg" viewBox="0 0 500 500"><circle cx="354.51" cy="340.69" r="5.82"/><circle cx="377.8" cy="340.69" r="5.82"/><path d="m250,0C111.93,0,0,111.93,0,250s111.93,250,250,250,250-111.93,250-250S388.07,0,250,0Zm169.14,351.76c-.58,3.49-2.91,6.4-6.99,6.4h-141.59c2.27,8.16,5.08,15.31,8.94,21.93h16.79c16.3,0,16.3,14.62,16.3,14.62h-125.76s0-14.62,16.3-14.62h17.36c3.31-6.07,6.1-13.72,8.86-21.93H87.27c-3.49,0-6.4-2.91-6.4-6.4v-28.53h338.28v28.53Zm0-40.17H80.86v-168.67c0-3.31,2.69-6,6-6h326.28c3.31,0,6,2.69,6,6v168.67Z"/><circle cx="401.09" cy="340.69" r="5.82"/><path d="m275.53,272.14c-9.81-2.78-31.13-9.44-41.61-14.69-1.45-.73-2.24-1.03-2.73-1.03-.78,0-.84.77-.95,2.17v.05c-.02.17-.03.34-.05.53-.14,1.67-.03,2.51,1.01,3.38,1.07.9,3.15,1.84,6.94,3.54l.9.41c.25.1,6.09,2.47,11.43,4.51,2.84,1.08,5.53,2.27,8.14,3.42h.03c1.88.85,3.66,1.63,5.42,2.34-1.5,2.07-2.75,2.85-4.59,2.85-2.35,0-5.65-1.29-11.64-3.62l-.22-.09c-3.98-1.55-7.93-3.45-10.81-4.84-.45-.21-.87-.42-1.27-.61-.79-.44-1.67-.72-2.57-.8-.36-.04-.7.12-.92.41-.47.68-.19,2.27.87,4.99,1.96,5.05,5.39,9.39,9.86,12.45,2.12,1.46,4.45,2.59,6.9,3.37,2.43.77,4.97,1.17,7.52,1.17,3.26,0,6.48-.67,9.47-1.98,3.26-1.45,6.17-3.57,8.56-6.22,3.29-3.6,4.65-6.51,4.05-8.64-.51-1.8-2.31-2.65-3.72-3.06Z"/><path d="m281.64,167.1c-6.91-6.85-16.37-10.62-26.64-10.62s-19.73,3.77-26.64,10.62c-3.49,3.47-6.24,7.62-8.07,12.2-2,5.03-3,10.4-2.96,15.82-.02,2.72.32,5.43,1,8.06.61,2.32,1.49,4.55,2.62,6.66,2.16,4.07,5,7.48,7.76,10.78,4.91,5.88,9.55,11.44,9.55,19.8.03,2.42-.17,2.89-.26,2.98,0,.01-.02.02-.03.02-.52.33-1.09.56-1.69.68-.63.15-1.23.38-1.8.69-.28.2-.33,2.3-.21,4.12.09,1.31.23,2.14.39,2.23,4.14,2.24,7.76,4.1,11.94,5.87,3.71,1.58,7.95,3.14,14.64,5.39.75.25,1.52.52,2.27.78l.07.02c3.37,1.17,6.85,2.38,10.26,2.94.34.06.68.09,1.02.1,1.52,0,1.65-.89,1.89-2.52v-.07c.03-.14.05-.29.08-.44.26-1.67.33-2.43-.64-3.07-.98-.65-3.03-1.14-7.11-2.12-.86-.21-1.84-.44-2.92-.7-5.03-1.22-9.42-2.67-12.03-3.54l-.1-.03c-.53-.17-.98-.33-1.37-.45-.14-.56-.02-1.15.31-1.61.52-.58,1.69-.81,4.18-.81,1.87,0,16.01.7,16.57.7,1.27,0,2.98-.17,3.1-1.66.1-1.17.57-4.3.33-4.59-.21-.25-.66-.33-1.48-.38-2.79-.17-3.94-.24-3.93-4.53,0-7.9,4.51-13.27,9.28-18.95,2.81-3.35,5.71-6.81,7.93-11,1.17-2.19,2.07-4.51,2.69-6.91.7-2.76,1.05-5.59,1.03-8.44.04-5.41-.96-10.79-2.96-15.82-1.83-4.57-4.58-8.72-8.07-12.2Zm-24.56,10.45c-.07,0-.14,0-.22,0-5.25-.2-9.99,1.94-13.4,6.04-3.7,4.44-5.17,10.42-3.92,16.01.67,2.99-1.22,5.96-4.21,6.63-.41.09-.81.13-1.21.13-2.54,0-4.84-1.76-5.41-4.35-1.99-8.93.34-18.47,6.23-25.54,5.59-6.7,13.74-10.35,22.36-10.02,3.06.12,5.45,2.7,5.33,5.76-.12,2.99-2.58,5.34-5.55,5.34Z"/></svg>