<?xml version="1.0" encoding="UTF-8"?><svg id="a" xmlns="http://www.w3.org/2000/svg" viewBox="0 0 500 500"><path d="m80.86,323.23v28.53c0,3.49,2.91,6.4,6.4,6.4h142.08c-2.76,8.22-5.55,15.86-8.86,21.93h-17.36c-16.3,0-16.3,14.62-16.3,14.62h125.76s0-14.62-16.3-14.62h-16.79c-3.86-6.62-6.67-13.77-8.94-21.93h141.59c4.08,0,6.4-2.91,6.99-6.4v-28.53H80.86Zm273.65,23.29c-2.91,0-5.82-2.91-5.82-5.82s2.91-5.82,5.82-5.82,5.82,2.33,5.82,5.82c0,2.91-2.91,5.82-5.82,5.82Zm23.29,0c-2.91,0-5.82-2.91-5.82-5.82s2.91-5.82,5.82-5.82,5.82,2.33,5.82,5.82c0,2.91-2.91,5.82-5.82,5.82Zm23.29,0c-2.91,0-5.82-2.91-5.82-5.82s2.91-5.82,5.82-5.82,5.82,2.91,5.82,5.82-2.91,5.82-5.82,5.82Z"/><path d="m250,40c56.09,0,108.83,21.84,148.49,61.51,39.66,39.66,61.51,92.4,61.51,148.49s-21.84,108.83-61.51,148.49-92.4,61.51-148.49,61.51-108.83-21.84-148.49-61.51c-39.66-39.66-61.51-92.4-61.51-148.49s21.84-108.83,61.51-148.49c39.66-39.66,92.4-61.51,148.49-61.51M250,0C111.93,0,0,111.93,0,250s111.93,250,250,250,250-111.93,250-250S388.07,0,250,0h0Z"/><path d="m257.29,166.44c-8.62-.32-16.77,3.32-22.36,10.02-5.89,7.07-8.22,16.61-6.23,25.54.58,2.59,2.87,4.35,5.41,4.35.4,0,.81-.04,1.21-.13,2.99-.67,4.88-3.63,4.21-6.63-1.25-5.59.22-11.57,3.92-16.01,3.41-4.09,8.15-6.23,13.4-6.04.07,0,.15,0,.22,0,2.97,0,5.43-2.35,5.55-5.34.12-3.06-2.27-5.65-5.33-5.76Z"/><path d="m413.14,136.92H86.86c-3.31,0-6,2.69-6,6v168.67h338.28v-168.67c0-3.31-2.69-6-6-6Zm-137.94,146.92c-2.38,2.65-5.3,4.77-8.56,6.22-2.99,1.31-6.21,1.98-9.47,1.98-2.55,0-5.09-.4-7.52-1.17-2.45-.78-4.78-1.91-6.9-3.37-4.47-3.06-7.9-7.4-9.86-12.45-1.06-2.72-1.34-4.31-.87-4.99.21-.29.56-.44.92-.41.9.09,1.78.36,2.57.8.4.19.82.39,1.27.61,2.88,1.39,6.82,3.29,10.81,4.84l.22.09c6,2.34,9.3,3.62,11.64,3.62,1.84,0,3.09-.77,4.59-2.85-1.76-.71-3.54-1.5-5.42-2.33h-.03c-2.61-1.16-5.3-2.35-8.14-3.43-5.34-2.04-11.18-4.41-11.43-4.51l-.9-.41c-3.79-1.7-5.87-2.64-6.94-3.54-1.04-.88-1.15-1.71-1.01-3.38.02-.19.03-.36.04-.53v-.05c.11-1.4.17-2.16.95-2.16.49,0,1.28.3,2.73,1.03,10.48,5.25,31.8,11.9,41.61,14.69,1.42.4,3.21,1.26,3.72,3.06.61,2.14-.76,5.04-4.05,8.64Zm16.43-80.29c-.62,2.4-1.53,4.72-2.69,6.91-2.21,4.2-5.12,7.65-7.93,11-4.77,5.68-9.28,11.05-9.28,18.95-.01,4.29,1.14,4.36,3.93,4.53.82.05,1.27.12,1.48.38.23.29-.24,3.42-.33,4.59-.12,1.49-1.83,1.66-3.1,1.66-.56,0-14.7-.7-16.57-.7-2.49,0-3.67.23-4.18.81-.34.46-.45,1.05-.31,1.61.39.12.84.27,1.37.45l.1.03c2.62.87,7.01,2.32,12.03,3.54,1.08.26,2.06.5,2.92.7,4.08.97,6.13,1.46,7.11,2.12.97.64.9,1.41.64,3.07-.02.15-.04.3-.07.44v.07c-.25,1.62-.38,2.52-1.9,2.52-.34,0-.68-.04-1.02-.1-3.4-.56-6.89-1.77-10.26-2.94l-.07-.02c-.75-.26-1.52-.53-2.27-.78-6.69-2.25-10.94-3.82-14.64-5.39-4.18-1.78-7.8-3.63-11.94-5.87-.16-.09-.31-.92-.39-2.23-.12-1.83-.08-3.92.21-4.12.57-.3,1.17-.54,1.8-.69.6-.12,1.17-.35,1.69-.68.01,0,.02,0,.03-.02.09-.09.29-.56.26-2.98,0-8.35-4.64-13.91-9.55-19.8-2.76-3.3-5.61-6.72-7.76-10.78-1.13-2.11-2.01-4.35-2.62-6.66-.68-2.63-1.02-5.34-1-8.06-.04-5.41.96-10.79,2.96-15.82,1.83-4.57,4.58-8.72,8.07-12.2,6.91-6.85,16.37-10.63,26.64-10.63s19.73,3.77,26.64,10.63c3.49,3.47,6.24,7.62,8.07,12.2,2,5.03,3,10.4,2.96,15.82.01,2.85-.33,5.68-1.03,8.44Z"/></svg>