<?xml version="1.0" encoding="UTF-8"?><svg id="a" xmlns="http://www.w3.org/2000/svg" viewBox="0 0 500 500"><path d="m249.75,40c56.09,0,108.83,21.84,148.49,61.51,39.66,39.66,61.51,92.4,61.51,148.49s-21.84,108.83-61.51,148.49c-39.66,39.66-92.4,61.51-148.49,61.51s-108.83-21.84-148.49-61.51c-39.66-39.66-61.51-92.4-61.51-148.49s21.84-108.83,61.51-148.49c39.66-39.66,92.4-61.51,148.49-61.51m0-40C111.68,0-.25,111.93-.25,250s111.93,250,250,250,250-111.93,250-250S387.82,0,249.75,0h0Z"/><path d="m247.24,183.24l17.27,16.97-12.8,12.21-32.24-30.57c-1.25-1.18-1.25-3.17,0-4.34,7.77-7.31,32.53-30.63,32.53-30.88,0,.3,12.8,12.21,12.8,12.21l-17.57,16.08c-1.19,1.19-1.79,2.68-1.79,4.17s.6,2.98,1.79,4.17Z"/><polygon points="280.85 229.83 263.58 229.83 309.55 128.61 327.12 128.61 280.85 229.83"/><path d="m326.21,199.91l17.27-16.37c1.19-1.19,1.79-2.68,1.79-4.17s-.6-2.98-1.79-4.17l-17.27-16.97,12.8-12.21,32.55,30.88c1.24,1.18,1.24,3.16,0,4.34l-32.55,30.88-12.8-12.21Z"/><path d="m192.11,252.46l-94.63,93.92c-15.18,16.63,0,31.09,0,31.09,7.23,7.95,22.41,7.95,29.64,0l95.35-94.65c-11.78-8.3-22.06-18.59-30.36-30.36Z"/><path d="m294.27,295.68c-63.41,0-115-51.59-115-115s51.59-115,115-115,115,51.59,115,115-51.59,115-115,115Zm0-205c-49.63,0-90,40.37-90,90s40.37,90,90,90,90-40.37,90-90-40.37-90-90-90Z"/></svg>