<?xml version="1.0" encoding="UTF-8"?><svg id="b" xmlns="http://www.w3.org/2000/svg" viewBox="0 0 500 500"><rect x="159.79" y="324.64" width="180.42" height="46.18"/><path d="m294.3,240.03c0,8.42,6.81,15.21,15.21,15.21s15.21-6.79,15.21-15.21-6.81-15.21-15.21-15.21-15.21,6.81-15.21,15.21Z"/><rect x="159.79" y="122.27" width="180.42" height="68.03"/><path d="m250,0C111.93,0,0,111.93,0,250s111.93,250,250,250,250-111.93,250-250S388.07,0,250,0Zm163.75,337.73c0,16.3-13.26,29.57-29.57,29.57h-11.12v19.95c0,9.07-7.36,16.42-16.42,16.42h-213.28c-9.07,0-16.42-7.36-16.42-16.42v-19.95h-11.12c-16.31,0-29.57-13.27-29.57-29.57v-117.87c0-16.3,13.26-29.57,29.57-29.57h11.12v-84.45c0-9.08,7.36-16.43,16.42-16.43h213.27c9.07,0,16.42,7.35,16.42,16.43v84.46h11.12c16.31,0,29.57,13.27,29.58,29.56v117.87Z"/><circle cx="353.85" cy="240.03" r="15.21"/></svg>