<?xml version="1.0" encoding="UTF-8"?><svg id="a" xmlns="http://www.w3.org/2000/svg" viewBox="0 0 500 500"><path d="m239.05,194.63c-13.23-13.23-33.87-14.29-48.68-3.7l112.18,111.65c10.58-14.29,9.52-34.92-3.7-48.15l-59.79-59.79Z"/><path d="m223.05,251.67l-40.93,40.93c-28.11,28.11-52.21,58.91-72.29,91.04,33.47-20.08,64.26-44.18,91.04-72.29l40.97-40.97-18.79-18.7Z"/><path d="m250.43,40c56.09,0,108.83,21.84,148.49,61.51,39.66,39.66,61.51,92.4,61.51,148.49s-21.84,108.83-61.51,148.49-92.4,61.51-148.49,61.51-108.83-21.84-148.49-61.51c-39.66-39.66-61.51-92.4-61.51-148.49s21.84-108.83,61.51-148.49c39.66-39.66,92.4-61.51,148.49-61.51M250.43,0C112.36,0,.43,111.93.43,250s111.93,250,250,250,250-111.93,250-250S388.5,0,250.43,0h0Z"/><path d="m411.2,142.5l-60.11-60.12c-4.03-4.03-10.57-4.03-14.6,0l-3.35,3.35c-4.03,4.03-4.03,10.57,0,14.6l.11.11c2.05,2.05,2.05,5.36,0,7.41l-76.34,76.34,52.41,52.41,76.32-75.83c2.12-2.12,5.29-2.12,7.41,0,4.07,4.07,10.69,4.03,14.71-.11l3.56-3.67c3.93-4.05,3.89-10.5-.1-14.5Z"/></svg>