<?xml version="1.0" encoding="UTF-8"?><svg id="a" xmlns="http://www.w3.org/2000/svg" viewBox="0 0 500 500"><path d="m386.16,188.22h-99.99c-3.9,0-7.09-3.11-7.09-6.9V59.08c0-4.26-5.32-6.35-8.36-3.29L80.83,247.03c-1.82,1.84-1.82,4.75,0,6.59l189.9,190.63c3.04,3.05,8.35.96,8.35-3.3v-120.87c0-3.8,3.19-6.9,7.09-6.9h99.99c4.25,0,6.38-3.45,6.38-6.21v-112.53c0-3.43-2.86-6.21-6.38-6.21Z"/><path d="m250,40c56.09,0,108.83,21.84,148.49,61.51,39.66,39.66,61.51,92.4,61.51,148.49s-21.84,108.83-61.51,148.49-92.4,61.51-148.49,61.51-108.83-21.84-148.49-61.51c-39.66-39.66-61.51-92.4-61.51-148.49s21.84-108.83,61.51-148.49c39.66-39.66,92.4-61.51,148.49-61.51m0-40C111.93,0,0,111.93,0,250s111.93,250,250,250,250-111.93,250-250S388.07,0,250,0h0Z"/></svg>