<?xml version="1.0" encoding="UTF-8"?><svg xmlns="http://www.w3.org/2000/svg" viewBox="0 0 500 500"><g id="a"><path d="m250,40c56.09,0,108.83,21.84,148.49,61.51,39.66,39.66,61.51,92.4,61.51,148.49s-21.84,108.83-61.51,148.49-92.4,61.51-148.49,61.51-108.83-21.84-148.49-61.51c-39.66-39.66-61.51-92.4-61.51-148.49s21.84-108.83,61.51-148.49c39.66-39.66,92.4-61.51,148.49-61.51m0-40C111.93,0,0,111.93,0,250s111.93,250,250,250,250-111.93,250-250S388.07,0,250,0h0Z"/></g><g id="b"><path d="m384.17,190.3h-11.12v-84.46c0-9.08-7.36-16.43-16.42-16.43h-213.27c-9.07,0-16.42,7.36-16.42,16.43v84.45h-11.12c-16.31,0-29.57,13.27-29.57,29.57v117.87c0,16.3,13.26,29.57,29.57,29.57h11.12v19.95c0,9.07,7.36,16.42,16.42,16.42h213.28c9.07,0,16.42-7.36,16.42-16.42v-19.95h11.12c16.31,0,29.57-13.27,29.57-29.57v-117.87c0-16.29-13.27-29.56-29.58-29.56h0Zm-224.38-68.03h180.42v68.03h-180.42v-68.03Zm164.92,117.75c0,8.42-6.8,15.21-15.21,15.21s-15.21-6.79-15.21-15.21,6.81-15.21,15.21-15.21,15.21,6.81,15.21,15.21Zm15.49,130.8h-180.42v-46.18h180.42v46.18Zm13.65-115.59c-8.39,0-15.21-6.79-15.21-15.21s6.81-15.21,15.21-15.21,15.21,6.81,15.21,15.21-6.81,15.21-15.21,15.21Z"/></g></svg>