<?xml version="1.0" encoding="UTF-8"?><svg id="a" xmlns="http://www.w3.org/2000/svg" viewBox="0 0 500 500"><path d="m255.36,135.38v-23.6h15.55c4.83,0,10.19,3.22,12.33,7.51,4.29,8.58,12.33,13.94,21.99,13.94h36.47c5.9,0,10.19-4.83,10.19-10.19v-32.71c0-5.9-4.83-10.19-10.73-10.19h-25.74c-4.83,0-10.19-3.22-12.33-8.04-4.29-8.04-12.87-13.41-21.99-13.41h-25.74v-5.36c0-2.68-2.68-5.36-5.36-5.36s-5.36,2.68-5.36,5.36v82.59c1.61-.54,6.97-1.61,10.73-.54Z"/><path d="m135.18,135.92h53.63c2.68,0,5.36-2.68,5.36-5.36s-2.68-5.36-5.36-5.36-5.36-2.68-5.36-5.36c0-9.12-6.97-16.09-16.09-16.09-5.36,0-11.26,3.22-13.94,8.58-1.61,2.68-4.83,3.22-7.51,2.15,0,0-5.36-.54-5.36,5.36,0,2.68-2.68,5.36-5.36,5.36s-5.36,2.68-5.36,5.36,2.68,5.36,5.36,5.36Z"/><path d="m410.88,190.58c2.68,0,5.36,2.68,5.36,5.36s-2.68,5.36-5.36,5.36h-53.63c-2.68,0-5.36-2.68-5.36-5.36s2.68-5.36,5.36-5.36,5.36-2.68,5.36-5.36c0-9.12,6.97-16.09,16.09-16.09,5.36,0,11.26,3.22,13.94,8.58,1.61,2.68,4.29,3.22,6.97,2.15,0,0,5.36-.54,5.36,5.36.54,2.68,3.22,5.36,5.9,5.36Z"/><path d="m146.41,205.6l-29.68,54.98s1.19,9.45,10.36.73c0,0,17.69-29.19,38.52-9.5,3.83,4.97,22.56,8.77,31.38.67l-34.18-46.88c-1.36-3.01-4.68-4.3-8.18-4.3s-6.01,1.28-8.22,4.3Z"/><path d="m359.96,227.95c-3.03,0-7.12.92-9.08,4.18l-34.34,43.15c6.23,5.57,17.62,3.23,21.49-2.64,4.29-6.5,10.55-7.76,17.63-7.24,16.83,1.54,22.06,17.31,22.06,17.31,2.61,3.78,12.42,10.14,15.75-2.86l-25.47-47.25c-1.84-3.72-6.83-4.65-8.04-4.65Z"/><path d="m233.32,189.27s10.58-24.1,34.29-7.83c8.21,6.58,9.43,1.12,9.43,1.12l-23.25-28.63c-2.13-2.62-6.17-2.5-8.13.25l-22.97,32.12s1.63,12.69,10.63,2.96Z"/><path d="m250,40c56.09,0,108.83,21.84,148.49,61.51,39.66,39.66,61.51,92.4,61.51,148.49s-21.84,108.83-61.51,148.49c-39.66,39.66-92.4,61.51-148.49,61.51s-108.83-21.84-148.49-61.51c-39.66-39.66-61.51-92.4-61.51-148.49s21.84-108.83,61.51-148.49c39.66-39.66,92.4-61.51,148.49-61.51m0-40C111.93,0,0,111.93,0,250s111.93,250,250,250,250-111.93,250-250S388.07,0,250,0h0Z"/><path d="m234.02,278.49l28.59,40.46,61.96-77.86-37.08-45.66c-3.29,3.37-17.57,10.66-29.43-.84-1.17-1.25-8.64-3.75-10.95.84,0,0-11.51,26.62-36.19,7.21l-15.75,21.88,39.15,53.69-.3.27Z"/><path d="m74.52,335.23c9.38,19.27,22,37.06,37.6,52.66,36.83,36.83,85.8,57.11,137.89,57.11,25.53,0,50.3-4.88,73.27-14.19l-117.1-165.75c-14.33,10.78-40.11,9.77-50.84-2.13-3.83-4.55-10.58-1.52-12.22,1.02,0,0-11.02,25.89-35.77,14.04l-32.82,57.23Z"/><path d="m401.4,295.91c-23.61,22.31-40.7-10.42-40.7-10.42-1.78-3.23-8.83-5.54-12.58-1.08-13.67,16.25-28.49,6.97-40.87,2.55l-35.61,44.75,65.57,92.81c18.52-9.27,35.62-21.57,50.69-36.64,15.44-15.44,27.95-33.01,37.3-52.05l-23.79-39.92Z"/></svg>