<?xml version="1.0" encoding="UTF-8"?><svg id="a" xmlns="http://www.w3.org/2000/svg" viewBox="0 0 500 500"><path d="m250,40c56.09,0,108.83,21.84,148.49,61.51,39.66,39.66,61.51,92.4,61.51,148.49s-21.84,108.83-61.51,148.49-92.4,61.51-148.49,61.51-108.83-21.84-148.49-61.51c-39.66-39.66-61.51-92.4-61.51-148.49s21.84-108.83,61.51-148.49c39.66-39.66,92.4-61.51,148.49-61.51M250,0C111.93,0,0,111.93,0,250s111.93,250,250,250,250-111.93,250-250S388.07,0,250,0h0Z"/><path d="m412.87,253.63l-248.93,135.9c-1.33.48-6.66,1.45-6.66-4.34V115.32c0-3.86,2.66-6.75,6.66-4.34l248.93,136.38h0c2.22.48,2.66,4.82,0,6.27Z"/></svg>