<?xml version="1.0" encoding="UTF-8"?><svg id="a" xmlns="http://www.w3.org/2000/svg" viewBox="0 0 500 500"><path d="m234.69,79.24h-39.59c-1.77,0-3.54,1.77-3.54,3.55v132.36h23.64c0-3.55,2.36-5.91,5.91-5.91h17.73v-11.82h-17.73c-3.54,0-5.91-2.36-5.91-5.91s2.36-5.91,5.91-5.91h17.73v-11.82h-17.73c-3.54,0-5.91-2.36-5.91-5.91s2.36-5.91,5.91-5.91h17.73v-11.82h-17.73c-3.54,0-5.91-2.36-5.91-5.91s2.36-5.91,5.91-5.91h17.73v-11.82h-17.73c-3.54,0-5.91-2.36-5.91-5.91s2.36-5.91,5.91-5.91h17.73v-11.82h-17.73c-3.54,0-5.91-2.36-5.91-5.91s2.36-5.91,5.91-5.91h17.73v-8.27c0-2.36-1.77-3.55-4.14-3.55Z"/><path d="m250,0C111.93,0,0,111.93,0,250s111.93,250,250,250,250-111.93,250-250S388.07,0,250,0Zm45.23,86c0-9.9,8.05-18.57,18.57-18.57s18.57,8.05,18.57,18.57v92.86h-37.14v-92.86Zm-33.32,24.76c0-14.86,11.14-27.24,25.38-30.33-.62,1.86-.62,13-.62,13-7.43,2.48-12.38,9.29-12.38,17.33v74.29c0,3.1-3.1,6.19-6.19,6.19s-6.19-3.1-6.19-6.19v-74.29Zm88.27,303.75c-.01,4.58-3.73,8.29-8.31,8.29h-184.31c-4.59,0-8.31-3.72-8.31-8.31v-191.07c0-4.14,3.55-8.27,8.27-8.27h22.21V82.79c0-8.86,6.5-15.36,15.36-15.36h39.59c8.86,0,15.95,6.5,15.95,15.36v132.36h44.59v-23.91h37.14v23.91h10.1c4.73,0,8.27,4.14,8.27,8.27l-.57,191.09Z"/></svg>