<?xml version="1.0" encoding="UTF-8"?><svg id="a" xmlns="http://www.w3.org/2000/svg" viewBox="0 0 500 500"><path d="m250.04,40c56.09,0,108.83,21.84,148.49,61.51,39.66,39.66,61.51,92.4,61.51,148.49s-21.84,108.83-61.51,148.49c-39.66,39.66-92.4,61.51-148.49,61.51s-108.83-21.84-148.49-61.51c-39.66-39.66-61.51-92.4-61.51-148.49s21.84-108.83,61.51-148.49c39.66-39.66,92.4-61.51,148.49-61.51M250.04,0C111.97,0,.04,111.93.04,250s111.93,250,250,250,250-111.93,250-250S388.12,0,250.04,0h0Z"/><path d="m342.52,215.14h-10.1v-23.91h-37.14v23.91h-44.59V82.79c0-8.86-7.09-15.36-15.95-15.36h-39.59c-8.86,0-15.36,6.5-15.36,15.36v132.36h-22.21c-4.73,0-8.27,4.14-8.27,8.27v191.07c0,4.59,3.72,8.31,8.31,8.31h184.31c4.58,0,8.3-3.71,8.31-8.29l.57-191.09c0-4.14-3.55-8.27-8.27-8.27Zm-150.92-5.91v-126.45c0-1.77,1.77-3.55,3.54-3.55h39.59c2.36,0,4.14,1.18,4.14,3.55v8.27h-17.73c-3.54,0-5.91,2.36-5.91,5.91s2.36,5.91,5.91,5.91h17.73v11.82h-17.73c-3.54,0-5.91,2.36-5.91,5.91s2.36,5.91,5.91,5.91h17.73v11.82h-17.73c-3.54,0-5.91,2.36-5.91,5.91s2.36,5.91,5.91,5.91h17.73v11.82h-17.73c-3.54,0-5.91,2.36-5.91,5.91s2.36,5.91,5.91,5.91h17.73v11.82h-17.73c-3.54,0-5.91,2.36-5.91,5.91s2.36,5.91,5.91,5.91h17.73v11.82h-17.73c-3.54,0-5.91,2.36-5.91,5.91h-23.64v-5.91Z"/><path d="m268.15,191.23c3.1,0,6.19-3.1,6.19-6.19v-74.29c0-8.05,4.95-14.86,12.38-17.33,0,0,0-11.14.62-13-14.24,3.1-25.38,15.48-25.38,30.33v74.29c0,3.1,3.1,6.19,6.19,6.19Z"/><path d="m332.42,86c0-10.52-8.05-18.57-18.57-18.57s-18.57,8.67-18.57,18.57v92.86h37.14v-92.86Z"/></svg>