<?xml version="1.0" encoding="UTF-8"?><svg id="a" xmlns="http://www.w3.org/2000/svg" viewBox="0 0 500 500"><path d="m250,314.56c54.88,0,99.3-44.42,99.3-99.3v-94.07c0-2.61-2.61-5.23-5.23-5.23h-188.14c-2.61,0-5.23,2.61-5.23,5.23v94.07c0,54.88,44.42,99.3,99.3,99.3Zm65.41-61.01c5.88-10.58,9.4-21.74,11.16-33.49.59-2.94,3.53-5.29,6.46-4.7s5.29,3.53,5.29,6.46c-1.76,12.93-5.88,25.86-12.34,37.02-1.18,1.76-4.11,4.11-8.23,2.35-2.94-1.18-3.53-4.7-2.35-7.64Zm-109.31-74.34c1.57-2.61,2.09-5.23,1.57-7.32-1.57-5.75,0-12.02,3.66-16.72,4.18-5.23,9.93-7.84,15.68-7.84,2.61,0,5.75-1.57,7.84-3.66,3.66-4.18,8.88-6.79,15.16-6.79,10.45,0,15.68,7.32,15.68,7.32,1.57,2.09,4.18,3.14,7.32,3.14,6.27,0,11.5,2.61,15.16,7.32,3.66,4.7,5.23,10.98,3.66,16.72-.52,2.61,0,5.75,1.57,7.32,3.66,5.23,5.23,10.98,3.66,17.25-1.57,5.75-5.23,10.45-10.98,13.07-3.14,1.57-4.18,4.18-4.7,6.27-1.05,3.66-2.61,7.32-5.75,9.93v52.79c0,1.57-1.05,3.66-2.61,4.18-2.61,1.57-4.18.52-5.23,0l-17.77-8.88-18.29,9.41c-1.57,1.05-3.66.52-5.23,0-1.57-1.05-2.61-3.14-2.61-4.7v-52.26c-2.61-2.61-4.7-6.27-5.75-9.93-.52-2.09-1.57-4.7-5.23-6.27-5.23-2.61-9.41-7.84-10.45-13.59-1.05-6.27,0-12.02,3.66-16.72Zm-32.44-40.28v6.25c0,3.13-3.13,6.25-6.25,6.25s-6.25-3.13-6.25-6.25v-8.13c0-6.25,5-10.63,10.63-10.63h8.13c3.13,0,6.25,3.13,6.25,6.25s-3.13,6.25-6.25,6.25h-6.25Z"/><path d="m254.18,228.85c-2.61-1.57-5.23-1.57-7.84,0-2.61,1.57-7.84,2.61-12.02,1.57v38.67l13.07-6.79c1.57-.52,3.14-.52,4.7,0l13.07,6.79v-39.2c-3.66,1.57-7.32,1.05-10.98-1.05Z"/><path d="m276.13,387.73c-9.41-20.38-10.45-43.38-3.14-65.33-7.32,1.57-23,3.66-45.99,0,7.32,21.43,6.27,44.42-3.14,65.33h52.26Z"/><polygon points="156.48 230.81 156.48 230.81 156.48 230.81 156.48 230.81"/><path d="m217.6,199.58c5.23,2.61,8.88,7.32,10.45,13.07.52,3.14,2.61,5.23,5.23,6.79,2.61,1.05,5.23,1.05,7.84,0,5.75-2.61,11.5-2.61,17.25,0,3.14,1.57,6.27.52,7.84,0,2.61-1.05,4.7-3.66,5.23-6.27,1.57-6.27,5.23-10.45,10.45-13.59,2.61-1.05,4.18-3.14,5.23-6.27.52-2.61,0-5.75-1.57-7.84-3.66-4.18-5.23-10.45-3.66-16.72.52-2.61,0-5.75-1.57-7.84s-4.18-3.66-7.32-3.66c-6.79,0-12.02-2.61-15.68-7.32-1.57-1.57-4.18-2.61-7.32-2.61s-5.75,1.05-7.32,3.14c-4.7,4.7-9.93,6.79-15.68,6.79-2.61,0-5.23,1.57-7.32,3.66-1.57,2.09-2.61,5.23-1.57,7.84,1.57,5.23,0,11.5-3.66,16.2-2.09,2.61-2.61,5.23-2.09,7.84,1.05,3.14,2.61,5.75,5.23,6.79Z"/><path d="m338.32,419.08c-2.61-12.02-13.07-20.9-25.61-20.9h-125.43c-12.54,0-23,8.88-25.61,20.9h176.65Z"/><path d="m387,127.14h-24.74v17.65h22.39v30.03c0,13.54-7.44,25.9-19.42,32.25l-2.97,1.58v19.02l7.81-3.39c19.58-8.49,32.23-27.9,32.23-49.47v-32.38c0-8.58-6.72-15.3-15.3-15.3Z"/><path d="m113,127.14h24.74v17.65h-22.39s0,30.03,0,30.03c0,13.54,7.44,25.9,19.42,32.25l2.97,1.58v19.02s-7.81-3.39-7.81-3.39c-19.58-8.49-32.23-27.9-32.23-49.47v-32.38c0-8.58,6.72-15.3,15.3-15.3Z"/><path d="m250,40c56.09,0,108.83,21.84,148.49,61.51,39.66,39.66,61.51,92.4,61.51,148.49s-21.84,108.83-61.51,148.49c-39.66,39.66-92.4,61.51-148.49,61.51s-108.83-21.84-148.49-61.51c-39.66-39.66-61.51-92.4-61.51-148.49s21.84-108.83,61.51-148.49c39.66-39.66,92.4-61.51,148.49-61.51m0-40C111.93,0,0,111.93,0,250s111.93,250,250,250,250-111.93,250-250S388.07,0,250,0h0Z"/></svg>