<?xml version="1.0" encoding="UTF-8"?><svg id="a" xmlns="http://www.w3.org/2000/svg" viewBox="0 0 500 500"><path d="m291.81,171.36c1.57-5.75,0-12.02-3.66-16.72s-8.88-7.32-15.16-7.32c-3.14,0-5.75-1.05-7.32-3.14,0,0-5.23-7.32-15.68-7.32-6.27,0-11.5,2.61-15.16,6.79-2.09,2.09-5.23,3.66-7.84,3.66-5.75,0-11.5,2.61-15.68,7.84-3.66,4.7-5.23,10.98-3.66,16.72.52,2.09,0,4.7-1.57,7.32-3.66,4.7-4.7,10.45-3.66,16.72,1.05,5.75,5.23,10.98,10.45,13.59,3.66,1.57,4.7,4.18,5.23,6.27,1.05,3.66,3.14,7.32,5.75,9.93v52.26c0,1.57,1.05,3.66,2.61,4.7,1.57.52,3.66,1.05,5.23,0l18.29-9.41,17.77,8.88c1.05.52,2.61,1.57,5.23,0,1.57-.52,2.61-2.61,2.61-4.18v-52.79c3.14-2.61,4.7-6.27,5.75-9.93.52-2.09,1.57-4.7,4.7-6.27,5.75-2.61,9.41-7.32,10.98-13.07,1.57-6.27,0-12.02-3.66-17.25-1.57-1.57-2.09-4.7-1.57-7.32Zm-26.65,97.73l-13.07-6.79c-1.57-.52-3.14-.52-4.7,0l-13.07,6.79v-38.67c4.18,1.05,9.41,0,12.02-1.57,2.61-1.57,5.23-1.57,7.84,0,3.66,2.09,7.32,2.61,10.98,1.05v39.2Zm21.95-75.78c-1.05,3.14-2.61,5.23-5.23,6.27-5.23,3.14-8.88,7.32-10.45,13.59-.52,2.61-2.61,5.23-5.23,6.27-1.57.52-4.7,1.57-7.84,0-5.75-2.61-11.5-2.61-17.25,0-2.61,1.05-5.23,1.05-7.84,0-2.61-1.57-4.7-3.66-5.23-6.79-1.57-5.75-5.23-10.45-10.45-13.07-2.61-1.05-4.18-3.66-5.23-6.79-.52-2.61,0-5.23,2.09-7.84,3.66-4.7,5.23-10.98,3.66-16.2-1.05-2.61,0-5.75,1.57-7.84,2.09-2.09,4.7-3.66,7.32-3.66,5.75,0,10.98-2.09,15.68-6.79,1.57-2.09,4.18-3.14,7.32-3.14s5.75,1.05,7.32,2.61c3.66,4.7,8.88,7.32,15.68,7.32,3.14,0,5.75,1.57,7.32,3.66,1.57,2.09,2.09,5.23,1.57,7.84-1.57,6.27,0,12.54,3.66,16.72,1.57,2.09,2.09,5.23,1.57,7.84Z"/><path d="m333.03,215.35c-2.94-.59-5.88,1.76-6.46,4.7-1.76,11.75-5.29,22.92-11.16,33.49-1.18,2.94-.59,6.46,2.35,7.64,4.11,1.76,7.05-.59,8.23-2.35,6.46-11.16,10.58-24.09,12.34-37.02,0-2.94-2.35-5.88-5.29-6.46Z"/><path d="m179.91,126.42h-8.13c-5.63,0-10.63,4.38-10.63,10.63v8.13c0,3.13,3.13,6.25,6.25,6.25s6.25-3.13,6.25-6.25v-6.25h6.25c3.13,0,6.25-3.13,6.25-6.25s-3.13-6.25-6.25-6.25Z"/><path d="m250,0C111.93,0,0,111.93,0,250s111.93,250,250,250,250-111.93,250-250S388.07,0,250,0Zm-112.26,144.79h-22.39v30.03c0,13.54,7.44,25.9,19.42,32.25l2.97,1.58v19.02l-7.81-3.39c-19.58-8.49-32.23-27.9-32.23-49.47v-32.38c0-8.58,6.72-15.3,15.3-15.3h24.74v17.65Zm23.94,274.29c2.61-12.02,13.07-20.9,25.61-20.9h125.43c12.54,0,23,8.88,25.61,20.9h-176.65Zm65.33-96.69c23,3.66,38.67,1.57,45.99,0-7.32,21.95-6.27,44.95,3.14,65.33h-52.26c9.41-20.91,10.45-43.9,3.14-65.33Zm122.29-107.13c0,54.88-44.42,99.3-99.3,99.3s-99.3-44.42-99.3-99.3v-94.07c0-2.61,2.61-5.23,5.23-5.23h188.15c2.61,0,5.23,2.61,5.23,5.23v94.07Zm53-40.44c0,21.56-12.65,40.98-32.23,49.47l-7.81,3.39v-19.02l2.97-1.58c11.98-6.36,19.42-18.71,19.42-32.25v-30.03h-22.39v-17.65h24.74c8.58,0,15.3,6.72,15.3,15.3v32.38Z"/></svg>