<?xml version="1.0" encoding="UTF-8"?><svg id="a" xmlns="http://www.w3.org/2000/svg" viewBox="0 0 500 500"><text transform="translate(.11 -22.86)" font-family="MyriadPro-Regular, &apos;Myriad Pro&apos;" font-size="110"><tspan x="0" y="0" letter-spacing="-.01em">T</tspan><tspan x="53.35" y="0" letter-spacing="0em">imer</tspan></text><path d="m250,0C111.93,0,0,111.93,0,250s111.93,250,250,250,250-111.93,250-250S388.07,0,250,0Zm134.21,261.87h15.79c-5.7,73.51-64.62,132.43-138.13,138.13v-15.79c0-6.56-5.31-11.87-11.87-11.87s-11.87,5.31-11.87,11.87v15.79c-73.51-5.7-132.43-64.62-138.13-138.13h15.79c6.56,0,11.87-5.31,11.87-11.87s-5.31-11.87-11.87-11.87h-15.79c5.7-73.51,64.62-132.43,138.13-138.13v15.79c0,6.56,5.31,11.87,11.87,11.87s11.87-5.31,11.87-11.87v-15.79c73.51,5.7,132.43,64.62,138.13,138.13h-15.79c-6.56,0-11.87,5.31-11.87,11.87s5.31,11.87,11.87,11.87Z"/><path d="m319.58,236.81h-56.39v-80.13c0-6.59-6.59-13.19-13.19-13.19s-13.19,6.59-13.19,13.19v93.32c0,6.59,6.59,13.19,13.19,13.19h69.58c6.59,0,13.19-6.59,13.19-13.19s-6.59-13.19-13.19-13.19Z"/></svg>