<?xml version="1.0" encoding="UTF-8"?><svg id="a" xmlns="http://www.w3.org/2000/svg" viewBox="0 0 500 500"><path d="m250,40c56.09,0,108.83,21.84,148.49,61.51,39.66,39.66,61.51,92.4,61.51,148.49s-21.84,108.83-61.51,148.49-92.4,61.51-148.49,61.51-108.83-21.84-148.49-61.51c-39.66-39.66-61.51-92.4-61.51-148.49s21.84-108.83,61.51-148.49c39.66-39.66,92.4-61.51,148.49-61.51M250,0C111.93,0,0,111.93,0,250s111.93,250,250,250,250-111.93,250-250S388.07,0,250,0h0Z"/><path d="m384.21,261.87c-6.56,0-11.87-5.31-11.87-11.87s5.31-11.87,11.87-11.87h15.79c-5.7-73.51-64.62-132.43-138.13-138.13v15.79c0,6.56-5.31,11.87-11.87,11.87s-11.87-5.31-11.87-11.87v-15.79c-73.51,5.7-132.43,64.62-138.13,138.13h15.79c6.56,0,11.87,5.31,11.87,11.87s-5.31,11.87-11.87,11.87h-15.79c5.7,73.51,64.62,132.43,138.13,138.13v-15.79c0-6.56,5.31-11.87,11.87-11.87s11.87,5.31,11.87,11.87v15.79c73.51-5.7,132.43-64.62,138.13-138.13h-15.79Zm-64.62,1.32h-69.58c-6.59,0-13.19-6.59-13.19-13.19v-93.32c0-6.59,6.59-13.19,13.19-13.19s13.19,6.59,13.19,13.19v80.13h56.39c6.59,0,13.19,6.59,13.19,13.19s-6.59,13.19-13.19,13.19Z"/></svg>