<?xml version="1.0" encoding="UTF-8"?><svg id="a" xmlns="http://www.w3.org/2000/svg" viewBox="0 0 500 500"><path d="m345.09,194.36c0-4.25-3.72-7.44-7.44-7.44H108.56c-3.72,0-7.44,3.72-7.44,7.44v165.84c0,15.41,13.29,28.7,28.7,28.7h227.5c-7.44-7.44-12.23-18.07-12.23-29.23v-165.3Zm-174.09,178.65h-36.84c-9.48,0-17.16-7.68-17.16-17.16v-36.84c0-3,3-6,6-6s6,3,6,6v33.41c0,4.72,3.86,8.59,8.59,8.59h33.41c3,0,6,3,6,6s-3,6-6,6Zm34.46,0h-12c-3,0-6-3-6-6s3-6,6-6h12c3,0,6,3,6,6s-3,6-6,6Z"/><path d="m392.51,132.58h0s-126.08.52-126.08.52c-1.88,0-3.67-.82-4.87-2.27l-22.9-27.45c-1.2-1.44-2.97-2.27-4.85-2.27h-104c-4.09,0-7.44,3.35-7.44,7.44v67.74h216.45c9.94,0,18.07,8.13,18.07,18.07v165.3c0,13.29,7.87,28.17,20.73,28.17,8.05,0,21.26-10.63,21.26-26.04v-223.35c-.53-3.19-2.66-5.85-6.38-5.85Z"/><path d="m250,40c56.09,0,108.83,21.84,148.49,61.51,39.66,39.66,61.51,92.4,61.51,148.49s-21.84,108.83-61.51,148.49-92.4,61.51-148.49,61.51-108.83-21.84-148.49-61.51c-39.66-39.66-61.51-92.4-61.51-148.49s21.84-108.83,61.51-148.49c39.66-39.66,92.4-61.51,148.49-61.51m0-40C111.93,0,0,111.93,0,250s111.93,250,250,250,250-111.93,250-250S388.07,0,250,0h0Z"/></svg>