<?xml version="1.0" encoding="UTF-8"?><svg id="a" xmlns="http://www.w3.org/2000/svg" viewBox="0 0 500 500"><path d="m345.38,114.84l-67.57-26.82,49.34,49.34c2.68-10.19,9.65-18.23,18.23-22.52Z"/><path d="m419.06,198.15h-128.5c-3.21,0-4.82,2.68-4.82,4.82v62.11l13.39-13.39c8.03-7.5,20.35-7.5,27.84,0l14.46,14.46c2.14,2.14,4.28,1.61,5.89,0l23.02-28.91c4.28-5.35,10.71-8.03,17.13-7.5s12.31,4.28,15.53,9.64l21.42,38.02v-74.96c0-2.68-2.68-4.28-5.35-4.28Zm-85.67,42.83c-9.1,0-16.06-6.96-16.06-16.06s6.96-16.06,16.06-16.06,16.06,6.96,16.06,16.06-6.96,16.06-16.06,16.06Z"/><path d="m268.19,314.79v-116.06c0-9.24,7.51-16.75,16.75-16.75h75.64v-57.16c-13.28,2.89-23.1,14.44-23.1,28.29,0,2.31-1.15,4.62-3.46,5.2-.58.58-4.04,1.15-6.35-1.15l-79.11-79.11h-101.63c-2.89,0-5.77,2.89-5.77,5.77v323.35c0,2.89,2.89,5.77,5.77,5.77h207.87c2.89,0,5.77-2.89,5.77-5.77v-75.06h-75.06c-9.24,0-17.32-8.08-17.32-17.32h0Zm-106.82-178.31h119.4c4.33,0,8.66,4.33,8.66,8.66s-4.33,8.66-8.66,8.66h-119.4c-4.33,0-8.66-4.33-8.66-8.66s4.33-8.66,8.66-8.66Zm0,37.42h85.91c4.33,0,8.66,4.33,8.66,8.66s-4.33,8.66-8.66,8.66h-85.91c-4.33,0-8.66-4.33-8.66-8.66s4.33-8.66,8.66-8.66Zm0,37.42h71.03c4.33,0,8.66,4.33,8.66,8.66s-4.33,8.66-8.66,8.66h-71.03c-4.33,0-8.66-4.33-8.66-8.66s4.33-8.66,8.66-8.66Zm0,37.42h90.24c4.33,0,8.66,4.33,8.66,8.66s-4.33,8.66-8.66,8.66h-90.24c-4.33,0-8.66-4.33-8.66-8.66s4.33-8.66,8.66-8.66Zm0,37.42h79.69c4.33,0,8.66,4.33,8.66,8.66s-4.33,8.66-8.66,8.66h-79.69c-4.33,0-8.66-4.33-8.66-8.66s4.33-8.66,8.66-8.66Zm0,37.42h94.57c4.33,0,8.66,4.33,8.66,8.66s-4.33,8.66-8.66,8.66h-94.57c-4.33,0-8.66-4.33-8.66-8.66s4.33-8.66,8.66-8.66Zm0,37.42h119.4c4.33,0,8.66,4.33,8.66,8.66s-4.33,8.66-8.66,8.66h-119.4c-4.33,0-8.66-4.33-8.66-8.66s4.33-8.66,8.66-8.66Z"/><path d="m378.36,250.9l-23.02,28.91c-5.89,6.96-16.6,6.96-21.95,1.07l-14.46-13.92c-3.21-3.21-9.1-3.21-12.85,0l-20.88,19.81v23.82c0,3.21,2.68,5.35,4.82,5.35h129.04c3.21,0,4.82-2.68,4.82-4.82v-4.55l-31.05-54.61c-2.68-6.96-10.71-6.43-14.46-1.07h0Z"/><path d="m250,40c56.09,0,108.83,21.84,148.49,61.51,39.66,39.66,61.51,92.4,61.51,148.49s-21.84,108.83-61.51,148.49-92.4,61.51-148.49,61.51-108.83-21.84-148.49-61.51c-39.66-39.66-61.51-92.4-61.51-148.49s21.84-108.83,61.51-148.49c39.66-39.66,92.4-61.51,148.49-61.51m0-40C111.93,0,0,111.93,0,250s111.93,250,250,250,250-111.93,250-250S388.07,0,250,0h0Z"/></svg>