<?xml version="1.0" encoding="UTF-8"?><svg id="a" xmlns="http://www.w3.org/2000/svg" viewBox="0 0 500 500"><circle cx="190.98" cy="221.7" r="5.89"/><path d="m249.91,247.03c-31.88,0-57.48,25.61-57.48,57.48s25.61,57.48,57.48,57.48,57.48-25.61,57.48-57.48-25.61-57.48-57.48-57.48Zm-16.72,13.58c-8.88,10.97-14.11,24.04-15.68,38.67h-14.63c2.09-17.77,14.11-32.4,30.31-38.67Zm-30.31,49.12h14.63c1.05,14.63,6.79,27.7,15.68,38.67-16.2-5.75-28.22-20.9-30.31-38.67Zm41.81,35.53c-9.41-9.41-15.15-21.95-16.2-35.53h16.2v35.53Zm0-45.99h-16.2c1.05-13.59,6.79-26.13,16.2-35.53v35.53Zm10.45-35.53c9.41,9.41,15.15,21.95,16.2,35.53h-16.2v-35.53Zm0,45.99h16.2c-1.05,13.59-6.79,26.13-16.2,35.53v-35.53Zm11.5,38.67c8.88-10.97,14.11-24.04,15.68-38.67h14.63c-2.09,17.77-14.11,32.4-30.31,38.67Zm15.16-49.12c-1.05-14.63-6.79-27.7-15.68-38.67,16.2,5.75,28.22,20.9,30.31,38.67h-14.63Z"/><circle cx="167.41" cy="221.7" r="5.89" transform="translate(-59.11 382.52) rotate(-88.32)"/><circle cx="143.83" cy="221.7" r="5.89"/><path d="m426.78,73.22c-97.63-97.63-255.92-97.63-353.55,0-97.63,97.63-97.63,255.92,0,353.55s255.92,97.63,353.55,0c97.63-97.63,97.63-255.92,0-353.55ZM114.49,206.29v115.88h-35.32c-3.52,0-6.37-2.85-6.37-6.37v-147.92c0-3.52,2.85-6.37,6.37-6.37h23.09v7.36c0,3.68,3.68,7.36,7.36,7.36s7.36-3.68,7.36-7.36v-7.36h23.09c3.52,0,6.37,2.85,6.37,6.37v24.33h-17.87c-7.75,0-14.09,6.34-14.09,14.09Zm259.19,167.86c0,2.95-2.36,6.5-6.5,6.5h-96.64c.59,13.59.93,13.29,5.65,23.93h47.9c2.95,0,5.91,2.95,5.91,5.91s-2.95,5.91-5.91,5.91h-150.74c-2.95,0-5.91-2.95-5.91-5.91s2.95-5.91,5.91-5.91h50.85c4.73-10.63,5.65-11.52,6.25-23.93h-97.81c-2.95,0-6.5-2.36-6.5-6.5v-139.44h0v-25.39c0-2.36,2.95-5.3,5.3-5.3h236.33c3.54,0,5.89,2.95,5.89,5.3v25.39s0,0,0,0v122.9h0v16.54Zm43.52-128.62c0,3.18-2.57,5.75-5.75,5.75h-25.97v-40.17h0c0-15.95-13-18.9-17.72-18.9h-139.42v-44.52c0-2.95,1.77-4.73,4.73-4.73h179.4c2.61,0,4.73,2.12,4.73,4.73v97.85Z"/><path d="m355.99,215.8h-141.44c-2.95,0-5.89,2.95-5.89,5.89s2.95,5.89,5.89,5.89h141.44c2.95,0,5.89-2.95,5.89-5.89s-2.95-5.89-5.89-5.89Z"/></svg>