<?xml version="1.0" encoding="UTF-8"?><svg id="a" xmlns="http://www.w3.org/2000/svg" viewBox="0 0 500 500"><path d="m250,40c56.09,0,108.83,21.84,148.49,61.51,39.66,39.66,61.51,92.4,61.51,148.49s-21.84,108.83-61.51,148.49-92.4,61.51-148.49,61.51-108.83-21.84-148.49-61.51c-39.66-39.66-61.51-92.4-61.51-148.49s21.84-108.83,61.51-148.49c39.66-39.66,92.4-61.51,148.49-61.51M250,0C111.93,0,0,111.93,0,250s111.93,250,250,250,250-111.93,250-250S388.07,0,250,0h0Z"/><path d="m192.11,256.52l-94.63,93.92c-15.18,16.63,0,31.09,0,31.09,7.23,7.95,22.41,7.95,29.64,0l95.35-94.65c-11.78-8.3-22.06-18.59-30.36-30.36Z"/><path d="m288.68,166.56h11.18c8.31,0,15.01,6.39,15.65,14.38,15.01-1.6,28.75-4.8,40.56-9.27v-13.42c0-7.99-6.39-14.37-14.37-14.37h-18.52v-7.98c0-9.58-7.99-17.89-17.89-17.89h-21.72c-9.9,0-17.89,7.98-17.89,17.89v7.98h-18.53c-7.98,0-14.37,6.39-14.69,14.37v13.42c11.82,4.47,25.56,7.67,40.57,9.27.64-7.99,7.35-14.38,15.65-14.38Zm-8.3-30.66c0-1.92,1.59-3.51,3.51-3.51h21.72c1.92,0,3.51,1.59,3.51,3.51v7.98h-28.75v-7.98Z"/><path d="m288.68,178.7c-2.24,0-3.83,1.59-3.83,3.83v11.18c0,2.24,1.59,3.83,3.83,3.83h11.18c2.24,0,3.84-1.59,3.84-3.83v-11.18c0-2.24-1.6-3.83-3.84-3.83h-11.18Z"/><path d="m315.51,193.07v.64c0,8.62-7.03,15.65-15.65,15.65h-11.18c-8.63,0-15.65-7.02-15.65-15.65h-.32v-.64c-14.69-1.6-28.43-4.47-40.24-8.62v37.69c0,7.98,6.39,14.37,14.37,14.37h94.86c7.99,0,14.38-6.39,14.38-14.37v-37.69c-12.14,4.15-25.88,7.03-40.57,8.62Z"/><path d="m294.27,299.74c-63.41,0-115-51.59-115-115s51.59-115,115-115,115,51.59,115,115-51.59,115-115,115Zm0-205c-49.63,0-90,40.37-90,90s40.37,90,90,90,90-40.37,90-90-40.37-90-90-90Z"/></svg>