<?xml version="1.0" encoding="UTF-8"?><svg id="c" xmlns="http://www.w3.org/2000/svg" viewBox="0 0 108 108"><circle cx="54" cy="54" r="54" fill="#0085ca"/><g><g id="d"><path d="m58.34,63.22c10.29-1.8,17.63-10.84,17.63-20.72v-18.32h-12.84v-2.03h12.84v-9.8h2.03v9.8h12.84v2.03h-12.84v18.32c0,9.88,7.34,18.92,17.63,20.72-.76,9.22-7.33,17.81-18.65,18.17-11.32-.36-17.89-8.95-18.65-18.17Z" fill="#ffe000" fill-rule="evenodd"/></g><g id="e"><path d="m55.01,33.65v9.8h12.84v2.03h-12.84v18.32c0,9.88,7.34,18.92,17.63,20.72-.76,9.22-7.33,17.81-18.65,18.17-11.32-.36-17.89-8.95-18.65-18.17,10.29-1.8,17.63-10.84,17.63-20.72v-18.32h-12.84v-2.03h12.84v-9.8h2.03,0Z" fill="#ffe000" fill-rule="evenodd"/></g><g id="f"><path d="m49.66,63.22c-10.29-1.8-17.63-10.84-17.63-20.72v-18.32h12.84v-2.03h-12.84v-9.8h-2.03v9.8h-12.84v2.03h12.84v18.32c0,9.88-7.34,18.92-17.63,20.72.76,9.22,7.33,17.81,18.65,18.17,11.32-.36,17.89-8.95,18.65-18.17Z" fill="#ffe000" fill-rule="evenodd"/></g></g></svg>