<?xml version="1.0" encoding="UTF-8"?><svg id="b" xmlns="http://www.w3.org/2000/svg" viewBox="0 0 108 108"><circle cx="54" cy="54" r="54" fill="#034b45"/><g><path d="m77.47,27.77l-1.17-.75c-1.96-1.26-4.05-2.36-6.2-3.28h-.02c-.91-.39-1.84-.75-2.77-1.06-2.21-.75-4.5-1.32-6.81-1.68-.98-.15-1.98-.27-2.97-.36-2.32-.19-4.7-.19-7.02,0-.99.08-1.99.2-2.97.36-2.31.36-4.6.93-6.81,1.68-.93.32-1.86.67-2.76,1.05h-.03c-2.16.93-4.24,2.03-6.2,3.29l-1.17.75-6.2-11.8,1.01-.62c2.1-1.3,4.3-2.46,6.55-3.46l1.09-.48,2.26,4.31c.69-.28,1.4-.55,2.11-.8l-1.16-4.72,1.13-.36c2.34-.75,4.76-1.35,7.19-1.77l1.17-.21,1.16,4.72c.14-.02.29-.04.43-.06.6-.08,1.2-.15,1.81-.21v-4.86l1.19-.08c1.23-.08,2.48-.12,3.7-.12s2.47.04,3.7.12l1.19.08v4.86c.75.07,1.5.16,2.24.27l1.16-4.72,1.17.21c2.43.43,4.85,1.02,7.19,1.77l1.13.36-1.16,4.72c.71.25,1.41.52,2.11.8l2.26-4.31,1.09.48c2.25,1,4.45,2.16,6.55,3.46l1.01.62-6.2,11.8Zm-49.73-10.87l3.8,7.24c1.73-1.04,3.54-1.96,5.41-2.75l.04-.02c.95-.4,1.93-.78,2.92-1.11,2.35-.8,4.78-1.4,7.24-1.79,1.04-.16,2.1-.29,3.15-.38,2.46-.21,4.98-.21,7.45,0,1.05.09,2.11.22,3.15.38,2.45.39,4.89.99,7.24,1.79.99.34,1.97.71,2.93,1.12h.03c1.86.8,3.68,1.73,5.41,2.76l3.8-7.24c-1.35-.79-2.73-1.52-4.14-2.19l-2.24,4.27-1.09-.47c-.16-.07-.31-.14-.47-.2-1.18-.5-2.4-.96-3.62-1.36l-1.12-.37,1.15-4.68c-1.5-.44-3.02-.82-4.55-1.12l-1.15,4.68-1.17-.2c-1.44-.24-2.9-.42-4.35-.53l-1.18-.09v-4.82c-1.57-.07-3.12-.07-4.68,0v4.82l-1.18.09c-.94.07-1.9.17-2.84.3-.51.07-1.02.15-1.52.23l-1.17.2-1.15-4.68c-1.53.3-3.05.68-4.55,1.12l1.15,4.68-1.12.37c-1.22.4-2.44.86-3.62,1.36-.16.07-.32.13-.47.2l-1.09.47-2.24-4.27c-1.41.67-2.8,1.4-4.14,2.19Z" fill="#fff"/><path d="m54,100.78c-10.33,0-20.04-4.02-27.34-11.33-7.3-7.3-11.33-17.01-11.33-27.34s4.02-20.04,11.33-27.34c7.3-7.3,17.01-11.33,27.34-11.33s20.04,4.02,27.34,11.33c7.3,7.3,11.33,17.01,11.33,27.34s-4.02,20.04-11.33,27.34c-7.3,7.3-17.01,11.33-27.34,11.33Zm0-74.66c-9.61,0-18.65,3.74-25.45,10.54-6.8,6.8-10.54,15.84-10.54,25.45s3.74,18.65,10.54,25.45c6.8,6.8,15.84,10.54,25.45,10.54s18.65-3.74,25.45-10.54c6.8-6.8,10.54-15.84,10.54-25.45s-3.74-18.65-10.54-25.45c-6.8-6.8-15.84-10.54-25.45-10.54Z" fill="#fff"/><g><path d="m46.46,51.15c-1.22-1.63-1.86-3.57-1.86-5.61,0-5.17,4.21-9.38,9.38-9.38s9.38,4.21,9.38,9.38c0,2.04-.64,3.98-1.86,5.61l1.87,1.4c1.52-2.04,2.32-4.46,2.32-7,0-6.46-5.26-11.72-11.72-11.72s-11.72,5.26-11.72,11.72c0,2.55.8,4.97,2.32,7l1.87-1.4Z" fill="#fff"/><path d="m53.98,53.81c2.49,0,4.52-2.03,4.52-4.52v-.46h1.53v-2.95c0-3.33-2.71-6.04-6.04-6.04s-6.04,2.71-6.04,6.04v2.95h1.53v.46c0,2.49,2.03,4.52,4.52,4.52Zm-3.71-7.93c0-2.04,1.66-3.71,3.71-3.71s3.71,1.66,3.71,3.71v2.95h-1.1v.46c0,1.44-1.17,2.61-2.61,2.61s-2.61-1.17-2.61-2.61v-.46h-1.1v-2.95Z" fill="#fff"/><rect x="27.51" y="63.88" width="3.56" height="3.56" fill="#fff"/><path d="m82.64,61.22v1.7h2.08l-5.32,5.32v-9.13l1.45,1.45,1.2-1.2-3.5-3.5-3.52,3.52,1.2,1.2,1.47-1.47v9.12l-5.31-5.31h2.05v-1.7h-4.95v4.98h1.7v-2.08l4.22,4.22h-8.08l-.87-.78-.7-6.38c-.03-.33-.4-3.54-3.06-4.91l-2.8-1.07-.38-.14-.39.12s-1.83.56-5.16.56-5.14-.56-5.15-.56l-.39-.13-3.06,1.16-.12.05c-2.67,1.37-3.03,4.59-3.06,4.91l-.72,6.61-.65.55h-2.88c.26-.85.41-1.75.41-2.69,0-4.99-4.06-9.06-9.06-9.06s-9.06,4.06-9.06,9.06c0,4.52,3.33,8.27,7.66,8.95h0s.12.02.12.02c.24.03.49.06.74.07l11.98,1.21c-.76,6.95-2.36,11.92-2.39,12,0,0,0,0,0,0l1.11.36,1.11.36c.07-.22,1.71-5.28,2.49-12.52l2.88-2.45-.41,16.7.98.18c2.18.4,4.98.64,7.49.64s5.39-.25,7.6-.66l.98-.18-.41-16.67,2.9,2.46c.78,7.23,2.42,12.28,2.49,12.5l2.22-.73c-.02-.05-1.62-5.02-2.38-11.98l11.96-1.11v-4.11l6.57-6.57v2.05h1.7v-4.95h-4.98Zm-28.66-3.14c2.82,0,4.67-.37,5.45-.56l2.25.86c1.54.84,1.75,3,1.75,3.02l.56,5.13h-3.2c-1.31,0-2.53-.33-3.6-.99-.81-.49-1.83-1.68-2.16-2.1l-4.47-5.55c.9.11,2.04.2,3.41.2Zm-24.7,14.29c-.11,0-.22,0-.33,0l-.69-.07c-3.22-.5-5.69-3.28-5.69-6.64,0-3.7,3.01-6.72,6.72-6.72s6.72,3.01,6.72,6.72-3.01,6.72-6.72,6.72Zm16.73-1.85l-3.75,3.18-7.61-.77c.84-.62,1.57-1.39,2.16-2.26h4.85l4.44-3.73-.09,3.58Zm-1.96-4.91l.46-4.18v-.03s.22-2.18,1.76-3.02l1.3-.49,2.29,2.85-5.8,4.88Zm9.94,23.23c-2.01,0-4.22-.16-6.09-.44l.14-5.5h0s.44-17.97.44-17.97l2.83-2.38,1.88,2.33c.17.22,1.48,1.86,2.78,2.65,1.14.7,2.39,1.12,3.72,1.27l.48,19.59c-1.9.29-4.14.46-6.19.46Zm23.02-16.18l-11.18,1.04-5.75-4.88c.23.02.47.03.71.03h3.61l2.04,1.82h10.57v1.99Z" fill="#fff"/></g></g></svg>