<?xml version="1.0" encoding="UTF-8"?><svg id="i" xmlns="http://www.w3.org/2000/svg" viewBox="0 0 108 108"><circle cx="54" cy="54" r="54" fill="#008122"/><g><polygon points="70.62 34 54.14 17.52 38.2 33.46 32.87 28.13 54.14 6.85 75.95 28.67 70.62 34" fill="#fff"/><polygon points="19.3 25.3 8.05 36.55 8.05 47.22 19.3 35.97 43.99 60.67 49.32 55.33 19.3 25.3" fill="#fff"/><path d="m99.95,48.23v-10.67l-11.08-11.08-46.31,46.31.02.02c-2.99,3.13-4.65,7.22-4.65,11.57s1.74,8.69,4.91,11.85c3.27,3.27,7.56,4.9,11.85,4.9s8.58-1.63,11.85-4.9c6.48-6.48,6.53-16.99.15-23.54h0s-.12-.13-.12-.13c-.01-.01-.03-.03-.04-.04h0s-1.17-1.17-1.17-1.17l-5.33,5.33,1.17,1.17h0c3.59,3.6,3.59,9.44,0,13.04-3.59,3.6-9.44,3.6-13.04,0-1.74-1.74-2.7-4.06-2.7-6.52s.96-4.78,2.7-6.52h0s40.7-40.71,40.7-40.71l11.08,11.08Z" fill="#fff"/></g></svg>