<?xml version="1.0" encoding="UTF-8"?><svg id="g" xmlns="http://www.w3.org/2000/svg" viewBox="0 0 108 108"><path d="m54,0C24.18,0,0,24.18,0,54s24.18,54,54,54,54-24.18,54-54S83.82,0,54,0Z" fill="#0085ca"/><path d="m54,80.51c-15.73,0-28.49,2.86-28.49,4.08s12.76,4.08,28.49,4.08,28.5-2.85,28.5-4.07-12.76-4.09-28.5-4.09Z" fill="#fff"/><path d="m54,62.13c-19.32,0-34.98,3.54-34.98,5.01s15.66,5.01,34.98,5.01v-.02c19.32,0,34.98-3.55,34.98-5.01s-15.66-4.99-34.98-4.99Z" fill="#fff"/><path d="m54.5,2.94c-.3-.21-.7-.21-1.01,0-16.41,11.95-28.99,28.41-36.21,47.38-.1.26.13.42.39.47,12.05,1.53,24.18,2.26,36.32,2.18,12.14.11,24.28-.62,36.32-2.18.27-.06.49-.21.39-.46-7.22-18.98-19.8-35.44-36.22-47.39Z" fill="#fff"/><path d="m54,97.59c-10.24,0-18.54,1.96-18.54,2.66s8.3,2.66,18.54,2.66h0c10.24,0,18.55-1.96,18.55-2.66s-8.3-2.66-18.55-2.66Z" fill="#fff"/></svg>