<?xml version="1.0" encoding="UTF-8"?><svg id="h" xmlns="http://www.w3.org/2000/svg" viewBox="0 0 108 108"><circle cx="54" cy="54" r="54" fill="#e01f1d"/><g id="i"><path id="j" d="m91.54,53.19c-.63-1.59-3.1.13-3.63-1.15-.36-.87,1.64-1.1,1.02-2.45-.75-1.63-3.97.43-4.61-.56-.51-.81,1.53-.94.91-2.37-.34-.81-1.59-.47-2.12-.35l-3.21.66c-.51-.56-1.5-1.25-3.4-2.09-.48-.15,1.25-1.56,1.72-1.91.26-.2,1.16-.9,1.72-1.36l3.21.65c.53.12,1.79.45,2.13-.35.63-1.43-1.43-1.55-.91-2.37.63-1,3.85,1.06,4.61-.56.63-1.35-1.38-1.58-1.02-2.45.53-1.25,3,.44,3.62-1.15.63-1.59-2.08-1.88-1.25-2.8s2.15-2.32,1.05-3.43-2.51.23-3.43,1.04-1.21-1.88-2.8-1.25.13,3.09-1.15,3.63c-.87.36-1.1-1.65-2.45-1.03-1.62.75.43,3.98-.56,4.61-.81.51-.94-1.53-2.37-.91-.8.35-.46,1.6-.34,2.13l.72,3.52c-1.25,1.18-3.48,3.28-4.91,3.21-.17,0-5.1-.81-8.54.9-6.23,3.11-7.66,6.04-8.34,7.45-.3.63-.44.88-.69.89l-.07-.04c-.63-.63-.66-4.29-.66-8.66-.08-3.18,2.58-4.85,4.56-5.64l3.68,1.81c.48.25,1.6.9,2.14.21.96-1.25-.98-1.88-.28-2.51.86-.8,3.46,2.01,4.61.63.94-1.15-.95-1.88-.37-2.63.84-1.1,2.79,1.18,3.8-.2,1.01-1.38-1.54-2.32-.51-3.03s2.67-1.7,1.88-3.06-2.51-.41-3.58.14-.69-2.14-2.39-1.93c-1.7.21-.68,2.98-2.04,3.17-.93.13-.63-1.88-2.11-1.61-1.77.31-.63,3.96-1.72,4.32-.91.29-.52-1.72-2.06-1.48-.86.14-.85,1.43-.87,1.97l-.16,2.91c-1.56.46-2.98,1.29-4.14,2.41-.05.05-.13.05-.19,0-.03-.03-.04-.06-.04-.1.16-3.83.18-6.27,1.47-8.53s3.76-5.8,7.52-7.32l.89-.4,3.83,1.02c.52.15,1.75.56,2.14-.22.7-1.39-1.33-1.64-.77-2.42.69-.96,3.76,1.28,4.63-.29.7-1.31-1.29-1.66-.88-2.51.63-1.25,2.97.63,3.69-.94s-1.97-1.98-1.1-2.87,2.28-2.19,1.25-3.36c-1.03-1.17-2.51.09-3.48.85s-1.1-1.96-2.73-1.42c-1.63.54-.04,3.09-1.33,3.55-.89.31-1-1.71-2.39-1.17-1.67.63.2,3.99-.83,4.57-.84.46-.85-1.59-2.31-1.05-.82.3-.56,1.57-.47,2.11l.36,2.86c-3.64,1.56-6.79,4.06-9.14,7.26l-.29.44c-.35.55-.56.85-.86.89,0-.31-.29-3.21-.36-5.17l2.81-1.88c.46-.29,1.59-.94,1.25-1.75-.57-1.45-2.11-.09-2.32-1.03-.26-1.15,3.48-1.98,2.86-3.66-.51-1.39-2.09-.14-2.45-1.01-.53-1.28,2.42-1.81,1.75-3.38s-2.79.16-2.88-1.09-.12-3.16-1.69-3.16c-.06,0-.13,0-.19,0-.06,0-.13,0-.19,0-1.57,0-1.6,1.93-1.69,3.16-.08,1.23-2.19-.48-2.87,1.09-.68,1.57,2.28,2.14,1.75,3.42-.36.87-1.94-.38-2.46,1.01-.63,1.68,3.13,2.51,2.86,3.66-.21.94-1.74-.42-2.32,1.03-.32.81.8,1.46,1.25,1.75l2.81,1.88c-.07,1.95-.33,4.86-.36,5.17-.31-.04-.51-.34-.86-.89l-.29-.44c-2.34-3.21-5.5-5.73-9.15-7.3l.41-2.86c.09-.54.35-1.8-.47-2.11-1.46-.53-1.47,1.52-2.31,1.05-1.03-.58.83-3.92-.83-4.57-1.38-.55-1.49,1.47-2.38,1.17-1.31-.46.26-3.02-1.37-3.55s-1.74,2.19-2.72,1.42-2.44-2.02-3.48-.85c-1.04,1.17.37,2.51,1.25,3.36.88.86-1.82,1.32-1.1,2.87s3.08-.31,3.68.94c.41.85-1.58,1.2-.88,2.51.85,1.58,3.95-.66,4.63.29.56.78-1.47,1.03-.77,2.42.39.78,1.62.37,2.15.22l3.83-1.02.88.4c3.76,1.52,6.31,5.18,7.52,7.32,1.21,2.14,1.3,4.69,1.47,8.53,0,.07-.05.14-.12.14-.04,0-.08-.01-.1-.04-1.16-1.13-2.58-1.95-4.14-2.41l-.16-2.91c0-.55,0-1.84-.88-1.97-1.54-.23-1.14,1.78-2.06,1.48-1.12-.36.05-4-1.71-4.32-1.46-.27-1.15,1.74-2.11,1.61-1.37-.19-.34-3.01-2.04-3.21s-1.25,2.51-2.39,1.93c-1.13-.58-2.79-1.49-3.58-.14s.86,2.36,1.88,3.06-1.52,1.65-.51,3.03c1.01,1.38,2.96-.9,3.8.2.57.75-1.32,1.48-.37,2.63,1.13,1.38,3.76-1.42,4.6-.63.7.63-1.25,1.3-.28,2.51.54.69,1.66.04,2.15-.21l3.68-1.81c1.98.81,4.64,2.51,4.56,5.64,0,4.39-.07,8.06-.67,8.66-.04.04-.06.04-.07.04-.24,0-.39-.28-.68-.89-.69-1.41-2.11-4.34-8.33-7.44-3.45-1.71-8.38-.93-8.54-.9-1.43.08-3.63-2.02-4.91-3.21l.72-3.52c.12-.53.45-1.78-.35-2.13-1.43-.63-1.55,1.43-2.37.91-1-.63,1.06-3.86-.56-4.61-1.35-.63-1.58,1.39-2.45,1.03-1.25-.54.44-3-1.15-3.63s-1.88,2.08-2.8,1.25c-.92-.83-2.32-2.15-3.43-1.04-1.11,1.11.23,2.51,1.04,3.43.81.92-1.88,1.21-1.25,2.8s3.09-.13,3.63,1.15c.36.87-1.65,1.1-1.03,2.45.75,1.62,3.98-.43,4.61.56.51.81-1.53.94-.91,2.37.35.8,1.6.47,2.13.35l3.23-.59c.56.46,1.46,1.16,1.72,1.36.46.35,2.21,1.76,1.72,1.91-1.88.84-2.89,1.53-3.4,2.09l-3.23-.66c-.53-.12-1.79-.46-2.13.35-.63,1.43,1.43,1.55.91,2.37-.63,1-3.85-1.07-4.61.56-.63,1.35,1.38,1.58,1.02,2.45-.53,1.25-3-.44-3.62,1.15-.63,1.59,2.08,1.88,1.25,2.8s-2.15,2.32-1.04,3.43c1.11,1.11,2.51-.23,3.43-1.05.92-.81,1.21,1.88,2.8,1.25s-.13-3.09,1.15-3.63c.87-.36,1.1,1.65,2.45,1.02,1.62-.75-.43-3.97.56-4.61.81-.51.94,1.53,2.37.91.8-.35.47-1.6.34-2.13l-.72-3.57c1.55-1.22,3.38-2.01,5.33-2.3,7.73-1.02,12.81,4.14,14.82,8.73,1.59,3.67,1.46,13.22.84,15.54,0,0-.19.13-4.52-2.71-.91-.6-1.67-1.39-2.23-2.32l1.42-2.79c.26-.48.91-1.6.23-2.14-1.22-.97-1.88.96-2.51.25-.8-.87,2.04-3.44.67-4.59-1.14-.95-1.88.92-2.63.34-1.1-.86,1.21-2.78-.16-3.8-1.37-1.02-2.35,1.52-3.03.48-.68-1.04-1.67-2.69-3.03-1.88s-.44,2.51.1,3.58-2.14.67-1.95,2.37c.19,1.7,3.01.69,3.19,2.07.13.93-1.88.63-1.63,2.09.29,1.77,3.95.63,4.29,1.76.28.92-1.72.5-1.5,2.04.13.87,1.42.88,1.96.9l3.45.23c.36.63.82,1.19,1.35,1.68-2.17.08-4.3.61-6.27,1.54l-3.44-1.42c-.49-.22-1.66-.78-2.16-.06-.88,1.25,1.11,1.79.45,2.51-.81.86-3.59-1.77-4.63-.31-.86,1.21,1.06,1.81.54,2.6-.76,1.15-2.86-1-3.76.44-.9,1.44,1.7,2.22.71,2.99-.98.76-2.55,1.88-1.67,3.17s2.51.25,3.57-.38.83,2.08,2.51,1.77c1.67-.31.46-3.06,1.82-3.35.92-.19.77,1.82,2.21,1.47,1.74-.43.33-3.98,1.42-4.39.9-.35.63,1.68,2.16,1.34.85-.19.76-1.48.74-2.02v-3.05c.53-.34,1.1-.62,1.69-.82,2.26-.66,8.77-2.39,10.06,5.97.83,3.82.49,7.52-.68,9.75-1.54,2.93-4.76-.04-7.88-1.18-5.93-2.15-9.68,1.72-11.84,2.47-.84.33-1.76.35-2.61.06-.14-.05-.29.02-.34.16-.03.08-.02.17.03.24,1.03,1.5,3.48,4.2,6.69,2.06,4.83-3.21,9.44-1.82,11.65.29.1.1.11.26.02.36-.07.08-.18.1-.27.07-3.99-1.11-5.73,1.84-8.38,3.18-1.43.71-3.1.69-4.52-.04-.13-.06-.29,0-.35.12-.03.07-.03.15,0,.22.41,1.09,1.23,1.97,2.27,2.47,3.21,1.31,6.42-.75,8.06-2.12,2.04-1.71,6.18-.49,5.85,1.6-.27,1.61-3.26,2.61-4.49,2.96-.14.04-.22.18-.18.31.02.06.05.12.11.15.81.57,1.78.86,2.76.85,4.28-.23,4.12-3.86,5.68-3.36,1.25.17,2.41,7.08,3.09,7.09.68.01,1.81-6.89,3.1-7.09,1.56-.5,1.4,3.13,5.68,3.36.99.01,1.95-.28,2.76-.85.12-.08.15-.24.07-.36-.03-.05-.09-.09-.15-.11-1.25-.34-4.22-1.35-4.48-2.96-.34-2.1,3.8-3.31,5.84-1.6,1.64,1.37,4.85,3.43,8.06,2.12,1.05-.5,1.86-1.39,2.27-2.47.05-.13-.01-.29-.15-.34-.07-.03-.14-.02-.2,0-1.42.73-3.1.74-4.52.04-2.64-1.34-4.39-4.29-8.38-3.18-.13.05-.28-.03-.33-.16-.03-.1,0-.2.07-.27,2.21-2.11,6.82-3.5,11.65-.29,3.22,2.15,5.64-.55,6.69-2.06.08-.12.05-.28-.07-.37-.07-.05-.16-.06-.24-.03-.85.29-1.77.27-2.61-.06-2.16-.76-5.91-4.62-11.85-2.47-3.13,1.13-6.33,4.1-7.87,1.18-1.18-2.25-1.52-5.93-.69-9.75,1.32-8.36,7.81-6.64,10.06-5.97.6.21,1.17.48,1.7.82l-.04,3.05c0,.55-.11,1.84.75,2.02,1.52.34,1.25-1.69,2.15-1.34,1.1.43-.31,3.99,1.42,4.39,1.45.36,1.29-1.65,2.21-1.47,1.36.29.14,3.03,1.82,3.35s1.43-2.39,2.51-1.77,2.69,1.67,3.57.38c.88-1.3-.7-2.41-1.67-3.17s1.62-1.54.71-2.99-3.01.71-3.76-.44c-.52-.79,1.41-1.39.55-2.6-1.05-1.45-3.83,1.17-4.63.31-.66-.7,1.32-1.21.44-2.51-.49-.73-1.65-.16-2.16.06l-3.43,1.42c-1.98-.93-4.12-1.46-6.3-1.54.49-.51.9-1.09,1.22-1.72l3.45-.23c.55,0,1.84,0,1.96-.9.22-1.54-1.79-1.12-1.5-2.04.34-1.13,4,0,4.3-1.76.24-1.47-1.75-1.16-1.64-2.09.18-1.38,3.01-.37,3.2-2.07.19-1.7-2.51-1.25-1.95-2.37.55-1.12,1.46-2.81.1-3.58s-2.35.88-3.03,1.88c-.68,1-1.67-1.5-3.03-.48-1.37,1.03.93,2.94-.16,3.8-.75.58-1.5-1.3-2.63-.34-1.37,1.15,1.46,3.72.67,4.59-.63.71-1.31-1.25-2.51-.25-.68.55-.03,1.66.23,2.14l1.42,2.79c-.56.93-1.32,1.73-2.22,2.32-4.34,2.84-4.53,2.71-4.53,2.71-.63-2.32-.75-11.9.84-15.54,1.97-4.56,7.06-9.71,14.81-8.69,1.95.28,3.79,1.08,5.33,2.3l-.73,3.56c-.12.53-.46,1.78.35,2.13,1.42.63,1.55-1.43,2.37-.91.99.63-1.07,3.86.56,4.61,1.35.63,1.58-1.38,2.44-1.02,1.25.54-.43,3,1.16,3.63s1.88-2.09,2.79-1.25,2.32,2.16,3.43,1.05c1.11-1.11-.23-2.51-1.05-3.43s1.86-1.21,1.23-2.81Z" fill="#ebd6a3"/></g></svg>