<?xml version="1.0" encoding="UTF-8"?><svg id="a" xmlns="http://www.w3.org/2000/svg" viewBox="0 0 500 500"><path d="m250,0C111.93,0,0,111.93,0,250s111.93,250,250,250,250-111.93,250-250S388.07,0,250,0Zm138.93,383.16c0,3.31-2.69,6-6,6h-49.03v-86.17c0-4.62-3.75-8.37-8.37-8.37h-44.32c-4.62,0-8.37,3.75-8.37,8.37v86.17H117.06c-3.31,0-6-2.69-6-6v-140.04c0-2.07,1.06-3.99,2.81-5.08l133.03-83.35c1.95-1.22,4.43-1.22,6.37,0l132.84,83.35c1.75,1.1,2.81,3.02,2.81,5.08v140.04Zm24.79-189.02l-9.57,15.25c-2.93,4.67-9.11,6.08-13.79,3.16l-140.28-88.02-140.49,88.03c-1.61,1.01-3.44,1.53-5.29,1.53-.75,0-1.51-.08-2.26-.26-2.6-.6-4.82-2.17-6.24-4.44l-9.56-15.25c-1.42-2.26-1.87-4.94-1.27-7.55.6-2.6,2.17-4.82,4.44-6.24l48.33-30.28v-53.3c0-3.56,2.89-6.45,6.45-6.45h34.14c3.56,0,6.45,2.89,6.45,6.45v23.83l55.23-34.6c6.13-3.84,14.06-3.84,20.19,0l150.37,94.35c2.26,1.42,3.84,3.64,4.43,6.24.6,2.6.14,5.28-1.28,7.55Z"/><rect x="169.24" y="274.1" width="52.33" height="52.33" rx="7.18" ry="7.18"/></svg>