<?xml version="1.0" encoding="UTF-8"?><svg id="a" xmlns="http://www.w3.org/2000/svg" viewBox="0 0 500 500"><path d="m190.97,296.18l14.98,29.97,14.98-29.97-14.98-29.97-14.98,29.97Z"/><path d="m309.03,266.22c0,21.91-4.97,39.66-11.11,39.66s-11.11-17.76-11.11-39.66,4.97-39.66,11.11-39.66,11.11,17.76,11.11,39.66"/><path d="m165.48,82.49v411.88c0,2.49,2.02,4.52,4.52,4.52h71.91c2.49,0,4.52-2.02,4.52-4.52V82.49c0-2.49-2.02-4.52-4.52-4.52h-71.91c-2.49,0-4.52,2.02-4.52,4.52Zm66.73,401.34h-52.52c-3.69,0-6.68-2.99-6.68-6.68s2.99-6.68,6.68-6.68h52.52c3.69,0,6.68,2.99,6.68,6.68s-2.99,6.68-6.68,6.68Zm0-28.42h-52.52c-3.69,0-6.68-2.99-6.68-6.68s2.99-6.68,6.68-6.68h52.52c3.69,0,6.68,2.99,6.68,6.68s-2.99,6.68-6.68,6.68Zm-57.77-158.92l31.51-61.65,31.5,61.65-31.51,61.65-31.5-61.65Zm57.77-161.68h-52.52c-3.69,0-6.68-2.99-6.68-6.68s2.99-6.68,6.68-6.68h52.52c3.69,0,6.68,2.99,6.68,6.68s-2.99,6.68-6.68,6.68Zm0-28.42h-52.52c-3.69,0-6.68-2.99-6.68-6.68s2.99-6.68,6.68-6.68h52.52c3.69,0,6.68,2.99,6.68,6.68s-2.99,6.68-6.68,6.68Z"/><path d="m339.22,84.77l39.02,410.03c.24,2.48,2.44,4.3,4.92,4.07l71.59-6.81c2.48-.24,4.3-2.44-3.51-84.56l-31.5-331.04c-.23-2.38-2.38-3.65-4.86-3.41l-71.59,6.81c-2.48.24-4.3,2.44-4.07,4.92Zm104.09,393.16l-51.58,4.91c-3.62.34-6.84-2.31-7.19-5.94s2.31-6.84,5.94-7.19l51.58-4.91c3.62-.34,6.84,2.31,7.19,5.94s-2.31,6.84-5.94,7.19Zm-2.69-28.29l-51.58,4.91c-3.62.34-6.84-2.31-7.19-5.94s2.31-6.84,5.94-7.19l51.58-4.91c3.62-.34,6.84,2.31,7.19,5.94s-2.31,6.84-5.94,7.19Zm-30.37-319.15l-51.58,4.91c-3.62.34-6.84-2.31-7.19-5.94s2.31-6.84,5.94-7.19l51.58-4.91c3.62-.34,6.84,2.31,7.19,5.94s-2.31,6.84-5.94,7.19Zm-2.69-28.29l-51.58,4.91c-3.62.34-6.84-2.31-7.19-5.94s2.31-6.84,5.94-7.19l51.58-4.91c3.62-.34,6.84,2.31,7.19,5.94s-2.31,6.84-5.94,7.19Zm16.11,255.7l-35.29,3.36c-6.11.58-11.59-3.94-12.17-10.05l-13.43-141.15c-.58-6.11,3.94-11.59,10.05-12.17l35.29-3.36c6.11-.58,11.59,3.94,12.17,10.05l13.43,141.15c.58,6.11-3.94,11.59-10.05,12.17Z"/><path d="m116.59,133.28L19.68,481.94c-.67,2.4.74,4.89,3.14,5.56l40.38,11.22c2.4.67,4.89-.74,5.56-3.14l96.91-348.66c.67-2.4-.74-4.89-3.14-5.56l-40.38-11.22c-2.4-.67-4.89.74-5.56,3.14Zm-58.33,345.71l-21.02-5.84c-3.51-.97-5.56-4.61-4.59-8.12.97-3.51,4.61-5.56,8.12-4.59l21.02,5.84c3.51.98,5.56,4.61,4.59,8.12s-4.61,5.56-8.12,4.59Zm7.51-27.01l-21.02-5.84c-3.51-.97-5.56-4.61-4.59-8.12s4.61-5.56,8.12-4.59l21.02,5.84c3.51.98,5.56,4.61,4.59,8.12-.97,3.51-4.61,5.56-8.12,4.59Zm71.3-256.54l-21.02-5.84c-3.51-.97-5.56-4.61-4.59-8.12.98-3.51,4.61-5.56,8.12-4.59l21.02,5.84c3.51.98,5.56,4.61,4.59,8.12-.97,3.51-4.61,5.56-8.12,4.59Zm7.51-27.01l-21.02-5.84c-3.51-.97-5.56-4.61-4.59-8.12.98-3.51,4.61-5.56,8.12-4.59l21.02,5.84c3.51.98,5.56,4.61,4.59,8.12s-4.61,5.56-8.12,4.59Zm-56.42,183.41l-10.91-3.03c-6.27-1.74-9.98-8.3-8.24-14.58l16.18-58.22c1.74-6.27,8.3-9.98,14.58-8.24l10.91,3.03c6.27,1.74,9.98,8.3,8.24,14.58l-16.18,58.22c-1.74,6.27-8.3,9.98-14.58,8.24Z"/><path d="m257.46,36.19v458.18c0,2.49,2.02,4.52,4.52,4.52h71.91c2.49,0,4.52-2.02,4.52-4.52V36.19c0-2.49-2.02-4.52-4.52-4.52h-71.91c-2.49,0-4.52,2.02-4.52,4.52Zm66.73,447.64h-52.52c-3.69,0-6.68-2.99-6.68-6.68s2.99-6.68,6.68-6.68h52.52c3.69,0,6.68,2.99,6.68,6.68s-2.99,6.68-6.68,6.68Zm0-28.42h-52.52c-3.69,0-6.68-2.99-6.68-6.68s2.99-6.68,6.68-6.68h52.52c3.69,0,6.68,2.99,6.68,6.68s-2.99,6.68-6.68,6.68Zm-50.55-190.13c0-28.33,7.29-56.66,24.28-56.66s24.28,28.33,24.28,56.66-7.28,56.66-24.28,56.66-24.28-28.33-24.28-56.66Zm50.55-176.76h-52.52c-3.69,0-6.68-2.99-6.68-6.68s2.99-6.68,6.68-6.68h52.52c3.69,0,6.68,2.99,6.68,6.68s-2.99,6.68-6.68,6.68Zm0-28.42h-52.52c-3.69,0-6.68-2.99-6.68-6.68s2.99-6.68,6.68-6.68h52.52c3.69,0,6.68,2.99,6.68,6.68s-2.99,6.68-6.68,6.68Z"/></svg>