<?xml version="1.0" encoding="UTF-8"?><svg id="a" xmlns="http://www.w3.org/2000/svg" viewBox="0 0 1417.32 1372.75"><path d="m1394.46,1327.03h-205.74v-662.94c0-11.43,11.43-22.86,22.86-22.86h144.02c20.57,0,18.29-20.57,11.43-27.43L772.67,24c-36.58-32-91.44-32-128.02,0L50.29,613.79c-6.86,6.86-9.14,27.43,11.43,27.43h144.02c11.43,0,22.86,11.43,22.86,22.86v662.94h-68.58c-11.43,0-22.86,11.43-22.86,22.86s11.43,22.86,22.86,22.86h1234.44c11.43,0,22.86-11.43,22.86-22.86s-11.43-22.86-22.86-22.86Zm-320.04-91.44h22.86v-22.86c0-11.43,11.43-22.86,22.86-22.86s22.86,11.43,22.86,22.86v29.72c0,22.86-18.29,38.86-38.86,38.86h-29.72c-11.43,0-22.86-11.43-22.86-22.86s11.43-22.86,22.86-22.86ZM646.95,99.43l29.72-29.72c18.29-18.29,45.72-18.29,64.01,0l29.72,29.72c9.14,9.14,9.14,22.86,0,32-4.57,4.57-20.57,13.72-32,0l-29.72-29.72-29.72,29.72c-9.14,9.14-22.86,9.14-32,0s-9.14-22.86,0-32Zm-91.44,91.44l45.72-45.72c9.14-9.14,22.86-9.14,32,0s9.14,22.86,0,32l-45.72,45.72c-4.57,4.57-20.57,11.43-32,0-9.14-6.86-9.14-22.86,0-32Zm313.2,1136.16v-434.34c0-11.43-11.43-22.86-22.86-22.86h-274.32c-11.43,0-22.86,11.43-22.86,22.86v434.34h-45.72v-434.34c0-38.86,29.72-68.58,68.58-68.58h274.32c38.86,0,68.58,29.72,68.58,68.58v434.34h-45.72Z"/><path d="m1188.72,373.75v-235.46h-137.16v98.3l137.16,137.16Z"/><path d="m68.58,1327.03H22.86c-13.72,0-22.86,9.14-22.86,22.86s9.14,22.86,22.86,22.86h45.72c13.72,0,22.86-9.14,22.86-22.86s-9.14-22.86-22.86-22.86Z"/></svg>