<?xml version="1.0" encoding="UTF-8"?><svg id="a" xmlns="http://www.w3.org/2000/svg" viewBox="0 0 500 500"><path d="m289.1,483.36h-27.45l-44.92-149.75h-17.47l44.92,149.75h-46.59v-149.75h-16.64v149.75h-47.42l44.92-149.75h-17.47l-44.92,149.75H39.52c-4.99,0-8.32,3.33-8.32,8.32s3.33,8.32,8.32,8.32h249.58c4.99,0,8.32-3.33,8.32-8.32s-3.33-8.32-8.32-8.32Z"/><path d="m259.99,116.47c29.95-2.5,54.08-27.45,54.08-58.24,0-32.45-25.79-58.24-58.24-58.24s-59.9,25.79-58.24,58.24c4.16,64.89,62.4,58.24,62.4,58.24Zm-4.16-83.19c14.14,0,24.96,10.82,24.96,24.96s-10.82,24.96-24.96,24.96-24.96-10.82-24.96-24.96,10.82-24.96,24.96-24.96Z"/><path d="m106.08,116.47c16.64,0,28.29-16.64,24.13-31.61-2.5-7.49-10.82-17.47-24.13-17.47s-24.96,11.65-24.96,24.96c0,11.65,8.32,24.13,24.96,24.13Zm0-32.45c4.16,0,8.32,3.33,8.32,8.32,0,4.16-4.16,8.32-8.32,8.32s-8.32-4.16-8.32-8.32c0-4.99,4.16-8.32,8.32-8.32Z"/><path d="m464.64,117.31l-116.47,62.4v56.57l116.47,63.23V117.31Zm-16.64,141.43c0,8.32-8.32,10.82-12.48,7.49l-16.64-8.32c-4.16-1.66-5.82-6.66-3.33-10.82,5.82-10.82,15.81-1.66,15.81-1.66v-19.97c0-4.16,4.16-8.32,8.32-8.32s8.32,4.16,8.32,8.32v33.28Z"/><path d="m164.31,300.33h49.92v16.64h-49.92v-16.64Z"/><path d="m57,283.7h264.56c5.82,0,9.15-4.16,9.98-9.15v-132.27c0-5.82-4.99-8.32-9.15-8.32l-265.38-.83c-5.82,0-9.15,4.16-9.15,9.98v132.27c0,4.99,4.16,8.32,9.15,8.32h0Zm232.11-133.11h9.15c9.15,0,15.81,6.66,15.81,15.81v9.15c0,4.16-4.16,8.32-8.32,8.32s-8.32-4.16-8.32-8.32v-8.32h-8.32c-4.16,0-8.32-4.16-8.32-8.32s4.16-8.32,8.32-8.32Zm-149.75,99.83h16.64c4.16,0,8.32,4.16,8.32,8.32s-4.16,8.32-8.32,8.32h-16.64c-4.16,0-8.32-4.16-8.32-8.32s4.16-8.32,8.32-8.32Zm-74.87-24.96c0-4.16,4.16-8.32,8.32-8.32s8.32,4.16,8.32,8.32v24.96h24.96c4.16,0,8.32,4.16,8.32,8.32s-4.16,8.32-8.32,8.32h-22.46c-10.82,0-19.13-8.32-19.13-19.13v-22.46Z"/><path d="m355.66,483.36h-33.28c-4.99,0-8.32,3.33-8.32,8.32s3.33,8.32,8.32,8.32h33.28c4.99,0,8.32-3.33,8.32-8.32s-3.33-8.32-8.32-8.32Z"/><path d="m460.48,483.36h-71.54c-4.99,0-8.32,3.33-8.32,8.32s3.33,8.32,8.32,8.32h71.54c4.99,0,8.32-3.33,8.32-8.32s-3.33-8.32-8.32-8.32Z"/><path d="m264.15,59.07c0,4.59-3.73,8.32-8.32,8.32s-8.32-3.73-8.32-8.32,3.73-8.32,8.32-8.32,8.32,3.73,8.32,8.32"/></svg>