<?xml version="1.0" encoding="UTF-8"?><svg id="a" xmlns="http://www.w3.org/2000/svg" viewBox="0 0 500 500"><path d="m424.95,208.33s0-8.33-8.33-8.33h-16.67c-5,0-8.33,3.33-8.33,8.33s3.33,8.33,8.33,8.33h8.33c4.17,27.5-17.5,164.17-158.33,166.67-87.5,1.67-163.33-76.67-158.33-166.67h8.33c5,0,8.33-3.33,8.33-8.33s-3.33-8.33-8.33-8.33h-16.67c-8.33,0-8.33,8.33-8.33,8.33-6.67,108.33,74.17,186.66,166.67,190.84v84.17h-125c-5,0-8.33,3.33-8.33,8.33s3.33,8.33,8.33,8.33h266.66c5,0,8.33-3.33,8.33-8.33s-3.33-8.33-8.33-8.33h-125v-84.17c92.5-4.17,174.17-82.5,166.67-190.84Z"/><path d="m149.95,216.66h200c4.17,0,8.33-4.17,8.33-8.33s-4.17-8.33-8.33-8.33h-200c-4.17,0-8.33,4.17-8.33,8.33s4.17,8.33,8.33,8.33Z"/><path d="m341.62,166.67h-25c-4.17,0-8.33-4.17-8.33-8.33s4.17-8.33,8.33-8.33h25v-16.67h-25c-4.17,0-8.33-4.17-8.33-8.33s4.17-8.33,8.33-8.33h25v-16.67h-25c-4.17,0-8.33-4.17-8.33-8.33s4.17-8.33,8.33-8.33h25C336.62,36.67,297.45,0,249.95,0s-86.67,36.67-91.67,83.33h25c4.17,0,8.33,4.17,8.33,8.33s-4.17,8.33-8.33,8.33h-25v16.67h25c4.17,0,8.33,4.17,8.33,8.33s-4.17,8.33-8.33,8.33h-25v16.67h25c4.17,0,8.33,4.17,8.33,8.33s-4.17,8.33-8.33,8.33h-25v16.67h183.33v-16.67ZM211.62,47.5c-5,5-9.17,9.17-11.67,14.17-1.67,2.5-5.83,6.67-10.83,3.33-4.17-.83-5.83-6.67-4.17-10.83,4.17-7.5,9.17-13.33,15-19.17,3.33-3.33,8.33-3.33,11.67,0,3.33,4.17,3.33,9.17,0,12.5Zm38.33-14.17c-5,0-10,.83-14.17,2.5-.83,0-6.67,3.33-10.83-5-1.67-4.17.83-9.17,5-10.83,6.67-2.5,13.33-3.33,20-3.33,4.17,0,8.33,4.17,8.33,8.33s-4.17,8.33-8.33,8.33Z"/><path d="m249.95,316.66c47.5,0,86.67-36.67,91.67-83.33h-183.33c5,46.67,44.17,83.33,91.67,83.33Zm-25-30c1.67-4.17,5.83-6.67,10.83-5,4.17,1.67,22.5,5.83,43.33-5.83,4.17-2.5,9.17-.83,11.67,3.33s.83,9.17-3.33,11.67c-24.17,15-50.83,9.17-56.67,7.5-4.17-2.5-6.67-7.5-5.83-11.67Z"/></svg>