<?xml version="1.0" encoding="UTF-8"?><svg id="a" xmlns="http://www.w3.org/2000/svg" viewBox="0 0 500 500"><path d="m423.5,157.89c0-3.32-3.32-7.47-8.3-7.47H82.56c-3.32,0-7.47,4.15-7.47,7.47v42.31h348.4v-42.31Zm-323.51,25.72c-4.15,0-8.3-4.15-8.3-8.3s4.15-8.3,8.3-8.3,8.3,4.15,8.3,8.3-4.15,8.3-8.3,8.3Zm33.18,0c-4.15,0-8.3-4.15-8.3-8.3s4.15-8.3,8.3-8.3,8.3,4.15,8.3,8.3-4.15,8.3-8.3,8.3Zm33.18,0c-4.15,0-8.3-4.15-8.3-8.3s4.15-8.3,8.3-8.3,8.3,4.15,8.3,8.3-4.15,8.3-8.3,8.3Zm232.27,0h-199.09c-4.15,0-8.3-4.15-8.3-8.3s4.15-8.3,8.3-8.3h199.09c4.15,0,8.3,4.15,8.3,8.3s-4.15,8.3-8.3,8.3Z"/><path d="m382.75,449.36h-96.46c-6.65-14.97-7.13-14.55-7.96-33.68h-56.42c-.83,17.46-2.14,18.71-8.79,33.68h-100.61c-4.16,0-8.32,4.16-8.32,8.32s4.16,8.32,8.32,8.32h270.24c4.16,0,8.32-4.16,8.32-8.32s-4.16-8.32-8.32-8.32Z"/><path d="m440.13,160.4v56.54h51.78c4.47,0,8.09-3.62,8.09-8.09V40.67c0-3.67-2.98-6.65-6.65-6.65H225.6c-4.16,0-6.65,2.49-6.65,6.65l-1.66,93.13h197.9c6.65,0,24.95,4.16,24.95,26.61h0Zm-14.97-93.13h-16.63c-4.16,0-8.32-4.16-8.32-8.32s4.16-8.32,8.32-8.32h16.63c4.16,0,8.32,4.16,8.32,8.32s-4.16,8.32-8.32,8.32Zm24.95-8.32c0-4.16,4.16-8.32,8.32-8.32h16.63c4.16,0,8.32,4.16,8.32,8.32v16.63c0,4.16-4.16,8.32-8.32,8.32s-8.32-4.16-8.32-8.32v-8.32h-8.32c-4.16,0-8.32-4.16-8.32-8.32Z"/><path d="m94.69,90.59h-32.5v10.37c0,5.18-5.18,10.37-10.37,10.37s-10.37-5.18-10.37-10.37v-10.37H8.97c-4.95,0-8.97,4.01-8.97,8.97v208.21c0,4.95,4.01,8.97,8.97,8.97h49.72v-163.11c0-10.91,8.92-19.83,19.83-19.83h25.15v-34.24c0-4.95-4.01-8.97-8.97-8.97ZM24.2,299.62c0,4.16-4.16,8.32-8.32,8.32s-8.32-4.16-8.32-8.32v-16.63c0-4.16,4.16-8.32,8.32-8.32s8.32,4.16,8.32,8.32v16.63Z"/><g><path d="m255.2,261.95v40.09h18.28c-1.18-15.33-7.66-29.48-18.28-40.09Z"/><path d="m243.41,302.03v-40.09c-10.61,10.61-17.1,24.76-18.28,40.09h18.28Z"/><path d="m243.41,353.91v-40.09h-18.28c1.18,15.33,7.66,29.48,18.28,40.09Z"/><path d="m423.5,366.62v-149.67H75.1v172.95c0,5.82,4.99,9.15,9.15,9.15h330.12c5.82,0,9.15-4.99,9.15-9.15v-23.28h0Zm-174.2,6.16c-35.96,0-64.85-28.89-64.85-64.85s28.89-64.85,64.85-64.85,64.85,28.89,64.85,64.85-28.89,64.85-64.85,64.85Zm158.4,1.32c0,4.16-4.16,8.32-8.32,8.32h-16.63c-4.16,0-8.32-4.16-8.32-8.32s4.16-8.32,8.32-8.32h8.32v-8.32c0-4.16,4.16-8.32,8.32-8.32s8.32,4.16,8.32,8.32v16.63Z"/><path d="m230.44,258.41c-18.28,7.07-31.83,23.58-34.19,43.63h16.51c1.77-16.51,7.66-31.25,17.69-43.63Z"/><path d="m196.24,313.82c2.36,20.04,15.92,37.14,34.19,43.63-10.02-12.38-16.51-27.12-17.69-43.63h-16.51Z"/><path d="m267.58,258.41c10.02,12.38,16.51,27.12,17.69,43.63h16.51c-2.36-20.04-15.92-37.14-34.19-43.63Z"/><path d="m268.17,357.45c18.28-7.07,31.83-23.58,34.19-43.63h-16.51c-1.77,16.51-7.66,31.25-17.69,43.63Z"/><path d="m255.2,313.82v40.09c10.61-10.61,17.1-24.76,18.28-40.09h-18.28Z"/></g></svg>