<?xml version="1.0" encoding="UTF-8"?><svg id="b" xmlns="http://www.w3.org/2000/svg" viewBox="0 0 500 500.69"><path d="m249.66,0C181.07,0,120.72,25.38,74.08,72.7,26.06,121.4,0,184.5,0,250.34s25.37,128.26,73.39,176.27c48.02,48.02,110.42,74.08,176.27,74.08s129.63-26.06,179.01-74.76c46.64-45.95,71.33-107,71.33-175.59s-24.69-129.62-72.02-176.95C379.98,25.37,318.25,0,249.66,0Zm.68,45.27c56.25,0,106.32,21.26,145.41,60.36,38.41,38.4,58.98,89.16,58.98,144.71s-19.89,105.63-58.29,143.35c-40.47,39.78-92.59,61.04-146.09,61.04s-104.93-21.26-144.03-60.36c-39.1-39.1-61.04-90.53-61.04-144.03s21.95-105.61,61.04-145.41c38.41-39.09,87.79-59.67,144.03-59.67Z"/><path id="c" d="m236.31,206.14c-15.03-27.4-40.66-38.3-70.42-38.3-43.31,0-77.79,30.64-77.79,82.5s32.41,82.51,79.26,82.51c30.06,0,55.7-16.5,69.83-41.54l-33-16.8c-7.37,17.67-18.57,22.98-32.7,22.98-24.46,0-35.66-20.33-35.66-47.15s9.44-47.14,35.66-47.14c7.07,0,21.21,3.83,29.46,21.51l35.36-18.57Z"/><path id="d" d="m411.02,206.14c-15.03-27.4-40.66-38.3-70.42-38.3-43.31,0-77.79,30.64-77.79,82.5s32.41,82.51,79.26,82.51c30.06,0,55.7-16.5,69.83-41.54l-33-16.8c-7.37,17.67-18.57,22.98-32.7,22.98-24.46,0-35.66-20.33-35.66-47.15s9.44-47.14,35.66-47.14c7.07,0,21.21,3.83,29.46,21.51l35.36-18.57Z"/></svg>