<?xml version="1.0" encoding="UTF-8"?><svg id="a" xmlns="http://www.w3.org/2000/svg" viewBox="0 0 500 500"><path d="m259.39,344.57c-6.15,0-11.15,5-11.15,11.15s5,11.15,11.15,11.15,11.15-5,11.15-11.15-5-11.15-11.15-11.15Z"/><path d="m196.69,410.06c0,6.15,5,11.15,11.15,11.15s11.15-5,11.15-11.15-5-11.15-11.15-11.15-11.15,5-11.15,11.15Z"/><path d="m118.66,293.02c-6.15,0-11.15,5-11.15,11.15s5,11.15,11.15,11.15,11.15-5,11.15-11.15-5-11.15-11.15-11.15Z"/><path d="m404.3,319.49c-6.15,0-11.15,5-11.15,11.15s5,11.15,11.15,11.15,11.15-5,11.15-11.15-5-11.15-11.15-11.15Z"/><path d="m250,0C111.93,0,0,111.93,0,250s111.93,250,250,250,250-111.93,250-250S388.07,0,250,0ZM70.62,203.72c.24-12.89,4.37-23.81,12.41-32.77,8.07-8.98,18.31-14.17,30.76-15.7-.44-2.8-.65-5.63-.63-8.46.45-17.04,6.28-31.15,17.49-42.14,11.27-10.99,25.41-16.82,42.48-17.27,10.75,0,20.39,2.47,28.91,7.62,7.17-11.45,16.38-20.85,27.82-27.79,11.64-6.95,24.64-10.54,39-10.78,19.3.45,35.65,6.52,49.54,18.16,13.9,11.66,22.66,26.68,26.25,45.29h-4.26c-6.95,0-12.99.9-18.39,2.9-6.99-7.49-15.46-13.44-24.87-17.47-9.19-4.05-19.28-5.83-30.06-5.83-9.64-.08-19.21,1.59-28.25,4.93-16.56,6.18-30.6,17.69-39.91,32.72-4.21,6.82-7.17,14.34-8.74,22.2-5.23,1.06-10.34,2.63-15.26,4.69-7.51,3.42-14.11,8.57-19.27,15.02-5.02,5.68-8.83,12.31-11.21,19.51-2.52,7.44-3.81,15.24-3.83,23.09,0,3.09.37,25.32.37,25.32-6.63,3.37-13.93,5.06-21.91,5.06-13.75-.43-25.11-5.17-34.19-14.22-9.07-8.98-13.78-20.43-14.25-34.11Zm98.2,60.04l-28.24,28.25c2.01,3.61,3.16,7.75,3.16,12.16,0,13.83-11.25,25.08-25.08,25.08s-25.08-11.25-25.08-25.08,11.25-25.08,25.08-25.08c4.36,0,8.46,1.12,12.04,3.09l24.19-24.19v-24.88c0-3.85,3.12-6.97,6.97-6.97s6.97,3.12,6.97,6.97v30.65Zm90.57,117.04c-13.83,0-25.08-11.25-25.08-25.08,0-11.41,7.67-21.05,18.11-24.08v-35.74l-37.62,37.62v52.46c10.45,3.03,18.11,12.67,18.11,24.08,0,13.83-11.25,25.08-25.08,25.08s-25.08-11.25-25.08-25.08c0-11.41,7.67-21.05,18.11-24.08v-58.23l51.55-51.55v-43.1c0-3.85,3.12-6.97,6.97-6.97s6.97,3.12,6.97,6.97v98.54c10.45,3.03,18.11,12.67,18.11,24.08,0,13.83-11.25,25.08-25.08,25.08Zm76.63-147.69v32.42h-55.73v-32.42c0-11.52-9.38-20.9-20.9-20.9s-20.9,9.38-20.9,20.9v32.42h-37.83c-6.7-.88-12.66-2.32-17.91-4.3v-28.12c0-11.52-9.38-20.9-20.9-20.9-2.62,0-5.12.51-7.43,1.39,1.61-26.48,17.56-41.1,47.85-43.71,4.11-30.49,19.66-49.33,46.64-56.5,27-7.38,49.96.91,68.94,25.13,6.52-5.38,14.74-7.64,24.66-6.97,9.99.67,18.45,2.71,25.37,6.52,8.97,4.69,16.14,11.44,20.87,19.97,4.79,8.8,7.25,18.67,7.16,28.68l.09.3h0c23.56,5.85,34.64,19.7,33.26,41.57-1.37,21.87-14.11,34.18-38.19,36.93h-13.25v-32.42c0-11.52-9.38-20.9-20.9-20.9s-20.9,9.38-20.9,20.9Zm68.27,122.61c-13.83,0-25.08-11.25-25.08-25.08,0-4.49,1.2-8.7,3.28-12.35l-32.54-32.54v-52.64c0-3.85,3.12-6.97,6.97-6.97s6.97,3.12,6.97,6.97v46.87l29.11,28.31c3.4-1.72,7.23-2.72,11.3-2.72,13.83,0,25.08,11.25,25.08,25.08s-11.25,25.08-25.08,25.08Z"/></svg>