<?xml version="1.0" encoding="UTF-8"?><svg id="a" xmlns="http://www.w3.org/2000/svg" viewBox="0 0 500 500"><path d="m250,40c56.09,0,108.83,21.84,148.49,61.51,39.66,39.66,61.51,92.4,61.51,148.49s-21.84,108.83-61.51,148.49-92.4,61.51-148.49,61.51-108.83-21.84-148.49-61.51c-39.66-39.66-61.51-92.4-61.51-148.49s21.84-108.83,61.51-148.49c39.66-39.66,92.4-61.51,148.49-61.51M250,0C111.93,0,0,111.93,0,250s111.93,250,250,250,250-111.93,250-250S388.07,0,250,0h0Z"/><path d="m143.63,259.8l9.95,19.9,9.95-19.9-9.95-19.9-9.95,19.9Z"/><path d="m235.66,239.05c0,14.55-3.3,26.34-7.38,26.34s-7.38-11.79-7.38-26.34,3.3-26.34,7.38-26.34,7.38,11.79,7.38,26.34"/><path d="m126.71,117.64v273.57c0,1.66,1.34,3,3,3h47.76c1.66,0,3-1.34,3-3V117.64c0-1.66-1.34-3-3-3h-47.76c-1.66,0-3,1.34-3,3Zm44.32,266.57h-34.89c-2.45,0-4.44-1.99-4.44-4.44s1.99-4.44,4.44-4.44h34.89c2.45,0,4.44,1.99,4.44,4.44s-1.99,4.44-4.44,4.44Zm0-18.88h-34.89c-2.45,0-4.44-1.99-4.44-4.44s1.99-4.44,4.44-4.44h34.89c2.45,0,4.44,1.99,4.44,4.44s-1.99,4.44-4.44,4.44Zm-38.37-105.55l20.93-40.95,20.92,40.95-20.93,40.95-20.92-40.95Zm38.37-107.39h-34.89c-2.45,0-4.44-1.99-4.44-4.44s1.99-4.44,4.44-4.44h34.89c2.45,0,4.44,1.99,4.44,4.44s-1.99,4.44-4.44,4.44Zm0-18.88h-34.89c-2.45,0-4.44-1.99-4.44-4.44s1.99-4.44,4.44-4.44h34.89c2.45,0,4.44,1.99,4.44,4.44s-1.99,4.44-4.44,4.44Z"/><path d="m201.4,86.89v304.32c0,1.66,1.34,3,3,3h47.76c1.66,0,3-1.34,3-3V86.89c0-1.66-1.34-3-3-3h-47.76c-1.66,0-3,1.34-3,3Zm44.33,297.32h-34.89c-2.45,0-4.44-1.99-4.44-4.44s1.99-4.44,4.44-4.44h34.89c2.45,0,4.44,1.99,4.44,4.44s-1.99,4.44-4.44,4.44Zm0-18.88h-34.89c-2.45,0-4.44-1.99-4.44-4.44s1.99-4.44,4.44-4.44h34.89c2.45,0,4.44,1.99,4.44,4.44s-1.99,4.44-4.44,4.44Zm-33.57-126.28c0-18.82,4.84-37.63,16.13-37.63s16.13,18.82,16.13,37.63-4.84,37.63-16.13,37.63-16.13-18.82-16.13-37.63Zm33.57-117.41h-34.89c-2.45,0-4.44-1.99-4.44-4.44s1.99-4.44,4.44-4.44h34.89c2.45,0,4.44,1.99,4.44,4.44s-1.99,4.44-4.44,4.44Zm0-18.88h-34.89c-2.45,0-4.44-1.99-4.44-4.44s1.99-4.44,4.44-4.44h34.89c2.45,0,4.44,1.99,4.44,4.44s-1.99,4.44-4.44,4.44Z"/><path d="m313.24,165.4l-44.84,16.41c-1.56.57-2.36,2.3-1.79,3.86l76.01,206.83c.57,1.56,2.3,2.36,3.85,1.79l44.84-16.41c1.56-.57,2.36-2.3,1.79-3.86l-76.01-206.83c-.57-1.56-2.3-2.36-3.85-1.79Zm-38.01,29.29c-.84-2.3.34-4.85,2.64-5.69l32.76-11.99c2.3-.84,4.85.34,5.69,2.64s-.34,4.85-2.64,5.69l-32.76,11.99c-2.3.84-4.85-.34-5.69-2.64Zm44.94,8.38l-32.76,11.99c-2.3.84-4.85-.34-5.69-2.64s.34-4.85,2.64-5.69l32.76-11.99c2.3-.84,4.85.34,5.69,2.64s-.34,4.85-2.64,5.69Zm17.42,162.03c-.84-2.3.34-4.85,2.64-5.69l32.76-11.99c2.3-.84,4.85.34,5.69,2.64s-.34,4.85-2.64,5.69l-32.76,11.99c-2.3.84-4.85-.34-5.69-2.64Zm44.94,8.38l-32.76,11.99c-2.3.84-4.85-.34-5.69-2.64s.34-4.85,2.64-5.69l32.76-11.99c2.3-.84,4.85.34,5.69,2.64s-.34,4.85-2.64,5.69Z"/></svg>