<?xml version="1.0" encoding="UTF-8"?><svg id="a" xmlns="http://www.w3.org/2000/svg" viewBox="0 0 500 500"><path d="m171.03,124.64h-34.89c-2.45,0-4.44,1.99-4.44,4.44s1.99,4.44,4.44,4.44h34.89c2.45,0,4.44-1.99,4.44-4.44s-1.99-4.44-4.44-4.44Z"/><path d="m245.73,356.46h-34.89c-2.45,0-4.44,1.99-4.44,4.44s1.99,4.44,4.44,4.44h34.89c2.45,0,4.44-1.99,4.44-4.44s-1.99-4.44-4.44-4.44Z"/><path d="m245.73,375.33h-34.89c-2.45,0-4.44,1.99-4.44,4.44s1.99,4.44,4.44,4.44h34.89c2.45,0,4.44-1.99,4.44-4.44s-1.99-4.44-4.44-4.44Z"/><path d="m174.52,259.78l-20.92-40.95-20.93,40.95,20.92,40.95,20.93-40.95Zm-30.88.02l9.95-19.9,9.95,19.9-9.95,19.9-9.95-19.9Z"/><path d="m171.03,143.52h-34.89c-2.45,0-4.44,1.99-4.44,4.44s1.99,4.44,4.44,4.44h34.89c2.45,0,4.44-1.99,4.44-4.44s-1.99-4.44-4.44-4.44Z"/><path d="m171.03,356.46h-34.89c-2.45,0-4.44,1.99-4.44,4.44s1.99,4.44,4.44,4.44h34.89c2.45,0,4.44-1.99,4.44-4.44s-1.99-4.44-4.44-4.44Z"/><path d="m171.03,375.33h-34.89c-2.45,0-4.44,1.99-4.44,4.44s1.99,4.44,4.44,4.44h34.89c2.45,0,4.44-1.99,4.44-4.44s-1.99-4.44-4.44-4.44Z"/><path d="m244.41,239.05c0-18.82-4.84-37.63-16.13-37.63s-16.13,18.82-16.13,37.63,4.84,37.63,16.13,37.63,16.13-18.82,16.13-37.63Zm-23.5,0c0-14.55,3.3-26.34,7.38-26.34s7.38,11.79,7.38,26.34-3.3,26.34-7.38,26.34-7.38-11.79-7.38-26.34Z"/><path d="m317.12,194.73l-32.76,11.99c-2.3.84-3.49,3.39-2.64,5.69.84,2.3,3.39,3.49,5.69,2.64l32.76-11.99c2.3-.84,3.49-3.39,2.64-5.69-.84-2.3-3.39-3.49-5.69-2.64Z"/><path d="m379.48,365.14l-32.76,11.99c-2.3.84-3.49,3.39-2.64,5.69s3.39,3.49,5.69,2.64l32.76-11.99c2.3-.84,3.49-3.39,2.64-5.69s-3.39-3.49-5.69-2.64Z"/><path d="m316.33,179.65c-.84-2.3-3.39-3.49-5.69-2.64l-32.76,11.99c-2.3.84-3.49,3.39-2.64,5.69.84,2.3,3.39,3.49,5.69,2.64l32.76-11.99c2.3-.84,3.48-3.39,2.64-5.69Z"/><path d="m250,0C111.93,0,0,111.93,0,250s111.93,250,250,250,250-111.93,250-250S388.07,0,250,0Zm-69.53,391.21c0,1.66-1.34,3-3,3h-47.76c-1.66,0-3-1.34-3-3V117.64c0-1.66,1.34-3,3-3h47.76c1.66,0,3,1.34,3,3v273.57Zm74.7,0c0,1.66-1.34,3-3,3h-47.76c-1.66,0-3-1.34-3-3V86.89c0-1.66,1.34-3,3-3h47.76c1.66,0,3,1.34,3,3v304.32Zm136.15-13.33l-44.84,16.41c-1.56.57-3.28-.23-3.85-1.79l-76.01-206.83c-.57-1.56.23-3.29,1.79-3.86l44.84-16.41c1.56-.57,3.28.23,3.85,1.79l76.01,206.83c.57,1.56-.23,3.29-1.79,3.86Z"/><path d="m245.73,112.77h-34.89c-2.45,0-4.44,1.99-4.44,4.44s1.99,4.44,4.44,4.44h34.89c2.45,0,4.44-1.99,4.44-4.44s-1.99-4.44-4.44-4.44Z"/><path d="m378.69,350.05c-.84-2.3-3.39-3.49-5.69-2.64l-32.76,11.99c-2.3.84-3.48,3.39-2.64,5.69.84,2.3,3.39,3.49,5.69,2.64l32.76-11.99c2.3-.84,3.49-3.39,2.64-5.69Z"/><path d="m245.73,93.89h-34.89c-2.45,0-4.44,1.99-4.44,4.44s1.99,4.44,4.44,4.44h34.89c2.45,0,4.44-1.99,4.44-4.44s-1.99-4.44-4.44-4.44Z"/></svg>