<?xml version="1.0" encoding="UTF-8"?><svg id="a" xmlns="http://www.w3.org/2000/svg" viewBox="0 0 500 500"><circle cx="128.77" cy="166.74" r="14.99"/><path d="m249.49,103.95c-17.99,0-32.62,14.63-32.62,32.62s14.63,32.62,32.62,32.62,32.62-14.63,32.62-32.62-14.63-32.62-32.62-32.62Zm0,50.26c-9.72,0-17.63-7.91-17.63-17.63s7.91-17.63,17.63-17.63,17.63,7.91,17.63,17.63-7.91,17.63-17.63,17.63Z"/><path d="m250,0C111.93,0,0,111.93,0,250s111.93,250,250,250,250-111.93,250-250S388.07,0,250,0Zm-121.23,128.74c20.99,0,38,17.01,38,38s-17.01,38-38,38-38-17.01-38-38,17.01-38,38-38Zm183.12,198.94c-.69,4.14-3.45,7.58-8.27,7.58h-70.19l-5.62,37.43h-11.34l-2.25,66.8c-14.03-2.7-27.64-6.93-40.62-12.63l-1.83-54.17h-11.34l-5.62-37.43h-70.43c-4.14,0-7.58-2.76-7.58-6.89v-109.62c0-4.83,2.76-8.27,7.58-8.27l219.94.69c3.45,0,7.58,2.07,7.58,6.9v109.62Zm-62.4-122.95c-37.65,0-68.16-30.52-68.16-68.16s30.52-68.16,68.16-68.16,68.16,30.52,68.16,68.16-30.52,68.16-68.16,68.16Zm172.71,134.74c0,4.01-4.29,6.56-7.81,4.65l-88.71-48.16v-46.88l88.74-47.54c3.52-1.89,7.79.67,7.79,4.66v133.27Z"/></svg>