<?xml version="1.0" encoding="UTF-8"?><svg id="b" xmlns="http://www.w3.org/2000/svg" viewBox="0 0 500 500.69"><path d="m249.66,0C181.07,0,120.72,25.38,74.08,72.7,26.06,121.4,0,184.5,0,250.34s25.37,128.26,73.39,176.27c48.02,48.02,110.42,74.08,176.27,74.08s129.63-26.06,179.01-74.76c46.64-45.95,71.33-107,71.33-175.59s-24.69-129.62-72.02-176.95C379.98,25.37,318.25,0,249.66,0Zm.68,45.27c56.25,0,106.32,21.26,145.41,60.36,38.41,38.4,58.98,89.16,58.98,144.71s-19.89,105.63-58.29,143.35c-40.47,39.78-92.59,61.04-146.09,61.04s-104.93-21.26-144.03-60.36c-39.1-39.1-61.04-90.53-61.04-144.03s21.95-105.61,61.04-145.41c38.41-39.09,87.79-59.67,144.03-59.67Z"/><path d="m380.87,142.1c-6.13-6.13-14.45-9.58-23.12-9.59h-49.07c-8.67.01-16.99,3.46-23.12,9.59-6.13,6.13-9.58,14.45-9.59,23.12v49.07c.01,8.67,3.46,16.99,9.59,23.12,6.13,6.13,14.45,9.58,23.12,9.59h49.07c8.67,0,16.99-3.46,23.12-9.59,6.13-6.13,9.58-14.45,9.59-23.12v-49.07c0-8.67-3.46-16.99-9.59-23.12Zm-26.04,69.26h-43.21v-43.21h43.21v43.21Z"/><path d="m380.87,276.42c-6.13-6.13-14.45-9.58-23.12-9.59h-49.07c-8.67,0-16.99,3.46-23.12,9.59-6.13,6.13-9.58,14.45-9.59,23.12v49.07c.01,8.67,3.46,16.99,9.59,23.12,6.13,6.13,14.44,9.58,23.12,9.59h49.07c8.67-.01,16.98-3.46,23.12-9.59,6.13-6.13,9.58-14.44,9.59-23.12v-49.07c0-8.67-3.46-16.99-9.59-23.12Zm-26.04,69.26h-43.21v-43.21h43.21v43.21Z"/><path d="m246.81,127.45c-5.97-5.97-14.07-9.33-22.51-9.34h-79.61c-8.44,0-16.54,3.37-22.5,9.34-5.97,5.97-9.33,14.06-9.34,22.5v79.61c0,8.44,3.37,16.54,9.34,22.51,5.97,5.97,14.06,9.33,22.5,9.34h79.61c8.44-.01,16.54-3.37,22.51-9.34,5.97-5.97,9.33-14.07,9.34-22.51v-79.61c-.01-8.44-3.37-16.54-9.34-22.5Zm-26.3,98.32h-72.02v-72.02h72.02v72.02Z"/><path d="m246.55,290.83c-6.13-6.13-14.44-9.58-23.12-9.59h-49.06c-8.67.01-16.98,3.46-23.12,9.59-6.13,6.13-9.58,14.44-9.59,23.12v49.06c.01,8.67,3.46,16.98,9.59,23.12,6.13,6.13,14.45,9.58,23.12,9.59h49.06c8.67-.01,16.98-3.46,23.12-9.59,6.13-6.13,9.58-14.45,9.59-23.12v-49.06c-.01-8.67-3.46-16.99-9.59-23.12Zm-26.04,69.25h-43.21v-43.21h43.21v43.21Z"/></svg>