<?xml version="1.0" encoding="UTF-8"?><svg id="a" xmlns="http://www.w3.org/2000/svg" viewBox="0 0 500 500"><path d="m249.48,212.33c-22.77,0-40.88,18.1-40.88,40.88s18.1,40.88,40.88,40.88,40.88-18.1,40.88-40.88-18.1-40.88-40.88-40.88Zm0,68.19c-15.29,0-27.31-12.02-27.31-27.31s12.02-27.31,27.31-27.31,27.31,12.02,27.31,27.31-12.02,27.31-27.31,27.31Z"/><path d="m249.48,160.34c-51.35,0-92.86,41.52-92.86,92.86s41.52,92.86,92.86,92.86,92.86-41.52,92.86-92.86-41.51-92.86-92.86-92.86Zm0,172.57c-44.1,0-79.7-35.6-79.7-79.7s35.6-79.7,79.7-79.7,79.7,35.6,79.7,79.7-35.6,79.7-79.7,79.7Z"/><path d="m250,0C111.93,0,0,111.93,0,250s111.93,250,250,250,250-111.93,250-250S388.07,0,250,0Zm157.9,361.9c0,3.28-2.73,6.01-6.01,6.01H97.08c-3.28,0-6.01-2.73-6.01-6.01v-217.41c0-3.28,2.73-6.01,6.01-6.01h15.84v-15.84c0-3.28,2.73-6.01,6.01-6.01h31.68c3.28,0,6.01,2.73,6.01,6.01v15.84h18.57l30.59-39.88c1.64-2.18,4.37-3.82,7.1-3.82h73.2c2.73,0,5.46,1.09,7.1,3.82l30.59,39.88h78.12c3.28,0,6.01,2.73,6.01,6.01v217.41Z"/><path d="m258.45,237.2c-5.82,0-10.54,4.72-10.54,10.54s4.72,10.54,10.54,10.54,10.54-4.72,10.54-10.54-4.72-10.54-10.54-10.54Z"/></svg>