<?xml version="1.0" encoding="UTF-8"?><svg id="a" xmlns="http://www.w3.org/2000/svg" viewBox="0 0 500 500"><path d="m258.06,131.46v-35.48h23.39c7.26,0,15.32,4.84,18.55,11.29,6.45,12.9,18.55,20.97,33.06,20.97h54.84c8.87,0,15.32-7.26,15.32-15.32v-49.19c0-8.87-7.26-15.32-16.13-15.32h-38.71c-7.26,0-15.32-4.84-18.55-12.1-6.45-12.1-19.35-20.16-33.06-20.16h-38.71v-8.06c0-4.03-4.03-8.06-8.06-8.06s-8.06,4.03-8.06,8.06v124.2c2.42-.81,10.48-2.42,16.13-.81Z"/><path d="m24.19,177.42h80.65c4.03,0,8.06-4.03,8.06-8.06s-4.03-8.06-8.06-8.06-8.06-4.03-8.06-8.06c0-13.71-10.48-24.19-24.19-24.19-8.06,0-16.94,4.84-20.97,12.9-2.42,4.03-7.26,4.84-11.29,3.23,0,0-8.06-.81-8.06,8.06,0,4.03-4.03,8.06-8.06,8.06s-8.06,4.03-8.06,8.06,4.03,8.06,8.06,8.06Z"/><path d="m395.16,209.68c-4.03,0-8.06,4.03-8.06,8.06s4.03,8.06,8.06,8.06h80.65c4.03,0,8.06-4.03,8.06-8.06s-4.03-8.06-8.06-8.06-8.06-4.03-8.06-8.06c0-13.71-10.48-24.19-24.19-24.19-8.06,0-16.94,4.84-20.97,12.9-2.42,4.03-6.45,4.84-10.48,3.23,0,0-8.06-.81-8.06,8.06-.81,4.03-4.84,8.06-8.87,8.06Z"/><path d="m491.94,483.88h-27.42l-30.65-91.94c-33.06,31.45-47.58-15.32-47.58-15.32-1.61-4.84-10.48-8.87-15.32-1.61-4.03,5.65-14.52,16.13-29.03,9.68l-46.77,99.19h-17.74l74.19-159.68-49.19-89.52c-4.84,6.45-25,20.16-41.13-1.61-1.61-2.42-12.1-7.26-15.32,1.61,0,0-15.32,49.19-50,13.71l-29.03,59.68,56.45,175.81h-16.94l-42.74-133.87c-4.03,2.42-18.55,10.48-33.87-8.06-5.65-7.26-13.71-2.42-15.32,1.61,0,0-8.87,39.52-41.94,21.77l-37.1,118.55H8.06c-4.03,0-8.06,4.03-8.06,8.06s4.03,8.06,8.06,8.06h483.87c4.03,0,8.06-4.03,8.06-8.06s-4.03-8.06-8.06-8.06h0Zm-197.59-224.99c4.03-2.42,8.87,0,10.48,3.23l24.19,48.39c2.42,4.03,0,8.87-3.23,10.48-4.84,2.42-9.68-.81-10.48-3.23l-24.19-48.39c-1.61-3.23,0-8.87,3.23-10.48Zm-197.59,138.71l-16.13,48.39c-.81,3.23-4.03,6.45-10.48,4.84-4.03-1.61-6.45-5.65-4.84-10.48l16.13-48.39c1.61-4.03,5.65-6.45,10.48-4.84,3.23,1.61,5.65,6.45,4.84,10.48Z"/><path d="m108.88,252.42l-30.65,95.16s7.26,14.52,16.94.81c0,0,16.94-48.39,47.58-15.32,5.65,8.06,12.9,4.03,14.52.81l-25.81-81.45c-2.42-5.65-7.26-8.06-12.1-8.06s-8.06,2.42-10.48,8.06Z"/><path d="m393.55,292.75c-4.03,0-9.68,1.61-12.9,7.26l-32.26,70.16c1.61,0,6.45.81,8.87-4.03,4.03-8.06,14.52-12.1,23.39-11.29,20.97,2.42,24.19,26.61,24.19,26.61,2.42,5.65,11.29,10.48,16.13,0l4.84-12.9-22.58-67.74c-1.61-6.45-8.06-8.06-9.68-8.06Z"/><path d="m226.61,239.51s14.52-48.39,48.39-15.32c11.29,12.9,18.55-5.65,18.55-5.65l-37.9-68.55c-1.61-3.23-4.84-3.23-5.65-3.23s-4.03,0-5.65,4.03l-38.71,79.84s8.87,27.42,20.97,8.87Z"/></svg>