<?xml version="1.0" encoding="UTF-8"?><svg id="b" xmlns="http://www.w3.org/2000/svg" viewBox="0 0 500 500.69"><path d="m249.66,0C181.07,0,120.72,25.38,74.08,72.7,26.06,121.4,0,184.5,0,250.34s25.37,128.26,73.39,176.27c48.02,48.02,110.42,74.08,176.27,74.08s129.63-26.06,179.01-74.76c46.64-45.95,71.33-107,71.33-175.59s-24.69-129.62-72.02-176.95C379.98,25.37,318.25,0,249.66,0Zm.68,45.27c56.25,0,106.32,21.26,145.41,60.36,38.41,38.4,58.98,89.16,58.98,144.71s-19.89,105.63-58.29,143.35c-40.47,39.78-92.59,61.04-146.09,61.04s-104.93-21.26-144.03-60.36c-39.1-39.1-61.04-90.53-61.04-144.03s21.95-105.61,61.04-145.41c38.41-39.09,87.79-59.67,144.03-59.67Z"/><path d="m360.17,279.29c0-11.73-9.38-21.11-21.11-21.11-7.37,0-14.07,4.02-17.75,10.05v-.67c0-11.73-9.38-21.11-21.11-21.11-7.37,0-14.07,4.02-17.75,9.71v-.67c0-11.73-9.38-21.11-21.11-21.11-7.37,0-14.07,4.02-17.75,9.71v-70.01c0-5.69-2.34-11.05-6.03-15.07-4.02-4.02-9.38-6.03-14.74-6.03-11.73,0-21.11,9.38-21.11,21.11v129.98c0,1.34-.67,2.35-1.68,2.68-1,.33-2.35.33-3.01-.67l-21.44-21.11c-7.37-7.04-18.43-8.37-27.13-2.68-5.02,3.35-8.37,8.71-9.05,14.74-1,6.03,1,12.06,4.69,16.75l53.26,64.32c15.07,18.09,37.18,28.81,60.97,28.81h33.17c18.43,0,35.85-7.37,48.91-20.43,13.06-13.06,20.43-30.49,20.43-48.91l-.67-58.29Z"/><path d="m158.84,174.1c0-35.15,28.5-63.65,63.65-63.65s63.65,28.5,63.65,63.65" fill="none" stroke="#000" stroke-linecap="round" stroke-miterlimit="10" stroke-width="40"/></svg>