<?xml version="1.0" encoding="UTF-8"?><svg id="b" xmlns="http://www.w3.org/2000/svg" viewBox="0 0 500 500"><path d="m250,314.52c84.68,0,153.23-68.55,153.23-153.23V16.13c0-4.03-4.03-8.06-8.06-8.06H104.84c-4.03,0-8.06,4.03-8.06,8.06v145.16c0,84.68,68.55,153.23,153.23,153.23Zm104.84-92.74c8.06-14.52,12.9-29.84,15.32-45.97.81-4.03,4.84-7.26,8.87-6.45s7.26,4.84,7.26,8.87c-2.42,17.74-8.06,35.48-16.94,50.81-1.61,2.42-5.65,5.65-11.29,3.23-4.03-1.61-4.84-6.45-3.23-10.48Zm-172.58-116.13c2.42-4.03,3.23-8.06,2.42-11.29-2.42-8.87,0-18.55,5.65-25.81,6.45-8.06,15.32-12.1,24.19-12.1,4.03,0,8.87-2.42,12.1-5.65,5.65-6.45,13.71-10.48,23.39-10.48,16.13,0,24.19,11.29,24.19,11.29,2.42,3.23,6.45,4.84,11.29,4.84,9.68,0,17.74,4.03,23.39,11.29,5.65,7.26,8.06,16.94,5.65,25.81-.81,4.03,0,8.87,2.42,11.29,5.65,8.06,8.06,16.94,5.65,26.61-2.42,8.87-8.06,16.13-16.94,20.16-4.84,2.42-6.45,6.45-7.26,9.68-1.61,5.65-4.03,11.29-8.87,15.32v81.45c0,2.42-1.61,5.65-4.03,6.45-4.03,2.42-6.45.81-8.06,0l-27.42-13.71-28.23,14.52c-2.42,1.61-5.65.81-8.06,0-2.42-1.61-4.03-4.84-4.03-7.26v-80.65c-4.03-4.03-7.26-9.68-8.87-15.32-.81-3.23-2.42-7.26-8.06-9.68-8.06-4.03-14.52-12.1-16.13-20.97-1.61-9.68,0-18.55,5.65-25.81Zm-53.23-65.32v8.06c0,4.03-4.03,8.06-8.06,8.06s-8.06-4.03-8.06-8.06v-10.48c0-8.06,6.45-13.71,13.71-13.71h10.48c4.03,0,8.06,4.03,8.06,8.06s-4.03,8.06-8.06,8.06h-8.06Z"/><path d="m256.45,182.26c-4.03-2.42-8.06-2.42-12.1,0-4.03,2.42-12.1,4.03-18.55,2.42v59.68l20.16-10.48c2.42-.81,4.84-.81,7.26,0l20.16,10.48v-60.48c-5.65,2.42-11.29,1.61-16.94-1.61Z"/><path d="m290.32,427.42c-14.52-31.45-16.13-66.94-4.84-100.81-11.29,2.42-35.48,5.65-70.97,0,11.29,33.06,9.68,68.55-4.84,100.81h80.65Z"/><path d="m104.84,248.39c-4.03-5.65-6.45-12.1-9.68-18.55-45.97-10.48-79.03-52.42-79.03-100.81V48.38c0-4.03,4.03-8.06,8.06-8.06h56.45v-16.13H24.19C10.48,24.19,0,34.67,0,48.38v80.65c0,60.48,45.16,112.09,104.84,119.35h0Z"/><path d="m475.81,24.19h-56.45v16.13h56.45c4.03,0,8.06,4.03,8.06,8.06v80.65c0,48.39-33.06,90.32-79.03,101.61-2.42,6.45-5.65,12.1-9.68,17.74,59.68-8.06,104.84-58.87,104.84-119.35V48.39c0-13.71-10.48-24.19-24.19-24.19Z"/><path d="m200,137.1c8.06,4.03,13.71,11.29,16.13,20.16.81,4.84,4.03,8.06,8.06,10.48,4.03,1.61,8.06,1.61,12.1,0,8.87-4.03,17.74-4.03,26.61,0,4.84,2.42,9.68.81,12.1,0,4.03-1.61,7.26-5.65,8.06-9.68,2.42-9.68,8.06-16.13,16.13-20.97,4.03-1.61,6.45-4.84,8.06-9.68.81-4.03,0-8.87-2.42-12.1-5.65-6.45-8.06-16.13-5.65-25.81.81-4.03,0-8.87-2.42-12.1s-6.45-5.65-11.29-5.65c-10.48,0-18.55-4.03-24.19-11.29-2.42-2.42-6.45-4.03-11.29-4.03s-8.87,1.61-11.29,4.84c-7.26,7.26-15.32,10.48-24.19,10.48-4.03,0-8.06,2.42-11.29,5.65-2.42,3.23-4.03,8.06-2.42,12.1,2.42,8.06,0,17.74-5.65,25-3.23,4.03-4.03,8.06-3.23,12.1,1.61,4.84,4.03,8.87,8.06,10.48Zm41.94-54.03c0-4.03,4.03-8.06,8.06-8.06s8.06,4.03,8.06,8.06v64.52c0,4.03-4.03,8.06-8.06,8.06s-8.06-4.03-8.06-8.06v-64.52Z"/><path d="m491.94,475.81h-32.26c-4.84,0-8.06,3.23-8.06,8.06s3.23,8.06,8.06,8.06h32.26c4.84,0,8.06-3.23,8.06-8.06s-3.23-8.06-8.06-8.06Z"/><path d="m427.42,475.81h-41.13c-4.03-18.55-20.16-32.26-39.52-32.26h-193.55c-19.35,0-35.48,13.71-39.52,32.26h-25c-4.03,0-8.06,4.03-8.06,8.06s4.03,8.06,8.06,8.06h338.71c4.03,0,8.06-4.03,8.06-8.06s-4.03-8.06-8.06-8.06Z"/><path d="m56.45,475.81H8.06c-4.84,0-8.06,3.23-8.06,8.06s3.23,8.06,8.06,8.06h48.39c4.84,0,8.06-3.23,8.06-8.06s-3.23-8.06-8.06-8.06Z"/></svg>