<?xml version="1.0" encoding="UTF-8"?><svg id="a" xmlns="http://www.w3.org/2000/svg" viewBox="0 0 500 500"><path d="m241.22,413.65v-133.46h-17.55v.09c0,21.94-18.43,40.36-40.36,40.36,0,0-12.28,2.63-12.28-8.77,0-10.53,12.28-8.77,12.28-8.77,13.16,0,22.81-9.65,22.81-22.81v-77.22c0-13.16-9.65-22.81-22.81-22.81,0,0-12.28,3.51-12.28-8.77,0-10.53,12.28-8.77,12.28-8.77,21.94,0,40.36,14.96,40.36,36.89h17.55v-111.48c0-17.55-13.16-30.71-31.59-32.47h-26.32c-15.79,0-28.96,12.28-29.83,27.2,0,4.39-4.39,7.9-8.77,7.9h-12.28c-17.55,0-30.71,13.16-30.71,30.71v27.2c0,7.02,3.51,11.41,4.39,16.67,4.39,15.79-9.65,14.04-9.65,14.04-17.55,0-30.71,13.16-30.71,30.71v27.2c0,8.77,5.26,17.55,11.41,23.69,7.02,7.02,1.75,12.28,0,14.04-7.02,5.26-11.41,14.92-11.41,23.69v27.2c0,15.79,12.28,28.96,27.2,29.83,4.39,0,7.9,4.39,7.9,8.77v13.16c0,16.67,13.16,30.71,29.83,31.59h14.04c4.39,0,8.77,3.51,8.77,7.9,1.75,14.92,14.92,27.2,29.83,27.2h27.2c17.55,0,30.71-13.16,30.71-30.71h0Zm-61.42-321.14h14.92c15.79,0,28.96,13.16,28.96,28.96v14.92c0,4.39-4.39,8.77-8.77,8.77s-8.77-4.39-8.77-8.77v-14.92c0-5.26-4.39-11.41-11.41-11.41h-14.92c-4.39,0-8.77-4.39-8.77-8.77s4.39-8.77,8.77-8.77Zm-43.87,64.93c0-15.79,14.04-29.83,29.83-29.83h14.04c4.39,0,8.77,4.39,8.77,8.77s-4.39,8.77-8.77,8.77h-14.04c-7.02,0-12.28,6.14-12.28,12.28v28.08c0,7.02,6.14,12.28,12.28,12.28h14.04c4.39,0,8.77,4.39,8.77,8.77s-4.39,8.77-8.77,8.77h-14.04c-15.79,0-29.83-14.04-29.83-29.83v-28.08Zm-17.55,93.01v8.77c0,4.39-4.39,8.77-8.77,8.77s-8.77-4.39-8.77-8.77v-35.1c0-4.39,4.39-8.77,8.77-8.77s8.77,4.39,8.77,8.77v8.77h26.32c4.39,0,8.77,4.39,8.77,8.77s-4.39,8.77-8.77,8.77h-26.32Zm17.55,75.46v-28.08c0-15.79,14.04-29.83,29.83-29.83h14.04c4.39,0,8.77,4.39,8.77,8.77s-4.39,8.77-8.77,8.77h-14.04c-7.02,0-12.28,6.14-12.28,12.28v28.08c0,7.02,6.14,12.28,12.28,12.28h14.04c4.39,0,8.77,4.39,8.77,8.77s-4.39,8.77-8.77,8.77h-14.04c-15.79,0-29.83-14.04-29.83-29.83Zm58.79,100.03h-14.92c-4.39,0-8.77-4.39-8.77-8.77s4.39-8.77,8.77-8.77h14.92c5.26,0,11.41-4.39,11.41-11.41v-14.92c0-4.39,4.39-8.77,8.77-8.77s8.77,4.39,8.77,8.77v14.92c0,15.79-13.16,28.96-28.96,28.96Z"/><path d="m289.49,443.48h27.2c15.79,0,28.96-12.28,29.83-27.2,0-4.39,4.39-7.9,8.77-7.9h14.04c16.67-.88,29.83-14.92,29.83-31.59v-12.28c0-4.39,3.51-8.77,7.9-8.77,14.92-1.75,27.2-14.92,27.2-29.83v-27.2c0-8.77-4.39-18.43-11.41-23.69-1.75-1.75-7.02-7.02,0-14.04,6.14-6.14,11.41-14.92,11.41-23.69v-27.2c0-17.55-13.16-30.71-30.71-30.71,0,0-14.04,2.63-9.65-14.04,1.75-5.26,4.39-9.65,4.39-16.67v-27.2c0-17.55-13.16-30.71-30.71-30.71h-12.28c-4.39,0-8.77-3.51-8.77-7.9-1.75-14.92-14.92-27.2-29.83-27.2h-26.32c-17.55,1.75-31.59,15.79-31.59,32.47v111.48h17.55c0-21.94,18.43-36.89,40.36-36.89,0,0,12.28-1.75,12.28,8.77,0,12.28-12.28,8.77-12.28,8.77-13.16,0-22.81,9.65-22.81,22.81v77.22c0,13.16,9.65,22.81,22.81,22.81,0,0,12.28-1.75,12.28,8.77,0,11.41-12.28,8.77-12.28,8.77-21.94,0-40.36-18.43-40.36-40.36v-.09h-17.55v133.46c0,16.67,13.16,29.83,30.71,29.83h0Zm39.49-342.2c0,4.39-4.39,8.77-8.77,8.77h-14.92c-7.02,0-11.41,6.14-11.41,11.41v14.92c0,4.39-4.39,8.77-8.77,8.77s-8.77-4.39-8.77-8.77v-14.92c0-15.79,13.16-28.96,28.96-28.96h14.92c4.39,0,8.77,3.51,8.77,8.77Zm35.1,83.36c0,15.79-14.04,29.83-29.83,29.83h-14.04c-4.39,0-8.77-4.39-8.77-8.77s4.39-8.77,8.77-8.77h14.04c7.02,0,12.28-6.14,12.28-12.28v-28.08c0-7.02-6.14-12.28-12.28-12.28h-14.04c-4.39,0-8.77-4.39-8.77-8.77s4.39-8.77,8.77-8.77h14.04c15.79,0,29.83,14.04,29.83,29.83v28.08Zm-8.77,65.81c-4.39,0-8.77-4.39-8.77-8.77s4.39-8.77,8.77-8.77h26.32v-8.77c0-4.39,4.39-8.77,8.77-8.77s8.77,4.39,8.77,8.77v35.1c0,4.39-4.39,8.77-8.77,8.77s-8.77-4.39-8.77-8.77v-8.77h-26.32Zm-21.06,105.29h-14.04c-4.39,0-8.77-4.39-8.77-8.77s4.39-8.77,8.77-8.77h14.04c7.02,0,12.28-6.14,12.28-12.28v-28.08c0-7.02-6.14-12.28-12.28-12.28h-14.04c-4.39,0-8.77-4.39-8.77-8.77s4.39-8.77,8.77-8.77h14.04c15.79,0,29.83,14.04,29.83,29.83v28.08c0,15.79-14.04,29.83-29.83,29.83Zm-57.91,41.24v-14.92c0-4.39,4.39-8.77,8.77-8.77s8.77,4.39,8.77,8.77v14.92c0,7.02,6.14,11.41,11.41,11.41h14.92c4.39,0,8.77,4.39,8.77,8.77s-4.39,8.77-8.77,8.77h-14.92c-15.79,0-28.96-14.04-28.96-28.96Z"/><path d="m259.41,233.37v12.82h-18.82v-12.82h18.82m13.7-17h-46.22c-1.82,0-3.3,1.48-3.3,3.3v40.22c0,1.82,1.48,3.3,3.3,3.3h46.22c1.82,0,3.3-1.48,3.3-3.3v-40.22c0-1.82-1.48-3.3-3.3-3.3h0Z"/><path d="m250,33.37c5,0,8.33-3.34,8.33-8.34V8.34C258.33,3.34,255,0,250,0s-8.33,3.34-8.33,8.34v16.68c0,5,3.33,8.34,8.33,8.34Z"/><path d="m491.94,241.4h-32.26c-4.84,0-8.06,3.23-8.06,8.07s3.23,8.07,8.06,8.07h32.26c4.84,0,8.06-3.23,8.06-8.07s-3.23-8.07-8.06-8.07Z"/><path d="m40.32,241.4H8.06c-4.84,0-8.06,3.23-8.06,8.07s3.23,8.07,8.06,8.07h32.26c4.84,0,8.06-3.23,8.06-8.07s-3.23-8.07-8.06-8.07Z"/><path d="m72.5,85.91l-16.67-16.68c-3.33-3.34-8.33-3.34-11.67,0-3.33,3.34-3.33,8.34,0,11.68l16.67,16.68c1.67,1.67,6.67,3.34,11.67,0,3.33-2.5,3.33-8.34,0-11.68Z"/><path d="m455.83,69.23c-3.33-3.34-8.33-3.34-11.67,0l-16.67,16.68c-3.33,3.34-3.33,9.18,0,11.68,4.17,4.17,10,1.67,11.67,0l16.67-16.68c3.33-3.34,3.33-8.34,0-11.68Z"/><path d="m250,466.63c-5,0-8.33,3.34-8.33,8.34v16.68c0,5,3.33,8.34,8.33,8.34s8.33-3.34,8.33-8.34v-16.68c0-5-3.33-8.34-8.33-8.34Z"/><path d="m8.06,257.55h32.26c4.84,0,8.06-3.23,8.06-8.07s-3.23-8.07-8.06-8.07H8.06c-4.84,0-8.06,3.23-8.06,8.07s3.23,8.07,8.06,8.07Z"/><path d="m459.68,257.55h32.26c4.84,0,8.06-3.23,8.06-8.07s-3.23-8.07-8.06-8.07h-32.26c-4.84,0-8.06,3.23-8.06,8.07s3.23,8.07,8.06,8.07Z"/><path d="m427.5,413.04l16.67,16.68c3.33,3.34,8.33,3.34,11.67,0,3.33-3.34,3.33-8.34,0-11.68l-16.67-16.68c-1.67-1.67-6.67-3.34-11.67,0-3.33,2.5-3.33,8.34,0,11.68Z"/><path d="m44.17,429.72c3.33,3.34,8.33,3.34,11.67,0l16.67-16.68c3.33-3.34,3.33-9.18,0-11.68-4.17-4.17-10-1.67-11.67,0l-16.67,16.68c-3.33,3.34-3.33,8.34,0,11.68Z"/></svg>