<?xml version="1.0" encoding="UTF-8"?><svg id="a" xmlns="http://www.w3.org/2000/svg" viewBox="0 0 500 500"><path d="m487.45,426.18l-170.45-170.45c-3.44-3.44-3.44-8.61,0-12.05l169.6-170.45c25.83-26.69,7.75-52.51,0-60.26,0,0-25.83-27.55-60.26-.86l-170.45,170.45c-3.44,3.44-8.61,3.44-12.05,0L72.52,12.09c-22.38-22.38-51.65-6.89-58.54,0C-2.38,29.31-2.38,56.86,13.98,73.22l169.6,170.45c1.72,1.72,5.17,7.75,0,12.05L12.27,425.32c-16.36,17.22-16.36,44.77,0,61.12,17.22,16.36,44.77,16.36,61.12,0l170.45-169.6c3.44-3.44,8.61-3.44,12.05,0l170.45,170.45c17.22,16.36,44.77,16.36,61.12,0,16.36-17.22,16.36-44.77,0-61.12h-.02ZM73.37,49.11c-3.44,3.44-8.61,3.44-12.05,0l-12.91-12.91c-2.58-2.58-7.75-2.58-10.33,0-3.44,3.44-8.61,3.44-12.05,0s-3.44-8.61,0-12.05c9.47-9.47,24.97-9.47,34.44,0l12.91,12.91c3.44,3.44,3.44,8.61,0,12.05Zm37.02,36.16c-3.44,3.44-8.61,3.44-12.05,0l-12.05-12.05c-3.44-3.44-3.44-8.61,0-12.05s8.61-3.44,12.05,0l12.05,12.05c3.44,3.44,3.44,8.61,0,12.05Zm157.54,206.61c-3.44,3.44-8.61,3.44-12.05,0l-6.03-6.03-18.08,18.94c-3.44,3.44-8.61,3.44-12.05,0s-3.44-8.61,0-12.05l24.1-24.97c3.44-3.44,9.47-3.44,12.91,0l12.05,12.05c2.58,3.44,2.58,8.61-.86,12.05Z"/></svg>