<?xml version="1.0" encoding="UTF-8"?><svg id="b" xmlns="http://www.w3.org/2000/svg" viewBox="0 0 500 500"><circle cx="249.99" cy="174.82" r="100.05"/><path d="m462.81,118.81c-30.63-49.68-77.67-87.08-132.97-105.72C303.92,4.36,276.95,0,250.01,0c-30.56,0-61.08,5.6-90.01,16.77-54.45,21.01-99.83,60.41-128.28,111.37C3.26,179.1-6.46,238.41,4.23,295.78c10.69,57.38,41.11,109.21,86,146.5,44.89,37.3,101.42,57.72,159.78,57.72,7.81,0,15.57-.36,23.27-1.07h0c53.86-4.89,104.64-27.26,144.62-63.68l.04-.05c43.24-39.2,71.39-92.3,79.59-150.08,8.19-57.78-4.08-116.62-34.71-166.3Zm-7.74,160.28c-5.21,36.71-20.25,71.27-43.15,100.02-9.62-12.44-20.63-23.73-32.85-33.63-36.67-29.45-82.27-45.53-129.3-45.59-31.53,0-62.63,7.27-90.88,21.27-27.69,13.72-51.89,33.54-70.82,57.93-21-26.37-35.45-57.68-41.68-91.16-8.83-47.43-.75-96.76,22.77-138.89,23.52-42.13,61.26-74.9,106.28-92.27,23.88-9.22,48.97-13.89,74.57-13.89,22.53,0,44.78,3.65,66.14,10.84,45.72,15.41,84.85,46.52,110.17,87.59,25.32,41.07,35.53,90,28.76,137.78Z"/></svg>