<?xml version="1.0" encoding="UTF-8"?><svg id="b" xmlns="http://www.w3.org/2000/svg" viewBox="0 0 500 500"><path d="m334.65,245.48h-38.72c-2.99,0-5.97-2.99-5.97-5.97v-112.85c0-5.97-5.37-10.75-11.34-10.75h-58.08c-5.37,0-10.75,5.37-10.75,10.75v112.85c0,2.99-2.99,5.97-5.97,5.97h-38.73c-2.99,0-3.58,4.18-2.39,5.97l74.64,86.58c2.99,2.99,7.76,4.78,13.14,4.78s10.15-1.79,13.14-5.37l73.44-85.98c1.79-1.79.6-5.97-2.39-5.97Z"/><path d="m462.81,118.81c-30.63-49.68-77.67-87.08-132.97-105.72C303.92,4.36,276.95,0,250.01,0c-30.56,0-61.08,5.6-90.01,16.77-54.45,21.01-99.83,60.41-128.28,111.37C3.26,179.1-6.46,238.41,4.23,295.78c10.69,57.38,41.11,109.21,86,146.5,44.89,37.3,101.42,57.72,159.78,57.72,7.81,0,15.57-.36,23.27-1.07h0c53.86-4.89,104.64-27.26,144.62-63.68l.04-.05c43.24-39.2,71.39-92.3,79.59-150.08s-4.08-116.62-34.71-166.3Zm-7.74,160.28c-6.78,47.77-30.19,91.93-65.93,124.34l-2.03,1.84c-2.32,2.06-4.69,4.07-7.1,6.02v-47.89c0-3.31-2.69-6-6-6h-33c-3.31,0-6,2.69-6,6v22.72c0,3.31-2.69,6-6,6h-158c-3.31,0-6-2.69-6-6v-22.72c0-3.31-2.69-6-6-6h-33c-3.31,0-6,2.69-6,6v47.83c-.79-.64-1.59-1.27-2.37-1.92-37.11-30.83-62.41-73.93-71.25-121.37-8.83-47.43-.75-96.76,22.77-138.89,23.52-42.13,61.26-74.9,106.28-92.27,23.88-9.22,48.97-13.89,74.57-13.89,22.53,0,44.78,3.65,66.14,10.84,45.72,15.41,84.85,46.52,110.17,87.59,25.32,41.07,35.53,90,28.76,137.78Z"/></svg>