<?xml version="1.0" encoding="UTF-8"?><svg id="a" xmlns="http://www.w3.org/2000/svg" viewBox="0 0 500 500"><path d="m250,40c56.09,0,108.83,21.84,148.49,61.51,39.66,39.66,61.51,92.4,61.51,148.49s-21.84,108.83-61.51,148.49-92.4,61.51-148.49,61.51-108.83-21.84-148.49-61.51c-39.66-39.66-61.51-92.4-61.51-148.49s21.84-108.83,61.51-148.49c39.66-39.66,92.4-61.51,148.49-61.51m0-40C111.93,0,0,111.93,0,250s111.93,250,250,250,250-111.93,250-250S388.07,0,250,0h0Z"/><path d="m423.89,263.28l-73.32-67.27c-1.58-1.45-4.12-.41-4.24,1.73l-1.07,19.7c-.08,1.4-1.27,2.47-2.67,2.39l-70.43-3.83v-34.54l45.6-2.22c1.4-.07,2.47-1.26,2.41-2.65l-3.73-76.42c-.07-1.4-1.26-2.47-2.65-2.41l-41.62,2.03v-22.13h-29.33v23.56l-71.37,3.48c-1.4.07-2.58-1.01-2.65-2.41l-.97-19.99c-.1-2.14-2.65-3.19-4.23-1.75l-73.69,66.86c-1.18,1.07-1.09,2.96.19,3.91l79.85,59.37c1.72,1.28,4.14-.02,4.04-2.16l-.96-19.7c-.07-1.4,1.01-2.58,2.41-2.65l67.4-3.29v31.52l-42.53-2.31c-1.4-.08-2.59.99-2.67,2.39l-4.15,76.4c-.08,1.4.99,2.59,2.39,2.67l46.95,2.55v100.95h-3.92c-3.53,0-6.57,2.5-7.26,5.96l-6.21,31.38h-26.45c-3.31,0-6.22,1.54-7.12,3.77l-4.93,12.23c20.14,6.31,41.35,9.6,63.06,9.6,26.07,0,51.42-4.73,75.06-13.76l-3.25-8.07c-.9-2.23-3.81-3.77-7.12-3.77h-23.96l-6.21-31.38c-.69-3.47-3.73-5.96-7.26-5.96h-5.09v-99.35l66,3.59c1.4.08,2.47,1.27,2.39,2.67l-1.09,19.98c-.12,2.14,2.3,3.44,4.03,2.18l80.18-58.93c1.29-.94,1.39-2.83.21-3.91Zm-266.96-93.89c-1.4.07-2.47,1.26-2.41,2.65.1,2.14-2.32,3.43-4.04,2.16l-32.6-24.24c-1.28-.95-1.37-2.84-.19-3.91l30.08-27.29c1.58-1.44,4.13-.38,4.23,1.75v.29c.08,1.4,1.27,2.47,2.67,2.41l142.33-6.94c1.4-.07,2.58,1.01,2.65,2.41l2.01,41.13c.07,1.4-1.01,2.58-2.41,2.65l-142.33,6.94Zm238.97,96.28l-32.73,24.06c-1.72,1.27-4.14-.04-4.03-2.18l.02-.29c.08-1.4-.99-2.59-2.39-2.67l-142.29-7.73c-1.4-.08-2.47-1.27-2.39-2.67l2.23-41.12c.08-1.4,1.27-2.47,2.67-2.39l142.29,7.73c1.4.08,2.59-.99,2.67-2.39.12-2.14,2.66-3.17,4.24-1.73l29.93,27.46c1.18,1.08,1.07,2.96-.21,3.91Z"/></svg>