<?xml version="1.0" encoding="UTF-8"?><svg id="a" xmlns="http://www.w3.org/2000/svg" viewBox="0 0 500 500"><path d="m178.39,355.75c-1.46,2.12-3.74,3.33-6.12,3.5l-28.52,19.57v84.94l93.75-64.34v-84.94l-58.46,40.12c-.18.39-.39.77-.64,1.14Zm45.91,21.62l8.41,5.77c3.71,2.55,4.66,7.62,2.11,11.34-1.58,2.3-4.13,3.54-6.73,3.54-1.59,0-3.2-.46-4.61-1.43l-8.41-5.77c-3.71-2.55-4.66-7.62-2.11-11.34,2.55-3.71,7.63-4.66,11.34-2.11Zm-43.35-19.86c2.55-3.71,7.63-4.66,11.34-2.11l16.01,10.98c3.71,2.55,4.66,7.63,2.11,11.34-1.58,2.3-4.13,3.54-6.73,3.54-1.59,0-3.2-.46-4.61-1.43l-16.01-10.98c-3.71-2.55-4.66-7.63-2.11-11.34Z" fill="none"/><path d="m356.25,117.73l-57.97,39.78c-.23.86-.61,1.7-1.14,2.48-1.58,2.3-4.13,3.54-6.73,3.54-.27,0-.54-.03-.81-.06l-27.1,18.6v84.94l93.75-64.34v-84.93Zm-33.83,67.77c-1.59,0-3.2-.46-4.61-1.43l-16.01-10.98c-3.71-2.55-4.66-7.62-2.11-11.34,2.55-3.71,7.62-4.66,11.34-2.11l16.01,10.98c3.71,2.55,4.66,7.62,2.11,11.34-1.58,2.3-4.13,3.54-6.73,3.54Zm31.14,13.21c-1.58,2.3-4.13,3.54-6.73,3.54-1.59,0-3.2-.46-4.61-1.43l-8.4-5.77c-3.71-2.55-4.66-7.63-2.11-11.34,2.55-3.71,7.63-4.66,11.34-2.11l8.4,5.77c3.71,2.55,4.66,7.63,2.11,11.34Z" fill="none"/><path d="m267.69,139.78c2.55-3.71,7.62-4.66,11.34-2.11l2,1.37,65.64-45.05-88.52-60.75c0,.14.02.27.02.41v10.19c0,4.5-3.65,8.16-8.16,8.16s-8.16-3.65-8.16-8.16v-10.19c0-.14.01-.27.02-.41l-88.52,60.75,65.64,45.05,2-1.37c3.71-2.55,8.79-1.61,11.34,2.11,1.83,2.66,1.85,6.02.35,8.65l17.34,11.9,17.34-11.9c-1.5-2.63-1.48-5.99.35-8.65Zm-25.84-71.4c0-4.5,3.65-8.16,8.16-8.16s8.16,3.65,8.16,8.16v24.53c0,4.5-3.65,8.16-8.16,8.16s-8.16-3.65-8.16-8.16v-24.53Zm16.55,73.19c-1.59,0-3.2-.46-4.61-1.43l-3.79-2.6-3.79,2.6c-1.41.97-3.02,1.43-4.61,1.43-2.6,0-5.15-1.24-6.73-3.54-2.55-3.71-1.6-8.79,2.11-11.34l4.87-3.34v-5.9c0-4.5,3.65-8.16,8.16-8.16s8.16,3.65,8.16,8.16v5.9l4.86,3.34c3.71,2.55,4.66,7.63,2.11,11.34-1.58,2.3-4.13,3.54-6.73,3.54Z" fill="none"/><path d="m148.94,335.53c2.55-3.71,7.63-4.65,11.34-2.11l2.73,1.87,64.91-44.54-88.5-60.74v9.59c0,4.5-3.65,8.16-8.16,8.16s-8.16-3.65-8.16-8.16v-9.59l-88.51,60.74,64.91,44.55,2.73-1.87c3.71-2.55,8.79-1.61,11.34,2.11,1.99,2.91,1.84,6.64-.09,9.35l17.78,12.2,17.78-12.2c-1.94-2.71-2.09-6.44-.09-9.35Zm-25.84-71.4c0-4.5,3.65-8.16,8.16-8.16s8.16,3.65,8.16,8.16v24.54c0,4.5-3.65,8.16-8.16,8.16s-8.16-3.65-8.16-8.16v-24.54Zm16.55,73.19c-1.59,0-3.2-.46-4.61-1.43l-3.79-2.6-3.79,2.6c-1.41.97-3.02,1.43-4.61,1.43-2.6,0-5.15-1.24-6.73-3.54-2.55-3.72-1.6-8.79,2.11-11.34l4.86-3.34v-5.9c0-4.5,3.65-8.16,8.16-8.16s8.16,3.65,8.16,8.16v5.9l4.86,3.34c3.71,2.55,4.66,7.62,2.11,11.34-1.58,2.3-4.13,3.54-6.73,3.54Z" fill="none"/><path d="m58.81,415l-24.82-17.01-3.26-2.24v-29.85c0-4.69-3.81-8.5-8.5-8.5s-8.5,3.81-8.5,8.5v34.33c0,2.8,1.38,5.43,3.69,7.01l3.15,2.16,28.63,19.62c1.47,1.01,3.14,1.49,4.8,1.49,2.71,0,5.37-1.29,7.02-3.7,2.65-3.87,1.67-9.16-2.21-11.82Z" fill="none"/><path d="m415.89,356.75c-1.58,2.3-4.13,3.54-6.73,3.54-.27,0-.54-.03-.81-.06l-27.1,18.6v84.94l93.75-64.34v-84.94l-57.97,39.78c-.23.86-.61,1.7-1.14,2.48Zm45.91,21.62l8.4,5.77c3.71,2.55,4.66,7.63,2.11,11.34-1.58,2.3-4.13,3.54-6.73,3.54-1.59,0-3.2-.46-4.61-1.43l-8.4-5.77c-3.71-2.55-4.66-7.63-2.11-11.34,2.55-3.71,7.62-4.66,11.34-2.11Zm-32.01-21.97l16.01,10.98c3.71,2.55,4.66,7.63,2.11,11.34-1.58,2.3-4.13,3.54-6.73,3.54-1.59,0-3.2-.46-4.61-1.43l-16.01-10.98c-3.71-2.55-4.66-7.63-2.11-11.34,2.55-3.71,7.62-4.66,11.34-2.11Z" fill="none"/><path d="m386.44,336.53c2.55-3.71,7.62-4.66,11.34-2.11l2,1.37,65.64-45.05-88.53-60.75c0,.14.02.27.02.41v10.19c0,4.5-3.65,8.16-8.16,8.16s-8.16-3.65-8.16-8.16v-10.19c0-.14.01-.27.02-.41l-88.53,60.75,65.64,45.05,2-1.37c3.72-2.55,8.79-1.6,11.34,2.11,1.83,2.66,1.85,6.03.35,8.66l17.34,11.9,17.34-11.9c-1.5-2.63-1.48-5.99.35-8.66Zm-25.84-71.4c0-4.5,3.65-8.16,8.16-8.16s8.16,3.65,8.16,8.16v24.54c0,4.5-3.65,8.16-8.16,8.16s-8.16-3.65-8.16-8.16v-24.54Zm16.55,73.19c-1.59,0-3.2-.46-4.61-1.43l-3.79-2.6-3.79,2.6c-1.41.97-3.02,1.43-4.61,1.43-2.6,0-5.15-1.24-6.73-3.54-2.55-3.71-1.6-8.79,2.11-11.34l4.86-3.34v-5.9c0-4.5,3.65-8.16,8.16-8.16s8.16,3.65,8.16,8.16v5.9l4.86,3.34c3.71,2.55,4.66,7.63,2.11,11.34-1.58,2.3-4.13,3.54-6.73,3.54Z" fill="none"/><path d="m368.75,297.82c4.5,0,8.16-3.65,8.16-8.16v-24.54c0-4.5-3.65-8.16-8.16-8.16s-8.16,3.65-8.16,8.16v24.54c0,4.5,3.65,8.16,8.16,8.16Z"/><path d="m381.77,323.44l-4.86-3.34v-5.9c0-4.5-3.65-8.16-8.16-8.16s-8.16,3.65-8.16,8.16v5.9l-4.86,3.34c-3.71,2.55-4.66,7.63-2.11,11.34,1.58,2.3,4.13,3.54,6.73,3.54,1.59,0,3.2-.46,4.61-1.43l3.79-2.6,3.79,2.6c1.41.97,3.02,1.43,4.61,1.43,2.6,0,5.15-1.24,6.73-3.54,2.55-3.71,1.6-8.79-2.11-11.34Z"/><path d="m420.56,369.84l16.01,10.98c1.41.97,3.02,1.43,4.61,1.43,2.6,0,5.15-1.24,6.73-3.54,2.55-3.71,1.6-8.79-2.11-11.34l-16.01-10.98c-3.72-2.55-8.79-1.6-11.34,2.11-2.55,3.71-1.6,8.79,2.11,11.34Z"/><path d="m452.57,391.81l8.4,5.77c1.41.97,3.02,1.43,4.61,1.43,2.6,0,5.15-1.24,6.73-3.54,2.55-3.71,1.6-8.79-2.11-11.34l-8.4-5.77c-3.72-2.55-8.79-1.6-11.34,2.11-2.55,3.71-1.6,8.79,2.11,11.34Z"/><path d="m250,101.07c4.5,0,8.16-3.65,8.16-8.16v-24.53c0-4.5-3.65-8.16-8.16-8.16s-8.16,3.65-8.16,8.16v24.53c0,4.5,3.65,8.16,8.16,8.16Z"/><path d="m263.02,126.69l-4.86-3.34v-5.9c0-4.5-3.65-8.16-8.16-8.16s-8.16,3.65-8.16,8.16v5.9l-4.87,3.34c-3.71,2.55-4.66,7.63-2.11,11.34,1.58,2.3,4.13,3.54,6.73,3.54,1.59,0,3.2-.46,4.61-1.43l3.79-2.6,3.79,2.6c1.41.97,3.02,1.43,4.61,1.43,2.6,0,5.15-1.24,6.73-3.54,2.55-3.71,1.6-8.79-2.11-11.34Z"/><path d="m327.05,170.63l-16.01-10.98c-3.72-2.55-8.79-1.6-11.34,2.11-2.55,3.71-1.6,8.79,2.11,11.34l16.01,10.98c1.41.97,3.02,1.43,4.61,1.43,2.6,0,5.15-1.24,6.73-3.54,2.55-3.71,1.6-8.79-2.11-11.34Z"/><path d="m351.46,187.38l-8.4-5.77c-3.71-2.55-8.79-1.6-11.34,2.11-2.55,3.71-1.6,8.79,2.11,11.34l8.4,5.77c1.41.97,3.02,1.43,4.61,1.43,2.6,0,5.15-1.24,6.73-3.54,2.55-3.71,1.6-8.79-2.11-11.34Z"/><path d="m131.25,296.82c4.5,0,8.16-3.65,8.16-8.16v-24.54c0-4.5-3.65-8.16-8.16-8.16s-8.16,3.65-8.16,8.16v24.54c0,4.5,3.65,8.16,8.16,8.16Z"/><path d="m144.27,322.44l-4.86-3.34v-5.9c0-4.5-3.65-8.16-8.16-8.16s-8.16,3.65-8.16,8.16v5.9l-4.86,3.34c-3.71,2.55-4.66,7.62-2.11,11.34,1.58,2.3,4.13,3.54,6.73,3.54,1.59,0,3.2-.46,4.61-1.43l3.79-2.6,3.79,2.6c1.41.97,3.02,1.43,4.61,1.43,2.6,0,5.15-1.24,6.73-3.54,2.55-3.72,1.6-8.79-2.11-11.34Z"/><path d="m183.06,368.84l16.01,10.98c1.41.97,3.02,1.43,4.61,1.43,2.6,0,5.15-1.24,6.73-3.54,2.55-3.71,1.6-8.79-2.11-11.34l-16.01-10.98c-3.71-2.55-8.79-1.6-11.34,2.11-2.55,3.71-1.6,8.79,2.11,11.34Z"/><path d="m215.08,390.81l8.41,5.77c1.41.97,3.02,1.43,4.61,1.43,2.6,0,5.15-1.24,6.73-3.54,2.55-3.72,1.6-8.79-2.11-11.34l-8.41-5.77c-3.71-2.55-8.79-1.6-11.34,2.11-2.55,3.72-1.6,8.79,2.11,11.34Z"/><path d="m500,290.75c0-.22-.02-.44-.03-.66,0-.17-.01-.35-.03-.52-.02-.25-.06-.5-.1-.75-.02-.14-.04-.29-.07-.43-.05-.25-.11-.49-.17-.74-.04-.15-.07-.3-.11-.44-.06-.22-.14-.43-.22-.64-.06-.18-.12-.36-.19-.53-.07-.17-.15-.34-.23-.5-.1-.22-.2-.43-.31-.65-.07-.13-.14-.25-.22-.38-.14-.24-.28-.48-.44-.72-.03-.04-.04-.08-.07-.11-.05-.08-.11-.14-.17-.22-.16-.22-.32-.44-.5-.66-.11-.13-.23-.26-.34-.39-.15-.17-.3-.33-.46-.49-.16-.16-.33-.32-.5-.47-.13-.11-.25-.23-.39-.34-.21-.18-.44-.34-.66-.5-.07-.05-.14-.11-.22-.17l-113.32-77.77v-108.55s0-.04,0-.05v-.07s0-.02,0-.03c0-.21-.02-.41-.03-.62,0-.18-.01-.35-.03-.53-.02-.24-.06-.48-.1-.73-.02-.15-.04-.3-.07-.46-.05-.24-.11-.47-.17-.71-.04-.16-.07-.32-.12-.47-.02-.05-.02-.1-.04-.15-.05-.17-.12-.34-.18-.51-.06-.17-.12-.34-.18-.5-.08-.2-.17-.38-.26-.57-.08-.18-.17-.36-.26-.54-.09-.16-.18-.32-.27-.48-.11-.2-.23-.39-.35-.58-.04-.06-.07-.11-.11-.17,0,0,0-.01-.01-.02-.04-.06-.09-.12-.14-.18,0-.01-.02-.02-.03-.03-.14-.2-.28-.4-.44-.59-.04-.05-.08-.1-.13-.15-.09-.11-.18-.2-.27-.3-.13-.15-.26-.3-.41-.44-.04-.05-.09-.09-.13-.13-.14-.14-.28-.26-.42-.39-.11-.1-.21-.2-.33-.29-.05-.04-.1-.08-.15-.12-.19-.15-.38-.29-.57-.43-.08-.06-.15-.12-.23-.17l-.06-.04s-.03-.02-.04-.03L257.07,2.19s-.08-.05-.12-.08c-.22-.15-.45-.29-.69-.42-.14-.08-.27-.16-.41-.23-.2-.11-.41-.2-.62-.3-.18-.08-.35-.17-.53-.24-.17-.07-.34-.13-.51-.19-.22-.08-.43-.16-.66-.22-.15-.04-.29-.08-.44-.11-.24-.06-.49-.13-.73-.17-.15-.03-.3-.05-.46-.07-.24-.04-.48-.08-.72-.1-.19-.02-.38-.02-.57-.03-.2,0-.4-.02-.6-.02-.25,0-.49.02-.74.03-.15,0-.29.01-.44.02-.28.03-.56.07-.84.12-.11.02-.23.03-.34.05-.28.05-.56.12-.83.2-.11.03-.23.05-.34.09-.25.07-.49.16-.73.25-.15.05-.29.1-.44.16-.2.08-.39.17-.59.27-.19.09-.38.17-.56.27-.15.08-.3.17-.45.26-.22.13-.43.26-.64.4-.04.03-.09.05-.14.08l-118.75,81.5s-.05.04-.07.05c-.31.22-.61.44-.9.68-.06.05-.12.1-.17.15-.22.19-.44.39-.64.6-.08.08-.16.16-.24.24-.23.25-.46.5-.67.76-.07.09-.14.19-.21.28-.15.19-.29.39-.42.59-.08.11-.15.23-.22.34-.17.27-.33.55-.48.83-.04.08-.08.16-.12.24-.12.25-.24.51-.35.77-.04.1-.08.21-.12.32-.11.29-.21.57-.29.87-.01.05-.03.09-.04.14-.1.34-.18.69-.25,1.04-.02.09-.03.18-.05.26-.05.28-.09.56-.12.84,0,.09-.02.18-.03.27-.03.33-.04.67-.04,1v.08s0,.02,0,.03v108.56L5.43,280.44s-.04.03-.07.05c-.31.22-.62.45-.91.69-.05.04-.1.09-.15.14-.23.2-.45.41-.67.63-.07.07-.15.15-.22.22-.24.25-.47.51-.68.78-.07.08-.12.17-.19.25-.16.21-.31.42-.45.63-.07.11-.14.21-.21.32-.18.29-.35.58-.5.88-.03.06-.05.11-.08.17-.13.27-.26.54-.37.82-.04.1-.08.19-.11.29-.11.3-.22.6-.31.9-.01.04-.02.07-.03.11-.1.35-.18.7-.25,1.05-.02.08-.03.17-.04.25-.05.28-.09.57-.12.86,0,.09-.02.18-.03.27-.03.33-.04.67-.04,1.01v.09s0,.02,0,.03v115.14c0,.87.11,1.72.28,2.56.12,1.36.57,2.71,1.4,3.91.25.36.52.68.81.99.81,1.09,1.79,2.06,2.93,2.85l118.74,81.49c.08.05.16.1.24.15.3.2.61.38.93.55.1.06.21.11.31.17.38.19.77.36,1.17.52.07.03.14.05.21.07.38.14.77.26,1.17.36.05.01.11.03.16.04.43.1.87.18,1.3.23.08.01.17.02.25.03.44.05.89.08,1.34.08,0,0,0,0,0,0s0,0,0,0c.45,0,.9-.03,1.35-.08.08,0,.15-.02.23-.03.45-.06.89-.14,1.33-.24.05-.01.1-.03.16-.04.44-.11.87-.24,1.3-.4.02,0,.05-.02.07-.02.43-.16.85-.36,1.27-.57.04-.02.08-.03.12-.05.07-.04.14-.08.22-.12.12-.07.24-.13.36-.2.17-.1.33-.21.49-.31.06-.04.12-.07.18-.12l111.68-76.64,111.67,76.64c.07.05.15.1.23.14.31.2.62.38.94.56.1.06.21.11.31.16.38.19.77.37,1.17.52.07.03.14.05.21.07.39.14.78.26,1.18.36.05.01.1.03.15.04.43.1.87.18,1.31.24.08.01.16.02.25.03.44.05.89.08,1.34.08,0,0,0,0,0,0s0,0,0,0c.45,0,.9-.03,1.35-.08.07,0,.15-.02.22-.02.45-.06.89-.14,1.33-.24.05-.01.1-.03.15-.04.44-.11.88-.25,1.31-.41.02,0,.04-.01.06-.02.43-.16.86-.36,1.28-.58.04-.02.07-.03.11-.05.07-.04.13-.08.2-.11.13-.07.26-.14.38-.22.16-.09.31-.19.47-.3.07-.04.13-.08.2-.13l118.75-81.5c3.53-2.42,5.42-6.33,5.42-10.31h0v-.07s0-.04,0-.05v-115s0-.04,0-.05v-.07h0ZM61.01,426.81c-1.65,2.4-4.31,3.7-7.02,3.7-1.66,0-3.33-.48-4.8-1.49l-28.63-19.62-3.15-2.16c-2.31-1.58-3.69-4.21-3.69-7.01v-34.33c0-4.69,3.81-8.5,8.5-8.5s8.5,3.81,8.5,8.5v29.85l3.26,2.24,24.82,17.01c3.87,2.65,4.86,7.94,2.21,11.82Zm70.24-69.73l-17.78-12.2c1.94-2.71,2.09-6.44.09-9.35-2.55-3.72-7.63-4.66-11.34-2.11l-2.73,1.87-64.91-44.55,88.51-60.74v9.59c0,4.5,3.65,8.16,8.16,8.16s8.16-3.65,8.16-8.16v-9.59l88.5,60.74-64.91,44.54-2.73-1.87c-3.71-2.54-8.79-1.6-11.34,2.11-1.99,2.91-1.84,6.64.09,9.35l-17.78,12.2Zm106.25,42.34l-93.75,64.34v-84.94l28.52-19.57c2.38-.18,4.66-1.38,6.12-3.5.25-.37.46-.75.64-1.14l58.46-40.12v84.94Zm4.74-136.16c0,4.69-3.81,8.5-8.5,8.5s-8.5-3.81-8.5-8.5v-24.09c0-4.69,3.81-8.5,8.5-8.5s8.5,3.81,8.5,8.5v24.09Zm0-49.96c0,4.69-3.81,8.5-8.5,8.5s-8.5-3.81-8.5-8.5v-5.13c0-4.69,3.81-8.5,8.5-8.5s8.5,3.81,8.5,8.5v5.13Zm-9.58-64.87c1.5-2.63,1.48-5.99-.35-8.65-2.55-3.71-7.63-4.66-11.34-2.11l-2,1.37-65.64-45.05,88.52-60.75c0,.14-.02.27-.02.41v10.19c0,4.5,3.65,8.16,8.16,8.16s8.16-3.65,8.16-8.16v-10.19c0-.14-.01-.27-.02-.41l88.52,60.75-65.64,45.05-2-1.37c-3.72-2.55-8.79-1.6-11.34,2.11-1.83,2.66-1.85,6.02-.35,8.65l-17.34,11.9-17.34-11.9Zm29.84,33.64l27.1-18.6c.27.03.54.06.81.06,2.6,0,5.15-1.24,6.73-3.54.53-.78.91-1.62,1.14-2.48l57.97-39.78v84.93l-93.75,64.34v-84.94Zm106.25,175.01l-17.34-11.9c1.5-2.63,1.48-5.99-.35-8.66-2.55-3.71-7.62-4.66-11.34-2.11l-2,1.37-65.64-45.05,88.53-60.75c0,.14-.02.27-.02.41v10.19c0,4.5,3.65,8.16,8.16,8.16s8.16-3.65,8.16-8.16v-10.19c0-.14-.01-.27-.02-.41l88.53,60.75-65.64,45.05-2-1.37c-3.72-2.55-8.79-1.6-11.34,2.11-1.83,2.66-1.85,6.03-.35,8.66l-17.34,11.9Zm106.25,42.34l-93.75,64.34v-84.94l27.1-18.6c.27.03.54.06.81.06,2.6,0,5.15-1.24,6.73-3.54.53-.78.91-1.62,1.14-2.48l57.97-39.78v84.94Z"/></svg>