<?xml version="1.0" encoding="UTF-8"?><svg id="b" xmlns="http://www.w3.org/2000/svg" viewBox="0 0 500 500"><path d="m462.81,118.81c-30.63-49.68-77.67-87.08-132.98-105.72C303.92,4.36,276.95,0,250.01,0,219.45,0,188.93,5.6,159.99,16.77c-54.45,21.01-99.83,60.41-128.28,111.37C3.26,179.1-6.46,238.41,4.23,295.78c10.69,57.38,41.11,109.21,86,146.5,44.89,37.3,101.42,57.72,159.78,57.72,7.81,0,15.57-.36,23.28-1.07h0c53.86-4.89,104.64-27.26,144.62-63.68l.04-.05c43.24-39.2,71.39-92.3,79.59-150.08s-4.08-116.62-34.71-166.3Zm-7.74,160.28c-4.56,32.13-16.65,62.62-34.95,89.01l-32.42-30.88c-19.73-18.53-31.09-57.99-35.27-83.7-5.38-41.25,1.2-68.75-30.49-105.22-50.82-58.59-157.84-48.43-188.33,25.71h.6s54.41,0,54.41,0c5.38,0,10.16,1.19,13.75,4.78l17.34,18.53c2.39,2.39,3.59,4.78,3.59,8.37l-1.2,124.36c0,4.78,1.79,7.17,6.58,7.17,9.57,1.2,20.33.6,30.49-2.39,5.98-1.2,8.97,0,12.55,4.78l71.32,95.57c-3.13,1.57-6.3,3.08-9.51,4.49-19.83,8.73-40.79,14.24-62.34,16.39l-1.86.17c-6.34.59-12.84.89-19.31.89-48.25,0-95.26-16.98-132.37-47.82-37.11-30.83-62.41-73.93-71.25-121.37-8.83-47.43-.75-96.76,22.78-138.89,23.52-42.13,61.26-74.9,106.28-92.27,23.88-9.22,48.97-13.89,74.57-13.89,22.53,0,44.78,3.65,66.14,10.84,45.72,15.41,84.85,46.52,110.17,87.59,25.32,41.07,35.53,90,28.76,137.78Zm-162.4-26.19l-27.09-14.81c-10.16-4.66-2.96-22.01,6.77-17.78l31.74,17.35v.42c7.19,3.81,2.12,22.01-11.43,14.81Zm-19.04,14.12l30.05,16.51h0c8.04,4.23,2.54,22.43-11.01,14.81l-27.51-15.24c-9.74-5.08-2.12-22.01,8.47-16.08Zm19.05-59.98l-27.51-15.24c-8.89-5.08-.85-22.01,7.19-17.35l31.74,17.35v.42c7.62,3.81,1.7,22.01-11.43,14.81Z"/><path d="m127.02,260.09c11.96,32.29,34.08,55.6,66.36,69.35,1.79,1.19,4.19,1.19,4.19-1.2l-.6.6.6-66.96c0-4.19-1.19-5.98-5.38-5.98l-61.58-.6c-4.19,0-4.79.6-3.59,4.78Z"/></svg>