<?xml version="1.0" encoding="UTF-8"?><svg id="a" xmlns="http://www.w3.org/2000/svg" viewBox="0 0 500 500"><path d="m250,40c56.09,0,108.83,21.84,148.49,61.51,39.66,39.66,61.51,92.4,61.51,148.49s-21.84,108.83-61.51,148.49c-39.66,39.66-92.4,61.51-148.49,61.51s-108.83-21.84-148.49-61.51c-39.66-39.66-61.51-92.4-61.51-148.49s21.84-108.83,61.51-148.49c39.66-39.66,92.4-61.51,148.49-61.51M250,0C111.93,0,0,111.93,0,250s111.93,250,250,250,250-111.93,250-250S388.07,0,250,0h0Z"/><path d="m375.29,238.57c-.06-3.53-2.55-8.67-9.28-8.67h-11.6c-5.38,0-9.28,3.7-9.28,8.8s3.9,8.8,9.28,8.8h2.61c.45,12.25-4.65,44.47-27.4,69.99-19.23,21.57-46.05,32.8-79.71,33.36-.61.01-1.23.02-1.84.02-27.71,0-55.13-11.55-75.24-31.68-19.63-19.66-30.36-45.62-29.74-71.68h2.45c5.38,0,9.28-3.7,9.28-8.8s-3.9-8.8-9.28-8.8h-11.6c-6.74,0-9.23,5.15-9.28,8.68-2.18,33.96,9.21,65.94,32.09,90.06,21.56,22.73,52,36.85,83.95,39.05v49.11h-60.24c-5.38,0-9.28,3.7-9.28,8.8s3.9,8.8,9.28,8.8h139.04c5.38,0,9.28-3.7,9.28-8.8s-3.9-8.8-9.28-8.8h-60.24v-49.11c32.27-2.21,62.95-16.51,84.62-39.53,22.7-24.11,33.85-55.93,31.42-89.6Z"/><path d="m321.2,213.5v-29.5h-19.43c-3.24,0-6.48-3.24-6.48-6.48s3.24-6.48,6.48-6.48h19.43v-12.95h-19.43c-3.24,0-6.48-3.24-6.48-6.48s3.24-6.48,6.48-6.48h19.43v-12.95h-19.43c-3.24,0-6.48-3.24-6.48-6.48s3.24-6.48,6.48-6.48h19.43c-3.89-36.27-34.32-64.76-71.24-64.76s-67.35,28.49-71.24,64.76h19.43c3.24,0,6.48,3.24,6.48,6.48s-3.24,6.48-6.48,6.48h-19.43v12.95h19.43c3.24,0,6.48,3.24,6.48,6.48s-3.24,6.48-6.48,6.48h-19.43v12.95h19.43c3.24,0,6.48,3.24,6.48,6.48s-3.24,6.48-6.48,6.48h-19.43v29.5h142.47Z"/><path d="m179.06,261.68c5,35.04,34.86,62.22,70.9,62.22s65.9-27.17,70.9-62.22h-141.81Z"/><path d="m183.71,225.16h-9.36c-3.15,0-6.3,3.39-6.3,6.78s3.15,18.08,6.3,18.08h151.22c3.15,0,6.3-14.69,6.3-18.08s-3.15-6.78-6.3-6.78h-141.86Z"/></svg>