<?xml version="1.0" encoding="UTF-8"?><svg id="a" xmlns="http://www.w3.org/2000/svg" viewBox="0 0 500 500"><path d="m250,0C111.93,0,0,111.93,0,250s111.93,250,250,250,250-111.93,250-250S388.07,0,250,0Zm-98.48,410.22c-.83,1.46-2.37,2.36-4.05,2.36h-32.01c-3.57,0-5.81-3.85-4.04-6.96l40.12-70.37c3.39,2.71,12.89,13.57,30.52,21.03l-30.54,53.94Zm95.66-51.9c-71.22,0-128.87-57.65-128.87-128.87,0-71.05,57.11-128.48,128.16-128.87,24.46-.14,47.1,6.72,66.58,18.4,2.98,1.79,3.49,5.9,1.03,8.36l-20.61,20.61c-14.42-8.21-31.22-12.71-49.12-12.19-49.71,1.47-89.96,42.17-90.89,91.9-.99,53.19,42.33,96.5,95.52,95.5,49.72-.93,90.42-41.18,91.89-90.89.53-17.9-3.98-34.69-12.19-49.11l20.79-20.79c2.46-2.46,6.56-1.93,8.36,1.04,11.7,19.32,18.22,41.77,18.22,66.03,0,71.22-57.65,128.87-128.87,128.87h0Zm0-84.38c24.57,0,44.49-19.92,44.49-44.49,0-2.89-.29-5.72-.83-8.45l23.6-23.6c4.6,9.63,7.35,20.42,7.35,32.05,0,41.38-33.24,74.61-74.61,74.61s-74.61-33.24-74.61-74.61,33.24-74.61,74.61-74.61c11.53,0,22.25,2.7,32,7.41l-23.54,23.54c-2.74-.53-5.56-.83-8.45-.83-24.57,0-44.49,19.92-44.49,44.49s19.92,44.49,44.49,44.49Zm131.72,138.64h-32.01c-1.68,0-3.22-.9-4.05-2.36l-30.54-53.94c4.07-2.04,16.28-7.46,30.52-21.03l40.12,70.37c1.77,3.1-.47,6.96-4.04,6.96Zm-10.4-273.26h-21.86l-81.12,81.12c1.35,2.72,2.11,5.78,2.11,9.02,0,.68-.03,1.35-.1,2.01l.24-.24c-.24,3.12-1.31,5.98-2.91,8.46-3.52,6.03-10.07,10.09-17.56,10.09-.02,0-.04,0-.06,0s-.04,0-.06,0c-11.53,0-20.35-8.82-20.35-20.35,0-2.25.47-4.61,1.34-6.88,1.04-2.89,2.73-5.48,4.88-7.59,3.09-3.15,7.2-5.4,12.05-5.83l-.14.14c.76-.09,1.54-.14,2.33-.14,3.18,0,6.18.73,8.86,2.03l81.14-81.14v-21.91l40.7-40.7v24.42c0,3.39,3.39,6.78,6.78,6.78h24.42l-40.7,40.7Z" fill="#14151e"/></svg>