<?xml version="1.0" encoding="UTF-8"?><svg id="a" xmlns="http://www.w3.org/2000/svg" viewBox="0 0 500 500"><polygon points="306.9 374.3 306.9 374.3 306.9 374.3 306.9 374.3"/><path d="m250,0C111.93,0,0,111.93,0,250s111.93,250,250,250,250-111.93,250-250S388.07,0,250,0Zm96.22,104.5l9.37-9.38c1.85-1.85,4.27-2.87,6.82-2.87s4.96,1.02,6.82,2.87c3.82,3.82,3.82,9.81,0,13.63l-9.37,9.38c-1.35,1.35-3.43,2.34-5.58,2.65-.49.07-.97.1-1.45.1-2.39,0-4.6-.87-6.37-2.52-1.79-1.48-2.9-3.71-3.08-6.17-.2-2.83.86-5.7,2.84-7.68Zm-105.9-40.06c0-5.61,4.07-9.69,9.68-9.69s9.68,4.07,9.68,9.69v12.42c0,5.61-4.07,9.69-9.68,9.69s-9.68-4.07-9.68-9.69v-12.42Zm-109.53,30.68c1.85-1.85,4.27-2.87,6.82-2.87s4.96,1.02,6.82,2.87l9.37,9.38c1.98,1.98,3.04,4.86,2.84,7.68-.18,2.6-1.42,4.94-3.38,6.41l-.23.16c-2.04,1.36-4.2,1.93-6.21,1.93-2.69,0-5.12-1.03-6.66-2.56l-9.37-9.38c-3.82-3.82-3.82-9.81,0-13.63Zm1.38,114.37h-18.13c-5.52,0-9.53-4.01-9.53-9.54s4.01-9.54,9.53-9.54h18.13c5.52,0,9.53,4.01,9.53,9.54s-4.01,9.54-9.53,9.54Zm36.84,70.7l-9.37,9.38c-1.85,1.85-4.27,2.87-6.82,2.87s-4.96-1.02-6.81-2.87h0c-3.82-3.82-3.82-9.81,0-13.63l9.37-9.38c1.67-1.67,4.42-2.75,7.01-2.75,2.39,0,4.64.89,6.38,2.52,1.79,1.48,2.91,3.71,3.08,6.18.2,2.83-.86,5.7-2.84,7.68Zm132.66,139.11c-6.1,6.78-13.55,12.19-21.89,15.9-7.63,3.35-15.88,5.07-24.21,5.05-6.52,0-13.01-1.01-19.22-2.99-6.27-1.99-12.22-4.9-17.64-8.62-11.42-7.82-20.2-18.92-25.2-31.82-2.72-6.96-3.43-11.01-2.23-12.76.55-.73,1.44-1.13,2.35-1.04,2.31.22,4.55.92,6.57,2.05,1.01.48,2.1,1.01,3.24,1.56,7.36,3.56,17.45,8.42,27.64,12.38l.57.22c15.33,5.97,23.78,9.26,29.78,9.26,4.72,0,7.9-1.98,11.75-7.28-4.5-1.82-9.05-3.83-13.87-5.95l-.08-.04c-6.67-2.94-13.56-5.98-20.81-8.74-13.66-5.22-28.6-11.27-29.23-11.52l-2.29-1.04c-9.69-4.36-15.02-6.76-17.75-9.05-2.65-2.24-2.93-4.38-2.57-8.65.04-.48.08-.93.11-1.36v-.12c.29-3.57.44-5.53,2.43-5.53,1.26,0,3.28.76,6.99,2.63,26.8,13.43,81.32,30.44,106.4,37.56,3.62,1.03,8.21,3.22,9.51,7.82,1.55,5.46-1.93,12.9-10.34,22.1Zm-9.48-111.03c-.03,10.97,2.92,11.15,10.05,11.59,2.1.13,3.26.31,3.79.97.6.75-.61,8.73-.85,11.74-.31,3.8-4.67,4.24-7.93,4.24-1.44,0-37.58-1.78-42.37-1.78-6.38,0-9.38.58-10.7,2.06-.87,1.19-1.16,2.7-.8,4.12,1,.32,2.16.7,3.5,1.15l.26.09c6.69,2.21,17.91,5.92,30.77,9.05,2.76.67,5.26,1.27,7.47,1.79,10.43,2.49,15.67,3.74,18.19,5.41,2.49,1.65,2.3,3.6,1.64,7.86-.06.39-.11.76-.17,1.13l-.03.18c-.61,4.15-.94,6.44-4.83,6.44-.87-.02-1.74-.1-2.6-.26-8.7-1.44-17.61-4.53-26.22-7.53l-.17-.06c-1.92-.67-3.9-1.35-5.81-2-17.12-5.76-27.96-9.76-37.44-13.78-10.7-4.55-19.94-9.29-30.53-15.02-.41-.22-.78-2.35-1-5.7-.31-4.67-.19-10.02.52-10.54,1.46-.78,3-1.37,4.61-1.75,1.54-.31,3-.9,4.33-1.74.03,0,.06-.02.08-.05.22-.23.74-1.42.67-7.61,0-21.36-11.86-35.57-24.42-50.62-7.05-8.44-14.33-17.17-19.85-27.57-2.89-5.4-5.14-11.11-6.7-17.03-1.74-6.73-2.6-13.66-2.56-20.62-.11-13.84,2.46-27.58,7.57-40.45,4.69-11.69,11.71-22.3,20.64-31.18,17.66-17.52,41.85-27.17,68.11-27.17s50.45,9.65,68.11,27.17c8.93,8.88,15.96,19.49,20.64,31.18,5.11,12.87,7.67,26.6,7.56,40.45.03,7.28-.86,14.53-2.64,21.58-1.59,6.14-3.91,12.07-6.89,17.67-5.66,10.73-13.09,19.57-20.27,28.13-12.2,14.53-23.73,28.25-23.73,48.46Zm61.81-18.7c-1.85,1.85-4.27,2.87-6.82,2.87s-4.96-1.02-6.82-2.87l-9.37-9.38c-1.98-1.98-3.04-4.86-2.84-7.68.18-2.6,1.42-4.94,3.38-6.41l.23-.16c4.77-3.18,10.19-2.05,12.87.63l9.37,9.37c3.82,3.82,3.82,9.81,0,13.63Zm31.97-80.08h-18.13c-5.52,0-9.53-4.01-9.53-9.54s4.01-9.54,9.53-9.54h18.13c5.52,0,9.53,4.01,9.53,9.54s-4.01,9.54-9.53,9.54Z"/><path d="m235.92,132.91c5.72-1.53,11.88-2.3,18.3-2.3,5.05,0,9.17-4.11,9.17-9.17s-4.11-9.17-9.17-9.17c-8.02,0-15.77.99-23.03,2.93h0c-4.88,1.31-7.79,6.34-6.49,11.22,1.07,4,4.71,6.8,8.85,6.8.8,0,1.6-.11,2.37-.31Z"/><path d="m258.52,297.14h-19.04c-4.76,0-9.52,4.76-9.52,9.52s4.76,9.52,9.52,9.52h19.04c4.76,0,9.52-4.76,9.52-9.52s-4.76-9.52-9.52-9.52Z"/><path d="m201.45,130.68c-1.83,1.56-3.62,3.24-5.32,4.99-14.78,15.25-22.92,36.87-22.91,60.86,0,5.05,4.11,9.17,9.17,9.17s9.17-4.11,9.17-9.17c0-19.21,6.3-36.29,17.75-48.1,1.28-1.32,2.64-2.59,4.03-3.78,1.86-1.59,3-3.8,3.2-6.24.2-2.44-.57-4.81-2.15-6.67-3.27-3.85-9.07-4.32-12.92-1.04Z"/></svg>