<?xml version="1.0" encoding="UTF-8"?><svg id="a" xmlns="http://www.w3.org/2000/svg" viewBox="0 0 500 500"><path d="m250,0C111.93,0,0,111.93,0,250s111.93,250,250,250,250-111.93,250-250S388.07,0,250,0Zm-2.47,119.11h128.87c2.47,0,4.48,2.01,4.48,4.48v128.27c0,3.99-4.82,6.01-7.66,3.2l-46.4-45.85c-2.57-2.57-6.44-2.57-9.01,0l-32.18,32.18c-1.95,1.95-5.13,1.95-7.08,0l-19.95-19.95c-1.95-1.95-1.95-5.13,0-7.08l32.18-32.18c2.49-2.49,2.49-6.52,0-9.01l-46.41-46.41c-2.82-2.82-.82-7.65,3.17-7.65Zm133.55,257.48c0,2.47-2.01,4.48-4.48,4.48H123.4c-2.47,0-4.48-2.01-4.48-4.48V123.4c0-2.47,2.01-4.48,4.48-4.48h58.81c1.19,0,2.33.47,3.17,1.31l49.73,49.72c1.44,1.44.42,3.9-1.61,3.9h-55.15c-2.47,0-4.48,2.01-4.48,4.48v143.32c0,2.47,2.01,4.48,4.48,4.48h143.33c2.47,0,4.48-2.01,4.48-4.48v-55.18c0-2.04,2.46-3.05,3.9-1.62l49.73,49.72c.84.84,1.31,1.98,1.31,3.17v58.84Z" fill="#14151e"/></svg>