<?xml version="1.0" encoding="UTF-8"?><svg id="a" xmlns="http://www.w3.org/2000/svg" viewBox="0 0 500 500"><path d="m58.15,328.96h127.75c4.98,0,9.06,3.97,9.06,8.82v156.16c0,5.44,6.8,8.11,10.68,4.2l242.61-244.33c2.33-2.35,2.33-6.07,0-8.41L205.63,1.85c-3.88-3.9-10.67-1.22-10.67,4.21v154.43c0,4.85-4.08,8.82-9.06,8.82H58.15c-5.44,0-8.15,4.41-8.15,7.94v143.77c0,4.38,3.65,7.94,8.15,7.94Zm154.92,79.38c0-4.41,4.53-8.82,9.06-8.82s9.06,4.41,9.06,8.82v14.11l20.84-20.29c3.62-3.53,9.06-3.53,12.68,0,3.62,3.53,3.62,8.82,0,12.35l-36.24,35.28c-2.72,2.65-6.34,3.53-9.97,1.76-3.62-.88-5.44-4.41-5.44-7.94v-35.28ZM68.11,223.96c0-4.41,4.53-8.82,9.06-8.82s9.06,4.41,9.06,8.82v47.66c0,4.41-4.53,8.82-9.06,8.82s-9.06-4.41-9.06-8.82v-47.66Zm267.95-43.05c-3.12-3.12-3.03-9.44.17-12.64,3.2-3.2,9.52-3.29,12.64-.17l12.47,12.47c3.12,3.12,3.03,9.44-.17,12.64-3.2,3.2-9.52,3.29-12.64.17l-12.47-12.47Zm-61.59-61.59c-3.12-3.12-3.03-9.44.17-12.64,3.2-3.2,9.52-3.29,12.64-.17l38.76,38.76c3.12,3.12,3.03,9.44-.17,12.64-3.2,3.2-9.52,3.29-12.64.17l-38.76-38.76Z"/><text transform="translate(0 -25.71)" font-family="MyriadPro-Regular, &apos;Myriad Pro&apos;" font-size="110"><tspan x="0" y="0" letter-spacing="-.02em">P</tspan><tspan x="56.76" y="0">il nes</tspan><tspan x="291.5" y="0" letter-spacing="0em">t</tspan><tspan x="327.25" y="0" letter-spacing="0em">e</tspan></text></svg>