<?xml version="1.0" encoding="UTF-8"?><svg id="b" xmlns="http://www.w3.org/2000/svg" viewBox="0 0 500 500"><path d="m250,40c56.09,0,108.83,21.84,148.49,61.51s61.51,92.4,61.51,148.49-21.84,108.83-61.51,148.49c-39.66,39.66-92.4,61.51-148.49,61.51s-108.83-21.84-148.49-61.51-61.51-92.4-61.51-148.49,21.84-108.83,61.51-148.49,92.4-61.51,148.49-61.51M250,0C111.93,0,0,111.93,0,250s111.93,250,250,250,250-111.93,250-250S388.07,0,250,0h0Z"/><path d="m368.39,127.25h-228.51c-11.74,0-21.29,9.55-21.29,21.29v205.58c0,11.74,9.55,21.29,21.29,21.29h228.51c11.74,0,21.29-9.55,21.29-21.29v-205.58c0-11.74-9.55-21.29-21.29-21.29Zm-233.42,21.29c0-2.71,2.21-4.91,4.91-4.91h228.51c2.71,0,4.91,2.21,4.91,4.91v42.59s-238.33,0-238.33,0v-42.59Zm54.47,210.49h-49.55c-2.71,0-4.91-2.21-4.91-4.91v-146.61h54.46v151.52Zm183.87-4.92c0,2.71-2.21,4.91-4.91,4.91h-162.58s0-151.52,0-151.52h167.49v146.6Z" stroke="#000" stroke-miterlimit="10" stroke-width="23"/></svg>