<?xml version="1.0" encoding="UTF-8"?><svg xmlns="http://www.w3.org/2000/svg" viewBox="0 0 500 500"><g id="a"><path d="m277.33,267.19l58.1,57.67c9.32,10.21,0,19.09,0,19.09-4.44,4.88-13.76,4.88-18.2,0l-58.54-58.11c7.23-5.1,13.54-11.41,18.64-18.64Z"/><path d="m360.13,395.69c-7.61,0-14.64-2.89-19.34-7.93l-57.82-57.18c-2.1-2.07-1.81-5.54.6-7.23l4.37-3.08c9.24-6.52,17.3-14.58,23.82-23.82l3.05-4.33c1.69-2.39,5.12-2.7,7.2-.64l57.48,56.83.16.17c13.88,15.2,7.54,31.73-.21,39.32-4.7,5.02-11.71,7.89-19.3,7.89Z"/><path d="m86.84,210.27c0-63.41,51.59-115,115-115,63.41,0,115,51.59,115,115s-51.59,115-115,115c-63.41,0-115-51.59-115-115Zm25,0c0,49.63,40.37,90,90,90,49.63,0,90-40.37,90-90s-40.37-90-90-90c-49.63,0-90,40.37-90,90Z" stroke="#000" stroke-miterlimit="10" stroke-width="10"/></g><g id="b"><path d="m250,40c56.09,0,108.83,21.84,148.49,61.51,39.66,39.66,61.51,92.4,61.51,148.49s-21.84,108.83-61.51,148.49c-39.66,39.66-92.4,61.51-148.49,61.51s-108.83-21.84-148.49-61.51-61.51-92.4-61.51-148.49,21.84-108.83,61.51-148.49,92.4-61.51,148.49-61.51M250,0C111.93,0,0,111.93,0,250s111.93,250,250,250,250-111.93,250-250S388.07,0,250,0h0Z"/><path d="m156.73,218.86h20.64c1.59,0,3.18-1.59,3.18-3.18v-60.14c0-3.18,2.86-5.73,6.05-5.73h30.95c2.86,0,5.73,2.86,5.73,5.73v60.14c0,1.59,1.59,3.18,3.18,3.18h20.64c1.59,0,1.91,2.23,1.27,3.18l-39.77,46.13c-1.59,1.59-4.14,2.55-7,2.55s-5.41-.95-7-2.86l-39.13-45.82c-.95-.95-.32-3.18,1.27-3.18Z"/></g></svg>