<?xml version="1.0" encoding="UTF-8"?><svg id="a" xmlns="http://www.w3.org/2000/svg" viewBox="0 0 500 500"><path d="m387.56,225.99c1.34,8.72,2.68,16.78,2.68,25.5,0,18.12-3.36,34.89-9.39,51,0,.67-2.68,6.71,4.03,8.72,3.36.67,7.38-.67,8.72-4.03,7.38-17.45,10.74-36.24,9.39-55.7,0-9.39-1.34-18.79-2.68-27.51,0-3.36-4.03-6.04-7.38-5.37-3.36,0-6.04,4.03-5.37,7.38Z"/><path d="m368.1,174.32c3.36,5.37,6.71,10.74,10.07,18.12,2.01,3.36,6.04,4.7,10.07,2.68,3.35-1.34,4.7-5.37,2.68-8.72-4.03-7.38-7.38-13.42-11.41-19.46-2.01-3.36-6.04-4.03-9.39-2.01-4.7,3.36-2.68,8.05-2.01,9.39Z"/><path d="m250,0C111.93,0,0,111.93,0,250s111.93,250,250,250,250-111.93,250-250S388.07,0,250,0Zm31.24,414.87c-12.4,2.34-23.85-7.29-23.85-19.91,0-9.79,7.02-18.14,16.65-19.91,58.75-10.75,103.06-61.71,103.46-123.39.46-70.67-56.83-128.33-127.5-128.33-70.44,0-127.46,57-127.49,127.43,0,3.73,2.98,6.78,6.71,6.78h11.27c2.42,0,3.74,2.82,2.2,4.68l-34.94,42.2c-2.68,2.68-7.38,2.68-10.07,0l-34.94-42.2c-1.54-1.86-.22-4.68,2.2-4.68h10.6c3.35,0,6.71-2.68,6.71-6.71,1.33-114.08,104.01-178.5,187.22-166.42h0c117.44,17.44,148.3,116.76,148.3,166.41,0,59.78-38.71,145.57-136.52,164.05Z"/></svg>