<?xml version="1.0" encoding="UTF-8"?><svg id="b" xmlns="http://www.w3.org/2000/svg" viewBox="0 0 500 500"><path d="m250,40c56.09,0,108.83,21.84,148.49,61.51,39.66,39.66,61.51,92.4,61.51,148.49s-21.84,108.83-61.51,148.49c-39.66,39.66-92.4,61.51-148.49,61.51s-108.83-21.84-148.49-61.51c-39.66-39.66-61.51-92.4-61.51-148.49s21.84-108.83,61.51-148.49c39.66-39.66,92.4-61.51,148.49-61.51M250,0C111.93,0,0,111.93,0,250s111.93,250,250,250,250-111.93,250-250S388.07,0,250,0h0Z"/><path d="m317.39,322.33c1.12-.38,2.24-1.12,3.17-1.87.93-.93,1.49-1.87,1.87-2.99,0-.19.19-.38.19-.56l47.6-177.33c.75-2.8,0-5.79-2.05-7.84-2.05-2.05-5.04-2.8-7.84-2.05l-177.33,47.6c-.19,0-.38.19-.56.19-1.12.38-2.24,1.12-2.99,1.87-.93.93-1.49,1.87-1.87,3.17,0,.19-47.79,177.89-47.79,177.89-.75,2.8,0,5.79,2.05,7.84,2.05,2.05,5.04,2.8,7.84,2.05,0,0,177.52-47.97,177.71-47.97h0Zm32.85-173.04l-40.13,150.08-109.95-109.95,150.08-40.13Z" stroke="#000" stroke-miterlimit="10" stroke-width="23"/></svg>