<?xml version="1.0" encoding="UTF-8"?><svg id="b" xmlns="http://www.w3.org/2000/svg" viewBox="0 0 500 500"><path d="m250,40c56.09,0,108.83,21.84,148.49,61.51s61.51,92.4,61.51,148.49-21.84,108.83-61.51,148.49c-39.66,39.66-92.4,61.51-148.49,61.51s-108.83-21.84-148.49-61.51-61.51-92.4-61.51-148.49,21.84-108.83,61.51-148.49,92.4-61.51,148.49-61.51M250,0C111.93,0,0,111.93,0,250s111.93,250,250,250,250-111.93,250-250S388.07,0,250,0h0Z"/><path d="m233.01,82.94c10.61-13.99,31.64-13.99,42.25,0l14.73,19.43c.7.91,1.83,1.38,2.96,1.23l24.16-3.32c17.39-2.39,32.27,12.48,29.87,29.87l-3.32,24.16c-.16,1.14.31,2.27,1.23,2.96l19.43,14.73c13.99,10.61,13.99,31.64,0,42.25l-19.43,14.73c-.91.7-1.38,1.83-1.23,2.97l3.32,24.16c2.39,17.39-12.48,32.27-29.87,29.88l-24.16-3.32c-1.14-.16-2.27.31-2.96,1.23l-14.73,19.43c-10.61,13.99-31.64,13.99-42.25,0l-14.73-19.43c-.69-.91-1.83-1.38-2.96-1.23l-24.16,3.32c-17.39,2.39-32.27-12.48-29.88-29.88l3.32-24.16c.16-1.14-.31-2.27-1.23-2.97l-19.43-14.73c-13.99-10.61-13.99-31.64,0-42.25l19.43-14.73c.91-.69,1.38-1.83,1.23-2.96l-3.32-24.16c-2.39-17.4,12.48-32.27,29.87-29.88l24.16,3.32c1.14.16,2.27-.31,2.96-1.23l14.73-19.43Zm23.66,14.1c-1.27-1.68-3.79-1.68-5.06,0l-14.74,19.43c-5.79,7.63-15.24,11.55-24.73,10.25l-24.16-3.32c-2.09-.29-3.87,1.5-3.58,3.58l3.32,24.16c1.3,9.49-2.61,18.95-10.25,24.74l-19.43,14.73c-1.68,1.27-1.68,3.79,0,5.07l19.43,14.73c7.63,5.79,11.55,15.24,10.25,24.73l-3.32,24.16c-.29,2.09,1.5,3.87,3.58,3.58l24.16-3.32c9.49-1.3,18.95,2.61,24.73,10.25l14.74,19.43c1.27,1.68,3.79,1.68,5.06,0l14.74-19.43c5.79-7.63,15.24-11.55,24.73-10.25l24.16,3.32c2.09.29,3.87-1.5,3.58-3.58l-3.32-24.16c-1.3-9.49,2.61-18.95,10.25-24.73l19.43-14.73c1.68-1.27,1.68-3.79,0-5.07l-19.43-14.73c-7.63-5.79-11.55-15.25-10.25-24.74l3.32-24.16c.29-2.09-1.5-3.87-3.58-3.58l-24.16,3.32c-9.49,1.3-18.95-2.61-24.73-10.25l-14.74-19.43Z" fill-rule="evenodd" stroke="#000" stroke-miterlimit="10" stroke-width="16"/><path d="m207.47,388.38v-104.59h-19.76v118.92c0,3.16,1.69,6.09,4.5,7.81,2.8,1.72,6.34,1.98,9.39.7l52.54-22.03,52.54,22.03c3.06,1.28,6.59,1.02,9.4-.7,2.8-1.72,4.49-4.66,4.49-7.81v-118.92h-19.75v104.59l-42.67-17.88c-2.55-1.07-5.47-1.07-8.02,0l-42.66,17.88Z" fill-rule="evenodd" stroke="#000" stroke-miterlimit="10" stroke-width="20"/></svg>