<?xml version="1.0" encoding="UTF-8"?><svg id="a" xmlns="http://www.w3.org/2000/svg" viewBox="0 0 273.5 100"><g opacity=".2"><g id="b"><path id="c" d="m46.87,0c-2.34.23-4.14,2.17-4.17,4.53,2.02-.13,3.76,1.41,3.89,3.43,0,.09,0,.17,0,.26-.2,2.67-.95,5.28-2.2,7.65-1.64,3.84-3.12,5.82-4.47,5.91-.93.02-1.85-.02-2.77-.13-.93-.12-1.86-.16-2.79-.13-2.03.02-3.92,1.07-5.02,2.78.86.45,4.6,2,11.24,4.64,3.78,1.39,7.34,3.33,10.55,5.76.23-.63.33-1.3.29-1.97-.24-1.45-.85-2.82-1.78-3.97-.85-1.02-1.45-2.23-1.75-3.52.05-3.07.69-6.1,1.88-8.92,1.14-2.62,1.79-5.43,1.92-8.28-.27-4.07-1.88-6.76-4.85-8.04Zm-23.67,24.03c-3.58.34-6.66,2.68-7.95,6.04-1.85,4.1-3.22,8.4-4.11,12.81-.95,4.42-1.91,8.83-2.83,13.25-1.77,6.69-3.53,13.37-5.27,20.06C.79,85.57-.21,92.09.04,95.73c.12,1.75.54,2.92,1.3,3.49,1.17.68,2.54.93,3.88.7.32-.02,1-.97,2.05-2.83,1.86-3.12,4-6.06,6.39-8.79,4.45-5.22,6.83-8,7.13-8.37,3.33-4.35,7.05-8.37,11.14-12.02,4.74-3.91,9.48-7.84,14.22-11.78,5.96-5.6,8.82-10.48,8.54-14.66-.17-2.57-2.36-5.18-6.55-7.81-3.16-1.95-6.54-3.51-10.07-4.64-2.43-1.05-4.86-2.12-7.29-3.17-2.35-1.17-4.94-1.79-7.56-1.8h0Zm28.11,19.3c-1.83.51-3.54,1.37-5.04,2.53-1.66,1.05-5.58,5.26-11.75,12.57-7.22,8.81-11.23,13.62-12.05,14.43l-1.1-.79,12.54-15.44c6-7.77,8.89-13.19,8.67-16.26-.03-.41-.11-.81-.26-1.2,1.57,1.81,4.56,3.19,8.97,4.15h0Zm-1.85-30.14c-2.61,6.19-3.86,10.09-3.76,11.68.45,1.82,1.14,3.57,2.06,5.2l-4.68-2.66,6.37-14.22Zm-3.01-12.35c.61.27,1.04.82,1.17,1.47.07,1.03-.72,1.59-2.37,1.7-.38.03-.77,0-1.14-.1.14-1.38,1.04-2.57,2.34-3.07Z"/></g><g id="d"><path id="e" d="m101.57,0c-2.34.23-4.14,2.17-4.17,4.53,2.02-.13,3.76,1.41,3.89,3.43,0,.09,0,.17,0,.26-.2,2.67-.95,5.28-2.2,7.65-1.64,3.84-3.12,5.82-4.47,5.91-.93.02-1.85-.02-2.77-.13-.93-.12-1.86-.16-2.79-.13-2.03.02-3.92,1.07-5.02,2.78.86.45,4.6,2,11.24,4.64,3.78,1.39,7.34,3.33,10.55,5.76.23-.63.33-1.3.29-1.97-.24-1.45-.85-2.82-1.78-3.97-.85-1.02-1.45-2.23-1.75-3.52.05-3.07.69-6.1,1.88-8.92,1.14-2.62,1.79-5.43,1.92-8.28-.27-4.07-1.88-6.76-4.85-8.04Zm-23.67,24.03c-3.58.34-6.66,2.68-7.95,6.04-1.85,4.1-3.22,8.4-4.11,12.81-.95,4.42-1.91,8.83-2.83,13.25-1.77,6.69-3.53,13.37-5.27,20.06-2.26,9.4-3.26,15.91-3.01,19.55.12,1.75.54,2.92,1.3,3.49,1.17.68,2.54.93,3.88.7.32-.02,1-.97,2.05-2.83,1.86-3.12,4-6.06,6.39-8.79,4.45-5.22,6.83-8,7.13-8.37,3.33-4.35,7.05-8.37,11.14-12.02,4.74-3.91,9.48-7.84,14.22-11.78,5.96-5.6,8.82-10.48,8.54-14.66-.17-2.57-2.36-5.18-6.55-7.81-3.16-1.95-6.54-3.51-10.07-4.64-2.43-1.05-4.86-2.12-7.29-3.17-2.35-1.17-4.94-1.79-7.56-1.8h0Zm28.11,19.3c-1.83.51-3.54,1.37-5.04,2.53-1.66,1.05-5.58,5.26-11.75,12.57-7.22,8.81-11.23,13.62-12.05,14.43l-1.1-.79,12.54-15.44c6-7.77,8.89-13.19,8.67-16.26-.03-.41-.11-.81-.26-1.2,1.57,1.81,4.56,3.19,8.97,4.15h0Zm-1.85-30.14c-2.61,6.19-3.86,10.09-3.76,11.68.45,1.82,1.14,3.57,2.06,5.2l-4.68-2.66,6.37-14.22Zm-3.01-12.35c.61.27,1.04.82,1.17,1.47.07,1.03-.72,1.59-2.37,1.7-.38.03-.77,0-1.14-.1.14-1.38,1.04-2.57,2.34-3.07Z"/></g><g id="f"><path id="g" d="m156.27,0c-2.34.23-4.14,2.17-4.17,4.53,2.02-.13,3.76,1.41,3.89,3.43,0,.09,0,.17,0,.26-.2,2.67-.95,5.28-2.2,7.65-1.64,3.84-3.12,5.82-4.47,5.91-.93.02-1.85-.02-2.77-.13-.93-.12-1.86-.16-2.79-.13-2.03.02-3.92,1.07-5.02,2.78.86.45,4.6,2,11.24,4.64,3.78,1.39,7.34,3.33,10.55,5.76.23-.63.33-1.3.29-1.97-.24-1.45-.85-2.82-1.78-3.97-.85-1.02-1.45-2.23-1.75-3.52.05-3.07.69-6.1,1.88-8.92,1.14-2.62,1.79-5.43,1.92-8.28-.27-4.07-1.88-6.76-4.85-8.04Zm-23.67,24.03c-3.58.34-6.66,2.68-7.95,6.04-1.85,4.1-3.22,8.4-4.11,12.81-.95,4.42-1.91,8.83-2.83,13.25-1.77,6.69-3.53,13.37-5.27,20.06-2.26,9.4-3.26,15.91-3.01,19.55.12,1.75.54,2.92,1.3,3.49,1.17.68,2.54.93,3.88.7.32-.02,1-.97,2.05-2.83,1.86-3.12,4-6.06,6.39-8.79,4.45-5.22,6.83-8,7.13-8.37,3.33-4.35,7.05-8.37,11.14-12.02,4.74-3.91,9.48-7.84,14.22-11.78,5.96-5.6,8.82-10.48,8.54-14.66-.17-2.57-2.36-5.18-6.55-7.81-3.16-1.95-6.54-3.51-10.07-4.64-2.43-1.05-4.86-2.12-7.29-3.17-2.35-1.17-4.94-1.79-7.56-1.8h0Zm28.11,19.3c-1.83.51-3.54,1.37-5.04,2.53-1.66,1.05-5.58,5.26-11.75,12.57-7.22,8.81-11.23,13.62-12.05,14.43l-1.1-.79,12.54-15.44c6-7.77,8.89-13.19,8.67-16.26-.03-.41-.11-.81-.26-1.2,1.57,1.81,4.56,3.19,8.97,4.15h0Zm-1.85-30.14c-2.61,6.19-3.86,10.09-3.76,11.68.45,1.82,1.14,3.57,2.06,5.2l-4.68-2.66,6.37-14.22Zm-3.01-12.35c.61.27,1.04.82,1.17,1.47.07,1.03-.72,1.59-2.37,1.7-.38.03-.77,0-1.14-.1.14-1.38,1.04-2.57,2.34-3.07Z"/></g><g id="h"><path id="i" d="m210.97,0c-2.34.23-4.14,2.17-4.17,4.53,2.02-.13,3.76,1.41,3.89,3.43,0,.09,0,.17,0,.26-.2,2.67-.95,5.28-2.2,7.65-1.64,3.84-3.12,5.82-4.47,5.91-.93.02-1.85-.02-2.77-.13-.93-.12-1.86-.16-2.79-.13-2.03.02-3.92,1.07-5.02,2.78.86.45,4.6,2,11.24,4.64,3.78,1.39,7.34,3.33,10.55,5.76.23-.63.33-1.3.29-1.97-.24-1.45-.85-2.82-1.78-3.97-.85-1.02-1.45-2.23-1.75-3.52.05-3.07.69-6.1,1.88-8.92,1.14-2.62,1.79-5.43,1.92-8.28-.27-4.07-1.88-6.76-4.85-8.04Zm-23.67,24.03c-3.58.34-6.66,2.68-7.95,6.04-1.85,4.1-3.22,8.4-4.11,12.81-.95,4.42-1.91,8.83-2.83,13.25-1.77,6.69-3.53,13.37-5.27,20.06-2.26,9.4-3.26,15.91-3.01,19.55.12,1.75.54,2.92,1.3,3.49,1.17.68,2.54.93,3.88.7.32-.02,1-.97,2.05-2.83,1.86-3.12,4-6.06,6.39-8.79,4.45-5.22,6.83-8,7.13-8.37,3.33-4.35,7.05-8.37,11.14-12.02,4.74-3.91,9.48-7.84,14.22-11.78,5.96-5.6,8.82-10.48,8.54-14.66-.17-2.57-2.36-5.18-6.55-7.81-3.16-1.95-6.54-3.51-10.07-4.64-2.43-1.05-4.86-2.12-7.29-3.17-2.35-1.17-4.94-1.79-7.56-1.8h0Zm28.11,19.3c-1.83.51-3.54,1.37-5.04,2.53-1.66,1.05-5.58,5.26-11.75,12.57-7.22,8.81-11.23,13.62-12.05,14.43l-1.1-.79,12.54-15.44c6-7.77,8.89-13.19,8.67-16.26-.03-.41-.11-.81-.26-1.2,1.57,1.81,4.56,3.19,8.97,4.15h0Zm-1.85-30.14c-2.61,6.19-3.86,10.09-3.76,11.68.45,1.82,1.14,3.57,2.06,5.2l-4.68-2.66,6.37-14.22Zm-3.01-12.35c.61.27,1.04.82,1.17,1.47.07,1.03-.72,1.59-2.37,1.7-.38.03-.77,0-1.14-.1.14-1.38,1.04-2.57,2.34-3.07Z"/></g><g id="j"><path id="k" d="m265.67,0c-2.34.23-4.14,2.17-4.17,4.53,2.02-.13,3.76,1.41,3.89,3.43,0,.09,0,.17,0,.26-.2,2.67-.95,5.28-2.2,7.65-1.64,3.84-3.12,5.82-4.47,5.91-.93.02-1.85-.02-2.77-.13-.93-.12-1.86-.16-2.79-.13-2.03.02-3.92,1.07-5.02,2.78.86.45,4.6,2,11.24,4.64,3.78,1.39,7.34,3.33,10.55,5.76.23-.63.33-1.3.29-1.97-.24-1.45-.85-2.82-1.78-3.97-.85-1.02-1.45-2.23-1.75-3.52.05-3.07.69-6.1,1.88-8.92,1.14-2.62,1.79-5.43,1.92-8.28-.27-4.07-1.88-6.76-4.85-8.04Zm-23.67,24.03c-3.58.34-6.66,2.68-7.95,6.04-1.85,4.1-3.22,8.4-4.11,12.81-.95,4.42-1.91,8.83-2.83,13.25-1.77,6.69-3.53,13.37-5.27,20.06-2.26,9.4-3.26,15.91-3.01,19.55.12,1.75.54,2.92,1.3,3.49,1.17.68,2.54.93,3.88.7.32-.02,1-.97,2.05-2.83,1.86-3.12,4-6.06,6.39-8.79,4.45-5.22,6.83-8,7.13-8.37,3.33-4.35,7.05-8.37,11.14-12.02,4.74-3.91,9.48-7.84,14.22-11.78,5.96-5.6,8.82-10.48,8.54-14.66-.17-2.57-2.36-5.18-6.55-7.81-3.16-1.95-6.54-3.51-10.07-4.64-2.43-1.05-4.86-2.12-7.29-3.17-2.35-1.17-4.94-1.79-7.56-1.8h0Zm28.11,19.3c-1.83.51-3.54,1.37-5.04,2.53-1.66,1.05-5.58,5.26-11.75,12.57-7.22,8.81-11.23,13.62-12.05,14.43l-1.1-.79,12.54-15.44c6-7.77,8.89-13.19,8.67-16.26-.03-.41-.11-.81-.26-1.2,1.57,1.81,4.56,3.19,8.97,4.15h0Zm-1.85-30.14c-2.61,6.19-3.86,10.09-3.76,11.68.45,1.82,1.14,3.57,2.06,5.2l-4.68-2.66,6.37-14.22Zm-3.01-12.35c.61.27,1.04.82,1.17,1.47.07,1.03-.72,1.59-2.37,1.7-.38.03-.77,0-1.14-.1.14-1.38,1.04-2.57,2.34-3.07Z"/></g></g></svg>