<?xml version="1.0" encoding="UTF-8"?><svg id="b" xmlns="http://www.w3.org/2000/svg" viewBox="0 0 350 500"><ellipse cx="175" cy="381.97" rx="5.37" ry="9.53"/><path d="m321.53,111.6V40h2.1c14.5,0,26.36-11.86,26.36-26.36V0H0v13.64c0,14.5,11.86,26.36,26.36,26.36h2.1v71.6c0,57.47,33.75,114.76,83.99,138.4-50.24,23.64-83.99,80.93-83.99,138.4v71.6h-2.1c-14.5,0-26.36,11.86-26.36,26.36v13.64h350v-13.64c0-14.5-11.86-26.36-26.36-26.36h-2.1v-71.6c0-57.47-33.75-114.76-83.99-138.4,50.24-23.64,83.99-80.93,83.99-138.4Zm-235,81.62c-.67-.87,15.97-10.44,16.54-9.32,10.89,21.32,23.24,32.76,34.32,40.74l-4.33,3.23c-18.87-7.77-33.96-18.14-46.53-34.65Zm207,195.18v71.6h-85.12l-25.86-44.63c-3.36-5.8-11.74-5.8-15.1,0l-25.86,44.63H56.47v-71.6c0-57.6,41.38-111.88,96.13-122.31h5.76c4.01,8.48,8.87,27.75,10.27,71.63.34,10.57,12.21,10.57,12.74,0,2.19-43.87,6.96-63.15,10.73-71.63h5.3c54.75,10.44,96.13,64.72,96.13,122.31Zm-86.94-238.48c-26.23-7.09-43.21-6.18-63.19,0-28.46,8.81-56.69,21.4-66.59,30.32-12.84-20.19-20.35-44.11-20.35-68.63V40h237.07v71.6c0,24.44-7.46,48.29-20.22,68.44-9.65-9.18-37.34-22.19-66.71-30.13Z"/></svg>