<?xml version="1.0" encoding="UTF-8"?><svg id="b" xmlns="http://www.w3.org/2000/svg" viewBox="0 0 350 500"><ellipse cx="175" cy="381.97" rx="5.37" ry="9.53"/><path d="m321.53,111.6V40h2.1c14.5,0,26.36-11.86,26.36-26.36V0H0v13.64c0,14.5,11.86,26.36,26.36,26.36h2.1v71.6c0,57.47,33.75,114.76,83.99,138.4-50.24,23.64-83.99,80.93-83.99,138.4v71.6h-2.1c-14.5,0-26.36,11.86-26.36,26.36v13.64h350v-13.64c0-14.5-11.86-26.36-26.36-26.36h-2.1v-71.6c0-57.47-33.75-114.76-83.99-138.4,50.24-23.64,83.99-80.93,83.99-138.4Zm-254.9,47.88c-2.42-5.32,11.93-15.95,19.21-19.76,1.63-.85,3.61.22,3.8,2.05,5.08,47.99,30.05,70.49,47.23,82.86l-4.33,3.23c-31.42-12.94-51.44-36.53-65.91-68.38Zm226.9,228.91v71.6h-85.12l-25.86-44.63c-3.36-5.8-11.74-5.8-15.1,0l-25.86,44.63H56.47v-71.6c0-57.6,41.38-111.88,96.13-122.31h5.76c4.01,8.48,8.87,27.75,10.27,71.63.34,10.57,12.21,10.57,12.74,0,2.19-43.87,6.96-63.15,10.73-71.63h5.3c54.75,10.44,96.13,64.72,96.13,122.31ZM228.15,104.26c-30.75-9.88-75.55-9.43-106.29,0-23.57,7.23-55.34,22.82-62.77,32.5-1.71-8.23-2.62-16.66-2.62-25.16V40h237.07v71.6c0,8.54-.92,17-2.64,25.27-7.72-9.75-41.31-25.72-62.74-32.6Z"/></svg>