<?xml version="1.0" encoding="UTF-8"?><svg id="a" xmlns="http://www.w3.org/2000/svg" viewBox="0 0 500 500"><circle cx="235.81" cy="254.19" r="10.82"/><path d="m140.49,117.71c-2.85-2.85-7.13-2.85-9.98,0-14.98,14.98-25.67,34.95-29.24,57.77-.71,4.28,1.43,8.56,7.13,8.56,3.57,0,6.42-2.14,7.13-5.71,3.57-19.97,12.12-37.8,24.96-50.64,2.85-2.85,2.85-7.13,0-9.98Z"/><path d="m280.83,243.38c-5.41,0-10.82,4.33-10.82,10.82,0,5.41,5.41,10.82,10.82,10.82s10.82-4.33,10.82-10.82-5.41-10.82-10.82-10.82Z"/><path d="m325.85,243.38c-5.41,0-10.82,5.41-10.82,10.82s5.41,10.82,10.82,10.82,10.82-5.41,10.82-10.82-5.41-10.82-10.82-10.82Z"/><path d="m250,0C111.93,0,0,111.93,0,250s111.93,250,250,250,250-111.93,250-250S388.07,0,250,0ZM117.98,278.41l-29.54,27.26v-124.16c0-53.58,43.32-96.9,96.9-96.9h45.6c37.06,0,69.57,20.64,85.75,51.78-4.3-.47-8.66-.73-13.08-.73h-45.6c-65.36,0-118.54,53.18-118.54,118.54,0,8.3.86,16.4,2.49,24.22h-24Zm282.55,99.94l-29.54-27.26h-112.97c-53.58,0-96.9-43.32-96.9-96.9s43.32-96.9,96.9-96.9h45.6c53.58,0,96.9,43.32,96.9,96.9v124.16Z"/><path d="m106.97,194.87c-3.57,0-7.13,3.57-7.13,7.13v14.26c0,3.57,3.57,7.13,7.13,7.13s7.13-3.57,7.13-7.13v-14.26c0-3.57-3.57-7.13-7.13-7.13Z"/><path d="m345.36,184.89c-2.74-2.06-7.54-2.06-9.6,1.37-2.06,2.74-2.06,7.54,1.37,9.6,20.56,14.39,34.27,36.33,37.7,60.32,0,3.43,2.74,5.48,7.54,5.48,4.11-.69,6.85-4.11,6.17-6.85-4.11-28.1-19.88-53.47-43.18-69.92Z"/></svg>