<?xml version="1.0" encoding="UTF-8"?><svg id="b" xmlns="http://www.w3.org/2000/svg" viewBox="0 0 350 500"><ellipse cx="175" cy="381.97" rx="5.37" ry="9.53"/><path d="m321.53,111.6V40h2.1c14.5,0,26.36-11.86,26.36-26.36V0H0v13.64c0,14.5,11.86,26.36,26.36,26.36h2.1v71.6c0,57.47,33.75,114.76,83.99,138.4-50.24,23.64-83.99,80.93-83.99,138.4v71.6h-2.1c-14.5,0-26.36,11.86-26.36,26.36v13.64h350v-13.64c0-14.5-11.86-26.36-26.36-26.36h-2.1v-71.6c0-57.47-33.75-114.76-83.99-138.4,50.24-23.64,83.99-80.93,83.99-138.4Zm-213.39,102.57c-.8-.63-.76-1.86.05-2.46l8.12-6.03c.68-.5,1.62-.37,2.15.29,7.53,9.46,12.5,13.87,19.18,18.68l-4.33,3.23c-9.98-4.11-16.67-6.95-25.17-13.7Zm185.39,174.23v71.6h-85.12l-25.86-44.63c-3.36-5.8-11.74-5.8-15.1,0l-25.86,44.63H56.47v-71.6c0-57.6,41.38-111.88,96.13-122.31h5.76c4.01,8.48,8.87,27.75,10.27,71.63.34,10.57,12.21,10.57,12.74,0,2.19-43.87,6.96-63.15,10.73-71.63h5.3c54.75,10.44,96.13,64.72,96.13,122.31Zm-39.44-184.69c-11.74-10.27-43.87-26.08-63.42-29.79-7.7-1.46-23.65-1.48-31.35,0-17.68,3.4-51.12,19.55-63.29,29.92-24.28-23.46-39.57-57.23-39.57-92.24V40h237.07v71.6c0,34.94-15.23,68.66-39.44,92.11Z"/></svg>