<?xml version="1.0" encoding="UTF-8"?><svg id="b" xmlns="http://www.w3.org/2000/svg" viewBox="0 0 350 500"><ellipse cx="175" cy="381.97" rx="5.37" ry="9.53"/><path d="m321.53,111.6V40h2.1c14.5,0,26.36-11.86,26.36-26.36V0H0v13.64c0,14.5,11.86,26.36,26.36,26.36h2.1v71.6c0,57.47,33.75,114.76,83.99,138.4-50.24,23.64-83.99,80.93-83.99,138.4v71.6h-2.1c-14.5,0-26.36,11.86-26.36,26.36v13.64h350v-13.64c0-14.5-11.86-26.36-26.36-26.36h-2.1v-71.6c0-57.47-33.75-114.76-83.99-138.4,50.24-23.64,83.99-80.93,83.99-138.4Zm-264.87,6.82h0c-.19-7.75,11.06-23.19,28.43-27.55,1.66-.42,3.25.89,3.22,2.59l-.22,20.32c-2.44,63.77,28.72,96.54,48.61,110.86l-4.33,3.23c-42.38-17.46-73.01-61.75-75.7-109.45Zm236.87,269.98v71.6h-85.12l-25.86-44.63c-3.36-5.8-11.74-5.8-15.1,0l-25.86,44.63H56.47v-71.6c0-57.6,41.38-111.88,96.13-122.31h5.76c4.01,8.48,8.87,27.75,10.27,71.63.34,10.57,12.21,10.57,12.74,0,2.19-43.87,6.96-63.15,10.73-71.63h5.3c54.75,10.44,96.13,64.72,96.13,122.31ZM205.32,55.91c-27.68-3.91-46.35-3.91-70.64,0-48.34,7.79-78.21,26.15-78.21,36.21v-52.13h237.07v52.13c0-10.06-40.7-29.49-88.21-36.21Z"/></svg>