<?xml version="1.0" encoding="UTF-8"?><svg id="b" xmlns="http://www.w3.org/2000/svg" viewBox="0 0 500 500"><path d="m250,40c56.09,0,108.83,21.84,148.49,61.51s61.51,92.4,61.51,148.49-21.84,108.83-61.51,148.49c-39.66,39.66-92.4,61.51-148.49,61.51s-108.83-21.84-148.49-61.51-61.51-92.4-61.51-148.49,21.84-108.83,61.51-148.49,92.4-61.51,148.49-61.51M250,0C111.93,0,0,111.93,0,250s111.93,250,250,250,250-111.93,250-250S388.07,0,250,0h0Z"/><path d="m350.19,90.5h-184.31c-8.8,0-15.95,7.15-15.95,15.95v287.09c0,8.81,7.15,15.95,15.95,15.95h184.31c8.8,0,15.95-7.14,15.95-15.95V106.46c0-8.8-7.15-15.95-15.95-15.95Zm-109.39,255.74h-15.15v15.14h-20.59v-15.14h-15.14v-20.59h15.14v-15.14h20.59v15.14h15.14v20.59Zm56.07,12.24c-5.5,5.51-14.43,5.51-19.94,0-5.51-5.51-5.51-14.44,0-19.94,5.51-5.51,14.43-5.51,19.94,0,5.51,5.51,5.51,14.43,0,19.94Zm25.14-25.14c-5.5,5.51-14.43,5.51-19.94,0s-5.51-14.44,0-19.94c5.51-5.51,14.43-5.51,19.94,0,5.51,5.51,5.51,14.44,0,19.94Zm2.77-70.18h-133.48v-132.65h133.48v132.65Z"/></svg>