<?xml version="1.0" encoding="UTF-8"?><svg id="a" xmlns="http://www.w3.org/2000/svg" viewBox="0 0 500 500"><path d="m161.37,228.64h71.03c4.33,0,8.66-4.33,8.66-8.66s-4.33-8.66-8.66-8.66h-71.03c-4.33,0-8.66,4.33-8.66,8.66s4.33,8.66,8.66,8.66Z"/><path d="m161.37,303.47h79.69c4.33,0,8.66-4.33,8.66-8.66s-4.33-8.66-8.66-8.66h-79.69c-4.33,0-8.66,4.33-8.66,8.66s4.33,8.66,8.66,8.66Z"/><path d="m161.37,191.22h85.91c4.33,0,8.66-4.33,8.66-8.66s-4.33-8.66-8.66-8.66h-85.91c-4.33,0-8.66,4.33-8.66,8.66s4.33,8.66,8.66,8.66Z"/><path d="m161.37,153.8h119.4c4.33,0,8.66-4.33,8.66-8.66s-4.33-8.66-8.66-8.66h-119.4c-4.33,0-8.66,4.33-8.66,8.66s4.33,8.66,8.66,8.66Z"/><path d="m161.37,340.89h94.57c4.33,0,8.66-4.33,8.66-8.66s-4.33-8.66-8.66-8.66h-94.57c-4.33,0-8.66,4.33-8.66,8.66s4.33,8.66,8.66,8.66Z"/><path d="m161.37,266.05h90.24c4.33,0,8.66-4.33,8.66-8.66s-4.33-8.66-8.66-8.66h-90.24c-4.33,0-8.66,4.33-8.66,8.66s4.33,8.66,8.66,8.66Z"/><path d="m333.39,208.86c-9.1,0-16.06,6.96-16.06,16.06s6.96,16.06,16.06,16.06,16.06-6.96,16.06-16.06-6.96-16.06-16.06-16.06Z"/><path d="m161.37,360.98c-4.33,0-8.66,4.33-8.66,8.66s4.33,8.66,8.66,8.66h119.4c4.33,0,8.66-4.33,8.66-8.66s-4.33-8.66-8.66-8.66h-119.4Z"/><path d="m250,0C111.93,0,0,111.93,0,250s111.93,250,250,250,250-111.93,250-250S388.07,0,250,0Zm95.38,114.84c-8.58,4.29-15.55,12.34-18.23,22.53l-49.34-49.34,67.58,26.82Zm15.2,292.33c0,2.89-2.89,5.77-5.77,5.77h-207.87c-2.89,0-5.77-2.89-5.77-5.77V83.81c0-2.89,2.89-5.77,5.77-5.77h101.63l79.11,79.11c2.31,2.31,5.77,1.73,6.35,1.15,2.31-.58,3.46-2.89,3.46-5.2,0-13.86,9.82-25.41,23.1-28.29v57.16h-75.64c-9.24,0-16.75,7.51-16.75,16.75v116.06h0c0,9.23,8.08,17.32,17.32,17.32h75.06v75.06Zm63.31-96.04c0,2.14-1.61,4.82-4.82,4.82h-129.04c-2.14,0-4.82-2.14-4.82-5.35v-23.82l20.88-19.81c3.75-3.21,9.64-3.21,12.85,0l14.46,13.92c5.35,5.89,16.06,5.89,21.95-1.07l23.02-28.91h0c3.75-5.35,11.78-5.89,14.46,1.07l31.05,54.61v4.55Zm.53-33.73l-21.42-38.02c-3.21-5.35-9.1-9.1-15.53-9.64-6.42-.54-12.85,2.14-17.13,7.5l-23.02,28.91c-1.61,1.61-3.75,2.14-5.89,0l-14.46-14.46c-7.5-7.5-19.81-7.5-27.84,0l-13.39,13.39v-62.11c0-2.14,1.61-4.82,4.82-4.82h128.5c2.68,0,5.35,1.61,5.35,4.28v74.96Z"/></svg>