<?xml version="1.0" encoding="UTF-8"?><svg id="d" xmlns="http://www.w3.org/2000/svg" viewBox="0 0 108 108"><g><circle cx="54" cy="54" r="53.5" fill="#ffd90f"/><path d="m54,1c29.22,0,53,23.78,53,53s-23.78,53-53,53S1,83.22,1,54,24.78,1,54,1m0-1C24.18,0,0,24.18,0,54s24.18,54,54,54,54-24.18,54-54S83.82,0,54,0h0Z"/></g><g id="e"><path id="f" d="m90.09,57.69c.63-1.03-.18-1.24-.37-1.24-.7-.03-1.49.07-1.54.96l-1.01,17.79-1.07.21.69-19.28c.05-1.39-2.96-2.17-2.77-1.44,1.87,7.04,1.86,15.13-1.97,21.51l-13.95,2.77c-.18.04-.63.53-.85.96-.08.15-.6,1.1.43,1.01.12-.58.52-.96,1.01-1.07l12.35-2.56c-3.03,3.15-5.48,3.68-6.82,3.73l-7.19.27c-19.85-20.62,2.99-46.53,20.13-60.71h1.6c.99,0,1.29-1.53.53-1.54l-34.14-.85-.37-9.75-.91-.21v1.07c-.55,0-.88.11-1.22.35-1.72,1.17-2.96-.12-4.9-.4-1.23-.18-2.66.96-2.88,1.12-.21.16-1.13.89-3.2-.8-.6-.49-1.8-.8-3.14-.8-2.33,0-4.14,3.94-5.75,1.65-.21.39-.47,1.49,1.6,1.7,1.29.14,2.92-.87,3.94-.85,2.41.05,2.29.81,2.93,1.38.29.28,2.47,1.66,4.47.64,1.61-.83,1.65-.79,2.18-.75.52.07.62,1.05,2.98,1.17.23.02.66,1.42,2.88,1.65l-.05,2.77-31.15-.8c-.86-.02-.63,1.6-.21,1.6h2.18c-2.06,38.03,17.81,57.17,24.28,62.36-11.28-.4-15.55-1.09-18-1.38-7.78-.93-10.58-12.73-10.7-13.26l4.31-4.58c.58-.62.73-1.2-.05-1.17l-3.78.16c-.74.03-.44,1.09-.32,1.38,0,0-.14.17-.69.16-.35-6.09.81-11.82,1.07-12.57.47-1.38.34-1.64-.05-1.92l-1.92-1.38c-.88-.78-1.21-.53-1.22-.32-.12,1.4.06,8.7.32,16.35-.45,0-.64-.27-.64-.27-.06-.92-.36-1.33-.69-1.33h-2.82c-1.03,0-.27.8-.27.8.97,1.18,4.01,4.23,4.53,4.74l.69,16.99c.25,6.02,5.49,7.03,7.08,7.03h55.44c3.98,0,4.21-4.27,4.21-4.27l.8-10.22,1.01-.21-.8,12.14c-.09,1.32.62,1.85,1.76,1.92,1.15.07,2.07-.7,2.18-1.6l.8-6.28c.19-2.7-.64-3.99-.91-4.37-1.45-2.03-1.31-3.69-1.28-4.26l.53-11.24c.16-3.38.56-4.45.69-4.67ZM53.82,10.17l-.05,4.37s-2.29-.54-2.29-2.34,2.34-2.02,2.34-2.02Zm-1.33,63.37l-.11,7.83-2.56-.05c-3.2-4.11-2.8-7.78,2.66-7.78Zm2.18.43c5.38,1.9,9.22,5.97,10.49,7.46h-10.65l.16-7.46Z"/></g></svg>