<?xml version="1.0" encoding="UTF-8"?><svg id="f" xmlns="http://www.w3.org/2000/svg" viewBox="0 0 108 108"><circle cx="54" cy="54" r="54" fill="#e40017"/><g><path id="g" d="m55.18,82.53s.01-.05.03-.05c.02,0,.04,0,.05.03,1.38,4.35,3.94,8.35,7.13,11.82,1.31-.53,2.72-1.03,4.15-1.58-5.41-4.73-10.03-11.01-11.37-18.29,0-.02.01-.04.03-.05.02,0,.04,0,.05.03,2.21,6.95,7.43,13.02,13.42,17.46,1.64-.7,3.27-1.51,4.76-2.56-7.98-4.76-16.37-13.04-18.27-23.3,0-.02.01-.04.03-.05.02,0,.04,0,.05.03,3.03,9.5,11.67,17.36,20.21,21.66,1.3-1.26,2.37-2.75,3.13-4.39-9.1-3.82-21.12-13.39-23.43-25.94,0-.02.01-.04.03-.05.02,0,.04,0,.05.03,3.51,11.03,14.59,19.84,24.29,23.44.58-2,.91-4.35.91-7.14-11.7-3.58-25.29-17.34-25.29-31.2h0v-8.64h-2.33v8.65c0,13.58-14.53,27.9-25.29,31.2,0,2.79.33,5.14.91,7.14,9.7-3.6,20.78-12.41,24.29-23.44,0-.02.03-.03.05-.03.02,0,.04.03.03.05-2.31,12.54-14.33,22.11-23.43,25.94.77,1.64,1.83,3.13,3.13,4.39,8.54-4.29,17.19-12.15,20.21-21.66,0-.02.03-.03.05-.03.02,0,.04.03.03.05-1.89,10.27-10.29,18.54-18.27,23.3,1.49,1.05,3.12,1.86,4.76,2.56,5.99-4.44,11.21-10.51,13.42-17.46,0-.02.03-.03.05-.03.02,0,.04.03.03.05-1.34,7.28-5.95,13.56-11.37,18.29,1.43.54,2.84,1.04,4.15,1.58,3.19-3.47,5.75-7.48,7.13-11.82,0-.02.03-.03.05-.03.02,0,.04.03.03.05-.84,4.58-2.98,8.76-5.8,12.41,3.36,1.56,5.8,3.62,5.8,7.83h0s2.33,0,2.33,0h0c0-4.22,2.44-6.27,5.8-7.83-2.82-3.65-4.95-7.84-5.8-12.42Z" fill="#ffcd00"/><ellipse id="h" cx="81.43" cy="36.24" rx="2.55" ry="2.59" transform="translate(43.77 117.03) rotate(-89)" fill="#ffcd00"/><path id="i" d="m89.62,49.57c-4.01,9.6-21.36,9.82-24.43-1.3,1.58,2.72,4.56,4.89,9.04,4.96,8.89.16,16.23-7.12,16.39-16.26,0-.43,0-.86-.03-1.29-.02-.38-.05-.76-.11-1.15-.14-1.14-.4-2.26-.78-3.34-.97-3.26-2.34-6.57-1.86-10.13,1.04.41,2.22-.11,2.63-1.15.41-1.04-.11-2.22-1.15-2.63-.22-.09-.46-.13-.7-.14-1.06-.02-1.99.56-2.61,1.84-.89,1.85-.26,4.6.44,6.61-2.89-3.28-5.61-5.45-11.65-5.45-4.97,0-14.29,1.5-16.28-3.75-.57.94-.89,2.01-.91,3.11-.13,4.43,5.01,5.06,5.28,5-5.96,5.74,1.2,13.64,7,9.02.51-.41,1.12-1.09,1.29-1.7-2.04.73-4.29-.34-5.01-2.38-.15-.42-.23-.87-.23-1.32,0-.22.02-.45.06-.67.68-3.24,4.06-5.53,9.82-5.49-6.43,1.32-5.84,7.21-4.36,7.59,0,0-.04-.33-.03-.5.04-2.49,2.71-4.87,6.57-4.87,4.61,0,7.5,3.56,8.55,5.48-3.04-2.3-7.38-1.7-9.68,1.35-.88,1.17-1.37,2.58-1.4,4.04-.02,1.38.65,3.83,3.11,4.14-2.85-3.83-.23-7.29,2.89-7.34,3.28-.05,5.75,2.77,5.75,6.05,0,5.26-5.42,8.91-11.08,8.91-2.38,0-4.83-.73-6.39-2.05,1.61-.48,2.72-1.94,2.75-3.62.04-2.12-1.65-3.91-3.78-3.91-4.71,0-5.82,4.97-5.82,7.41,0,18.17,25,20.36,23.49,28.08,1.17-.68,1.49-2.31,1.4-3.47-.3-3.94-7.32-7.77-8.82-8.79,1.86.66,13.09-2.21,10.63-10.91Z" fill="#ffcd00"/><path id="j" d="m19.18,17.16c3.32-.28,4.4,4.97-.19,8.72-.46.38-.91.42-.99.41.7-.53,2.17-3.29,1.83-5.24-1.33.19-2.15-.51-2.39-1.49-.29-1.17.6-2.31,1.75-2.4Z" fill="#ffcd00"/><path id="k" d="m50.43,19.52c-.02-1.1-.34-2.17-.91-3.11-1.99,5.25-11.31,3.75-16.28,3.75-9.38,0-15.97,7.69-15.81,16.82.16,9.13,7.5,16.41,16.39,16.26,4.28-.07,7.19-2.06,8.82-4.6-2.77,10.19-19.67,10.72-23.98.94-1.76,1.59-1.1,4.68.59,5.47-.89,3.96,5.62,6.43,9.11,5.17-2.47,1.23-10.68,7.66-6.72,12.52-1.53-7.84,23.53-9.92,23.53-27.7,0-1.68-.55-7.79-5.85-7.79-2.12,0-3.81,1.79-3.78,3.91.03,1.68,1.14,3.15,2.75,3.62-1.56,1.38-4.01,2.05-6.39,2.05-4.06,0-11.45-2.21-11.45-9.49,0-3.15,2.46-5.75,5.61-5.81,1.67-.03,3.27.67,4.37,1.92-1.27-.91-3.03-.61-3.94.66s-.61,3.03.66,3.94c.49.35,1.08.54,1.69.53,2.56-.05,2.85-2.79,2.88-2.65.66-3.6-1.72-7.06-5.33-7.73-.43-.08-.87-.12-1.32-.11-1.1.02-2.17.31-3.13.84,2.85-4.39,6.61-4.71,8.11-4.74,3.86-.07,6.53,2.39,6.57,4.87,0,.22-.02.45-.06.66,1.77-1.01,1.54-6.65-4.32-7.71,5.2-.13,9.11,2.11,9.81,5.45.04.22.06.44.06.67,0,2.17-1.76,3.92-3.93,3.92-.45,0-.89-.08-1.31-.23.17.62.78,1.3,1.29,1.7,5.8,4.62,12.97-3.28,7-9.02.26.05,5.4-.58,5.27-5h0Z" fill="#ffcd00"/></g></svg>