<?xml version="1.0" encoding="UTF-8"?><svg id="a" xmlns="http://www.w3.org/2000/svg" viewBox="0 0 500 500"><path d="m395.69,184.48c0-6.9-6.03-12.07-12.07-12.07H12.07c-6.03,0-12.07,6.03-12.07,12.07v268.97c0,25,21.55,46.55,46.55,46.55h368.97c-12.07-12.07-19.83-29.31-19.83-47.41V184.48ZM94.82,482.76h-32.76c-25,0-44.83-19.83-44.83-44.83v-32.76c0-4.31,4.31-8.62,8.62-8.62s8.62,4.31,8.62,8.62v32.76c0,14.66,12.93,27.59,27.59,27.59h32.76c4.31,0,8.62,4.31,8.62,8.62s-4.31,8.62-8.62,8.62Zm51.73,0h-17.24c-4.31,0-8.62-4.31-8.62-8.62s4.31-8.62,8.62-8.62h17.24c4.31,0,8.62,4.31,8.62,8.62s-4.31,8.62-8.62,8.62Z"/><path d="m439.65,103.45H77.58c-4.31,0-8.62,4.31-8.62,8.62v43.1h314.67c15.52,0,29.31,13.79,29.31,29.31v268.1c0,21.55,14.66,41.38,33.62,45.69h1.72V112.06c0-4.31-4.31-8.62-8.62-8.62h0Zm-155.18,34.49h-34.48c-4.31,0-8.62-4.31-8.62-8.62s4.31-8.62,8.62-8.62h34.48c4.31,0,8.62,4.31,8.62,8.62s-4.31,8.62-8.62,8.62Zm120.69,0h-86.21c-4.31,0-8.62-4.31-8.62-8.62s4.31-8.62,8.62-8.62h86.21c4.31,0,8.62,4.31,8.62,8.62s-4.31,8.62-8.62,8.62Z"/><path d="m489.65,68.1l-192.24.86c-11.21,0-21.55-6.03-26.72-15.52,0,0-23.28-46.55-24.14-46.55C245.69,1.72,241.38,0,237.07,0H46.54C40.51,0,34.47,6.03,34.47,12.07v143.1h17.24v-43.1c0-14.66,11.21-25.86,25.86-25.86h362.08c14.66,0,25.86,11.21,25.86,25.86v387.07c7.76-1.72,34.48-17.24,34.48-42.24V77.59c-.86-5.17-4.31-9.48-10.35-9.48h0Z"/></svg>