<?xml version="1.0" encoding="UTF-8"?><svg id="a" xmlns="http://www.w3.org/2000/svg" viewBox="0 0 500 500"><path d="m457.87,28.9c.82,2.46.82,17.22.82,17.22,9.84,3.28,16.4,12.3,16.4,22.96v98.4c0,4.1,4.1,8.2,8.2,8.2s8.2-4.1,8.2-8.2v-98.4c0-19.68-14.76-36.08-33.62-40.18Z"/><path d="m31.79,456.89l117.24,31.9-90.52-67.24c-4.31,14.66-13.79,27.59-26.72,35.34Z"/><path d="m361.96,0H16.27C12.82,0,8.51,4.31,8.51,8.62v439.65c19.83-4.31,34.48-21.55,34.48-42.24,0-3.45,1.72-6.03,4.31-7.76s6.9-.86,8.62.86l135.35,100.87h171.55c3.45,0,7.76-2.59,7.76-7.76V8.62C370.57,4.31,367.13,0,361.95,0h0ZM34.38,34.48h241.38c4.31,0,8.62,4.31,8.62,8.62s-4.31,8.62-8.62,8.62H34.38c-4.31,0-8.62-3.45-8.62-8.62s4.31-8.62,8.62-8.62Zm0,51.72h241.38c4.31,0,8.62,4.31,8.62,8.62s-4.31,8.62-8.62,8.62H34.38c-4.31,0-8.62-4.31-8.62-8.62s4.31-8.62,8.62-8.62Zm61.21,268.1c-.86,14.66-12.07,25-25.86,25h-18.97c-13.79,0-25-10.34-25-25v-19.83c0-12.93,11.21-24.14,25-24.14h19.83c13.79,0,25,11.21,25,25v18.97Zm0-86.21c-.86,14.66-12.07,25-25.86,25h-18.97c-13.79,0-25-10.34-25-25v-19.83c0-12.93,11.21-24.14,25-24.14h19.83c13.79,0,25,11.21,25,25v18.97Zm0-86.21c-.86,14.66-12.07,25-25.86,25h-18.97c-13.79,0-25-10.34-25-25v-19.83c0-12.93,11.21-24.14,25-24.14h19.83c13.79,0,25,11.21,25,25v18.97Zm145.69,180.18h-120.69c-4.31,0-8.62-4.31-8.62-8.62s4.31-8.62,8.62-8.62h120.69c4.31,0,8.62,4.31,8.62,8.62s-4.31,8.62-8.62,8.62Zm34.48,120.69h-17.24c-4.31,0-8.62-4.31-8.62-8.62s4.31-8.62,8.62-8.62h17.24c4.31,0,8.62,4.31,8.62,8.62s-4.31,8.62-8.62,8.62Zm77.59-17.24c0,10.34-7.76,18.1-18.1,18.1h-25c-4.31,0-8.62-4.31-8.62-8.62s4.31-8.62,8.62-8.62h25.86v-25.86c0-4.31,4.31-8.62,8.62-8.62s8.62,4.31,8.62,8.62v25Zm-8.62-137.93H120.59c-4.31,0-8.62-4.31-8.62-8.62s4.31-8.62,8.62-8.62h224.14c4.31,0,8.62,4.31,8.62,8.62s-4.31,8.62-8.62,8.62Zm-232.76-60.34c0-4.31,4.31-8.62,8.62-8.62h120.69c4.31,0,8.62,4.31,8.62,8.62s-4.31,8.62-8.62,8.62h-120.69c-4.31,0-8.62-3.45-8.62-8.62Zm232.76-25.86H120.59c-4.31,0-8.62-4.31-8.62-8.62s4.31-8.62,8.62-8.62h224.14c4.31,0,8.62,4.31,8.62,8.62s-4.31,8.62-8.62,8.62Zm-232.76-60.34c0-4.31,4.31-8.62,8.62-8.62h120.69c4.31,0,8.62,4.31,8.62,8.62s-4.31,8.62-8.62,8.62h-120.69c-4.31,0-8.62-3.45-8.62-8.62Zm232.76-25.86H120.59c-4.31,0-8.62-4.31-8.62-8.62s4.31-8.62,8.62-8.62h224.14c4.31,0,8.62,4.31,8.62,8.62s-4.31,8.62-8.62,8.62Zm-25.86-43.1c0-4.31,4.31-8.62,8.62-8.62s8.62,4.31,8.62,8.62-4.31,8.62-8.62,8.62-8.62-3.45-8.62-8.62Zm17.24-43.97v9.48c0,4.31-4.31,8.62-8.62,8.62s-8.62-4.31-8.62-8.62v-17.24c0-4.31,4.31-8.62,8.62-8.62s8.62-4.31,8.62-8.62-4.31-8.62-8.62-8.62-8.62,4.31-8.62,8.62-4.31,8.62-8.62,8.62-8.62-4.31-8.62-8.62c0-14.66,11.21-25.86,25.86-25.86s25.86,11.21,25.86,25.86c0,11.21-6.9,21.55-17.24,25Z"/><path d="m417.7,11.68c-13.94,0-24.6,10.66-24.6,24.6v123h49.2V36.28c0-13.12-10.66-24.6-24.6-24.6Z"/><path d="m393.1,175.68h49.2v147.6h-49.2v-147.6Z"/><path d="m417.7,471.68c14.76-42.64,22.96-87.74,24.6-132.02h-49.2c1.64,44.28,9.84,89.38,24.6,132.02Z"/></svg>