<?xml version="1.0" encoding="UTF-8"?><svg id="a" xmlns="http://www.w3.org/2000/svg" viewBox="0 0 500 500"><path d="m330.65,475.81h-40.32v-32.26h-80.65v32.26h-16.13v-16.13h-48.39v16.13h-16.13v-16.13H48.39v16.13H8.06c-4.03,0-8.06,4.03-8.06,8.06s4.03,8.06,8.06,8.06h322.58c4.03,0,8.06-4.03,8.06-8.06s-4.03-8.06-8.06-8.06Z"/><path d="m491.94,475.81h-129.03c-4.03,0-8.06,4.03-8.06,8.06s4.03,8.06,8.06,8.06h129.03c4.03,0,8.06-4.03,8.06-8.06s-4.03-8.06-8.06-8.06Z"/><path d="m145.16,233.87h48.39v16.13h-48.39v-16.13Z"/><path d="m145.16,266.13h48.39v112.9h-48.39v-112.9Z"/><path d="m145.16,395.16h48.39v16.13h-48.39v-16.13Z"/><path d="m145.16,427.42h48.39v16.13h-48.39v-16.13Z"/><path d="m404.03,474.19l61.29-18.55-4.03-16.13-62.1,19.35,4.84,15.32Z"/><path d="m395.16,443.55l61.29-19.35-4.84-14.52-61.29,18.55,4.84,15.32Z"/><path d="m209.68,411.29h80.65v16.13h-80.65v-16.13Z"/><path d="m385.48,412.9l61.29-19.35-60.48-200-61.29,18.55,60.48,200.81Z"/><path d="m290.32,120.97h-80.65v274.19h80.65V120.97Zm-16.13,243.55c0,8.06-6.45,14.52-14.52,14.52h-9.68c-4.03,0-8.06-4.03-8.06-8.06s4.03-8.06,8.06-8.06h8.06v-8.06c0-4.03,4.03-8.06,8.06-8.06s8.06,4.03,8.06,8.06v9.68Zm-24.19-50c-16.94,0-24.19-28.23-24.19-56.45s7.26-56.45,24.19-56.45,24.19,28.23,24.19,56.45-7.26,56.45-24.19,56.45Z"/><path d="m320.16,195.97l61.29-18.55-4.03-16.13-62.1,19.35,4.84,15.32Z"/><path d="m372.58,145.96l-4.84-15.32-62.1,18.55,4.84,16.13,62.1-19.35Z"/><path d="m209.68,88.71h80.65v16.13h-80.65v-16.13Z"/><path d="m209.68,40.32h80.65v32.26h-80.65v-32.26Z"/><path d="m145.16,72.58h48.39v16.13h-48.39v-16.13Z"/><path d="m193.55,41.94v-1.61h-48.39v16.13h48.39v-14.52Z"/><path d="m145.16,8.06h48.39v16.13h-48.39V8.06Z"/><path d="m145.16,104.84h48.39v112.9h-48.39v-112.9Z"/><path d="m48.39,88.71h80.65v32.26H48.39v-32.26Z"/><path d="m48.39,56.45h80.65v16.13H48.39v-16.13Z"/><path d="m48.39,411.29h80.65v32.26H48.39v-32.26Z"/><path d="m129.03,137.1H48.39v258.06h80.65V137.1Zm-64.52,29.84c0-8.06,6.45-13.71,13.71-13.71h10.48c4.03,0,8.06,4.03,8.06,8.06s-4.03,8.06-8.06,8.06h-8.06v24.19c0,4.03-4.03,8.06-8.06,8.06s-8.06-4.03-8.06-8.06v-26.61Zm50,107.26l-18.55,36.29c-2.42,4.84-10.48,7.26-14.52,0l-18.55-36.29,18.55-36.29c2.42-5.65,12.1-5.65,14.52,0l18.55,36.29Z"/><path d="m81.45,274.19l7.26,14.52,7.26-14.52-7.26-14.52-7.26,14.52Z"/><path d="m258.06,258.06c0,21.82-3.61,39.52-8.06,39.52s-8.06-17.69-8.06-39.52,3.61-39.52,8.06-39.52,8.06,17.69,8.06,39.52"/></svg>