<?xml version="1.0" encoding="UTF-8"?><svg xmlns="http://www.w3.org/2000/svg" viewBox="0 0 500 500"><g id="a"><path d="m379.03,435.48h-41.94c-3.23-9.68-12.1-16.13-22.58-16.13h-129.03c-10.48,0-19.35,6.45-22.58,16.13h-90.32c-4.03,0-8.06,4.03-8.06,8.06s4.03,8.06,8.06,8.06h306.45c4.03,0,8.06-4.03,8.06-8.06s-4.03-8.06-8.06-8.06Z"/><path d="m223.38,403.23h54.03c-5.65-9.68-9.68-20.16-12.9-32.26h-28.23c-4.03,12.1-8.06,23.39-12.9,32.26Z"/><path d="m25,354.84h450c5.65,0,8.87-4.03,9.68-8.87v-39.52H16.13v39.52c0,4.84,4.03,8.87,8.87,8.87h0Zm434.67-32.26c4.03,0,8.06,4.03,8.06,8.06s-4.03,8.06-8.06,8.06-8.06-4.03-8.06-8.06,4.03-8.06,8.06-8.06Zm-32.26,0c4.03,0,8.06,3.23,8.06,8.06,0,4.03-4.03,8.06-8.06,8.06s-8.06-4.03-8.06-8.06,4.03-8.06,8.06-8.06Zm-32.26,0c4.03,0,8.06,3.23,8.06,8.06,0,4.03-4.03,8.06-8.06,8.06s-8.06-4.03-8.06-8.06,4.03-8.06,8.06-8.06Z"/><path d="m491.94,435.48h-80.65c-4.84,0-8.06,3.23-8.06,8.06s3.23,8.06,8.06,8.06h80.65c4.84,0,8.06-3.23,8.06-8.06s-3.23-8.06-8.06-8.06Z"/><path d="m40.32,435.48H8.06c-4.84,0-8.06,3.23-8.06,8.06s3.23,8.06,8.06,8.06h32.26c4.84,0,8.06-3.23,8.06-8.06s-3.23-8.06-8.06-8.06Z"/><g><path d="m328.14,163.23c-5.51,0-9.92,2.63-12.75,7.61l-18.5,35.01-5.18,8.47-9.5,17.56c-6.7,12.75-19.45,20.73-34.1,21.34-14.23.62-26.91-5.64-34.8-17.17-2.64-3.81-6.65-5.93-11.27-5.93s-8.64,2.12-11.3,5.96l-37.64,54.24h273.03l-80.11-113.54c-8.78-11.91-13.79-13.56-17.89-13.56Z"/><path d="m176.78,226.41c5.84-8.44,15.05-13.28,25.27-13.28s19.43,4.84,25.28,13.29c4.52,6.61,11.82,10.18,20.07,9.82,8.55-.36,15.94-4.95,19.79-12.3l.05-.1,9.85-18.2,5.15-8.44,18.27-34.62c5.85-10.4,15.92-16.36,27.62-16.36s21.03,6.14,31.63,20.55l.1.14,87.07,123.41h37.74V57.26c0-5.65-4.85-8.87-8.88-8.87H25c-4.84,0-8.87,4.03-8.87,8.87v233.07h116.28l44.36-63.92Zm290.97-73.18c0,4.03-4.03,8.06-8.06,8.06s-8.06-4.03-8.06-8.06v-16.13c0-4.03,4.03-8.06,8.06-8.06s8.06,4.03,8.06,8.06v16.13Zm-56.45-88.71h39.52c9.68,0,16.94,7.26,16.94,16.94v23.39c0,4.03-4.03,8.06-8.06,8.06s-8.06-4.03-8.06-8.06v-24.19h-40.32c-4.03,0-8.06-4.03-8.06-8.06s4.03-8.06,8.06-8.06ZM56.45,274.2h-11.29c-6.45,0-12.9-5.65-12.9-12.9v-11.29c0-4.03,4.03-8.06,8.06-8.06s8.06,4.03,8.06,8.06v8.06h8.06c4.03,0,8.06,4.03,8.06,8.06s-4.03,8.06-8.06,8.06Z"/></g></g><g id="b"><g><path d="m180.83,103.65c2.42,0,4.71-1.01,6.03-2.34l5.68-5.68c1.59-1.59,2.46-3.66,2.46-5.85s-.88-4.26-2.46-5.85c-1.59-1.59-3.66-2.46-5.85-2.46s-4.26.88-5.85,2.46l-5.68,5.68c-1.59,1.59-2.46,3.66-2.46,5.85s.88,4.26,2.46,5.85c1.68,1.68,3.71,2.34,5.66,2.34Z" fill="#fff"/><path d="m147.88,84.44c4.35,0,8.31-3.96,8.31-8.31v-8.12c0-4.35-3.96-8.31-8.31-8.31s-8.31,3.96-8.31,8.31v8.12c0,4.35,3.96,8.31,8.31,8.31Z" fill="#fff"/><path d="m108.89,101.32c.56.56,2.12,1.92,4.4,2.38.51.1,1.02.15,1.53.15,2.09,0,4.1-.87,5.76-2.53,3.28-3.28,3.28-8.41,0-11.69l-5.68-5.68c-3.28-3.28-8.41-3.28-11.69,0h0c-3.28,3.28-3.28,8.42,0,11.69l5.68,5.68Z" fill="#fff"/><path d="m103.71,128.61c0-4.35-3.96-8.31-8.31-8.31h-8.12c-4.35,0-8.31,3.96-8.31,8.31s3.96,8.31,8.31,8.31h8.12c4.35,0,8.31-3.96,8.31-8.31Z" fill="#fff"/><path d="m114.74,153.43c-2.18,0-4.26.88-5.85,2.46l-5.68,5.68c-3.28,3.28-3.28,8.41,0,11.69,1.68,1.68,3.71,2.34,5.66,2.34,2.42,0,4.71-1.01,6.03-2.34l5.68-5.68h0c3.28-3.28,3.28-8.41,0-11.69-1.59-1.59-3.66-2.46-5.85-2.46Z" fill="#fff"/><path d="m147.88,172.77c-4.35,0-8.31,3.96-8.31,8.31v8.12c0,4.35,3.96,8.31,8.31,8.31s8.31-3.96,8.31-8.31v-8.12c0-4.35-3.96-8.31-8.31-8.31Z" fill="#fff"/><path d="m147.88,100.81c-15.58,0-27.79,12.21-27.79,27.79s12.21,27.79,27.79,27.79,27.79-12.21,27.79-27.79-12.21-27.79-27.79-27.79Zm0,40.59c-7.17,0-12.79-5.62-12.79-12.79s5.62-12.79,12.79-12.79,12.79,5.62,12.79,12.79-5.62,12.79-12.79,12.79Z" fill="#fff"/><path d="m186.86,155.89c-1.59-1.59-3.66-2.46-5.85-2.46s-4.26.88-5.85,2.46c-1.59,1.59-2.46,3.66-2.46,5.85s.88,4.26,2.46,5.85l5.68,5.68c1.68,1.68,3.68,2.52,5.72,2.52,1.91,0,3.87-.74,5.64-2.22,1.61-1.27,2.62-3.23,2.77-5.4.17-2.43-.74-4.89-2.44-6.59l-5.68-5.68Z" fill="#fff"/><path d="m208.46,120.3h-8.12c-4.35,0-8.31,3.96-8.31,8.31s3.96,8.31,8.31,8.31h8.12c4.35,0,8.31-3.96,8.31-8.31s-3.96-8.31-8.31-8.31Z" fill="#fff"/></g></g></svg>