<?xml version="1.0" encoding="utf-8"?>
<!-- Generator: Adobe Illustrator 27.2.0, SVG Export Plug-In . SVG Version: 6.00 Build 0)  -->
<svg version="1.1" id="a" xmlns="http://www.w3.org/2000/svg" xmlns:xlink="http://www.w3.org/1999/xlink" x="0px" y="0px"
	 viewBox="0 0 100 100" style="enable-background:new 0 0 100 100;" xml:space="preserve">
<style type="text/css">
	.st0{fill:#F4F4F4;}
	.st1{fill:#1D1D1B;}
	.st2{fill:#FFFFFF;}
	.st3{enable-background:new    ;}
</style>
<path class="st0" d="M0,91c0,4.9,4,9,9,9H91c4.9,0,9-4,9-9V34H0V91z"/>
<g>
	<path class="st1" d="M0.5,33.5V18c0-4.7,3.8-8.5,8.5-8.5H91c4.7,0,8.5,3.8,8.5,8.5v15.5H0.5z"/>
	<path class="st1" d="M91,10c4.4,0,8,3.6,8,8v15H1V18c0-4.4,3.6-8,8-8L91,10 M91,9H9C4,9,0,13,0,18v16h100V18C100,13,96,9,91,9L91,9
		L91,9z"/>
</g>
<path class="st2" d="M13.3,0L13.3,0c1.7,0,3,1.3,3,3v12c0,1.7-1.3,3-3,3l0,0c-1.7,0-3-1.3-3-3V3C10.3,1.3,11.6,0,13.3,0z"/>
<path class="st2" d="M23.3,0L23.3,0c1.7,0,3,1.3,3,3v12c0,1.7-1.3,3-3,3l0,0c-1.7,0-3-1.3-3-3V3C20.3,1.3,21.6,0,23.3,0z"/>
<path class="st2" d="M77.3,0L77.3,0c1.7,0,3,1.3,3,3v12c0,1.7-1.3,3-3,3l0,0c-1.7,0-3-1.3-3-3V3C74.3,1.3,75.6,0,77.3,0z"/>
<path class="st2" d="M87.3,0L87.3,0c1.7,0,3,1.3,3,3v12c0,1.7-1.3,3-3,3l0,0c-1.7,0-3-1.3-3-3V3C84.3,1.3,85.6,0,87.3,0z"/>
<g class="st3">
	<path d="M30.1,59l-0.1,0L22.4,80h-3.8L11,59l-0.1,0l0.5,12.5V76l3,0.6V80H2.7v-3.4l3-0.6V55.6l-3-0.6v-3.4h3h7.4l7.2,21h0.1l7.3-21
		h10.5V55l-3,0.6V76l3,0.6V80H26.6v-3.4l3-0.6v-4.5L30.1,59z"/>
	<path d="M40.1,76.6l2-0.3l8.7-24.7h5.8l8.6,24.7l2,0.3V80h-9.7v-3.4l2-0.4l-1.2-3.9H49l-1.2,3.9l2,0.4V80h-9.7V76.6z M50.4,68.1
		h6.5l-3.2-10h-0.1L50.4,68.1z"/>
	<path d="M98.2,51.6V55l-3,0.6V80h-5.7L77.9,60.9l-0.1,0V76l3,0.6V80H69.1v-3.4l3-0.6V55.6l-3-0.6v-3.4h3h5.7l11.5,19.1l0.1,0V55.6
		l-3-0.6v-3.4h8.7H98.2z"/>
</g>
</svg>
