<?xml version="1.0" encoding="UTF-8"?><svg id="c" xmlns="http://www.w3.org/2000/svg" viewBox="0 0 100 50"><polygon points="54.79 19.2 59.22 14.77 54.77 10.54 53.3 12.09 56.16 14.81 53.28 17.69 54.79 19.2"/><polygon points="43.14 14.81 46 12.09 44.53 10.54 40.08 14.77 44.51 19.2 46.02 17.69 43.14 14.81"/><polygon points="52.99 9.41 50.69 9.41 46.31 20.31 48.61 20.31 52.99 9.41"/><path d="m54.61,41.42c2.63-1.29,2.83-1.34,2.74-2.46-.07-.95,0-1.2-1.15-.58-3.16,1.72-9.6,3.92-12.89,4.94-.99.3-2.15,1.26.1,3.93,4.16,4.93,11.03,2.8,13.11-2.96.58-1.62.48-2.21-.81-1.54-.92.48-2.32,1.23-3.74,1.83-3.41,1.44-4.12,1.75-5.1.29,1.31-.58,2.7-1.31,4.21-1.94,1.7-.7,3.54-1.51,3.54-1.51Z"/><path d="m36.61,50c-1.33-2.17-1.7-4.11-1.62-5.71H5.71v-19.29C5.71,14.37,14.37,5.71,25,5.71h0s5.1,0,5.1,0C30.98,3.59,32.18,1.68,33.64,0h-11.05c-12.47,0-22.58,10.11-22.58,22.58v27.42h36.61Z"/><path d="m69.2,5.71h25.08v38.57h-30.41c-.16,1.08-.47,1.95-.65,2.43-.42,1.17-.97,2.27-1.62,3.29h38.39V0h-34.34c1.46,1.68,2.66,3.59,3.54,5.71Z"/><path d="m41.9,33.32c-.92.06-.57.19-.43,1.87.07.82,1.4.61,2.04.58,6.23-.27,7.16-.51,7.03.69-.9.29-2.79.96-5.07,1.51-4.13,1.01-4.21.88-4,2.22.13.85.1,1.27,1.12,1.1,1.58-.26,3.21-.9,4.72-1.41,4.76-1.61,6.56-2.39,9.97-4.24.16-.09.25-2.26.07-2.39-.26-.19-1.17-.35-1.31-.51,0,0-.12.02-.11-1.13h0c0-6.68,7.85-8.61,7.85-17.06S57.45,0,49.65,0s-14.13,5.82-14.13,14.55,7.85,10.62,7.85,17.06c0,1.58-.39,1.64-1.47,1.71Zm.36-10.85c-1.92-2.29-3.57-4.27-3.57-7.84,0-6.58,4.61-11.36,10.97-11.36s10.97,4.78,10.97,11.36c0,3.36-1.61,5.3-3.48,7.55-1.45,1.74-3.05,3.67-3.67,6.28-.94.02-2.2.03-3.72.03-1.66,0-2.98-.01-3.93-.03-.62-2.46-2.16-4.31-3.56-5.98Z"/></svg>