<?xml version="1.0" encoding="UTF-8"?><svg id="c" xmlns="http://www.w3.org/2000/svg" viewBox="0 0 100 50"><path d="m46.47,27.39s-.55-.97-.48-.9c-.02-.04-.1-.15-.23-.32.53-.47,1.86-2.27,2.16-2.74.33-1.21.36-2.16.8-3.24.95.24,1.8-.3,1.78-1.31.35-.72,1.85-1.7,2.07-2.45,0,.02.03-.68.04-.61-.01-.32-.16-.91-.17-1.06.98-.02.9-1.25,1.67-1.75-.02-.02.34-.21.77-.45.63,1.22,1.24-.09,1.35-.84.08-.89.25-.75,1.05-.64.77.27,1.82,1.27,2.43.21-.43-.13-.01-.69,0-.78.1-.37,0-1.07.09-1.53.46-.08.98.18,1.32.15-.02-.44.03-.52.32-.8.92-.08,1.16,1.95,1.71,2.49.31.08.62.21.92.4.36.07.89-.38,1.37-.64.36.41,1.06.87,1.56,1,.04-.35.84-1.06,1.03-1.4.5-.07.31-.93.37-1.39-.02-.83.41-2.37,1.1-2.82.07-.1.11-.18.12-.24.29.15.89.13,1.18-.13.22-.23.43-.33.86-.24.18.28.3.5.61.75.02,0,.45.26.52.36.47-.02.76.87.91,1.1-.03.66-1.23,1.37-.39,2.08.27.44.52-.68.58-.88-.04-.2.17-.4.29-.43.05-.05.08-.09.07-.12.26-.13.66-.27.73-.59.02-.24-.01-.24.07-.47,0,0,0,0,0,0,0-.05.03-.11.02-.16.27-.05.76.75,1.03.22,0,0,0,0,0-.01.34-.55-.08-1.3-.72-1.1-.05.07-.21-.49-.35-.23-.14.86-.23-.05-.29-.07-.13-.12-.27-.04-.41-.11-.19-.6,0-.43.46-.54.11-.56,1.19-.79,1.29-1.26.06-.09.23-.25.16-.39-.17-.32-.69-.48-1-.56-1.09.38.29-.51-.54-.69-.52.28-.31-.35-.81.12-.35-.01-.25-.63-.45-.76-.21-.12-.63-.22-.72.08-.21.25-.11.42-.29.76,0,0-.28-.1-.29-.11-.48-.17-.33-.37.05-.46.09-.22.33-.89-.16-.81,0-.08.09-.25-.03-.27-.05-.06-.12-.11-.14-.1-.45.37-.47-.59-.83,0-.11.35-.21.25-.52.29-.07.13-.14.39-.1.52.04.05.43.03.38.25-.28.26-.51.42-.46.8-.02.06-.1.17-.09.18,0,.02-.03.31-.04.38-.06.08-.31.2-.38.35-.19-.03.03-.5-.02-.58,0-.23-.38-.18-.15-.53.26-.16.17-.66.21-.9-.29-.46-.63.31-.82.5-.03-.02-1.49,1.37-1.28.86.25-.35.64-.68.89-1.1.08-.17-.18-.16-.3-.28.15-.16.51-.15.64-.25.16-.17.21-.49-.13-.31.04-.35-.27-.46-.57-.52-.06.11,0,.22-.12.29-.23.09-.63-.02-.24.34.02.02.02.08.04.15-.37.01.03.49-.21.58-.07-.36-.67-.39-.68-.71.36-.2.07-.86-.24-.32.33.31-.48.47-.05.74.15.54-.47-.01-.45.33.02.33.43.45.39.68-.31-.08-.16.41-.18.69-.35.2-.35-.51-.39-.54-.35-.08-.52-.65-.72-.53-.13.71-1.99,1.25-1.21,1.98-.03.03.44-.14.6-.13.24.12-.23.33-.1.54-.03.06-.07.24.02.36.04,0-.12.19-.05.24.04.03.16.08.11.16-.37.6-.23-.77-.68-.36-.29-.09.23-.19.08-.32-.3-.15-.34-.62-.44-.88-.25-.15-.22.34-.16.48-.02.03-.04.04-.07.03.03.03-.34-.19-.34-.18-.14,0-.68-.95-.71-.51-.15.35-.87.33-.85.67-.19.31.75.68.1.82-.18.11-.26.62-.29.54-.08.11-.15.17-.21.19.02-.15.25-.43.2-.42.19-.54-.37-.29-.4-.61.38-1.23-1.15-.69-.55.22.22.04.6.26.53.64-.2.24-.17-.23-.32-.2-.08-.07-.32.61-.29.05.02-.82-.6-.02-.84.21-.34.23-.06.6-.26.9-.25-.03.17-.8-.19-.88-.25-.15-.48.22-.76.2-.21-.26-.63-1.08-.66-.35-.01,0-.02,0-.02,0-.12-.05-.69.24-.3.34.03.15-.13.08-.25.11-.04.09-.21.19-.28.16-.14.07.08.48.05.54-.03.15-.1.24-.21.28-.25-.44-.36-.96-.95-.56-.39-.04-.29.12-.3.48-.2.09-.56-.22-.51.25-.33.08.03.42.08.57-.02.11-.28-.1-.32.03.17.27-.56.75.05.64-.01.27.18.19.28.08.27-.13.68-.47.88-.15-.31.09-.65.11-.62.44.14.22.39.67,0,.78.09-.16.09-.63-.23-.47-.05,0-.12.01-.15.06.02-.02-.11.12-.09.2.39.44.17.68-.39.57-.14.09-.26.19-.44.23-.18-.19.13-.68.06-.85-.1-.1-.62-.92-.55-.3-.09.26-.4.29-.11.61-.01,0-.03.02-.05.03-.28.04-.45.43-.73.53-.07-.21.5-.32.39-.56.04-.11.1-.37.04-.54-.02-.23.39-.42.25-.53-.16.02-.23.02-.23.02,0,0-.02,0-.04,0-.03-.04-.04-.08-.01-.12.13-.21.86-.91.6-1.23-.58-.13-.87.81-1.3,1.13-.19.23.08.53.05.75-.02.13-.14.19-.31.13-.02-.02-.03-.03-.03-.04-.02.01.08-.17.08-.24.01-.02,0-.12-.06-.31.14-.77-.3-.47-.45.03-.05,0-.29.33-.42.29-.08-.03-.18-.2-.29-.13-.36.26-.59,1.04.18.85l-.05.04c.24.15-.17.12-.18.13-.31.33.31.64.51.25.22-.09.45-.41.71-.4-.07.21-.5.36-.48.84-.21.03-.27-.17-.57-.05-.02-.05-.61,0-.59.07-.05.07-.36.25-.32.23-.04.04-.07.07-.04.11-.12.35-.36-.13-.47-.23-.08-.12-.52.04-.53.03-.21.07-.34.27-.47.42-.45-.03-.69.29-1,.57.02,0-.38.55-.36.52-.03.66.92-.43,1.23-.51.47.12.8-.3,1.25-.42.02.26.26.25.43.16.22.07.69-.25.86-.38.06.01.19.15.19.13.2.06.42-.14.63-.07.42.47.54-.42.77-.41.03.54.25-.07.49-.12.22.03-.15.25-.13.35-.1.49.92-.33.35.2-.13.08-.1.29.04.31,0,0,.04.03.11.1-.06.29-.69-.61-.44.18.02.01-.09.13,0,.14.11.01-.16.04-.16-.04-.01-.19-.02-.23-.14-.15,0,0,0,0,0,0-.26.04-.28.63-.63.56.09-.16.16-.17.03-.32-.41-.4-1.13.97-.35.5.12.33-.32.75-.53.44,0-.2-.04-.29-.19-.3-.24.11-.45.54-.74.51-.12.07.02.23.11.26,0,.03.02.07,0,.1-.78,1.01.72-.06,1.04,0,.37.16-.4.39-.44.47-.06.16-.03.19-.19.32-.15-.06-.47-.09-.55.11-.3.08-.53.64-.82.81-.21.1-.23.7-.39.73-.13.09-.11-.1-.13-.17-.33-.22-.56.56-.71.61-.07.04-.32.02-.29.03-.62.15-.37.06-.07.54.05.53-.41-.2-.58-.04-.7.32.12.31.09.54.04.11-1.57-.21-.73.25.19.17.07.39.11.64-.22-.24-.46-.49-.72-.46-.3.1.31.29.34.41-.03.18-.36-.03-.48.09-.25.24.11.32.24.33.4.39-.28.4-.41.26-.11-.04-.29.12-.3.29-.09.29-.32-.21-.53-.05.01,0-.31.17-.28.16-.12.14.2.17.21.17.08.02.03.08-.01.11v-.06c-.19.07-.32.27-.44.41-.03.12-.1.8.14.42.22.18-.05.55.12.68.1-.33.18-.56.55-.72-.03.16-.11.28-.25.48,0,.39-.47.28-.63.47.1.27-.25.43-.34.6-.1.2-.34.19-.4.4.13.06,0,.29.04.36.02.03-.28.25-.19.34.19.03.14.12.1.28-.22.33-.41-.13-.65.12-.25.31-.72.85-1.18.67-.1-.07-.11-.3-.27-.32-1.03.08-1.31.41-.02.58.25.72-.02.44.66.38,0,.05,0,.11,0,.16-.03.02-.06.03-.1.05-.17.09-1.03-.02-.97.32,0,0-.14.32-.18.09-.01-.05-.05-.1-.08-.06-.1.29-.19.37-.47.32-.13.04.03.3-.13.3-.27-.13-.58-.42-.55.09.05,0-.22.28-.17.43-.49.08-.71.46-.99.73.03.03-.22.06-.23.18-.01,0,.05.06.19.16-.13.47-1.33.21-1.18.95,0,0,.01-.01.02-.02.2.42-.61.38-.66.39-.24.04-.29.19-.14.34-.03.26-.46-.11-.44-.07-.3.01-.52-.16-.72-.13-.04.1-.21.23-.33.07.02-.38.69-.11.9-.04.53.06.49-.64-.03-.61-.3-.47-1.19-.02-1.26.38.17.14.19.52.3.72-.04.29-.21.13-.36.03-.27-.06-1.11-.3-.93.11.26.39-.37.38-.33.77-1.16.02.07-.24.09-.61-.14-.29-.78.07-.99.09-.25.02-.99-.02-1.09.42-.5-.23-.55.42-.1.38-.04.21.57.32.56.4.24.16.06.24.21.43-.39-.09-.8-.05-1.06-.31.21-.16.04-.59-.32-.5-.28.33-.44.15-.79.38-.07,0-.1.03-.1.07.44.55-.56.25-.31-.16-.24-.07-.31.5-.26.63.31.24.73.08,1.07.14.33.38-.79.22-.77.21-.19-.03-.29-.18-.51-.28-.05-.22-1.27-.46-1.02-.16.02.09.57.14.37.28-.14-.09-.84.19-.47.3-.06.3-.51.03-.53,0-.02-.02-.03-.05-.04-.09.08-.5-.29-.14-.49,0-.02.23.2.56.35.71-.06.09-.38.12-.36.14-.24.13.15.27.15.34.06.47-.52-.17-.52-.17-.18-.1-.26-.2-.36-.11-.58.61-.37.39.25.6-.08.07-.14.15-.18.23-.11.06-.16.09-.16.1-.18.09.14.28.11.3.01.05.13.27.06.38h0s-.12.15-.11.23c-.34.11-.93.3-.68.53h0c.3.35-.24.38-.36.6-.49.09-1.27.49-.16.55.2-.09.25-.09.21.18,0,0,0,0-.01,0,0-.02-.06.15-.13.16-.14.04-.55-.13-.42.31.02.03-.28.89-.1.7.36-.22.9-.42.85.25-.25-.29-.36-.46-.44,0-.09-.07-.49-.33-.41.02-.09.07-.04.44-.06.46.04.25.21.53.01.65-.25-.57-.65.39-.57.67-.02.02.4.51.29.48-.1-.06-.15-.07-.15-.05-.03.01-.05.04-.07.08.05.22-.15.32-.29.52-.1.38.69.01.6.32-.1.07-.15.11-.14.11.01.09-.07.3-.07.3,0,.06-.03.41.13.42.06.12.12.29-.07.22-.12.25-.26.19-.46.41-.03.02-.5.14-.43.33-.12.18-.08.5-.18.7-.03.09-.47.5-.27.75.56-.43.51.6.54.94-.18.01-.57.98-.57.99.12,3.05,3.98,3.91,6.48,3.6.21-.03.31-.05.32-.07.31-.29.78-.36.99-.79,0,0,.01,0,.02,0,.43-.32,1.25-1.1,2-.7.44.02.61-.33.92-.39.05.16.05.15.18.07.04-.17.71-1.55,1.13-1.72.66-.78.06,1.6.45,1.83.87-.31.16.22.54.62.12,2.44,1.39-1.8,1.32-1.82.09-.22.65-.66.67-1.12,1.45-.06,1.95-1.78,2.06-2.87l-.03-1.96c.49.01.97-.07,1.07-.68,1.1-1.15-.44-1.5-.55-2.61.5-.61.73-2.31.71-3.13-.12-1.23.82-1.79.42-3.25.75-.62,1.41-2.36,2.29-2.68,1.32-.5,2.78,1.09,2.98-1.12Zm28.62-20.42h0s0,0,0,0c0,0,0,0,0,0Zm-6.74-5.82s-.01.02-.02.03l-.03-.02s.03,0,.04,0Zm-.3.57s-.01.02-.02.03l-.07.16v-.11s.05-.05.09-.08Zm-12.9,8.09c.09.02.38.03.27.2-.09,0-.2-.2-.27-.15,0,0-.01-.01-.02-.01,0-.01,0-.02.01-.03Zm-30.85,37.97h0s.05.03.08.05c-.03-.02-.05-.03-.08-.05Zm10.7-18.75s0,0,0,0c0,0,0,0,0,0,0,0,0,0,0,0Zm8.23-5.48h0s0,0,0,0h0Z"/><path d="m22.06,43.14s-.05.02-.1.08c-.04.05-.06.09-.05.13,0,.01,0,.03.01.04.05.08.08.14.09.17,0,.02.01.04.02.06,0,0,.01.05.03.11,0,.01,0,.02,0,.02,0,.02.03,0,.08-.05.04-.06.08-.11.09-.17l.03-.03c.04-.14.03-.24-.03-.29-.03-.03-.09-.05-.17-.07Z"/><path d="m23.17,41.72s-.03.06-.04.09c-.01.02-.02.1-.04.24-.03.11-.04.17-.04.17,0,.03,0,.06.01.08.05.05.1.06.16.03.02-.01.03-.03.04-.05,0,0,.02-.06.05-.17,0,0,0-.01.01-.02.01-.02.04-.02.07-.03.02,0,.07,0,.15.01.01,0,.03,0,.04-.01.04-.03.06-.09.05-.18l.04-.04c0-.19-.02-.31-.07-.36-.02-.04-.06-.06-.12-.07-.07-.01-.11,0-.13.02,0,0,0,.01-.01.02-.02.05-.03.08-.04.09,0,0-.04.06-.12.16Z"/><path d="m23.77,38.54s0,.03,0,.04c.01.03.05.04.1.04.07,0,.11-.01.12-.04.03-.05.04-.17.02-.36v-.06s0-.08,0-.12l-.04-.22s0-.08,0-.18c0-.02,0-.04-.01-.05-.02-.03-.06-.03-.12,0-.05.04-.07.09-.07.15,0,.02,0,.05,0,.08.03.12.04.19.04.21,0,.04,0,.09,0,.13,0,.07,0,.13-.01.18,0,0-.01.07-.04.2Z"/><path d="m24.12,37.09s-.03-.05-.07-.06c-.04,0-.08,0-.11.02-.03.01-.05.05-.06.1-.02.06-.03.1-.02.15.01.05.04.09.07.12.02,0,.05-.03.07-.08l-.03.02s.08-.08.11-.13c.03-.05.04-.09.04-.12Z"/><path d="m34.11,28.14s-.05,0-.08,0c-.1.04-.25.07-.45.11-.03,0-.06.02-.09.03-.1.04-.15.1-.16.18,0,.03.03.05.06.07.01,0,.09.02.23.04.02,0,.04.01.05.03.01,0,.02.03.03.05.02.11.03.17.04.19.02.04.05.07.09.08.09.02.21-.04.36-.19h-.04c.11-.13.16-.27.18-.41-.02-.12-.09-.19-.22-.2Z"/><path d="m35.03,27.67c.06.02.11.04.15.05.03.01.1.05.2.1.02,0,.03.02.05.02.05.02.1.02.16.02.21-.03.34-.09.37-.18.02-.06.02-.12-.02-.18-.04-.07-.09-.11-.15-.13-.03,0-.05-.01-.07-.01-.13.02-.22.03-.26.03-.04,0-.18,0-.42,0-.04,0-.08,0-.12.01-.08.02-.12.04-.15.08-.03.04-.01.08.03.12h-.08c.11.01.21.03.31.06Z"/><path d="m42.15,23.15s-.04.08-.06.13c0,.02,0,.04.02.05,0,0,.03,0,.05,0,0,0,.03,0,.1,0,.01,0,.02,0,.04,0,.01,0,.03,0,.05.01l.12.05s.04,0,.06,0c.13-.06.2-.14.2-.23l.05-.02c-.08-.08-.16-.12-.24-.14-.04-.02-.12,0-.23.03-.08.03-.13.07-.17.11Z"/><path d="m43.82,20.9c-.11-.07-.21-.1-.32-.09-.1.02-.17.07-.22.17-.04.1,0,.19.1.26.05.03.11.05.16.05.01,0,.03,0,.05,0,.09-.02.14-.03.16-.03.03,0,.06.01.08.03.01.01.03.03.03.06,0,.11.01.16.02.16,0,.02.02.04.05.07l.05-.11c.11-.07.16-.14.16-.2,0-.01-.01-.03-.02-.04l-.19-.23s-.07-.07-.1-.09Z"/><path d="m44.08,19.96s-.07-.03-.09,0c-.01,0-.02.02-.03.03l-.11.17s-.03.08-.03.1c.01.08.08.09.19.01l.03-.02c.08-.07.11-.13.1-.19,0-.04-.03-.07-.06-.09Z"/><path d="m44.56,17.64s.04.09.09.22c0,.02.02.03.03.04.04.04.11.02.23-.05l.17-.02c.06-.12.06-.24,0-.34-.03-.05-.1-.11-.19-.17-.06-.04-.12-.06-.17-.05-.06,0-.12.03-.18.09-.05.04-.06.09-.05.13l.09.16Z"/><path d="m58.1,4.79c-.1.04-.16.07-.18.08-.02.01-.04.03-.03.04,0,0,0,.02.01.03.04.04.06.06.07.08l.07.13s.02.03.04.04c.01.01.04.02.07.02.04.02.07.05.1.08.02.01.05.07.1.17.01.02.03.04.04.05.06.04.1.06.15.05.02,0,.04-.01.07-.03l.23-.16s.1-.09.2-.21c0-.01.07-.05.2-.12.03-.02.05-.04.07-.07.05-.09.06-.16.05-.19,0,0,0,0,0,0,0-.03,0-.06-.05-.09-.07-.05-.14-.09-.22-.12-.04-.01-.08,0-.14.01-.01-.03-.04-.07-.07-.13,0-.02-.01-.05-.01-.07,0-.02,0-.04.01-.05.03-.09.05-.15.05-.17l.04-.21s.03-.09.09-.24c.01-.03.02-.07.02-.09,0-.08-.04-.12-.11-.14-.11-.02-.19.02-.23.1,0,0-.02.06-.04.16-.04.11-.06.18-.06.21,0,.02,0,.05-.01.07,0,.11,0,.17-.01.19,0,.02-.03.11-.08.27,0,.01,0,.02,0,.03-.01,0-.02,0-.03-.02,0,0-.01-.02-.02-.04l-.02-.11s0-.02-.02-.02c-.04-.03-.06-.05-.07-.05,0,0-.02-.04-.04-.12,0-.02-.02-.03-.03-.04-.06-.03-.14,0-.24.06-.03.02-.05.06-.08.12-.04.09-.05.14-.04.16,0,.01.01.03.03.04l.21.17s.02.02.03.04c0,.01-.02.03-.03.04-.02.02-.04.03-.06.04Zm.15.02l.16-.13-.15.23v-.1s0,0,0,0Z"/><path d="m59.24,4.34c.07.03.12-.01.16-.13l.02.04c.08.07.13.12.15.15.02.02.03.05.05.08l.07.18s.06.07.09.08c.02,0,.07-.01.14-.06.06-.04.09-.07.11-.1.03-.08.03-.17-.01-.25-.04-.08-.1-.17-.17-.27-.01-.02-.07-.08-.17-.17-.02-.02-.03-.03-.04-.04-.01-.02-.02-.04-.03-.07v-.11s-.03-.03-.06-.04c-.07,0-.11.01-.13.06-.02.01-.04.11-.07.3-.01.04-.02.06-.04.08-.01.01-.03.02-.05.02-.08,0-.13.01-.14.02-.02,0-.03.02-.04.03,0,.11.05.18.16.22Z"/><path d="m5.71,44.29v-19.29C5.71,14.37,14.37,5.71,25,5.71h0s5.1,0,5.1,0h0s12.39,0,12.39,0l2.17-5.71h-19.28,0s0,0,0,0h-2.8C10.11,0,0,10.11,0,22.58v27.42h16.77c-1.85-2.71-1.9-5.51-1.92-5.71H5.71Z"/><path d="m82.83.64c.65,1.44.79,3.07.41,4.62.03.15.04.3.06.45h10.99v38.57h-47.72c-.06.33-.13.63-.2.89-.08.45-.19.98-.39,1.55h0c-.32.9-.78,1.76-1.4,2.61l-.13.17-.13.16c-.1.12-.22.22-.33.33h56.02V0h-17.49c.12.21.23.42.32.64Z"/></svg>