<?xml version="1.0" encoding="UTF-8"?>
<svg id="b" xmlns="http://www.w3.org/2000/svg" viewBox="0 0 100 50.02">
  <g>
    <path d="m37.16,47.24c-3.07-.09-6.07-1.11-8.56-2.95H5.71v-19.29C5.71,14.38,14.37,5.72,25,5.72h3.6c2.49-1.84,5.49-2.86,8.56-2.95.62-1.01,1.36-1.93,2.19-2.77h-16.77C10.11,0,0,10.12,0,22.59v27.42h39.35c-.83-.83-1.57-1.76-2.19-2.77Z"/>
    <path d="m60.65,0c.83.83,1.57,1.76,2.19,2.77,3.07.09,6.07,1.11,8.56,2.95h22.89v38.57h-22.89c-2.49,1.84-5.49,2.86-8.56,2.95-.62,1.01-1.36,1.93-2.19,2.77h39.35V0h-39.35Z"/>
  </g>
  <circle cx="50" cy="25.01" r="10.65"/>
  <path d="m50,12c-1.1,0-2-.9-2-2V2c0-1.1.9-2,2-2s2,.9,2,2v8c0,1.1-.9,2-2,2Z"/>
  <path d="m50,50.02c-1.1,0-2-.9-2-2v-8c0-1.1.9-2,2-2s2,.9,2,2v8c0,1.1-.9,2-2,2Z"/>
  <path d="m36.99,25.01c0,1.1-.9,2-2,2h-8c-1.1,0-2-.9-2-2s.9-2,2-2h8c1.1,0,2,.9,2,2Z"/>
  <path d="m75.01,25.01c0,1.1-.9,2-2,2h-8c-1.1,0-2-.9-2-2s.9-2,2-2h8c1.1,0,2,.9,2,2Z"/>
  <path d="m40.8,15.81c-.59.59-1.54.59-2.12,0l-4.95-4.95c-.59-.59-.59-1.54,0-2.12s1.54-.59,2.12,0l4.95,4.95c.59.59.59,1.54,0,2.12Z"/>
  <path d="m66.27,41.28c-.59.59-1.54.59-2.12,0l-4.95-4.95c-.59-.59-.59-1.54,0-2.12s1.54-.59,2.12,0l4.95,4.95c.59.59.59,1.54,0,2.12Z"/>
  <path d="m40.8,34.21c.59.59.59,1.54,0,2.12l-4.95,4.95c-.59.59-1.54.59-2.12,0s-.59-1.54,0-2.12l4.95-4.95c.59-.59,1.54-.59,2.12,0Z"/>
  <path d="m66.27,8.74c.59.59.59,1.54,0,2.12l-4.95,4.95c-.59.59-1.54.59-2.12,0s-.59-1.54,0-2.12l4.95-4.95c.59-.59,1.54-.59,2.12,0Z"/>
</svg>