<?xml version="1.0" encoding="utf-8"?>
<!-- Generator: Adobe Illustrator 27.7.0, SVG Export Plug-In . SVG Version: 6.00 Build 0)  -->
<svg version="1.1" id="b" xmlns="http://www.w3.org/2000/svg" xmlns:xlink="http://www.w3.org/1999/xlink" x="0px" y="0px"
	 viewBox="0 0 100 50" style="enable-background:new 0 0 100 50;" xml:space="preserve">
<g id="c">
	<path id="d" d="M71.1,33.7l-3.3-1.9l2.5-0.7c0.8-0.2,1.3-1,1.1-1.9L71,27.8c-0.2-0.8-1-1.3-1.8-1.1l-6.9,1.9L56,25l6.2-3.6l6.9,1.9
		c0.8,0.2,1.6-0.3,1.8-1.1l0.4-1.5c0.2-0.8-0.3-1.6-1.1-1.8l-2.5-0.7l3.3-1.9c0.7-0.4,1-1.3,0.6-2.1l-1.5-2.6
		c-0.4-0.7-1.3-1-2.1-0.6L64.8,13l0.7-2.5c0.2-0.8-0.3-1.6-1.1-1.9L63,8.2c-0.8-0.2-1.6,0.3-1.8,1.1l-1.9,6.9l-6.1,3.5v-7.6l5.2-5.2
		c0.6-0.6,0.6-1.6,0-2.2l-1.1-1.1c-0.6-0.6-1.6-0.6-2.2,0l-1.9,1.9V1.6c0-0.9-0.7-1.6-1.6-1.6h-3.1c-0.9,0-1.6,0.7-1.6,1.6v4L45,3.6
		c-0.6-0.6-1.6-0.6-2.2,0l-1.1,1.1c-0.6,0.6-0.6,1.6,0,2.2c0,0,0,0,0,0l5.2,5.2v7.6l-6.1-3.5l-1.9-6.9c-0.2-0.8-1-1.3-1.8-1.1
		l-1.5,0.4c-0.8,0.2-1.3,1-1.1,1.9l0.7,2.5l-3.3-1.9c-0.7-0.4-1.6-0.2-2.1,0.6l0,0l-1.5,2.6c-0.4,0.7-0.2,1.6,0.5,2.1l0,0l3.3,1.9
		l-2.5,0.7c-0.8,0.2-1.3,1-1.1,1.9l0,0l0.4,1.5c0.2,0.8,1,1.3,1.9,1.1l6.9-1.9L44,25l-6.2,3.6l-6.9-1.9C30,26.5,29.2,27,29,27.8
		l-0.4,1.5c-0.2,0.8,0.3,1.6,1.1,1.8l2.5,0.7l-3.3,1.9c-0.7,0.4-1,1.3-0.6,2.1l1.5,2.6c0.4,0.7,1.3,1,2.1,0.6l3.3-1.9l-0.7,2.5
		c-0.2,0.8,0.3,1.6,1.1,1.8l1.5,0.4c0.8,0.2,1.6-0.3,1.8-1.1l1.9-6.9l6.1-3.5v7.6l-5.2,5.2c-0.6,0.6-0.6,1.6,0,2.2c0,0,0,0,0,0
		l1.1,1.1c0.6,0.6,1.6,0.6,2.2,0l1.9-1.9v3.9c0,0.9,0.7,1.6,1.6,1.6h3.1c0.9,0,1.6-0.7,1.6-1.6v-4l1.9,1.9c0.6,0.6,1.6,0.6,2.2,0
		l1.1-1.1c0.6-0.6,0.6-1.6,0-2.2l-5.2-5.2v-7.6l6.1,3.5l1.9,6.9c0.2,0.8,1,1.3,1.8,1.1l1.5-0.4c0.8-0.2,1.3-1,1.1-1.8L64.8,37
		l3.3,1.9c0.7,0.4,1.6,0.2,2.1-0.5l0,0l1.5-2.6C72.1,35,71.9,34.1,71.1,33.7C71.1,33.7,71.1,33.7,71.1,33.7L71.1,33.7L71.1,33.7z"/>
</g>
<g>
	<path d="M37.2,47.2c-3.1-0.1-6.1-1.1-8.6-3H5.7V25C5.7,14.4,14.4,5.7,25,5.7l0,0h3.6c2.5-1.8,5.5-2.9,8.6-3c0.6-1,1.4-1.9,2.2-2.8
		h-14l0,0l0,0h-2.8C10.1,0,0,10.1,0,22.6V50h39.3C38.5,49.2,37.8,48.2,37.2,47.2z"/>
	<path d="M60.7,0c0.8,0.8,1.6,1.8,2.2,2.8c3.1,0.1,6.1,1.1,8.6,3h22.9v38.6H71.4c-2.5,1.8-5.5,2.9-8.6,3c-0.6,1-1.4,1.9-2.2,2.8H100
		V0H60.7z"/>
</g>
</svg>
