<?xml version="1.0" encoding="UTF-8"?><svg id="c" xmlns="http://www.w3.org/2000/svg" viewBox="0 0 100 50"><path d="m28.3,11.71c-.9,1.39-1.97,2.67-3.17,3.82v14.5h3.17V11.71Z" fill="none"/><path d="m71.7,11.71v18.32h3.17v-14.5c-1.2-1.15-2.27-2.43-3.17-3.82Z" fill="none"/><path d="m77.09,30.04h3.28v-10.63c-1.15-.57-2.25-1.24-3.28-2v12.63Z" fill="none"/><path d="m82.59,30.04h3.28v-8.73c-1.12-.22-2.21-.54-3.28-.94v9.67Z" fill="none"/><path d="m68.27,11.72c-.9,1.43-1.97,2.72-3.17,3.88v14.44h3.17V11.72Z" fill="none"/><path d="m22.91,17.41c-1.03.76-2.13,1.43-3.28,2.01v10.63h3.28v-12.63Z" fill="none"/><path d="m17.41,20.37c-1.07.4-2.17.72-3.28.94v8.73h3.28v-9.66Z" fill="none"/><path d="m42.72,30.04h3.38v-8.81c-1.16-.2-2.29-.5-3.38-.87v9.68Z" fill="none"/><path d="m31.73,11.72v18.31h3.17v-14.44c-1.2-1.15-2.27-2.45-3.17-3.88Z" fill="none"/><path d="m59.5,30.04h3.38v-12.58c-1.06.77-2.19,1.43-3.38,2v10.58Z" fill="none"/><path d="m37.12,30.04h3.38v-10.58c-1.19-.56-2.32-1.23-3.38-2v12.58Z" fill="none"/><path d="m53.91,30.04h3.38v-9.68c-1.09.38-2.22.67-3.38.87v8.81Z" fill="none"/><path d="m48.31,21.5v8.54h3.38v-8.54c-.56.04-1.12.07-1.69.07-.57,0-1.13-.03-1.69-.07Z" fill="none"/><path d="m72.44,36.64h-.73v-3.17h18.77v-3.43h-2.39v-8.42c.58.05,1.16.09,1.74.09.05,0,.1,0,.15,0h.5v-3.44h-.5c-4.81.03-9.41-1.87-12.9-5.36-3.49-3.48-5.39-8.06-5.37-12.9h-3.43c.03,4.84-1.88,9.42-5.37,12.9-3.46,3.46-8,5.36-12.79,5.36h-.22c-4.79,0-9.32-1.9-12.79-5.36C33.61,9.42,31.71,4.84,31.73,0h-3.43c.21,8.88-7.41,17.41-16.32,18.27-2.15.22-2.54,2.05-2.45,2.98l.04.45h.45c.63.01,1.26-.02,1.89-.08v8.42h-2.39v3.43h18.77v3.17h-.73l-.79,10.43h-.66v2.93h7.79v-2.93h-.66l-.79-10.43h-.73v-3.17h36.54v3.17h-.73l-.79,10.43h-.66v2.93h7.79v-2.93h-.66l-.79-10.43ZM14.13,21.31c1.12-.22,2.21-.54,3.28-.94v9.66h-3.28v-8.73Zm5.5-1.9c1.15-.57,2.25-1.24,3.28-2.01v12.63h-3.28v-10.63Zm5.5-3.88c1.2-1.15,2.27-2.43,3.17-3.82v18.32h-3.17v-14.5Zm55.24,14.5h-3.28v-12.63c1.03.76,2.13,1.43,3.28,2v10.63Zm-5.5,0h-3.17V11.71c.9,1.4,1.97,2.67,3.17,3.82v14.5Zm10.99,0h-3.28v-9.67c1.07.4,2.16.72,3.28.94v8.73Zm-20.77-14.44c1.2-1.15,2.27-2.45,3.17-3.88v18.31h-3.17v-14.44Zm-2.22,14.44h-3.38v-10.58c1.19-.56,2.32-1.23,3.38-2v12.58Zm-5.59,0h-3.38v-8.81c1.16-.2,2.29-.5,3.38-.87v9.68Zm-5.6,0h-3.38v-8.54c.56.04,1.12.07,1.69.07.57,0,1.13-.03,1.69-.07v8.54Zm-5.6,0h-3.38v-9.68c1.09.38,2.22.67,3.38.87v8.81Zm-5.59,0h-3.38v-12.58c1.06.77,2.19,1.43,3.38,2v10.58Zm-5.6,0h-3.17V11.72c.9,1.43,1.97,2.73,3.17,3.88v14.44Z"/><rect x="38.41" y="44.28" width="23.17" height="5.71"/><path d="m62.62,5.71c.74-1.76,1.15-3.69,1.15-5.71h-27.54c0,2.02.41,3.96,1.15,5.71h25.23Z"/><path d="m76.2,0c0,2.02.41,3.96,1.15,5.71h16.93v38.57h-15.9v5.71h21.62V0h-23.8Z"/><path d="m5.71,25c0-10.17,6.91-18.5,16.9-19.22.76-1.78,1.18-3.73,1.18-5.78h-1.22C10.11,0,0,10.11,0,22.58v27.42h21.62v-5.71H5.71v-19.28Z"/></svg>