<?xml version="1.0" encoding="UTF-8"?><svg id="a" xmlns="http://www.w3.org/2000/svg" viewBox="0 0 400 500"><path d="m391.85,171.04h-127.75c-4.98,0-9.06-3.97-9.06-8.82V6.06c0-3.65-3.07-6.06-6.26-6.06-1.56,0-3.15.57-4.42,1.86L1.75,246.19c-2.33,2.35-2.33,6.07,0,8.41l242.61,243.55c1.27,1.28,2.86,1.85,4.41,1.85,3.19,0,6.26-2.41,6.26-6.06v-154.43c0-4.85,4.08-8.82,9.06-8.82h127.75c5.44,0,8.15-4.41,8.15-7.94v-143.77c0-4.38-3.65-7.94-8.15-7.94Zm-31.85,119.65h-132.96c-6.63,0-12,5.37-12,12v109.34L53.98,250.35,215.04,88.15v110.89c0,6.63,5.37,12,12,12h132.96v79.65Z"/></svg>